<svg width="136" height="42" viewBox="0 0 136 42" fill="none" xmlns="http://www.w3.org/2000/svg">
<g clip-path="url(#clip0_87_701)">
<path d="M136 0H0V42H136V0Z" fill="#9D2235"/>
<path fill-rule="evenodd" clip-rule="evenodd" d="M35.3357 15.8916C37.0196 15.8916 38.3882 14.5184 38.3882 12.8252C38.3882 11.1319 37.0196 9.75879 35.3357 9.75879C33.6517 9.75879 32.2832 11.1319 32.2832 12.8252C32.2832 14.5184 33.6517 15.8916 35.3357 15.8916ZM33.6842 12.8252C33.6842 11.9067 34.4218 11.1691 35.3357 11.1691C36.2496 11.1691 36.9825 11.9113 36.9825 12.8252C36.9825 13.7391 36.2449 14.4813 35.3357 14.4813C34.4264 14.4813 33.6842 13.7391 33.6842 12.8252Z" fill="#FDDA24"/>
<path fill-rule="evenodd" clip-rule="evenodd" d="M39.0522 9.93018H42.9954V31.0006H39.0615L39.0522 9.93018ZM48.7385 9.93018H44.8046V30.996H48.7385V24.673H48.7849L52.5054 30.996H56.9588L52.1528 23.6292L57.1026 17.7748H52.4358L48.7895 22.6133H48.7431V9.93018H48.7385ZM33.3091 30.9914H37.2383V17.7748H33.3091V30.9914ZM17.7451 24.7194L15.2401 17.7701H11L16.089 30.9914H19.0812L21.6373 23.7266L24.314 30.9914H27.2969L32.488 17.7701H28.3639L25.8124 24.673L23.4326 17.8072H20.1714L17.7451 24.7194ZM69.4471 24.4318C69.4471 28.2311 66.3668 31.3114 62.5674 31.3114C58.768 31.3114 55.6877 28.2311 55.6877 24.4318C55.6877 20.6324 58.768 17.5521 62.5674 17.5521C66.3668 17.5521 69.4471 20.6324 69.4471 24.4318ZM59.3108 24.4318C59.3108 22.6318 60.7675 21.1752 62.5674 21.1752C64.3674 21.1752 65.824 22.6318 65.824 24.4318C65.824 26.2317 64.3674 27.6884 62.5674 27.6884C60.7675 27.6884 59.3108 26.2317 59.3108 24.4318Z" fill="white"/>
<path d="M86.7262 26.2177C85.9143 29.1264 83.2747 31.3207 79.9207 31.3207C75.5322 31.3207 72.7441 27.9435 72.7441 24.2183C72.7441 20.2473 75.7781 17.116 79.7955 17.116C83.001 17.116 85.8865 19.0876 86.7215 22.3163H84.0819C83.3907 20.5164 81.716 19.5051 79.8929 19.5051C78.5383 19.4819 77.5502 19.9226 76.6131 20.8133C75.8245 21.6019 75.3049 22.8591 75.3049 24.2137C75.3049 26.9739 77.3275 28.9223 79.8929 28.9223C82.1382 28.8991 83.5438 27.5399 84.0819 26.2085H86.7215L86.7262 26.2177Z" fill="white"/>
<path d="M87.584 24.1951C87.584 20.6184 90.2236 17.1206 94.7327 17.1206C99.2419 17.1206 101.881 20.6231 101.881 24.223C101.881 27.8228 99.2419 31.2975 94.7327 31.2975C90.2236 31.2975 87.584 27.8228 87.584 24.223V24.1998V24.1951ZM90.1494 24.2461C90.1494 26.909 92.172 28.9037 94.7374 28.9037C97.3027 28.9037 99.3254 26.9043 99.3254 24.2183C99.3254 21.5323 97.3027 19.5329 94.7374 19.5329C92.172 19.5329 90.1494 21.5323 90.1494 24.2183V24.2415V24.2461Z" fill="white"/>
<path d="M103.637 17.5149H106.054V19.4123C106.62 18.2804 108.174 17.1206 110.122 17.1206C111.356 17.1206 112.636 17.4917 113.574 18.5494C113.917 18.8927 114.288 19.6118 114.436 19.8576C114.659 19.4633 114.928 18.9948 115.397 18.5262C116.26 17.6634 117.493 17.1206 118.946 17.1206C120.179 17.1206 121.557 17.4639 122.545 18.4752C123.728 19.6813 124.025 20.9664 124.025 23.5317V30.9263H121.46V23.6292C121.46 22.5204 121.311 21.4117 120.722 20.6463C120.254 19.9551 119.539 19.5375 118.329 19.5375C117.197 19.5375 116.232 20.0061 115.74 20.8179C115.197 21.6576 115.123 22.3952 115.123 23.5317V30.9263H112.534V23.5317C112.558 22.423 112.437 21.6065 111.992 20.8689C111.5 20.0803 110.711 19.5607 109.454 19.5375C108.248 19.5143 107.357 20.1035 106.917 20.8457C106.425 21.5602 106.202 22.4972 106.202 23.5828V30.931H103.637V17.5196V17.5149Z" fill="white"/>
<path d="M70.9325 31.2512C71.7549 31.2512 72.4216 30.5845 72.4216 29.7621C72.4216 28.9397 71.7549 28.2729 70.9325 28.2729C70.1101 28.2729 69.4434 28.9397 69.4434 29.7621C69.4434 30.5845 70.1101 31.2512 70.9325 31.2512Z" fill="white"/>
</g>
<defs>
<clipPath id="clip0_87_701">
<rect width="136" height="42" fill="white"/>
</clipPath>
</defs>
</svg>
