<svg width="95" height="48" viewBox="0 0 95 48" fill="none" xmlns="http://www.w3.org/2000/svg">
<g clip-path="url(#clip0_87_737)">
<path fill-rule="evenodd" clip-rule="evenodd" d="M41.7074 18.5007C43.8348 18.5007 45.5594 16.7676 45.5594 14.6298C45.5594 12.4919 43.8348 10.7588 41.7074 10.7588C39.5801 10.7588 37.8555 12.4919 37.8555 14.6298C37.8555 16.7676 39.5801 18.5007 41.7074 18.5007ZM39.6251 14.6296C39.6251 13.473 40.558 12.5373 41.7072 12.5373C42.8563 12.5373 43.7875 13.473 43.7875 14.6296C43.7875 15.7844 42.8563 16.7202 41.7072 16.7202C40.558 16.7202 39.6251 15.7844 39.6251 14.6296Z" fill="black"/>
<path fill-rule="evenodd" clip-rule="evenodd" d="M46.3926 10.98H51.3655V37.5656H46.403L46.3926 10.98ZM58.613 10.9852H53.6522H53.6505V37.5656H58.6113V29.5872H58.67L63.3616 37.5656H68.9801L62.9145 28.2715L69.1596 20.8836H63.2735L58.6717 26.987H58.613V10.9852ZM39.1445 37.5587H44.1037V20.8818H39.1445V37.5587ZM19.5097 29.6458L16.3492 20.88H11L17.4194 37.5586H21.1927L24.4188 28.3906L27.7951 37.5586H31.5563L38.1034 20.88H32.9026L29.6852 29.5905L26.6852 20.9266H22.5701L19.5097 29.6458ZM84.7382 29.2849C84.7382 34.0796 80.8527 37.9661 76.0576 37.9661C71.2642 37.9661 67.377 34.0796 67.377 29.2849C67.377 24.4903 71.2624 20.6038 76.0576 20.6038C80.8527 20.6038 84.7382 24.4903 84.7382 29.2849ZM71.9512 29.285C71.9512 27.0163 73.7895 25.1775 76.0576 25.1775C78.3257 25.1775 80.164 27.0163 80.164 29.285C80.164 31.5537 78.3257 33.3925 76.0576 33.3925C73.7895 33.3925 71.9512 31.552 71.9512 29.285Z" fill="black"/>
</g>
<defs>
<clipPath id="clip0_87_737">
<rect width="95" height="48" fill="white"/>
</clipPath>
</defs>
</svg>
