<svg width="94" height="48" viewBox="0 0 94 48" fill="none" xmlns="http://www.w3.org/2000/svg">
<g clip-path="url(#clip0_87_723)">
<rect width="94" height="48" fill="#9D2235"/>
<path fill-rule="evenodd" clip-rule="evenodd" d="M40.7074 17.7419C42.8348 17.7419 44.5594 16.0088 44.5594 13.871C44.5594 11.7331 42.8348 10 40.7074 10C38.5801 10 36.8555 11.7331 36.8555 13.871C36.8555 16.0088 38.5801 17.7419 40.7074 17.7419ZM38.6251 13.8708C38.6251 12.7142 39.558 11.7785 40.7072 11.7785C41.8563 11.7785 42.7875 12.7142 42.7875 13.8708C42.7875 15.0256 41.8563 15.9614 40.7072 15.9614C39.558 15.9614 38.6251 15.0256 38.6251 13.8708Z" fill="#FDDA24"/>
<path fill-rule="evenodd" clip-rule="evenodd" d="M45.3926 10.2212H50.3655V36.8068H45.403L45.3926 10.2212ZM57.613 10.2264H52.6522H52.6505V36.8068H57.6113V28.8284H57.67L62.3616 36.8068H67.9801L61.9145 27.5127L68.1596 20.1248H62.2735L57.6717 26.2282H57.613V10.2264ZM38.1445 36.7999H43.1037V20.123H38.1445V36.7999ZM18.5097 28.887L15.3492 20.1212H10L16.4194 36.7998H20.1927L23.4188 27.6318L26.7951 36.7998H30.5563L37.1034 20.1212H31.9026L28.6852 28.8318L25.6852 20.1679H21.5701L18.5097 28.887ZM83.7382 28.5261C83.7382 33.3208 79.8527 37.2073 75.0576 37.2073C70.2642 37.2073 66.377 33.3208 66.377 28.5261C66.377 23.7315 70.2624 19.845 75.0576 19.845C79.8527 19.845 83.7382 23.7315 83.7382 28.5261ZM70.9512 28.5262C70.9512 26.2575 72.7895 24.4187 75.0576 24.4187C77.3257 24.4187 79.164 26.2575 79.164 28.5262C79.164 30.7949 77.3257 32.6337 75.0576 32.6337C72.7895 32.6337 70.9512 30.7932 70.9512 28.5262Z" fill="white"/>
</g>
<defs>
<clipPath id="clip0_87_723">
<rect width="94" height="48" fill="white"/>
</clipPath>
</defs>
</svg>
