<svg width="115" height="24" viewBox="0 0 115 24" fill="none" xmlns="http://www.w3.org/2000/svg">
<path fill-rule="evenodd" clip-rule="evenodd" d="M25.3357 7.13279C27.0196 7.13279 28.3882 5.75964 28.3882 4.0664C28.3882 2.37315 27.0196 1 25.3357 1C23.6517 1 22.2832 2.37315 22.2832 4.0664C22.2832 5.75964 23.6517 7.13279 25.3357 7.13279ZM23.6842 4.0664C23.6842 3.14787 24.4218 2.41026 25.3357 2.41026C26.2496 2.41026 26.9825 3.15251 26.9825 4.0664C26.9825 4.98028 26.2449 5.72253 25.3357 5.72253C24.4264 5.72253 23.6842 4.98028 23.6842 4.0664Z" fill="black"/>
<path fill-rule="evenodd" clip-rule="evenodd" d="M29.0522 1.17139H32.9954V22.2418H29.0615L29.0522 1.17139ZM38.7385 1.17139H34.8046V22.2372H38.7385V15.9142H38.7849L42.5054 22.2372H46.9588L42.1528 14.8704L47.1026 9.01598H42.4358L38.7895 13.8545H38.7431V1.17139H38.7385ZM23.3091 22.2326H27.2383V9.01598H23.3091V22.2326ZM7.74514 15.9606L5.24007 9.01134H1L6.08901 22.2326H9.08118L11.6373 14.9678L14.314 22.2326H17.2969L22.488 9.01134H18.3639L15.8124 15.9142L13.4326 9.04845H10.1714L7.74514 15.9606ZM59.4471 15.673C59.4471 19.4723 56.3668 22.5527 52.5674 22.5527C48.768 22.5527 45.6877 19.4723 45.6877 15.673C45.6877 11.8736 48.768 8.7933 52.5674 8.7933C56.3668 8.7933 59.4471 11.8736 59.4471 15.673ZM49.3108 15.673C49.3108 13.873 50.7675 12.4164 52.5674 12.4164C54.3674 12.4164 55.824 13.873 55.824 15.673C55.824 17.4729 54.3674 18.9296 52.5674 18.9296C50.7675 18.9296 49.3108 17.4729 49.3108 15.673Z" fill="black"/>
<path d="M76.7262 17.4589C75.9143 20.3676 73.2747 22.5619 69.9207 22.5619C65.5322 22.5619 62.7441 19.1847 62.7441 15.4595C62.7441 11.4885 65.7781 8.35718 69.7955 8.35718C73.001 8.35718 75.8865 10.3288 76.7215 13.5575H74.0819C73.3907 11.7576 71.716 10.7463 69.8929 10.7463C68.5383 10.7231 67.5502 11.1638 66.6131 12.0545C65.8245 12.8431 65.3049 14.1003 65.3049 15.4549C65.3049 18.2151 67.3275 20.1635 69.8929 20.1635C72.1382 20.1403 73.5438 18.7811 74.0819 17.4497H76.7215L76.7262 17.4589Z" fill="black"/>
<path d="M77.584 15.4363C77.584 11.8596 80.2236 8.36182 84.7327 8.36182C89.2419 8.36182 91.8815 11.8643 91.8815 15.4642C91.8815 19.064 89.2419 22.5387 84.7327 22.5387C80.2236 22.5387 77.584 19.064 77.584 15.4642V15.441V15.4363ZM80.1494 15.4874C80.1494 18.1502 82.172 20.1449 84.7374 20.1449C87.3027 20.1449 89.3254 18.1455 89.3254 15.4595C89.3254 12.7735 87.3027 10.7741 84.7374 10.7741C82.172 10.7741 80.1494 12.7735 80.1494 15.4595V15.4827V15.4874Z" fill="black"/>
<path d="M93.6367 8.75613H96.0537V10.6535C96.6196 9.52157 98.1737 8.36182 100.122 8.36182C101.356 8.36182 102.636 8.73294 103.574 9.79064C103.917 10.1339 104.288 10.853 104.436 11.0988C104.659 10.7045 104.928 10.236 105.397 9.76744C106.26 8.90458 107.493 8.36182 108.946 8.36182C110.179 8.36182 111.557 8.70511 112.545 9.71641C113.728 10.9226 114.025 12.2076 114.025 14.773V22.1676H111.46V14.8704C111.46 13.7616 111.311 12.6529 110.722 11.8875C110.254 11.1963 109.539 10.7788 108.329 10.7788C107.197 10.7788 106.232 11.2473 105.74 12.0591C105.197 12.8988 105.123 13.6364 105.123 14.773V22.1676H102.534V14.773C102.558 13.6642 102.437 12.8478 101.992 12.1102C101.5 11.3215 100.711 10.8019 99.4541 10.7788C98.2479 10.7556 97.3572 11.3447 96.9165 12.087C96.4248 12.8014 96.2021 13.7384 96.2021 14.824V22.1722H93.6367V8.76077V8.75613Z" fill="black"/>
<path d="M60.9325 22.4924C61.7549 22.4924 62.4216 21.8257 62.4216 21.0033C62.4216 20.1809 61.7549 19.5142 60.9325 19.5142C60.1101 19.5142 59.4434 20.1809 59.4434 21.0033C59.4434 21.8257 60.1101 22.4924 60.9325 22.4924Z" fill="black"/>
</svg>
