<svg width="20" height="20" viewBox="0 0 20 20" fill="none" xmlns="http://www.w3.org/2000/svg">
<mask id="path-1-inside-1_90_1254" fill="white">
<path fill-rule="evenodd" clip-rule="evenodd" d="M0.222656 3C0.222656 2.44771 0.670372 2 1.22266 2L2.92318 2L17.0778 2L18.7782 2C19.3305 2 19.7782 2.44772 19.7782 3L19.7782 4.55556C19.7782 5.10784 19.3305 5.55556 18.7782 5.55556L18.0778 5.55556L18.0778 17C18.0778 17.5523 17.63 18 17.0778 18L2.92317 18C2.37089 18 1.92317 17.5523 1.92317 17L1.92318 5.55556L1.22266 5.55556C0.670371 5.55556 0.222656 5.10784 0.222656 4.55556L0.222656 3ZM17.0778 5.55556L2.92318 5.55556L2.92317 17L5.55664 17L5.55664 11.7776C5.55664 11.2866 5.95461 10.8887 6.44553 10.8887L13.5566 10.8887C14.0476 10.8887 14.4455 11.2866 14.4455 11.7776L14.4455 17L17.0778 17L17.0778 5.55556Z"/>
</mask>
<path fill-rule="evenodd" clip-rule="evenodd" d="M0.222656 3C0.222656 2.44771 0.670372 2 1.22266 2L2.92318 2L17.0778 2L18.7782 2C19.3305 2 19.7782 2.44772 19.7782 3L19.7782 4.55556C19.7782 5.10784 19.3305 5.55556 18.7782 5.55556L18.0778 5.55556L18.0778 17C18.0778 17.5523 17.63 18 17.0778 18L2.92317 18C2.37089 18 1.92317 17.5523 1.92317 17L1.92318 5.55556L1.22266 5.55556C0.670371 5.55556 0.222656 5.10784 0.222656 4.55556L0.222656 3ZM17.0778 5.55556L2.92318 5.55556L2.92317 17L5.55664 17L5.55664 11.7776C5.55664 11.2866 5.95461 10.8887 6.44553 10.8887L13.5566 10.8887C14.0476 10.8887 14.4455 11.2866 14.4455 11.7776L14.4455 17L17.0778 17L17.0778 5.55556Z" fill="white"/>
<path d="M18.0778 5.55556L18.0778 4.55556L17.0778 4.55556L17.0778 5.55556L18.0778 5.55556ZM1.92317 17L0.923175 17L1.92317 17ZM1.92318 5.55556L2.92318 5.55556L2.92318 4.55556L1.92318 4.55556L1.92318 5.55556ZM2.92318 5.55556L2.92318 4.55556L1.92318 4.55556L1.92318 5.55556L2.92318 5.55556ZM17.0778 5.55556L18.0778 5.55556L18.0778 4.55556L17.0778 4.55556L17.0778 5.55556ZM2.92317 17L1.92317 17L1.92317 18L2.92317 18L2.92317 17ZM5.55664 17L5.55664 18L6.55664 18L6.55664 17L5.55664 17ZM5.55664 11.7776L6.55664 11.7776L5.55664 11.7776ZM6.44553 10.8887L6.44553 11.8887L6.44553 10.8887ZM13.5566 10.8887L13.5566 9.88867L13.5566 10.8887ZM14.4455 11.7776L15.4455 11.7776L14.4455 11.7776ZM14.4455 17L13.4455 17L13.4455 18L14.4455 18L14.4455 17ZM17.0778 17L17.0778 18L18.0778 18L18.0778 17L17.0778 17ZM1.22266 1C0.118087 1 -0.777344 1.89543 -0.777344 3L1.22266 3L1.22266 3L1.22266 1ZM2.92318 1L1.22266 1L1.22266 3L2.92318 3L2.92318 1ZM17.0778 1L2.92318 1L2.92318 3L17.0778 3L17.0778 1ZM18.7782 1L17.0778 1L17.0778 3L18.7782 3L18.7782 1ZM20.7782 3C20.7782 1.89543 19.8828 1 18.7782 1L18.7782 3L20.7782 3ZM20.7782 4.55556L20.7782 3L18.7782 3L18.7782 4.55556L20.7782 4.55556ZM18.7782 6.55556C19.8828 6.55556 20.7782 5.66013 20.7782 4.55556L18.7782 4.55556L18.7782 4.55556L18.7782 6.55556ZM18.0778 6.55556L18.7782 6.55556L18.7782 4.55556L18.0778 4.55556L18.0778 6.55556ZM19.0778 17L19.0778 5.55556L17.0778 5.55556L17.0778 17L19.0778 17ZM17.0778 19C18.1823 19 19.0778 18.1046 19.0778 17L17.0778 17L17.0778 19ZM2.92317 19L17.0778 19L17.0778 17L2.92317 17L2.92317 19ZM0.923175 17C0.923174 18.1046 1.81861 19 2.92317 19L2.92317 17L2.92317 17L0.923175 17ZM0.923177 5.55556L0.923175 17L2.92317 17L2.92318 5.55556L0.923177 5.55556ZM1.22266 6.55556L1.92318 6.55556L1.92318 4.55556L1.22266 4.55556L1.22266 6.55556ZM-0.777344 4.55556C-0.777344 5.66013 0.118086 6.55556 1.22266 6.55556L1.22266 4.55556L1.22266 4.55556L-0.777344 4.55556ZM-0.777344 3L-0.777344 4.55556L1.22266 4.55556L1.22266 3L-0.777344 3ZM2.92318 6.55556L17.0778 6.55556L17.0778 4.55556L2.92318 4.55556L2.92318 6.55556ZM3.92317 17L3.92318 5.55556L1.92318 5.55556L1.92317 17L3.92317 17ZM5.55664 16L2.92317 16L2.92317 18L5.55664 18L5.55664 16ZM6.55664 17L6.55664 11.7776L4.55664 11.7776L4.55664 17L6.55664 17ZM6.55664 11.7776C6.55664 11.8389 6.50689 11.8887 6.44553 11.8887L6.44553 9.88867C5.40232 9.88867 4.55664 10.7344 4.55664 11.7776L6.55664 11.7776ZM6.44553 11.8887L13.5566 11.8887L13.5566 9.88867L6.44553 9.88867L6.44553 11.8887ZM13.5566 11.8887C13.4953 11.8887 13.4455 11.8389 13.4455 11.7776L15.4455 11.7776C15.4455 10.7344 14.5998 9.88867 13.5566 9.88867L13.5566 11.8887ZM13.4455 11.7776L13.4455 17L15.4455 17L15.4455 11.7776L13.4455 11.7776ZM17.0778 16L14.4455 16L14.4455 18L17.0778 18L17.0778 16ZM16.0778 5.55556L16.0778 17L18.0778 17L18.0778 5.55556L16.0778 5.55556Z" fill="#222222" mask="url(#path-1-inside-1_90_1254)"/>
<path fill-rule="evenodd" clip-rule="evenodd" d="M9.5 17L9.5 11L10.5 11L10.5 17H9.5Z" fill="#222222"/>
<rect x="5.55664" y="6.44446" width="8.88889" height="2.66667" rx="1.33333" fill="#9D2235"/>
</svg>
