<svg width="20" height="20" viewBox="0 0 20 20" fill="none" xmlns="http://www.w3.org/2000/svg">
<path d="M12.2217 2.23212C12.2099 2.18995 12.1894 2.15068 12.1617 2.11678C12.134 2.08287 12.0995 2.05505 12.0606 2.03506C12.0216 2.01507 11.9789 2.00335 11.9352 2.00062C11.8915 1.99789 11.8476 2.00421 11.8065 2.0192C11.7229 2.05573 11.6563 2.1225 11.6199 2.20611C11.5835 2.28972 11.58 2.38401 11.6102 2.47005L12.2217 2.23212ZM11.6102 2.47005L12.8491 6.21782L13.4606 5.97989L12.2217 2.23212L11.6102 2.47005ZM14.8276 7.84998L17.6077 8.06442L17.6539 7.36124L14.873 7.14302L14.8276 7.84998ZM12.8491 6.21782C12.9811 6.65439 13.2386 7.04207 13.5908 7.3319C13.9429 7.62172 14.3738 7.80069 14.8276 7.84619L14.873 7.14302C14.5489 7.11051 14.2417 6.98268 13.9902 6.77566C13.7386 6.56864 13.5549 6.29172 13.4606 5.97989L12.8491 6.21782Z" fill="#222222"/>
<path d="M14.0834 14.5348L5.43265 14.5348M17.2768 14.5348L18.1191 14.5348C18.402 14.5073 18.6627 14.3697 18.845 14.1517C19.0273 13.9337 19.1165 13.6527 19.0935 13.3694L19.0935 10.6151C19.0946 10.3907 19.0391 10.1697 18.9321 9.9725L18.01 8.30093L15.8724 3.06497C15.8084 2.88094 15.6908 2.7203 15.5347 2.60374C15.3785 2.48719 15.1911 2.42007 14.9965 2.41104L1.8823 2.41104C1.59944 2.43855 1.33873 2.57616 1.15642 2.79419C0.97412 3.01221 0.884843 3.29317 0.907855 3.57644L0.907853 13.3694C0.884841 13.6527 0.974118 13.9337 1.15642 14.1517C1.33872 14.3697 1.59944 14.5073 1.8823 14.5348L2.30766 14.5348" stroke="#222222"/>
<path fill-rule="evenodd" clip-rule="evenodd" d="M3.8758 14.2113C3.08794 14.2113 2.44925 14.85 2.44925 15.6379C2.44925 16.4258 3.08794 17.0644 3.8758 17.0644C4.66366 17.0644 5.30235 16.4258 5.30236 15.6379C5.30236 14.85 4.66367 14.2113 3.8758 14.2113ZM1.51367 15.6379C1.51367 14.3333 2.57123 13.2758 3.8758 13.2758C5.18037 13.2758 6.23793 14.3333 6.23793 15.6379C6.23793 16.9425 5.18037 18 3.8758 18C2.57123 18 1.51367 16.9425 1.51367 15.6379Z" fill="#222222"/>
<path fill-rule="evenodd" clip-rule="evenodd" d="M15.7098 14.2113C14.9219 14.2113 14.2832 14.85 14.2832 15.6379C14.2832 16.4258 14.9219 17.0644 15.7098 17.0644C16.4976 17.0644 17.1363 16.4258 17.1363 15.6379C17.1363 14.85 16.4976 14.2113 15.7098 14.2113ZM13.3477 15.6379C13.3477 14.3333 14.4052 13.2758 15.7098 13.2758C17.0144 13.2758 18.0719 14.3333 18.0719 15.6379C18.0719 16.9425 17.0144 18 15.7098 18C14.4052 18 13.3477 16.9425 13.3477 15.6379Z" fill="#222222"/>
<rect x="2.77539" y="5.74231" width="9.35574" height="2.80672" rx="1.40336" fill="#9D2235"/>
</svg>
