<svg width="20" height="20" viewBox="0 0 20 20" fill="none" xmlns="http://www.w3.org/2000/svg">
<path d="M19.1514 10.5183V12.5379C19.2059 12.948 19.1193 13.3645 18.9056 13.7188C18.7792 13.8663 18.6112 13.9721 18.4236 14.0224H17.0885V13.9742C17.1033 13.6349 17.0493 13.296 16.9297 12.9781C16.8101 12.6602 16.6273 12.3698 16.3924 12.1244C16.1576 11.879 15.8754 11.6837 15.5631 11.5503C15.2507 11.4169 14.9145 11.3481 14.5748 11.3481C14.2351 11.3481 13.899 11.4169 13.5866 11.5503C13.2742 11.6837 12.9921 11.879 12.7572 12.1244C12.5223 12.3698 12.3396 12.6602 12.22 12.9781C12.1003 13.296 12.0463 13.6349 12.0612 13.9742H6.99536C6.99536 12.5873 5.87104 11.463 4.48413 11.463C3.09722 11.463 1.9729 12.5873 1.9729 13.9742H1.66442C1.55115 13.9738 1.43915 13.9502 1.33528 13.9051C1.2314 13.8599 1.13782 13.794 1.06024 13.7115C0.982659 13.6289 0.922711 13.5315 0.884051 13.425C0.845391 13.3185 0.82883 13.2053 0.835379 13.0922V5.49102C0.833464 5.38151 0.85314 5.2727 0.893286 5.1708C0.933431 5.06889 0.993258 4.9759 1.06935 4.89712C1.14544 4.81834 1.23631 4.75533 1.33676 4.71167C1.43721 4.66802 1.54527 4.64458 1.65478 4.6427H12.4323C12.8936 4.65061 13.2619 5.02965 13.2566 5.49102V6.17546H15.011C15.5902 6.1523 16.1697 6.21236 16.7318 6.35381C17.2382 6.50225 17.6882 6.79949 18.0235 7.20695C18.44 7.70025 18.7457 8.27718 18.9201 8.89877C19.0643 9.42689 19.142 9.97093 19.1514 10.5183ZM6.18559 13.8537C6.19809 14.1929 6.1089 14.528 5.92948 14.816C5.75007 15.104 5.48862 15.3318 5.17874 15.4701C4.86886 15.6084 4.5247 15.6509 4.19049 15.5921C3.85628 15.5333 3.54728 15.376 3.30321 15.1402C3.05913 14.9044 2.89113 14.6011 2.82078 14.2691C2.75043 13.9371 2.78096 13.5917 2.90844 13.2772C3.03591 12.9627 3.25452 12.6936 3.53616 12.5043C3.8178 12.315 4.14961 12.2142 4.48895 12.2149C5.40899 12.2015 6.16713 12.9338 6.18559 13.8537ZM16.2739 13.8537C16.2864 14.1929 16.1972 14.528 16.0178 14.816C15.8384 15.104 15.5769 15.3318 15.267 15.4701C14.9571 15.6084 14.613 15.6509 14.2788 15.5921C13.9446 15.5333 13.6356 15.376 13.3915 15.1402C13.1474 14.9044 12.9794 14.6011 12.9091 14.2691C12.8387 13.9371 12.8692 13.5917 12.9967 13.2772C13.1242 12.9627 13.3428 12.6936 13.6244 12.5043C13.9061 12.315 14.2379 12.2142 14.5772 12.2149C15.4917 12.2095 16.241 12.9395 16.2594 13.8537M17.7054 10.099C17.7228 10.0984 17.7398 10.0943 17.7555 10.0868C17.7711 10.0793 17.785 10.0687 17.7964 10.0555C17.8077 10.0424 17.8162 10.027 17.8213 10.0105C17.8263 9.99387 17.8279 9.97641 17.8259 9.95918C17.5126 8.03117 16.4956 7.70823 16.0232 7.66485C15.9415 7.65727 15.8594 7.65565 15.7774 7.66003V9.97846C15.7774 10.0091 15.7896 10.0386 15.8113 10.0603C15.833 10.0819 15.8624 10.0941 15.8931 10.0941L17.7054 10.099Z" fill="#1D8634"/>
</svg>
