<svg width="20" height="20" viewBox="0 0 20 20" fill="none" xmlns="http://www.w3.org/2000/svg">
<path fill-rule="evenodd" clip-rule="evenodd" d="M1.02366 5.21689C0.973666 5.2167 0.925632 5.23634 0.89008 5.27149C0.854528 5.30665 0.834357 5.35446 0.833984 5.40445V7.99933C0.833984 8.10157 0.9186 8.18618 1.02296 8.18618H2.02283C2.12719 8.18618 2.2118 8.26939 2.2118 8.37234L2.19418 16.3135C2.19427 16.338 2.1992 16.3622 2.20868 16.3848C2.21817 16.4074 2.23202 16.4279 2.24945 16.4452C2.26687 16.4624 2.28753 16.476 2.31023 16.4852C2.33293 16.4945 2.35724 16.4991 2.38174 16.4989H17.6344C17.6594 16.4991 17.6842 16.4944 17.7073 16.485C17.7305 16.4756 17.7516 16.4617 17.7694 16.4442C17.7872 16.4266 17.8014 16.4057 17.8111 16.3827C17.8209 16.3597 17.826 16.335 17.8262 16.31V8.37234C17.8262 8.27009 17.9108 8.18618 18.0151 8.18618H18.9783C19.003 8.18637 19.0274 8.1817 19.0502 8.17245C19.0731 8.16319 19.0938 8.14953 19.1114 8.13225C19.1289 8.11496 19.1429 8.09439 19.1525 8.0717C19.1621 8.04902 19.1671 8.02466 19.1673 8.00003V5.40375C19.1669 5.35394 19.1469 5.30631 19.1114 5.27128C19.076 5.23626 19.0282 5.2167 18.9783 5.21689H1.02366ZM9.29552 14.8997C9.29552 15.0034 9.21584 15.0887 9.11924 15.0887L5.94616 15.0866C5.84956 15.0866 5.76988 15.002 5.76988 14.8983V9.63663C5.76988 9.53298 5.84956 9.44766 5.94616 9.44766H9.11924C9.21584 9.44766 9.29552 9.53227 9.29552 9.63663V14.8997ZM14.2314 14.8997C14.2314 15.0034 14.168 15.0887 14.0904 15.0887L10.8468 15.0866C10.7685 15.0866 10.7058 15.002 10.7058 14.8983V9.63663C10.7058 9.53298 10.7692 9.44766 10.8461 9.44766H14.0904C14.1687 9.44766 14.2314 9.53227 14.2314 9.63663V14.8997Z" fill="#1D8634"/>
</svg>
