<svg width="40" height="40" viewBox="0 0 40 40" fill="none" xmlns="http://www.w3.org/2000/svg">
<g clip-path="url(#clip0_95_1835)">
<path d="M20 6C27.7 6 34 12.3 34 20C34 26.93 28.9596 32.6704 22.3096 33.8604L22.249 33.8105C22.2931 33.803 22.3378 33.7981 22.3818 33.79V23.9199H25.4619L26.0918 20H22.3818V17.2705C22.3818 16.1506 22.8017 15.3097 24.4814 15.3096H26.3018V11.7402C25.3218 11.6002 24.2017 11.46 23.2217 11.46C20.0017 11.46 17.7618 13.42 17.7617 16.9199V20H14.2617V23.9199H17.7617V33.79C17.7656 33.7907 17.7696 33.7903 17.7734 33.791L17.6904 33.8604C11.0404 32.6704 6 26.93 6 20C6 12.3 12.3 6 20 6Z" fill="white"/>
</g>
<defs>
<clipPath id="clip0_95_1835">
<rect width="28" height="28" fill="white" transform="translate(6 6)"/>
</clipPath>
</defs>
</svg>
