<svg width="40" height="40" viewBox="0 0 40 40" fill="none" xmlns="http://www.w3.org/2000/svg">
<path d="M20 4C28.8352 4 36 11.1648 36 20C36 28.8352 28.8352 36 20 36C11.1648 36 4 28.8352 4 20C4 11.1648 11.1648 4 20 4ZM19.999 9.07812C17.033 9.07812 16.6615 9.09113 15.4971 9.14551C14.3355 9.19991 13.5413 9.3823 12.8438 9.6543C12.127 9.92949 11.5159 10.3041 10.9111 10.9121C10.3033 11.52 9.93197 12.1279 9.65039 12.8477C9.38159 13.5421 9.196 14.3362 9.1416 15.501C9.08721 16.6657 9.07422 17.0369 9.07422 20.0029C9.07422 22.9693 9.0872 23.3411 9.1416 24.5059C9.196 25.6673 9.37845 26.4607 9.65039 27.1582C9.92878 27.8718 10.3032 28.4831 10.9111 29.0879C11.519 29.6958 12.1269 30.0671 12.8467 30.3486C13.5411 30.6174 14.3352 30.803 15.5 30.8574C16.6646 30.9118 17.0359 30.9248 20.002 30.9248C22.9684 30.9248 23.3401 30.9118 24.5049 30.8574C25.6663 30.803 26.4597 30.6206 27.1572 30.3486C27.8708 30.0702 28.4821 29.6959 29.0869 29.0879C29.6948 28.48 30.0661 27.8722 30.3477 27.1523C30.6165 26.4579 30.802 25.6638 30.8564 24.499C30.9108 23.3345 30.9238 22.9631 30.9238 19.9971C30.9238 17.0307 30.9108 16.6589 30.8564 15.4941C30.802 14.3328 30.6196 13.5393 30.3477 12.8418C30.0693 12.1282 29.6949 11.5169 29.0869 10.9121C28.479 10.3042 27.8712 9.93294 27.1514 9.65137C26.457 9.38257 25.6628 9.19698 24.498 9.14258C23.3366 9.09138 22.9653 9.07812 19.999 9.07812ZM19.999 11.0469C22.9142 11.0469 23.2601 11.056 24.4121 11.1104C25.4774 11.1584 26.0565 11.3379 26.4404 11.4883C26.9492 11.6867 27.3145 11.9229 27.6953 12.3037C28.0761 12.6845 28.3123 13.0498 28.5107 13.5586C28.6611 13.9425 28.8374 14.5216 28.8887 15.5869C28.9399 16.7389 28.9521 17.0849 28.9521 20C28.9521 22.9152 28.9431 23.2611 28.8887 24.4131C28.8407 25.4784 28.6611 26.0574 28.5107 26.4414C28.3124 26.9502 28.0761 27.3155 27.6953 27.6963C27.3145 28.0771 26.9492 28.3133 26.4404 28.5117C26.0565 28.6621 25.4775 28.8384 24.4121 28.8896C23.2601 28.9408 22.9142 28.9541 19.999 28.9541C17.0838 28.9541 16.7379 28.944 15.5859 28.8896C14.5206 28.8416 13.9416 28.6621 13.5576 28.5117C13.0488 28.3133 12.6835 28.0771 12.3027 27.6963C11.922 27.3155 11.6857 26.9502 11.4873 26.4414C11.3369 26.0574 11.1606 25.4784 11.1094 24.4131C11.0582 23.2611 11.0459 22.9152 11.0459 20C11.0459 17.0849 11.055 16.7389 11.1094 15.5869C11.1574 14.5216 11.3369 13.9425 11.4873 13.5586C11.6857 13.0498 11.9219 12.6845 12.3027 12.3037C12.6835 11.9229 13.0488 11.6867 13.5576 11.4883C13.9416 11.3379 14.5206 11.1616 15.5859 11.1104C16.7379 11.056 17.0838 11.0469 19.999 11.0469ZM20 14.3906C16.9026 14.3907 14.3908 16.9026 14.3906 20C14.3906 23.0975 16.9025 25.6093 20 25.6094C23.0976 25.6094 25.6094 23.0976 25.6094 20C25.6092 16.9025 23.0975 14.3906 20 14.3906ZM20 16.3584C22.0095 16.3584 23.6415 17.9873 23.6416 20C23.6416 22.0128 22.0096 23.6416 20 23.6416C17.9905 23.6415 16.3584 22.0127 16.3584 20C16.3585 17.9874 17.9906 16.3585 20 16.3584ZM25.8301 12.8574C25.1055 12.8574 24.5176 13.4453 24.5176 14.1699C24.5176 14.8945 25.1055 15.4814 25.8301 15.4814C26.5545 15.4813 27.1416 14.8944 27.1416 14.1699C27.1416 13.4454 26.5545 12.8576 25.8301 12.8574Z" fill="white"/>
</svg>
