<svg width="40" height="40" viewBox="0 0 40 40" fill="none" xmlns="http://www.w3.org/2000/svg">
<path d="M20.0018 10.162C23.2043 10.162 23.584 10.1726 24.8496 10.2323C26.0202 10.285 26.6565 10.4819 27.0784 10.6471C27.6373 10.8651 28.0381 11.1252 28.4564 11.5436C28.8748 11.9619 29.1349 12.3627 29.3529 12.9216C29.5181 13.3435 29.7114 13.9798 29.7677 15.1504C29.8239 16.416 29.838 16.7957 29.838 19.9982C29.838 23.2008 29.8274 23.5805 29.7677 24.8461C29.715 26.0167 29.5181 26.653 29.3529 27.0748C29.1349 27.6338 28.8748 28.0346 28.4564 28.4529C28.0381 28.8712 27.6373 29.1314 27.0784 29.3493C26.6565 29.5146 26.0202 29.7079 24.8496 29.7642C23.584 29.8204 23.2043 29.8345 20.0018 29.8345C16.7992 29.8345 16.4195 29.8239 15.1539 29.7642C13.9833 29.7114 13.347 29.5146 12.9252 29.3493C12.3662 29.1314 11.9654 28.8712 11.5471 28.4529C11.1288 28.0346 10.8686 27.6338 10.6507 27.0748C10.4854 26.653 10.2921 26.0167 10.2358 24.8461C10.1796 23.5805 10.1655 23.2008 10.1655 19.9982C10.1655 16.7957 10.1761 16.416 10.2358 15.1504C10.2886 13.9798 10.4854 13.3435 10.6507 12.9216C10.8686 12.3627 11.1288 11.9619 11.5471 11.5436C11.9654 11.1252 12.3662 10.8651 12.9252 10.6471C13.347 10.4819 13.9833 10.2886 15.1539 10.2323C16.4195 10.1726 16.7992 10.162 20.0018 10.162ZM20.0018 8C16.7429 8 16.3351 8.01406 15.0555 8.07382C13.7794 8.13359 12.9076 8.33397 12.1412 8.63278C11.3537 8.93511 10.6823 9.34642 10.0179 10.0144C9.34993 10.6823 8.94214 11.3502 8.63278 12.1412C8.33748 12.9041 8.13359 13.7759 8.07382 15.0555C8.01406 16.3351 8 16.7429 8 20.0018C8 23.2606 8.01406 23.6684 8.07382 24.948C8.13359 26.2241 8.33397 27.0959 8.63278 27.8623C8.93863 28.6463 9.34993 29.3177 10.0179 29.9821C10.6858 30.6501 11.3537 31.0579 12.1447 31.3672C12.9076 31.6625 13.7794 31.8664 15.059 31.9262C16.3387 31.9859 16.7464 32 20.0053 32C23.2641 32 23.6719 31.9859 24.9515 31.9262C26.2276 31.8664 27.0995 31.666 27.8658 31.3672C28.6498 31.0614 29.3212 30.6501 29.9856 29.9821C30.6536 29.3142 31.0614 28.6463 31.3707 27.8553C31.666 27.0924 31.8699 26.2206 31.9297 24.941C31.9895 23.6613 32.0035 23.2536 32.0035 19.9947C32.0035 16.7359 31.9895 16.3281 31.9297 15.0485C31.8699 13.7724 31.6696 12.9005 31.3707 12.1342C31.0649 11.3502 30.6536 10.6788 29.9856 10.0144C29.3177 9.34642 28.6498 8.93863 27.8588 8.62927C27.0959 8.33397 26.2241 8.13007 24.9445 8.07031C23.6684 8.01406 23.2606 8 20.0018 8Z" fill="white"/>
<path d="M20.0024 13.8358C16.5995 13.8358 13.8398 16.5954 13.8398 19.9984C13.8398 23.4014 16.5995 26.161 20.0024 26.161C23.4054 26.161 26.165 23.4014 26.165 19.9984C26.165 16.5954 23.4054 13.8358 20.0024 13.8358ZM20.0024 23.999C17.7947 23.999 16.0018 22.2096 16.0018 19.9984C16.0018 17.7872 17.7947 15.9978 20.0024 15.9978C22.2101 15.9978 24.003 17.7872 24.003 19.9984C24.003 22.2096 22.2101 23.999 20.0024 23.999Z" fill="white"/>
<path d="M26.4062 15.0345C27.2022 15.0345 27.8475 14.3892 27.8475 13.5932C27.8475 12.7972 27.2022 12.1519 26.4062 12.1519C25.6102 12.1519 24.9648 12.7972 24.9648 13.5932C24.9648 14.3892 25.6102 15.0345 26.4062 15.0345Z" fill="white"/>
</svg>
