<svg width="40" height="40" viewBox="0 0 40 40" fill="none" xmlns="http://www.w3.org/2000/svg">
<path d="M20 36C11.1648 36 4 28.8352 4 20C4 11.1648 11.1648 4 20 4C28.8352 4 36 11.1648 36 20C36 28.8352 28.8352 36 20 36Z" fill="black"/>
<path d="M19.9995 11.8038C22.6683 11.8038 22.9847 11.8126 24.0394 11.8624C25.0149 11.9064 25.5451 12.0704 25.8967 12.2081C26.3625 12.3897 26.6965 12.6065 27.0451 12.9551C27.3937 13.3037 27.6105 13.6377 27.7921 14.1035C27.9298 14.4551 28.0909 14.9853 28.1378 15.9608C28.1847 17.0155 28.1964 17.3319 28.1964 20.0007C28.1964 22.6695 28.1876 22.9859 28.1378 24.0405C28.0938 25.0161 27.9298 25.5463 27.7921 25.8979C27.6105 26.3637 27.3937 26.6976 27.0451 27.0462C26.6965 27.3949 26.3625 27.6116 25.8967 27.7933C25.5451 27.931 25.0149 28.0921 24.0394 28.139C22.9847 28.1858 22.6683 28.1976 19.9995 28.1976C17.3307 28.1976 17.0143 28.1888 15.9597 28.139C14.9841 28.095 14.4539 27.931 14.1023 27.7933C13.6365 27.6116 13.3026 27.3949 12.954 27.0462C12.6053 26.6976 12.3886 26.3637 12.2069 25.8979C12.0692 25.5463 11.9081 25.0161 11.8612 24.0405C11.8144 22.9859 11.8026 22.6695 11.8026 20.0007C11.8026 17.3319 11.8114 17.0155 11.8612 15.9608C11.9052 14.9853 12.0692 14.4551 12.2069 14.1035C12.3886 13.6377 12.6053 13.3037 12.954 12.9551C13.3026 12.6065 13.6365 12.3897 14.1023 12.2081C14.4539 12.0704 14.9841 11.9093 15.9597 11.8624C17.0143 11.8126 17.3307 11.8038 19.9995 11.8038ZM19.9995 10.0022C17.2838 10.0022 16.944 10.0139 15.8776 10.0637C14.8142 10.1135 14.0877 10.2805 13.4491 10.5295C12.7928 10.7814 12.2333 11.1242 11.6796 11.6808C11.123 12.2374 10.7832 12.794 10.5254 13.4532C10.2793 14.0889 10.1094 14.8154 10.0596 15.8817C10.0098 16.9481 9.99805 17.2879 9.99805 20.0036C9.99805 22.7193 10.0098 23.0591 10.0596 24.1255C10.1094 25.1889 10.2764 25.9154 10.5254 26.5541C10.7802 27.2074 11.123 27.7669 11.6796 28.3206C12.2362 28.8772 12.7928 29.217 13.452 29.4748C14.0877 29.7209 14.8142 29.8908 15.8806 29.9406C16.9469 29.9904 17.2868 30.0022 20.0024 30.0022C22.7181 30.0022 23.058 29.9904 24.1243 29.9406C25.1877 29.8908 25.9143 29.7238 26.5529 29.4748C27.2062 29.22 27.7657 28.8772 28.3194 28.3206C28.876 27.764 29.2159 27.2074 29.4737 26.5482C29.7197 25.9125 29.8897 25.186 29.9395 24.1196C29.9893 23.0533 30.001 22.7134 30.001 19.9978C30.001 17.2821 29.9893 16.9422 29.9395 15.8759C29.8897 14.8125 29.7227 14.0859 29.4737 13.4473C29.2188 12.794 28.876 12.2345 28.3194 11.6808C27.7628 11.1242 27.2062 10.7843 26.547 10.5265C25.9113 10.2805 25.1848 10.1105 24.1185 10.0607C23.055 10.0139 22.7152 10.0022 19.9995 10.0022Z" fill="white"/>
<path d="M19.9988 14.8653C17.163 14.8653 14.8633 17.165 14.8633 20.0008C14.8633 22.8366 17.163 25.1363 19.9988 25.1363C22.8346 25.1363 25.1343 22.8366 25.1343 20.0008C25.1343 17.165 22.8346 14.8653 19.9988 14.8653ZM19.9988 23.3346C18.159 23.3346 16.665 21.8435 16.665 20.0008C16.665 18.1581 18.159 16.667 19.9988 16.667C21.8385 16.667 23.3326 18.1581 23.3326 20.0008C23.3326 21.8435 21.8385 23.3346 19.9988 23.3346Z" fill="white"/>
<path d="M25.3378 15.8643C26.0012 15.8643 26.5389 15.3265 26.5389 14.6631C26.5389 13.9998 26.0012 13.462 25.3378 13.462C24.6745 13.462 24.1367 13.9998 24.1367 14.6631C24.1367 15.3265 24.6745 15.8643 25.3378 15.8643Z" fill="white"/>
</svg>
