<svg width="40" height="40" viewBox="0 0 40 40" fill="none" xmlns="http://www.w3.org/2000/svg">
<g clip-path="url(#clip0_95_1923)">
<path d="M20 13.4415C22.1361 13.4415 22.3891 13.4496 23.2327 13.4881C24.0126 13.5237 24.4362 13.654 24.7182 13.7635C25.0916 13.9087 25.3581 14.0821 25.638 14.362C25.9179 14.6419 26.0913 14.9084 26.2364 15.2818C26.346 15.5638 26.4763 15.9874 26.5119 16.7673C26.5504 17.6109 26.5585 17.8639 26.5585 20C26.5585 22.1361 26.5504 22.3891 26.5119 23.2327C26.4763 24.0127 26.346 24.4363 26.2364 24.7182C26.0913 25.0916 25.9179 25.3581 25.638 25.638C25.3581 25.918 25.0916 26.0914 24.7182 26.2365C24.4362 26.346 24.0126 26.4763 23.2327 26.5119C22.3892 26.5504 22.1362 26.5586 20 26.5586C17.8638 26.5586 17.6108 26.5504 16.7673 26.5119C15.9873 26.4763 15.5637 26.346 15.2818 26.2365C14.9084 26.0914 14.6419 25.918 14.362 25.638C14.082 25.3581 13.9086 25.0916 13.7635 24.7182C13.654 24.4363 13.5237 24.0127 13.4881 23.2327C13.4496 22.3891 13.4414 22.1361 13.4414 20C13.4414 17.8639 13.4496 17.6109 13.4881 16.7673C13.5237 15.9874 13.654 15.5638 13.7635 15.2818C13.9086 14.9084 14.082 14.6419 14.362 14.362C14.6419 14.0821 14.9084 13.9087 15.2818 13.7635C15.5637 13.654 15.9873 13.5237 16.7673 13.4881C17.6109 13.4496 17.8639 13.4415 20 13.4415ZM20 12C17.8273 12 17.5549 12.0092 16.7016 12.0481C15.8501 12.087 15.2686 12.2222 14.7597 12.42C14.2336 12.6245 13.7875 12.898 13.3427 13.3427C12.898 13.7875 12.6244 14.2336 12.42 14.7597C12.2222 15.2686 12.087 15.8501 12.0481 16.7016C12.0092 17.5549 12 17.8273 12 20C12 22.1727 12.0092 22.4451 12.0481 23.2984C12.087 24.1499 12.2222 24.7314 12.42 25.2403C12.6244 25.7664 12.898 26.2125 13.3427 26.6573C13.7875 27.102 14.2336 27.3756 14.7597 27.58C15.2686 27.7778 15.8501 27.913 16.7016 27.9519C17.5549 27.9908 17.8273 28 20 28C22.1727 28 22.4451 27.9908 23.2984 27.9519C24.1499 27.913 24.7314 27.7778 25.2403 27.58C25.7664 27.3756 26.2125 27.102 26.6573 26.6573C27.102 26.2125 27.3755 25.7664 27.58 25.2403C27.7778 24.7314 27.913 24.1499 27.9519 23.2984C27.9908 22.4451 28 22.1727 28 20C28 17.8273 27.9908 17.5549 27.9519 16.7016C27.913 15.8501 27.7778 15.2686 27.58 14.7597C27.3755 14.2336 27.102 13.7875 26.6573 13.3427C26.2125 12.898 25.7664 12.6245 25.2403 12.42C24.7314 12.2222 24.1499 12.087 23.2984 12.0481C22.4451 12.0092 22.1727 12 20 12ZM20 15.8919C17.7311 15.8919 15.8919 17.7312 15.8919 20C15.8919 22.2689 17.7311 24.1081 20 24.1081C22.2688 24.1081 24.1081 22.2689 24.1081 20C24.1081 17.7312 22.2688 15.8919 20 15.8919ZM20 22.6667C18.5272 22.6667 17.3333 21.4728 17.3333 20C17.3333 18.5273 18.5272 17.3333 20 17.3333C21.4727 17.3333 22.6667 18.5273 22.6667 20C22.6667 21.4728 21.4727 22.6667 20 22.6667ZM25.2304 15.7296C25.2304 16.2598 24.8006 16.6896 24.2704 16.6896C23.7402 16.6896 23.3104 16.2598 23.3104 15.7296C23.3104 15.1994 23.7402 14.7696 24.2704 14.7696C24.8006 14.7696 25.2304 15.1994 25.2304 15.7296Z" fill="#222222"/>
</g>
<circle cx="20" cy="20" r="15.25" stroke="#222222" stroke-width="1.5"/>
<defs>
<clipPath id="clip0_95_1923">
<rect width="16" height="16" fill="white" transform="translate(12 12)"/>
</clipPath>
</defs>
</svg>
