<svg width="39" height="20" viewBox="0 0 39 20" fill="none" xmlns="http://www.w3.org/2000/svg">
<g clip-path="url(#clip0_533_12282)">
<path fill-rule="evenodd" clip-rule="evenodd" d="M10.0137 19.6969V0.302979H28.4265C29.0698 0.302979 29.6888 0.557524 30.144 1.01207L37.4266 8.2848C38.3733 9.23025 38.3733 10.7636 37.4266 11.7151L30.144 18.9878C29.6888 19.4424 29.0698 19.6969 28.4265 19.6969H10.0137Z" fill="#FBB20B"/>
<path d="M28.4272 20H10.0144C9.84445 20 9.71094 19.8667 9.71094 19.697V0.30303C9.71094 0.133333 9.84445 0 10.0144 0H28.4272C29.1555 0 29.8413 0.284849 30.3571 0.8L37.6397 8.07273C38.1556 8.58788 38.4408 9.27273 38.4408 10C38.4408 10.7273 38.1556 11.4121 37.6397 11.9273L30.3571 19.2C29.8413 19.7152 29.1555 20 28.4272 20ZM10.3178 19.3939H28.4272C28.9977 19.3939 29.5257 19.1758 29.9323 18.7697L37.2149 11.497C37.6154 11.097 37.84 10.5636 37.84 9.99394C37.84 9.42424 37.6215 8.89697 37.2149 8.49091L29.9323 1.21818C29.5318 0.818182 28.9977 0.6 28.4272 0.6H10.3178V19.3879V19.3939Z" fill="black"/>
<path d="M0.302734 1.5151C0.302734 0.848433 0.848929 0.302979 1.5165 0.302979H10.0129V19.6969H1.5165C0.848929 19.6969 0.302734 19.1515 0.302734 18.4848V1.5151Z" fill="white"/>
<path d="M10.0136 20H1.51721C0.679709 20 0 19.3212 0 18.4848V1.51515C0 0.678788 0.679709 0 1.51721 0H10.0136C10.1835 0 10.317 0.133333 10.317 0.30303V19.697C10.317 19.8667 10.1835 20 10.0136 20ZM1.51721 0.606061C1.0135 0.606061 0.606883 1.01212 0.606883 1.51515V18.4848C0.606883 18.9879 1.0135 19.3939 1.51721 19.3939H9.71014V0.606061H1.51721Z" fill="black"/>
<path d="M7.08804 6.49695C7.11232 6.57574 7.13053 6.6424 7.13659 6.68483C7.14266 6.72725 7.13659 6.76362 7.11232 6.78786C7.08804 6.8121 7.04556 6.82422 6.98487 6.83028C6.92419 6.83028 6.83922 6.83634 6.72998 6.83634C6.62074 6.83634 6.52971 6.83634 6.46295 6.83634C6.40226 6.83634 6.35371 6.82422 6.3173 6.81816C6.28696 6.80604 6.26268 6.79392 6.25054 6.77574C6.23841 6.75755 6.22627 6.73331 6.21413 6.70907L5.92283 5.8424H4.30852L4.03542 6.68483C4.02935 6.71513 4.01721 6.74543 3.99901 6.76362C3.98687 6.7818 3.96259 6.79998 3.93225 6.8121C3.90191 6.82422 3.85335 6.83028 3.79874 6.83634C3.73805 6.83634 3.66522 6.8424 3.56812 6.8424C3.46495 6.8424 3.38605 6.8424 3.33143 6.83028C3.27682 6.82422 3.23433 6.80604 3.21006 6.7818C3.18578 6.75755 3.17971 6.72119 3.18578 6.67271C3.19185 6.62422 3.21006 6.56361 3.23433 6.48483L4.56341 2.66665C4.57555 2.63028 4.59375 2.59998 4.61196 2.57574C4.63017 2.55149 4.66051 2.53331 4.69692 2.52119C4.73334 2.50907 4.78796 2.50301 4.86078 2.49695C4.92754 2.49695 5.01857 2.49695 5.13388 2.49695C5.26739 2.49695 5.37056 2.49695 5.44946 2.49695C5.52835 2.49695 5.58904 2.50907 5.63152 2.52119C5.674 2.53331 5.70435 2.55149 5.72256 2.57574C5.74076 2.59998 5.75897 2.63028 5.77111 2.67271L7.10018 6.48483L7.08804 6.49695ZM5.1096 3.34543L4.50272 5.17574H5.72256L5.11567 3.34543H5.1096Z" fill="black"/>
<path fill-rule="evenodd" clip-rule="evenodd" d="M4.81975 9.01217V11.8667C4.81975 12.0546 4.97147 12.2061 5.15961 12.2061C5.34774 12.2061 5.49946 12.0546 5.49946 11.8667V9.01217L5.88787 9.40005C6.02138 9.53338 6.23379 9.53338 6.37337 9.40005C6.51296 9.26671 6.50689 9.05459 6.37337 8.92126L5.40236 7.95156C5.26884 7.81823 5.05644 7.81823 4.91685 7.95156L3.94584 8.92126C3.81232 9.05459 3.81232 9.26671 3.94584 9.40005C4.07935 9.53338 4.29783 9.53338 4.43135 9.40005L4.81975 9.01217Z" fill="black"/>
<path d="M6.84065 13.8423C6.84065 13.903 6.84065 13.9575 6.83458 14.006C6.83458 14.0545 6.82244 14.0908 6.81637 14.1151C6.80424 14.1454 6.79817 14.1636 6.77996 14.1696C6.76782 14.1817 6.74962 14.1878 6.73141 14.1878C6.70714 14.1878 6.66465 14.1696 6.60397 14.1272C6.54328 14.0848 6.46438 14.0423 6.36728 13.9999C6.27018 13.9514 6.15487 13.909 6.02136 13.8727C5.88784 13.8363 5.73005 13.812 5.55406 13.812C5.36592 13.812 5.18993 13.8484 5.03821 13.9211C4.88649 13.9939 4.75297 14.0908 4.64373 14.2242C4.53449 14.3575 4.44953 14.509 4.38884 14.6908C4.32815 14.8727 4.30388 15.0727 4.30388 15.2969C4.30388 15.5393 4.33422 15.7514 4.39491 15.9393C4.4556 16.1272 4.54056 16.2787 4.64373 16.406C4.75297 16.5333 4.88042 16.6242 5.03214 16.6908C5.18386 16.7514 5.34772 16.7878 5.52978 16.7878C5.62081 16.7878 5.70578 16.7757 5.79681 16.7575C5.88177 16.7333 5.96674 16.703 6.03956 16.6605V15.6787H5.2931C5.25668 15.6787 5.22634 15.6545 5.20813 15.606C5.18993 15.5575 5.17779 15.4727 5.17779 15.3575C5.17779 15.2969 5.17779 15.2423 5.18386 15.206C5.18386 15.1636 5.196 15.1333 5.20813 15.103C5.22027 15.0787 5.23241 15.0605 5.24455 15.0484C5.25668 15.0363 5.27489 15.0302 5.2931 15.0302H6.62217C6.65252 15.0302 6.68286 15.0363 6.70714 15.0484C6.73141 15.0605 6.75569 15.0787 6.77389 15.103C6.7921 15.1272 6.81031 15.1575 6.81637 15.1878C6.82851 15.2242 6.82851 15.2605 6.82851 15.303V16.9939C6.82851 17.0605 6.81637 17.1151 6.79817 17.1636C6.77996 17.212 6.73141 17.2545 6.66465 17.2787C6.5979 17.309 6.519 17.3393 6.4219 17.3696C6.3248 17.3999 6.22163 17.4242 6.11846 17.4484C6.01529 17.4727 5.90605 17.4848 5.80288 17.4969C5.69364 17.509 5.59047 17.5151 5.48123 17.5151C5.16565 17.5151 4.88649 17.4666 4.63766 17.3696C4.38884 17.2727 4.17643 17.1333 4.0065 16.9454C3.83658 16.7575 3.70306 16.5333 3.61203 16.2727C3.521 16.012 3.47852 15.703 3.47852 15.3696C3.47852 15.0363 3.52707 14.709 3.62417 14.4302C3.72127 14.1514 3.86085 13.9211 4.03685 13.7211C4.21284 13.5272 4.43132 13.3817 4.68015 13.2787C4.93504 13.1757 5.2142 13.1272 5.52371 13.1272C5.69364 13.1272 5.85143 13.1393 5.99101 13.1636C6.1306 13.1878 6.25197 13.2181 6.35514 13.2545C6.45831 13.2908 6.54328 13.3272 6.6161 13.3696C6.68286 13.412 6.73141 13.4484 6.76176 13.4787C6.7921 13.509 6.81031 13.5514 6.82244 13.606C6.83458 13.6605 6.84065 13.7454 6.84065 13.8545V13.8423Z" fill="black"/>
<path d="M16.3984 14.7758V4.36365H24.1301V6.12728H18.5043V8.43638H23.7357V10.1879H18.5043V13.0243H24.3304V14.7758H16.3984Z" fill="white"/>
<path d="M24.3298 14.9273H16.3978C16.3129 14.9273 16.2461 14.8606 16.2461 14.7758V4.36367C16.2461 4.27882 16.3129 4.21216 16.3978 4.21216H24.1295C24.2145 4.21216 24.2812 4.27882 24.2812 4.36367V6.12731C24.2812 6.21216 24.2145 6.27882 24.1295 6.27882H18.6554V8.28489H23.7411C23.8261 8.28489 23.8928 8.35155 23.8928 8.4364V10.1879C23.8928 10.2728 23.8261 10.3394 23.7411 10.3394H18.6554V12.8728H24.3298C24.4147 12.8728 24.4815 12.9394 24.4815 13.0243V14.7758C24.4815 14.8606 24.4147 14.9273 24.3298 14.9273ZM16.5495 14.6243H24.1781V13.1758H18.5037C18.4187 13.1758 18.352 13.1091 18.352 13.0243V10.1879C18.352 10.1031 18.4187 10.0364 18.5037 10.0364H23.5894V8.58792H18.5037C18.4187 8.58792 18.352 8.52125 18.352 8.4364V6.12731C18.352 6.04246 18.4187 5.97579 18.5037 5.97579H23.9778V4.51519H16.5495V14.6243Z" fill="black"/>
</g>
<defs>
<clipPath id="clip0_533_12282">
<rect width="38.44" height="20" fill="white"/>
</clipPath>
</defs>
</svg>
