<svg width="39" height="20" viewBox="0 0 39 20" fill="none" xmlns="http://www.w3.org/2000/svg">
<g clip-path="url(#clip0_533_12267)">
<path fill-rule="evenodd" clip-rule="evenodd" d="M10.0156 19.6969V0.302979H28.4285C29.0718 0.302979 29.6908 0.557524 30.1459 1.01207L37.4286 8.2848C38.3753 9.23025 38.3753 10.7636 37.4286 11.7151L30.1459 18.9878C29.6908 19.4424 29.0718 19.6969 28.4285 19.6969H10.0156Z" fill="#FEF100"/>
<path d="M28.4272 20H10.0144C9.84445 20 9.71094 19.8667 9.71094 19.697V0.30303C9.71094 0.133333 9.84445 0 10.0144 0H28.4272C29.1555 0 29.8413 0.284849 30.3571 0.8L37.6397 8.07273C38.1556 8.58788 38.4408 9.27273 38.4408 10C38.4408 10.7273 38.1556 11.4121 37.6397 11.9273L30.3571 19.2C29.8413 19.7152 29.1555 20 28.4272 20ZM10.3178 19.3939H28.4272C28.9977 19.3939 29.5257 19.1758 29.9323 18.7697L37.2149 11.497C37.6154 11.097 37.84 10.5636 37.84 9.99394C37.84 9.42424 37.6215 8.89697 37.2149 8.49091L29.9323 1.21818C29.5318 0.818182 28.9977 0.6 28.4272 0.6H10.3178V19.3879V19.3939Z" fill="black"/>
<path d="M0.304688 1.5151C0.304688 0.848433 0.850883 0.302979 1.51845 0.302979H10.0148V19.6969H1.51845C0.850883 19.6969 0.304688 19.1515 0.304688 18.4848V1.5151Z" fill="white"/>
<path d="M10.0136 20H1.51721C0.679709 20 0 19.3212 0 18.4848V1.51515C0 0.678788 0.679709 0 1.51721 0H10.0136C10.1835 0 10.317 0.133333 10.317 0.30303V19.697C10.317 19.8667 10.1835 20 10.0136 20ZM1.51721 0.606061C1.0135 0.606061 0.606883 1.01212 0.606883 1.51515V18.4848C0.606883 18.9879 1.0135 19.3939 1.51721 19.3939H9.71014V0.606061H1.51721Z" fill="black"/>
<path d="M7.08804 6.49695C7.11232 6.57574 7.13053 6.6424 7.13659 6.68483C7.14266 6.72725 7.13659 6.76362 7.11232 6.78786C7.08804 6.8121 7.04556 6.82422 6.98487 6.83028C6.92419 6.83028 6.83922 6.83634 6.72998 6.83634C6.62074 6.83634 6.52971 6.83634 6.46295 6.83634C6.40226 6.83634 6.35371 6.82422 6.3173 6.81816C6.28696 6.80604 6.26268 6.79392 6.25054 6.77574C6.23841 6.75755 6.22627 6.73331 6.21413 6.70907L5.92283 5.8424H4.30852L4.03542 6.68483C4.02935 6.71513 4.01721 6.74543 3.99901 6.76362C3.98687 6.7818 3.96259 6.79998 3.93225 6.8121C3.90191 6.82422 3.85335 6.83028 3.79874 6.83634C3.73805 6.83634 3.66522 6.8424 3.56812 6.8424C3.46495 6.8424 3.38605 6.8424 3.33143 6.83028C3.27682 6.82422 3.23433 6.80604 3.21006 6.7818C3.18578 6.75755 3.17971 6.72119 3.18578 6.67271C3.19185 6.62422 3.21006 6.56361 3.23433 6.48483L4.56341 2.66665C4.57555 2.63028 4.59375 2.59998 4.61196 2.57574C4.63017 2.55149 4.66051 2.53331 4.69692 2.52119C4.73334 2.50907 4.78796 2.50301 4.86078 2.49695C4.92754 2.49695 5.01857 2.49695 5.13388 2.49695C5.26739 2.49695 5.37056 2.49695 5.44946 2.49695C5.52835 2.49695 5.58904 2.50907 5.63152 2.52119C5.674 2.53331 5.70435 2.55149 5.72256 2.57574C5.74076 2.59998 5.75897 2.63028 5.77111 2.67271L7.10018 6.48483L7.08804 6.49695ZM5.1096 3.34543L4.50272 5.17574H5.72256L5.11567 3.34543H5.1096Z" fill="black"/>
<path fill-rule="evenodd" clip-rule="evenodd" d="M4.8178 9.01217V11.8667C4.8178 12.0546 4.96952 12.2061 5.15765 12.2061C5.34579 12.2061 5.49751 12.0546 5.49751 11.8667V9.01217L5.88591 9.40005C6.01943 9.53338 6.23184 9.53338 6.37142 9.40005C6.511 9.26671 6.50493 9.05459 6.37142 8.92126L5.40041 7.95156C5.26689 7.81823 5.05448 7.81823 4.9149 7.95156L3.94389 8.92126C3.81037 9.05459 3.81037 9.26671 3.94389 9.40005C4.0774 9.53338 4.29588 9.53338 4.42939 9.40005L4.8178 9.01217Z" fill="black"/>
<path d="M6.8387 13.8423C6.8387 13.903 6.8387 13.9575 6.83263 14.006C6.83263 14.0545 6.82049 14.0908 6.81442 14.1151C6.80228 14.1454 6.79622 14.1636 6.77801 14.1696C6.76587 14.1817 6.74766 14.1878 6.72946 14.1878C6.70518 14.1878 6.6627 14.1696 6.60201 14.1272C6.54132 14.0848 6.46243 14.0423 6.36533 13.9999C6.26823 13.9514 6.15292 13.909 6.0194 13.8727C5.88589 13.8363 5.7281 13.812 5.5521 13.812C5.36397 13.812 5.18797 13.8484 5.03625 13.9211C4.88453 13.9939 4.75102 14.0908 4.64178 14.2242C4.53254 14.3575 4.44758 14.509 4.38689 14.6908C4.3262 14.8727 4.30192 15.0727 4.30192 15.2969C4.30192 15.5393 4.33227 15.7514 4.39296 15.9393C4.45364 16.1272 4.53861 16.2787 4.64178 16.406C4.75102 16.5333 4.87846 16.6242 5.03018 16.6908C5.18191 16.7514 5.34576 16.7878 5.52783 16.7878C5.61886 16.7878 5.70383 16.7757 5.79486 16.7575C5.87982 16.7333 5.96478 16.703 6.03761 16.6605V15.6787H5.29114C5.25473 15.6787 5.22439 15.6545 5.20618 15.606C5.18797 15.5575 5.17584 15.4727 5.17584 15.3575C5.17584 15.2969 5.17584 15.2423 5.18191 15.206C5.18191 15.1636 5.19404 15.1333 5.20618 15.103C5.21832 15.0787 5.23046 15.0605 5.24259 15.0484C5.25473 15.0363 5.27294 15.0302 5.29114 15.0302H6.62022C6.65056 15.0302 6.68091 15.0363 6.70518 15.0484C6.72946 15.0605 6.75373 15.0787 6.77194 15.103C6.79015 15.1272 6.80835 15.1575 6.81442 15.1878C6.82656 15.2242 6.82656 15.2605 6.82656 15.303V16.9939C6.82656 17.0605 6.81442 17.1151 6.79622 17.1636C6.77801 17.212 6.72946 17.2545 6.6627 17.2787C6.59594 17.309 6.51705 17.3393 6.41995 17.3696C6.32285 17.3999 6.21968 17.4242 6.11651 17.4484C6.01334 17.4727 5.9041 17.4848 5.80093 17.4969C5.69169 17.509 5.58852 17.5151 5.47928 17.5151C5.1637 17.5151 4.88453 17.4666 4.63571 17.3696C4.38689 17.2727 4.17448 17.1333 4.00455 16.9454C3.83462 16.7575 3.70111 16.5333 3.61008 16.2727C3.51904 16.012 3.47656 15.703 3.47656 15.3696C3.47656 15.0363 3.52511 14.709 3.62221 14.4302C3.71932 14.1514 3.8589 13.9211 4.0349 13.7211C4.21089 13.5272 4.42937 13.3817 4.67819 13.2787C4.93308 13.1757 5.21225 13.1272 5.52176 13.1272C5.69169 13.1272 5.84948 13.1393 5.98906 13.1636C6.12864 13.1878 6.25002 13.2181 6.35319 13.2545C6.45636 13.2908 6.54132 13.3272 6.61415 13.3696C6.68091 13.412 6.72946 13.4484 6.7598 13.4787C6.79015 13.509 6.80835 13.5514 6.82049 13.606C6.83263 13.6605 6.8387 13.7454 6.8387 13.8545V13.8423Z" fill="black"/>
<path d="M15.9904 4.36365H19.8381C20.7059 4.36365 21.3674 4.43031 21.8226 4.56365C22.4355 4.74547 22.9575 5.06062 23.3944 5.52122C23.8314 5.98183 24.1652 6.54547 24.3897 7.20607C24.6143 7.86668 24.7296 8.69092 24.7296 9.66668C24.7296 10.5212 24.6203 11.2606 24.4079 11.8849C24.147 12.6424 23.7768 13.2546 23.2913 13.7273C22.9271 14.0849 22.4355 14.3576 21.8105 14.5576C21.3432 14.703 20.7241 14.7758 19.9473 14.7758H15.9844V4.36365H15.9904ZM18.0963 6.12122V13.0182H19.6682C20.2568 13.0182 20.6817 12.9879 20.9426 12.9212C21.2825 12.8364 21.5677 12.6909 21.7922 12.4909C22.0168 12.2909 22.1989 11.9515 22.3445 11.4849C22.4902 11.0182 22.5569 10.3818 22.5569 9.57577C22.5569 8.76971 22.4841 8.15153 22.3445 7.72122C22.2049 7.29092 22.0047 6.95153 21.7498 6.71516C21.4949 6.4788 21.1672 6.3091 20.7727 6.22425C20.4814 6.15759 19.9048 6.12728 19.0431 6.12728H18.0963V6.12122Z" fill="white"/>
<path d="M19.9545 14.9273H15.9916C15.9066 14.9273 15.8398 14.8606 15.8398 14.7758V4.36367C15.8398 4.27882 15.9066 4.21216 15.9916 4.21216H19.8392C20.7192 4.21216 21.3989 4.27882 21.8662 4.41822C22.5034 4.6061 23.0557 4.93943 23.5048 5.41822C23.9539 5.89095 24.2998 6.47883 24.5365 7.15761C24.7671 7.8364 24.8885 8.67882 24.8885 9.6667C24.8885 10.5394 24.7792 11.297 24.5608 11.9334C24.2937 12.7091 23.9053 13.3516 23.4077 13.8303C23.0253 14.2 22.5095 14.4909 21.8662 14.697C21.3868 14.8485 20.7435 14.9273 19.9545 14.9273ZM16.1433 14.6243H19.9545C20.7131 14.6243 21.3261 14.5516 21.7752 14.4122C22.3699 14.2243 22.8493 13.9516 23.1953 13.6182C23.6626 13.1697 24.0206 12.5697 24.2755 11.8364C24.4819 11.2364 24.585 10.5031 24.585 9.6667C24.585 8.71519 24.4758 7.90307 24.2512 7.25458C24.0328 6.61216 23.7051 6.0667 23.2863 5.62428C22.8736 5.18792 22.3638 4.87883 21.7812 4.70913C21.3443 4.58186 20.6888 4.51519 19.8392 4.51519H16.1433V14.6243ZM19.6693 13.1697H18.0974C18.0125 13.1697 17.9457 13.1031 17.9457 13.0182V6.12125C17.9457 6.0364 18.0125 5.96973 18.0974 5.96973H19.0442C19.9242 5.96973 20.5007 6.0061 20.8041 6.07276C21.2229 6.16367 21.5749 6.33943 21.848 6.60004C22.1211 6.86064 22.3335 7.21822 22.4852 7.67276C22.6309 8.11519 22.7037 8.75761 22.7037 9.5758C22.7037 10.394 22.6309 11.0485 22.4852 11.5273C22.3335 12.0243 22.1393 12.3758 21.8905 12.6C21.6477 12.8182 21.3382 12.9758 20.9741 13.0667C20.701 13.1394 20.2701 13.1697 19.6632 13.1697H19.6693ZM18.2492 12.8667H19.6693C20.2397 12.8667 20.6585 12.8364 20.9073 12.7697C21.2229 12.6909 21.4899 12.5576 21.6902 12.3697C21.8965 12.1879 22.0665 11.8728 22.2 11.4303C22.3396 10.9819 22.4063 10.3516 22.4063 9.56973C22.4063 8.78792 22.3396 8.1758 22.2 7.76367C22.0665 7.35761 21.8783 7.04246 21.6416 6.81822C21.405 6.60004 21.1015 6.44246 20.7374 6.36367C20.4522 6.30307 19.8817 6.2667 19.0442 6.2667H18.2492V12.8606V12.8667Z" fill="black"/>
</g>
<defs>
<clipPath id="clip0_533_12267">
<rect width="38.44" height="20" fill="white"/>
</clipPath>
</defs>
</svg>
