<svg width="228" height="60" viewBox="0 0 228 60" fill="none" xmlns="http://www.w3.org/2000/svg">
<mask id="mask0_90_1262" style="mask-type:alpha" maskUnits="userSpaceOnUse" x="0" y="24" width="12" height="12">
<rect y="24" width="12" height="12" fill="#E6E6E6"/>
</mask>
<g mask="url(#mask0_90_1262)">
<path d="M11.9721 28.6027C11.8366 28.2012 11.405 28.1962 11.405 28.1962L7.74868 28.2037L6.55667 24.6653C6.55667 24.6653 6.41614 24.2588 5.98952 24.2588C5.56291 24.2588 5.42238 24.6653 5.42238 24.6653L4.23037 28.2037L0.599141 28.1962C0.599141 28.1962 0.167508 28.1987 0.031996 28.6027C-0.103516 29.0042 0.235265 29.2702 0.235265 29.2702L3.12118 31.4711L1.97183 34.9593C1.97183 34.9593 1.84134 35.3708 2.18012 35.6243C2.5189 35.8777 2.87776 35.6393 2.87776 35.6393L5.98702 33.4987L8.72487 31.4485L7.64077 28.2464L8.19537 29.8851L8.72487 31.4485L7.40488 32.4372L5.98702 33.4987L9.09627 35.6393C9.09627 35.6393 9.45513 35.8802 9.79391 35.6243C10.1327 35.3683 10.0022 34.9593 10.0022 34.9593L8.85787 31.4861L11.7639 29.2702C11.7639 29.2702 12.1052 29.0042 11.9671 28.6027H11.9721Z" fill="#F68D00"/>
</g>
<mask id="mask1_90_1262" style="mask-type:alpha" maskUnits="userSpaceOnUse" x="36" y="24" width="9" height="12">
<rect x="36" y="24" width="9" height="12" fill="#E6E6E6"/>
</mask>
<g mask="url(#mask1_90_1262)">
<path d="M47.9721 28.6027C47.8366 28.2012 47.405 28.1962 47.405 28.1962L43.7487 28.2037L42.5567 24.6653C42.5567 24.6653 42.4161 24.2588 41.9895 24.2588C41.5629 24.2588 41.4224 24.6653 41.4224 24.6653L40.2304 28.2037L36.5991 28.1962C36.5991 28.1962 36.1675 28.1987 36.032 28.6027C35.8965 29.0042 36.2353 29.2702 36.2353 29.2702L39.1212 31.4711L37.9718 34.9593C37.9718 34.9593 37.8413 35.3708 38.1801 35.6243C38.5189 35.8777 38.8778 35.6393 38.8778 35.6393L41.987 33.4987L44.7249 31.4485L43.6408 28.2464L44.1954 29.8851L44.7249 31.4485L43.4049 32.4372L41.987 33.4987L45.0963 35.6393C45.0963 35.6393 45.4551 35.8802 45.7939 35.6243C46.1327 35.3683 46.0022 34.9593 46.0022 34.9593L44.8579 31.4861L47.7639 29.2702C47.7639 29.2702 48.1052 29.0042 47.9671 28.6027H47.9721Z" fill="#F68D00"/>
</g>
<mask id="mask2_90_1262" style="mask-type:alpha" maskUnits="userSpaceOnUse" x="45" y="24" width="3" height="12">
<rect x="45" y="24" width="3" height="12" fill="#E6E6E6"/>
</mask>
<g mask="url(#mask2_90_1262)">
<path d="M47.9721 28.6027C47.8366 28.2012 47.405 28.1962 47.405 28.1962L43.7487 28.2037L42.5567 24.6653C42.5567 24.6653 42.4161 24.2588 41.9895 24.2588C41.5629 24.2588 41.4224 24.6653 41.4224 24.6653L40.2304 28.2037L36.5991 28.1962C36.5991 28.1962 36.1675 28.1987 36.032 28.6027C35.8965 29.0042 36.2353 29.2702 36.2353 29.2702L39.1212 31.4711L37.9718 34.9593C37.9718 34.9593 37.8413 35.3708 38.1801 35.6243C38.5189 35.8777 38.8778 35.6393 38.8778 35.6393L41.987 33.4987L44.7249 31.4485L43.6408 28.2464L44.1954 29.8851L44.7249 31.4485L43.4049 32.4372L41.987 33.4987L45.0963 35.6393C45.0963 35.6393 45.4551 35.8802 45.7939 35.6243C46.1327 35.3683 46.0022 34.9593 46.0022 34.9593L44.8579 31.4861L47.7639 29.2702C47.7639 29.2702 48.1052 29.0042 47.9671 28.6027H47.9721Z" fill="#D9D9D9"/>
</g>
<mask id="mask3_90_1262" style="mask-type:alpha" maskUnits="userSpaceOnUse" x="72" y="24" width="8" height="12">
<rect x="72" y="24" width="7.5" height="12" fill="#E6E6E6"/>
</mask>
<g mask="url(#mask3_90_1262)">
<path d="M83.9721 28.6027C83.8366 28.2012 83.405 28.1962 83.405 28.1962L79.7487 28.2037L78.5567 24.6653C78.5567 24.6653 78.4161 24.2588 77.9895 24.2588C77.5629 24.2588 77.4224 24.6653 77.4224 24.6653L76.2304 28.2037L72.5991 28.1962C72.5991 28.1962 72.1675 28.1987 72.032 28.6027C71.8965 29.0042 72.2353 29.2702 72.2353 29.2702L75.1212 31.4711L73.9718 34.9593C73.9718 34.9593 73.8413 35.3708 74.1801 35.6243C74.5189 35.8777 74.8778 35.6393 74.8778 35.6393L77.987 33.4987L80.7249 31.4485L79.6408 28.2464L80.1954 29.8851L80.7249 31.4485L79.4049 32.4372L77.987 33.4987L81.0963 35.6393C81.0963 35.6393 81.4551 35.8802 81.7939 35.6243C82.1327 35.3683 82.0022 34.9593 82.0022 34.9593L80.8579 31.4861L83.7639 29.2702C83.7639 29.2702 84.1052 29.0042 83.9671 28.6027H83.9721Z" fill="#F68D00"/>
</g>
<mask id="mask4_90_1262" style="mask-type:alpha" maskUnits="userSpaceOnUse" x="79" y="24" width="5" height="12">
<rect x="79.5" y="24" width="4.5" height="12" fill="#E6E6E6"/>
</mask>
<g mask="url(#mask4_90_1262)">
<path d="M83.9721 28.6027C83.8366 28.2012 83.405 28.1962 83.405 28.1962L79.7487 28.2037L78.5567 24.6653C78.5567 24.6653 78.4161 24.2588 77.9895 24.2588C77.5629 24.2588 77.4224 24.6653 77.4224 24.6653L76.2304 28.2037L72.5991 28.1962C72.5991 28.1962 72.1675 28.1987 72.032 28.6027C71.8965 29.0042 72.2353 29.2702 72.2353 29.2702L75.1212 31.4711L73.9718 34.9593C73.9718 34.9593 73.8413 35.3708 74.1801 35.6243C74.5189 35.8777 74.8778 35.6393 74.8778 35.6393L77.987 33.4987L80.7249 31.4485L79.6408 28.2464L80.1954 29.8851L80.7249 31.4485L79.4049 32.4372L77.987 33.4987L81.0963 35.6393C81.0963 35.6393 81.4551 35.8802 81.7939 35.6243C82.1327 35.3683 82.0022 34.9593 82.0022 34.9593L80.8579 31.4861L83.7639 29.2702C83.7639 29.2702 84.1052 29.0042 83.9671 28.6027H83.9721Z" fill="#D9D9D9"/>
</g>
<mask id="mask5_90_1262" style="mask-type:alpha" maskUnits="userSpaceOnUse" x="108" y="24" width="6" height="12">
<rect x="108" y="24" width="6" height="12" fill="#E6E6E6"/>
</mask>
<g mask="url(#mask5_90_1262)">
<path d="M119.972 28.6027C119.837 28.2012 119.405 28.1962 119.405 28.1962L115.749 28.2037L114.557 24.6653C114.557 24.6653 114.416 24.2588 113.99 24.2588C113.563 24.2588 113.422 24.6653 113.422 24.6653L112.23 28.2037L108.599 28.1962C108.599 28.1962 108.168 28.1987 108.032 28.6027C107.896 29.0042 108.235 29.2702 108.235 29.2702L111.121 31.4711L109.972 34.9593C109.972 34.9593 109.841 35.3708 110.18 35.6243C110.519 35.8777 110.878 35.6393 110.878 35.6393L113.987 33.4987L116.725 31.4485L115.641 28.2464L116.195 29.8851L116.725 31.4485L115.405 32.4372L113.987 33.4987L117.096 35.6393C117.096 35.6393 117.455 35.8802 117.794 35.6243C118.133 35.3683 118.002 34.9593 118.002 34.9593L116.858 31.4861L119.764 29.2702C119.764 29.2702 120.105 29.0042 119.967 28.6027H119.972Z" fill="#F68D00"/>
</g>
<mask id="mask6_90_1262" style="mask-type:alpha" maskUnits="userSpaceOnUse" x="114" y="24" width="6" height="12">
<rect x="114" y="24" width="6" height="12" fill="#E6E6E6"/>
</mask>
<g mask="url(#mask6_90_1262)">
<path d="M119.972 28.6027C119.837 28.2012 119.405 28.1962 119.405 28.1962L115.749 28.2037L114.557 24.6653C114.557 24.6653 114.416 24.2588 113.99 24.2588C113.563 24.2588 113.422 24.6653 113.422 24.6653L112.23 28.2037L108.599 28.1962C108.599 28.1962 108.168 28.1987 108.032 28.6027C107.896 29.0042 108.235 29.2702 108.235 29.2702L111.121 31.4711L109.972 34.9593C109.972 34.9593 109.841 35.3708 110.18 35.6243C110.519 35.8777 110.878 35.6393 110.878 35.6393L113.987 33.4987L116.725 31.4485L115.641 28.2464L116.195 29.8851L116.725 31.4485L115.405 32.4372L113.987 33.4987L117.096 35.6393C117.096 35.6393 117.455 35.8802 117.794 35.6243C118.133 35.3683 118.002 34.9593 118.002 34.9593L116.858 31.4861L119.764 29.2702C119.764 29.2702 120.105 29.0042 119.967 28.6027H119.972Z" fill="#D9D9D9"/>
</g>
<mask id="mask7_90_1262" style="mask-type:alpha" maskUnits="userSpaceOnUse" x="144" y="24" width="5" height="12">
<rect x="144" y="24" width="4.5" height="12" fill="#E6E6E6"/>
</mask>
<g mask="url(#mask7_90_1262)">
<path d="M155.972 28.6027C155.837 28.2012 155.405 28.1962 155.405 28.1962L151.749 28.2037L150.557 24.6653C150.557 24.6653 150.416 24.2588 149.99 24.2588C149.563 24.2588 149.422 24.6653 149.422 24.6653L148.23 28.2037L144.599 28.1962C144.599 28.1962 144.168 28.1987 144.032 28.6027C143.896 29.0042 144.235 29.2702 144.235 29.2702L147.121 31.4711L145.972 34.9593C145.972 34.9593 145.841 35.3708 146.18 35.6243C146.519 35.8777 146.878 35.6393 146.878 35.6393L149.987 33.4987L152.725 31.4485L151.641 28.2464L152.195 29.8851L152.725 31.4485L151.405 32.4372L149.987 33.4987L153.096 35.6393C153.096 35.6393 153.455 35.8802 153.794 35.6243C154.133 35.3683 154.002 34.9593 154.002 34.9593L152.858 31.4861L155.764 29.2702C155.764 29.2702 156.105 29.0042 155.967 28.6027H155.972Z" fill="#F68D00"/>
</g>
<mask id="mask8_90_1262" style="mask-type:alpha" maskUnits="userSpaceOnUse" x="148" y="24" width="8" height="12">
<rect x="148.5" y="24" width="7.5" height="12" fill="#E6E6E6"/>
</mask>
<g mask="url(#mask8_90_1262)">
<path d="M155.972 28.6027C155.837 28.2012 155.405 28.1962 155.405 28.1962L151.749 28.2037L150.557 24.6653C150.557 24.6653 150.416 24.2588 149.99 24.2588C149.563 24.2588 149.422 24.6653 149.422 24.6653L148.23 28.2037L144.599 28.1962C144.599 28.1962 144.168 28.1987 144.032 28.6027C143.896 29.0042 144.235 29.2702 144.235 29.2702L147.121 31.4711L145.972 34.9593C145.972 34.9593 145.841 35.3708 146.18 35.6243C146.519 35.8777 146.878 35.6393 146.878 35.6393L149.987 33.4987L152.725 31.4485L151.641 28.2464L152.195 29.8851L152.725 31.4485L151.405 32.4372L149.987 33.4987L153.096 35.6393C153.096 35.6393 153.455 35.8802 153.794 35.6243C154.133 35.3683 154.002 34.9593 154.002 34.9593L152.858 31.4861L155.764 29.2702C155.764 29.2702 156.105 29.0042 155.967 28.6027H155.972Z" fill="#D9D9D9"/>
</g>
<mask id="mask9_90_1262" style="mask-type:alpha" maskUnits="userSpaceOnUse" x="180" y="24" width="3" height="12">
<rect x="180" y="24" width="3" height="12" fill="#E6E6E6"/>
</mask>
<g mask="url(#mask9_90_1262)">
<path d="M191.972 28.6027C191.837 28.2012 191.405 28.1962 191.405 28.1962L187.749 28.2037L186.557 24.6653C186.557 24.6653 186.416 24.2588 185.99 24.2588C185.563 24.2588 185.422 24.6653 185.422 24.6653L184.23 28.2037L180.599 28.1962C180.599 28.1962 180.168 28.1987 180.032 28.6027C179.896 29.0042 180.235 29.2702 180.235 29.2702L183.121 31.4711L181.972 34.9593C181.972 34.9593 181.841 35.3708 182.18 35.6243C182.519 35.8777 182.878 35.6393 182.878 35.6393L185.987 33.4987L188.725 31.4485L187.641 28.2464L188.195 29.8851L188.725 31.4485L187.405 32.4372L185.987 33.4987L189.096 35.6393C189.096 35.6393 189.455 35.8802 189.794 35.6243C190.133 35.3683 190.002 34.9593 190.002 34.9593L188.858 31.4861L191.764 29.2702C191.764 29.2702 192.105 29.0042 191.967 28.6027H191.972Z" fill="#F68D00"/>
</g>
<mask id="mask10_90_1262" style="mask-type:alpha" maskUnits="userSpaceOnUse" x="183" y="24" width="9" height="12">
<rect x="183" y="24" width="9" height="12" fill="#E6E6E6"/>
</mask>
<g mask="url(#mask10_90_1262)">
<path d="M191.972 28.6027C191.837 28.2012 191.405 28.1962 191.405 28.1962L187.749 28.2037L186.557 24.6653C186.557 24.6653 186.416 24.2588 185.99 24.2588C185.563 24.2588 185.422 24.6653 185.422 24.6653L184.23 28.2037L180.599 28.1962C180.599 28.1962 180.168 28.1987 180.032 28.6027C179.896 29.0042 180.235 29.2702 180.235 29.2702L183.121 31.4711L181.972 34.9593C181.972 34.9593 181.841 35.3708 182.18 35.6243C182.519 35.8777 182.878 35.6393 182.878 35.6393L185.987 33.4987L188.725 31.4485L187.641 28.2464L188.195 29.8851L188.725 31.4485L187.405 32.4372L185.987 33.4987L189.096 35.6393C189.096 35.6393 189.455 35.8802 189.794 35.6243C190.133 35.3683 190.002 34.9593 190.002 34.9593L188.858 31.4861L191.764 29.2702C191.764 29.2702 192.105 29.0042 191.967 28.6027H191.972Z" fill="#D9D9D9"/>
</g>
<mask id="mask11_90_1262" style="mask-type:alpha" maskUnits="userSpaceOnUse" x="216" y="24" width="12" height="12">
<rect x="216" y="24" width="12" height="12" fill="#E6E6E6"/>
</mask>
<g mask="url(#mask11_90_1262)">
<path d="M227.972 28.6027C227.837 28.2012 227.405 28.1962 227.405 28.1962L223.749 28.2037L222.557 24.6653C222.557 24.6653 222.416 24.2588 221.99 24.2588C221.563 24.2588 221.422 24.6653 221.422 24.6653L220.23 28.2037L216.599 28.1962C216.599 28.1962 216.168 28.1987 216.032 28.6027C215.896 29.0042 216.235 29.2702 216.235 29.2702L219.121 31.4711L217.972 34.9593C217.972 34.9593 217.841 35.3708 218.18 35.6243C218.519 35.8777 218.878 35.6393 218.878 35.6393L221.987 33.4987L224.725 31.4485L223.641 28.2464L224.195 29.8851L224.725 31.4485L223.405 32.4372L221.987 33.4987L225.096 35.6393C225.096 35.6393 225.455 35.8802 225.794 35.6243C226.133 35.3683 226.002 34.9593 226.002 34.9593L224.858 31.4861L227.764 29.2702C227.764 29.2702 228.105 29.0042 227.967 28.6027H227.972Z" fill="#D9D9D9"/>
</g>
</svg>
