<svg width="256" height="64" viewBox="0 0 256 64" fill="none" xmlns="http://www.w3.org/2000/svg">
<mask id="mask0_90_1313" style="mask-type:alpha" maskUnits="userSpaceOnUse" x="0" y="24" width="16" height="16">
<rect y="24" width="16" height="16" fill="#E6E6E6"/>
</mask>
<g mask="url(#mask0_90_1313)">
<path d="M15.9629 30.1364C15.7822 29.601 15.2067 29.5943 15.2067 29.5943L10.3316 29.6044L8.74223 24.8865C8.74223 24.8865 8.55485 24.3445 7.98603 24.3445C7.41722 24.3445 7.22984 24.8865 7.22984 24.8865L5.6405 29.6044L0.798854 29.5943C0.798854 29.5943 0.223345 29.5977 0.0426613 30.1364C-0.138022 30.6717 0.313686 31.0264 0.313686 31.0264L4.16157 33.9608L2.62911 38.6118C2.62911 38.6118 2.45512 39.1605 2.90683 39.4985C3.35853 39.8364 3.83701 39.5185 3.83701 39.5185L7.98269 36.6644L11.6332 33.9307L10.1877 29.6613L10.9272 31.8462L11.6332 33.9307L9.87317 35.2491L7.98269 36.6644L12.1284 39.5185C12.1284 39.5185 12.6068 39.8397 13.0585 39.4985C13.5103 39.1572 13.3363 38.6118 13.3363 38.6118L11.8105 33.9809L15.6851 31.0264C15.6851 31.0264 16.1402 30.6717 15.9562 30.1364H15.9629Z" fill="#F68D00"/>
</g>
<mask id="mask1_90_1313" style="mask-type:alpha" maskUnits="userSpaceOnUse" x="40" y="24" width="12" height="16">
<rect x="40" y="24" width="12" height="16" fill="#E6E6E6"/>
</mask>
<g mask="url(#mask1_90_1313)">
<path d="M55.9629 30.1364C55.7822 29.601 55.2067 29.5943 55.2067 29.5943L50.3316 29.6044L48.7422 24.8865C48.7422 24.8865 48.5549 24.3445 47.986 24.3445C47.4172 24.3445 47.2298 24.8865 47.2298 24.8865L45.6405 29.6044L40.7989 29.5943C40.7989 29.5943 40.2233 29.5977 40.0427 30.1364C39.862 30.6717 40.3137 31.0264 40.3137 31.0264L44.1616 33.9608L42.6291 38.6118C42.6291 38.6118 42.4551 39.1605 42.9068 39.4985C43.3585 39.8364 43.837 39.5185 43.837 39.5185L47.9827 36.6644L51.6332 33.9307L50.1877 29.6613L50.9272 31.8462L51.6332 33.9307L49.8732 35.2491L47.9827 36.6644L52.1284 39.5185C52.1284 39.5185 52.6068 39.8397 53.0585 39.4985C53.5103 39.1572 53.3363 38.6118 53.3363 38.6118L51.8105 33.9809L55.6851 31.0264C55.6851 31.0264 56.1402 30.6717 55.9562 30.1364H55.9629Z" fill="#F68D00"/>
</g>
<mask id="mask2_90_1313" style="mask-type:alpha" maskUnits="userSpaceOnUse" x="52" y="24" width="4" height="16">
<rect x="52" y="24" width="4" height="16" fill="#E6E6E6"/>
</mask>
<g mask="url(#mask2_90_1313)">
<path d="M55.9629 30.1364C55.7822 29.601 55.2067 29.5943 55.2067 29.5943L50.3316 29.6044L48.7422 24.8865C48.7422 24.8865 48.5549 24.3445 47.986 24.3445C47.4172 24.3445 47.2298 24.8865 47.2298 24.8865L45.6405 29.6044L40.7989 29.5943C40.7989 29.5943 40.2233 29.5977 40.0427 30.1364C39.862 30.6717 40.3137 31.0264 40.3137 31.0264L44.1616 33.9608L42.6291 38.6118C42.6291 38.6118 42.4551 39.1605 42.9068 39.4985C43.3585 39.8364 43.837 39.5185 43.837 39.5185L47.9827 36.6644L51.6332 33.9307L50.1877 29.6613L50.9272 31.8462L51.6332 33.9307L49.8732 35.2491L47.9827 36.6644L52.1284 39.5185C52.1284 39.5185 52.6068 39.8397 53.0585 39.4985C53.5103 39.1572 53.3363 38.6118 53.3363 38.6118L51.8105 33.9809L55.6851 31.0264C55.6851 31.0264 56.1402 30.6717 55.9562 30.1364H55.9629Z" fill="#D9D9D9"/>
</g>
<mask id="mask3_90_1313" style="mask-type:alpha" maskUnits="userSpaceOnUse" x="80" y="24" width="10" height="16">
<rect x="80" y="24" width="10" height="16" fill="#E6E6E6"/>
</mask>
<g mask="url(#mask3_90_1313)">
<path d="M95.9629 30.1364C95.7822 29.601 95.2067 29.5943 95.2067 29.5943L90.3316 29.6044L88.7422 24.8865C88.7422 24.8865 88.5549 24.3445 87.986 24.3445C87.4172 24.3445 87.2298 24.8865 87.2298 24.8865L85.6405 29.6044L80.7989 29.5943C80.7989 29.5943 80.2233 29.5977 80.0427 30.1364C79.862 30.6717 80.3137 31.0264 80.3137 31.0264L84.1616 33.9608L82.6291 38.6118C82.6291 38.6118 82.4551 39.1605 82.9068 39.4985C83.3585 39.8364 83.837 39.5185 83.837 39.5185L87.9827 36.6644L91.6332 33.9307L90.1877 29.6613L90.9272 31.8462L91.6332 33.9307L89.8732 35.2491L87.9827 36.6644L92.1284 39.5185C92.1284 39.5185 92.6068 39.8397 93.0585 39.4985C93.5103 39.1572 93.3363 38.6118 93.3363 38.6118L91.8105 33.9809L95.6851 31.0264C95.6851 31.0264 96.1402 30.6717 95.9562 30.1364H95.9629Z" fill="#F68D00"/>
</g>
<mask id="mask4_90_1313" style="mask-type:alpha" maskUnits="userSpaceOnUse" x="90" y="24" width="6" height="16">
<rect x="90" y="24" width="6" height="16" fill="#E6E6E6"/>
</mask>
<g mask="url(#mask4_90_1313)">
<path d="M95.9629 30.1364C95.7822 29.601 95.2067 29.5943 95.2067 29.5943L90.3316 29.6044L88.7422 24.8865C88.7422 24.8865 88.5549 24.3445 87.986 24.3445C87.4172 24.3445 87.2298 24.8865 87.2298 24.8865L85.6405 29.6044L80.7989 29.5943C80.7989 29.5943 80.2233 29.5977 80.0427 30.1364C79.862 30.6717 80.3137 31.0264 80.3137 31.0264L84.1616 33.9608L82.6291 38.6118C82.6291 38.6118 82.4551 39.1605 82.9068 39.4985C83.3585 39.8364 83.837 39.5185 83.837 39.5185L87.9827 36.6644L91.6332 33.9307L90.1877 29.6613L90.9272 31.8462L91.6332 33.9307L89.8732 35.2491L87.9827 36.6644L92.1284 39.5185C92.1284 39.5185 92.6068 39.8397 93.0585 39.4985C93.5103 39.1572 93.3363 38.6118 93.3363 38.6118L91.8105 33.9809L95.6851 31.0264C95.6851 31.0264 96.1402 30.6717 95.9562 30.1364H95.9629Z" fill="#D9D9D9"/>
</g>
<mask id="mask5_90_1313" style="mask-type:alpha" maskUnits="userSpaceOnUse" x="120" y="24" width="8" height="16">
<rect x="120" y="24" width="8" height="16" fill="#E6E6E6"/>
</mask>
<g mask="url(#mask5_90_1313)">
<path d="M135.963 30.1364C135.782 29.601 135.207 29.5943 135.207 29.5943L130.332 29.6044L128.742 24.8865C128.742 24.8865 128.555 24.3445 127.986 24.3445C127.417 24.3445 127.23 24.8865 127.23 24.8865L125.64 29.6044L120.799 29.5943C120.799 29.5943 120.223 29.5977 120.043 30.1364C119.862 30.6717 120.314 31.0264 120.314 31.0264L124.162 33.9608L122.629 38.6118C122.629 38.6118 122.455 39.1605 122.907 39.4985C123.359 39.8364 123.837 39.5185 123.837 39.5185L127.983 36.6644L131.633 33.9307L130.188 29.6613L130.927 31.8462L131.633 33.9307L129.873 35.2491L127.983 36.6644L132.128 39.5185C132.128 39.5185 132.607 39.8397 133.059 39.4985C133.51 39.1572 133.336 38.6118 133.336 38.6118L131.81 33.9809L135.685 31.0264C135.685 31.0264 136.14 30.6717 135.956 30.1364H135.963Z" fill="#F68D00"/>
</g>
<mask id="mask6_90_1313" style="mask-type:alpha" maskUnits="userSpaceOnUse" x="128" y="24" width="8" height="16">
<rect x="128" y="24" width="8" height="16" fill="#E6E6E6"/>
</mask>
<g mask="url(#mask6_90_1313)">
<path d="M135.963 30.1364C135.782 29.601 135.207 29.5943 135.207 29.5943L130.332 29.6044L128.742 24.8865C128.742 24.8865 128.555 24.3445 127.986 24.3445C127.417 24.3445 127.23 24.8865 127.23 24.8865L125.64 29.6044L120.799 29.5943C120.799 29.5943 120.223 29.5977 120.043 30.1364C119.862 30.6717 120.314 31.0264 120.314 31.0264L124.162 33.9608L122.629 38.6118C122.629 38.6118 122.455 39.1605 122.907 39.4985C123.359 39.8364 123.837 39.5185 123.837 39.5185L127.983 36.6644L131.633 33.9307L130.188 29.6613L130.927 31.8462L131.633 33.9307L129.873 35.2491L127.983 36.6644L132.128 39.5185C132.128 39.5185 132.607 39.8397 133.059 39.4985C133.51 39.1572 133.336 38.6118 133.336 38.6118L131.81 33.9809L135.685 31.0264C135.685 31.0264 136.14 30.6717 135.956 30.1364H135.963Z" fill="#D9D9D9"/>
</g>
<mask id="mask7_90_1313" style="mask-type:alpha" maskUnits="userSpaceOnUse" x="160" y="24" width="6" height="16">
<rect x="160" y="24" width="6" height="16" fill="#E6E6E6"/>
</mask>
<g mask="url(#mask7_90_1313)">
<path d="M175.963 30.1364C175.782 29.601 175.207 29.5943 175.207 29.5943L170.332 29.6044L168.742 24.8865C168.742 24.8865 168.555 24.3445 167.986 24.3445C167.417 24.3445 167.23 24.8865 167.23 24.8865L165.64 29.6044L160.799 29.5943C160.799 29.5943 160.223 29.5977 160.043 30.1364C159.862 30.6717 160.314 31.0264 160.314 31.0264L164.162 33.9608L162.629 38.6118C162.629 38.6118 162.455 39.1605 162.907 39.4985C163.359 39.8364 163.837 39.5185 163.837 39.5185L167.983 36.6644L171.633 33.9307L170.188 29.6613L170.927 31.8462L171.633 33.9307L169.873 35.2491L167.983 36.6644L172.128 39.5185C172.128 39.5185 172.607 39.8397 173.059 39.4985C173.51 39.1572 173.336 38.6118 173.336 38.6118L171.81 33.9809L175.685 31.0264C175.685 31.0264 176.14 30.6717 175.956 30.1364H175.963Z" fill="#F68D00"/>
</g>
<mask id="mask8_90_1313" style="mask-type:alpha" maskUnits="userSpaceOnUse" x="166" y="24" width="10" height="16">
<rect x="166" y="24" width="10" height="16" fill="#E6E6E6"/>
</mask>
<g mask="url(#mask8_90_1313)">
<path d="M175.963 30.1364C175.782 29.601 175.207 29.5943 175.207 29.5943L170.332 29.6044L168.742 24.8865C168.742 24.8865 168.555 24.3445 167.986 24.3445C167.417 24.3445 167.23 24.8865 167.23 24.8865L165.64 29.6044L160.799 29.5943C160.799 29.5943 160.223 29.5977 160.043 30.1364C159.862 30.6717 160.314 31.0264 160.314 31.0264L164.162 33.9608L162.629 38.6118C162.629 38.6118 162.455 39.1605 162.907 39.4985C163.359 39.8364 163.837 39.5185 163.837 39.5185L167.983 36.6644L171.633 33.9307L170.188 29.6613L170.927 31.8462L171.633 33.9307L169.873 35.2491L167.983 36.6644L172.128 39.5185C172.128 39.5185 172.607 39.8397 173.059 39.4985C173.51 39.1572 173.336 38.6118 173.336 38.6118L171.81 33.9809L175.685 31.0264C175.685 31.0264 176.14 30.6717 175.956 30.1364H175.963Z" fill="#D9D9D9"/>
</g>
<mask id="mask9_90_1313" style="mask-type:alpha" maskUnits="userSpaceOnUse" x="200" y="24" width="4" height="16">
<rect x="200" y="24" width="4" height="16" fill="#E6E6E6"/>
</mask>
<g mask="url(#mask9_90_1313)">
<path d="M215.963 30.1364C215.782 29.601 215.207 29.5943 215.207 29.5943L210.332 29.6044L208.742 24.8865C208.742 24.8865 208.555 24.3445 207.986 24.3445C207.417 24.3445 207.23 24.8865 207.23 24.8865L205.64 29.6044L200.799 29.5943C200.799 29.5943 200.223 29.5977 200.043 30.1364C199.862 30.6717 200.314 31.0264 200.314 31.0264L204.162 33.9608L202.629 38.6118C202.629 38.6118 202.455 39.1605 202.907 39.4985C203.359 39.8364 203.837 39.5185 203.837 39.5185L207.983 36.6644L211.633 33.9307L210.188 29.6613L210.927 31.8462L211.633 33.9307L209.873 35.2491L207.983 36.6644L212.128 39.5185C212.128 39.5185 212.607 39.8397 213.059 39.4985C213.51 39.1572 213.336 38.6118 213.336 38.6118L211.81 33.9809L215.685 31.0264C215.685 31.0264 216.14 30.6717 215.956 30.1364H215.963Z" fill="#F68D00"/>
</g>
<mask id="mask10_90_1313" style="mask-type:alpha" maskUnits="userSpaceOnUse" x="204" y="24" width="12" height="16">
<rect x="204" y="24" width="12" height="16" fill="#E6E6E6"/>
</mask>
<g mask="url(#mask10_90_1313)">
<path d="M215.963 30.1364C215.782 29.601 215.207 29.5943 215.207 29.5943L210.332 29.6044L208.742 24.8865C208.742 24.8865 208.555 24.3445 207.986 24.3445C207.417 24.3445 207.23 24.8865 207.23 24.8865L205.64 29.6044L200.799 29.5943C200.799 29.5943 200.223 29.5977 200.043 30.1364C199.862 30.6717 200.314 31.0264 200.314 31.0264L204.162 33.9608L202.629 38.6118C202.629 38.6118 202.455 39.1605 202.907 39.4985C203.359 39.8364 203.837 39.5185 203.837 39.5185L207.983 36.6644L211.633 33.9307L210.188 29.6613L210.927 31.8462L211.633 33.9307L209.873 35.2491L207.983 36.6644L212.128 39.5185C212.128 39.5185 212.607 39.8397 213.059 39.4985C213.51 39.1572 213.336 38.6118 213.336 38.6118L211.81 33.9809L215.685 31.0264C215.685 31.0264 216.14 30.6717 215.956 30.1364H215.963Z" fill="#D9D9D9"/>
</g>
<mask id="mask11_90_1313" style="mask-type:alpha" maskUnits="userSpaceOnUse" x="240" y="24" width="16" height="16">
<rect x="240" y="24" width="16" height="16" fill="#E6E6E6"/>
</mask>
<g mask="url(#mask11_90_1313)">
<path d="M255.963 30.1364C255.782 29.601 255.207 29.5943 255.207 29.5943L250.332 29.6044L248.742 24.8865C248.742 24.8865 248.555 24.3445 247.986 24.3445C247.417 24.3445 247.23 24.8865 247.23 24.8865L245.64 29.6044L240.799 29.5943C240.799 29.5943 240.223 29.5977 240.043 30.1364C239.862 30.6717 240.314 31.0264 240.314 31.0264L244.162 33.9608L242.629 38.6118C242.629 38.6118 242.455 39.1605 242.907 39.4985C243.359 39.8364 243.837 39.5185 243.837 39.5185L247.983 36.6644L251.633 33.9307L250.188 29.6613L250.927 31.8462L251.633 33.9307L249.873 35.2491L247.983 36.6644L252.128 39.5185C252.128 39.5185 252.607 39.8397 253.059 39.4985C253.51 39.1572 253.336 38.6118 253.336 38.6118L251.81 33.9809L255.685 31.0264C255.685 31.0264 256.14 30.6717 255.956 30.1364H255.963Z" fill="#D9D9D9"/>
</g>
</svg>
