<svg width="31" height="41" viewBox="0 0 31 41" fill="none" xmlns="http://www.w3.org/2000/svg">
<path d="M30.428 28.2246V9.224C30.428 8.67765 30.2152 8.16371 29.8286 7.77668L22.6514 0.599452C22.2648 0.212868 21.7508 0 21.204 0H2.04678C0.918079 0 0 0.91808 0 2.04678V19.4237V28.2246C10.3149 29.4218 20.4637 29.4641 30.428 28.2246Z" fill="#DCDFE1"/>
<path d="M0 28.2246V33.2786V38.4567C0 39.5854 0.918079 40.5035 2.04678 40.5035H28.3817C29.5104 40.5035 30.4285 39.5854 30.4285 38.4567V28.2246H0Z" fill="#EA5440"/>
<path d="M22.0861 8.28522L30.4298 16.5974L30.3938 8.87927L22.0861 8.28522Z" fill="#C4CBD2"/>
<path d="M29.8285 7.77667L22.6513 0.599451C22.3475 0.295225 21.9632 0.103508 21.5474 0.0333023V6.9558C21.5474 8.01699 22.411 8.88062 23.4722 8.88062H30.3947C30.3245 8.46523 30.1328 8.0809 29.8285 7.77667Z" fill="#ABB2B8"/>
<path d="M9.85499 30.7471H7.88652C7.576 30.7471 7.32397 30.9991 7.32397 31.3097V34.9509V37.4446C7.32397 37.7551 7.576 38.0071 7.88652 38.0071C8.19705 38.0071 8.44907 37.7551 8.44907 37.4446V35.5135H9.85499C10.8694 35.5135 11.6948 34.6881 11.6948 33.6737V32.5869C11.6948 31.5725 10.8694 30.7471 9.85499 30.7471ZM10.5697 33.6737C10.5697 34.068 10.2492 34.3884 9.85499 34.3884H8.44907V31.8722H9.85499C10.2492 31.8722 10.5697 32.1926 10.5697 32.5869V33.6737Z" fill="white"/>
<path d="M15.3719 38.0071H13.5353C13.2248 38.0071 12.9728 37.7551 12.9728 37.4446V31.3097C12.9728 30.9991 13.2248 30.7471 13.5353 30.7471H15.3724C16.4597 30.7471 17.3436 31.6314 17.3436 32.7183V36.0355C17.3431 37.1228 16.4592 38.0071 15.3719 38.0071ZM14.0979 36.8821H15.3724C15.8391 36.8821 16.2185 36.5022 16.2185 36.0355V32.7183C16.2185 32.252 15.8386 31.8722 15.3724 31.8722H14.0979V36.8821Z" fill="white"/>
<path d="M22.5415 30.7471H19.2958C18.9853 30.7471 18.7333 30.9991 18.7333 31.3097V37.4446C18.7333 37.7551 18.9853 38.0071 19.2958 38.0071C19.6064 38.0071 19.8584 37.7551 19.8584 37.4446V34.9397H21.4214C21.7319 34.9397 21.9839 34.6877 21.9839 34.3771C21.9839 34.0666 21.7319 33.8146 21.4214 33.8146H19.8584V31.8727H22.5415C22.852 31.8727 23.1041 31.6206 23.1041 31.3101C23.1041 30.9996 22.8525 30.7471 22.5415 30.7471Z" fill="white"/>
<path d="M22.0262 18.007C21.9569 17.8387 21.7922 17.7293 21.6104 17.7293H19.4479V12.4283C19.4479 12.1799 19.2468 11.9782 18.9979 11.9782H13.2302C12.9818 11.9782 12.7802 12.1799 12.7802 12.4283V17.7288H10.6177C10.4359 17.7288 10.2716 17.8387 10.2019 18.0065C10.1321 18.1748 10.1708 18.3683 10.2996 18.4971L15.7959 23.9934C15.8836 24.0811 15.9988 24.1252 16.1141 24.1252C16.2293 24.1252 16.3445 24.0811 16.4322 23.9934L21.9286 18.4975C22.0573 18.3683 22.096 18.1753 22.0262 18.007Z" fill="#C4CBD2"/>
<path d="M21.1262 17.1069C21.0569 16.9386 20.8922 16.8292 20.7104 16.8292H18.5479V11.5282C18.5479 11.2798 18.3468 11.0782 18.0979 11.0782H12.3302C12.0818 11.0782 11.8801 11.2798 11.8801 11.5282V16.8288H9.7177C9.53589 16.8288 9.37162 16.9386 9.30187 17.1064C9.23211 17.2748 9.27081 17.4683 9.39953 17.597L14.8959 23.0933C14.9836 23.1811 15.0988 23.2252 15.214 23.2252C15.3292 23.2252 15.4444 23.1811 15.5322 23.0933L21.0285 17.5974C21.1572 17.4683 21.1959 17.2752 21.1262 17.1069Z" fill="#EA5440"/>
</svg>
