<svg width="24" height="24" viewBox="0 0 24 24" fill="none" xmlns="http://www.w3.org/2000/svg">
<g clip-path="url(#clip0_87_809)">
<path d="M23.9011 15.5542C21.9399 15.5542 20.3454 13.9515 20.3454 11.9794C20.3454 10.0073 21.9372 8.40462 23.9011 8.40462C25.8651 8.40462 27.4569 10.0073 27.4569 11.9794C27.4569 13.9542 25.8624 15.5542 23.9011 15.5542ZM23.8903 4.99011C20.0275 4.99011 16.958 8.11668 16.958 12.0011C16.958 15.8856 20.0275 18.9714 23.8903 18.9714C27.753 18.9714 30.8442 15.8829 30.8442 12.0011C30.8442 8.1194 27.7503 4.99011 23.8903 4.99011Z" fill="#EC7224"/>
<path d="M14.3226 5.34868C14.2221 5.24274 14.0972 5.19385 13.9559 5.19385H11.4297C11.2884 5.19385 11.1635 5.24274 11.0657 5.34868C10.9597 5.44919 10.9081 5.57414 10.9081 5.71811V10.3957H6.62165V5.71811C6.62165 5.57686 6.56732 5.44919 6.4641 5.34868C6.35816 5.24274 6.23864 5.19385 6.1001 5.19385H4.83426C3.84821 5.19385 3.04688 6.00062 3.04688 6.99482V18.2651C3.04688 18.4145 3.09849 18.5422 3.19899 18.6427C3.30493 18.7378 3.42445 18.7894 3.56842 18.7894H6.1001C6.23864 18.7894 6.36088 18.7351 6.4641 18.6346C6.56732 18.5286 6.62165 18.4064 6.62165 18.2679V13.5087H10.9108V18.2679C10.9108 18.4064 10.9597 18.5286 11.0684 18.6346C11.1662 18.7351 11.2911 18.7894 11.4324 18.7894H13.9586C14.0999 18.7894 14.2248 18.7351 14.3254 18.6346C14.4313 18.5286 14.4829 18.4064 14.4829 18.2679V5.72354C14.4775 5.57414 14.4286 5.44919 14.3226 5.34868Z" fill="#089C49"/>
</g>
<defs>
<clipPath id="clip0_87_809">
<rect width="24" height="24" fill="white"/>
</clipPath>
</defs>
</svg>
