<svg width="119" height="40" viewBox="0 0 119 40" fill="none" xmlns="http://www.w3.org/2000/svg">
<path d="M10.2895 26.4095H9.68474C9.63712 26.4095 9.59109 26.4238 9.55141 26.454C9.51014 26.4841 9.48157 26.5222 9.46411 26.5667L8.34347 29.281C8.31807 29.346 8.29585 29.4111 8.27522 29.473C8.25458 29.5349 8.23554 29.6 8.2149 29.6651C8.20061 29.6 8.18474 29.5365 8.16569 29.473C8.14665 29.4111 8.12442 29.3476 8.09903 29.2857L6.94347 26.5667C6.92601 26.527 6.89903 26.4905 6.86252 26.4587C6.82601 26.4254 6.77363 26.4095 6.70855 26.4095H6.053L7.83395 30.4762L7.04506 32.1889H7.60696C7.68633 32.1889 7.74506 32.1714 7.78315 32.1381C7.82125 32.1048 7.85299 32.0587 7.87839 32.0016L10.2863 26.4095H10.2895ZM4.37839 27.0365C4.5149 27.0968 4.62919 27.1905 4.72284 27.3206C4.81649 27.4492 4.88792 27.6159 4.93871 27.8175C4.98792 28.0191 5.01331 28.2603 5.01331 28.5413C5.01331 29.073 4.90538 29.4826 4.6895 29.7683C4.47363 30.0556 4.16411 30.1984 3.76093 30.1984C3.55617 30.1984 3.37046 30.1603 3.20538 30.0841C3.03871 30.0079 2.88792 29.8746 2.75141 29.6873V27.5984C2.90855 27.3905 3.07839 27.2302 3.26569 27.1175C3.45141 27.0032 3.66887 26.9476 3.91649 26.9476C4.0895 26.9476 4.24506 26.9778 4.38157 27.0365M2.4768 30.727C2.58474 30.727 2.64982 30.673 2.67363 30.5651L2.71173 30.173C2.85617 30.3667 3.02601 30.5175 3.22125 30.6254C3.4149 30.7333 3.65299 30.7873 3.93077 30.7873C4.20855 30.7873 4.48157 30.7302 4.71331 30.6143C4.94506 30.5 5.1403 30.3413 5.3022 30.1413C5.46252 29.9413 5.58633 29.7032 5.67046 29.4302C5.75617 29.1556 5.79903 28.8603 5.79903 28.5413C5.79903 28.1826 5.76093 27.8667 5.68315 27.5937C5.60696 27.3191 5.49744 27.0889 5.35458 26.9032C5.21173 26.7175 5.0403 26.5778 4.83871 26.4826C4.63712 26.3889 4.41173 26.3413 4.16093 26.3413C3.86252 26.3413 3.59744 26.4048 3.36569 26.5318C3.13395 26.6587 2.92919 26.8254 2.74982 27.0318V24.4492H1.98633V30.727H2.4768Z" fill="white"/>
<path d="M32.4254 24C28.8302 24 25.9746 26.9413 25.9746 30.5968C25.9746 34.2524 28.8302 37.1556 32.4254 37.1556C36.0206 37.1556 38.8968 34.2492 38.8968 30.5968C38.8968 26.9444 36.0175 24 32.4254 24ZM32.4349 33.9381C30.6095 33.9381 29.1254 32.4302 29.1254 30.5746C29.1254 28.719 30.6064 27.2111 32.4349 27.2111C34.2635 27.2111 35.7445 28.719 35.7445 30.5746C35.7445 32.4302 34.2603 33.9381 32.4349 33.9381Z" fill="#EC7224"/>
<path d="M92.9419 36.3032L89.026 24.7921C88.98 24.6619 88.8895 24.5207 88.7657 24.3968C88.6387 24.2556 88.4578 24.1905 88.2197 24.1905H85.8784C85.8784 24.1905 85.8704 24.1937 85.8689 24.1937C85.1228 24.1984 84.4943 24.708 84.2895 25.4L80.5847 36.3048C80.5387 36.4302 80.5117 36.5175 80.5117 36.5778C80.5117 36.6873 80.5514 36.7841 80.6324 36.8635C80.7054 36.9381 80.799 36.981 80.9085 36.981H83.1736C83.4117 36.981 83.5831 36.9302 83.6863 36.8222C83.7879 36.7207 83.8498 36.6175 83.8784 36.5238L84.3784 35H89.1609L89.6673 36.5238C89.6895 36.6191 89.753 36.7175 89.8593 36.8222C89.9578 36.927 90.1292 36.981 90.3673 36.981H92.6324C92.7387 36.981 92.8339 36.9349 92.9133 36.8635C92.9943 36.7841 93.0292 36.6873 93.0292 36.5778C93.0165 36.5159 92.9943 36.427 92.9435 36.3048M85.3085 32.1746L86.7641 27.7889L88.2228 32.1746H85.3085Z" fill="#089C49"/>
<path d="M104.239 30.5936C103.908 30.2873 103.496 30.027 103.008 29.8143C102.517 29.6079 101.938 29.4413 101.284 29.3079C100.63 29.1683 100.073 29.0571 99.6313 28.9556C99.1885 28.8556 98.8345 28.7556 98.5615 28.654C98.2917 28.554 98.1012 28.4397 97.9821 28.3143C97.871 28.1968 97.8155 28.0413 97.8155 27.8587C97.8155 27.6762 97.8694 27.519 97.9679 27.3984C98.0694 27.2809 98.2059 27.1857 98.3647 27.1206C98.5282 27.0492 98.7139 27.0032 98.9234 26.973C99.1361 26.9397 99.3536 26.927 99.5837 26.927C99.8932 26.927 100.158 26.9603 100.369 27.0286C100.584 27.0968 100.766 27.1714 100.911 27.2603C101.057 27.3571 101.163 27.4397 101.244 27.5286C101.322 27.6175 101.377 27.6746 101.415 27.7127C101.522 27.8127 101.625 27.8841 101.73 27.9317C101.831 27.9778 101.969 28.0063 102.135 28.0063H104.488C104.587 28.0063 104.671 27.9635 104.752 27.8889C104.83 27.8095 104.866 27.7127 104.866 27.6032C104.858 27.2143 104.717 26.8032 104.452 26.3762C104.188 25.946 103.828 25.5587 103.36 25.2111C102.892 24.8556 102.336 24.5667 101.696 24.3444C101.055 24.1175 100.347 24.0048 99.5853 24.0048C98.8234 24.0048 98.1044 24.1143 97.4694 24.327C96.8456 24.5397 96.3044 24.8286 95.8678 25.1952C95.4202 25.5603 95.0837 25.9825 94.8488 26.4556C94.6171 26.9286 94.4996 27.4349 94.4996 27.954C94.4996 29 94.7821 29.8381 95.3536 30.4635C95.9218 31.0889 96.8218 31.5365 98.0583 31.8032C98.7123 31.9571 99.2885 32.0746 99.7726 32.1683C100.258 32.2683 100.655 32.3682 100.966 32.4698C101.277 32.5746 101.515 32.6905 101.671 32.8095C101.823 32.927 101.901 33.0809 101.901 33.2651C101.901 33.6302 101.692 33.8809 101.262 34.0206C100.836 34.1619 100.306 34.2333 99.671 34.2333C99.3091 34.2333 99.0091 34.1873 98.7631 34.1C98.5155 34.0206 98.3139 33.9159 98.152 33.8016C97.9869 33.6841 97.8615 33.5698 97.7647 33.4619C97.671 33.3524 97.598 33.2698 97.5504 33.227C97.452 33.146 97.3552 33.0794 97.2615 33.0349C97.1679 32.9921 97.0361 32.9683 96.8647 32.9683H94.5139C94.4155 32.9683 94.3266 33.0111 94.2488 33.0857C94.1758 33.1667 94.1377 33.2651 94.1377 33.3714C94.1472 33.8365 94.2885 34.2921 94.5647 34.7381C94.8377 35.1936 95.2171 35.5968 95.7044 35.9571C96.1917 36.3127 96.771 36.6063 97.444 36.8254C98.1171 37.0429 98.8567 37.1524 99.6726 37.1524C100.488 37.1524 101.217 37.0635 101.892 36.8809C102.569 36.6968 103.155 36.4317 103.655 36.0841C104.147 35.7333 104.535 35.3206 104.815 34.8286C105.09 34.3429 105.228 33.7889 105.228 33.1698C105.228 32.5968 105.15 32.0984 104.985 31.6778C104.815 31.2683 104.568 30.8984 104.239 30.5921" fill="#089C49"/>
<path d="M23.5217 24.3365C23.4281 24.2365 23.3122 24.1905 23.1805 24.1905H20.8297C20.6979 24.1905 20.582 24.2365 20.4916 24.3365C20.3932 24.4317 20.3455 24.5492 20.3455 24.6841V29.0857H16.3566V24.6841C16.3566 24.5508 16.3059 24.4317 16.2106 24.3365C16.1122 24.2365 16.0011 24.1905 15.8725 24.1905H14.6947C13.7773 24.1905 13.0312 24.9492 13.0312 25.8857V36.4889C13.0312 36.6302 13.0789 36.7492 13.1725 36.8444C13.2709 36.9333 13.382 36.9825 13.517 36.9825H15.8725C16.0011 36.9825 16.1154 36.9317 16.2106 36.8365C16.3074 36.7365 16.3566 36.6222 16.3566 36.4921V32.0143H20.3487V36.4921C20.3487 36.6222 20.3947 36.7381 20.4947 36.8365C20.5852 36.9317 20.7027 36.9825 20.8328 36.9825H23.1836C23.3154 36.9825 23.4313 36.9317 23.5249 36.8365C23.6233 36.7365 23.6709 36.6222 23.6709 36.4921V24.6905C23.6662 24.5492 23.6201 24.4317 23.5217 24.3381" fill="#089C49"/>
<path d="M53.5669 24.3365C53.4732 24.2365 53.3573 24.1905 53.2256 24.1905H51.6034C50.9542 24.1905 50.3954 24.5683 50.1224 25.1207C50.1224 25.1238 50.1145 25.1286 50.1145 25.1286L47.4573 29.7413L44.5478 24.681C44.5129 24.6191 44.4319 24.5222 44.3097 24.3873C44.1907 24.254 44.0113 24.1905 43.7732 24.1905H42.8637C41.9462 24.1905 41.2002 24.9492 41.2002 25.8857V36.4889C41.2002 36.6191 41.251 36.7349 41.3446 36.8333C41.4431 36.9286 41.5542 36.9794 41.6827 36.9794H44.0415C44.1732 36.9794 44.2891 36.9286 44.3827 36.8333C44.4811 36.7333 44.5272 36.6191 44.5272 36.4889V30.4365L46.2161 33.4572C46.2764 33.5524 46.3558 33.6572 46.4589 33.7556C46.5605 33.8572 46.7018 33.9111 46.8859 33.9111H48.0367C48.2129 33.9111 48.3557 33.8603 48.4557 33.7556C48.5573 33.6556 48.6431 33.5508 48.6986 33.4572L50.3923 30.4365V36.4889C50.3923 36.6191 50.4383 36.7349 50.5319 36.8333C50.6304 36.9286 50.7415 36.9794 50.878 36.9794H53.2319C53.3637 36.9794 53.478 36.9286 53.5732 36.8333C53.6716 36.7333 53.7177 36.6191 53.7177 36.4889V24.6873C53.7129 24.5492 53.6669 24.4318 53.5685 24.3365" fill="#089C49"/>
<path d="M66.0196 34.2016C65.9212 34.1016 65.8053 34.0556 65.6768 34.0556H59.9958V32.008H65.1371C65.2688 32.008 65.3799 31.9587 65.4783 31.8603C65.5768 31.7651 65.6228 31.6476 65.6228 31.5159V29.5778C65.6228 29.4445 65.5768 29.327 65.4783 29.2334C65.3799 29.1334 65.2688 29.0873 65.1371 29.0873H59.9958V27.1143H65.5323C65.6641 27.1143 65.7752 27.0635 65.8688 26.9683C65.9672 26.8683 66.018 26.754 66.018 26.6206V24.6841C66.018 24.5508 65.9672 24.4318 65.8688 24.3365C65.7752 24.2365 65.6641 24.1905 65.5323 24.1905H58.3276C57.4101 24.1905 56.6641 24.9476 56.6641 25.8841V36.4873C56.6641 36.6175 56.7149 36.7333 56.8101 36.8349C56.9085 36.9302 57.018 36.981 57.1545 36.981H65.6704C65.799 36.981 65.9149 36.9302 66.0133 36.8349C66.1101 36.7349 66.1545 36.6207 66.1545 36.4873V34.5508C66.1577 34.4159 66.1117 34.2984 66.018 34.2" fill="#089C49"/>
<path d="M79.1078 31.4524C78.9205 31.0206 78.5951 30.6349 78.1268 30.3095C78.1983 30.2476 78.2919 30.1587 78.4094 30.0429C78.5205 29.9254 78.6316 29.7778 78.738 29.5873C78.8443 29.3984 78.9395 29.1683 79.0189 28.9095C79.0999 28.6492 79.1348 28.3429 79.1348 27.9841C79.1348 27.5349 79.0618 27.0794 78.9173 26.6238C78.7776 26.1635 78.5411 25.7619 78.2094 25.4048C77.8776 25.0444 77.438 24.7476 76.8903 24.5254C76.3427 24.2984 75.6602 24.1857 74.8586 24.1857H70.2475C69.33 24.1857 68.584 24.9429 68.584 25.881C68.584 25.9111 68.5872 25.9397 68.5887 25.9683V36.4873C68.5887 36.6254 68.6348 36.7381 68.7284 36.8317C68.8268 36.9317 68.938 36.9778 69.0745 36.9778H75.2348C75.9983 36.9778 76.6522 36.8683 77.176 36.6429C77.7078 36.4206 78.1316 36.1222 78.4634 35.746C78.7919 35.3762 79.0268 34.9492 79.176 34.4762C79.3173 34.0032 79.3935 33.5127 79.3935 33.0175C79.3856 32.4048 79.2919 31.8873 79.1078 31.4508M71.9078 27.0222H74.6903C75.0522 27.0222 75.3268 27.1143 75.5126 27.3064C75.6999 27.4952 75.7935 27.7492 75.7935 28.0651C75.7935 28.381 75.6999 28.6302 75.5126 28.8222C75.3253 29.0111 75.0522 29.1079 74.6903 29.1079H71.9078V27.0222ZM75.7348 33.8286C75.5205 34.0413 75.23 34.1508 74.8729 34.1508H71.9078V31.9222H74.8729C75.2316 31.9222 75.5221 32.0317 75.7348 32.2444C75.9522 32.454 76.0586 32.7222 76.0586 33.0397C76.0554 33.354 75.9507 33.6143 75.7348 33.8302" fill="#089C49"/>
<path d="M116.924 34.2222C116.825 34.1222 116.714 34.0762 116.582 34.0762H110.9V32.0286H116.046C116.17 32.0286 116.289 31.9825 116.382 31.8825C116.481 31.7857 116.533 31.6683 116.533 31.5381V29.5984C116.533 29.4651 116.482 29.354 116.382 29.254C116.289 29.1571 116.173 29.1063 116.046 29.1063H110.9V27.1365H116.436C116.568 27.1365 116.684 27.0873 116.778 26.9889C116.876 26.8936 116.922 26.7762 116.922 26.6444V24.7079C116.922 24.5746 116.876 24.4571 116.778 24.3603C116.684 24.2603 116.568 24.2143 116.436 24.2143H109.217C109.217 24.2143 109.213 24.2143 109.209 24.2175C108.305 24.2333 107.571 24.9825 107.571 25.9095V36.5127C107.571 36.6429 107.617 36.7635 107.716 36.8571C107.814 36.9571 107.925 37.0048 108.062 37.0048H116.576C116.708 37.0048 116.819 36.9556 116.917 36.8571C117.016 36.7619 117.062 36.6444 117.062 36.5127V34.573C117.07 34.4429 117.024 34.3254 116.925 34.2254" fill="#089C49"/>
<path d="M8.87891 20.9953V20.7286L9.43922 20.5143C9.79478 20.3905 10.0265 20.2207 10.1345 20.0064C10.2408 19.7921 10.2948 19.5175 10.2948 19.1778V5.20797C10.2948 4.85241 10.2408 4.5667 10.1345 4.35241C10.0281 4.13813 9.79637 3.96987 9.43922 3.84448L8.87891 3.63019V3.36353H15.5297V3.63019L14.9424 3.86988C14.6392 3.97622 14.4345 4.13654 14.3281 4.35083C14.2218 4.56511 14.1678 4.85876 14.1678 5.23178V19.2016C14.1678 19.5588 14.2249 19.8334 14.3408 20.0302C14.4567 20.227 14.6837 20.3873 15.0218 20.5111L15.5297 20.7254V20.9921H8.87891V20.9953ZM18.736 20.9953V20.7286L19.0837 20.6223C19.4392 20.5159 19.6265 20.3381 19.644 20.0873C19.6614 19.8381 19.5551 19.5524 19.3234 19.2334L14.1948 11.9413L20.9535 5.04924C21.2027 4.80003 21.3408 4.56035 21.3678 4.32861C21.3948 4.09686 21.2202 3.91908 20.8472 3.79368L20.3932 3.63337V3.3667H24.2932V3.63337L23.598 3.84765C23.2059 3.97305 22.8948 4.12384 22.663 4.30162C22.4313 4.4794 22.1646 4.72067 21.8614 5.02226L17.0805 9.91114L23.3583 19.073C23.6249 19.4651 23.8789 19.7857 24.1202 20.035C24.3599 20.2842 24.7027 20.481 25.1487 20.6223L25.5233 20.7286V20.9953H18.7392H18.736Z" fill="white"/>
<path d="M26.3486 20.9953V20.7286L26.7232 20.6222C27.0788 20.5159 27.3248 20.3556 27.4582 20.1413C27.5915 19.927 27.6582 19.6429 27.6582 19.2857V10.9254C27.6582 10.5508 27.5915 10.2714 27.4582 10.0841C27.3248 9.89684 27.0804 9.76827 26.7232 9.69684L26.3486 9.61748V9.35081L31.2375 7.77462L31.5042 8.04129L31.4248 11.8349V19.3143C31.4248 19.6714 31.4915 19.9556 31.6248 20.1683C31.7582 20.3826 31.9947 20.5429 32.3328 20.6492L32.5994 20.7286V20.9953H26.3486ZM29.4994 6.35716C28.8931 6.35716 28.382 6.16668 27.9629 5.78256C27.5439 5.40002 27.3359 4.9143 27.3359 4.327C27.3359 3.7397 27.5455 3.23176 27.9629 2.85716C28.3804 2.48256 28.8931 2.29684 29.4994 2.29684C30.1058 2.29684 30.6121 2.48415 31.0216 2.85716C31.4312 3.23176 31.6359 3.72065 31.6359 4.327C31.6359 4.93335 31.4312 5.40002 31.0216 5.78256C30.6121 6.1651 30.1042 6.35716 29.4994 6.35716Z" fill="white"/>
<path d="M38.849 21.3969C37.7093 21.3969 36.8236 21.1111 36.1918 20.5429C35.5601 19.9731 35.2442 19.0651 35.2442 17.8175V8.68258H33.4014V8.41591L34.0426 8.30956C34.595 8.18575 35.0712 8.00639 35.4712 7.77464C35.8712 7.54289 36.268 7.23178 36.6601 6.83972L38.8506 4.40956H39.1172L39.0379 8.14924H42.0299V8.68416H39.0109V18.3C39.0109 18.9238 39.149 19.3953 39.4252 19.7159C39.7014 20.0365 40.0522 20.1969 40.4807 20.1969C40.8553 20.1969 41.1839 20.1032 41.4696 19.9159C41.7538 19.7286 42.0395 19.4746 42.3252 19.154L42.5918 19.4207C42.2347 20.027 41.7458 20.5064 41.122 20.8635C40.4982 21.2191 39.741 21.3984 38.8522 21.3984L38.849 21.3969Z" fill="white"/>
<path d="M50.0136 21.3969C48.8024 21.3969 47.7024 21.1334 46.7151 20.6096C45.7263 20.0842 44.9437 19.3191 44.3643 18.3127C43.785 17.3064 43.4961 16.073 43.4961 14.6127C43.4961 13.1524 43.812 11.9381 44.4437 10.9127C45.0755 9.88892 45.9215 9.10479 46.9818 8.56194C48.0405 8.01908 49.2024 7.74765 50.4675 7.74765C51.5009 7.74765 52.3723 7.91749 53.085 8.25559C53.7977 8.59368 54.3405 9.03495 54.7151 9.57781C55.0897 10.1207 55.2755 10.6857 55.2755 11.2746C55.2755 11.773 55.1247 12.1603 54.8215 12.4365C54.5183 12.7127 54.1263 12.8508 53.6469 12.8508C53.1294 12.8508 52.712 12.6635 52.3913 12.2905C52.0707 11.9175 51.8834 11.427 51.831 10.8207C51.8136 10.4286 51.8215 10.0953 51.858 9.81908C51.8929 9.54289 51.8929 9.26194 51.858 8.97781C51.7866 8.67463 51.6755 8.47463 51.5247 8.37622C51.3739 8.27781 51.1643 8.2286 50.8977 8.2286C49.812 8.2286 48.9691 8.70003 48.3739 9.64448C47.777 10.5889 47.4786 12.0937 47.4786 14.1588C47.4786 15.9572 47.812 17.3334 48.4802 18.2857C49.1485 19.2381 50.177 19.7143 51.5659 19.7143C52.4024 19.7143 53.0786 19.5635 53.5961 19.2603C54.112 18.9572 54.6104 18.5032 55.0913 17.8984L55.358 18.1127C54.912 19.1635 54.2262 19.9731 53.3009 20.5429C52.3755 21.1127 51.2802 21.3969 50.0151 21.3969H50.0136Z" fill="white"/>
<path d="M56.1309 20.9953V20.7286L56.4515 20.6222C57.0928 20.408 57.4134 19.9635 57.4134 19.2873V5.02383C57.4134 4.64923 57.3515 4.37463 57.2261 4.19526C57.1007 4.01748 56.861 3.88415 56.5055 3.79526L56.1055 3.68891V3.42225L60.8071 2.27304L61.234 2.51272L61.1277 6.27939V9.61907C61.7515 9.1032 62.4229 8.66193 63.1452 8.29685C63.8658 7.93177 64.6626 7.74923 65.5356 7.74923C66.6928 7.74923 67.615 8.07939 68.3007 8.73812C68.9864 9.39685 69.3293 10.4127 69.3293 11.7826V19.3159C69.3293 19.673 69.4007 19.9572 69.5436 20.1699C69.6864 20.3842 69.9356 20.5445 70.2912 20.6508L70.5055 20.7302V20.9968H64.2547V20.7302L64.5753 20.6508C65.2166 20.4365 65.5372 19.9826 65.5372 19.2889V10.9016C65.5372 10.1889 65.4166 9.70003 65.1769 9.43177C64.9372 9.16511 64.5134 9.03177 63.9086 9.03177C63.5166 9.03177 63.0896 9.10796 62.6261 9.25875C62.1626 9.40955 61.6912 9.67304 61.2102 10.0461V19.3413C61.2102 20.0365 61.5309 20.481 62.1721 20.6762L62.3864 20.7302V20.9968H56.1356L56.1309 20.9953Z" fill="white"/>
<path d="M78.2469 7.74606C79.404 7.74606 80.3929 7.98257 81.2119 8.454C82.031 8.92543 82.658 9.5667 83.0945 10.3778C83.531 11.1889 83.7484 12.1096 83.7484 13.1429C83.7484 13.3397 83.7389 13.5397 83.7215 13.7445C83.704 13.9492 83.6675 14.1318 83.6151 14.2921H75.6548C75.6722 16.2159 76.0151 17.6 76.6834 18.4461C77.3516 19.2921 78.3437 19.7143 79.6611 19.7143C80.5516 19.7143 81.2722 19.5715 81.8246 19.2873C82.377 19.0032 82.8929 18.5842 83.3738 18.0318L83.6405 18.2715C83.0881 19.2508 82.3532 20.0175 81.4373 20.5683C80.5199 21.1207 79.4199 21.3969 78.1389 21.3969C76.858 21.3969 75.7516 21.1254 74.7738 20.5826C73.7945 20.0397 73.0278 19.2604 72.477 18.2461C71.9246 17.2318 71.6484 16.0207 71.6484 14.6127C71.6484 13.2048 71.9691 11.9111 72.6103 10.8857C73.2516 9.86193 74.0754 9.08257 75.0818 8.54924C76.0881 8.01431 77.1421 7.74765 78.2469 7.74765V7.74606ZM78.1675 8.28099C77.6516 8.28099 77.2103 8.43654 76.8453 8.74765C76.4802 9.05876 76.1945 9.61114 75.9913 10.4032C75.7865 11.1953 75.6754 12.3127 75.658 13.7556H80.2262C80.404 11.8143 80.3326 10.4159 80.0119 9.56193C79.6913 8.70797 79.077 8.2794 78.1691 8.2794L78.1675 8.28099Z" fill="white"/>
<path d="M85.0856 20.9953V20.7286L85.4602 20.6223C86.084 20.4445 86.3951 20.008 86.3951 19.3127V10.9524C86.3951 10.5603 86.3332 10.2715 86.2078 10.0842C86.0824 9.89686 85.8427 9.76829 85.4872 9.69686L85.0872 9.59051V9.32384L89.6554 7.77463L89.9221 8.0413L90.1364 9.64448C90.7602 9.0921 91.4633 8.63813 92.2459 8.28257C93.03 7.92701 93.8046 7.74765 94.5697 7.74765C95.7443 7.74765 96.6491 8.06828 97.2808 8.70955C97.9126 9.35082 98.2284 10.3302 98.2284 11.6477V19.3413C98.2284 20.0365 98.5665 20.473 99.2427 20.6508L99.4824 20.7302V20.9969H93.1792V20.7302L93.5268 20.6238C94.1506 20.4286 94.4618 19.9921 94.4618 19.3143V10.7937C94.4618 9.654 93.8919 9.08416 92.7522 9.08416C91.9681 9.08416 91.1141 9.47622 90.1872 10.2588V19.3413C90.1872 20.0365 90.4983 20.473 91.1221 20.6508L91.3618 20.7302V20.9969H85.084L85.0856 20.9953Z" fill="white"/>
<path d="M105.146 21.3969C104.273 21.3969 103.49 21.2937 102.795 21.0889C102.1 20.8842 101.46 20.6302 100.871 20.327L100.898 17.1477H101.165L102.073 18.7508C102.465 19.4635 102.897 19.9937 103.368 20.3397C103.839 20.6873 104.441 20.8604 105.171 20.8604C106.027 20.8604 106.716 20.6699 107.241 20.2857C107.766 19.9032 108.028 19.3905 108.028 18.7492C108.028 18.1619 107.841 17.681 107.468 17.3064C107.093 16.9318 106.4 16.5937 105.384 16.2905L104.262 15.9429C103.176 15.6223 102.32 15.1238 101.697 14.4476C101.073 13.7715 100.762 12.9429 100.762 11.9635C100.762 10.7889 101.225 9.79051 102.151 8.97146C103.076 8.15241 104.403 7.74289 106.13 7.74289C106.825 7.74289 107.479 7.81908 108.093 7.96987C108.708 8.12067 109.3 8.34765 109.87 8.65083L109.709 11.535H109.443L108.508 9.8794C108.17 9.29209 107.835 8.87781 107.506 8.63654C107.176 8.39686 106.682 8.27623 106.024 8.27623C105.417 8.27623 104.849 8.44606 104.314 8.78416C103.779 9.12225 103.513 9.60321 103.513 10.227C103.513 10.8508 103.739 11.3127 104.193 11.6699C104.647 12.027 105.319 12.3556 106.211 12.6588L107.413 13.0064C108.695 13.3984 109.611 13.9365 110.163 14.6223C110.716 15.308 110.992 16.1318 110.992 17.0937C110.992 18.3937 110.479 19.435 109.455 20.2191C108.432 21.0032 106.993 21.3937 105.141 21.3937L105.146 21.3969Z" fill="white"/>
</svg>
