<svg width="142" height="28" viewBox="0 0 142 28" fill="none" xmlns="http://www.w3.org/2000/svg">
<path d="M30.0731 18.3726C27.8172 18.3726 25.9832 16.5087 25.9832 14.2152C25.9832 11.9217 27.8141 10.0579 30.0731 10.0579C32.3321 10.0579 34.1631 11.9217 34.1631 14.2152C34.1631 16.5119 32.329 18.3726 30.0731 18.3726ZM30.0606 6.08691C25.6176 6.08691 22.0869 9.72302 22.0869 14.2405C22.0869 18.758 25.6176 22.3467 30.0606 22.3467C34.5037 22.3467 38.0593 18.7548 38.0593 14.2405C38.0593 9.72618 34.5005 6.08691 30.0606 6.08691Z" fill="#EC7224"/>
<path d="M95.4283 16.1929L97.2281 10.7719L99.0309 16.1929H95.4283ZM104.864 21.2948L100.024 7.06628C99.9682 6.90517 99.8557 6.73142 99.7026 6.57663C99.5464 6.40288 99.3215 6.32074 99.0278 6.32074H96.1345C96.1345 6.32074 96.1251 6.3239 96.122 6.3239C95.2003 6.33022 94.4223 6.95887 94.1692 7.81499L89.5887 21.2948C89.5324 21.4496 89.498 21.557 89.498 21.6328C89.498 21.7687 89.548 21.8887 89.648 21.9866C89.7386 22.0782 89.8542 22.1319 89.9886 22.1319H92.7881C93.0818 22.1319 93.2943 22.0688 93.4224 21.9361C93.5474 21.8097 93.6255 21.6834 93.6599 21.5665L94.2785 19.6837H100.19L100.815 21.5665C100.843 21.6834 100.921 21.8066 101.052 21.9361C101.174 22.0656 101.387 22.1319 101.68 22.1319H104.48C104.611 22.1319 104.73 22.0751 104.827 21.9866C104.927 21.8887 104.971 21.7687 104.971 21.6328C104.955 21.557 104.927 21.4464 104.864 21.2948Z" fill="#089C49"/>
<path d="M118.83 14.2373C118.421 13.8582 117.912 13.5359 117.309 13.2737C116.703 13.0178 115.987 12.8125 115.178 12.6482C114.369 12.4745 113.681 12.3386 113.134 12.2123C112.588 12.0891 112.15 11.9659 111.813 11.8395C111.478 11.7163 111.244 11.5741 111.097 11.4194C110.96 11.274 110.891 11.0813 110.891 10.857C110.891 10.6327 110.957 10.4369 111.079 10.2884C111.204 10.1431 111.372 10.0262 111.569 9.94406C111.772 9.85561 112 9.79874 112.26 9.76084C112.522 9.71977 112.791 9.70397 113.075 9.70397C113.456 9.70397 113.784 9.74504 114.047 9.83033C114.312 9.91563 114.537 10.0072 114.715 10.1178C114.897 10.2379 115.028 10.3389 115.128 10.4495C115.225 10.5601 115.293 10.6296 115.34 10.677C115.472 10.8002 115.6 10.8886 115.728 10.9487C115.853 11.0055 116.025 11.0403 116.228 11.0403H119.137C119.258 11.0403 119.362 10.9866 119.462 10.8949C119.558 10.797 119.602 10.677 119.602 10.5411C119.593 10.0609 119.418 9.55234 119.09 9.02477C118.765 8.49404 118.318 8.01386 117.74 7.58423C117.162 7.14511 116.475 6.78814 115.684 6.5133C114.89 6.23214 114.016 6.09314 113.075 6.09314C112.135 6.09314 111.244 6.22898 110.46 6.49118C109.688 6.75339 109.019 7.11036 108.479 7.56527C107.926 8.01702 107.51 8.53827 107.22 9.1227C106.932 9.70713 106.789 10.3326 106.789 10.9739C106.789 12.266 107.139 13.3022 107.845 14.0761C108.548 14.8501 109.66 15.403 111.188 15.7315C111.997 15.921 112.71 16.0664 113.306 16.1833C113.906 16.3065 114.397 16.4297 114.781 16.556C115.165 16.6855 115.459 16.8277 115.653 16.9762C115.84 17.1215 115.937 17.311 115.937 17.5385C115.937 17.9902 115.678 18.2998 115.147 18.4736C114.622 18.6473 113.966 18.7358 113.181 18.7358C112.735 18.7358 112.363 18.6789 112.06 18.5715C111.753 18.4736 111.503 18.3441 111.303 18.2019C111.1 18.0566 110.944 17.9144 110.825 17.7817C110.71 17.6459 110.619 17.5448 110.56 17.4911C110.438 17.39 110.319 17.3079 110.204 17.2542C110.088 17.2005 109.926 17.172 109.713 17.172H106.807C106.685 17.172 106.576 17.2257 106.479 17.3174C106.389 17.4185 106.342 17.5385 106.342 17.6712C106.354 18.2461 106.529 18.8084 106.87 19.3613C107.207 19.9236 107.676 20.4227 108.279 20.8682C108.882 21.3073 109.598 21.6706 110.429 21.9423C111.26 22.2108 112.175 22.3466 113.184 22.3466C114.194 22.3466 115.094 22.2361 115.928 22.0118C116.765 21.7843 117.49 21.4558 118.109 21.0261C118.718 20.5933 119.196 20.0816 119.543 19.475C119.883 18.8748 120.052 18.1893 120.052 17.4248C120.052 16.7171 119.955 16.1011 119.752 15.5799C119.543 15.0744 119.237 14.6163 118.83 14.2373Z" fill="#089C49"/>
<path d="M19.0567 6.50392C18.9411 6.38072 18.7974 6.32385 18.6349 6.32385H15.7291C15.5666 6.32385 15.4229 6.38072 15.3104 6.50392C15.1886 6.62081 15.1292 6.76612 15.1292 6.93356V12.3735H10.1988V6.93356C10.1988 6.76928 10.1363 6.62081 10.0175 6.50392C9.89567 6.38072 9.7582 6.32385 9.59885 6.32385H8.14283C7.00864 6.32385 6.08691 7.2621 6.08691 8.41832V21.5254C6.08691 21.6991 6.14628 21.8476 6.26189 21.9645C6.38374 22.075 6.52122 22.1351 6.68682 22.1351H9.59885C9.7582 22.1351 9.8988 22.0719 10.0175 21.955C10.1363 21.8318 10.1988 21.6896 10.1988 21.5285V15.9938H15.1323V21.5285C15.1323 21.6896 15.1886 21.8318 15.3135 21.955C15.426 22.0719 15.5698 22.1351 15.7322 22.1351H18.638C18.8005 22.1351 18.9442 22.0719 19.0598 21.955C19.1817 21.8318 19.241 21.6896 19.241 21.5285V6.93987C19.2348 6.76612 19.1786 6.62081 19.0567 6.50392Z" fill="#089C49"/>
<path d="M56.1942 6.50392C56.0786 6.38072 55.9349 6.32385 55.7724 6.32385H53.7665C52.9635 6.32385 52.273 6.7914 51.9355 7.47376C51.9355 7.47692 51.9262 7.48324 51.9262 7.48324L48.6423 13.1854L45.046 6.9304C45.0023 6.85458 44.9023 6.73453 44.7523 6.5671C44.6055 6.40283 44.3836 6.32385 44.0899 6.32385H42.9651C41.8309 6.32385 40.9092 7.2621 40.9092 8.41832V21.5254C40.9092 21.6865 40.9717 21.8286 41.0873 21.9518C41.2091 22.0687 41.3466 22.1319 41.506 22.1319H44.4211C44.5836 22.1319 44.7273 22.0687 44.8429 21.9518C44.9648 21.8286 45.021 21.6865 45.021 21.5254V14.0447L47.1082 17.7787C47.1832 17.8956 47.28 18.0251 47.4081 18.1483C47.5331 18.2747 47.7081 18.341 47.9362 18.341H49.3578C49.5765 18.341 49.7515 18.2778 49.8765 18.1483C50.0015 18.0251 50.1077 17.8956 50.1764 17.7787L52.2698 14.0447V21.5254C52.2698 21.6865 52.3261 21.8286 52.4417 21.9518C52.5635 22.0687 52.701 22.1319 52.8697 22.1319H55.7787C55.9411 22.1319 56.0817 22.0687 56.2005 21.9518C56.3223 21.8286 56.3786 21.6865 56.3786 21.5254V6.93671C56.3723 6.76612 56.3161 6.62081 56.1942 6.50392Z" fill="#089C49"/>
<path d="M71.5852 18.698C71.4634 18.5748 71.3197 18.5179 71.1603 18.5179H64.1396V15.9875H70.4948C70.6573 15.9875 70.7947 15.9275 70.9166 15.8043C71.0385 15.6874 71.0947 15.5421 71.0947 15.3778V12.9832C71.0947 12.8189 71.0385 12.6736 70.9166 12.5567C70.7947 12.4335 70.6573 12.3767 70.4948 12.3767H64.1396V9.93784H70.9822C71.1447 9.93784 71.2822 9.87466 71.3978 9.75778C71.5196 9.63457 71.5821 9.49241 71.5821 9.32814V6.93356C71.5821 6.76928 71.5196 6.62081 71.3978 6.50392C71.2822 6.38072 71.1447 6.32385 70.9822 6.32385H62.0774C60.9432 6.32385 60.0215 7.25894 60.0215 8.41832V21.5254C60.0215 21.6865 60.084 21.8286 60.2027 21.955C60.3246 22.0719 60.4589 22.1351 60.6276 22.1351H71.1541C71.3134 22.1351 71.4571 22.0719 71.579 21.955C71.6977 21.8318 71.754 21.6896 71.754 21.5254V19.1308C71.7571 18.9633 71.7009 18.818 71.5852 18.698Z" fill="#089C49"/>
<path d="M83.596 18.2368C83.3305 18.499 82.9711 18.6348 82.5306 18.6348H78.8655V15.8801H82.5306C82.9743 15.8801 83.3336 16.016 83.596 16.2782C83.8647 16.5372 83.996 16.8689 83.996 17.2606C83.9928 17.6492 83.8616 17.9714 83.596 18.2368ZM78.8655 9.82416H82.3056C82.7524 9.82416 83.093 9.93789 83.3211 10.1748C83.5523 10.4086 83.6679 10.7213 83.6679 11.1131C83.6679 11.5048 83.5523 11.8112 83.3211 12.0482C83.0899 12.2819 82.7524 12.402 82.3056 12.402H78.8655V9.82416ZM87.7641 15.2989C87.5329 14.765 87.1298 14.2879 86.5518 13.8867C86.6393 13.8109 86.7549 13.7004 86.9017 13.5582C87.0392 13.4129 87.1767 13.2297 87.3079 12.9959C87.4392 12.7621 87.5579 12.4778 87.6548 12.1587C87.7547 11.8365 87.7985 11.4574 87.7985 11.0151C87.7985 10.4591 87.7079 9.89682 87.5298 9.3345C87.3579 8.76587 87.0642 8.26989 86.6549 7.82762C86.2456 7.38219 85.7019 7.01574 85.0239 6.7409C84.3459 6.45974 83.5023 6.32074 82.5118 6.32074H76.8128C75.6786 6.32074 74.7568 7.25583 74.7568 8.41521C74.7568 8.45312 74.76 8.48787 74.7631 8.52262V21.5254C74.7631 21.696 74.8193 21.835 74.9349 21.9519C75.0568 22.0751 75.1943 22.1319 75.363 22.1319H82.9774C83.921 22.1319 84.7302 21.9961 85.377 21.7181C86.0331 21.4433 86.5581 21.0737 86.9674 20.6093C87.3735 20.1512 87.6641 19.6236 87.8485 19.0392C88.0234 18.4548 88.1172 17.8482 88.1172 17.2354C88.1078 16.4772 87.9922 15.8391 87.7641 15.2989Z" fill="#089C49"/>
<path d="M134.51 18.7232C134.388 18.6 134.251 18.5432 134.088 18.5432H127.064V16.0128H133.426C133.579 16.0128 133.726 15.9559 133.841 15.8327C133.963 15.7126 134.029 15.5673 134.029 15.4062V13.0085C134.029 12.8442 133.966 12.7052 133.841 12.582C133.726 12.4619 133.582 12.3988 133.426 12.3988H127.064V9.96311H133.907C134.069 9.96311 134.213 9.90309 134.329 9.77989C134.45 9.663 134.507 9.51768 134.507 9.35341V6.95882C134.507 6.79455 134.45 6.64923 134.329 6.52919C134.213 6.40598 134.069 6.34912 133.907 6.34912H124.983C124.983 6.34912 124.977 6.34912 124.974 6.35228C123.855 6.37123 122.949 7.29685 122.949 8.44359V21.5506C122.949 21.7117 123.005 21.8602 123.127 21.9771C123.249 22.1003 123.387 22.1603 123.555 22.1603H134.079C134.241 22.1603 134.379 22.1003 134.5 21.9771C134.622 21.8602 134.679 21.7149 134.679 21.5506V19.1529C134.688 18.9918 134.632 18.8465 134.51 18.7232Z" fill="#089C49"/>
</svg>
