<svg width="185" height="28" viewBox="0 0 185 28" fill="none" xmlns="http://www.w3.org/2000/svg">
<g clip-path="url(#clip0_104_673)">
<path d="M29.9859 18.2832C27.7269 18.2832 25.8993 16.4164 25.8993 14.1261C25.8993 11.8357 27.7269 9.96891 29.9859 9.96891C32.2449 9.96891 34.0724 11.8357 34.0724 14.1261C34.0724 16.4164 32.237 18.2832 29.9859 18.2832ZM29.978 6C25.5306 6 22.001 9.63948 22.001 14.1575C22.001 18.6754 25.5306 22.26 29.978 22.26C34.4254 22.26 37.9786 18.6676 37.9786 14.1575C37.9786 9.64732 34.4176 6 29.978 6Z" fill="#EC7224"/>
<path d="M95.3478 16.1027L97.1441 10.6827L98.9481 16.1027H95.3478ZM104.784 21.2089L99.9443 6.98044C99.8893 6.81572 99.7717 6.64316 99.6227 6.49413C99.4658 6.32157 99.2383 6.23529 98.9481 6.23529H96.0538C96.0538 6.23529 96.0459 6.23529 96.0381 6.23529C95.1125 6.23529 94.336 6.87063 94.085 7.72559L89.5043 21.2089C89.4494 21.3658 89.4102 21.4678 89.4102 21.5462C89.4102 21.6795 89.4572 21.805 89.5592 21.8992C89.6533 21.9933 89.7631 22.0482 89.8965 22.0482H92.6967C92.9869 22.0482 93.1987 21.9854 93.332 21.8521C93.4575 21.7266 93.5359 21.6011 93.5673 21.4835L94.187 19.601H100.101L100.729 21.4835C100.76 21.6011 100.831 21.7266 100.964 21.8521C101.089 21.9854 101.301 22.0482 101.591 22.0482H104.392C104.525 22.0482 104.643 21.9933 104.737 21.8992C104.839 21.805 104.878 21.6795 104.878 21.5462C104.862 21.4678 104.839 21.358 104.768 21.2089H104.784Z" fill="white"/>
<path d="M118.745 14.1496C118.337 13.7731 117.827 13.4515 117.223 13.1848C116.619 12.926 115.898 12.722 115.09 12.5573C114.282 12.3847 113.592 12.2514 113.043 12.1181C112.494 11.9926 112.054 11.8749 111.717 11.7416C111.38 11.6161 111.144 11.4749 111.003 11.318C110.87 11.169 110.799 10.9807 110.799 10.7533C110.799 10.5258 110.862 10.3297 110.988 10.1885C111.113 10.0395 111.286 9.92967 111.482 9.84339C111.686 9.75711 111.913 9.69436 112.172 9.66298C112.431 9.62376 112.705 9.60807 112.988 9.60807C113.372 9.60807 113.694 9.64729 113.96 9.73357C114.227 9.81985 114.455 9.91398 114.627 10.0238C114.808 10.1414 114.941 10.2434 115.043 10.3532C115.137 10.463 115.208 10.5336 115.255 10.5807C115.388 10.7062 115.513 10.7925 115.639 10.8552C115.764 10.9101 115.937 10.9493 116.141 10.9493H119.051C119.169 10.9493 119.278 10.8944 119.373 10.8003C119.467 10.7062 119.514 10.5807 119.514 10.4474C119.506 9.96889 119.325 9.45904 119.004 8.93352C118.682 8.40014 118.235 7.92168 117.655 7.49027C117.074 7.05103 116.392 6.69806 115.6 6.41569C114.808 6.13331 113.929 5.99213 112.988 5.99213C112.047 5.99213 111.16 6.12547 110.376 6.39216C109.599 6.651 108.933 7.01181 108.391 7.46674C107.834 7.92168 107.419 8.43936 107.129 9.02764C106.838 9.61592 106.697 10.2356 106.697 10.8788C106.697 12.173 107.05 13.2083 107.756 13.9849C108.462 14.7614 109.576 15.3104 111.097 15.6399C111.905 15.8281 112.619 15.9772 113.215 16.0948C113.811 16.2203 114.306 16.338 114.69 16.4713C115.074 16.6047 115.364 16.7458 115.561 16.8949C115.749 17.0439 115.843 17.2322 115.843 17.4596C115.843 17.9146 115.584 18.2205 115.051 18.393C114.525 18.5656 113.866 18.6519 113.082 18.6519C112.635 18.6519 112.266 18.597 111.96 18.4871C111.654 18.393 111.403 18.2597 111.207 18.1185C111.003 17.9695 110.846 17.8283 110.729 17.6949C110.611 17.5616 110.525 17.4596 110.462 17.4047C110.337 17.3027 110.219 17.2243 110.109 17.1694C109.991 17.1145 109.827 17.091 109.623 17.091H106.713C106.587 17.091 106.477 17.1459 106.383 17.24C106.289 17.342 106.242 17.4596 106.242 17.593C106.258 18.1656 106.43 18.7303 106.768 19.2794C107.105 19.8441 107.576 20.3383 108.18 20.7854C108.784 21.2246 109.497 21.5854 110.329 21.8599C111.16 22.1266 112.078 22.2678 113.082 22.2678C114.086 22.2678 114.988 22.158 115.827 21.9305C116.666 21.7031 117.388 21.3736 118.008 20.9422C118.62 20.5108 119.098 20.001 119.443 19.3892C119.78 18.7852 119.953 18.1028 119.953 17.342C119.953 16.636 119.859 16.0164 119.655 15.4987C119.443 14.9967 119.137 14.5339 118.737 14.1574L118.745 14.1496Z" fill="white"/>
<path d="M18.9735 6.4157C18.8558 6.2902 18.7146 6.23529 18.5499 6.23529H15.6399C15.4752 6.23529 15.334 6.2902 15.2242 6.4157C15.1065 6.53335 15.0438 6.67454 15.0438 6.8471V12.2906H10.1101V6.8471C10.1101 6.68238 10.0474 6.53335 9.9297 6.4157C9.81204 6.2902 9.67085 6.23529 9.51398 6.23529H8.05505C6.92556 6.23529 6 7.17654 6 8.32956V21.4364C6 21.609 6.06275 21.758 6.17256 21.8756C6.29022 21.9854 6.4314 22.0482 6.59612 22.0482H9.50614C9.66301 22.0482 9.8042 21.9854 9.92185 21.8678C10.0395 21.7423 10.1023 21.6011 10.1023 21.4442V15.9066H15.0359V21.4442C15.0359 21.609 15.0909 21.7501 15.2164 21.8678C15.3262 21.9854 15.4752 22.0482 15.6321 22.0482H18.5421C18.7068 22.0482 18.848 21.9854 18.9656 21.8678C19.0911 21.7423 19.1461 21.6011 19.1461 21.4442V6.85494C19.1461 6.68238 19.0833 6.53335 18.9656 6.4157H18.9735Z" fill="white"/>
<path d="M56.1057 6.4157C55.9881 6.2902 55.8469 6.23529 55.6821 6.23529H53.6742C52.8741 6.23529 52.1839 6.70591 51.8466 7.38832L51.8387 7.39616L48.5522 13.0985L44.952 6.8471C44.9127 6.76866 44.8108 6.65101 44.6617 6.48629C44.5127 6.32157 44.2931 6.24313 44.0029 6.24313H42.8812C41.7439 6.24313 40.8262 7.18438 40.8262 8.3374V21.4442C40.8262 21.609 40.8889 21.7501 41.0066 21.8678C41.1321 21.9854 41.2654 22.0482 41.4223 22.0482H44.3402C44.5049 22.0482 44.6461 21.9854 44.7637 21.8678C44.8814 21.7423 44.9441 21.6011 44.9441 21.4442V13.9613L47.0305 17.6949C47.109 17.8126 47.2031 17.9381 47.3286 18.0636C47.4541 18.1891 47.6267 18.2597 47.8541 18.2597H49.2738C49.4935 18.2597 49.666 18.1969 49.7915 18.0636C49.917 17.9381 50.019 17.8126 50.0896 17.6949L52.1839 13.9613V21.4442C52.1839 21.609 52.2388 21.7501 52.3564 21.8678C52.4741 21.9854 52.6153 22.0482 52.7878 22.0482H55.6978C55.8626 22.0482 56.0037 21.9854 56.1214 21.8678C56.2469 21.7423 56.3018 21.6011 56.3018 21.4442V6.8471C56.3018 6.67454 56.2391 6.53335 56.1214 6.4157H56.1057Z" fill="white"/>
<path d="M71.503 18.6127C71.3775 18.4872 71.2363 18.4323 71.0795 18.4323H64.0594V15.8987H70.4128C70.5775 15.8987 70.7108 15.836 70.8363 15.7183C70.9618 15.6007 71.0167 15.4595 71.0167 15.2948V12.9024C71.0167 12.7377 70.9618 12.5965 70.8363 12.4789C70.7187 12.3534 70.5775 12.2985 70.4128 12.2985H64.0594V9.85908H70.8991C71.0638 9.85908 71.1971 9.79633 71.3148 9.67868C71.4403 9.55318 71.503 9.41199 71.503 9.24727V6.8471C71.503 6.68238 71.4403 6.53335 71.3148 6.4157C71.1971 6.2902 71.0638 6.23529 70.8991 6.23529H61.9965C60.8591 6.23529 59.9414 7.16869 59.9414 8.32956V21.4364C59.9414 21.6011 60.0042 21.7423 60.1218 21.8678C60.2473 21.9854 60.3807 22.0482 60.5454 22.0482H71.0716C71.2285 22.0482 71.3775 21.9854 71.4952 21.8678C71.6128 21.7423 71.6677 21.6011 71.6677 21.4364V19.0441C71.6677 18.8793 71.6128 18.7303 71.4952 18.6127H71.503Z" fill="white"/>
<path d="M83.5118 18.1499C83.2451 18.4088 82.8843 18.55 82.445 18.55H78.782V15.7968H82.445C82.8921 15.7968 83.2451 15.9302 83.5118 16.1969C83.7784 16.4557 83.9118 16.7851 83.9118 17.1773C83.9118 17.5695 83.7784 17.8911 83.5118 18.1499ZM78.782 9.73365H82.2254C82.6725 9.73365 83.0098 9.84346 83.2372 10.0866C83.4647 10.3219 83.5824 10.6357 83.5824 11.0279C83.5824 11.42 83.4647 11.7259 83.2372 11.9613C83.0098 12.1966 82.6646 12.3142 82.2254 12.3142H78.782V9.73365ZM87.6768 15.2086C87.4493 14.6752 87.0414 14.1967 86.461 13.7967C86.5473 13.7182 86.6649 13.6084 86.814 13.4672C86.9551 13.3182 87.0885 13.1378 87.2218 12.9025C87.3552 12.6672 87.4728 12.3848 87.567 12.0632C87.6689 11.7416 87.7081 11.3651 87.7081 10.918C87.7081 10.3611 87.614 9.7964 87.4415 9.23949C87.2689 8.67475 86.9787 8.17275 86.563 7.7335C86.1551 7.28641 85.6139 6.91776 84.9315 6.64323C84.2491 6.36085 83.4098 6.21967 82.4215 6.21967H76.7191C75.5818 6.21967 74.6641 7.15307 74.6641 8.31393C74.6641 8.35315 74.6641 8.38453 74.6641 8.42375V21.4286C74.6641 21.6012 74.719 21.7345 74.8366 21.8522C74.9621 21.9777 75.0955 22.0326 75.2602 22.0326H82.8764C83.8177 22.0326 84.6334 21.8992 85.2766 21.6169C85.9355 21.3423 86.461 20.9737 86.8689 20.5109C87.2767 20.056 87.567 19.5226 87.7474 18.9422C87.9199 18.3539 88.014 17.7499 88.014 17.1381C88.0062 16.3773 87.8885 15.7419 87.6611 15.2007L87.6768 15.2086Z" fill="white"/>
<path d="M134.424 18.6362C134.298 18.5107 134.165 18.4558 134 18.4558H126.98V15.9223H133.341C133.498 15.9223 133.64 15.8674 133.757 15.7419C133.883 15.6242 133.945 15.4752 133.945 15.3183V12.9182C133.945 12.7534 133.883 12.6123 133.757 12.4946C133.64 12.3769 133.498 12.3142 133.341 12.3142H126.98V9.8748H133.82C133.985 9.8748 134.126 9.81205 134.244 9.69439C134.369 9.57674 134.424 9.43555 134.424 9.27083V6.87066C134.424 6.70594 134.369 6.56475 134.244 6.43926C134.126 6.31376 133.985 6.25885 133.82 6.25885H124.894C124.894 6.25885 124.894 6.25885 124.886 6.25885C123.764 6.27454 122.862 7.20009 122.862 8.35312V21.46C122.862 21.6247 122.917 21.7659 123.043 21.8835C123.168 22.009 123.302 22.0639 123.474 22.0639H134C134.165 22.0639 134.298 22.0012 134.424 21.8835C134.549 21.7659 134.604 21.6247 134.604 21.46V19.0598C134.612 18.8951 134.557 18.7539 134.44 18.6284L134.424 18.6362Z" fill="white"/>
<path d="M138.974 17.9695V17.9381C138.974 15.6007 140.801 13.6162 143.217 13.6162C144.786 13.6162 145.758 14.2751 146.527 15.0908L145.711 15.9536C145.053 15.2634 144.315 14.7065 143.194 14.7065C141.515 14.7065 140.236 16.134 140.236 17.9067V17.9381C140.236 19.7343 141.546 21.154 143.28 21.154C144.339 21.154 145.155 20.6285 145.806 19.9226L146.59 20.6599C145.758 21.5854 144.762 22.26 143.209 22.26C140.793 22.26 138.966 20.2912 138.966 17.9695H138.974Z" fill="white"/>
<path d="M147.87 17.9695V17.9381C147.87 15.6007 149.698 13.6162 152.192 13.6162C154.686 13.6162 156.498 15.5693 156.498 17.9067V17.9381C156.498 20.2755 154.655 22.26 152.161 22.26C149.666 22.26 147.87 20.3069 147.87 17.9695ZM155.235 17.9695V17.9381C155.235 16.1576 153.91 14.7065 152.161 14.7065C150.411 14.7065 149.133 16.1654 149.133 17.9067V17.9381C149.133 19.7186 150.443 21.154 152.192 21.154C153.941 21.154 155.235 19.7108 155.235 17.9695Z" fill="white"/>
<path d="M161.478 18.9342V13.7966H162.709V18.6283C162.709 20.1657 163.54 21.1226 164.999 21.1226C166.458 21.1226 167.478 20.0794 167.478 18.5264V13.7888H168.694V22.0639H167.478V20.6206C166.921 21.5148 166.066 22.2364 164.646 22.2364C162.646 22.2364 161.478 20.8952 161.478 18.9264V18.9342Z" fill="white"/>
<path d="M171.463 10.3846H172.694V18.448L177.165 13.7888H178.703L175.228 17.342L178.812 22.0718H177.338L174.381 18.2127L172.694 19.9069V22.0718H171.463V10.3846Z" fill="white"/>
<path d="M137.1 19.9775C137.625 19.9775 138.056 20.4089 138.056 20.9344C138.056 21.4599 137.625 21.8913 137.1 21.8913C136.574 21.8913 136.143 21.4599 136.143 20.9344C136.143 20.4089 136.574 19.9775 137.1 19.9775Z" fill="white"/>
<path d="M158.811 19.9775C159.337 19.9775 159.768 20.4089 159.768 20.9344C159.768 21.4599 159.337 21.8913 158.811 21.8913C158.286 21.8913 157.854 21.4599 157.854 20.9344C157.854 20.4089 158.286 19.9775 158.811 19.9775Z" fill="white"/>
</g>
<defs>
<clipPath id="clip0_104_673">
<rect width="172.813" height="16.26" fill="white" transform="translate(6 6)"/>
</clipPath>
</defs>
</svg>
