<svg width="28" height="20" viewBox="0 0 28 20" fill="none" xmlns="http://www.w3.org/2000/svg">
<rect width="28" height="20" rx="2" fill="white"/>
<mask id="mask0_1723_27077" style="mask-type:luminance" maskUnits="userSpaceOnUse" x="0" y="0" width="28" height="20">
<rect width="28" height="20" rx="2" fill="white"/>
</mask>
<g mask="url(#mask0_1723_27077)">
<rect x="13.3333" width="14.6667" height="20" fill="#1AB11F"/>
<path fill-rule="evenodd" clip-rule="evenodd" d="M0 20H9.33333V0H0V20Z" fill="#262626"/>
<path fill-rule="evenodd" clip-rule="evenodd" d="M9.33325 20H18.6666V0H9.33325V20Z" fill="#DC0D18"/>
<path opacity="0.75" d="M11.9999 9.33334C11.9999 8.96515 11.7014 8.66667 11.3333 8.66667C10.9651 8.66667 10.6666 8.96515 10.6666 9.33334H11.9999ZM12.3289 12.2181C12.6474 12.4029 13.0554 12.2945 13.2402 11.9761C13.4249 11.6576 13.3166 11.2496 12.9981 11.0649L12.3289 12.2181ZM15.0756 11.0198C14.7654 11.2182 14.6748 11.6305 14.8731 11.9407C15.0715 12.2508 15.4838 12.3415 15.794 12.1431L15.0756 11.0198ZM17.3333 9.33334C17.3333 8.96515 17.0348 8.66667 16.6666 8.66667C16.2984 8.66667 15.9999 8.96515 15.9999 9.33334H17.3333ZM10.6666 9.33334C10.6666 10.5664 11.3365 11.6422 12.3289 12.2181L12.9981 11.0649C12.3998 10.7177 11.9999 10.0718 11.9999 9.33334H10.6666ZM15.794 12.1431C16.7182 11.552 17.3333 10.5147 17.3333 9.33334H15.9999C15.9999 10.041 15.6329 10.6634 15.0756 11.0198L15.794 12.1431Z" fill="white"/>
<path fill-rule="evenodd" clip-rule="evenodd" d="M14.0001 10.6667C14.7365 10.6667 15.3334 9.77123 15.3334 8.66666C15.3334 7.56209 14.7365 6.66666 14.0001 6.66666C13.2637 6.66666 12.6667 7.56209 12.6667 8.66666C12.6667 9.77123 13.2637 10.6667 14.0001 10.6667Z" fill="white" fill-opacity="0.5"/>
</g>
</svg>
