<svg width="28" height="20" viewBox="0 0 28 20" fill="none" xmlns="http://www.w3.org/2000/svg">
<rect width="28" height="20" rx="2" fill="white"/>
<mask id="mask0_1723_27097" style="mask-type:luminance" maskUnits="userSpaceOnUse" x="0" y="0" width="28" height="20">
<rect width="28" height="20" rx="2" fill="white"/>
</mask>
<g mask="url(#mask0_1723_27097)">
<rect width="28" height="20" fill="#0B36B2"/>
<g filter="url(#filter0_d_1723_27097)">
<path fill-rule="evenodd" clip-rule="evenodd" d="M22.6667 20V0H8.66675L22.6667 20Z" fill="#FFD045"/>
</g>
<path fill-rule="evenodd" clip-rule="evenodd" d="M17.3333 18.6667L16.3905 18.9428L16.6667 18L16.3905 17.0572L17.3333 17.3333L18.2761 17.0572L18 18L18.2761 18.9428L17.3333 18.6667Z" fill="white"/>
<path fill-rule="evenodd" clip-rule="evenodd" d="M14.6666 14.6667L13.7238 14.9428L13.9999 14L13.7238 13.0572L14.6666 13.3333L15.6094 13.0572L15.3333 14L15.6094 14.9428L14.6666 14.6667Z" fill="white"/>
<path fill-rule="evenodd" clip-rule="evenodd" d="M12.0001 10.6667L11.0573 10.9428L11.3334 10L11.0573 9.05719L12.0001 9.33333L12.9429 9.05719L12.6667 10L12.9429 10.9428L12.0001 10.6667Z" fill="white"/>
<path fill-rule="evenodd" clip-rule="evenodd" d="M9.33333 6.66666L8.39052 6.94281L8.66667 6L8.39052 5.05719L9.33333 5.33333L10.2761 5.05719L10 6L10.2761 6.94281L9.33333 6.66666Z" fill="white"/>
<path fill-rule="evenodd" clip-rule="evenodd" d="M6.66659 2.66666L5.72378 2.94281L5.99992 2L5.72378 1.05719L6.66659 1.33333L7.60939 1.05719L7.33325 2L7.60939 2.94281L6.66659 2.66666Z" fill="white"/>
</g>
<defs>
<filter id="filter0_d_1723_27097" x="8.66675" y="0" width="14" height="20" filterUnits="userSpaceOnUse" color-interpolation-filters="sRGB">
<feFlood flood-opacity="0" result="BackgroundImageFix"/>
<feColorMatrix in="SourceAlpha" type="matrix" values="0 0 0 0 0 0 0 0 0 0 0 0 0 0 0 0 0 0 127 0" result="hardAlpha"/>
<feOffset/>
<feColorMatrix type="matrix" values="0 0 0 0 0 0 0 0 0 0 0 0 0 0 0 0 0 0 0.06 0"/>
<feBlend mode="normal" in2="BackgroundImageFix" result="effect1_dropShadow_1723_27097"/>
<feBlend mode="normal" in="SourceGraphic" in2="effect1_dropShadow_1723_27097" result="shape"/>
</filter>
</defs>
</svg>
