<svg width="28" height="20" viewBox="0 0 28 20" fill="none" xmlns="http://www.w3.org/2000/svg">
<rect width="28" height="20" rx="2" fill="white"/>
<mask id="mask0_1723_27107" style="mask-type:luminance" maskUnits="userSpaceOnUse" x="0" y="0" width="28" height="20">
<rect width="28" height="20" rx="2" fill="white"/>
</mask>
<g mask="url(#mask0_1723_27107)">
<rect width="28" height="20" fill="#DC1F37"/>
<rect width="12" height="9.33333" fill="#042C90"/>
<path fill-rule="evenodd" clip-rule="evenodd" d="M17.3333 10C17.3333 8 17.3333 6.66666 17.3333 6.66666H19.9999H22.6666C22.6666 6.66666 22.6666 8 22.6666 10C22.6666 12 19.9999 13.3333 19.9999 13.3333C19.9999 13.3333 17.3333 12 17.3333 10Z" fill="white"/>
<mask id="mask1_1723_27107" style="mask-type:luminance" maskUnits="userSpaceOnUse" x="17" y="6" width="6" height="8">
<path fill-rule="evenodd" clip-rule="evenodd" d="M17.3333 10C17.3333 8 17.3333 6.66666 17.3333 6.66666H19.9999H22.6666C22.6666 6.66666 22.6666 8 22.6666 10C22.6666 12 19.9999 13.3333 19.9999 13.3333C19.9999 13.3333 17.3333 12 17.3333 10Z" fill="white"/>
</mask>
<g mask="url(#mask1_1723_27107)">
<path fill-rule="evenodd" clip-rule="evenodd" d="M19.9998 12C20.7362 12 21.3332 11.403 21.3332 10.6667C21.3332 9.93028 20.7362 9.33333 19.9998 9.33333C19.2635 9.33333 18.6665 9.93028 18.6665 10.6667C18.6665 11.403 19.2635 12 19.9998 12Z" fill="#65B5D2"/>
<path fill-rule="evenodd" clip-rule="evenodd" d="M20 9.33333C20.3682 9.33333 20.6667 9.03486 20.6667 8.66667C20.6667 8.29848 20.3682 8 20 8C19.6318 8 19.3333 8.29848 19.3333 8.66667C19.3333 9.03486 19.6318 9.33333 20 9.33333ZM18.6667 10.6667C19.0349 10.6667 19.3333 10.3682 19.3333 10C19.3333 9.63181 19.0349 9.33333 18.6667 9.33333C18.2985 9.33333 18 9.63181 18 10C18 10.3682 18.2985 10.6667 18.6667 10.6667ZM22 10C22 10.3682 21.7015 10.6667 21.3333 10.6667C20.9651 10.6667 20.6667 10.3682 20.6667 10C20.6667 9.63181 20.9651 9.33333 21.3333 9.33333C21.7015 9.33333 22 9.63181 22 10Z" fill="url(#paint0_linear_1723_27107)"/>
<rect x="17.3333" y="12" width="5.33333" height="1.33333" fill="#2F8F22"/>
</g>
<path d="M12.333 0.495117C12.333 0.710418 12.2289 0.912945 12.0537 1.03809L7.66699 4.1709V5.17969L11.7646 8.69238C12.1547 9.02696 11.9182 9.66674 11.4043 9.66699C11.2889 9.66699 11.176 9.63057 11.082 9.56348L6.55859 6.33301H5.42871L0.176758 9.61621L-0.333008 9.93457V8.49512L-0.193359 8.39551L4.33301 5.16211V4.15234L-0.216797 0.25293L-0.901367 -0.333008H0.773438L0.860352 -0.271484L5.43945 3H6.57129L11.8232 -0.282227L12.333 -0.601562V0.495117Z" fill="#DB1E36" stroke="white" stroke-width="0.666667"/>
<path fill-rule="evenodd" clip-rule="evenodd" d="M0 3.33333V6H4.66667V9.33333C4.66667 9.70152 4.96514 10 5.33333 10H6.66667C7.03486 10 7.33333 9.70152 7.33333 9.33333V6H12C12.3682 6 12.6667 5.70152 12.6667 5.33333V4C12.6667 3.63181 12.3682 3.33333 12 3.33333H7.33333V0H4.66667V3.33333H0Z" fill="white"/>
<path fill-rule="evenodd" clip-rule="evenodd" d="M0 4H5.33333V3.33333V0H6.66667V3.33333V4H12V5.33333H6.66667V6V9.33333H5.33333V6V5.33333H0V4Z" fill="url(#paint1_linear_1723_27107)"/>
</g>
<defs>
<linearGradient id="paint0_linear_1723_27107" x1="18" y1="8" x2="18" y2="10.6667" gradientUnits="userSpaceOnUse">
<stop stop-color="#E20B0C"/>
<stop offset="1" stop-color="#D40001"/>
</linearGradient>
<linearGradient id="paint1_linear_1723_27107" x1="0" y1="0" x2="0" y2="9.33333" gradientUnits="userSpaceOnUse">
<stop stop-color="#DB1E36"/>
<stop offset="1" stop-color="#D51931"/>
</linearGradient>
</defs>
</svg>
