<svg width="28" height="20" viewBox="0 0 28 20" fill="none" xmlns="http://www.w3.org/2000/svg">
<rect x="0.25" y="0.25" width="27.5" height="19.5" rx="1.75" fill="white" stroke="#F5F5F5" stroke-width="0.5"/>
<mask id="mask0_1723_27109" style="mask-type:luminance" maskUnits="userSpaceOnUse" x="0" y="0" width="28" height="20">
<rect x="0.25" y="0.25" width="27.5" height="19.5" rx="1.75" fill="white" stroke="white" stroke-width="0.5"/>
</mask>
<g mask="url(#mask0_1723_27109)">
<rect x="20" width="8" height="20" fill="#FF3131"/>
<path fill-rule="evenodd" clip-rule="evenodd" d="M0 20H8V0H0V20Z" fill="#FF3131"/>
<path fill-rule="evenodd" clip-rule="evenodd" d="M16.1117 9.22152C15.8785 9.45473 15.4845 9.24385 15.5492 8.92045L15.9999 6.66666L14.6666 7.33333L13.9999 5.33333L13.3333 7.33333L11.9999 6.66666L12.4507 8.92045C12.5154 9.24385 12.1213 9.45473 11.8881 9.22152L11.569 8.90236C11.4388 8.77219 11.2277 8.77219 11.0975 8.90236L10.6666 9.33333L9.33325 8.66666L9.99992 9.99999L9.56895 10.431C9.43878 10.5611 9.43878 10.7722 9.56895 10.9024L11.3333 12.6667H13.3333L13.6666 14.6667H14.3333L14.6666 12.6667H16.6666L18.4309 10.9024C18.5611 10.7722 18.5611 10.5611 18.4309 10.431L17.9999 9.99999L18.6666 8.66666L17.3333 9.33333L16.9023 8.90236C16.7721 8.77219 16.5611 8.77219 16.4309 8.90236L16.1117 9.22152Z" fill="#FF3131"/>
</g>
</svg>
