<svg width="28" height="20" viewBox="0 0 28 20" fill="none" xmlns="http://www.w3.org/2000/svg">
<rect width="28" height="20" rx="2" fill="white"/>
<mask id="mask0_1723_27113" style="mask-type:luminance" maskUnits="userSpaceOnUse" x="0" y="0" width="28" height="20">
<rect width="28" height="20" rx="2" fill="white"/>
</mask>
<g mask="url(#mask0_1723_27113)">
<rect width="28" height="20" fill="#F1361D"/>
<path fill-rule="evenodd" clip-rule="evenodd" d="M10.0728 3.10076L11.0412 3.26586L11.7675 3.92736L11.9326 2.95891L12.5941 2.23258L11.6257 2.06747L10.8994 1.40598L10.7342 2.37442L10.0728 3.10076ZM12.6668 6.48803L13.506 5.97728L14.4881 6L13.9774 5.16079L14.0001 4.17863L13.1609 4.68938L12.1787 4.66667L12.6895 5.50588L12.6668 6.48803ZM11.5284 11.9709L10.7075 12.5106L10.6959 11.5282L10.1562 10.7074L11.1385 10.6958L11.9594 10.1561L11.971 11.1384L12.5107 11.9593L11.5284 11.9709ZM12.2412 9.43144L13.2177 9.32321L14.0982 9.75887L13.99 8.78243L14.4256 7.9019L13.4492 8.01013L12.5687 7.57446L12.6769 8.5509L12.2412 9.43144Z" fill="#FFDC42"/>
<path fill-rule="evenodd" clip-rule="evenodd" d="M6.66675 8.22667L4.31561 9.90274L5.1831 7.14874L2.86252 5.4306L5.7498 5.40461L6.66675 2.66667L7.58369 5.40461L10.471 5.4306L8.1504 7.14874L9.01789 9.90274L6.66675 8.22667Z" fill="#FFDC42"/>
</g>
</svg>
