<svg width="28" height="20" viewBox="0 0 28 20" fill="none" xmlns="http://www.w3.org/2000/svg">
<rect width="28" height="20" rx="2" fill="white"/>
<mask id="mask0_1723_27287" style="mask-type:luminance" maskUnits="userSpaceOnUse" x="0" y="0" width="28" height="20">
<rect width="28" height="20" rx="2" fill="white"/>
</mask>
<g mask="url(#mask0_1723_27287)">
<rect width="28" height="20" fill="url(#paint0_linear_1723_27287)"/>
<path fill-rule="evenodd" clip-rule="evenodd" d="M13.4444 3.33329C13.3723 3.33329 13.3021 3.35669 13.2444 3.39996L10.7205 5.2929C10.6849 5.31956 10.6444 5.33884 10.6013 5.34962L8.03545 5.99108C8.01186 5.99698 7.98898 6.00545 7.96722 6.01632L5.43267 7.2836C5.36816 7.31586 5.31585 7.36816 5.28359 7.43267L4.08646 9.82694C4.03297 9.93393 4.0409 10.0614 4.10725 10.1609L5.2773 11.916C5.31381 11.9707 5.33329 12.0351 5.33329 12.1009V13.8619C5.33329 13.9503 5.3684 14.0351 5.43092 14.0976L6.49673 15.1634C6.59819 15.2649 6.75318 15.29 6.88151 15.2258L10.5962 13.3685C10.6425 13.3453 10.6936 13.3333 10.7453 13.3333H13.2126C13.2906 13.3333 13.3661 13.3606 13.426 13.4106L17.2406 16.5894C17.3005 16.6393 17.376 16.6666 17.454 16.6666H19.8216C19.933 16.6666 20.0371 16.6109 20.0989 16.5182L22.6106 12.7506C22.6471 12.6958 22.6666 12.6315 22.6666 12.5657V10.1009C22.6666 10.0351 22.6471 9.97074 22.6106 9.91598L20 5.99996L18.0971 2.82846C18.0368 2.72806 17.9283 2.66663 17.8112 2.66663H17.3927C17.1247 2.66663 16.9906 2.99056 17.18 3.18002C17.2715 3.27155 17.2942 3.41139 17.2363 3.52717L16.7587 4.48236C16.7023 4.59529 16.5869 4.66663 16.4606 4.66663H14.8726C14.7464 4.66663 14.631 4.59529 14.5745 4.48236L14.0921 3.51755C14.0356 3.40463 13.9202 3.33329 13.7939 3.33329H13.4444ZM19.3333 17.3333H18L18.4309 17.7643C18.5611 17.8944 18.7721 17.8944 18.9023 17.7643L19.3333 17.3333Z" fill="white"/>
</g>
<defs>
<linearGradient id="paint0_linear_1723_27287" x1="0" y1="0" x2="0" y2="20" gradientUnits="userSpaceOnUse">
<stop stop-color="#19BFBF"/>
<stop offset="1" stop-color="#10ACAC"/>
</linearGradient>
</defs>
</svg>
