<svg width="28" height="20" viewBox="0 0 28 20" fill="none" xmlns="http://www.w3.org/2000/svg">
<rect x="0.25" y="0.25" width="27.5" height="19.5" rx="1.75" fill="white" stroke="#F5F5F5" stroke-width="0.5"/>
<mask id="mask0_1723_27122" style="mask-type:luminance" maskUnits="userSpaceOnUse" x="0" y="0" width="28" height="20">
<rect x="0.25" y="0.25" width="27.5" height="19.5" rx="1.75" fill="white" stroke="white" stroke-width="0.5"/>
</mask>
<g mask="url(#mask0_1723_27122)">
<path fill-rule="evenodd" clip-rule="evenodd" d="M19.9999 3.33334C20.363 3.15179 20.7315 3.56924 20.5064 3.90702L20.0672 4.5658C20.0228 4.63239 19.9656 4.68953 19.8991 4.73392L18.0548 5.96339C18.0183 5.98774 17.9843 6.01564 17.9532 6.04668L17.8047 6.19527C17.5443 6.45562 17.5443 6.87773 17.8047 7.13808L18.1952 7.5286C18.4555 7.78895 18.4555 8.21106 18.1952 8.47141L17.673 8.99357C17.4701 9.19648 17.1601 9.24678 16.9035 9.11845L16.5962 8.96481C16.2669 8.80015 15.8664 8.93364 15.7018 9.26296L15.4567 9.75302C15.3777 9.91116 15.239 10.0314 15.0713 10.0873L13.4359 10.6325C13.3679 10.6551 13.2967 10.6667 13.2251 10.6667H12.4119C12.1594 10.6667 11.9286 10.8093 11.8157 11.0352L11.6314 11.4037C11.4667 11.733 11.0663 11.8665 10.737 11.7019L8.76335 10.7151C8.69926 10.683 8.64075 10.6408 8.59009 10.5902L7.52851 9.5286C7.40349 9.40358 7.33325 9.23401 7.33325 9.0572V8.47141C7.33325 8.21106 7.54431 8.00001 7.80466 8.00001C7.92968 8.00001 8.04958 7.95034 8.13799 7.86193L9.13799 6.86193C9.26301 6.73691 9.43258 6.66667 9.60939 6.66667H10.1861C10.473 6.66667 10.7278 6.48305 10.8185 6.21082L11.1471 5.22499C11.2535 4.90603 11.5807 4.71615 11.9103 4.78209L14.5196 5.30394C14.6164 5.3233 14.7163 5.32092 14.812 5.29698L17.2623 4.68442C17.3094 4.67262 17.3552 4.6557 17.3987 4.63394L18.6666 4.00001L19.9999 3.33334Z" fill="#E7832C"/>
<path fill-rule="evenodd" clip-rule="evenodd" d="M13.9999 16C14.3681 16 14.6666 15.7015 14.6666 15.3333C14.6666 14.9651 14.3681 14.6667 13.9999 14.6667C13.6317 14.6667 13.3333 14.9651 13.3333 15.3333C13.3333 15.7015 13.6317 16 13.9999 16Z" fill="#445128"/>
<path opacity="0.75" d="M16 14.6667C16 14.6667 18 14 18.6667 12.6667" stroke="#445128" stroke-width="1.33333" stroke-linecap="round"/>
<path opacity="0.75" d="M12 14.6667C12 14.6667 10 14 9.33333 12.6667" stroke="#445128" stroke-width="1.33333" stroke-linecap="round"/>
</g>
</svg>
