<svg width="28" height="20" viewBox="0 0 28 20" fill="none" xmlns="http://www.w3.org/2000/svg">
<rect x="0.25" y="0.25" width="27.5" height="19.5" rx="1.75" fill="white" stroke="#F5F5F5" stroke-width="0.5"/>
<mask id="mask0_1723_27131" style="mask-type:luminance" maskUnits="userSpaceOnUse" x="0" y="0" width="28" height="20">
<rect x="0.25" y="0.25" width="27.5" height="19.5" rx="1.75" fill="white" stroke="white" stroke-width="0.5"/>
</mask>
<g mask="url(#mask0_1723_27131)">
<path fill-rule="evenodd" clip-rule="evenodd" d="M0 6.66667H28V0H0V6.66667Z" fill="#E41D33"/>
<path fill-rule="evenodd" clip-rule="evenodd" d="M0 20H28V13.3333H0V20Z" fill="#262626"/>
<path d="M11.3337 8.33301H11.7937L12.3689 9.48242L12.6531 10.0508L12.9587 9.49414C12.9589 9.49377 12.9592 9.49219 12.9597 9.49121C12.9608 9.48925 12.9632 9.48656 12.9656 9.48242C12.9704 9.47383 12.9772 9.46026 12.9871 9.44336C13.0067 9.40956 13.0362 9.36077 13.073 9.30176C13.1472 9.18286 13.2517 9.02617 13.3718 8.87109C13.4934 8.71413 13.6233 8.56922 13.7488 8.4668C13.8824 8.35777 13.9657 8.33316 13.9998 8.33301C14.057 8.33301 14.1508 8.36466 14.281 8.46875C14.4066 8.56921 14.5338 8.71106 14.6501 8.86621C14.7651 9.01945 14.8617 9.17516 14.9304 9.29297C14.9646 9.35154 14.9916 9.4002 15.0095 9.43359C15.0184 9.45024 15.0257 9.46331 15.03 9.47168C15.032 9.47554 15.033 9.47865 15.0339 9.48047L15.0349 9.48242L15.3337 10.0791L15.6316 9.48242L16.2058 8.33301H16.6667C16.8508 8.33301 16.9998 8.4829 16.9998 8.66699V10.7539C16.9998 11.0201 16.7037 11.1789 16.4822 11.0312L15.5183 10.3896L15.4343 10.333H14.3337V11.333C14.3337 11.5171 14.1839 11.667 13.9998 11.667C13.8158 11.6668 13.6667 11.517 13.6667 11.333V10.333H12.5662L12.4822 10.3896L11.5183 11.0312C11.2968 11.1789 10.9998 11.0201 10.9998 10.7539V8.66699C10.9998 8.4829 11.1496 8.33301 11.3337 8.33301Z" fill="#F4B32E" fill-opacity="0.25" stroke="#C6A846" stroke-width="0.666667"/>
</g>
</svg>
