<svg width="28" height="20" viewBox="0 0 28 20" fill="none" xmlns="http://www.w3.org/2000/svg">
<rect width="28" height="20" rx="2" fill="white"/>
<mask id="mask0_1723_27132" style="mask-type:luminance" maskUnits="userSpaceOnUse" x="0" y="0" width="28" height="20">
<rect width="28" height="20" rx="2" fill="white"/>
</mask>
<g mask="url(#mask0_1723_27132)">
<path fill-rule="evenodd" clip-rule="evenodd" d="M28 0V10H0V0H28Z" fill="#29C53F"/>
<path fill-rule="evenodd" clip-rule="evenodd" d="M28 10V20.6667H0V10H28Z" fill="#579DED"/>
<path fill-rule="evenodd" clip-rule="evenodd" d="M0 20L28 10L0 0V20Z" fill="#F42D56"/>
<path d="M8.66699 6.00034C10.876 6.00051 12.667 7.79131 12.667 10.0003C12.6668 12.2092 10.8759 14.0002 8.66699 14.0003C6.45796 14.0003 4.66717 12.2093 4.66699 10.0003C4.66699 7.7912 6.45785 6.00034 8.66699 6.00034Z" stroke="#FFC63C" stroke-width="1.33333"/>
<path fill-rule="evenodd" clip-rule="evenodd" d="M7.99992 9.33333C8.36811 9.33333 8.66659 9.03486 8.66659 8.66667C8.66659 8.29848 8.36811 8 7.99992 8C7.63173 8 7.33325 8.29848 7.33325 8.66667C7.33325 9.03486 7.63173 9.33333 7.99992 9.33333Z" fill="#FFC63C"/>
<path fill-rule="evenodd" clip-rule="evenodd" d="M9.33341 9.99999C9.7016 9.99999 10.0001 9.70151 10.0001 9.33332C10.0001 8.96513 9.7016 8.66666 9.33341 8.66666C8.96522 8.66666 8.66675 8.96513 8.66675 9.33332C8.66675 9.70151 8.96522 9.99999 9.33341 9.99999Z" fill="#FFC63C"/>
<path fill-rule="evenodd" clip-rule="evenodd" d="M8.66667 8.66668C9.03486 8.66668 9.33333 8.3682 9.33333 8.00001C9.33333 7.63182 9.03486 7.33334 8.66667 7.33334C8.29848 7.33334 8 7.63182 8 8.00001C8 8.3682 8.29848 8.66668 8.66667 8.66668Z" fill="#FFC63C"/>
<path fill-rule="evenodd" clip-rule="evenodd" d="M7.99992 10.6667C8.36811 10.6667 8.66659 10.3682 8.66659 10C8.66659 9.63182 8.36811 9.33334 7.99992 9.33334C7.63173 9.33334 7.33325 9.63182 7.33325 10C7.33325 10.3682 7.63173 10.6667 7.99992 10.6667Z" fill="#FFC63C"/>
<path fill-rule="evenodd" clip-rule="evenodd" d="M9.33341 11.3333C9.7016 11.3333 10.0001 11.0349 10.0001 10.6667C10.0001 10.2985 9.7016 10 9.33341 10C8.96522 10 8.66675 10.2985 8.66675 10.6667C8.66675 11.0349 8.96522 11.3333 9.33341 11.3333Z" fill="#FFC63C"/>
<path fill-rule="evenodd" clip-rule="evenodd" d="M7.99992 12C8.36811 12 8.66659 11.7015 8.66659 11.3333C8.66659 10.9651 8.36811 10.6667 7.99992 10.6667C7.63173 10.6667 7.33325 10.9651 7.33325 11.3333C7.33325 11.7015 7.63173 12 7.99992 12Z" fill="#FFC63C"/>
<path fill-rule="evenodd" clip-rule="evenodd" d="M9.33341 12.6667C9.7016 12.6667 10.0001 12.3682 10.0001 12C10.0001 11.6318 9.7016 11.3333 9.33341 11.3333C8.96522 11.3333 8.66675 11.6318 8.66675 12C8.66675 12.3682 8.96522 12.6667 9.33341 12.6667Z" fill="#FFC63C"/>
</g>
</svg>
