<svg width="28" height="20" viewBox="0 0 28 20" fill="none" xmlns="http://www.w3.org/2000/svg">
<rect width="28" height="20" rx="2" fill="white"/>
<mask id="mask0_1723_27318" style="mask-type:luminance" maskUnits="userSpaceOnUse" x="0" y="0" width="28" height="20">
<rect width="28" height="20" rx="2" fill="white"/>
</mask>
<g mask="url(#mask0_1723_27318)">
<path fill-rule="evenodd" clip-rule="evenodd" d="M0 5.33333H28V0H0V5.33333Z" fill="#DD172C"/>
<path fill-rule="evenodd" clip-rule="evenodd" d="M0 20H28V14.6667H0V20Z" fill="#DD172C"/>
<path fill-rule="evenodd" clip-rule="evenodd" d="M0 14.6666H28V5.33331H0V14.6666Z" fill="#FFD133"/>
<path fill-rule="evenodd" clip-rule="evenodd" d="M7.33325 9.33333H8.66659V10H7.33325V9.33333Z" fill="#FFEDB1"/>
<path d="M6.39136 8.99969H8.27515C8.47014 8.99969 8.62432 9.1667 8.60815 9.36102L8.43628 11.4167C8.39295 11.9347 7.96005 12.3335 7.44019 12.3337H7.22729C6.7073 12.3337 6.27354 11.9348 6.23022 11.4167L6.05933 9.36102C6.04313 9.16668 6.19634 8.99969 6.39136 8.99969Z" stroke="#A41517" stroke-width="0.666667"/>
<path fill-rule="evenodd" clip-rule="evenodd" d="M6 10H8.66667V10.6667H8L7.33333 12L6.66667 10.6667H6V10Z" fill="#A41517"/>
<rect x="4" y="8" width="1.33333" height="4.66667" rx="0.666667" fill="#A41517"/>
<rect x="9.33325" y="8" width="1.33333" height="4.66667" rx="0.666667" fill="#A41517"/>
<path d="M6 7.73335C6 7.14425 6.47756 6.66669 7.06667 6.66669H7.6C8.1891 6.66669 8.66667 7.14425 8.66667 7.73335C8.66667 7.88063 8.54728 8.00002 8.4 8.00002H6.26667C6.11939 8.00002 6 7.88063 6 7.73335Z" fill="#A41517"/>
</g>
</svg>
