<svg width="28" height="20" viewBox="0 0 28 20" fill="none" xmlns="http://www.w3.org/2000/svg">
<rect x="0.25" y="0.25" width="27.5" height="19.5" rx="1.75" fill="white" stroke="#F5F5F5" stroke-width="0.5"/>
<mask id="mask0_1723_27150" style="mask-type:luminance" maskUnits="userSpaceOnUse" x="0" y="0" width="28" height="20">
<rect x="0.25" y="0.25" width="27.5" height="19.5" rx="1.75" fill="white" stroke="white" stroke-width="0.5"/>
</mask>
<g mask="url(#mask0_1723_27150)">
<rect x="18.6667" width="9.33333" height="20" fill="#63AEE3"/>
<path fill-rule="evenodd" clip-rule="evenodd" d="M0 20H9.33333V0H0V20Z" fill="#63AEE3"/>
<path d="M11.9999 9.33334C11.9999 8.96515 11.7014 8.66668 11.3333 8.66668C10.9651 8.66668 10.6666 8.96515 10.6666 9.33334H11.9999ZM12.3289 12.2181C12.6474 12.4029 13.0554 12.2945 13.2402 11.9761C13.4249 11.6576 13.3166 11.2496 12.9981 11.0649L12.3289 12.2181ZM15.0756 11.0198C14.7654 11.2182 14.6748 11.6305 14.8731 11.9407C15.0715 12.2508 15.4838 12.3415 15.794 12.1431L15.0756 11.0198ZM17.3333 9.33334C17.3333 8.96515 17.0348 8.66668 16.6666 8.66668C16.2984 8.66668 15.9999 8.96515 15.9999 9.33334H17.3333ZM10.6666 9.33334C10.6666 10.5664 11.3365 11.6422 12.3289 12.2181L12.9981 11.0649C12.3998 10.7177 11.9999 10.0718 11.9999 9.33334H10.6666ZM15.794 12.1431C16.7182 11.552 17.3333 10.5147 17.3333 9.33334H15.9999C15.9999 10.041 15.6329 10.6634 15.0756 11.0198L15.794 12.1431Z" fill="#628A40"/>
<path fill-rule="evenodd" clip-rule="evenodd" d="M14.0001 10.6667C14.7365 10.6667 15.3334 10.0697 15.3334 9.33333C15.3334 8.59695 14.7365 8 14.0001 8C13.2637 8 12.6667 8.59695 12.6667 9.33333C12.6667 10.0697 13.2637 10.6667 14.0001 10.6667Z" fill="#DCC26D"/>
</g>
</svg>
