<svg width="28" height="20" viewBox="0 0 28 20" fill="none" xmlns="http://www.w3.org/2000/svg">
<rect x="0.25" y="0.25" width="27.5" height="19.5" rx="1.75" fill="white" stroke="#F5F5F5" stroke-width="0.5"/>
<mask id="mask0_1723_27165" style="mask-type:luminance" maskUnits="userSpaceOnUse" x="0" y="0" width="28" height="20">
<rect x="0.25" y="0.25" width="27.5" height="19.5" rx="1.75" fill="white" stroke="white" stroke-width="0.5"/>
</mask>
<g mask="url(#mask0_1723_27165)">
<path fill-rule="evenodd" clip-rule="evenodd" d="M0 6.66667H28V0H0V6.66667Z" fill="#38BB56"/>
<path fill-rule="evenodd" clip-rule="evenodd" d="M0 20H28V13.3333H0V20Z" fill="#DE1B27"/>
<path fill-rule="evenodd" clip-rule="evenodd" d="M1.66659 5.33334C1.48249 5.33334 1.33325 5.48258 1.33325 5.66668V6.33334C1.33325 6.51744 1.48249 6.66668 1.66659 6.66668H2.33325C2.51735 6.66668 2.66659 6.51744 2.66659 6.33334V5.66668C2.66659 5.48258 2.51735 5.33334 2.33325 5.33334H1.66659ZM4.33325 5.33334C4.14916 5.33334 3.99992 5.48258 3.99992 5.66668V6.33334C3.99992 6.51744 4.14916 6.66668 4.33325 6.66668H4.99992C5.18401 6.66668 5.33325 6.51744 5.33325 6.33334V5.66668C5.33325 5.48258 5.18401 5.33334 4.99992 5.33334H4.33325ZM6.66659 5.66668C6.66659 5.48258 6.81582 5.33334 6.99992 5.33334H7.66658C7.85068 5.33334 7.99992 5.48258 7.99992 5.66668V6.33334C7.99992 6.51744 7.85068 6.66668 7.66659 6.66668H6.99992C6.81582 6.66668 6.66659 6.51744 6.66659 6.33334V5.66668ZM9.66658 5.33334C9.48249 5.33334 9.33325 5.48258 9.33325 5.66668V6.33334C9.33325 6.51744 9.48249 6.66668 9.66659 6.66668H10.3333C10.5173 6.66668 10.6666 6.51744 10.6666 6.33334V5.66668C10.6666 5.48258 10.5173 5.33334 10.3333 5.33334H9.66658ZM11.9999 5.66668C11.9999 5.48258 12.1492 5.33334 12.3333 5.33334H12.9999C13.184 5.33334 13.3333 5.48258 13.3333 5.66668V6.33334C13.3333 6.51744 13.184 6.66668 12.9999 6.66668H12.3333C12.1492 6.66668 11.9999 6.51744 11.9999 6.33334V5.66668ZM14.9999 5.33334C14.8158 5.33334 14.6666 5.48258 14.6666 5.66668V6.33334C14.6666 6.51744 14.8158 6.66668 14.9999 6.66668H15.6666C15.8507 6.66668 15.9999 6.51744 15.9999 6.33334V5.66668C15.9999 5.48258 15.8507 5.33334 15.6666 5.33334H14.9999ZM17.3333 5.66668C17.3333 5.48258 17.4825 5.33334 17.6666 5.33334H18.3333C18.5173 5.33334 18.6666 5.48258 18.6666 5.66668V6.33334C18.6666 6.51744 18.5173 6.66668 18.3333 6.66668H17.6666C17.4825 6.66668 17.3333 6.51744 17.3333 6.33334V5.66668ZM20.3333 5.33334C20.1492 5.33334 19.9999 5.48258 19.9999 5.66668V6.33334C19.9999 6.51744 20.1492 6.66668 20.3333 6.66668H20.9999C21.184 6.66668 21.3333 6.51744 21.3333 6.33334V5.66668C21.3333 5.48258 21.184 5.33334 20.9999 5.33334H20.3333ZM22.6666 5.66668C22.6666 5.48258 22.8158 5.33334 22.9999 5.33334H23.6666C23.8507 5.33334 23.9999 5.48258 23.9999 5.66668V6.33334C23.9999 6.51744 23.8507 6.66668 23.6666 6.66668H22.9999C22.8158 6.66668 22.6666 6.51744 22.6666 6.33334V5.66668ZM25.6666 5.33334C25.4825 5.33334 25.3333 5.48258 25.3333 5.66668V6.33334C25.3333 6.51744 25.4825 6.66668 25.6666 6.66668H26.3333C26.5173 6.66668 26.6666 6.51744 26.6666 6.33334V5.66668C26.6666 5.48258 26.5173 5.33334 26.3333 5.33334H25.6666ZM1.33325 13.6667C1.33325 13.4826 1.48249 13.3333 1.66659 13.3333H2.33325C2.51735 13.3333 2.66659 13.4826 2.66659 13.6667V14.3333C2.66659 14.5174 2.51735 14.6667 2.33325 14.6667H1.66659C1.48249 14.6667 1.33325 14.5174 1.33325 14.3333V13.6667ZM4.33325 13.3333C4.14916 13.3333 3.99992 13.4826 3.99992 13.6667V14.3333C3.99992 14.5174 4.14916 14.6667 4.33325 14.6667H4.99992C5.18401 14.6667 5.33325 14.5174 5.33325 14.3333V13.6667C5.33325 13.4826 5.18401 13.3333 4.99992 13.3333H4.33325ZM6.66659 13.6667C6.66659 13.4826 6.81582 13.3333 6.99992 13.3333H7.66658C7.85068 13.3333 7.99992 13.4826 7.99992 13.6667V14.3333C7.99992 14.5174 7.85068 14.6667 7.66659 14.6667H6.99992C6.81582 14.6667 6.66659 14.5174 6.66659 14.3333V13.6667ZM9.66658 13.3333C9.48249 13.3333 9.33325 13.4826 9.33325 13.6667V14.3333C9.33325 14.5174 9.48249 14.6667 9.66659 14.6667H10.3333C10.5173 14.6667 10.6666 14.5174 10.6666 14.3333V13.6667C10.6666 13.4826 10.5173 13.3333 10.3333 13.3333H9.66658ZM11.9999 13.6667C11.9999 13.4826 12.1492 13.3333 12.3333 13.3333H12.9999C13.184 13.3333 13.3333 13.4826 13.3333 13.6667V14.3333C13.3333 14.5174 13.184 14.6667 12.9999 14.6667H12.3333C12.1492 14.6667 11.9999 14.5174 11.9999 14.3333V13.6667ZM14.9999 13.3333C14.8158 13.3333 14.6666 13.4826 14.6666 13.6667V14.3333C14.6666 14.5174 14.8158 14.6667 14.9999 14.6667H15.6666C15.8507 14.6667 15.9999 14.5174 15.9999 14.3333V13.6667C15.9999 13.4826 15.8507 13.3333 15.6666 13.3333H14.9999ZM17.3333 13.6667C17.3333 13.4826 17.4825 13.3333 17.6666 13.3333H18.3333C18.5173 13.3333 18.6666 13.4826 18.6666 13.6667V14.3333C18.6666 14.5174 18.5173 14.6667 18.3333 14.6667H17.6666C17.4825 14.6667 17.3333 14.5174 17.3333 14.3333V13.6667ZM20.3333 13.3333C20.1492 13.3333 19.9999 13.4826 19.9999 13.6667V14.3333C19.9999 14.5174 20.1492 14.6667 20.3333 14.6667H20.9999C21.184 14.6667 21.3333 14.5174 21.3333 14.3333V13.6667C21.3333 13.4826 21.184 13.3333 20.9999 13.3333H20.3333ZM22.6666 13.6667C22.6666 13.4826 22.8158 13.3333 22.9999 13.3333H23.6666C23.8507 13.3333 23.9999 13.4826 23.9999 13.6667V14.3333C23.9999 14.5174 23.8507 14.6667 23.6666 14.6667H22.9999C22.8158 14.6667 22.6666 14.5174 22.6666 14.3333V13.6667ZM25.6666 13.3333C25.4825 13.3333 25.3333 13.4826 25.3333 13.6667V14.3333C25.3333 14.5174 25.4825 14.6667 25.6666 14.6667H26.3333C26.5173 14.6667 26.6666 14.5174 26.6666 14.3333V13.6667C26.6666 13.4826 26.5173 13.3333 26.3333 13.3333H25.6666Z" fill="white" fill-opacity="0.5"/>
<mask id="path-6-inside-1_1723_27165" fill="white">
<path fill-rule="evenodd" clip-rule="evenodd" d="M12.6535 8.52115C12.252 8.88694 12 9.41405 12 10C12 11.1046 12.8954 12 14 12C15.1046 12 16 11.1046 16 10C16 9.42511 15.7574 8.90686 15.3691 8.54203"/>
</mask>
<path d="M12.2045 8.02833C11.6702 8.51513 11.3333 9.2187 11.3333 10H12.6667C12.6667 9.60939 12.8338 9.25875 13.1025 9.01397L12.2045 8.02833ZM11.3333 10C11.3333 11.4728 12.5272 12.6667 14 12.6667V11.3333C13.2636 11.3333 12.6667 10.7364 12.6667 10H11.3333ZM14 12.6667C15.4728 12.6667 16.6667 11.4728 16.6667 10H15.3333C15.3333 10.7364 14.7364 11.3333 14 11.3333V12.6667ZM16.6667 10C16.6667 9.23352 16.3424 8.5417 15.8255 8.05613L14.9126 9.02793C15.1724 9.27202 15.3333 9.61669 15.3333 10H16.6667Z" fill="#D80915" mask="url(#path-6-inside-1_1723_27165)"/>
<rect x="13.3333" y="9.33334" width="1.33333" height="2.66667" rx="0.666667" fill="#D80915"/>
</g>
</svg>
