<svg width="28" height="20" viewBox="0 0 28 20" fill="none" xmlns="http://www.w3.org/2000/svg">
<rect x="0.25" y="0.25" width="27.5" height="19.5" rx="1.75" fill="white" stroke="#F5F5F5" stroke-width="0.5"/>
<mask id="mask0_1723_27294" style="mask-type:luminance" maskUnits="userSpaceOnUse" x="0" y="0" width="28" height="20">
<rect x="0.25" y="0.25" width="27.5" height="19.5" rx="1.75" fill="white" stroke="white" stroke-width="0.5"/>
</mask>
<g mask="url(#mask0_1723_27294)">
<rect x="-6.31152" y="-2.58282" width="2.66667" height="49.3333" transform="rotate(-55 -6.31152 -2.58282)" fill="#E3243B"/>
<rect width="2.66667" height="49.3333" transform="matrix(-0.573576 -0.819152 -0.819152 0.573576 35.6296 -2.58282)" fill="#E3243B"/>
<path fill-rule="evenodd" clip-rule="evenodd" d="M15.7409 2.66668H13.5926L13.6799 2.61548L12.6931 2.04564L13.969 2.1881L13.7896 1.33334L14.6667 2.04564L15.5439 1.33334L15.3645 2.1881L16.6404 2.04564L15.6535 2.61548L15.7409 2.66668Z" fill="#FAEF32"/>
<path fill-rule="evenodd" clip-rule="evenodd" d="M12.6667 5.16669C12.6667 4.79588 12.6667 4.3823 12.6667 3.99996C12.6667 3.26358 13.2637 2.66669 14.0001 2.66669H15.3334C16.0698 2.66669 16.6667 3.26358 16.6667 3.99996C16.6667 4.3823 16.6667 4.79588 16.6667 5.16669C16.6667 6.9524 14.6667 7.66669 14.6667 7.66669C14.6667 7.66669 12.6667 6.9524 12.6667 5.16669Z" fill="#E3243B"/>
<mask id="mask1_1723_27294" style="mask-type:luminance" maskUnits="userSpaceOnUse" x="12" y="2" width="5" height="6">
<path fill-rule="evenodd" clip-rule="evenodd" d="M12.6667 5.16669C12.6667 4.79588 12.6667 4.3823 12.6667 3.99996C12.6667 3.26358 13.2637 2.66669 14.0001 2.66669H15.3334C16.0698 2.66669 16.6667 3.26358 16.6667 3.99996C16.6667 4.3823 16.6667 4.79588 16.6667 5.16669C16.6667 6.9524 14.6667 7.66669 14.6667 7.66669C14.6667 7.66669 12.6667 6.9524 12.6667 5.16669Z" fill="white"/>
</mask>
<g mask="url(#mask1_1723_27294)">
<rect x="14.3335" y="6.66669" width="0.666667" height="0.666667" rx="0.333333" fill="#FAEF32"/>
<rect x="13.3335" y="5.33334" width="2.66667" height="0.666667" rx="0.333333" fill="#FAEF32"/>
<rect x="13.3335" y="4" width="2.66667" height="0.666667" rx="0.333333" fill="#FAEF32"/>
</g>
</g>
</svg>
