<svg width="28" height="20" viewBox="0 0 28 20" fill="none" xmlns="http://www.w3.org/2000/svg">
<rect width="28" height="20" rx="2" fill="white"/>
<mask id="mask0_1723_27177" style="mask-type:luminance" maskUnits="userSpaceOnUse" x="0" y="0" width="28" height="20">
<rect width="28" height="20" rx="2" fill="white"/>
</mask>
<g mask="url(#mask0_1723_27177)">
<rect width="28" height="20" fill="#F22A46"/>
<path fill-rule="evenodd" clip-rule="evenodd" d="M14.0001 13.3334C15.841 13.3334 17.3334 11.841 17.3334 10C17.3334 8.15907 15.841 6.66669 14.0001 6.66669C12.1591 6.66669 10.6667 8.15907 10.6667 10C10.6667 11.841 12.1591 13.3334 14.0001 13.3334Z" fill="#FFF04D"/>
<path fill-rule="evenodd" clip-rule="evenodd" d="M12.3683 17.1495L14.0001 14.7136L15.6319 17.1495L16.0452 14.2468L18.5723 15.7334L17.6853 12.9389L20.6072 13.1818L18.5955 11.0489L21.3334 10L18.5955 8.95112L20.6072 6.81818L17.6853 7.06111L18.5723 4.26657L16.0452 5.75318L15.6319 2.85052L14.0001 5.28638L12.3683 2.85052L11.9549 5.75318L9.42782 4.26657L10.3148 7.06111L7.39298 6.81818L9.40465 8.95112L6.66675 10L9.40465 11.0489L7.39298 13.1818L10.3148 12.9389L9.42782 15.7334L11.9549 14.2468L12.3683 17.1495ZM18.6667 10C18.6667 12.5773 16.5774 14.6667 14.0001 14.6667C11.4228 14.6667 9.33341 12.5773 9.33341 10C9.33341 7.42267 11.4228 5.33333 14.0001 5.33333C16.5774 5.33333 18.6667 7.42267 18.6667 10Z" fill="#FFF04D"/>
</g>
</svg>
