<svg width="28" height="20" viewBox="0 0 28 20" fill="none" xmlns="http://www.w3.org/2000/svg">
<rect width="28" height="20" rx="2" fill="white"/>
<mask id="mask0_1723_27180" style="mask-type:luminance" maskUnits="userSpaceOnUse" x="0" y="0" width="28" height="20">
<rect width="28" height="20" rx="2" fill="white"/>
</mask>
<g mask="url(#mask0_1723_27180)">
<path fill-rule="evenodd" clip-rule="evenodd" d="M0 4H28V0H0V4Z" fill="#1461B6"/>
<path fill-rule="evenodd" clip-rule="evenodd" d="M0 20H28V16H0V20Z" fill="#1461B6"/>
<path fill-rule="evenodd" clip-rule="evenodd" d="M0 16H28V4H0V16Z" fill="white"/>
<path fill-rule="evenodd" clip-rule="evenodd" d="M0 14.6666H28V5.33331H0V14.6666Z" fill="#F53846"/>
<path fill-rule="evenodd" clip-rule="evenodd" d="M13.3334 10C13.3334 11.841 11.841 13.3334 10.0001 13.3334C8.15913 13.3334 6.66675 11.841 6.66675 10C6.66675 8.15907 8.15913 6.66669 10.0001 6.66669L9.21387 8.9179L6.82989 8.96996L8.72797 10.4134L8.0408 12.6967L10.0001 11.3376L11.9594 12.6967L11.2722 10.4134L13.1703 8.96996L10.7863 8.9179L10.0001 6.66669C11.841 6.66669 13.3334 8.15907 13.3334 10Z" fill="white"/>
</g>
</svg>
