<svg width="28" height="20" viewBox="0 0 28 20" fill="none" xmlns="http://www.w3.org/2000/svg">
<rect width="28" height="20" rx="2" fill="white"/>
<mask id="mask0_1723_27194" style="mask-type:luminance" maskUnits="userSpaceOnUse" x="0" y="0" width="28" height="20">
<rect width="28" height="20" rx="2" fill="white"/>
</mask>
<g mask="url(#mask0_1723_27194)">
<path fill-rule="evenodd" clip-rule="evenodd" d="M0 20H28V0H0V20Z" fill="#079D7B"/>
<path fill-rule="evenodd" clip-rule="evenodd" d="M15.8851 8.66671C15.8851 8.95857 15.8639 9.24167 15.8241 9.51145C15.9263 9.48001 16.0305 9.45003 16.1364 9.42166C17.9146 8.94519 19.5017 9.1024 19.6814 9.7728C19.8437 10.3787 18.8009 11.1964 17.286 11.6999C17.0184 10.9062 15.6491 10.6667 14.0001 10.6667C12.3492 10.6667 10.9787 10.9067 10.7132 11.7025C9.2189 11.198 8.19476 10.3889 8.35574 9.78812C8.53538 9.11771 10.1225 8.9605 11.9008 9.43697C11.9941 9.46199 12.0862 9.48826 12.1767 9.51567C12.1365 9.24462 12.115 8.96009 12.115 8.66671C12.115 6.82576 12.959 5.33337 14.0001 5.33337C15.0411 5.33337 15.8851 6.82576 15.8851 8.66671ZM10.6667 12L11.8332 12C11.6485 11.9638 11.4599 11.9204 11.2692 11.8698C11.4837 11.8761 11.7483 11.8945 12.051 11.9154C12.5992 11.9534 13.2724 12 14.0001 12C14.7278 12 15.401 11.9534 15.9491 11.9154C16.2405 11.8953 16.4965 11.8775 16.7065 11.8705C16.5091 11.9215 16.3143 11.9646 16.1237 12L17.3334 12L19.3334 12C19.1753 12.4747 18.9624 12.922 18.7029 13.3334H9.29724C9.03772 12.922 8.82488 12.4747 8.66674 12L10.6667 12ZM14.0001 16C15.3468 16 16.5836 15.5006 17.5548 14.6667H10.4453C11.4166 15.5006 12.6533 16 14.0001 16Z" fill="white"/>
<path fill-rule="evenodd" clip-rule="evenodd" d="M14 4.00002C14.3682 4.00002 14.6667 3.70154 14.6667 3.33335C14.6667 2.96516 14.3682 2.66669 14 2.66669C13.6318 2.66669 13.3333 2.96516 13.3333 3.33335C13.3333 3.70154 13.6318 4.00002 14 4.00002ZM8.66667 7.33335C9.03486 7.33335 9.33333 7.03488 9.33333 6.66669C9.33333 6.2985 9.03486 6.00002 8.66667 6.00002C8.29848 6.00002 8 6.2985 8 6.66669C8 7.03488 8.29848 7.33335 8.66667 7.33335ZM20 6.66669C20 7.03488 19.7015 7.33335 19.3333 7.33335C18.9651 7.33335 18.6667 7.03488 18.6667 6.66669C18.6667 6.2985 18.9651 6.00002 19.3333 6.00002C19.7015 6.00002 20 6.2985 20 6.66669ZM17.3333 5.33335C17.7015 5.33335 18 5.03488 18 4.66669C18 4.2985 17.7015 4.00002 17.3333 4.00002C16.9651 4.00002 16.6667 4.2985 16.6667 4.66669C16.6667 5.03488 16.9651 5.33335 17.3333 5.33335ZM11.3333 4.66669C11.3333 5.03488 11.0349 5.33335 10.6667 5.33335C10.2985 5.33335 10 5.03488 10 4.66669C10 4.2985 10.2985 4.00002 10.6667 4.00002C11.0349 4.00002 11.3333 4.2985 11.3333 4.66669Z" fill="#FCD117"/>
</g>
</svg>
