<svg width="28" height="20" viewBox="0 0 28 20" fill="none" xmlns="http://www.w3.org/2000/svg">
<rect x="0.25" y="0.25" width="27.5" height="19.5" rx="1.75" fill="white" stroke="#F5F5F5" stroke-width="0.5"/>
<mask id="mask0_1723_27205" style="mask-type:luminance" maskUnits="userSpaceOnUse" x="0" y="0" width="28" height="20">
<rect x="0.25" y="0.25" width="27.5" height="19.5" rx="1.75" fill="white" stroke="white" stroke-width="0.5"/>
</mask>
<g mask="url(#mask0_1723_27205)">
<path fill-rule="evenodd" clip-rule="evenodd" d="M14.6667 20H28.0001V0H14.6667V20Z" fill="#DE233C"/>
<mask id="path-4-outside-1_1723_27205" maskUnits="userSpaceOnUse" x="1.66675" y="1.66669" width="6" height="6" fill="black">
<rect fill="white" x="1.66675" y="1.66669" width="6" height="6"/>
<path fill-rule="evenodd" clip-rule="evenodd" d="M5.33341 2.66669H4.00008V4.00002H2.66675V5.33335H4.00008V6.66669H5.33341V5.33335H6.66675V4.00002H5.33341V2.66669Z"/>
</mask>
<path fill-rule="evenodd" clip-rule="evenodd" d="M5.33341 2.66669H4.00008V4.00002H2.66675V5.33335H4.00008V6.66669H5.33341V5.33335H6.66675V4.00002H5.33341V2.66669Z" fill="#CCCCCD"/>
<path d="M4.00008 2.66669V2.00002H3.33341V2.66669H4.00008ZM5.33341 2.66669H6.00008V2.00002H5.33341V2.66669ZM4.00008 4.00002V4.66669H4.66675V4.00002H4.00008ZM2.66675 4.00002V3.33335H2.00008V4.00002H2.66675ZM2.66675 5.33335H2.00008V6.00002H2.66675V5.33335ZM4.00008 5.33335H4.66675V4.66669H4.00008V5.33335ZM4.00008 6.66669H3.33341V7.33335H4.00008V6.66669ZM5.33341 6.66669V7.33335H6.00008V6.66669H5.33341ZM5.33341 5.33335V4.66669H4.66675V5.33335H5.33341ZM6.66675 5.33335V6.00002H7.33341V5.33335H6.66675ZM6.66675 4.00002H7.33341V3.33335H6.66675V4.00002ZM5.33341 4.00002H4.66675V4.66669H5.33341V4.00002ZM4.00008 3.33335H5.33341V2.00002H4.00008V3.33335ZM4.66675 4.00002V2.66669H3.33341V4.00002H4.66675ZM2.66675 4.66669H4.00008V3.33335H2.66675V4.66669ZM3.33341 5.33335V4.00002H2.00008V5.33335H3.33341ZM4.00008 4.66669H2.66675V6.00002H4.00008V4.66669ZM4.66675 6.66669V5.33335H3.33341V6.66669H4.66675ZM5.33341 6.00002H4.00008V7.33335H5.33341V6.00002ZM4.66675 5.33335V6.66669H6.00008V5.33335H4.66675ZM6.66675 4.66669H5.33341V6.00002H6.66675V4.66669ZM6.00008 4.00002V5.33335H7.33341V4.00002H6.00008ZM5.33341 4.66669H6.66675V3.33335H5.33341V4.66669ZM4.66675 2.66669V4.00002H6.00008V2.66669H4.66675Z" fill="#7B716A" fill-opacity="0.66" mask="url(#path-4-outside-1_1723_27205)"/>
<path fill-rule="evenodd" clip-rule="evenodd" d="M4.66667 5.33333C5.03486 5.33333 5.33333 5.03486 5.33333 4.66667C5.33333 4.29848 5.03486 4 4.66667 4C4.29848 4 4 4.29848 4 4.66667C4 5.03486 4.29848 5.33333 4.66667 5.33333Z" fill="#7B716A"/>
</g>
</svg>
