<svg width="28" height="20" viewBox="0 0 28 20" fill="none" xmlns="http://www.w3.org/2000/svg">
<rect x="0.25" y="0.25" width="27.5" height="19.5" rx="1.75" fill="white" stroke="#F5F5F5" stroke-width="0.5"/>
<mask id="mask0_1723_27201" style="mask-type:luminance" maskUnits="userSpaceOnUse" x="0" y="0" width="28" height="20">
<rect x="0.25" y="0.25" width="27.5" height="19.5" rx="1.75" fill="white" stroke="white" stroke-width="0.5"/>
</mask>
<g mask="url(#mask0_1723_27201)">
<rect x="18.6667" width="9.33333" height="20" fill="#E3283E"/>
<path fill-rule="evenodd" clip-rule="evenodd" d="M0 20H9.33333V0H0V20Z" fill="#128A60"/>
<path d="M11.9999 9.33331C11.9999 8.96512 11.7014 8.66665 11.3333 8.66665C10.9651 8.66665 10.6666 8.96512 10.6666 9.33331H11.9999ZM12.3289 12.2181C12.6474 12.4029 13.0554 12.2945 13.2402 11.976C13.4249 11.6576 13.3166 11.2496 12.9981 11.0648L12.3289 12.2181ZM15.0756 11.0198C14.7654 11.2182 14.6748 11.6305 14.8731 11.9406C15.0715 12.2508 15.4838 12.3414 15.794 12.1431L15.0756 11.0198ZM17.3333 9.33331C17.3333 8.96512 17.0348 8.66665 16.6666 8.66665C16.2984 8.66665 15.9999 8.96512 15.9999 9.33331H17.3333ZM10.6666 9.33331C10.6666 10.5664 11.3365 11.6422 12.3289 12.2181L12.9981 11.0648C12.3998 10.7177 11.9999 10.0718 11.9999 9.33331H10.6666ZM15.794 12.1431C16.7182 11.552 17.3333 10.5147 17.3333 9.33331H15.9999C15.9999 10.041 15.6329 10.6634 15.0756 11.0198L15.794 12.1431Z" fill="#8C9157"/>
<path fill-rule="evenodd" clip-rule="evenodd" d="M14.0001 10.6667C14.7365 10.6667 15.3334 9.77126 15.3334 8.66669C15.3334 7.56212 14.7365 6.66669 14.0001 6.66669C13.2637 6.66669 12.6667 7.56212 12.6667 8.66669C12.6667 9.77126 13.2637 10.6667 14.0001 10.6667Z" fill="#C59262"/>
</g>
</svg>
