<svg width="28" height="20" viewBox="0 0 28 20" fill="none" xmlns="http://www.w3.org/2000/svg">
<rect x="0.25" y="0.25" width="27.5" height="19.5" rx="1.75" fill="white" stroke="#F5F5F5" stroke-width="0.5"/>
<mask id="mask0_1723_27219" style="mask-type:luminance" maskUnits="userSpaceOnUse" x="0" y="0" width="28" height="20">
<rect x="0.25" y="0.25" width="27.5" height="19.5" rx="1.75" fill="white" stroke="white" stroke-width="0.5"/>
</mask>
<g mask="url(#mask0_1723_27219)">
<path fill-rule="evenodd" clip-rule="evenodd" d="M0 6.66667H28V0H0V6.66667Z" fill="#1A78D6"/>
<path fill-rule="evenodd" clip-rule="evenodd" d="M0 20H28V13.3333H0V20Z" fill="#1A78D6"/>
<path d="M14 7.66699C15.2887 7.66699 16.333 8.71134 16.333 10C16.333 11.2887 15.2887 12.333 14 12.333C12.7113 12.333 11.667 11.2887 11.667 10C11.667 8.71134 12.7113 7.66699 14 7.66699Z" stroke="#DBCD92" stroke-width="0.666667"/>
<path fill-rule="evenodd" clip-rule="evenodd" d="M14.0001 8.66669L15.3334 11.3334H12.6667L14.0001 8.66669Z" fill="#9CDDEE"/>
</g>
</svg>
