<svg width="28" height="20" viewBox="0 0 28 20" fill="none" xmlns="http://www.w3.org/2000/svg">
<rect width="28" height="20" rx="2" fill="white"/>
<mask id="mask0_1723_27218" style="mask-type:luminance" maskUnits="userSpaceOnUse" x="0" y="0" width="28" height="20">
<rect width="28" height="20" rx="2" fill="white"/>
</mask>
<g mask="url(#mask0_1723_27218)">
<rect width="28" height="20" fill="#0A17A7"/>
<path d="M12.333 0.495117C12.333 0.710418 12.2289 0.912945 12.0537 1.03809L7.66699 4.1709V5.17969L11.7646 8.69238C12.1547 9.02696 11.9182 9.66674 11.4043 9.66699C11.2889 9.66699 11.176 9.63057 11.082 9.56348L6.55859 6.33301H5.42871L0.176758 9.61621L-0.333008 9.93457V8.49512L-0.193359 8.39551L4.33301 5.16211V4.15234L-0.216797 0.25293L-0.901367 -0.333008H0.773438L0.860352 -0.271484L5.43945 3H6.57129L11.8232 -0.282227L12.333 -0.601562V0.495117Z" fill="#FF2E3B" stroke="white" stroke-width="0.666667"/>
<path fill-rule="evenodd" clip-rule="evenodd" d="M0 3.33333V6H4.66667V9.33333C4.66667 9.70152 4.96514 10 5.33333 10H6.66667C7.03486 10 7.33333 9.70152 7.33333 9.33333V6H12C12.3682 6 12.6667 5.70152 12.6667 5.33333V4C12.6667 3.63181 12.3682 3.33333 12 3.33333H7.33333V0H4.66667V3.33333H0Z" fill="white"/>
<path fill-rule="evenodd" clip-rule="evenodd" d="M0 4H5.33333V3.33333V0H6.66667V3.33333V4H12V5.33333H6.66667V6V9.33333H5.33333V6V5.33333H0V4Z" fill="#FF2E3B"/>
<path fill-rule="evenodd" clip-rule="evenodd" d="M20.0001 17.3333L19.0573 17.6095L19.3334 16.6666L19.0573 15.7238L20.0001 16L20.9429 15.7238L20.6667 16.6666L20.9429 17.6095L20.0001 17.3333Z" fill="#CA1931"/>
<path fill-rule="evenodd" clip-rule="evenodd" d="M20.0001 4.66669L19.0573 4.94283L19.3334 4.00002L19.0573 3.05721L20.0001 3.33335L20.9429 3.05721L20.6667 4.00002L20.9429 4.94283L20.0001 4.66669Z" fill="#CA1931"/>
<path fill-rule="evenodd" clip-rule="evenodd" d="M24.0001 8.66669L23.0573 8.94283L23.3334 8.00002L23.0573 7.05721L24.0001 7.33335L24.9429 7.05721L24.6667 8.00002L24.9429 8.94283L24.0001 8.66669Z" fill="#CA1931"/>
<path fill-rule="evenodd" clip-rule="evenodd" d="M16.0001 10L15.0573 10.2761L15.3334 9.33333L15.0573 8.39052L16.0001 8.66667L16.9429 8.39052L16.6667 9.33333L16.9429 10.2761L16.0001 10Z" fill="#CA1931"/>
</g>
</svg>
