<svg width="28" height="20" viewBox="0 0 28 20" fill="none" xmlns="http://www.w3.org/2000/svg">
<rect x="0.25" y="0.25" width="27.5" height="19.5" rx="1.75" fill="white" stroke="#F5F5F5" stroke-width="0.5"/>
<mask id="mask0_1723_27288" style="mask-type:luminance" maskUnits="userSpaceOnUse" x="0" y="0" width="28" height="20">
<rect x="0.25" y="0.25" width="27.5" height="19.5" rx="1.75" fill="white" stroke="white" stroke-width="0.5"/>
</mask>
<g mask="url(#mask0_1723_27288)">
<path fill-rule="evenodd" clip-rule="evenodd" d="M0 5.33333H28V0H0V5.33333Z" fill="#D82332"/>
<path fill-rule="evenodd" clip-rule="evenodd" d="M0 20H28V14.6667H0V20Z" fill="#D82332"/>
<path fill-rule="evenodd" clip-rule="evenodd" d="M13.0676 10.7527L12.7832 11.018C13.0403 11.0901 13.3971 11.0061 13.5391 10.7527H13.0676Z" fill="#064A89"/>
<path fill-rule="evenodd" clip-rule="evenodd" d="M10.7725 10.9334C10.9649 11.1259 11.2838 11.1034 11.4763 10.9816C11.6689 10.8597 11.8103 10.8519 11.9303 10.8647C11.943 10.9733 11.9714 11.1126 12.0201 11.2502H10.8782C10.8498 11.1797 10.7945 11.0152 10.7725 10.9334Z" fill="#064A89"/>
<path fill-rule="evenodd" clip-rule="evenodd" d="M10.9841 11.4478C11.2083 11.3419 11.4374 11.4259 11.5365 11.5022C11.7196 11.6434 12.022 11.6051 12.1704 11.525C12.227 11.6174 12.2958 11.7083 12.3787 11.7776H11.1569C11.1073 11.6975 11 11.5006 10.9841 11.4478Z" fill="#064A89"/>
<path fill-rule="evenodd" clip-rule="evenodd" d="M16.2983 12.3249C16.3519 12.2704 16.4245 12.1806 16.4719 12.1165C16.393 12.1068 16.3012 12.0497 16.2037 12.001C16.0237 11.9111 15.8517 11.9111 15.6986 12.017C15.4714 12.1741 15.1873 12.2126 14.9663 12.0555C14.7239 11.8831 14.4992 11.9208 14.3098 12.03C14.1204 12.1389 14.0005 12.1453 13.8868 12.1453C13.7732 12.1453 13.6533 12.1389 13.4639 12.03C13.2745 11.9208 13.0498 11.8831 12.8074 12.0555C12.5864 12.2126 12.3023 12.1741 12.0751 12.017C11.922 11.9111 11.75 11.9111 11.57 12.001C11.4723 12.0497 11.3807 12.1068 11.3018 12.1165C11.3492 12.1806 11.4218 12.2704 11.4754 12.3249H16.2983Z" fill="#064A89"/>
<path fill-rule="evenodd" clip-rule="evenodd" d="M15.7068 12.8612C15.7573 12.8292 15.8962 12.7234 15.9656 12.6688C15.8899 12.6849 15.7172 12.6286 15.628 12.5822C15.369 12.4474 15.1986 12.4603 15.0062 12.5629C14.8136 12.6656 14.5421 12.7201 14.3433 12.6111C14.1445 12.5021 14.0023 12.4731 13.8982 12.4731C13.7941 12.4731 13.652 12.5021 13.4531 12.6111C13.2543 12.7201 12.9829 12.6656 12.7903 12.5629C12.5978 12.4603 12.4274 12.4474 12.1685 12.5822C12.0793 12.6286 11.9066 12.6849 11.8308 12.6688C11.9002 12.7234 12.0392 12.8292 12.0896 12.8612H15.7068Z" fill="#064A89"/>
<path fill-rule="evenodd" clip-rule="evenodd" d="M14.5684 11.7951C14.5148 11.7663 14.452 11.6991 14.3948 11.6128C14.3033 11.4749 14.1581 11.3979 13.9403 11.3979C13.7225 11.3979 13.5773 11.4749 13.4858 11.6128C13.4286 11.6991 13.3658 11.7663 13.3123 11.7951H14.5684Z" fill="#064A89"/>
<path fill-rule="evenodd" clip-rule="evenodd" d="M14.2104 11.2999C14.1883 11.2614 14.141 11.1395 14.1252 11.0753C14.0746 11.0914 13.9768 11.0978 13.92 11.0978C13.8632 11.0978 13.7654 11.0914 13.7148 11.0753C13.6991 11.1395 13.6518 11.2614 13.6296 11.2999H14.2104Z" fill="#064A89"/>
<path fill-rule="evenodd" clip-rule="evenodd" d="M14.7361 10.7527L15.0205 11.018C14.7634 11.0901 14.4067 11.0061 14.2646 10.7527H14.7361Z" fill="#064A89"/>
<path fill-rule="evenodd" clip-rule="evenodd" d="M17.0997 10.9334C16.9072 11.1259 16.5883 11.1034 16.3959 10.9816C16.2033 10.8597 16.0618 10.8519 15.9418 10.8647C15.929 10.9733 15.9007 11.1126 15.8521 11.2502H16.994C17.0223 11.1797 17.0776 11.0152 17.0997 10.9334Z" fill="#064A89"/>
<path fill-rule="evenodd" clip-rule="evenodd" d="M16.929 11.4478C16.7049 11.3419 16.4758 11.4259 16.3766 11.5022C16.1936 11.6434 15.8911 11.6051 15.7428 11.525C15.6862 11.6174 15.6174 11.7083 15.5344 11.7776H16.7562C16.8059 11.6975 16.9133 11.5006 16.929 11.4478Z" fill="#064A89"/>
<path fill-rule="evenodd" clip-rule="evenodd" d="M15.1588 13.0716C14.7761 13.2303 14.3572 13.3179 13.9183 13.3179C13.4789 13.3179 13.0603 13.2304 12.6772 13.0714C12.7593 13.0618 12.8679 13.0216 12.9556 12.972C13.0977 12.8918 13.3564 12.8758 13.4796 12.956C13.6026 13.0362 13.751 13.1163 13.9183 13.1163C14.0856 13.1163 14.234 13.0362 14.357 12.956C14.4801 12.8758 14.7389 12.8918 14.8811 12.972C14.9686 13.0216 15.0767 13.062 15.1588 13.0716Z" fill="#064A89"/>
<path fill-rule="evenodd" clip-rule="evenodd" d="M14.6253 6.72694C13.9341 6.58264 13.3123 6.66597 13.3123 7.32673C13.3123 7.97458 13.3123 8.93673 13.3123 9.13565C13.3123 9.33447 13.3162 9.35963 13.549 9.41468C14.0539 9.53415 14.1013 9.54619 14.6505 9.67436V7.81425C14.2213 7.76608 14.0571 7.52135 14.0571 7.23694C14.0571 6.96114 14.2464 6.78146 14.6253 6.72694Z" fill="#514537"/>
<path fill-rule="evenodd" clip-rule="evenodd" d="M12.854 11.8285C12.4689 11.8285 12.0649 11.4885 12.0649 10.8407C12.0649 10.1927 12.0649 9.3781 12.0649 9.23057C12.0649 9.08466 12.0811 9.06412 12.0476 9.03014C12.0279 9.01014 12.0697 8.98046 12.098 8.95154C12.1407 8.9082 12.1699 8.87218 12.1123 8.81358C12.0547 8.75509 12.0792 8.73982 12.1155 8.70304C12.1518 8.66605 12.166 8.62928 12.1313 8.5939C12.0966 8.55863 12.0886 8.54745 12.1265 8.50896C12.1644 8.47046 12.1486 8.45444 12.1171 8.42229C12.0855 8.39025 12.0705 8.36702 12.1107 8.32616C12.1502 8.28605 12.1533 8.2796 12.1991 8.2796C12.2449 8.2796 12.3443 8.2796 12.3885 8.2796C12.4328 8.2796 12.4335 8.29326 12.3964 8.331C12.3482 8.37982 12.334 8.39906 12.3885 8.45444C12.4429 8.50971 12.4406 8.5282 12.4059 8.56347C12.3537 8.61638 12.3309 8.65251 12.3838 8.70627C12.4367 8.75992 12.4413 8.78401 12.4011 8.82487C12.3609 8.86573 12.3569 8.90186 12.4011 8.9467C12.4351 8.98122 12.4374 9.00132 12.4374 9.06218C12.4374 9.42949 12.4374 10.4301 12.4374 10.7059C12.4374 10.9818 12.6331 11.1485 13.0056 11.1485C13.378 11.1485 13.5043 10.9945 13.6116 10.892C13.5422 11.3858 13.3402 11.8285 12.854 11.8285Z" fill="#514537"/>
<path fill-rule="evenodd" clip-rule="evenodd" d="M13.9408 10.255C13.9929 10.2709 14.0434 10.3479 14.0434 10.4313H14.146C14.146 10.3608 14.1159 10.2518 14.0616 10.1843C14.0607 10.1667 14.0584 10.1515 14.0545 10.1363C14.0923 10.0881 14.1476 10.0111 14.146 9.93736C14.1449 9.8908 14.0908 9.89252 14.0844 9.9294C14.0792 9.95972 14.0592 10.0064 14.0213 10.0224C14.0213 9.96305 13.9881 9.89252 13.9408 9.89252C13.8935 9.89252 13.8603 9.96305 13.8603 10.0224C13.8224 10.0064 13.8024 9.95972 13.7972 9.9294C13.7909 9.89252 13.7366 9.8908 13.7356 9.93736C13.734 10.0111 13.7893 10.0881 13.8272 10.1363C13.8232 10.1515 13.8209 10.1667 13.8201 10.1843C13.7657 10.2518 13.7356 10.3608 13.7356 10.4313H13.8383C13.8383 10.3479 13.8888 10.2709 13.9408 10.255Z" fill="#514537"/>
<path fill-rule="evenodd" clip-rule="evenodd" d="M13.4118 10.255C13.4638 10.2709 13.5144 10.3479 13.5144 10.4313H13.6169C13.6169 10.3608 13.587 10.2518 13.5325 10.1843C13.5318 10.1667 13.5293 10.1515 13.5254 10.1363C13.5633 10.0881 13.6185 10.0111 13.6169 9.93736C13.616 9.8908 13.5617 9.89252 13.5554 9.9294C13.5502 9.95972 13.5301 10.0064 13.4923 10.0224C13.4923 9.96305 13.4592 9.89252 13.4118 9.89252C13.3645 9.89252 13.3313 9.96305 13.3313 10.0224C13.2935 10.0064 13.2733 9.95972 13.2682 9.9294C13.2618 9.89252 13.2076 9.8908 13.2066 9.93736C13.205 10.0111 13.2602 10.0881 13.2981 10.1363C13.2942 10.1515 13.2919 10.1667 13.291 10.1843C13.2366 10.2518 13.2066 10.3608 13.2066 10.4313H13.3092C13.3092 10.3479 13.3597 10.2709 13.4118 10.255Z" fill="#514537"/>
<path fill-rule="evenodd" clip-rule="evenodd" d="M12.8825 10.255C12.9345 10.2709 12.985 10.3479 12.985 10.4313H13.0876C13.0876 10.3608 13.0576 10.2518 13.0032 10.1843C13.0024 10.1667 13 10.1515 12.9961 10.1363C13.034 10.0881 13.0892 10.0111 13.0876 9.93736C13.0866 9.8908 13.0324 9.89252 13.0261 9.9294C13.0209 9.95972 13.0008 10.0064 12.9629 10.0224C12.9629 9.96305 12.9298 9.89252 12.8825 9.89252C12.8351 9.89252 12.8019 9.96305 12.8019 10.0224C12.7641 10.0064 12.7441 9.95972 12.7389 9.9294C12.7325 9.89252 12.6782 9.8908 12.6773 9.93736C12.6757 10.0111 12.7309 10.0881 12.7688 10.1363C12.7649 10.1515 12.7625 10.1667 12.7617 10.1843C12.7072 10.2518 12.6773 10.3608 12.6773 10.4313H12.7798C12.7798 10.3479 12.8304 10.2709 12.8825 10.255Z" fill="#514537"/>
<path fill-rule="evenodd" clip-rule="evenodd" d="M14.4699 10.255C14.4178 10.2709 14.3673 10.3479 14.3673 10.4313H14.2647C14.2647 10.3608 14.2946 10.2518 14.3491 10.1843C14.3499 10.1667 14.3523 10.1515 14.3563 10.1363C14.3183 10.0881 14.2631 10.0111 14.2647 9.93736C14.2657 9.8908 14.3199 9.89252 14.3263 9.9294C14.3315 9.95972 14.3516 10.0064 14.3893 10.0224C14.3893 9.96305 14.4226 9.89252 14.4699 9.89252C14.5173 9.89252 14.5504 9.96305 14.5504 10.0224C14.5882 10.0064 14.6083 9.95972 14.6135 9.9294C14.6198 9.89252 14.674 9.8908 14.6751 9.93736C14.6766 10.0111 14.6214 10.0881 14.5835 10.1363C14.5874 10.1515 14.5899 10.1667 14.5906 10.1843C14.6451 10.2518 14.6751 10.3608 14.6751 10.4313H14.5724C14.5724 10.3479 14.5219 10.2709 14.4699 10.255Z" fill="#514537"/>
<path fill-rule="evenodd" clip-rule="evenodd" d="M14.9989 10.255C14.9469 10.2709 14.8964 10.3479 14.8964 10.4313H14.7937C14.7937 10.3608 14.8238 10.2518 14.8782 10.1843C14.879 10.1667 14.8814 10.1515 14.8853 10.1363C14.8474 10.0881 14.7921 10.0111 14.7937 9.93736C14.7947 9.8908 14.849 9.89252 14.8553 9.9294C14.8605 9.95972 14.8805 10.0064 14.9184 10.0224C14.9184 9.96305 14.9516 9.89252 14.9989 9.89252C15.0463 9.89252 15.0794 9.96305 15.0794 10.0224C15.1173 10.0064 15.1373 9.95972 15.1425 9.9294C15.1489 9.89252 15.203 9.8908 15.2041 9.93736C15.2057 10.0111 15.1505 10.0881 15.1126 10.1363C15.1165 10.1515 15.1188 10.1667 15.1197 10.1843C15.1742 10.2518 15.2041 10.3608 15.2041 10.4313H15.1016C15.1016 10.3479 15.051 10.2709 14.9989 10.255Z" fill="#514537"/>
<path fill-rule="evenodd" clip-rule="evenodd" d="M12.5715 10.5377H15.3491V10.671H12.5715V10.5377Z" fill="#514537"/>
<path fill-rule="evenodd" clip-rule="evenodd" d="M15.0222 11.8285C15.4073 11.8285 15.8113 11.4885 15.8113 10.8407C15.8113 10.1927 15.8113 9.3781 15.8113 9.23057C15.8113 9.08466 15.7951 9.06412 15.8287 9.03014C15.8484 9.01014 15.8066 8.98046 15.7782 8.95154C15.7355 8.9082 15.7063 8.87218 15.7639 8.81358C15.8216 8.75509 15.797 8.73982 15.7608 8.70304C15.7244 8.66605 15.7103 8.62928 15.745 8.5939C15.7797 8.55863 15.7876 8.54745 15.7497 8.50896C15.7118 8.47046 15.7276 8.45444 15.7591 8.42229C15.7908 8.39025 15.8057 8.36702 15.7655 8.32616C15.726 8.28605 15.723 8.2796 15.6771 8.2796C15.6313 8.2796 15.532 8.2796 15.4877 8.2796C15.4436 8.2796 15.4427 8.29326 15.4799 8.331C15.528 8.37982 15.5422 8.39906 15.4877 8.45444C15.4333 8.50971 15.4357 8.5282 15.4704 8.56347C15.5225 8.61638 15.5453 8.65251 15.4925 8.70627C15.4396 8.75992 15.4348 8.78401 15.4751 8.82487C15.5153 8.86573 15.5194 8.90186 15.4751 8.9467C15.4412 8.98122 15.4388 9.00132 15.4388 9.06218C15.4388 9.42949 15.4388 10.4301 15.4388 10.7059C15.4388 10.9818 15.2431 11.1485 14.8707 11.1485C14.4982 11.1485 14.3721 10.9945 14.2646 10.892C14.3341 11.3858 14.5361 11.8285 15.0222 11.8285Z" fill="#514537"/>
<path fill-rule="evenodd" clip-rule="evenodd" d="M12.5715 9.67434C12.5715 9.67434 12.5716 9.57971 12.5716 9.4624L13.1269 9.67445L12.5715 9.67434Z" fill="#EEA339"/>
<path fill-rule="evenodd" clip-rule="evenodd" d="M11.9092 9.77279L10.6667 9.60258C10.7028 9.33204 10.7711 9.06827 10.8693 8.8172L11.9092 9.23666V9.77279Z" fill="#EEA339"/>
<path fill-rule="evenodd" clip-rule="evenodd" d="M14.4763 7.69595L14.6972 6.77423C14.9556 6.83789 15.2068 6.9338 15.4449 7.06025L14.7326 8.44563L14.7352 7.75004C14.6529 7.75047 14.5268 7.73767 14.4763 7.69595Z" fill="#EEA339"/>
<path fill-rule="evenodd" clip-rule="evenodd" d="M11.9385 9.86304L10.6729 9.78497C10.6566 10.0547 10.6728 10.3268 10.7215 10.5953C10.7215 10.5953 11.9385 10.603 11.9385 10.5953V9.86304Z" fill="#EEA339"/>
<path fill-rule="evenodd" clip-rule="evenodd" d="M11.9258 8.99562C11.8849 8.9411 11.9102 8.91207 11.9543 8.88314C11.9985 8.85433 11.9922 8.83185 11.9702 8.79024C11.948 8.74852 11.9259 8.70357 11.967 8.65873C12.008 8.61379 11.9922 8.59454 11.9606 8.5625C11.9291 8.53045 11.9259 8.49519 11.9543 8.46949C11.9828 8.44379 11.9764 8.42454 11.9576 8.39895C11.9385 8.37325 11.9014 8.32121 11.9346 8.28755L11.4183 7.84949C11.2477 8.0568 11.1017 8.28562 10.9841 8.53099L11.9258 8.99562Z" fill="#EEA339"/>
<path fill-rule="evenodd" clip-rule="evenodd" d="M13.1628 9.23445L12.5475 8.62811C12.6343 8.53994 12.643 8.52553 12.5815 8.46295C12.5144 8.39478 12.5119 8.38768 12.6485 8.24886C12.695 8.20166 12.669 8.16865 12.6027 8.16865C12.5365 8.16865 12.2318 8.16865 12.1971 8.16865C12.1624 8.16865 12.1351 8.17047 12.1097 8.19628L11.6191 7.7137C11.8063 7.51789 12.0154 7.34703 12.2413 7.20435L13.1628 8.71026V9.23445Z" fill="#EEA339"/>
<path fill-rule="evenodd" clip-rule="evenodd" d="M12.5227 9.32666C12.5227 9.17602 12.5228 9.02688 12.5228 9.00569C12.5228 8.96075 12.5197 8.94311 12.485 8.90784C12.4503 8.87258 12.4676 8.85569 12.4945 8.8172L13.0782 9.31129V9.60139L12.5227 9.32666Z" fill="#EEA339"/>
<path fill-rule="evenodd" clip-rule="evenodd" d="M13.0696 8.44638C13.0696 8.15703 13.0696 7.88939 13.0696 7.7352C13.0696 7.27337 13.0951 7.0424 13.1613 6.99595L13.1083 6.77423C12.8492 6.84509 12.598 6.94101 12.3599 7.06746L13.0696 8.44638Z" fill="#EEA339"/>
<path fill-rule="evenodd" clip-rule="evenodd" d="M15.349 9.67434C15.349 9.67434 15.3489 9.57971 15.3489 9.4624L14.7937 9.67445L15.349 9.67434Z" fill="#EEA339"/>
<path fill-rule="evenodd" clip-rule="evenodd" d="M15.9578 9.77279L17.2002 9.60258C17.1641 9.33204 17.0959 9.06827 16.9977 8.8172L15.9578 9.23666V9.77279Z" fill="#EEA339"/>
<path fill-rule="evenodd" clip-rule="evenodd" d="M15.9578 9.86304L17.2233 9.78497C17.2396 10.0547 17.2235 10.3268 17.1747 10.5953C17.1747 10.5953 15.9578 10.603 15.9578 10.5953V9.86304Z" fill="#EEA339"/>
<path fill-rule="evenodd" clip-rule="evenodd" d="M15.9179 8.99562C15.9589 8.9411 15.9335 8.91207 15.8894 8.88314C15.8452 8.85433 15.8515 8.83185 15.8735 8.79024C15.8957 8.74852 15.9178 8.70357 15.8767 8.65873C15.8357 8.61379 15.8515 8.59454 15.8831 8.5625C15.9146 8.53045 15.9178 8.49519 15.8894 8.46949C15.861 8.44379 15.8673 8.42454 15.8861 8.39895C15.9052 8.37325 15.9422 8.32121 15.9091 8.28755L16.4254 7.84949C16.596 8.0568 16.7419 8.28562 16.8595 8.53099L15.9179 8.99562Z" fill="#EEA339"/>
<path fill-rule="evenodd" clip-rule="evenodd" d="M14.7937 9.23445L15.409 8.62811C15.3222 8.53994 15.3135 8.52553 15.3751 8.46295C15.4422 8.39478 15.4446 8.38768 15.3081 8.24886C15.2614 8.20166 15.2876 8.16865 15.3538 8.16865C15.4201 8.16865 15.7247 8.16865 15.7594 8.16865C15.7941 8.16865 15.8214 8.17047 15.8468 8.19628L16.3374 7.7137C16.1502 7.51789 15.9411 7.34703 15.7153 7.20435L14.7937 8.71026V9.23445Z" fill="#EEA339"/>
<path fill-rule="evenodd" clip-rule="evenodd" d="M15.3492 9.32666C15.3492 9.17602 15.349 9.02688 15.349 9.00569C15.349 8.96075 15.3522 8.94311 15.3869 8.90784C15.4216 8.87258 15.4043 8.85569 15.3774 8.8172L14.7937 9.31129V9.60139L15.3492 9.32666Z" fill="#EEA339"/>
<path fill-rule="evenodd" clip-rule="evenodd" d="M12.1482 9.03229C12.1703 9.05476 12.1798 9.07713 12.1798 9.13164C12.1798 9.18616 12.1798 10.3793 12.1798 10.8476C12.1798 11.4184 12.5207 11.7359 12.8711 11.7359C13.193 11.7359 13.4045 11.4377 13.515 11.0913C13.373 11.2036 13.1646 11.2388 12.9657 11.2388C12.7353 11.2388 12.3629 11.0817 12.3629 10.7418C12.3629 10.4274 12.3629 9.26315 12.3629 9.07713C12.3629 9.03229 12.3187 9.03229 12.1482 9.03229Z" fill="#D82332"/>
<path fill-rule="evenodd" clip-rule="evenodd" d="M14.1611 6.78408C13.721 6.73881 13.3128 6.83182 13.3128 7.44193C13.3128 8.08343 13.3128 8.8659 13.3128 9.06289C13.3128 9.33354 13.2918 9.30139 13.5175 9.35827C13.9271 9.4615 13.9735 9.47461 14.4702 9.58988V7.94064C14.0461 7.89343 13.8623 7.61117 13.8623 7.29859C13.8623 7.04988 13.9704 6.8158 14.1611 6.78408Z" fill="#D82332"/>
<path fill-rule="evenodd" clip-rule="evenodd" d="M15.7371 9.03229C15.715 9.05476 15.7055 9.07713 15.7055 9.13164C15.7055 9.18616 15.7055 10.3793 15.7055 10.8476C15.7055 11.4184 15.3646 11.7359 15.0143 11.7359C14.6924 11.7359 14.4808 11.4377 14.3704 11.0913C14.5125 11.2036 14.7207 11.2388 14.9197 11.2388C15.15 11.2388 15.5224 11.0817 15.5224 10.7418C15.5224 10.4274 15.5224 9.26315 15.5224 9.07713C15.5224 9.03229 15.5667 9.03229 15.7371 9.03229Z" fill="#D82332"/>
<mask id="mask1_1723_27288" style="mask-type:luminance" maskUnits="userSpaceOnUse" x="10" y="6" width="8" height="8">
<path fill-rule="evenodd" clip-rule="evenodd" d="M14.0001 13.3334C15.841 13.3334 17.3334 11.841 17.3334 10C17.3334 8.15907 15.841 6.66669 14.0001 6.66669C12.1591 6.66669 10.6667 8.15907 10.6667 10C10.6667 11.841 12.1591 13.3334 14.0001 13.3334Z" fill="white"/>
</mask>
<g mask="url(#mask1_1723_27288)">
<path fill-rule="evenodd" clip-rule="evenodd" d="M14.0001 18.6667C15.841 18.6667 17.3334 17.1743 17.3334 15.3333C17.3334 13.4924 15.841 12 14.0001 12C12.1591 12 10.6667 13.4924 10.6667 15.3333C10.6667 17.1743 12.1591 18.6667 14.0001 18.6667Z" fill="#064A89"/>
</g>
</g>
</svg>
