<svg width="28" height="20" viewBox="0 0 28 20" fill="none" xmlns="http://www.w3.org/2000/svg">
<rect width="28" height="20" rx="2" fill="white"/>
<mask id="mask0_1723_27227" style="mask-type:luminance" maskUnits="userSpaceOnUse" x="0" y="0" width="28" height="20">
<rect width="28" height="20" rx="2" fill="white"/>
</mask>
<g mask="url(#mask0_1723_27227)">
<rect width="28" height="20" fill="#262626"/>
<path fill-rule="evenodd" clip-rule="evenodd" d="M0 0H28V20L0 0Z" fill="#E8283F"/>
<path fill-rule="evenodd" clip-rule="evenodd" d="M6.66659 16.6667L5.72378 16.9428L5.99992 16L5.72378 15.0572L6.66659 15.3334L7.60939 15.0572L7.33325 16L7.60939 16.9428L6.66659 16.6667Z" fill="white"/>
<path fill-rule="evenodd" clip-rule="evenodd" d="M6.66659 8.66669L5.72378 8.94283L5.99992 8.00002L5.72378 7.05721L6.66659 7.33335L7.60939 7.05721L7.33325 8.00002L7.60939 8.94283L6.66659 8.66669Z" fill="white"/>
<path fill-rule="evenodd" clip-rule="evenodd" d="M3.33333 12L2.39052 12.2761L2.66667 11.3333L2.39052 10.3905L3.33333 10.6667L4.27614 10.3905L4 11.3333L4.27614 12.2761L3.33333 12Z" fill="white"/>
<path fill-rule="evenodd" clip-rule="evenodd" d="M9.33333 11.3333L8.39052 11.6095L8.66667 10.6666L8.39052 9.72384L9.33333 9.99998L10.2761 9.72384L10 10.6666L10.2761 11.6095L9.33333 11.3333Z" fill="white"/>
<path fill-rule="evenodd" clip-rule="evenodd" d="M18.8613 9.26559C18.7017 9.16982 18.5723 8.94422 18.5723 8.76373L18.5723 7.53501C18.5723 7.35361 18.4418 7.25007 18.2443 7.3159L17.4861 7.56863C17.3049 7.62902 17.0275 7.63446 16.8301 7.56863L16.0718 7.3159C15.8907 7.25551 15.8706 7.13053 16.0329 7.03315L17.8118 5.96576C17.9715 5.86999 18.0574 5.66184 17.9915 5.46434L17.7388 4.70614C17.6784 4.52499 17.76 4.42164 17.9575 4.48747L18.7157 4.7402C18.8968 4.80059 19.1197 4.72282 19.2171 4.56052L20.2845 2.78153C20.3802 2.62191 20.5014 2.62303 20.5672 2.82052L20.82 3.57873C20.8803 3.75988 20.8858 4.03724 20.82 4.23473L20.5672 4.99294C20.5068 5.17409 20.6058 5.32094 20.7863 5.32094H22.0151C22.1965 5.32094 22.4195 5.44767 22.5169 5.60996L23.5843 7.38895C23.6801 7.54857 23.6031 7.7089 23.43 7.74351L21.7284 8.08382C21.5474 8.12002 21.3698 8.30402 21.3351 8.4771L20.9948 10.1787C20.9586 10.3597 20.8026 10.4304 20.6403 10.333L18.8613 9.26559Z" fill="#FFD84E"/>
</g>
</svg>
