<svg width="28" height="20" viewBox="0 0 28 20" fill="none" xmlns="http://www.w3.org/2000/svg">
<rect x="0.25" y="0.25" width="27.5" height="19.5" rx="1.75" fill="white" stroke="#F5F5F5" stroke-width="0.5"/>
<mask id="mask0_1723_27225" style="mask-type:luminance" maskUnits="userSpaceOnUse" x="0" y="0" width="28" height="20">
<rect x="0.25" y="0.25" width="27.5" height="19.5" rx="1.75" fill="white" stroke="white" stroke-width="0.5"/>
</mask>
<g mask="url(#mask0_1723_27225)">
<path fill-rule="evenodd" clip-rule="evenodd" d="M0 20H28V9.33331H12.4444L13.3333 9.99998L0 20Z" fill="#DD1C34"/>
<path fill-rule="evenodd" clip-rule="evenodd" d="M28 9.33333H12.4444L0 0H28V9.33333Z" fill="#0D4BC3"/>
<path fill-rule="evenodd" clip-rule="evenodd" d="M1.99992 4.00002C2.36811 4.00002 2.66659 3.70154 2.66659 3.33335C2.66659 2.96516 2.36811 2.66669 1.99992 2.66669C1.63173 2.66669 1.33325 2.96516 1.33325 3.33335C1.33325 3.70154 1.63173 4.00002 1.99992 4.00002ZM9.99992 10.6667C10.3681 10.6667 10.6666 10.3682 10.6666 10C10.6666 9.63183 10.3681 9.33335 9.99992 9.33335C9.63173 9.33335 9.33325 9.63183 9.33325 10C9.33325 10.3682 9.63173 10.6667 9.99992 10.6667ZM2.66659 16.6667C2.66659 17.0349 2.36811 17.3334 1.99992 17.3334C1.63173 17.3334 1.33325 17.0349 1.33325 16.6667C1.33325 16.2985 1.63173 16 1.99992 16C2.36811 16 2.66659 16.2985 2.66659 16.6667ZM4.53199 11.3266L3.39097 13.0796L3.8237 11.0332C3.75407 10.9763 3.69029 10.9125 3.63342 10.8429L1.58699 11.2756L3.33996 10.1346C3.33552 10.0904 3.33325 10.0455 3.33325 10C3.33325 9.95459 3.33552 9.90969 3.33996 9.86543L1.58699 8.72441L3.63342 9.15714C3.69029 9.08751 3.75407 9.02373 3.8237 8.96685L3.39097 6.92042L4.53199 8.6734C4.57626 8.66896 4.62116 8.66669 4.66659 8.66669C4.71202 8.66669 4.75692 8.66896 4.80118 8.6734L5.9422 6.92042L5.50947 8.96685C5.5791 9.02373 5.64288 9.0875 5.69975 9.15714L7.74618 8.72441L5.99321 9.86543C5.99765 9.90969 5.99992 9.95459 5.99992 10C5.99992 10.0455 5.99765 10.0904 5.99321 10.1346L7.74618 11.2756L5.69976 10.8429C5.64288 10.9125 5.5791 10.9763 5.50947 11.0332L5.9422 13.0796L4.80118 11.3266C4.75692 11.3311 4.71202 11.3334 4.66659 11.3334C4.62116 11.3334 4.57626 11.3311 4.53199 11.3266Z" fill="#FDD64D"/>
</g>
</svg>
