<svg width="28" height="20" viewBox="0 0 28 20" fill="none" xmlns="http://www.w3.org/2000/svg">
<rect width="28" height="20" rx="2" fill="white"/>
<mask id="mask0_1723_27229" style="mask-type:luminance" maskUnits="userSpaceOnUse" x="0" y="0" width="28" height="20">
<rect width="28" height="20" rx="2" fill="white"/>
</mask>
<g mask="url(#mask0_1723_27229)">
<rect width="28" height="20" fill="#FF2936"/>
<path fill-rule="evenodd" clip-rule="evenodd" d="M0 20H10.6667V0H0V20Z" fill="#128415"/>
<path d="M10.667 6.66632C12.5078 6.6665 14 8.15946 14 10.0003C13.9998 11.841 12.5077 13.3331 10.667 13.3333C8.82615 13.3333 7.33318 11.8411 7.33301 10.0003C7.33301 8.15936 8.82604 6.66632 10.667 6.66632Z" stroke="#FAF94F" stroke-width="1.33333"/>
<path fill-rule="evenodd" clip-rule="evenodd" d="M9.33325 8.33333C9.33325 8.14924 9.48249 8 9.66659 8H11.6666C11.8507 8 11.9999 8.14924 11.9999 8.33333V10.6667C11.9999 11.403 11.403 12 10.6666 12C9.93021 12 9.33325 11.403 9.33325 10.6667V8.33333Z" fill="white"/>
<path fill-rule="evenodd" clip-rule="evenodd" d="M10.6667 10.6667C11.0349 10.6667 11.3333 9.70154 11.3333 9.33335C11.3333 8.96516 11.0349 8.66669 10.6667 8.66669C10.2985 8.66669 10 8.96516 10 9.33335C10 9.70154 10.2985 10.6667 10.6667 10.6667Z" fill="#1D50B5"/>
</g>
</svg>
