<svg width="28" height="20" viewBox="0 0 28 20" fill="none" xmlns="http://www.w3.org/2000/svg">
<rect width="28" height="20" rx="2" fill="white"/>
<mask id="mask0_1723_27179" style="mask-type:luminance" maskUnits="userSpaceOnUse" x="0" y="0" width="28" height="20">
<rect width="28" height="20" rx="2" fill="white"/>
</mask>
<g mask="url(#mask0_1723_27179)">
<rect width="28" height="20" fill="#128C4B"/>
<path fill-rule="evenodd" clip-rule="evenodd" d="M6.66675 12H17.3334V11.0787C17.3334 10.5831 17.855 10.2608 18.2982 10.4824L18.6667 10.6667V12H20.6667C21.0349 12 21.3334 12.2985 21.3334 12.6667V13.3334C21.3334 14.0697 20.7365 14.6667 20.0001 14.6667H18.0001C17.6319 14.6667 17.3334 14.3682 17.3334 14V13.3334H8.27622C8.09941 13.3334 7.92984 13.2631 7.80482 13.1381L6.66675 12Z" fill="white"/>
<path fill-rule="evenodd" clip-rule="evenodd" d="M6.66675 8.13805C6.66675 8.04965 6.70187 7.96486 6.76438 7.90235L7.09771 7.56902C7.22789 7.43884 7.22789 7.22779 7.09771 7.09761L6.76438 6.76428C6.70187 6.70177 6.66675 6.61698 6.66675 6.52858V5.66665C6.66675 5.48255 6.81599 5.33331 7.00008 5.33331H7.74544C7.88607 5.33331 8.00008 5.44732 8.00008 5.58796C8.00008 5.85666 8.36232 5.94218 8.48249 5.70184L8.58187 5.50308C8.63389 5.39903 8.74023 5.33331 8.85655 5.33331H10.3334C10.5175 5.33331 10.6667 5.48255 10.6667 5.66665C10.6667 5.85074 10.5175 5.99998 10.3334 5.99998H9.66675C9.48265 5.99998 9.33341 6.14922 9.33341 6.33331C9.33341 6.51741 9.48265 6.66665 9.66675 6.66665H10.3334C10.5175 6.66665 10.6667 6.81588 10.6667 6.99998V8.99998C10.6667 9.18407 10.5175 9.33331 10.3334 9.33331H9.66675C9.48265 9.33331 9.33341 9.18407 9.33341 8.99998V8.33331C9.33341 8.14922 9.48265 7.99998 9.66675 7.99998C9.85084 7.99998 10.0001 7.85074 10.0001 7.66665C10.0001 7.48255 9.85084 7.33331 9.66675 7.33331H9.00008C8.81599 7.33331 8.66675 7.48255 8.66675 7.66665V8.99998C8.66675 9.18407 8.51751 9.33331 8.33341 9.33331C8.14932 9.33331 8.00008 9.18407 8.00008 8.99998V8.33331C8.00008 8.14922 7.85084 7.99998 7.66675 7.99998C7.48265 7.99998 7.33341 8.14922 7.33341 8.33331V8.99998C7.33341 9.18407 7.18418 9.33331 7.00008 9.33331C6.81599 9.33331 6.66675 9.18407 6.66675 8.99998V8.13805Z" fill="white"/>
<path fill-rule="evenodd" clip-rule="evenodd" d="M17.3333 8.13805C17.3333 8.04965 17.3684 7.96486 17.4309 7.90235L17.7642 7.56902C17.8944 7.43884 17.8944 7.22779 17.7642 7.09761L17.4309 6.76428C17.3684 6.70177 17.3333 6.61698 17.3333 6.52858V5.66665C17.3333 5.48255 17.4825 5.33331 17.6666 5.33331H18.4119C18.5526 5.33331 18.6666 5.44732 18.6666 5.58796C18.6666 5.85666 19.0288 5.94218 19.149 5.70184L19.2484 5.50308C19.3004 5.39903 19.4067 5.33331 19.5231 5.33331H20.9999C21.184 5.33331 21.3333 5.48255 21.3333 5.66665C21.3333 5.85074 21.184 5.99998 20.9999 5.99998H20.3333C20.1492 5.99998 19.9999 6.14922 19.9999 6.33331C19.9999 6.51741 20.1492 6.66665 20.3333 6.66665H20.9999C21.184 6.66665 21.3333 6.81588 21.3333 6.99998V8.99998C21.3333 9.18407 21.184 9.33331 20.9999 9.33331H20.3333C20.1492 9.33331 19.9999 9.18407 19.9999 8.99998V8.33331C19.9999 8.14922 20.1492 7.99998 20.3333 7.99998C20.5173 7.99998 20.6666 7.85074 20.6666 7.66665C20.6666 7.48255 20.5173 7.33331 20.3333 7.33331H19.6666C19.4825 7.33331 19.3333 7.48255 19.3333 7.66665V8.99998C19.3333 9.18407 19.184 9.33331 18.9999 9.33331C18.8158 9.33331 18.6666 9.18407 18.6666 8.99998V8.33331C18.6666 8.14922 18.5173 7.99998 18.3333 7.99998C18.1492 7.99998 17.9999 8.14922 17.9999 8.33331V8.99998C17.9999 9.18407 17.8507 9.33331 17.6666 9.33331C17.4825 9.33331 17.3333 9.18407 17.3333 8.99998V8.13805Z" fill="white"/>
<path fill-rule="evenodd" clip-rule="evenodd" d="M16 6.33019C16 6.51601 15.8958 6.77081 15.7593 6.90733L15.574 7.09263C15.4411 7.22556 15.4375 7.43748 15.574 7.57399L15.7593 7.7593C15.8922 7.89222 16 8.14267 16 8.33644V8.99686C16 9.18268 15.8573 9.33331 15.6635 9.33331H15.0031C14.8173 9.33331 14.6667 9.19062 14.6667 8.99686V8.33644C14.6667 8.15062 14.6051 8.12303 14.512 8.30922L14.1546 9.02407C14.0692 9.19486 13.8431 9.33331 13.6697 9.33331H12.3303C12.1479 9.33331 12 9.17869 12 8.99998C12 8.81588 12.1427 8.66665 12.3365 8.66665H12.9969C13.1827 8.66665 13.3333 8.51202 13.3333 8.33331C13.3333 8.14922 13.1906 7.99998 12.9969 7.99998H12.3365C12.1506 7.99998 12 7.85661 12 7.67299V5.6603C12 5.47971 12.1427 5.33331 12.3365 5.33331H12.9969C13.1827 5.33331 13.3333 5.476 13.3333 5.66977V6.33019C13.3333 6.51601 13.1787 6.66665 13 6.66665C12.8159 6.66665 12.6667 6.82127 12.6667 6.99998C12.6667 7.18407 12.8094 7.33331 13.0031 7.33331H13.6635C13.8494 7.33331 14 7.17638 14 7.00305V5.66357C14 5.48118 14.1546 5.33331 14.3333 5.33331C14.5174 5.33331 14.6667 5.476 14.6667 5.66977V6.33019C14.6667 6.51601 14.8213 6.66665 15 6.66665C15.1841 6.66665 15.3333 6.52396 15.3333 6.33019V5.66977C15.3333 5.48395 15.488 5.33331 15.6667 5.33331C15.8508 5.33331 16 5.476 16 5.66977V6.33019Z" fill="white"/>
</g>
</svg>
