<svg width="28" height="20" viewBox="0 0 28 20" fill="none" xmlns="http://www.w3.org/2000/svg">
<rect width="28" height="20" rx="2" fill="white"/>
<mask id="mask0_1723_27251" style="mask-type:luminance" maskUnits="userSpaceOnUse" x="0" y="0" width="28" height="20">
<rect width="28" height="20" rx="2" fill="white"/>
</mask>
<g mask="url(#mask0_1723_27251)">
<rect width="28" height="20" fill="url(#paint0_linear_1723_27251)"/>
<path fill-rule="evenodd" clip-rule="evenodd" d="M17.3333 9.99998C17.3333 8.90624 17.3333 7.61312 17.3333 6.6658C17.3333 5.92942 17.9302 5.33331 18.6666 5.33331H22.6666C23.403 5.33331 23.9999 5.92942 23.9999 6.6658C23.9999 7.61313 23.9999 8.90624 23.9999 9.99998C23.9999 13.3333 20.6666 14.6666 20.6666 14.6666C20.6666 14.6666 17.3333 13.3333 17.3333 9.99998Z" fill="#8FC5FF"/>
<mask id="mask1_1723_27251" style="mask-type:luminance" maskUnits="userSpaceOnUse" x="17" y="5" width="7" height="10">
<path fill-rule="evenodd" clip-rule="evenodd" d="M17.3333 9.99998C17.3333 8.90624 17.3333 7.61312 17.3333 6.6658C17.3333 5.92942 17.9302 5.33331 18.6666 5.33331H22.6666C23.403 5.33331 23.9999 5.92942 23.9999 6.6658C23.9999 7.61313 23.9999 8.90624 23.9999 9.99998C23.9999 13.3333 20.6666 14.6666 20.6666 14.6666C20.6666 14.6666 17.3333 13.3333 17.3333 9.99998Z" fill="white"/>
</mask>
<g mask="url(#mask1_1723_27251)">
<path fill-rule="evenodd" clip-rule="evenodd" d="M20.0897 11.8835C20.0897 11.8835 20.757 11.0194 21.1495 11.0194C21.542 11.0194 21.6141 11.5932 22.2177 11.5932C22.8212 11.5932 23.1395 10.6788 23.7209 10.6788C24.3023 10.6788 23.7209 13.6788 23.7209 13.6788L22.9331 14.4914L18.3218 15.024L20.0897 11.8835Z" fill="#366CC9"/>
<path fill-rule="evenodd" clip-rule="evenodd" d="M18.1262 10.5512L18.7147 10L19.293 11.4157L20.0693 10L20.7369 14.0354L19.6266 13.8095L16 12.1514L18.1262 10.5512Z" fill="#CF6200"/>
<rect x="17.3333" y="5.33331" width="6.66667" height="4" fill="#FFFF00"/>
</g>
<path d="M18.6663 5.66632H22.6663C23.2187 5.66632 23.666 6.11354 23.6663 6.66534V10.0003C23.6662 11.5426 22.8989 12.6257 22.1106 13.3353C21.7161 13.6903 21.3197 13.9482 21.0227 14.1165C20.8747 14.2004 20.7517 14.2613 20.6672 14.3011H20.6653C20.5808 14.2612 20.4578 14.2004 20.3098 14.1165C20.0128 13.9482 19.6174 13.6903 19.2229 13.3353C18.4345 12.6257 17.6664 11.5427 17.6663 10.0003V6.66534C17.6665 6.11365 18.114 5.6665 18.6663 5.66632Z" stroke="white" stroke-width="0.666667"/>
<mask id="mask2_1723_27251" style="mask-type:luminance" maskUnits="userSpaceOnUse" x="17" y="5" width="7" height="10">
<path d="M18.6663 5.66632H22.6663C23.2187 5.66632 23.666 6.11354 23.6663 6.66534V10.0003C23.6662 11.5426 22.8989 12.6257 22.1106 13.3353C21.7161 13.6903 21.3197 13.9482 21.0227 14.1165C20.8747 14.2004 20.7517 14.2613 20.6672 14.3011H20.6653C20.5808 14.2612 20.4578 14.2004 20.3098 14.1165C20.0128 13.9482 19.6174 13.6903 19.2229 13.3353C18.4345 12.6257 17.6664 11.5427 17.6663 10.0003V6.66534C17.6665 6.11365 18.114 5.6665 18.6663 5.66632Z" fill="white" stroke="white" stroke-width="0.666667"/>
</mask>
<g mask="url(#mask2_1723_27251)">
</g>
<path d="M12.333 0.495117C12.333 0.710418 12.2289 0.912945 12.0537 1.03809L7.66699 4.1709V5.17969L11.7646 8.69238C12.1547 9.02696 11.9182 9.66674 11.4043 9.66699C11.2889 9.66699 11.176 9.63057 11.082 9.56348L6.55859 6.33301H5.42871L0.176758 9.61621L-0.333008 9.93457V8.49512L-0.193359 8.39551L4.33301 5.16211V4.15234L-0.216797 0.25293L-0.901367 -0.333008H0.773438L0.860352 -0.271484L5.43945 3H6.57129L11.8232 -0.282227L12.333 -0.601562V0.495117Z" fill="#DB1E36" stroke="white" stroke-width="0.666667"/>
<path fill-rule="evenodd" clip-rule="evenodd" d="M0 3.33333V6H4.66667V9.33333C4.66667 9.70152 4.96514 10 5.33333 10H6.66667C7.03486 10 7.33333 9.70152 7.33333 9.33333V6H12C12.3682 6 12.6667 5.70152 12.6667 5.33333V4C12.6667 3.63181 12.3682 3.33333 12 3.33333H7.33333V0H4.66667V3.33333H0Z" fill="white"/>
<path fill-rule="evenodd" clip-rule="evenodd" d="M0 4H5.33333V3.33333V0H6.66667V3.33333V4H12V5.33333H6.66667V6V9.33333H5.33333V6V5.33333H0V4Z" fill="#DB1E36"/>
</g>
<defs>
<linearGradient id="paint0_linear_1723_27251" x1="0" y1="0" x2="0" y2="20" gradientUnits="userSpaceOnUse">
<stop stop-color="#07319C"/>
<stop offset="1" stop-color="#00247E"/>
</linearGradient>
</defs>
</svg>
