<svg width="28" height="20" viewBox="0 0 28 20" fill="none" xmlns="http://www.w3.org/2000/svg">
<rect x="0.25" y="0.25" width="27.5" height="19.5" rx="1.75" fill="white" stroke="#F5F5F5" stroke-width="0.5"/>
<mask id="mask0_1723_27241" style="mask-type:luminance" maskUnits="userSpaceOnUse" x="0" y="0" width="28" height="20">
<rect x="0.25" y="0.25" width="27.5" height="19.5" rx="1.75" fill="white" stroke="white" stroke-width="0.5"/>
</mask>
<g mask="url(#mask0_1723_27241)">
<path fill-rule="evenodd" clip-rule="evenodd" d="M0 13.3334H28V6.66669H0V13.3334Z" fill="#0C47B7"/>
<path fill-rule="evenodd" clip-rule="evenodd" d="M0 20H28V13.3333H0V20Z" fill="#E53B35"/>
<path d="M13.0503 3.33301C14.1249 3.33303 15.007 4.18298 15.0483 5.25684L15.3081 11.9971C15.3315 12.6073 15.0745 13.1953 14.6108 13.5928L11.7358 16.0576C10.7372 16.9136 9.2628 16.9136 8.26416 16.0576L5.38916 13.5928C4.92547 13.1953 4.66846 12.6073 4.69189 11.9971L4.95068 5.25684C4.99199 4.18297 5.87504 3.33301 6.94971 3.33301H13.0503Z" fill="#F73744" stroke="white" stroke-width="1.33333"/>
<mask id="mask1_1723_27241" style="mask-type:luminance" maskUnits="userSpaceOnUse" x="4" y="2" width="12" height="16">
<path d="M13.0503 3.33301C14.1249 3.33303 15.007 4.18298 15.0483 5.25684L15.3081 11.9971C15.3315 12.6073 15.0745 13.1953 14.6108 13.5928L11.7358 16.0576C10.7372 16.9136 9.2628 16.9136 8.26416 16.0576L5.38916 13.5928C4.92547 13.1953 4.66846 12.6073 4.69189 11.9971L4.95068 5.25684C4.99199 4.18297 5.87504 3.33301 6.94971 3.33301H13.0503Z" fill="white" stroke="white" stroke-width="1.33333"/>
</mask>
<g mask="url(#mask1_1723_27241)">
<path fill-rule="evenodd" clip-rule="evenodd" d="M9.33325 11C9.33325 10.8159 9.18401 10.6666 8.99992 10.6666H7.66659C7.48249 10.6666 7.33325 10.5174 7.33325 10.3333V9.66665C7.33325 9.48255 7.48249 9.33331 7.66659 9.33331H8.99992C9.18401 9.33331 9.33325 9.18407 9.33325 8.99998V8.33331C9.33325 8.14922 9.18401 7.99998 8.99992 7.99998H8.33325C8.14916 7.99998 7.99992 7.85074 7.99992 7.66665V6.99998C7.99992 6.81589 8.14916 6.66665 8.33325 6.66665H8.99992C9.18401 6.66665 9.33325 6.51741 9.33325 6.33331V5.66665C9.33325 5.48255 9.48249 5.33331 9.66659 5.33331H10.3333C10.5173 5.33331 10.6666 5.48255 10.6666 5.66665V6.33331C10.6666 6.51741 10.8158 6.66665 10.9999 6.66665H11.6666C11.8507 6.66665 11.9999 6.81588 11.9999 6.99998V7.66665C11.9999 7.85074 11.8507 7.99998 11.6666 7.99998H10.9999C10.8158 7.99998 10.6666 8.14922 10.6666 8.33331V8.99998C10.6666 9.18407 10.8158 9.33331 10.9999 9.33331H12.3333C12.5173 9.33331 12.6666 9.48255 12.6666 9.66665V10.3333C12.6666 10.5174 12.5173 10.6666 12.3333 10.6666H10.9999C10.8158 10.6666 10.6666 10.8159 10.6666 11V13C10.6666 13.1841 10.5173 13.3333 10.3333 13.3333H9.66659C9.48249 13.3333 9.33325 13.1841 9.33325 13V11Z" fill="white"/>
<path fill-rule="evenodd" clip-rule="evenodd" d="M11.2035 13.4255C10.9889 12.9767 10.5307 12.6667 10 12.6667C9.46934 12.6667 9.01109 12.9767 8.79647 13.4255C7.17545 13.6809 6 14.4385 6 15.3334C6 16.4379 7.79086 17.3334 10 17.3334C12.2091 17.3334 14 16.4379 14 15.3334C14 14.4385 12.8246 13.6809 11.2035 13.4255Z" fill="#1251A1"/>
</g>
</g>
</svg>
