<svg width="28" height="20" viewBox="0 0 28 20" fill="none" xmlns="http://www.w3.org/2000/svg">
<rect width="28" height="20" rx="2" fill="white"/>
<mask id="mask0_1723_27262" style="mask-type:luminance" maskUnits="userSpaceOnUse" x="0" y="0" width="28" height="20">
<rect width="28" height="20" rx="2" fill="white"/>
</mask>
<g mask="url(#mask0_1723_27262)">
<rect width="28" height="20" fill="#07319C"/>
<path d="M18.6663 5.66632H22.6663C23.2187 5.66632 23.666 6.11354 23.6663 6.66534V10.0003C23.6662 11.5426 22.8989 12.6257 22.1106 13.3353C21.7161 13.6903 21.3197 13.9482 21.0227 14.1165C20.8747 14.2004 20.7517 14.2613 20.6672 14.3011H20.6653C20.5808 14.2612 20.4578 14.2004 20.3098 14.1165C20.0128 13.9482 19.6174 13.6903 19.2229 13.3353C18.4345 12.6257 17.6664 11.5427 17.6663 10.0003V6.66534C17.6665 6.11365 18.114 5.6665 18.6663 5.66632Z" fill="#FFD033" stroke="white" stroke-width="0.666667"/>
<mask id="mask1_1723_27262" style="mask-type:luminance" maskUnits="userSpaceOnUse" x="17" y="5" width="7" height="10">
<path d="M18.6663 5.66632H22.6663C23.2187 5.66632 23.666 6.11354 23.6663 6.66534V10.0003C23.6662 11.5426 22.8989 12.6257 22.1106 13.3353C21.7161 13.6903 21.3197 13.9482 21.0227 14.1165C20.8747 14.2004 20.7517 14.2613 20.6672 14.3011H20.6653C20.5808 14.2612 20.4578 14.2004 20.3098 14.1165C20.0128 13.9482 19.6174 13.6903 19.2229 13.3353C18.4345 12.6257 17.6664 11.5427 17.6663 10.0003V6.66534C17.6665 6.11365 18.114 5.6665 18.6663 5.66632Z" fill="white" stroke="white" stroke-width="0.666667"/>
</mask>
<g mask="url(#mask1_1723_27262)">
<path fill-rule="evenodd" clip-rule="evenodd" d="M21.9999 9.33329C22.3681 9.33329 22.6666 8.73634 22.6666 7.99996C22.6666 7.26358 22.3681 6.66663 21.9999 6.66663C21.6317 6.66663 21.3333 7.26358 21.3333 7.99996C21.3333 8.73634 21.6317 9.33329 21.9999 9.33329Z" fill="#BA5B1F"/>
<path fill-rule="evenodd" clip-rule="evenodd" d="M19.5385 9.29309C19.8845 9.16716 19.9608 8.50413 19.709 7.81216C19.4571 7.12018 18.9724 6.66132 18.6265 6.78725C18.2805 6.91317 18.2042 7.57621 18.456 8.26818C18.7079 8.96015 19.1925 9.41902 19.5385 9.29309Z" fill="#FF9F3E"/>
<path fill-rule="evenodd" clip-rule="evenodd" d="M19.0514 9.27083C19.3851 9.42644 19.9079 9.01155 20.2191 8.34417C20.5303 7.67678 20.5121 7.00961 20.1784 6.85401C19.8447 6.69841 19.3219 7.11329 19.0107 7.78068C18.6995 8.44806 18.7177 9.11523 19.0514 9.27083Z" fill="#FF937F"/>
<path fill-rule="evenodd" clip-rule="evenodd" d="M20 10.6666L20.6667 9.33331L21.3333 10.6666V12H20V10.6666Z" fill="#01A827"/>
</g>
<path d="M12.333 0.495117C12.333 0.710418 12.2289 0.912945 12.0537 1.03809L7.66699 4.1709V5.17969L11.7646 8.69238C12.1547 9.02696 11.9182 9.66674 11.4043 9.66699C11.2889 9.66699 11.176 9.63057 11.082 9.56348L6.55859 6.33301H5.42871L0.176758 9.61621L-0.333008 9.93457V8.49512L-0.193359 8.39551L4.33301 5.16211V4.15234L-0.216797 0.25293L-0.901367 -0.333008H0.773438L0.860352 -0.271484L5.43945 3H6.57129L11.8232 -0.282227L12.333 -0.601562V0.495117Z" fill="#DB1E36" stroke="white" stroke-width="0.666667"/>
<path fill-rule="evenodd" clip-rule="evenodd" d="M0 3.33333V6H4.66667V9.33333C4.66667 9.70152 4.96514 10 5.33333 10H6.66667C7.03486 10 7.33333 9.70152 7.33333 9.33333V6H12C12.3682 6 12.6667 5.70152 12.6667 5.33333V4C12.6667 3.63181 12.3682 3.33333 12 3.33333H7.33333V0H4.66667V3.33333H0Z" fill="white"/>
<path fill-rule="evenodd" clip-rule="evenodd" d="M0 4H5.33333V3.33333V0H6.66667V3.33333V4H12V5.33333H6.66667V6V9.33333H5.33333V6V5.33333H0V4Z" fill="#DB1E36"/>
</g>
</svg>
