<svg width="28" height="20" viewBox="0 0 28 20" fill="none" xmlns="http://www.w3.org/2000/svg">
<rect width="28" height="20" rx="2" fill="white"/>
<mask id="mask0_1723_27265" style="mask-type:luminance" maskUnits="userSpaceOnUse" x="0" y="0" width="28" height="20">
<rect width="28" height="20" rx="2" fill="white"/>
</mask>
<g mask="url(#mask0_1723_27265)">
<path fill-rule="evenodd" clip-rule="evenodd" d="M0 20H28V0H0V20Z" fill="#30C375"/>
<rect x="4" width="4" height="20" fill="#DE414F"/>
<path fill-rule="evenodd" clip-rule="evenodd" d="M6 3.99998C7.10457 3.99998 8 3.40303 8 2.66665C8 1.93027 7.10457 1.33331 6 1.33331C4.89543 1.33331 4 1.93027 4 2.66665C4 3.40303 4.89543 3.99998 6 3.99998Z" fill="white"/>
<mask id="mask1_1723_27265" style="mask-type:luminance" maskUnits="userSpaceOnUse" x="4" y="1" width="4" height="3">
<path fill-rule="evenodd" clip-rule="evenodd" d="M6 3.99998C7.10457 3.99998 8 3.40303 8 2.66665C8 1.93027 7.10457 1.33331 6 1.33331C4.89543 1.33331 4 1.93027 4 2.66665C4 3.40303 4.89543 3.99998 6 3.99998Z" fill="white"/>
</mask>
<g mask="url(#mask1_1723_27265)">
<path fill-rule="evenodd" clip-rule="evenodd" d="M5.99992 3.33333C6.36811 3.33333 6.66659 3.03486 6.66659 2.66667C6.66659 2.29848 6.36811 2 5.99992 2C5.63173 2 5.33325 2.29848 5.33325 2.66667C5.33325 3.03486 5.63173 3.33333 5.99992 3.33333Z" fill="#DD404F"/>
<rect x="4" y="1.33331" width="2" height="1.33333" fill="#FBAF29"/>
<rect x="6" y="2.66663" width="2" height="1.33333" fill="#FBAF29"/>
</g>
<path fill-rule="evenodd" clip-rule="evenodd" d="M6 18.6667C7.10457 18.6667 8 18.0697 8 17.3333C8 16.597 7.10457 16 6 16C4.89543 16 4 16.597 4 17.3333C4 18.0697 4.89543 18.6667 6 18.6667Z" fill="white"/>
<mask id="mask2_1723_27265" style="mask-type:luminance" maskUnits="userSpaceOnUse" x="4" y="16" width="4" height="3">
<path fill-rule="evenodd" clip-rule="evenodd" d="M6 18.6667C7.10457 18.6667 8 18.0697 8 17.3333C8 16.597 7.10457 16 6 16C4.89543 16 4 16.597 4 17.3333C4 18.0697 4.89543 18.6667 6 18.6667Z" fill="white"/>
</mask>
<g mask="url(#mask2_1723_27265)">
<path fill-rule="evenodd" clip-rule="evenodd" d="M5.99992 18C6.36811 18 6.66659 17.7015 6.66659 17.3334C6.66659 16.9652 6.36811 16.6667 5.99992 16.6667C5.63173 16.6667 5.33325 16.9652 5.33325 17.3334C5.33325 17.7015 5.63173 18 5.99992 18Z" fill="#DD404F"/>
<rect x="4" y="16" width="2" height="1.33333" fill="#FBAF29"/>
<rect x="6" y="17.3333" width="2" height="1.33333" fill="#FBAF29"/>
</g>
<path fill-rule="evenodd" clip-rule="evenodd" d="M6 12C7.10457 12 8 11.403 8 10.6666C8 9.93027 7.10457 9.33331 6 9.33331C4.89543 9.33331 4 9.93027 4 10.6666C4 11.403 4.89543 12 6 12Z" fill="#28AE67"/>
<mask id="mask3_1723_27265" style="mask-type:luminance" maskUnits="userSpaceOnUse" x="4" y="9" width="4" height="3">
<path fill-rule="evenodd" clip-rule="evenodd" d="M6 12C7.10457 12 8 11.403 8 10.6666C8 9.93027 7.10457 9.33331 6 9.33331C4.89543 9.33331 4 9.93027 4 10.6666C4 11.403 4.89543 12 6 12Z" fill="white"/>
</mask>
<g mask="url(#mask3_1723_27265)">
<path fill-rule="evenodd" clip-rule="evenodd" d="M6.00008 11.3333C6.73646 11.3333 7.33341 11.0349 7.33341 10.6667C7.33341 10.2985 6.73646 10 6.00008 10C5.2637 10 4.66675 10.2985 4.66675 10.6667C4.66675 11.0349 5.2637 11.3333 6.00008 11.3333Z" fill="#DD404F"/>
</g>
<path fill-rule="evenodd" clip-rule="evenodd" d="M6 14.6666C7.10457 14.6666 8 14.3682 8 14C8 13.6318 7.10457 13.3333 6 13.3333C4.89543 13.3333 4 13.6318 4 14C4 14.3682 4.89543 14.6666 6 14.6666Z" fill="#28AE67"/>
<mask id="mask4_1723_27265" style="mask-type:luminance" maskUnits="userSpaceOnUse" x="4" y="13" width="4" height="2">
<path fill-rule="evenodd" clip-rule="evenodd" d="M6 14.6666C7.10457 14.6666 8 14.3682 8 14C8 13.6318 7.10457 13.3333 6 13.3333C4.89543 13.3333 4 13.6318 4 14C4 14.3682 4.89543 14.6666 6 14.6666Z" fill="white"/>
</mask>
<g mask="url(#mask4_1723_27265)">
</g>
<path fill-rule="evenodd" clip-rule="evenodd" d="M6 7.99998C7.10457 7.99998 8 7.40303 8 6.66665C8 5.93027 7.10457 5.33331 6 5.33331C4.89543 5.33331 4 5.93027 4 6.66665C4 7.40303 4.89543 7.99998 6 7.99998Z" fill="#FBAF29"/>
<mask id="mask5_1723_27265" style="mask-type:luminance" maskUnits="userSpaceOnUse" x="4" y="5" width="4" height="3">
<path fill-rule="evenodd" clip-rule="evenodd" d="M6 7.99998C7.10457 7.99998 8 7.40303 8 6.66665C8 5.93027 7.10457 5.33331 6 5.33331C4.89543 5.33331 4 5.93027 4 6.66665C4 7.40303 4.89543 7.99998 6 7.99998Z" fill="white"/>
</mask>
<g mask="url(#mask5_1723_27265)">
<path fill-rule="evenodd" clip-rule="evenodd" d="M5.99992 7.33333C6.36811 7.33333 6.66659 7.03486 6.66659 6.66667C6.66659 6.29848 6.36811 6 5.99992 6C5.63173 6 5.33325 6.29848 5.33325 6.66667C5.33325 7.03486 5.63173 7.33333 5.99992 7.33333Z" fill="#DD404F"/>
<rect x="4" y="5.33331" width="1.33333" height="2.66667" fill="#28AE67"/>
<rect x="6.66675" y="5.33331" width="1.33333" height="2.66667" fill="#28AE67"/>
</g>
<path fill-rule="evenodd" clip-rule="evenodd" d="M14.8227 4.23818C14.5861 4.52023 14.6229 4.94073 14.9049 5.1774C15.187 5.41407 15.6075 5.37728 15.8441 5.09523C16.0808 4.81318 16.044 4.39267 15.762 4.15601C15.4799 3.91934 15.0594 3.95613 14.8227 4.23818ZM13.0953 6.82267C12.8132 6.586 12.3927 6.62279 12.1561 6.90484C11.9194 7.18689 11.9562 7.6074 12.2382 7.84407C12.5203 8.08073 12.9408 8.04394 13.1775 7.76189C13.4141 7.47984 13.3773 7.05934 13.0953 6.82267ZM11.762 5.48934C11.4799 5.25267 11.0594 5.28946 10.8227 5.57151C10.5861 5.85356 10.6229 6.27406 10.9049 6.51073C11.187 6.7474 11.6075 6.71061 11.8441 6.42856C12.0808 6.14651 12.044 5.72601 11.762 5.48934ZM14.4286 2.82267C14.1466 2.58601 13.7261 2.62279 13.4894 2.90484C13.2527 3.18689 13.2895 3.6074 13.5716 3.84407C13.8536 4.08073 14.2741 4.04394 14.5108 3.76189C14.7475 3.47984 14.7107 3.05934 14.4286 2.82267ZM13.762 4.82267C13.4799 4.58601 13.0594 4.62279 12.8227 4.90484C12.5861 5.18689 12.6229 5.6074 12.9049 5.84407C13.187 6.08073 13.6075 6.04394 13.8441 5.76189C14.0808 5.47984 14.044 5.05934 13.762 4.82267Z" fill="white"/>
<path fill-rule="evenodd" clip-rule="evenodd" d="M17.4761 9.45051C15.888 11.0386 13.3133 11.0386 11.7253 9.45051C11.5714 9.29664 11.4324 9.13349 11.3083 8.96288C12.8985 10.1191 15.1374 9.98015 16.5716 8.54598C18.0057 7.11181 18.1447 4.8729 16.9885 3.28278C17.1591 3.40683 17.3222 3.5458 17.4761 3.69968C19.0641 5.28773 19.0641 7.86246 17.4761 9.45051Z" fill="white"/>
</g>
</svg>
