<svg width="28" height="20" viewBox="0 0 28 20" fill="none" xmlns="http://www.w3.org/2000/svg">
<rect width="28" height="20" rx="2" fill="white"/>
<mask id="mask0_1723_27270" style="mask-type:luminance" maskUnits="userSpaceOnUse" x="0" y="0" width="28" height="20">
<rect width="28" height="20" rx="2" fill="white"/>
</mask>
<g mask="url(#mask0_1723_27270)">
<path fill-rule="evenodd" clip-rule="evenodd" d="M28 0H0V1.33333H28V0ZM28 2.66667H0V4H28V2.66667ZM0 5.33333H28V6.66667H0V5.33333ZM28 8H0V9.33333H28V8ZM0 10.6667H28V12H0V10.6667ZM28 13.3333H0V14.6667H28V13.3333ZM0 16H28V17.3333H0V16ZM28 18.6667H0V20H28V18.6667Z" fill="#D02F44"/>
<rect width="12" height="9.33333" fill="#46467F"/>
<g filter="url(#filter0_d_1723_27270)">
<path fill-rule="evenodd" clip-rule="evenodd" d="M2.66659 2.00004C2.66659 2.36823 2.36811 2.66671 1.99992 2.66671C1.63173 2.66671 1.33325 2.36823 1.33325 2.00004C1.33325 1.63185 1.63173 1.33337 1.99992 1.33337C2.36811 1.33337 2.66659 1.63185 2.66659 2.00004ZM5.33325 2.00004C5.33325 2.36823 5.03478 2.66671 4.66659 2.66671C4.2984 2.66671 3.99992 2.36823 3.99992 2.00004C3.99992 1.63185 4.2984 1.33337 4.66659 1.33337C5.03478 1.33337 5.33325 1.63185 5.33325 2.00004ZM7.33325 2.66671C7.70144 2.66671 7.99992 2.36823 7.99992 2.00004C7.99992 1.63185 7.70144 1.33337 7.33325 1.33337C6.96506 1.33337 6.66659 1.63185 6.66659 2.00004C6.66659 2.36823 6.96506 2.66671 7.33325 2.66671ZM10.6666 2.00004C10.6666 2.36823 10.3681 2.66671 9.99992 2.66671C9.63173 2.66671 9.33325 2.36823 9.33325 2.00004C9.33325 1.63185 9.63173 1.33337 9.99992 1.33337C10.3681 1.33337 10.6666 1.63185 10.6666 2.00004ZM3.33325 4.00004C3.70144 4.00004 3.99992 3.70156 3.99992 3.33337C3.99992 2.96518 3.70144 2.66671 3.33325 2.66671C2.96506 2.66671 2.66659 2.96518 2.66659 3.33337C2.66659 3.70156 2.96506 4.00004 3.33325 4.00004ZM6.66659 3.33337C6.66659 3.70156 6.36811 4.00004 5.99992 4.00004C5.63173 4.00004 5.33325 3.70156 5.33325 3.33337C5.33325 2.96518 5.63173 2.66671 5.99992 2.66671C6.36811 2.66671 6.66659 2.96518 6.66659 3.33337ZM8.66658 4.00004C9.03477 4.00004 9.33325 3.70156 9.33325 3.33337C9.33325 2.96518 9.03477 2.66671 8.66658 2.66671C8.2984 2.66671 7.99992 2.96518 7.99992 3.33337C7.99992 3.70156 8.2984 4.00004 8.66658 4.00004ZM10.6666 4.66671C10.6666 5.0349 10.3681 5.33337 9.99992 5.33337C9.63173 5.33337 9.33325 5.0349 9.33325 4.66671C9.33325 4.29852 9.63173 4.00004 9.99992 4.00004C10.3681 4.00004 10.6666 4.29852 10.6666 4.66671ZM7.33325 5.33337C7.70144 5.33337 7.99992 5.0349 7.99992 4.66671C7.99992 4.29852 7.70144 4.00004 7.33325 4.00004C6.96506 4.00004 6.66659 4.29852 6.66659 4.66671C6.66659 5.0349 6.96506 5.33337 7.33325 5.33337ZM5.33325 4.66671C5.33325 5.0349 5.03478 5.33337 4.66659 5.33337C4.2984 5.33337 3.99992 5.0349 3.99992 4.66671C3.99992 4.29852 4.2984 4.00004 4.66659 4.00004C5.03478 4.00004 5.33325 4.29852 5.33325 4.66671ZM1.99992 5.33337C2.36811 5.33337 2.66659 5.0349 2.66659 4.66671C2.66659 4.29852 2.36811 4.00004 1.99992 4.00004C1.63173 4.00004 1.33325 4.29852 1.33325 4.66671C1.33325 5.0349 1.63173 5.33337 1.99992 5.33337ZM3.99992 6.00004C3.99992 6.36823 3.70144 6.66671 3.33325 6.66671C2.96506 6.66671 2.66659 6.36823 2.66659 6.00004C2.66659 5.63185 2.96506 5.33337 3.33325 5.33337C3.70144 5.33337 3.99992 5.63185 3.99992 6.00004ZM5.99992 6.66671C6.36811 6.66671 6.66659 6.36823 6.66659 6.00004C6.66659 5.63185 6.36811 5.33337 5.99992 5.33337C5.63173 5.33337 5.33325 5.63185 5.33325 6.00004C5.33325 6.36823 5.63173 6.66671 5.99992 6.66671ZM9.33325 6.00004C9.33325 6.36823 9.03477 6.66671 8.66658 6.66671C8.2984 6.66671 7.99992 6.36823 7.99992 6.00004C7.99992 5.63185 8.2984 5.33337 8.66658 5.33337C9.03477 5.33337 9.33325 5.63185 9.33325 6.00004ZM9.99992 8.00004C10.3681 8.00004 10.6666 7.70156 10.6666 7.33337C10.6666 6.96518 10.3681 6.66671 9.99992 6.66671C9.63173 6.66671 9.33325 6.96518 9.33325 7.33337C9.33325 7.70156 9.63173 8.00004 9.99992 8.00004ZM7.99992 7.33337C7.99992 7.70156 7.70144 8.00004 7.33325 8.00004C6.96506 8.00004 6.66659 7.70156 6.66659 7.33337C6.66659 6.96518 6.96506 6.66671 7.33325 6.66671C7.70144 6.66671 7.99992 6.96518 7.99992 7.33337ZM4.66659 8.00004C5.03478 8.00004 5.33325 7.70156 5.33325 7.33337C5.33325 6.96518 5.03478 6.66671 4.66659 6.66671C4.2984 6.66671 3.99992 6.96518 3.99992 7.33337C3.99992 7.70156 4.2984 8.00004 4.66659 8.00004ZM2.66659 7.33337C2.66659 7.70156 2.36811 8.00004 1.99992 8.00004C1.63173 8.00004 1.33325 7.70156 1.33325 7.33337C1.33325 6.96518 1.63173 6.66671 1.99992 6.66671C2.36811 6.66671 2.66659 6.96518 2.66659 7.33337Z" fill="url(#paint0_linear_1723_27270)"/>
</g>
</g>
<defs>
<filter id="filter0_d_1723_27270" x="1.33325" y="1.33337" width="9.33325" height="7.66663" filterUnits="userSpaceOnUse" color-interpolation-filters="sRGB">
<feFlood flood-opacity="0" result="BackgroundImageFix"/>
<feColorMatrix in="SourceAlpha" type="matrix" values="0 0 0 0 0 0 0 0 0 0 0 0 0 0 0 0 0 0 127 0" result="hardAlpha"/>
<feOffset dy="1"/>
<feColorMatrix type="matrix" values="0 0 0 0 0 0 0 0 0 0 0 0 0 0 0 0 0 0 0.06 0"/>
<feBlend mode="normal" in2="BackgroundImageFix" result="effect1_dropShadow_1723_27270"/>
<feBlend mode="normal" in="SourceGraphic" in2="effect1_dropShadow_1723_27270" result="shape"/>
</filter>
<linearGradient id="paint0_linear_1723_27270" x1="1.33325" y1="1.33337" x2="1.33325" y2="8.00004" gradientUnits="userSpaceOnUse">
<stop stop-color="white"/>
<stop offset="1" stop-color="#F0F0F0"/>
</linearGradient>
</defs>
</svg>
