<svg width="28" height="20" viewBox="0 0 28 20" fill="none" xmlns="http://www.w3.org/2000/svg">
<rect width="28" height="20" rx="2" fill="white"/>
<mask id="mask0_1723_27274" style="mask-type:luminance" maskUnits="userSpaceOnUse" x="0" y="0" width="28" height="20">
<rect width="28" height="20" rx="2" fill="white"/>
</mask>
<g mask="url(#mask0_1723_27274)">
<rect width="28" height="20" fill="#07319C"/>
<path fill-rule="evenodd" clip-rule="evenodd" d="M17.3333 10C17.3333 8.9063 17.3333 7.61319 17.3333 6.66586C17.3333 5.92948 17.9302 5.33337 18.6666 5.33337H22.6666C23.403 5.33337 23.9999 5.92948 23.9999 6.66586C23.9999 7.61319 23.9999 8.9063 23.9999 10C23.9999 13.3334 20.6666 14.6667 20.6666 14.6667C20.6666 14.6667 17.3333 13.3334 17.3333 10Z" fill="#008339"/>
<mask id="mask1_1723_27274" style="mask-type:luminance" maskUnits="userSpaceOnUse" x="17" y="5" width="7" height="10">
<path fill-rule="evenodd" clip-rule="evenodd" d="M17.3333 10C17.3333 8.9063 17.3333 7.61319 17.3333 6.66586C17.3333 5.92948 17.9302 5.33337 18.6666 5.33337H22.6666C23.403 5.33337 23.9999 5.92948 23.9999 6.66586C23.9999 7.61319 23.9999 8.9063 23.9999 10C23.9999 13.3334 20.6666 14.6667 20.6666 14.6667C20.6666 14.6667 17.3333 13.3334 17.3333 10Z" fill="white"/>
</mask>
<g mask="url(#mask1_1723_27274)">
<path fill-rule="evenodd" clip-rule="evenodd" d="M19.3332 8.00008C19.7014 8.00008 19.9998 7.7016 19.9998 7.33341C19.9998 6.96522 19.7014 6.66675 19.3332 6.66675C18.965 6.66675 18.6665 6.96522 18.6665 7.33341C18.6665 7.7016 18.965 8.00008 19.3332 8.00008ZM19.3332 9.33341C19.7014 9.33341 19.9998 9.03494 19.9998 8.66675C19.9998 8.29856 19.7014 8.00008 19.3332 8.00008C18.965 8.00008 18.6665 8.29856 18.6665 8.66675C18.6665 9.03494 18.965 9.33341 19.3332 9.33341ZM19.3332 10.6667C18.965 10.6667 18.6665 10.3683 18.6665 10.0001C18.6665 9.63189 18.965 9.33341 19.3332 9.33341C19.7014 9.33341 19.9998 9.63189 19.9998 10.0001C19.9998 10.3683 19.7014 10.6667 19.3332 10.6667ZM19.3332 10.6667C19.7014 10.6667 19.9998 10.9652 19.9998 11.3334C19.9998 11.7016 19.7014 12.0001 19.3332 12.0001C18.965 12.0001 18.6665 11.7016 18.6665 11.3334C18.6665 10.9652 18.965 10.6667 19.3332 10.6667ZM22.6665 11.3334C22.6665 11.7016 22.368 12.0001 21.9998 12.0001C21.6316 12.0001 21.3332 11.7016 21.3332 11.3334C21.3332 10.9652 21.6316 10.6667 21.9998 10.6667C22.368 10.6667 22.6665 10.9652 22.6665 11.3334ZM21.9998 9.33341C22.368 9.33341 22.6665 9.63189 22.6665 10.0001C22.6665 10.3683 22.368 10.6667 21.9998 10.6667C21.6316 10.6667 21.3332 10.3683 21.3332 10.0001C21.3332 9.63189 21.6316 9.33341 21.9998 9.33341ZM21.9998 8.00008C21.6316 8.00008 21.3332 8.29856 21.3332 8.66675C21.3332 9.03494 21.6316 9.33341 21.9998 9.33341C22.368 9.33341 22.6665 9.03494 22.6665 8.66675C22.6665 8.29856 22.368 8.00008 21.9998 8.00008ZM21.9998 8.00008C21.6316 8.00008 21.3332 7.7016 21.3332 7.33341C21.3332 6.96522 21.6316 6.66675 21.9998 6.66675C22.368 6.66675 22.6665 6.96522 22.6665 7.33341C22.6665 7.7016 22.368 8.00008 21.9998 8.00008Z" fill="#FFD033"/>
<path fill-rule="evenodd" clip-rule="evenodd" d="M20.6667 11.3334C21.0349 11.3334 21.3333 10.4379 21.3333 9.33337C21.3333 8.2288 21.0349 7.33337 20.6667 7.33337C20.2985 7.33337 20 8.2288 20 9.33337C20 10.4379 20.2985 11.3334 20.6667 11.3334Z" fill="white"/>
</g>
<path d="M16.6667 13.3333C16.6667 14.6048 18.4879 15.3333 20.6667 15.3333C22.8455 15.3333 24.6667 14.6048 24.6667 13.3333C24.6667 12.9651 24.3683 12.6666 24.0001 12.6666C23.6319 12.6666 23.3334 12.9651 23.3334 13.3333C23.3334 13.346 23.1718 13.4989 22.7762 13.6571C22.2391 13.8719 21.4825 14 20.6667 14C19.851 14 19.0944 13.8719 18.5573 13.6571C18.1617 13.4989 18.0001 13.346 18.0001 13.3333C18.0001 12.9651 17.7016 12.6666 17.3334 12.6666C16.9652 12.6666 16.6667 12.9651 16.6667 13.3333Z" fill="#FFD033"/>
<path d="M12.333 0.495117C12.333 0.710418 12.2289 0.912945 12.0537 1.03809L7.66699 4.1709V5.17969L11.7646 8.69238C12.1547 9.02696 11.9182 9.66674 11.4043 9.66699C11.2889 9.66699 11.176 9.63057 11.082 9.56348L6.55859 6.33301H5.42871L0.176758 9.61621L-0.333008 9.93457V8.49512L-0.193359 8.39551L4.33301 5.16211V4.15234L-0.216797 0.25293L-0.901367 -0.333008H0.773438L0.860352 -0.271484L5.43945 3H6.57129L11.8232 -0.282227L12.333 -0.601562V0.495117Z" fill="#DB1E36" stroke="white" stroke-width="0.666667"/>
<path fill-rule="evenodd" clip-rule="evenodd" d="M0 3.33333V6H4.66667V9.33333C4.66667 9.70152 4.96514 10 5.33333 10H6.66667C7.03486 10 7.33333 9.70152 7.33333 9.33333V6H12C12.3682 6 12.6667 5.70152 12.6667 5.33333V4C12.6667 3.63181 12.3682 3.33333 12 3.33333H7.33333V0H4.66667V3.33333H0Z" fill="white"/>
<path fill-rule="evenodd" clip-rule="evenodd" d="M0 4H5.33333V3.33333V0H6.66667V3.33333V4H12V5.33333H6.66667V6V9.33333H5.33333V6V5.33333H0V4Z" fill="#DB1E36"/>
</g>
</svg>
