<svg width="28" height="20" viewBox="0 0 28 20" fill="none" xmlns="http://www.w3.org/2000/svg">
<rect width="28" height="20" rx="2" fill="white"/>
<mask id="mask0_1723_27271" style="mask-type:luminance" maskUnits="userSpaceOnUse" x="0" y="0" width="28" height="20">
<rect width="28" height="20" rx="2" fill="white"/>
</mask>
<g mask="url(#mask0_1723_27271)">
<rect width="28" height="20" fill="#E31F37"/>
<path fill-rule="evenodd" clip-rule="evenodd" d="M-1.33325 10.6666H14.6667V-1.33337H-1.33325V10.6666Z" fill="#083B9A"/>
<path fill-rule="evenodd" clip-rule="evenodd" d="M6.6666 2.66673L5.7238 2.94287L5.99994 2.00006L5.7238 1.05725L6.6666 1.33339L7.60941 1.05725L7.33327 2.00006L7.60941 2.94287L6.6666 2.66673ZM6.6666 9.33339L5.7238 9.60954L5.99994 8.66673L5.7238 7.72392L6.6666 8.00006L7.60941 7.72392L7.33327 8.66673L7.60941 9.60954L6.6666 9.33339ZM3.05713 6.2762L3.99994 6.00006L4.94275 6.2762L4.6666 5.33339L4.94275 4.39058L3.99994 4.66673L3.05713 4.39058L3.33327 5.33339L3.05713 6.2762ZM9.99994 5.33339L9.05713 5.60954L9.33327 4.66673L9.05713 3.72392L9.99994 4.00006L10.9427 3.72392L10.6666 4.66673L10.9427 5.60954L9.99994 5.33339ZM8.6666 7.00006C8.6666 7.18415 8.51737 7.33339 8.33327 7.33339C8.14918 7.33339 7.99994 7.18415 7.99994 7.00006C7.99994 6.81597 8.14918 6.66673 8.33327 6.66673C8.51737 6.66673 8.6666 6.81597 8.6666 7.00006Z" fill="white"/>
</g>
</svg>
