<svg width="28" height="20" viewBox="0 0 28 20" fill="none" xmlns="http://www.w3.org/2000/svg">
<rect width="28" height="20" rx="2" fill="#009F60"/>
<mask id="mask0_1723_27293" style="mask-type:luminance" maskUnits="userSpaceOnUse" x="0" y="0" width="28" height="20">
<rect width="28" height="20" rx="2" fill="white"/>
</mask>
<g mask="url(#mask0_1723_27293)">
<rect x="24" y="10.6666" width="4" height="9.33333" fill="#EA8B42"/>
<path fill-rule="evenodd" clip-rule="evenodd" d="M20 20H24V10.6666H20V20Z" fill="#1A1919"/>
<path fill-rule="evenodd" clip-rule="evenodd" d="M16 20H20V10.6666H16V20Z" fill="#DB3C36"/>
<path fill-rule="evenodd" clip-rule="evenodd" d="M21.014 3.48403C20.9222 3.48662 20.8546 3.45479 20.8304 3.40128C20.9803 3.31337 21.0816 3.33298 21.2072 3.44498C21.2314 3.35741 21.2072 3.25986 21.1541 3.20137C21.101 3.14287 21.0574 3.14287 20.9851 3.13788C20.9126 3.13307 20.84 3.11363 20.7917 3.11363C20.7209 2.95758 20.5435 3.02365 20.3731 3.08765C20.096 3.19156 19.8471 3.38029 19.7354 3.56868C19.6843 3.65487 19.6781 3.68877 19.6467 3.73763C19.6726 3.73436 19.6709 3.73436 19.687 3.72455C19.6676 3.93909 19.6419 4.13728 19.6805 4.26408C19.6323 4.44937 19.6709 4.56636 19.7288 4.62485C19.787 4.68335 19.811 4.70778 19.8207 4.77608C19.8303 4.84421 19.8593 4.90752 19.9076 4.94657C19.956 4.98563 19.985 5.04412 19.9898 5.07836C19.9946 5.11242 20.144 5.25935 20.2071 5.29771C20.2313 5.31216 20.2361 5.34158 20.2652 5.38047C20.2023 5.75105 20.4536 6.12163 20.3955 6.48722C20.4391 6.49203 20.497 6.48722 20.5551 6.47259C20.6033 6.78451 20.6323 6.93573 20.3618 7.02829C20.0912 7.12102 19.9433 7.21221 20.0187 7.31595C20.0719 7.38907 20.1819 7.32541 20.2507 7.26227C20.3038 7.21358 20.3666 7.16971 20.4149 7.15509C20.4632 7.14046 20.473 7.15509 20.4487 7.2184C20.4245 7.28188 20.2942 7.41831 20.2892 7.48662C20.2844 7.55492 20.3424 7.6036 20.4343 7.54993C20.526 7.49625 20.6067 7.35586 20.6275 7.27208C20.6419 7.21358 20.6662 7.17453 20.6612 7.27208C20.6564 7.36963 20.5985 7.54511 20.729 7.57436C20.8594 7.6036 20.8982 7.44756 20.8546 7.30614C20.8111 7.1649 20.7967 7.08679 20.8159 7.0381C20.8352 6.98924 20.8546 6.96016 20.9028 6.97462C20.9511 6.98924 21.0478 6.9698 21.043 6.89186C21.038 6.81393 20.9705 6.75044 20.8932 6.79431C20.8159 6.83819 20.7579 6.83165 20.7917 6.73582C20.8159 6.66752 20.8594 6.58459 20.8642 6.53109C20.9174 6.60902 21.2168 6.61883 21.3377 6.54571C21.3667 6.69195 21.444 6.82356 21.275 6.96016C21.1058 7.09659 20.9705 7.22821 20.9753 7.32576C20.9803 7.4233 21.0188 7.48163 21.1058 7.43294C21.1927 7.38425 21.2458 7.31595 21.2652 7.25264C21.2846 7.18915 21.3233 7.18915 21.3039 7.26726C21.2846 7.3452 21.2508 7.45737 21.2652 7.52567C21.2798 7.5938 21.386 7.59879 21.4294 7.5353C21.473 7.47199 21.4632 7.38907 21.4536 7.30614C21.444 7.22322 21.4586 7.13565 21.4778 7.10141C21.4971 7.06735 21.5357 7.01849 21.5744 7.11122C21.6132 7.20378 21.6324 7.2769 21.7097 7.30133C21.787 7.32576 21.845 7.29152 21.8306 7.19896C21.816 7.1064 21.7145 7.00386 21.6132 6.92593C21.5117 6.84799 21.5455 6.80894 21.5503 6.73582C21.5551 6.6627 21.5407 6.53109 21.5357 6.47259C21.6276 6.54089 21.7291 6.53109 21.7772 6.53109C21.8256 6.53109 21.905 6.51612 21.8256 6.44335C21.6662 6.29711 21.7193 6.2092 21.6082 6.10201C21.4971 5.99483 21.3956 5.82898 21.3619 5.68773C21.3279 5.54631 21.2535 5.28791 21.1058 5.15629C21.0236 5.08317 20.9995 4.88326 21.0188 4.6541C21.038 4.42494 21.043 4.17152 20.8352 4.05453C20.6275 3.93754 20.6323 3.83999 20.7 3.73763C20.7675 3.63526 20.8544 3.53513 20.9657 3.52791C20.9907 3.52636 21.0485 3.52154 21.072 3.50434C21.0615 3.49625 21.0446 3.48335 21.014 3.48403Z" fill="#EA8B42"/>
<path fill-rule="evenodd" clip-rule="evenodd" d="M19.6629 4.01066C19.6578 4.10976 19.6602 4.19698 19.6806 4.26408C19.6324 4.44937 19.671 4.56636 19.7289 4.62486C19.787 4.68335 19.811 4.70778 19.8208 4.77608C19.8304 4.84421 19.8594 4.90752 19.9077 4.94658C19.9561 4.98563 19.985 5.04412 19.9898 5.07836C19.9946 5.11243 20.1441 5.25935 20.2072 5.29772C20.2314 5.31217 20.2362 5.34159 20.2653 5.38047C20.2391 5.53445 20.2667 5.68843 20.3044 5.84206C19.9629 6.128 19.6259 5.99311 19.7677 5.70064C19.4841 5.92808 18.9947 5.92172 19.1042 5.70064C18.6597 5.85668 18.5245 5.72662 18.5824 5.58365C18.2089 5.73316 18.0155 5.59019 18.0671 5.4861C17.7578 5.57058 17.5581 5.51862 17.5259 5.46666C17.4938 5.4147 17.571 5.29772 17.6419 5.23922C17.5002 5.29118 17.3649 5.29118 17.236 5.27174C17.1073 5.25212 17.1395 5.21307 17.1652 5.15458C17.1911 5.09608 17.2249 5.00352 17.3279 4.91251C17.0815 4.9612 16.7723 4.99544 16.5549 4.92215C16.5139 4.90838 16.4438 4.8929 16.4872 4.8492C16.5307 4.80533 16.6612 4.69797 16.8206 4.62967C16.4582 4.68335 15.7722 4.7224 15.579 4.50305C15.7674 4.54193 16.0089 4.464 16.1635 4.40068C15.5548 4.33238 14.7239 3.91311 14.7141 3.50365C14.8881 3.78632 15.1878 3.88387 15.4873 3.97161C15.0813 3.73264 14.9123 3.44498 14.8979 3.25488C15.1297 3.47922 15.4823 3.73264 15.8303 3.79131C15.5838 3.65969 15.2649 3.27449 15.178 3.00627C15.3568 3.16713 15.8157 3.42554 16.1298 3.50847C15.9124 3.3378 15.5598 2.93316 15.579 2.70898C15.6611 2.79191 15.8641 2.94778 16.2794 3.19157C16.695 3.43535 16.9204 3.41746 17.2634 3.49058C17.2007 3.4061 17.1443 3.29393 17.1395 3.26468C17.241 3.27931 17.3375 3.31836 17.6274 3.49866C17.9173 3.67913 18.5507 3.73436 18.9126 3.89367C19.1781 4.01066 19.5566 3.93754 19.6629 4.01066Z" fill="#EA8B42"/>
<path fill-rule="evenodd" clip-rule="evenodd" d="M21.8494 6.51441C21.8653 6.50167 21.8653 6.47965 21.8256 6.44335C21.6661 6.29711 21.7193 6.2092 21.6082 6.10202C21.4971 5.99484 21.3956 5.82899 21.3618 5.68774C21.3279 5.54632 21.2535 5.28791 21.1057 5.1563C21.0236 5.08318 20.9994 4.88327 21.0188 4.6541C21.0353 4.45797 21.0413 4.24413 20.9124 4.1132C21.1539 4.0449 21.3764 4.0301 21.4536 4.10804C21.8545 4.00567 22.2025 3.97471 22.5438 3.95217C22.9368 3.92602 23.6775 3.75707 24.2058 3.39957C24.1736 3.52963 23.9933 3.72456 23.8321 3.8221C24.3668 3.69204 25.011 3.45152 25.5586 3.04206C25.5521 3.32817 25.3203 3.54253 25.1849 3.6597C25.5586 3.45152 26.106 3.19157 26.2928 2.86658C26.3749 3.19965 25.8162 3.63527 25.5133 3.87578C25.8226 3.72628 26.222 3.58813 26.3766 3.36705C26.3734 3.63681 26.0223 3.97161 25.6873 4.16653C26.0288 4.03664 26.4089 3.90004 26.6278 3.69858C26.6535 3.97006 25.6068 4.59406 25.0882 4.76456C25.5392 4.6541 26.1253 4.5046 26.383 4.34856C26.3701 4.40378 26.265 4.4812 26.1886 4.53763C25.8735 4.77058 25.3902 4.89565 25.0947 4.95311C25.1334 5.1157 25.0818 5.20671 24.9015 5.21961C24.7212 5.23268 24.2847 5.16284 24.0658 5.05221C24.0336 5.07165 23.9948 5.07836 23.9513 5.08318C24.1638 5.24404 24.2364 5.36103 24.1928 5.42933C24.1494 5.49763 23.9972 5.48524 23.8813 5.46099C23.973 5.71939 23.6662 5.70236 23.4102 5.55595C23.5117 5.68774 23.5263 5.79974 23.3861 5.82899C23.246 5.85823 23.1348 5.8486 22.9995 5.76068C22.9899 5.85823 22.8965 5.92327 22.7725 5.89075C23.1977 6.14916 23.1735 6.24344 23.101 6.34081C23.0286 6.43836 22.7749 6.41892 22.6397 6.33118C22.5817 6.53109 22.3506 6.53178 22.1782 6.37264C22.1766 6.4523 22.0121 6.6104 21.8494 6.51441Z" fill="#EA8B42"/>
<path fill-rule="evenodd" clip-rule="evenodd" d="M19.8771 7.49465C19.8841 7.43306 19.8899 7.36149 19.9414 7.3159C19.993 7.27031 20.0252 7.23142 20.0703 7.27684C20.1154 7.32244 20.0864 7.36476 20.0252 7.3842C19.964 7.40364 19.9222 7.45887 19.9124 7.49465C19.9028 7.53044 19.8706 7.54988 19.8771 7.49465Z" fill="black"/>
<path fill-rule="evenodd" clip-rule="evenodd" d="M20.2281 7.79369C20.1962 7.69149 20.2122 7.55971 20.2475 7.52066C20.283 7.4816 20.3281 7.45562 20.3699 7.49468C20.4117 7.53373 20.4278 7.58896 20.3505 7.62147C20.2821 7.6502 20.2765 7.72212 20.2734 7.77425C20.2701 7.8262 20.2475 7.85545 20.2281 7.79369Z" fill="black"/>
<path fill-rule="evenodd" clip-rule="evenodd" d="M20.6792 7.53043C20.6543 7.57224 20.6855 7.7417 20.7694 7.78385C20.8287 7.81379 20.8563 7.80673 20.8208 7.75134C20.7855 7.69611 20.7983 7.64415 20.8177 7.61491C20.8369 7.58566 20.8338 7.5337 20.7918 7.50772C20.75 7.48157 20.6984 7.49792 20.6792 7.53043Z" fill="black"/>
<path fill-rule="evenodd" clip-rule="evenodd" d="M21.043 7.37768C20.9899 7.33743 20.94 7.38577 20.9206 7.41983C20.8819 7.48814 20.911 7.58568 20.9722 7.64091C21.0334 7.69614 21.0236 7.62147 21.0043 7.58895C20.9851 7.55644 20.9818 7.4914 21.0236 7.48487C21.0655 7.4785 21.0946 7.41657 21.043 7.37768Z" fill="black"/>
<path fill-rule="evenodd" clip-rule="evenodd" d="M21.3458 7.4882C21.294 7.47289 21.2427 7.52726 21.2491 7.59229C21.2539 7.64081 21.2588 7.70274 21.307 7.73526C21.3394 7.75693 21.3619 7.77104 21.3458 7.71255C21.3296 7.65405 21.3555 7.60519 21.3843 7.58902C21.4133 7.57285 21.4004 7.50455 21.3458 7.4882Z" fill="black"/>
<path fill-rule="evenodd" clip-rule="evenodd" d="M21.7742 7.21186C21.7367 7.23836 21.7387 7.29978 21.7742 7.32249C21.8095 7.3452 21.8611 7.37771 21.8515 7.43294C21.8418 7.48816 21.8707 7.50778 21.8966 7.44601C21.9223 7.38425 21.9256 7.29324 21.8966 7.25092C21.8675 7.20859 21.8063 7.18915 21.7742 7.21186Z" fill="black"/>
<path fill-rule="evenodd" clip-rule="evenodd" d="M20.8402 3.39685C20.8626 3.44645 20.9268 3.47573 21.0137 3.47329L21.0138 3.47329C21.0414 3.47266 21.0581 3.48007 21.0783 3.51302C21.057 3.52858 21.017 3.5355 20.9664 3.53864C20.874 3.54463 20.7934 3.61551 20.7089 3.74358C20.6328 3.85861 20.6594 3.94322 20.8405 4.04515C21.0204 4.14645 21.0573 4.3229 21.0295 4.65501C21.0091 4.89632 21.0385 5.08204 21.1128 5.14825C21.2359 5.25785 21.3151 5.44723 21.3723 5.68523C21.4049 5.82155 21.5035 5.98611 21.6156 6.09426C21.642 6.11968 21.6608 6.14531 21.6759 6.17455C21.6845 6.19138 21.6908 6.20656 21.7011 6.23381C21.7364 6.32788 21.7603 6.36889 21.8328 6.43541C21.873 6.47228 21.8808 6.50294 21.856 6.5229C21.8396 6.53607 21.8101 6.54184 21.7772 6.54184L21.7594 6.54209C21.6814 6.54353 21.6312 6.53712 21.5734 6.50835C21.5649 6.5041 21.5566 6.49943 21.5484 6.49431L21.5533 6.54854C21.5554 6.57269 21.5571 6.59412 21.5585 6.6145C21.5619 6.66567 21.5629 6.70651 21.5609 6.73653C21.5602 6.7479 21.5589 6.7578 21.5565 6.77341C21.552 6.80223 21.5511 6.81012 21.552 6.82266C21.5541 6.85339 21.5723 6.88098 21.6197 6.9174C21.7438 7.01291 21.8276 7.11159 21.8411 7.1973C21.8561 7.29362 21.7957 7.33978 21.7065 7.31158C21.6518 7.29433 21.6237 7.25858 21.5913 7.1811C21.5895 7.17682 21.5848 7.16528 21.5798 7.15283C21.5738 7.13812 21.5674 7.12213 21.5645 7.11538C21.5487 7.07758 21.5344 7.06545 21.5218 7.0691C21.5109 7.07224 21.4988 7.08605 21.4871 7.10669C21.4672 7.14215 21.4555 7.23002 21.4642 7.3049L21.4643 7.3057C21.479 7.43235 21.4764 7.48584 21.4382 7.54139C21.3898 7.61232 21.2714 7.60592 21.2547 7.5279C21.2471 7.49176 21.2513 7.44401 21.2649 7.38064C21.2687 7.3632 21.273 7.34512 21.2786 7.32291L21.2935 7.26467C21.301 7.23461 21.2989 7.21777 21.2971 7.21742C21.2941 7.21685 21.283 7.23098 21.2754 7.2558C21.2537 7.32666 21.1951 7.39517 21.111 7.44233C21.0221 7.49208 20.9704 7.44147 20.9646 7.32629C20.9601 7.23452 21.0617 7.11827 21.2682 6.95179C21.3083 6.9194 21.3353 6.88649 21.3512 6.85203C21.3802 6.78963 21.376 6.74172 21.3442 6.61931C21.3376 6.59412 21.3335 6.57769 21.3302 6.56218C21.2081 6.6247 20.9527 6.61935 20.8715 6.55416C20.866 6.57982 20.854 6.61115 20.83 6.66844L20.8299 6.66873C20.8148 6.7047 20.8084 6.72075 20.8018 6.73941C20.7874 6.78014 20.7905 6.80165 20.8048 6.8075C20.8203 6.81383 20.8508 6.80599 20.8879 6.78496C20.9677 6.73966 21.0478 6.79898 21.0537 6.8912C21.0584 6.96755 20.9693 7.00598 20.8997 6.98492C20.8635 6.97408 20.8471 6.98841 20.8258 7.04206C20.8087 7.08535 20.8196 7.15642 20.8648 7.30297C20.9152 7.46653 20.8579 7.6143 20.7266 7.58485C20.6462 7.56684 20.6252 7.5031 20.6364 7.39158C20.6378 7.37777 20.6395 7.36456 20.6423 7.34394C20.6484 7.29886 20.6497 7.28859 20.6505 7.27153C20.6513 7.25583 20.6514 7.24344 20.6507 7.23449C20.6466 7.24411 20.6418 7.25855 20.6378 7.27467C20.613 7.37484 20.525 7.50926 20.4396 7.55922C20.3479 7.61278 20.2725 7.57117 20.2785 7.48584C20.2808 7.45445 20.3032 7.41441 20.3493 7.34964L20.3621 7.33182C20.4205 7.25102 20.4302 7.23679 20.4386 7.21453C20.4599 7.15927 20.4568 7.15365 20.418 7.16539C20.3744 7.17857 20.3141 7.21865 20.2579 7.27021C20.1624 7.35791 20.0612 7.39264 20.01 7.32229C19.9696 7.26661 19.9863 7.21168 20.054 7.15947C20.1135 7.11353 20.2138 7.06765 20.3583 7.01812C20.5872 6.93978 20.6048 6.86439 20.5577 6.48303C20.4995 6.49767 20.4401 6.50297 20.3849 6.48553C20.4086 6.3364 20.39 6.21654 20.3193 5.94268C20.2469 5.66253 20.2279 5.53633 20.2567 5.38693C20.2491 5.37691 20.2428 5.36707 20.2363 5.35566L20.2224 5.33071C20.2152 5.31835 20.2094 5.31161 20.2015 5.30691C20.1329 5.26516 19.9843 5.11683 19.9791 5.07986C19.9739 5.04254 19.9423 4.98837 19.9009 4.95495C19.8523 4.91566 19.8205 4.85164 19.8101 4.77761C19.8018 4.71981 19.7896 4.70125 19.7212 4.63244C19.6497 4.56028 19.6261 4.4305 19.6702 4.26722C19.6404 4.16932 19.6432 4.07505 19.671 3.7809L19.6745 3.74355C19.6713 3.74466 19.6679 3.74545 19.6634 3.7462L19.648 3.7483L19.6377 3.7318C19.6441 3.72186 19.6497 3.71216 19.6552 3.70153C19.6575 3.69699 19.6586 3.6947 19.6598 3.6924C19.6609 3.69007 19.6621 3.68772 19.6644 3.68298C19.6624 3.68701 19.6816 3.64609 19.6882 3.63283C19.6992 3.61048 19.7112 3.58835 19.7261 3.56318C19.8396 3.37187 20.0911 3.18195 20.3693 3.07758C20.633 2.97855 20.7389 2.97142 20.7917 3.10288C20.815 3.10288 20.8267 3.1045 20.8953 3.11568C20.9345 3.12207 20.9596 3.12542 20.9858 3.12716L21.0023 3.12827C21.0641 3.13245 21.0899 3.13797 21.1213 3.15847C21.135 3.16747 21.1484 3.17914 21.162 3.19413C21.219 3.2569 21.2421 3.35882 21.2175 3.44785L21.2001 3.45302C21.0737 3.34038 20.9772 3.3276 20.8402 3.39685ZM21.0654 3.51286C21.0486 3.49983 21.0361 3.4943 21.0143 3.49479L21.0143 3.49479C20.9196 3.49745 20.8472 3.46441 20.825 3.392C20.9696 3.30717 21.074 3.31747 21.2009 3.42525C21.1998 3.43092 21.1984 3.43654 21.1969 3.44211L21.2143 3.43694C21.2098 3.43293 21.2053 3.42903 21.2009 3.42525C21.2165 3.34749 21.1946 3.26197 21.1462 3.20862C21.1337 3.19492 21.1217 3.18444 21.1096 3.17648C21.0822 3.15859 21.0592 3.15367 21.0009 3.14973L20.9843 3.14862C20.9573 3.14682 20.9317 3.1434 20.8918 3.13691C20.8794 3.13488 20.8689 3.13317 20.8598 3.1317C20.8199 3.12524 20.8074 3.12321 20.7819 3.11809C20.7267 2.99628 20.6295 3.00281 20.3768 3.09772C20.1028 3.20049 19.8553 3.38745 19.7445 3.57418C19.7299 3.59887 19.7182 3.62053 19.7074 3.6424C19.7009 3.65542 19.6819 3.6961 19.6837 3.69227C19.6814 3.69709 19.6802 3.6995 19.679 3.7019C19.6778 3.7043 19.6766 3.70668 19.6742 3.71146C19.6721 3.71542 19.6701 3.71926 19.6679 3.72304C19.666 3.7238 19.6637 3.72436 19.6599 3.72497L19.6454 3.72696L19.6557 3.74345C19.6601 3.73665 19.6641 3.72995 19.6679 3.72304C19.6683 3.72289 19.6687 3.72273 19.6691 3.72256C19.6713 3.72156 19.6733 3.7204 19.6814 3.71536L19.6977 3.72552L19.6923 3.78293C19.6649 4.07337 19.6621 4.16701 19.6908 4.2668C19.6486 4.42911 19.6708 4.55106 19.7364 4.61726C19.8077 4.68907 19.8222 4.71101 19.8313 4.77458C19.841 4.84357 19.8703 4.90263 19.9143 4.9382C19.9599 4.97498 19.9943 5.03403 20.0003 5.07685C20.0043 5.10531 20.1492 5.24992 20.2126 5.28848C20.2241 5.29534 20.232 5.30462 20.2409 5.31982C20.2423 5.32226 20.246 5.32895 20.2493 5.33493C20.2517 5.3393 20.2539 5.3433 20.2549 5.34496C20.2565 5.34777 20.2581 5.35048 20.2597 5.35326C20.2643 5.36103 20.2692 5.36937 20.2758 5.38227C20.2497 5.5359 20.2684 5.66009 20.34 5.93728C20.4115 6.21405 20.4304 6.33583 20.3967 6.47653C20.4364 6.48092 20.4878 6.47696 20.5496 6.47219C20.5549 6.47178 20.5602 6.47137 20.5657 6.47095C20.6274 6.87037 20.6076 6.95554 20.3652 7.03847C20.2228 7.0873 20.1242 7.13237 20.067 7.17652C20.0076 7.22233 19.9947 7.26474 20.0274 7.30962C20.0674 7.36477 20.1564 7.33426 20.2434 7.25433C20.3019 7.20079 20.3645 7.15909 20.4118 7.1448C20.471 7.12687 20.4854 7.15261 20.4587 7.22224C20.4491 7.24721 20.4399 7.26079 20.3794 7.34445L20.3667 7.36214C20.3232 7.42326 20.3018 7.46165 20.2999 7.48737C20.2952 7.55476 20.3515 7.58583 20.4288 7.54064C20.5087 7.49388 20.5935 7.3644 20.617 7.2695C20.6252 7.23651 20.6354 7.21154 20.6456 7.20463C20.6582 7.19615 20.6676 7.20556 20.6706 7.22061C20.6727 7.23131 20.6731 7.24849 20.6719 7.27261C20.671 7.29056 20.6698 7.30098 20.6635 7.34685C20.6607 7.36724 20.6591 7.38024 20.6577 7.39374C20.6475 7.49569 20.6651 7.54903 20.7313 7.56387C20.8409 7.58844 20.8907 7.45984 20.8444 7.30932C20.7976 7.15781 20.7863 7.08383 20.8059 7.03413C20.8307 6.97143 20.8561 6.94939 20.9059 6.96432C20.9632 6.98168 21.0359 6.95036 21.0323 6.89255C21.0273 6.81477 20.9629 6.76707 20.8984 6.80368C20.8561 6.82767 20.8201 6.83695 20.7967 6.82742C20.7686 6.81596 20.7639 6.7824 20.7816 6.73222C20.7884 6.71304 20.7949 6.69676 20.8102 6.6604L20.8103 6.66011C20.8404 6.58814 20.851 6.55825 20.8535 6.53013L20.873 6.52502C20.9225 6.59758 21.2159 6.60685 21.3321 6.53651L21.3482 6.54362C21.3521 6.56362 21.3564 6.58128 21.3649 6.61388C21.398 6.74111 21.4025 6.79252 21.3707 6.8611C21.3532 6.89872 21.3242 6.93418 21.2816 6.96855C21.0814 7.13001 20.982 7.24369 20.986 7.32521C20.9912 7.42678 21.0288 7.46369 21.1005 7.42355C21.1801 7.37899 21.2349 7.31482 21.2549 7.24949C21.2654 7.21511 21.2829 7.19286 21.301 7.19629C21.3211 7.20007 21.3246 7.22851 21.3143 7.26987L21.2994 7.32821C21.2938 7.35019 21.2896 7.36803 21.2859 7.38517C21.2728 7.44577 21.2688 7.49108 21.2756 7.52342C21.2879 7.58091 21.3818 7.58599 21.4206 7.5292C21.4547 7.47959 21.4571 7.42949 21.443 7.30818L21.4429 7.30739C21.4338 7.22836 21.446 7.13607 21.4684 7.09608C21.4828 7.07074 21.4978 7.05364 21.5158 7.04844C21.5418 7.04095 21.5648 7.06047 21.5843 7.10706C21.5872 7.11396 21.5938 7.13019 21.5998 7.14499C21.6047 7.1573 21.6093 7.16863 21.6111 7.17278C21.6412 7.24497 21.6658 7.2762 21.7129 7.29107C21.7876 7.31467 21.8324 7.28046 21.8199 7.20064C21.8076 7.12208 21.7267 7.02683 21.6066 6.93447C21.5548 6.89463 21.5332 6.86187 21.5306 6.82414C21.5296 6.80934 21.5305 6.80069 21.5353 6.77007C21.5377 6.75506 21.5389 6.74569 21.5396 6.73512C21.5414 6.70627 21.5404 6.66623 21.5371 6.61594C21.5357 6.59572 21.5341 6.57443 21.532 6.55042L21.525 6.47351L21.5421 6.46396C21.5551 6.47368 21.5688 6.48202 21.5829 6.48909C21.6368 6.51593 21.6842 6.52196 21.759 6.52058L21.7772 6.52034C21.8055 6.52034 21.8311 6.51533 21.8426 6.50612C21.8543 6.49668 21.8502 6.48051 21.8183 6.45129C21.7429 6.38207 21.7175 6.33835 21.681 6.2414C21.6711 6.21488 21.665 6.20032 21.6568 6.18443C21.6428 6.15724 21.6254 6.13352 21.6008 6.10977C21.4858 5.99887 21.385 5.83073 21.3514 5.69025C21.2953 5.45637 21.2173 5.27007 21.0986 5.16434C21.0174 5.09205 20.9872 4.90093 21.0081 4.6532C21.0353 4.32902 20.9998 4.15954 20.83 4.06391C20.6386 3.95616 20.6076 3.85775 20.691 3.73169C20.7789 3.59848 20.864 3.52374 20.965 3.51718C20.9795 3.51628 20.9933 3.515 21.0058 3.51384C21.0329 3.51133 21.0543 3.50935 21.0654 3.51286Z" fill="black"/>
<path fill-rule="evenodd" clip-rule="evenodd" d="M19.4019 3.95984C19.5671 3.96567 19.6272 3.97308 19.6689 4.0018L19.6736 4.01123C19.6679 4.12153 19.6725 4.20091 19.6909 4.26681C19.6487 4.42913 19.6709 4.55107 19.7365 4.61727C19.8078 4.68908 19.8223 4.71102 19.8314 4.77459C19.8411 4.84358 19.8704 4.90264 19.9144 4.93821C19.9599 4.97499 19.9944 5.03404 20.0004 5.07687C20.0044 5.10533 20.1492 5.24993 20.2126 5.28849C20.2241 5.29535 20.232 5.30463 20.2409 5.31983C20.2424 5.32228 20.2461 5.32896 20.2494 5.33494C20.2518 5.33932 20.254 5.34331 20.2549 5.34497C20.2566 5.34778 20.2581 5.35049 20.2598 5.35326C20.2644 5.36103 20.2693 5.36938 20.2758 5.38229C20.2533 5.51489 20.2676 5.64737 20.3112 5.85033C20.1496 5.98566 19.975 6.03754 19.8516 5.99852C19.7397 5.96315 19.6957 5.86079 19.7421 5.73326C19.6106 5.82619 19.4358 5.88041 19.2884 5.8796C19.1367 5.87876 19.051 5.81809 19.085 5.71859C18.7183 5.84173 18.5143 5.77199 18.5645 5.60207C18.261 5.71527 18.0095 5.63675 18.0493 5.50194C17.7887 5.56879 17.5619 5.54519 17.5167 5.47233C17.4886 5.42672 17.5324 5.33457 17.5989 5.26474C17.4837 5.29855 17.3663 5.30228 17.2344 5.28238C17.1722 5.27291 17.1414 5.2583 17.1331 5.2334C17.1268 5.21441 17.1288 5.20866 17.1524 5.15685L17.1554 5.15022C17.1553 5.1504 17.1708 5.11451 17.1762 5.10279C17.1855 5.08226 17.1947 5.06401 17.2051 5.04583C17.2289 5.0044 17.2574 4.96625 17.2935 4.93008C16.9921 4.98648 16.735 4.99423 16.5515 4.93235L16.524 4.92349C16.4984 4.91499 16.4826 4.90757 16.4726 4.89709C16.4575 4.88132 16.4598 4.86158 16.4796 4.84162C16.5382 4.78257 16.6418 4.70667 16.752 4.65014C16.229 4.71907 15.7284 4.689 15.5709 4.51018L15.5811 4.49253C15.7279 4.52282 15.9166 4.48532 16.1206 4.40625C15.4527 4.31707 14.7124 3.88211 14.7034 3.50392L14.7232 3.49801C14.8587 3.71809 15.0395 3.82282 15.4119 3.93778C15.0895 3.72924 14.9034 3.47016 14.8872 3.2557L14.9053 3.24715C15.1687 3.5021 15.4824 3.70117 15.7705 3.76834C15.5319 3.6131 15.2495 3.26169 15.1678 3.00961L15.1851 2.99828C15.3671 3.16205 15.7894 3.39337 16.0821 3.48364C15.8156 3.25978 15.552 2.89805 15.5683 2.70807L15.5865 2.70142C15.6884 2.80424 15.9221 2.96939 16.2848 3.18229C16.5096 3.31415 16.6808 3.3747 16.9064 3.41637C16.9383 3.42227 16.9692 3.42753 17.0178 3.43549C17.1376 3.45514 17.1819 3.46269 17.2386 3.4744C17.1861 3.39837 17.1342 3.2991 17.1289 3.26644L17.141 3.25405C17.2537 3.27029 17.3614 3.32063 17.633 3.48954C17.7638 3.571 17.9238 3.61887 18.3119 3.70917L18.3298 3.71334C18.6431 3.78624 18.7823 3.82461 18.9168 3.88384C18.987 3.91476 19.069 3.9341 19.1668 3.94536C19.233 3.95298 19.2808 3.95557 19.4019 3.95984ZM19.6519 4.01633C19.652 4.01427 19.6521 4.0122 19.6522 4.01011L19.6568 4.01954C19.6552 4.01844 19.6536 4.01737 19.6519 4.01633ZM15.6107 4.51936C15.7667 4.54046 15.9605 4.49544 16.1676 4.41065L16.1647 4.39001C15.5216 4.31785 14.7923 3.90842 14.7291 3.54668C14.8752 3.76154 15.0763 3.86243 15.4842 3.98194L15.4926 3.96234C15.1484 3.75969 14.9435 3.49933 14.9118 3.28308C15.1926 3.54898 15.5268 3.75106 15.8285 3.80192L15.8353 3.78183C15.6033 3.65796 15.3038 3.30438 15.2017 3.04084C15.4116 3.21434 15.8459 3.44464 16.127 3.51888L16.1363 3.50001C15.8731 3.29333 15.5967 2.93074 15.5891 2.73391C15.7003 2.83896 15.9293 2.99856 16.274 3.20086C16.501 3.33404 16.6746 3.39542 16.9025 3.43752C16.9346 3.44345 16.9656 3.44873 17.0143 3.45672C17.152 3.47928 17.1896 3.48584 17.2612 3.50111L17.272 3.48416C17.223 3.41827 17.17 3.32194 17.1543 3.27796C17.2579 3.29627 17.366 3.34875 17.6217 3.50781C17.7554 3.59105 17.9162 3.63919 18.3071 3.73012L18.325 3.73429C18.6369 3.80686 18.7754 3.84504 18.9082 3.90353C18.9806 3.93543 19.0646 3.95524 19.1644 3.96673C19.2313 3.97444 19.2795 3.97704 19.4011 3.98134C19.5536 3.98672 19.6147 3.99366 19.6519 4.01633C19.6465 4.12572 19.6515 4.2054 19.6703 4.26723C19.6262 4.43052 19.6498 4.56029 19.7213 4.63245C19.7896 4.70126 19.8019 4.71982 19.8102 4.77762C19.8206 4.85165 19.8523 4.91567 19.901 4.95496C19.9423 4.98838 19.974 5.04256 19.9792 5.07987C19.9844 5.11684 20.133 5.26517 20.2016 5.30692C20.2095 5.31163 20.2152 5.31837 20.2225 5.33072L20.2364 5.35567C20.2429 5.36708 20.2492 5.37692 20.2567 5.38694C20.2315 5.51484 20.2462 5.64989 20.294 5.84464C20.141 5.96484 19.9736 6.01457 19.858 5.97801C19.7487 5.94344 19.7126 5.83877 19.7773 5.70536L19.7609 5.69225C19.6307 5.79675 19.4435 5.85895 19.2886 5.85809C19.1388 5.85727 19.0672 5.79955 19.1138 5.70544L19.1007 5.6905C18.7176 5.82497 18.5254 5.75272 18.5923 5.58771L18.5784 5.57367C18.2643 5.69938 18.0152 5.61484 18.0766 5.4909L18.0642 5.47574C17.8034 5.547 17.5746 5.52495 17.5349 5.46099C17.5099 5.42036 17.5708 5.31175 17.6487 5.24754L17.6382 5.22913C17.5116 5.27555 17.3841 5.28321 17.2376 5.26111C17.1828 5.25278 17.1583 5.24113 17.1535 5.22661C17.1498 5.21569 17.1519 5.20966 17.1719 5.1658L17.175 5.15893C17.2296 5.0354 17.2499 4.99996 17.3221 4.93226L17.3349 4.92059L17.3258 4.90197C17.0121 4.96397 16.7447 4.97481 16.5583 4.91196L16.5307 4.90307C16.5084 4.89567 16.4948 4.88926 16.488 4.88219C16.4818 4.87566 16.4825 4.8691 16.4948 4.8568C16.5628 4.78821 16.6946 4.69534 16.8248 4.63957L16.819 4.61905C16.3038 4.69536 15.793 4.6767 15.6107 4.51936ZM15.6107 4.51936C15.6021 4.51187 15.5941 4.50406 15.587 4.49594L15.5768 4.51359C15.5879 4.51588 15.5992 4.51781 15.6107 4.51936ZM17.1543 3.27796C17.1521 3.27188 17.1507 3.26681 17.15 3.26295L17.1379 3.27534C17.1434 3.27612 17.1488 3.27699 17.1543 3.27796ZM15.5891 2.73391C15.5888 2.72561 15.589 2.7176 15.5896 2.70992L15.5713 2.71658C15.5769 2.72218 15.5828 2.72796 15.5891 2.73391ZM15.2017 3.04084C15.1967 3.02799 15.1922 3.01535 15.1882 3.00296L15.1708 3.01429C15.1805 3.02297 15.1908 3.03183 15.2017 3.04084ZM14.9118 3.28308C14.9103 3.27332 14.9093 3.26365 14.9085 3.25407L14.8904 3.26263C14.8975 3.26949 14.9046 3.2763 14.9118 3.28308ZM14.7291 3.54668C14.7266 3.53217 14.7251 3.51774 14.7248 3.5034L14.705 3.50931C14.7129 3.52215 14.7209 3.53459 14.7291 3.54668Z" fill="black"/>
<path fill-rule="evenodd" clip-rule="evenodd" d="M21.844 6.52368L21.8427 6.50599C21.8544 6.49666 21.8503 6.48043 21.8184 6.45129C21.7429 6.38208 21.7175 6.33835 21.681 6.24141C21.6711 6.21489 21.665 6.20032 21.6568 6.18444C21.6428 6.15725 21.6254 6.13353 21.6008 6.10977C21.4858 5.99887 21.385 5.83074 21.3515 5.69026C21.2953 5.45637 21.2174 5.27008 21.0986 5.16434C21.0175 5.09206 20.9872 4.90093 21.0082 4.6532C21.0107 4.62275 21.0127 4.5938 21.0142 4.56624L21.021 4.56995L21.0209 4.57076L21.0221 4.57052L21.035 4.57719C21.0336 4.60203 21.0318 4.62795 21.0295 4.65502C21.0091 4.89633 21.0385 5.08204 21.1129 5.14826C21.2359 5.25785 21.3152 5.44723 21.3723 5.68523C21.4049 5.82156 21.5035 5.98612 21.6156 6.09427C21.642 6.11969 21.6608 6.14531 21.6759 6.17456C21.6845 6.19138 21.6909 6.20657 21.7011 6.23382C21.7364 6.32788 21.7603 6.3689 21.8328 6.4354C21.866 6.46568 21.8772 6.49191 21.8662 6.51132C21.8624 6.50941 21.8586 6.50735 21.8548 6.50514L21.8561 6.52282C21.8605 6.51932 21.8638 6.51547 21.8662 6.51132C21.9961 6.57634 22.1656 6.47057 22.1675 6.37244L22.1855 6.36473C22.3596 6.52542 22.5761 6.51224 22.6294 6.32818L22.6455 6.32215C22.7841 6.41207 23.0275 6.42196 23.0924 6.33438C23.1819 6.21426 23.1293 6.12014 22.767 5.89995L22.7753 5.88035C22.8885 5.91004 22.9795 5.85459 22.9889 5.75963L23.0054 5.75166C23.1302 5.83284 23.2359 5.84938 23.3839 5.81846C23.5053 5.79314 23.5076 5.69997 23.4018 5.56253L23.4156 5.54661C23.5427 5.61935 23.6811 5.659 23.7751 5.64958C23.8743 5.63964 23.9117 5.57858 23.8713 5.4646L23.8835 5.45046C24.0321 5.48157 24.1501 5.47667 24.1838 5.42354C24.2245 5.35971 24.1461 5.24405 23.9448 5.09177L23.9501 5.07249C24.0027 5.06668 24.0337 5.05906 24.0706 5.04261C24.2697 5.14319 24.7 5.22344 24.9008 5.20889C25.0687 5.19687 25.1229 5.1177 25.0927 4.94256C25.5235 4.85879 25.9199 4.72294 26.1823 4.52897C26.2107 4.50798 26.2234 4.49849 26.2396 4.48604C26.2627 4.46831 26.2823 4.45242 26.2994 4.43735C26.3259 4.41407 26.3457 4.39333 26.3581 4.37544C26.3687 4.36957 26.3788 4.36368 26.3885 4.35776L26.3726 4.34611C26.3706 4.3548 26.3657 4.36459 26.3581 4.37544C26.1372 4.49888 25.7513 4.61326 25.0908 4.775L25.0849 4.75434C25.6714 4.5615 26.5793 3.9743 26.6164 3.72327C26.6227 3.71773 26.6289 3.71214 26.6351 3.70651L26.6171 3.6996C26.6179 3.70711 26.6176 3.715 26.6164 3.72327C26.4643 3.85621 26.2499 3.962 25.8919 4.10014C25.8619 4.11172 25.8311 4.12348 25.791 4.13872L25.6912 4.17659L25.682 4.15724C26.0428 3.94729 26.3336 3.63913 26.3634 3.40253C26.3712 3.39295 26.3785 3.38319 26.3854 3.37323L26.366 3.36692C26.3658 3.37859 26.365 3.39047 26.3634 3.40253C26.2636 3.52671 26.0984 3.62234 25.7806 3.76549L25.7707 3.76991C25.742 3.78279 25.6595 3.81981 25.6329 3.83189C25.5888 3.85189 25.5521 3.86899 25.518 3.88547L25.5067 3.86735C25.6655 3.74127 25.7208 3.69641 25.8072 3.6211C25.9699 3.47931 26.0939 3.35059 26.1774 3.22906C26.2626 3.10502 26.3012 2.99361 26.2876 2.89604C26.2927 2.88804 26.2975 2.88001 26.3021 2.87195L26.2824 2.86916C26.2846 2.878 26.2863 2.88696 26.2876 2.89604C26.1721 3.07915 25.9489 3.247 25.5913 3.44916C25.5346 3.48122 25.3926 3.55864 25.2927 3.61305C25.2422 3.64056 25.2025 3.66219 25.1901 3.6691L25.1779 3.65155C25.4057 3.45445 25.5341 3.28183 25.547 3.06408L25.565 3.05069L25.5479 3.04182C25.5477 3.04929 25.5474 3.05671 25.547 3.06408C25.0594 3.42406 24.4612 3.68014 23.8347 3.83256L23.8289 3.81841L23.8266 3.8129C23.9792 3.72051 24.1393 3.54792 24.1864 3.42547L24.2119 3.40848L24.1955 3.39697C24.1932 3.4061 24.1902 3.41562 24.1864 3.42547C23.7273 3.72669 23.0444 3.92964 22.5446 3.9629C22.0924 3.99276 21.7997 4.03079 21.446 4.11562C21.3786 4.04752 21.1798 4.05115 20.9324 4.1188C20.9284 4.11435 20.9243 4.10997 20.92 4.10565L20.9153 4.12355L20.9324 4.1188C21.0184 4.21463 21.0446 4.34145 21.0367 4.54207L21.0168 4.54601L21.0144 4.56152C21.025 4.34534 20.9982 4.21569 20.9048 4.12076L20.9095 4.10285C21.1722 4.02856 21.3845 4.02301 21.4509 4.09762C21.7959 4.00956 22.0898 3.97138 22.5432 3.94144C23.0487 3.90779 23.7443 3.69891 24.1999 3.39065L24.2163 3.40216C24.1876 3.51784 24.0422 3.68853 23.8905 3.7965C24.5 3.64119 25.0797 3.38682 25.5522 3.03344L25.5693 3.04231C25.5645 3.25485 25.4571 3.42314 25.2612 3.60576L25.2828 3.59397L25.2829 3.59392L25.2831 3.59378C25.383 3.53939 25.5244 3.46233 25.5808 3.43043C25.9507 3.22127 26.1754 3.04937 26.2836 2.86121L26.3032 2.864C26.3306 2.97494 26.2913 3.10111 26.195 3.24126C26.1103 3.36457 25.9852 3.49447 25.8213 3.63734C25.7491 3.70024 25.6986 3.74194 25.5921 3.8269L25.624 3.8123C25.6506 3.80022 25.7328 3.76334 25.7617 3.75038L25.7718 3.74587C26.1104 3.59337 26.2738 3.49545 26.3679 3.36088L26.3874 3.36718C26.3846 3.5963 26.1277 3.89557 25.789 4.11647L25.8842 4.08007C26.2547 3.93712 26.47 3.82918 26.6206 3.69066L26.6385 3.69756C26.66 3.9252 25.876 4.45988 25.2704 4.70828C25.8459 4.56341 26.1848 4.45607 26.3775 4.33935L26.3934 4.35101C26.3867 4.37982 26.3593 4.41327 26.3136 4.45352C26.296 4.46895 26.2761 4.48512 26.2527 4.50311C26.2363 4.51568 26.2235 4.52522 26.195 4.54629C25.9294 4.74261 25.5305 4.87935 25.1051 4.95062C25.1468 5.12531 25.0838 5.21735 24.9023 5.23034C24.6978 5.24516 24.2636 5.16419 24.0713 5.06143C24.0464 5.07647 24.019 5.0847 23.9786 5.09057C24.1732 5.24175 24.2499 5.35981 24.2019 5.43511C24.1626 5.4969 24.0464 5.50405 23.8973 5.47516C23.932 5.59141 23.8851 5.66018 23.7772 5.67098C23.6885 5.67987 23.5648 5.648 23.446 5.58749C23.5311 5.71648 23.5175 5.81257 23.3883 5.83952C23.2405 5.87038 23.1317 5.8553 23.0077 5.77861C22.9914 5.8617 22.9176 5.91408 22.8236 5.90957C23.1544 6.11644 23.2049 6.2193 23.1096 6.34724C23.0384 6.4433 22.7942 6.43599 22.6457 6.34759C22.5826 6.53153 22.3641 6.54615 22.1864 6.39427C22.1628 6.50376 21.9808 6.6044 21.844 6.52368ZM21.5107 4.50628C21.5159 4.49227 21.5198 4.47712 21.5223 4.4608L21.5096 4.44863L21.0367 4.54207L21.036 4.55675L21.024 4.55011L21.021 4.56995L21.0221 4.57052L21.0355 4.56778L21.035 4.57719C21.2188 4.66943 21.422 4.6641 21.4962 4.53704C21.6572 4.62451 21.9115 4.58165 21.9936 4.45906C22.2244 4.54263 22.4402 4.49245 22.4786 4.28064L22.4646 4.26853L22.0114 4.42396C22.0179 4.40589 22.0209 4.3865 22.0199 4.36591L21.5107 4.50628ZM21.506 4.5179C21.5077 4.51411 21.5092 4.51024 21.5107 4.50628L21.4892 4.5122L21.4869 4.53177L21.4962 4.53704L21.4993 4.53163L21.5204 4.52525C21.672 4.59779 21.9001 4.5566 21.9818 4.45468L21.9936 4.45906C21.9954 4.45643 21.9971 4.45377 21.9987 4.45107L22.0175 4.44461C22.224 4.51373 22.4104 4.4699 22.4537 4.29502L22.4716 4.28888L22.4576 4.27678C22.4564 4.28301 22.4551 4.28909 22.4537 4.29502L22.0175 4.44461C22.0132 4.44317 22.0089 4.44169 22.0046 4.44015C22.0072 4.43488 22.0095 4.42948 22.0114 4.42396L21.999 4.42824C22.007 4.41219 22.0117 4.39497 22.0123 4.37675L21.5204 4.52525C21.5155 4.52292 21.5107 4.52047 21.506 4.5179ZM21.9945 4.43647C21.9978 4.43772 22.0012 4.43895 22.0046 4.44015C22.0027 4.44385 22.0008 4.44749 21.9987 4.45107L21.9885 4.45456L21.9886 4.44558C21.9907 4.44259 21.9927 4.43955 21.9945 4.43647ZM21.9945 4.43647C21.9926 4.43577 21.9907 4.43506 21.9888 4.43434L21.9886 4.44558C21.9865 4.44867 21.9842 4.4517 21.9818 4.45468L21.9812 4.45444L21.9815 4.43421L21.999 4.42824C21.9976 4.43102 21.9961 4.43376 21.9945 4.43647ZM21.506 4.5179C21.5039 4.52262 21.5017 4.52719 21.4993 4.53163L21.4954 4.53279L21.4977 4.51322L21.506 4.5179ZM21.0511 4.5646L21.0355 4.56778L21.036 4.55675L21.0511 4.5646ZM21.4982 4.47331C21.4613 4.64191 21.2476 4.66368 21.0511 4.5646L21.4982 4.47331ZM21.4982 4.47331C21.4994 4.4682 21.5003 4.46295 21.5011 4.45757L21.5138 4.47014L21.4982 4.47331ZM23.8286 3.81851L22.8627 4.13032L22.8677 4.15116C22.9701 4.13401 23.131 4.08661 23.3449 4.01369C23.3745 4.00362 23.4049 3.99308 23.4365 3.98204C23.543 3.94481 23.8462 3.83504 23.8357 3.83878L23.8289 3.81841L23.8288 3.81843L23.8286 3.81851ZM23.8286 3.81851C23.8187 3.82212 23.5322 3.9258 23.4295 3.96173C23.398 3.97276 23.3675 3.98327 23.338 3.99333C23.1252 4.06588 22.965 4.11305 22.8642 4.12995L22.8693 4.15079L23.8354 3.83888L23.8286 3.81851ZM21.0144 4.56152L21.0142 4.56624L21.0137 4.566L21.0144 4.56152ZM17.2497 3.49341C17.318 3.59297 17.4972 3.73894 17.61 3.77444C17.6182 3.85347 17.6515 3.93003 17.7077 3.99175L17.1974 3.82804L17.1837 3.84106C17.1957 3.88566 17.2158 3.92494 17.2419 3.95847L16.8904 3.81595C16.9195 3.8165 16.9514 3.81453 16.9862 3.80988L16.992 3.79125L16.9101 3.71704L17.2497 3.49341ZM16.8792 3.56865L17.2497 3.49341L17.2651 3.47877L17.6081 3.74228L17.6084 3.75124C17.59 3.74478 17.5699 3.73543 17.5489 3.7239L17.3332 3.55822C17.3064 3.53125 17.2836 3.5048 17.2674 3.48121L17.252 3.49585L17.3332 3.55822C17.3948 3.62004 17.4773 3.68463 17.5489 3.7239L17.6096 3.77054L17.61 3.77444L17.6198 3.77728L17.629 3.75834L17.6081 3.74228C17.608 3.73401 17.6081 3.72574 17.6085 3.71747L17.6239 3.70835L18.3969 4.08576C18.3976 4.09067 18.3985 4.09553 18.3997 4.10035L18.3852 4.10395L17.6295 3.73498C17.6295 3.72951 17.6297 3.72404 17.6299 3.71857L17.6146 3.72769L17.6295 3.73498C17.6289 3.88561 17.7261 4.03492 17.9026 4.08811C18.0591 4.13526 18.2126 4.14111 18.3423 4.11588C18.3092 4.12581 18.2762 4.13736 18.2439 4.15017C18.1357 4.15735 18.0169 4.145 17.8964 4.10871C17.8366 4.09067 17.7853 4.06208 17.7434 4.02629L17.7484 4.0223L17.7449 4.00369L17.7077 3.99175C17.7139 3.99858 17.7204 4.00522 17.7271 4.01166L17.7187 4.01785L17.2102 3.85475C17.2081 3.84845 17.2062 3.84204 17.2044 3.8355L17.1908 3.84852L17.2102 3.85475C17.2323 3.92014 17.2739 3.97222 17.326 4.00925L17.2768 3.99681L17.2764 3.9964L17.2811 3.99497L17.2819 3.97472L17.2419 3.95847C17.2474 3.9656 17.2532 3.97246 17.2593 3.97906L17.2453 3.98306L16.8262 3.8131L16.8274 3.8101C16.8467 3.81355 16.8677 3.81552 16.8904 3.81595L16.8246 3.78926L16.8109 3.79466L16.8061 3.80551C16.7989 3.80368 16.7919 3.8016 16.7852 3.7993L16.8084 3.78401C16.8486 3.79474 16.8989 3.79757 16.9601 3.79132L16.9776 3.8072L16.9834 3.78857C16.9754 3.78963 16.9677 3.79054 16.9601 3.79132L16.8916 3.72923L16.9101 3.71704L16.7708 3.59065L16.8271 3.57922C16.8427 3.58168 16.8583 3.58385 16.874 3.58573L16.8792 3.56865ZM16.8749 3.56951L16.8792 3.56865L16.8801 3.56549L15.9042 3.06175L15.8919 3.07912C16.1254 3.30093 16.3965 3.47039 16.6819 3.54802C16.6733 3.56747 16.6677 3.58942 16.6656 3.612L16.5352 3.63849L16.1285 3.49352L16.1181 3.51196C16.1948 3.57534 16.2992 3.62211 16.4326 3.65933L15.8333 3.78101L15.8332 3.78098L15.8271 3.8023L15.8273 3.80233L16.2245 3.92557C16.2206 3.96295 16.242 4.00503 16.2922 4.04363C16.3099 4.05721 16.331 4.0702 16.355 4.08261C16.3042 4.10698 16.285 4.14681 16.2958 4.18946L15.4901 3.96126L15.4814 3.98069C15.689 4.11283 15.9488 4.18337 16.306 4.21574C16.3157 4.23407 16.3307 4.25245 16.3509 4.2699C16.3267 4.29812 16.3173 4.32985 16.3209 4.36217C16.2729 4.36064 16.2043 4.37286 16.1595 4.39167L16.1651 4.41295L16.3262 4.3869C16.3359 4.41789 16.3571 4.44872 16.3883 4.47682C16.6477 4.71161 17.2883 4.70709 17.8941 4.49617C17.9078 4.52678 17.9432 4.54783 17.9997 4.56365C18.0226 4.57009 18.0458 4.57558 18.0693 4.58014L17.3236 4.90264L17.3294 4.92315C17.5558 4.88987 17.8739 4.74213 18.1088 4.58689C18.1712 4.59614 18.2351 4.59906 18.2995 4.59605C18.272 4.64738 18.2671 4.71314 18.2871 4.76889L17.4982 5.04861L17.5048 5.06907C17.7646 4.99252 18.1041 4.87379 18.2957 4.78928C18.3193 4.83692 18.3632 4.87395 18.429 4.8825L17.6376 5.22937L17.6446 5.24964C17.8295 5.20168 18.1961 5.04144 18.4768 4.88679C18.5572 4.89117 18.646 4.88248 18.7376 4.86359C18.7205 4.89911 18.7103 4.93414 18.7069 4.96743L17.9512 5.32204L17.9584 5.3422C18.1874 5.28348 18.3941 5.18 18.7056 4.99356C18.7059 5.04375 18.7222 5.08893 18.7536 5.12445L18.0622 5.47323L18.0692 5.49336C18.1443 5.47759 18.234 5.44358 18.3357 5.39418C18.3915 5.36711 18.45 5.33584 18.5111 5.3009C18.5982 5.25101 18.6667 5.20824 18.7703 5.14116C18.8053 5.17224 18.8542 5.1936 18.916 5.20104C18.9231 5.20189 18.9303 5.20253 18.9377 5.20295L18.3717 5.46828L18.3785 5.48854C18.5041 5.46184 18.6242 5.41263 18.7535 5.34144C18.7827 5.32537 18.8422 5.28993 18.8952 5.25833L18.8953 5.25832C18.9365 5.23375 18.9738 5.21151 18.99 5.2025C19.0545 5.19799 19.1265 5.17944 19.2024 5.14823C19.1686 5.20147 19.1504 5.24407 19.1476 5.28154L18.5695 5.57076L18.5778 5.59054C18.6794 5.55503 18.9731 5.40507 19.148 5.3064C19.1509 5.33136 19.1614 5.3544 19.1794 5.37746C19.1973 5.40047 19.2186 5.41296 19.2466 5.41517L18.85 5.59988L18.8586 5.61961C18.9948 5.56458 19.1805 5.47841 19.3376 5.39769C19.3799 5.38224 19.432 5.35681 19.4972 5.32164C19.5485 5.29404 19.609 5.25487 19.6783 5.20518C19.6965 5.19213 19.7152 5.17841 19.7346 5.16397C19.7198 5.21763 19.7191 5.26389 19.7307 5.30247L19.0954 5.68818L19.1047 5.70742C19.275 5.642 19.5901 5.44463 19.7392 5.32466C19.7555 5.35975 19.7835 5.38728 19.8215 5.40695L19.3801 5.6883L19.39 5.70728C19.5581 5.63598 19.7526 5.51022 19.8466 5.41819L19.8508 5.41981C19.9489 5.45643 20.0477 5.45753 20.1402 5.40879L19.7612 5.69376L19.773 5.71162C19.9579 5.60184 20.1772 5.43957 20.2493 5.35332L20.2346 5.3378L20.2338 5.33846L20.2308 5.32193L19.7839 5.12666C19.8086 5.10778 19.8342 5.08785 19.8622 5.0658L19.9528 4.99408L19.9443 4.97506L19.6515 5.02932L19.8562 4.87237L19.8437 4.8549C19.7783 4.89895 19.6792 4.97096 19.5866 5.04136L19.3222 5.09037C19.4791 5.00358 19.6453 4.86996 19.795 4.70029L19.7854 4.68252L19.3991 4.73767L19.4506 4.70352L19.5677 4.62504C19.6122 4.5954 19.6477 4.57224 19.6814 4.55105L19.6703 4.53267L19.67 4.53282L19.2998 4.75185L18.9581 4.80063C19.1685 4.72463 19.3692 4.60729 19.4921 4.48249C19.5444 4.47525 19.5983 4.4651 19.6532 4.45181L19.656 4.45235L19.656 4.45114L19.6606 4.45001L19.6601 4.42901L19.0186 4.30575C19.0595 4.3027 19.1016 4.29779 19.1444 4.29087L19.1457 4.26994L18.4098 4.05402L18.3961 4.06382C18.3957 4.07123 18.396 4.07854 18.3969 4.08576L18.4211 4.09754L18.4218 4.09994L18.4188 4.09845L18.4149 4.09797L18.415 4.09776L18.4145 4.09791L18.4116 4.09756L18.3997 4.10035L18.4002 4.10214L18.3882 4.1054L18.3852 4.10395C18.3709 4.1076 18.3566 4.11159 18.3423 4.11588C18.358 4.11284 18.3733 4.10934 18.3882 4.1054L18.4035 4.11288L18.4066 4.12079C18.3871 4.12547 18.3673 4.13081 18.3476 4.13675C18.3144 4.14326 18.2797 4.14779 18.2439 4.15017C18.1994 4.16785 18.1563 4.18793 18.1166 4.20944L17.6237 4.08465C17.6666 4.07356 17.7074 4.05428 17.7434 4.02629L17.7379 4.02154L17.7349 4.00557L17.7271 4.01166L17.7379 4.02154L17.7384 4.02418L17.7187 4.01785C17.6754 4.0482 17.6256 4.06597 17.5742 4.07212L17.326 4.00925C17.3509 4.027 17.3782 4.04129 17.4069 4.05192L17.3167 4.02909C17.3027 4.01934 17.2893 4.00857 17.2768 3.99681L17.2758 3.99656L17.2764 3.9964L17.2739 3.99406L17.2748 3.97441L17.2593 3.97906C17.264 3.98423 17.2689 3.98923 17.2739 3.99406L17.2739 3.99466L17.2453 3.98306L17.2344 3.98606L16.8135 3.87951C16.8125 3.85872 16.8166 3.83637 16.8262 3.8131L16.8165 3.80919L16.8186 3.80839L16.8274 3.8101L16.8303 3.80379L16.8186 3.80839L16.8061 3.80551C16.7962 3.82976 16.7914 3.85309 16.7915 3.87498C16.7583 3.86866 16.7267 3.86289 16.6966 3.8577L16.7852 3.7993C16.74 3.7837 16.7074 3.75753 16.6872 3.72221L16.6828 3.71387L16.6835 3.71399L16.6889 3.69326L16.6725 3.68743C16.6654 3.66324 16.6633 3.63723 16.6656 3.612L16.6877 3.60752C16.6833 3.64317 16.6884 3.68117 16.7058 3.71151C16.7255 3.74603 16.7594 3.77091 16.8084 3.78401L16.8916 3.72923L16.7447 3.59596L16.7708 3.59065L16.7397 3.56243C16.7687 3.56901 16.7978 3.57462 16.8271 3.57922L16.8506 3.57444L16.8703 3.58462L16.8749 3.56951ZM16.8133 3.55516C16.8343 3.55876 16.8554 3.56184 16.8765 3.56438L16.8749 3.56951L16.8506 3.57444L16.8133 3.55516ZM16.7064 3.53226C16.7418 3.54137 16.7775 3.54903 16.8133 3.55516L15.9655 3.11759C15.9457 3.09994 15.926 3.0819 15.9067 3.0635L15.8944 3.08087L15.9655 3.11759C16.1873 3.31453 16.4398 3.46317 16.7037 3.53156L16.6888 3.53404C16.6863 3.53853 16.684 3.5432 16.6819 3.54802L16.696 3.55177L16.7015 3.55675C16.6946 3.57223 16.6899 3.58958 16.6877 3.60752L16.7447 3.59596L16.7015 3.55675L16.7029 3.55357C16.7151 3.55669 16.7274 3.55965 16.7397 3.56243L16.7064 3.53226ZM16.7029 3.55357C16.7044 3.55046 16.7059 3.54743 16.7075 3.54449L16.691 3.54725L16.696 3.55177L16.7029 3.55357ZM16.7064 3.53226L16.7053 3.53129L16.7037 3.53156L16.7064 3.53226ZM16.6734 3.69041L16.6725 3.68743L16.5352 3.63849L16.4944 3.64677L16.1955 3.54023C16.1723 3.52626 16.1511 3.51134 16.1317 3.49535L16.1213 3.51379L16.1955 3.54023C16.2702 3.58527 16.365 3.62047 16.4801 3.64968L16.4326 3.65933C16.5069 3.68007 16.5903 3.69785 16.6828 3.71387L16.682 3.71232L16.6871 3.6928L16.6734 3.69041ZM16.5469 3.66547L16.4944 3.64677L16.4801 3.64968C16.5016 3.65514 16.5239 3.6604 16.5469 3.66547ZM16.5469 3.66547C16.5869 3.6743 16.6291 3.68257 16.6734 3.69041C16.6758 3.69793 16.6786 3.70526 16.682 3.71232L16.6817 3.71353L16.5469 3.66547ZM16.6702 3.87507L16.6966 3.8577C16.4913 3.82228 16.3587 3.8136 16.2992 3.83979C16.2639 3.85547 16.2404 3.8777 16.2301 3.90333C16.1842 3.88546 16.1408 3.8705 16.0932 3.85581C16.0743 3.84999 16.0546 3.84416 16.0319 3.83765C16.0452 3.84148 15.8868 3.79694 15.8333 3.78102L15.8333 3.78101L15.8273 3.80233C15.8808 3.81827 16.0396 3.86294 16.0262 3.85907C16.0487 3.86554 16.0683 3.87133 16.0871 3.87711C16.1033 3.88211 16.119 3.88714 16.1345 3.8923L16.2245 3.92557L16.2483 3.95412C16.2549 3.9774 16.2735 4.00217 16.3052 4.02656L16.3136 4.03272L16.355 4.08261C16.3626 4.08653 16.3705 4.0904 16.3787 4.0942L16.3782 4.09422L16.3793 4.09449L16.3808 4.09517C16.2964 4.12533 16.2929 4.19702 16.3699 4.25873L16.3677 4.25843L16.3587 4.26149C16.3559 4.26426 16.3533 4.26706 16.3509 4.2699C16.3561 4.27444 16.3617 4.27892 16.3677 4.28332C16.3223 4.33576 16.3381 4.4027 16.4026 4.46083C16.6497 4.68448 17.2633 4.68454 17.8519 4.48785L17.893 4.49361L17.8941 4.49617L17.9015 4.49359L17.8995 4.47279L17.8992 4.47275L17.9006 4.45357L17.8885 4.45055C17.8913 4.42921 17.9004 4.40456 17.9158 4.37595C17.9395 4.33207 17.9928 4.28494 18.0619 4.24139C18.0815 4.2381 18.1001 4.23454 18.1176 4.23072L18.118 4.20979L18.1166 4.20944L18.1131 4.21137L18.1131 4.20971C18.0982 4.21294 18.0825 4.21599 18.0661 4.21884L17.5728 4.09392C17.5899 4.09206 17.607 4.08898 17.6237 4.08465L17.5742 4.07212C17.5437 4.07577 17.5127 4.07532 17.4821 4.07097L17.4069 4.05192C17.4312 4.06094 17.4565 4.06733 17.4821 4.07097L17.5728 4.09392C17.4837 4.10357 17.3907 4.08052 17.3167 4.02909L17.2344 4.00825C17.2479 4.00472 17.2618 4.00083 17.2758 3.99656L17.2344 3.98606C17.2191 3.99014 17.2042 3.99377 17.1898 3.99695L16.8169 3.90255C16.8151 3.89512 16.8139 3.88742 16.8135 3.87951L16.8086 3.87826L16.808 3.87813L16.7915 3.87498C16.7916 3.88257 16.7922 3.89 16.7934 3.89722C16.7497 3.88887 16.7086 3.88147 16.6702 3.87507ZM16.3756 4.06907C16.3521 4.05748 16.3313 4.04536 16.3136 4.03272L16.2483 3.95412C16.2372 3.91564 16.2588 3.88124 16.3079 3.85947C16.3599 3.83655 16.4829 3.84386 16.6702 3.87507L16.3756 4.06907ZM16.3857 4.07391L16.3834 4.07335L16.3774 4.07359C16.3694 4.07629 16.3619 4.07931 16.355 4.08261L16.3756 4.06907L16.3857 4.07391ZM16.3857 4.07391C16.5068 4.13094 16.695 4.17474 16.9069 4.20454L16.3857 4.07391ZM17.0736 4.24631L16.9069 4.20454C17.3059 4.26067 17.7889 4.26715 18.0661 4.21884L18.0894 4.22473C18.08 4.23021 18.0708 4.23577 18.0619 4.24139C17.8199 4.28211 17.431 4.28281 17.0736 4.24631ZM16.9022 4.22554C16.958 4.23344 17.0154 4.24037 17.0736 4.24631L17.8885 4.45055L17.8881 4.45413C17.87 4.45577 17.851 4.45718 17.8312 4.45836L16.9022 4.22554ZM16.3813 4.09499L16.3842 4.09398L16.3787 4.0942L16.3793 4.09449L16.3813 4.09499ZM16.3813 4.09499L16.9022 4.22554C16.6919 4.19573 16.5043 4.15205 16.3808 4.09517L16.3813 4.09499ZM17.8754 4.46942L17.8312 4.45836L17.806 4.45971L16.3699 4.25873C16.3817 4.26817 16.3954 4.27738 16.4109 4.28618L16.3702 4.28048L16.3739 4.27666L16.3648 4.27972L16.3702 4.28048L16.3677 4.28332C16.3923 4.30149 16.4228 4.31831 16.459 4.33259C16.7091 4.43098 17.4012 4.50029 17.805 4.48128L17.8519 4.48785L17.8873 4.47579L17.8884 4.4757C17.8892 4.482 17.8908 4.48796 17.893 4.49361L17.8965 4.49409L17.8946 4.47511L17.899 4.4747L17.8992 4.47275L17.8956 4.47224L17.897 4.4533L17.8881 4.45413C17.8875 4.46006 17.8875 4.46574 17.8879 4.47117L17.8754 4.46942ZM17.888 4.47258L17.8754 4.46942L17.806 4.45971C17.7647 4.46169 17.7203 4.46273 17.6736 4.4629L16.4109 4.28618C16.4274 4.29552 16.4461 4.30439 16.4669 4.31257C16.6887 4.39984 17.2676 4.46437 17.6736 4.4629L17.805 4.48128C17.834 4.47992 17.8615 4.47809 17.8873 4.47579L17.8883 4.47543L17.8884 4.4757L17.8946 4.47511L17.8945 4.47422L17.8954 4.47443L17.8956 4.47224L17.8879 4.47117L17.888 4.47258ZM17.8929 4.47382L17.8945 4.47422L17.8944 4.47329L17.8929 4.47382ZM17.8929 4.47382L17.888 4.47258L17.8883 4.47543L17.8929 4.47382ZM16.8037 3.89919L16.8169 3.90255C16.8398 3.99289 16.9715 4.04494 17.1898 3.99695L17.2344 4.00825C16.9737 4.07618 16.8123 4.01087 16.7934 3.89722L16.8037 3.89919ZM16.8037 3.89919L16.804 3.89925L16.8034 3.89911L16.8037 3.89919ZM18.0894 4.22473C18.0971 4.22023 18.105 4.21577 18.1131 4.21137L18.1127 4.23064L18.0894 4.22473ZM16.2246 3.92493C16.1941 3.913 16.1647 3.90239 16.1345 3.8923L15.8333 3.78102L16.2298 3.90401C16.2272 3.91077 16.2254 3.91776 16.2246 3.92493ZM16.2246 3.92493L16.2322 3.9279L16.2391 3.90688L16.2298 3.90401L16.2301 3.90333L16.2398 3.90714L16.2329 3.92817L16.2245 3.92557L16.2246 3.92493ZM18.4074 4.12244L18.4066 4.12079L18.4126 4.11939L18.4145 4.12036L18.4074 4.12244ZM18.6764 4.2847C18.5377 4.25328 18.4396 4.19456 18.4074 4.12244C18.3881 4.12794 18.3681 4.13273 18.3476 4.13675C18.1644 4.19194 17.9823 4.29814 17.9347 4.3862C17.8852 4.47786 17.9063 4.51518 18.0054 4.54294C18.2939 4.62407 18.6373 4.55037 18.8997 4.36646L18.9104 4.3719C18.9121 4.37505 18.914 4.37816 18.9161 4.38121C18.8091 4.45687 18.6888 4.51449 18.5639 4.5511L18.3171 4.5751L18.3093 4.57976C18.3057 4.585 18.3025 4.59043 18.2995 4.59605L18.3222 4.59474L18.3192 4.59651L18.3243 4.59601C18.2664 4.68761 18.2972 4.8441 18.4323 4.86124C18.4444 4.86278 18.4568 4.86396 18.4694 4.8648L18.429 4.8825L18.4296 4.88258L18.4378 4.88356C18.3445 4.93409 18.2429 4.98479 18.1425 5.03153L17.9108 5.1331C17.8038 5.17682 17.7084 5.21085 17.6392 5.22881L17.6462 5.24908L17.9108 5.1331C17.9841 5.10311 18.0629 5.06857 18.1425 5.03153L18.4732 4.88659L18.4768 4.88679L18.4926 4.87805L18.4865 4.86574C18.5679 4.8692 18.658 4.85922 18.7506 4.83885C18.7459 4.84712 18.7415 4.85537 18.7376 4.86359L18.7646 4.85773C18.6804 5.01365 18.7399 5.15818 18.9186 5.17969C18.9391 5.18216 18.9609 5.18271 18.9836 5.18139L18.9377 5.20295L18.9458 5.20333L18.8831 5.24053C18.851 5.25967 18.8167 5.28009 18.7884 5.29668L18.4944 5.43452C18.4545 5.4479 18.4145 5.4589 18.3741 5.4675L18.3808 5.48776L18.4944 5.43452C18.576 5.40714 18.6575 5.36978 18.7432 5.32259C18.7544 5.31643 18.7701 5.30735 18.7884 5.29668L18.9891 5.20256L18.99 5.2025L18.9948 5.19989L18.9856 5.18127C19.0569 5.17683 19.1381 5.15424 19.2243 5.11553C19.2164 5.12687 19.2091 5.13776 19.2024 5.14823C19.2144 5.14332 19.2264 5.13811 19.2386 5.13258C19.161 5.24527 19.15 5.30479 19.1962 5.36421C19.2211 5.39608 19.2572 5.4019 19.3207 5.38063L19.2466 5.41517L19.2547 5.41552C19.1161 5.48441 18.9656 5.55322 18.8506 5.59966L18.8591 5.61939L19.3269 5.40147L19.3376 5.39769L19.3618 5.3852L19.3535 5.36828C19.3898 5.35328 19.4337 5.33146 19.487 5.30269C19.5375 5.27559 19.5972 5.23688 19.6658 5.18769C19.6898 5.1705 19.7147 5.15213 19.7408 5.13249L19.746 5.12854C19.7415 5.14069 19.7377 5.1525 19.7346 5.16397L19.7536 5.14968L19.764 5.14181C19.7162 5.27722 19.7565 5.36191 19.8582 5.39964C19.9788 5.44466 20.0992 5.43311 20.2073 5.33511L20.2222 5.34164L20.219 5.32406L20.2073 5.33511L19.7643 5.14155L19.7839 5.12666L19.7623 5.11719L19.7593 5.11845C19.7875 5.09701 19.8166 5.07436 19.849 5.04888L19.9056 5.0041L19.9482 4.99621L19.9396 4.97718L19.9056 5.0041L19.6139 5.05817L19.6515 5.02932L19.6338 5.03261C19.7156 4.97113 19.7986 4.91114 19.8557 4.87276L19.8432 4.85528L19.605 5.03795L19.5866 5.04136L19.5488 5.07023L19.2558 5.12454C19.2777 5.11411 19.2998 5.10272 19.3222 5.09037L19.2494 5.10386C19.4146 5.02459 19.5959 4.88805 19.7593 4.70797L19.7885 4.70381L19.7789 4.68603L19.7593 4.70797L19.3564 4.7655L19.3991 4.73767L19.3554 4.74391L19.6811 4.5512L19.67 4.53282C19.6361 4.55414 19.6004 4.57739 19.5558 4.60713L19.4388 4.68562C19.407 4.70683 19.3771 4.72653 19.3487 4.74487L19.2998 4.75185L19.2514 4.78048L18.8353 4.83989C18.8763 4.82851 18.9174 4.81535 18.9581 4.80063L18.831 4.81878C19.0682 4.75267 19.3103 4.62549 19.4569 4.48696C19.4685 4.48561 19.4803 4.48413 19.4921 4.48249L19.495 4.4796L19.4874 4.46383C19.526 4.45844 19.5657 4.45141 19.6061 4.44261L19.6532 4.45181L19.656 4.45114L19.6555 4.43104C19.6389 4.43519 19.6224 4.43905 19.6061 4.44261L18.924 4.3096C18.9547 4.30942 18.9863 4.30817 19.0186 4.30575L18.9268 4.2881C18.9796 4.28766 19.035 4.284 19.0923 4.27668L19.1397 4.29058L19.141 4.26964C19.1247 4.27228 19.1084 4.27462 19.0923 4.27668L18.4177 4.07876C18.4173 4.07416 18.4173 4.06953 18.4175 4.06486L18.4038 4.07466L18.4177 4.07876C18.4183 4.08509 18.4194 4.09136 18.4211 4.09754L18.4228 4.09837L18.4226 4.10038L18.4218 4.09994L18.4225 4.10227L18.4212 4.11832L18.4145 4.12036L18.4363 4.13143C18.4757 4.19336 18.5741 4.24402 18.7091 4.26976L18.7706 4.30097C18.753 4.29879 18.7358 4.29622 18.7191 4.29328L18.7111 4.27328L18.6764 4.2847ZM18.6855 4.28672L18.6764 4.2847L18.2409 4.42794L18.2454 4.44956C18.4423 4.42459 18.5547 4.38256 18.7193 4.29372L18.7191 4.29328L18.717 4.2929L18.7094 4.27399L18.6855 4.28672ZM18.5678 4.34371L18.7176 4.29444L18.717 4.2929C18.7063 4.29099 18.6958 4.28893 18.6855 4.28672C18.6439 4.30867 18.6055 4.32748 18.5678 4.34371ZM18.3915 4.40169C18.4546 4.38705 18.5104 4.36837 18.5678 4.34371L18.3915 4.40169ZM18.3915 4.40169C18.3466 4.4121 18.2981 4.42046 18.2428 4.42748L18.2473 4.4491L18.3915 4.40169ZM18.8292 4.30662C18.8092 4.30521 18.7896 4.30332 18.7706 4.30097L18.8997 4.36646L18.9058 4.36212C18.9071 4.36543 18.9087 4.36869 18.9104 4.3719L18.9156 4.3745L18.9141 4.35619L18.9058 4.36212C18.9032 4.35578 18.9013 4.34927 18.9001 4.34257L18.9252 4.35531L18.9267 4.37362L18.9161 4.38121C18.9427 4.42079 18.9986 4.45176 19.0751 4.47157L18.9914 4.50951L18.5639 4.5511C18.4854 4.57412 18.4051 4.58884 18.3252 4.59452L18.327 4.59185L18.3222 4.59474L18.3252 4.59452L18.3243 4.59601L18.9308 4.53702L18.5651 4.7028L18.5727 4.72286C18.7194 4.67657 18.881 4.60466 19.0236 4.52799L19.3681 4.49448C19.3969 4.49294 19.4266 4.49045 19.4569 4.48696L19.4582 4.48572L19.4883 4.48279L19.4798 4.46487L19.4874 4.46383L19.4863 4.46138L19.3227 4.47729C19.0741 4.48247 18.9022 4.41245 18.9218 4.30961L18.924 4.3096L18.9219 4.3092C18.9225 4.30609 18.9233 4.30295 18.9243 4.29978L18.912 4.30727L18.9219 4.3092L18.9218 4.30961L18.9 4.30952C18.9009 4.30424 18.9021 4.29887 18.9038 4.29342L18.9126 4.28815L18.9268 4.2881L18.9161 4.28604L18.9126 4.28815C18.865 4.28802 18.8197 4.28527 18.7772 4.28023L18.4226 4.10038L18.4225 4.10227C18.4257 4.11222 18.4303 4.12196 18.4363 4.13143L18.7091 4.26976C18.7309 4.27392 18.7536 4.27743 18.7772 4.28023L18.8292 4.30662ZM18.8292 4.30662C18.8522 4.30824 18.8758 4.30922 18.9 4.30952C18.8982 4.32096 18.8982 4.33198 18.9001 4.34257L18.8292 4.30662ZM19.4793 4.46494L19.4796 4.46457L19.4798 4.46487L19.4793 4.46494ZM19.4793 4.46494C19.4247 4.47225 19.3722 4.47626 19.3227 4.47729L19.1846 4.49073C19.1583 4.48797 19.1335 4.48423 19.1101 4.47956L19.1126 4.47811L19.1028 4.45902L19.0751 4.47157L19.0792 4.47261C19.0591 4.48413 19.0384 4.49562 19.0173 4.507L18.9914 4.50951L18.9308 4.53702L18.967 4.5335C18.8374 4.60023 18.6958 4.66145 18.5663 4.70234L18.5739 4.7224L18.997 4.53058L19.0236 4.52799C19.0398 4.51929 19.0557 4.51053 19.0714 4.50174L19.1846 4.49073C19.2403 4.49658 19.3021 4.49802 19.3681 4.49448L19.4582 4.48572C19.4655 4.47882 19.4725 4.47189 19.4793 4.46494ZM19.0577 4.50307L19.0714 4.50174C19.0845 4.49436 19.0975 4.48696 19.1101 4.47956L19.1097 4.47948L19.1117 4.47862L19.1018 4.45953L19.0792 4.47261C19.0891 4.47508 19.0992 4.47738 19.1097 4.47948L19.0577 4.50307ZM19.0577 4.50307L19.0173 4.507C19.0008 4.51591 18.984 4.52475 18.967 4.5335L18.997 4.53058L19.0577 4.50307ZM18.7693 4.84931L18.7646 4.85773C18.7881 4.85241 18.8117 4.84645 18.8353 4.83989L18.7693 4.84931ZM18.7693 4.84931L18.7719 4.84487L18.7642 4.85004L18.7693 4.84931ZM19.3049 4.77284L19.2514 4.78048L18.9698 4.94712L18.979 4.96646C19.0952 4.92279 19.2042 4.86365 19.3564 4.7655L19.3071 4.77254L19.3554 4.74391L19.3487 4.74487L19.3049 4.77284ZM19.2752 4.7914L19.3049 4.77284L19.3071 4.77254L19.2752 4.7914ZM19.2752 4.7914C19.2415 4.8122 19.2099 4.83093 19.1797 4.84792L19.2752 4.7914ZM19.1797 4.84792C19.1056 4.88952 19.0397 4.92067 18.9715 4.94632L18.9807 4.96565L19.1797 4.84792ZM19.2424 5.12702L19.2386 5.13258L19.2558 5.12454L19.2424 5.12702ZM19.2424 5.12702L19.2449 5.12344L19.2381 5.12782L19.2424 5.12702ZM19.5673 5.06679L19.5488 5.07023C19.4638 5.13569 19.3893 5.19609 19.359 5.22665L19.3731 5.24278L19.6139 5.05817L19.5954 5.06158L19.6338 5.03261L19.605 5.03795L19.5673 5.06679ZM19.5673 5.06679L19.3601 5.22569L19.3742 5.24182C19.4077 5.20801 19.4976 5.13602 19.5954 5.06158L19.5673 5.06679ZM19.7641 5.14146L19.764 5.14181L19.7643 5.14155L19.7641 5.14146ZM19.7641 5.14146L19.768 5.13088L19.7537 5.13691L19.7641 5.14146ZM19.7593 5.11845L19.746 5.12854L19.748 5.12322L19.7593 5.11845ZM19.3531 5.36846L19.3535 5.36828L19.3523 5.3659L19.3207 5.38063L19.3303 5.37729C19.3057 5.38994 19.2804 5.40273 19.2547 5.41552C19.275 5.41572 19.2986 5.411 19.3269 5.40147L19.3614 5.38541L19.3531 5.36846ZM19.3531 5.36846L19.3519 5.36611L19.3303 5.37729C19.3375 5.37467 19.3451 5.37173 19.3531 5.36846ZM19.2494 5.10386C19.241 5.1079 19.2326 5.11179 19.2243 5.11553L19.2274 5.11105L19.2342 5.10667L19.2494 5.10386ZM18.9851 5.18131L18.9943 5.20011L18.9891 5.20256C18.9743 5.20357 18.9598 5.20383 18.9458 5.20333C18.9633 5.19297 18.9769 5.18506 18.9838 5.18138L18.9851 5.18131ZM18.9851 5.18131L18.9856 5.18127L18.9853 5.18062L18.9836 5.18139L18.9838 5.18138L18.9848 5.18084L18.9851 5.18131ZM18.831 4.81878C18.8041 4.82628 18.7772 4.833 18.7506 4.83885L18.7534 4.83393L18.7612 4.82875L18.831 4.81878ZM18.4853 4.86568L18.4916 4.8785L18.4732 4.88659C18.4612 4.88588 18.4494 4.88487 18.4378 4.88356L18.4719 4.86494L18.4853 4.86568ZM18.4853 4.86568L18.4865 4.86574L18.4831 4.85879L18.4694 4.8648L18.4719 4.86494L18.4822 4.85924L18.4853 4.86568ZM18.4126 4.11939L18.4092 4.11764L18.4164 4.11853L18.4126 4.11939ZM18.4035 4.11288C18.4022 4.10933 18.4011 4.10575 18.4002 4.10214L18.4145 4.09791L18.4149 4.09797L18.4134 4.11771L18.4035 4.11288ZM20.2334 5.34006L20.234 5.3395L20.2338 5.33846L20.1402 5.40879C20.1702 5.39302 20.1994 5.37204 20.2278 5.34535C20.1529 5.43071 19.9408 5.58696 19.7621 5.69311L19.774 5.71097L20.2475 5.35501L20.2334 5.34006ZM20.2334 5.34006L20.2278 5.34535L20.2329 5.3395L20.2334 5.34006ZM19.8449 5.41754L19.8466 5.41819L19.8523 5.41248L19.839 5.39583L19.8215 5.40695L19.8253 5.40887C19.7881 5.44422 19.7364 5.4844 19.6774 5.52431L19.591 5.57933C19.5226 5.62043 19.4499 5.65853 19.3816 5.68747L19.3916 5.70645L19.591 5.57933C19.6209 5.56139 19.6499 5.54288 19.6774 5.52431L19.8449 5.41754ZM19.8449 5.41754L19.8505 5.41398L19.8371 5.39732L19.8253 5.40887C19.8316 5.41197 19.8381 5.41486 19.8449 5.41754ZM19.7384 5.32296L19.7392 5.32466L19.7502 5.31566L19.7379 5.29815L19.7307 5.30247L19.7311 5.30358C19.6711 5.35247 19.5812 5.41543 19.4845 5.47708L19.3346 5.56811C19.2458 5.61923 19.1609 5.6628 19.0971 5.68733L19.1064 5.70658L19.3346 5.56811C19.3843 5.53946 19.4353 5.50844 19.4845 5.47708L19.7384 5.32296ZM19.7384 5.32296C19.7356 5.31674 19.7332 5.31027 19.7311 5.30358L19.7366 5.29905L19.749 5.31655L19.7384 5.32296ZM19.1479 5.3054L19.148 5.3064L19.1641 5.29726L19.1541 5.27829L19.1476 5.28154L19.1475 5.28198C18.9751 5.37985 18.6727 5.5346 18.5707 5.57023L18.5791 5.59001L19.1479 5.3054ZM19.1479 5.3054C19.1471 5.29779 19.147 5.29001 19.1475 5.28198L19.1536 5.27856L19.1636 5.29754L19.1479 5.3054ZM18.7695 5.14048L18.7703 5.14116L18.7781 5.13608L18.7675 5.11745L18.7536 5.12445L18.7547 5.12567C18.6842 5.17131 18.63 5.20562 18.5745 5.23884L18.1784 5.43866C18.1374 5.45373 18.0994 5.46505 18.0648 5.47231L18.0718 5.49245L18.1784 5.43866C18.2241 5.42189 18.2736 5.40047 18.3264 5.37482C18.3817 5.34798 18.4398 5.31694 18.5004 5.28222C18.5263 5.26741 18.5505 5.25323 18.5745 5.23884L18.7695 5.14048ZM18.7695 5.14048C18.7642 5.13576 18.7593 5.13082 18.7547 5.12567L18.7665 5.11802L18.7771 5.13666L18.7695 5.14048ZM18.7056 4.99178L18.7056 4.99356L18.7198 4.98505L18.7098 4.96609L18.7069 4.96743L18.7069 4.96776C18.6318 5.01282 18.5628 5.05309 18.4982 5.0891L18.096 5.27785C18.0485 5.29463 18.0013 5.30901 17.9531 5.32137L17.9603 5.34153L18.096 5.27785C18.2209 5.23371 18.3477 5.173 18.4982 5.0891L18.7056 4.99178ZM18.7056 4.99178L18.7189 4.98557L18.7088 4.9666L18.7069 4.96776C18.7061 4.97587 18.7057 4.98389 18.7056 4.99178ZM18.2954 4.78873L18.2957 4.78928L18.3033 4.78591L18.2954 4.76595L18.2871 4.76889L18.2873 4.7695C18.0967 4.85359 17.7578 4.9721 17.4988 5.04843L17.5054 5.06889L18.2954 4.78873ZM18.2954 4.78873C18.2924 4.78249 18.2897 4.77607 18.2873 4.7695L18.2946 4.76626L18.3025 4.78622L18.2954 4.78873ZM18.1081 4.58678L18.1088 4.58689L18.1115 4.58514L18.1013 4.5663L18.0693 4.58014L18.0775 4.58169C18.045 4.60273 18.0109 4.62358 17.9759 4.64397L17.428 4.88091C17.3925 4.89005 17.3584 4.89715 17.3263 4.90188L17.3321 4.92239L17.428 4.88091C17.5978 4.83715 17.7997 4.74645 17.9759 4.64397L18.1081 4.58678ZM18.1081 4.58678C18.0979 4.58526 18.0877 4.58356 18.0775 4.58169L18.0997 4.5672L18.1098 4.58605L18.1081 4.58678ZM16.3255 4.38457L16.3262 4.3869L16.3365 4.38522L16.336 4.36319C16.3313 4.36268 16.3262 4.36234 16.3209 4.36217L16.3213 4.36516L16.1618 4.39096L16.1675 4.41224C16.2113 4.39385 16.2807 4.38196 16.3255 4.38457ZM16.3255 4.38457C16.3236 4.3781 16.3222 4.37162 16.3213 4.36516L16.3332 4.36322L16.3338 4.38525L16.3255 4.38457ZM16.3054 4.21453L16.306 4.21574L16.3124 4.2163L16.3162 4.19524L16.2958 4.18946L16.2968 4.19329C16.26 4.18986 16.2243 4.18601 16.1896 4.18172L15.5653 4.00492C15.5405 3.99156 15.5163 3.97744 15.4929 3.96253L15.4843 3.98196L15.5653 4.00492C15.7324 4.09463 15.9336 4.15011 16.1896 4.18172L16.3054 4.21453ZM16.3054 4.21453C16.3018 4.20742 16.2989 4.20032 16.2968 4.19329L16.3142 4.19488L16.3104 4.21594L16.3054 4.21453ZM17.6096 3.77054L17.616 3.77542L17.6252 3.75649C17.6198 3.75504 17.6142 3.75329 17.6084 3.75124C17.6086 3.75768 17.609 3.76412 17.6096 3.77054ZM20.2421 5.50083C20.1979 5.56022 20.0865 5.69183 20.0157 5.76815L20.0317 5.78245L20.2588 5.51423L20.2421 5.50083ZM20.2425 5.5003L20.2593 5.5137C20.2145 5.57377 20.1027 5.70596 20.0314 5.78281L20.0154 5.76852L20.2425 5.5003Z" fill="black"/>
<path fill-rule="evenodd" clip-rule="evenodd" d="M20.1587 3.51917C20.116 3.62692 20.0921 3.85494 20.1049 3.94394C20.1073 3.96099 20.1069 3.9653 20.0994 4.03689C20.0857 4.16745 20.0911 4.26647 20.1343 4.39437L20.1546 4.38748C20.1126 4.26298 20.1073 4.16688 20.1207 4.03914C20.1286 3.96431 20.1289 3.96069 20.1261 3.94091C20.1139 3.85551 20.1373 3.63128 20.1786 3.52711L20.1587 3.51917ZM19.8295 4.09425C19.8236 4.0133 19.8319 3.90792 19.8539 3.83222L19.8745 3.83823C19.8533 3.91126 19.8451 4.01413 19.8508 4.09268L19.8295 4.09425ZM19.8441 4.2276C19.8266 4.30264 19.8395 4.47726 19.8635 4.57383L19.8843 4.56862C19.8611 4.47508 19.8483 4.30364 19.865 4.23252L19.8441 4.2276ZM19.9199 4.80516C19.91 4.78932 19.9025 4.7744 19.8976 4.76039L19.9178 4.75288C19.922 4.7651 19.9288 4.77853 19.9379 4.79303C19.9493 4.81118 19.964 4.8305 19.9817 4.85116C19.9964 4.86824 20.0083 4.88108 20.0312 4.90489L20.016 4.92056C19.9929 4.89647 19.9807 4.88341 19.9657 4.86594C19.9474 4.84451 19.932 4.82435 19.9199 4.80516ZM20.0033 4.35601C19.9935 4.48076 20.062 4.71753 20.1316 4.79781C20.1468 4.93061 20.2389 5.12067 20.3688 5.25167L20.384 5.2365C20.2574 5.10888 20.1675 4.92318 20.1503 4.78938C20.0821 4.708 20.0153 4.47695 20.0247 4.35771L20.0033 4.35601ZM19.9744 4.21694C19.9633 4.13811 19.9607 4.05904 19.9697 4.00881L19.9908 4.01261C19.9823 4.06013 19.9848 4.13717 19.9956 4.21394L19.9744 4.21694ZM20.3082 4.34531C20.2625 4.19176 20.2608 3.82305 20.308 3.62796L20.3289 3.63303C20.2825 3.82456 20.2841 4.18942 20.3287 4.33916L20.3082 4.34531ZM20.2499 4.40317C20.2241 4.51771 20.2268 4.65031 20.2599 4.75011L20.2803 4.74331C20.2484 4.64746 20.2458 4.51881 20.2708 4.40792L20.2499 4.40317ZM20.6389 4.22744C20.5105 4.08399 20.4327 3.8701 20.438 3.7031L20.4594 3.70378C20.4543 3.86524 20.5301 4.07374 20.6549 4.21307L20.6389 4.22744ZM20.4043 4.23901C20.3895 4.42431 20.4001 4.5945 20.4338 4.69175C20.4425 4.71684 20.4486 4.74734 20.4572 4.80321L20.4655 4.85763C20.4689 4.87906 20.472 4.89711 20.4753 4.91441C20.4915 4.99878 20.5127 5.06086 20.5464 5.10886L20.564 5.09647C20.5324 5.0515 20.512 4.99198 20.4964 4.91034C20.4931 4.89331 20.4901 4.87548 20.4867 4.85426L20.4784 4.79993C20.4696 4.74277 20.4633 4.71143 20.4541 4.68469C20.4215 4.59081 20.4111 4.42331 20.4256 4.24073L20.4043 4.23901ZM20.5769 4.54114L20.5688 4.51068L20.5895 4.50515L20.5976 4.53574C20.6087 4.57885 20.6153 4.61135 20.6184 4.64379C20.6228 4.69063 20.6186 4.73106 20.6036 4.76562L20.5839 4.75704C20.5973 4.72624 20.6011 4.68932 20.597 4.64581C20.5941 4.61474 20.5877 4.58323 20.5769 4.54114ZM20.6946 4.36963C20.7302 4.48675 20.7524 4.63004 20.7473 4.69232L20.7687 4.69409C20.774 4.62868 20.7514 4.48285 20.7151 4.36335L20.6946 4.36963ZM20.8454 5.31754C20.8012 5.23993 20.7612 5.11596 20.7521 5.0159L20.7735 5.01394C20.7823 5.11088 20.8213 5.2319 20.864 5.30688L20.8454 5.31754ZM20.5932 5.31079C20.6336 5.43276 20.7031 5.55868 20.7659 5.60832L20.7792 5.59142C20.7205 5.54501 20.6528 5.42232 20.6135 5.304L20.5932 5.31079ZM21.1875 5.65211C21.1446 5.52216 21.1165 5.45902 21.0487 5.36245L21.0662 5.35007C21.1355 5.4487 21.1644 5.51356 21.2079 5.64535L21.1875 5.65211Z" fill="black"/>
<path fill-rule="evenodd" clip-rule="evenodd" d="M20.2642 5.39114C20.2775 5.39256 20.2858 5.39309 20.3088 5.39424C20.3622 5.39691 20.381 5.40235 20.405 5.42782C20.4208 5.44461 20.4366 5.46999 20.4536 5.50693C20.5129 5.63588 20.675 5.83303 20.7697 5.89445L20.7696 5.8945C20.895 6.11527 20.9507 6.40668 20.9118 6.56309C20.9006 6.49428 20.8617 6.44133 20.8015 6.39795C20.7782 6.3811 20.7633 6.37253 20.7227 6.3509C20.669 6.39786 20.5907 6.45189 20.5512 6.46033L20.5557 6.48137C20.6003 6.47184 20.6821 6.41538 20.7256 6.36766C20.7454 6.38494 20.7584 6.39397 20.7728 6.40399L20.789 6.41542C20.845 6.4558 20.8806 6.50425 20.8907 6.56685L20.9117 6.56344L20.9103 6.56886L20.931 6.57448C20.9726 6.42017 20.9223 6.13647 20.8038 5.91228C20.9498 5.97955 21.0432 6.05537 21.0615 6.1623L21.0818 6.16488L21.0923 6.14134C21.141 6.03161 21.1595 5.9562 21.141 5.87833L21.1428 5.88054L21.1599 5.90118C21.2137 5.96591 21.2532 6.01354 21.2825 6.04954L21.2805 6.04982C21.2834 6.07031 21.2861 6.1015 21.2893 6.14906C21.2899 6.15755 21.2914 6.18214 21.2932 6.21008C21.2956 6.24805 21.2984 6.29223 21.2997 6.31062C21.3074 6.42359 21.3151 6.49886 21.3256 6.54795L21.3465 6.54343C21.3363 6.4957 21.3287 6.42108 21.321 6.30916C21.3198 6.29083 21.317 6.24679 21.3146 6.20886C21.3128 6.18084 21.3113 6.15615 21.3107 6.14761C21.3088 6.11884 21.307 6.09599 21.3053 6.07774C21.3509 6.13503 21.3628 6.15509 21.369 6.17678C21.3709 6.18329 21.3722 6.18994 21.3738 6.19778L21.3738 6.19779L21.3738 6.19779L21.3756 6.20657C21.3935 6.29207 21.4622 6.40933 21.5311 6.48466L21.5469 6.47012C21.4804 6.3974 21.4136 6.28339 21.3966 6.20215L21.3943 6.19088C21.3926 6.18238 21.3912 6.17521 21.3892 6.16821C21.3785 6.13081 21.3513 6.09811 21.1791 5.8907L21.1791 5.8907L21.1791 5.8907L21.1791 5.8907L21.1791 5.89069L21.1593 5.86678C21.1446 5.84915 21.1314 5.833 21.119 5.81741L21.1009 5.82864C21.1435 5.92158 21.1315 5.99882 21.0751 6.12728C21.0433 6.02484 20.9457 5.95241 20.8011 5.88745C20.7176 5.85 20.5354 5.63358 20.473 5.49792C20.4551 5.45902 20.4382 5.43176 20.4205 5.41303C20.3917 5.38247 20.3683 5.37569 20.3099 5.37277C20.2873 5.37164 20.2793 5.37112 20.2664 5.36975L20.2642 5.39114ZM21.3053 6.07774C21.3041 6.06549 21.3029 6.05531 21.3017 6.0468L21.2825 6.04954C21.2909 6.05985 21.2985 6.06921 21.3053 6.07774ZM20.9117 6.56344L20.9119 6.56342L20.9118 6.56309L20.9117 6.56344ZM20.8038 5.91228L20.7924 5.90708C20.7854 5.90394 20.7778 5.89969 20.7697 5.89445L20.7882 5.88385C20.7935 5.89321 20.7987 5.90269 20.8038 5.91228ZM20.4144 5.71708C20.452 5.83055 20.4818 5.96679 20.4848 6.04563L20.5062 6.0448C20.5031 5.96361 20.4729 5.82553 20.4347 5.7103L20.4144 5.71708ZM20.7392 6.2765C20.7359 6.21285 20.6959 6.04618 20.6562 5.93513L20.6763 5.92786C20.7168 6.04071 20.7571 6.2093 20.7606 6.27536L20.7392 6.2765ZM21.1136 6.23773C21.1447 6.31294 21.1643 6.43166 21.1581 6.50241L21.1794 6.50432C21.186 6.43002 21.1658 6.30782 21.1334 6.22948L21.1136 6.23773Z" fill="black"/>
</g>
</svg>
