<svg width="28" height="20" viewBox="0 0 28 20" fill="none" xmlns="http://www.w3.org/2000/svg">
<rect width="28" height="20" rx="2" fill="white"/>
<mask id="mask0_1723_27279" style="mask-type:luminance" maskUnits="userSpaceOnUse" x="0" y="0" width="28" height="20">
<rect width="28" height="20" rx="2" fill="white"/>
</mask>
<g mask="url(#mask0_1723_27279)">
<path fill-rule="evenodd" clip-rule="evenodd" d="M0 2.66667H28V0H0V2.66667Z" fill="#369D0C"/>
<path fill-rule="evenodd" clip-rule="evenodd" d="M0 20H28V17.3334H0V20Z" fill="#369D0C"/>
<path fill-rule="evenodd" clip-rule="evenodd" d="M0 8.00004H28V5.33337H0V8.00004Z" fill="#369D0C"/>
<path fill-rule="evenodd" clip-rule="evenodd" d="M0 14.6667H28V12H0V14.6667Z" fill="#369D0C"/>
<path fill-rule="evenodd" clip-rule="evenodd" d="M0 12H28V8H0V12Z" fill="#262626"/>
<path fill-rule="evenodd" clip-rule="evenodd" d="M0 5.33329H28V2.66663H0V5.33329Z" fill="#FFD40E"/>
<path fill-rule="evenodd" clip-rule="evenodd" d="M0 17.3333H28V14.6666H0V17.3333Z" fill="#FFD40E"/>
<path d="M-0.220947 0.666992L12.2224 10L-0.220947 19.333H-0.66626V0.666992H-0.220947Z" fill="white" stroke="#262626" stroke-width="1.33333"/>
<path fill-rule="evenodd" clip-rule="evenodd" d="M4.00008 11.3L2.0408 12.6967L2.76371 10.4017L0.829893 8.9699L3.23596 8.94824L4.00008 6.66663L4.7642 8.94824L7.17027 8.9699L5.23645 10.4017L5.95937 12.6967L4.00008 11.3Z" fill="url(#paint0_linear_1723_27279)"/>
</g>
<defs>
<linearGradient id="paint0_linear_1723_27279" x1="0.666748" y1="6.66663" x2="0.666748" y2="13.3333" gradientUnits="userSpaceOnUse">
<stop stop-color="#F12F1F"/>
<stop offset="1" stop-color="#DE2010"/>
</linearGradient>
</defs>
</svg>
