<svg width="20" height="20" viewBox="0 0 20 20" fill="none" xmlns="http://www.w3.org/2000/svg">
<rect x="2" y="2" width="16" height="16" rx="8" fill="#23854A"/>
<path d="M8.46962 11.8502L6.81271 10.1933C6.72343 10.104 6.60234 10.0538 6.47607 10.0538C6.34981 10.0538 6.22872 10.104 6.13944 10.1933C6.05016 10.2825 6 10.4036 6 10.5299C6 10.5924 6.01231 10.6543 6.03624 10.7121C6.06016 10.7698 6.09523 10.8223 6.13944 10.8665L8.13537 12.8625C8.3216 13.0487 8.62242 13.0487 8.80864 12.8625L13.8606 7.81056C13.9498 7.72128 14 7.60019 14 7.47392C14 7.34766 13.9498 7.22657 13.8606 7.13729C13.7713 7.04801 13.6502 6.99785 13.5239 6.99785C13.3977 6.99785 13.2766 7.04801 13.1873 7.13729L8.46962 11.8502Z" fill="white"/>
</svg>
