<svg width="20" height="20" viewBox="0 0 20 20" fill="none" xmlns="http://www.w3.org/2000/svg">
<circle cx="10" cy="10" r="8" fill="#9D2235"/>
<path fill-rule="evenodd" clip-rule="evenodd" d="M9.99977 9.29289L7.87363 7.16675C7.67837 6.97149 7.36179 6.97149 7.16652 7.16675C6.97126 7.36202 6.97126 7.6786 7.16652 7.87386L9.29266 10L7.16652 12.1261C6.97126 12.3214 6.97126 12.638 7.16652 12.8332C7.36179 13.0285 7.67837 13.0285 7.87363 12.8332L9.99977 10.7071L12.1259 12.8333C12.3212 13.0285 12.6378 13.0285 12.833 12.8333C13.0283 12.638 13.0283 12.3214 12.833 12.1262L10.7069 10L12.833 7.87383C13.0283 7.67857 13.0283 7.36199 12.833 7.16673C12.6378 6.97146 12.3212 6.97146 12.1259 7.16673L9.99977 9.29289Z" fill="white"/>
</svg>
