<svg width="161" height="24" viewBox="0 0 161 24" fill="none" xmlns="http://www.w3.org/2000/svg">
<g clip-path="url(#clip0_4427_2065)">
<path d="M37.3423 9.61644C35.7259 9.61644 34.6574 10.137 33.3971 11.4795V3.91782H26.5752V7.12329H28.904V20.6027H26.5752V23.7808H33.3971V22.1918C34.6026 23.3973 35.8903 23.9726 37.3971 23.9726C40.9314 23.9726 43.3149 21.0959 43.3149 16.8219C43.3149 12.548 40.8766 9.61644 37.3423 9.61644ZM36.082 20.5753C34.3834 20.5753 33.3697 19.1507 33.3697 16.9041C33.3697 14.5753 34.356 13.1781 36.1094 13.1781C37.8081 13.1781 38.767 14.4658 38.767 16.7397C38.7944 19.1507 37.7533 20.5753 36.082 20.5753Z" fill="white"/>
<path d="M58.8764 15.5616C58.8764 13.315 58.7394 12.5753 57.9997 11.589C57.0408 10.2466 55.2326 9.58902 52.4381 9.58902C48.9586 9.58902 46.849 10.6027 45.7257 12.9041L49.2874 13.5616C50.0545 12.7671 50.7668 12.4383 51.8079 12.4383C53.397 12.4383 54.4381 13.3972 54.4381 14.8767V15.6986C52.9038 15.1507 52.3285 15.0137 51.2874 15.0137C47.9997 15.0137 45.6436 16.9863 45.6436 19.6712C45.6436 22.1644 47.7805 24 50.6847 24C52.0545 24 53.1778 23.6164 54.4655 22.7123V23.8082H61.1504V20.6027H58.9038V15.5616H58.8764ZM54.4655 19.8082C53.2874 20.8493 52.6025 21.2329 51.7257 21.2329C50.7121 21.2329 49.9449 20.4383 49.9449 19.3972C49.9449 18.4109 50.7668 17.6712 51.9449 17.6712C52.6573 17.6712 53.1504 17.863 54.2463 18.5205L54.4929 18.6575V19.8082H54.4655Z" fill="white"/>
<path d="M68.2454 4.63013L63.8345 7.78081V9.97259H62.0811V13.1507H63.8345V20.3836C63.8345 21.6712 63.9441 22.1644 64.4646 22.7945C65.04 23.5616 66.1906 24 67.4509 24C68.492 24 69.6701 23.7534 70.7934 23.2877V20.2466C70.1358 20.4383 69.8893 20.5205 69.4235 20.5205C68.4646 20.5205 68.2454 20.274 68.2454 19.1507V13.1781H70.7934V9.97259H68.2454V4.63013Z" fill="white"/>
<path d="M87.1773 14.9315C87.1773 13.2329 87.1225 12.8767 86.6842 11.9452C86.0814 10.6301 84.6568 9.83562 82.9308 9.83562C81.5609 9.83562 80.7116 10.137 79.013 11.2877V4.13699H72.3828V7.31508H74.4924V20.7945H72.3828V23.9726H80.9856V20.7945H79.013V14.3014C80.0266 13.6164 80.6294 13.4247 81.3417 13.4247C82.3554 13.4247 82.739 13.8904 82.739 15.1233V24H89.1773V20.7945H87.1499V14.9315H87.1773Z" fill="white"/>
<path d="M101.122 15.5616C100.383 15.2602 99.5608 15.0411 98.6019 14.8767C98.2184 14.7945 97.7252 14.7123 97.1499 14.6027C95.0951 14.2465 94.7389 14.0822 94.7389 13.452C94.7389 12.8493 95.4786 12.4383 96.6293 12.4383C98.3827 12.4383 99.369 12.9041 99.6704 13.863H102.821V9.91778H99.6704V10.3561C98.5745 9.91778 97.3964 9.6712 96.1636 9.6712C93.1773 9.6712 91.0677 11.3698 91.0677 13.726C91.0403 16.0548 92.9855 17.589 96.7663 18.2191L97.9992 18.4109C99.4512 18.6575 100.109 19.0137 100.109 19.6986C100.109 20.5205 99.232 21.0411 97.8622 21.0411C96.0814 21.0411 94.9033 20.2191 94.8211 18.9041H91.5608V23.6712H94.8211V22.9589C95.5334 23.6438 96.5745 23.9178 98.2183 23.9178C101.616 23.9178 103.753 22.137 103.78 19.315C103.78 17.6164 102.821 16.2465 101.122 15.5616Z" fill="white"/>
<path d="M111.534 4.63013L107.123 7.78081V9.97259H105.369V13.1507H107.123V20.3836C107.123 21.6712 107.232 22.1644 107.753 22.7945C108.328 23.5616 109.479 24 110.739 24C111.78 24 112.958 23.7534 114.081 23.2877V20.2466C113.451 20.4383 113.177 20.5205 112.712 20.5205C111.753 20.5205 111.534 20.274 111.534 19.1507V13.1781H114.081V9.97259H111.534V4.63013Z" fill="white"/>
<path d="M123.233 9.50684C118.877 9.50684 115.945 12.4109 115.945 16.7397C115.945 21.0685 118.877 24 123.233 24C127.589 24 130.493 21.0685 130.493 16.7397C130.493 12.4109 127.589 9.50684 123.233 9.50684ZM123.206 20.5753C121.507 20.5753 120.493 19.1781 120.493 16.7945C120.493 14.3014 121.452 12.9041 123.206 12.9041C124.932 12.9041 125.945 14.3014 125.945 16.6575C125.945 19.1781 124.986 20.5753 123.206 20.5753Z" fill="white"/>
<path d="M139.013 13.6712V10.1918H132.574V13.3698H134.985V20.7945H132.438V23.9726H142.164V20.7945H139.424V19.0959C139.424 18 139.698 16.9041 140.164 16.0548C140.903 14.7123 142.136 14.137 144.136 14.137H144.574V9.94519H143.862C141.533 9.94519 139.67 11.3972 139.013 13.6712Z" fill="white"/>
<path d="M160.492 17.2877C160.492 12.6027 157.615 9.50684 153.313 9.50684C148.957 9.50684 145.807 12.6301 145.807 16.9863C145.807 21.2603 148.82 23.9726 153.587 23.9726C155.478 23.9726 156.903 23.5616 158.3 22.6575C159.286 21.9726 159.642 21.6438 160.327 20.5753L156.903 19.452C155.615 20.7123 154.848 21.0959 153.697 21.0959C153.012 21.0959 152.355 20.9315 151.807 20.5753C150.711 19.9178 150.355 19.2329 150.218 17.6438H160.519V17.2877H160.492ZM150.245 15.2055C150.519 13.3425 151.45 12.4383 153.094 12.4383C154.711 12.4383 155.807 13.4794 156.053 15.2055H150.245Z" fill="white"/>
<path d="M2.51953 22.9589H3.53323L3.88939 21.1781C3.58802 20.9863 3.31405 20.7397 3.04008 20.4931L2.51953 22.9589Z" fill="#B3B3B3"/>
<path d="M1.17773 14.5479C1.25993 16.8219 2.08184 18.1918 3.5613 19.7534C5.28732 21.5616 7.72568 22.2466 10.438 22.2466C12.9586 22.2466 15.2873 21.6712 16.986 20.0548C18.6572 18.4931 19.5887 16.9589 19.6709 14.5479H1.17773Z" fill="#B3B3B3"/>
<path d="M16.9863 21.2055L17.3425 22.9863H18.3562L17.8356 20.5205C17.5617 20.7671 17.2877 20.9863 16.9863 21.2055Z" fill="#B3B3B3"/>
<path d="M20.4932 13.8356L1.75342 13.863V12.1644H2.54795C2.76712 12.1644 2.9863 12.274 3.12329 12.411C3.26027 12.5479 3.34247 12.7397 3.34247 12.9315L3.31507 13.3425H4.0274L4 12.9315C4 12.5753 3.86301 12.2192 3.58904 11.9452C3.31507 11.6712 2.93151 11.5068 2.52055 11.5068H1.78082V10.9315L2.84932 11.0685L2.82192 10.3014L1.72603 10.411V10.3014H1.17808V10.411L0.109589 10.3014V11.0685L1.15069 10.9315V13.863L0.383562 13.8356H0V14.2192C0 15.452 0.219178 16.4657 0.630137 17.3973C1.0411 18.3014 1.61644 19.0959 2.38356 19.9178L1.36986 23.4794L1.31507 23.6712H4.27397L4.30137 23.4794L4.54795 21.6438C6.24658 22.5753 8.24658 22.9589 10.4384 22.9589C12.6027 22.9589 14.6301 22.5753 16.3288 21.6438L16.5753 23.4794L16.6027 23.6712H19.5616L19.4795 23.452L18.4658 19.9178C19.2329 19.1233 19.8082 18.3014 20.2192 17.3973C20.6301 16.4657 20.8493 15.4246 20.8493 14.1918V13.8356H20.4932Z" fill="black"/>
<path d="M2.51953 22.9589H3.53323L3.88939 21.1781C3.58802 20.9863 3.31405 20.7397 3.04008 20.4931L2.51953 22.9589Z" fill="white"/>
<path d="M16.9854 21.2055L17.3415 22.9863H18.3552L17.8347 20.5205C17.5607 20.7671 17.2867 20.9863 16.9854 21.2055Z" fill="white"/>
<path d="M19.6699 14.5479H1.17676C1.25895 16.8219 2.08087 18.1917 3.56032 19.7534C5.28635 21.5616 7.7247 22.2465 10.437 22.2465C12.9576 22.2465 15.2863 21.6712 16.985 20.0548C18.6562 18.4931 19.5877 16.9589 19.6699 14.5479Z" fill="white"/>
<path d="M10.6025 12.6027C10.6025 12.6027 16.0272 9.75341 11.534 6.30136C13.9176 9.26027 10.6025 12.6027 10.6025 12.6027Z" fill="#8ED6E8"/>
<path d="M11.5334 6.30137C9.14983 3.34247 12.5745 0 12.5745 0C12.5745 0 7.01284 2.84932 11.5334 6.30137Z" fill="#8ED6E8"/>
<path d="M8.98535 11.6438C8.98535 11.6438 12.958 9.01369 9.25932 6.73972C11.3963 8.9041 8.98535 11.6438 8.98535 11.6438Z" fill="#8ED6E8"/>
<path d="M9.25967 6.73974C7.12268 4.57535 9.53364 1.36987 9.53364 1.36987C9.53364 1.36987 5.23227 4.24659 9.25967 6.73974Z" fill="#8ED6E8"/>
</g>
<defs>
<clipPath id="clip0_4427_2065">
<rect width="160.521" height="24" fill="white"/>
</clipPath>
</defs>
</svg>
