<svg width="72" height="72" viewBox="0 0 72 72" fill="none" xmlns="http://www.w3.org/2000/svg">
<rect width="72" height="72" fill="#00AFDB"/>
<path d="M24.2776 61.7596C23.9262 61.6164 23.5356 61.5123 23.08 61.4341C22.8978 61.3951 22.6634 61.356 22.3901 61.304C21.4137 61.1347 21.2445 61.0566 21.2445 60.7572C21.2445 60.4708 21.596 60.2756 22.1427 60.2756C22.9759 60.2756 23.4445 60.4969 23.5877 60.9525H25.0847V59.0779H23.5877V59.2862C23.067 59.0779 22.5072 58.9608 21.9214 58.9608C20.5025 58.9608 19.5001 59.7679 19.5001 60.8874C19.4871 61.9939 20.4114 62.7229 22.2078 63.0223L22.7936 63.1134C23.4835 63.2306 23.796 63.3998 23.796 63.7253C23.796 64.1158 23.3794 64.3631 22.7285 64.3631C21.8824 64.3631 21.3226 63.9726 21.2836 63.3478H19.7345V65.6128H21.2836V65.2744C21.622 65.5998 22.1167 65.73 22.8978 65.73C24.5119 65.73 25.5273 64.8838 25.5403 63.543C25.5403 62.7359 25.0847 62.085 24.2776 61.7596Z" fill="white"/>
<path d="M29.2249 56.5655L27.129 58.0626V59.104H26.2959V60.614H27.129V64.0507C27.129 64.6625 27.1811 64.8969 27.4284 65.1963C27.7018 65.5608 28.2486 65.769 28.8474 65.769C29.342 65.769 29.9018 65.6519 30.4355 65.4306V63.9856C30.1361 64.0767 30.0059 64.1158 29.7846 64.1158C29.329 64.1158 29.2249 63.9986 29.2249 63.4649V60.627H30.4355V59.104H29.2249V56.5655Z" fill="white"/>
<path d="M34.783 58.8827C32.7132 58.8827 31.3203 60.2626 31.3203 62.3194C31.3203 64.3762 32.7132 65.7691 34.783 65.7691C36.8528 65.7691 38.2327 64.3762 38.2327 62.3194C38.2327 60.2626 36.8528 58.8827 34.783 58.8827ZM34.77 64.1418C33.9629 64.1418 33.4812 63.4779 33.4812 62.3454C33.4812 61.1608 33.9369 60.4969 34.77 60.4969C35.5901 60.4969 36.0718 61.1608 36.0718 62.2803C36.0718 63.4779 35.6162 64.1418 34.77 64.1418Z" fill="white"/>
<path d="M42.2815 60.8614V59.2081H39.2223V60.7182H40.3679V64.246H39.1572V65.756H43.7785V64.246H42.4767V63.4389C42.4767 62.9182 42.6069 62.3975 42.8282 61.9939C43.1797 61.3561 43.7655 61.0827 44.7158 61.0827H44.9241V59.091H44.5856C43.4791 59.091 42.5939 59.7809 42.2815 60.8614Z" fill="white"/>
<path d="M52.4873 62.5797C52.4873 60.3537 51.1204 58.8827 49.0766 58.8827C47.0068 58.8827 45.5098 60.3667 45.5098 62.4365C45.5098 64.4673 46.9417 65.756 49.2068 65.756C50.105 65.756 50.7819 65.5608 51.4458 65.1312C51.9145 64.8057 52.0837 64.6495 52.4091 64.1418L50.7819 63.6081C50.1701 64.2069 49.8056 64.3892 49.2589 64.3892C48.9334 64.3892 48.621 64.3111 48.3606 64.1418C47.8399 63.8294 47.6707 63.504 47.6056 62.7489H52.5003V62.5797H52.4873ZM47.6186 61.5904C47.7488 60.7052 48.1914 60.2756 48.9725 60.2756C49.7405 60.2756 50.2612 60.7703 50.3784 61.5904H47.6186Z" fill="white"/>
<path d="M25.0897 47.4584C24.2505 47.4584 23.6958 47.7287 23.0416 48.4256V44.5H19.5V46.1641H20.709V53.1619H19.5V54.8118H23.0416V53.9869C23.6674 54.6127 24.3359 54.9114 25.1182 54.9114C26.953 54.9114 28.1904 53.4179 28.1904 51.1991C28.1904 48.9803 26.9245 47.4584 25.0897 47.4584ZM24.4355 53.1477C23.5536 53.1477 23.0274 52.4081 23.0274 51.2418C23.0274 50.0328 23.5394 49.3074 24.4497 49.3074C25.3315 49.3074 25.8293 49.9759 25.8293 51.1565C25.8435 52.4081 25.3031 53.1477 24.4355 53.1477Z" fill="white"/>
<path d="M36.2692 50.5448C36.2692 49.3785 36.1981 48.9945 35.8141 48.4825C35.3163 47.7855 34.3775 47.4442 32.9268 47.4442C31.1204 47.4442 30.0252 47.9704 29.4421 49.1652L31.2911 49.5065C31.6894 49.0941 32.0592 48.9234 32.5996 48.9234C33.4246 48.9234 33.9651 49.4212 33.9651 50.1893V50.616C33.1686 50.3315 32.8699 50.2604 32.3294 50.2604C30.6226 50.2604 29.3994 51.2844 29.3994 52.6783C29.3994 53.9726 30.5088 54.9256 32.0165 54.9256C32.7276 54.9256 33.3108 54.7265 33.9793 54.2571V54.826H37.4497V53.1619H36.2834V50.5448H36.2692ZM33.9793 52.7494C33.3677 53.2899 33.0121 53.489 32.557 53.489C32.0307 53.489 31.6325 53.0766 31.6325 52.5361C31.6325 52.0241 32.0592 51.64 32.6708 51.64C33.0406 51.64 33.2966 51.7396 33.8655 52.0809L33.9935 52.1521V52.7494H33.9793Z" fill="white"/>
<path d="M41.1328 44.8698L38.8429 46.5055V47.6433H37.9326V49.2932H38.8429V53.0482C38.8429 53.7166 38.8998 53.9727 39.17 54.2998C39.4687 54.698 40.0661 54.9256 40.7204 54.9256C41.2608 54.9256 41.8724 54.7976 42.4556 54.5558V52.977C42.1142 53.0766 41.9862 53.1193 41.7444 53.1193C41.2466 53.1193 41.1328 52.9913 41.1328 52.4081V49.3075H42.4556V47.6433H41.1328V44.8698Z" fill="white"/>
<path d="M50.9618 50.2177C50.9618 49.3359 50.9333 49.151 50.7058 48.6674C50.3929 47.9847 49.6532 47.5722 48.7572 47.5722C48.046 47.5722 47.6051 47.7287 46.7233 48.326V44.6138H43.2812V46.2637H44.3764V53.2615H43.2812V54.9114H47.7473V53.2615H46.7233V49.8906C47.2495 49.535 47.5624 49.4354 47.9322 49.4354C48.4585 49.4354 48.6576 49.6772 48.6576 50.3173V54.9256H52.0001V53.2615H50.9476V50.2177H50.9618Z" fill="white"/>
<path d="M24.2803 39.4383H25.8008L26.3351 36.7671C25.883 36.4794 25.4721 36.1095 25.0611 35.7397L24.2803 39.4383Z" fill="#B3B3B3"/>
<path d="M22.2666 26.8219C22.3899 30.2329 23.6228 32.2877 25.8419 34.6301C28.431 37.3424 32.0885 38.3698 36.157 38.3698C39.9378 38.3698 43.431 37.5068 45.9789 35.0822C48.4858 32.7397 49.883 30.4383 50.0063 26.8219H22.2666Z" fill="#B3B3B3"/>
<path d="M45.9795 36.8082L46.5137 39.4795H48.0343L47.2535 35.7808C46.8425 36.1507 46.4315 36.4795 45.9795 36.8082Z" fill="#B3B3B3"/>
<path d="M51.2397 25.7534L23.1301 25.7945V23.2465H24.3219C24.6507 23.2465 24.9795 23.4109 25.1849 23.6164C25.3904 23.8219 25.5137 24.1096 25.5137 24.3972L25.4726 25.0137H26.5411L26.5 24.3972C26.5 23.863 26.2945 23.3287 25.8836 22.9178C25.4726 22.5068 24.8973 22.2602 24.2808 22.2602H23.1712V21.3972L24.774 21.6027L24.7329 20.452L23.089 20.6164V20.452H22.2671V20.6164L20.6644 20.452V21.6027L22.226 21.3972V25.7945L21.0753 25.7534H20.5V26.3287C20.5 28.1781 20.8288 29.6986 21.4452 31.0959C22.0616 32.452 22.9247 33.6438 24.0753 34.8767L22.5548 40.2192L22.4726 40.5068H26.911L26.9521 40.2192L27.3219 37.4657C29.8699 38.863 32.8699 39.4383 36.1575 39.4383C39.4041 39.4383 42.4452 38.863 44.9932 37.4657L45.363 40.2192L45.4041 40.5068H49.8425L49.7192 40.1781L48.1986 34.8767C49.3493 33.6849 50.2123 32.452 50.8288 31.0959C51.4452 29.6986 51.774 28.137 51.774 26.2876V25.7534H51.2397Z" fill="black"/>
<path d="M24.2803 39.4383H25.8008L26.3351 36.7671C25.883 36.4794 25.4721 36.1096 25.0611 35.7397L24.2803 39.4383Z" fill="white"/>
<path d="M45.9795 36.8082L46.5137 39.4794H48.0343L47.2535 35.7808C46.8425 36.1507 46.4315 36.4794 45.9795 36.8082Z" fill="white"/>
<path d="M50.0063 26.8219H22.2666C22.3899 30.2329 23.6228 32.2877 25.8419 34.6301C28.431 37.3424 32.0885 38.3698 36.157 38.3698C39.9378 38.3698 43.431 37.5068 45.9789 35.0822C48.4858 32.7397 49.883 30.4383 50.0063 26.8219Z" fill="white"/>
<path d="M36.4043 23.9041C36.4043 23.9041 44.5413 19.6301 37.8016 14.452C41.3769 18.8904 36.4043 23.9041 36.4043 23.9041Z" fill="#8ED6E8"/>
<path d="M37.8016 14.4521C34.2262 10.0137 39.3632 5 39.3632 5C39.3632 5 31.0207 9.27397 37.8016 14.4521Z" fill="#8ED6E8"/>
<path d="M33.9795 22.4657C33.9795 22.4657 39.9384 18.5205 34.3905 15.1096C37.5959 18.3561 33.9795 22.4657 33.9795 22.4657Z" fill="#8ED6E8"/>
<path d="M34.39 15.1096C31.1845 11.863 34.801 7.05481 34.801 7.05481C34.801 7.05481 28.3489 11.3699 34.39 15.1096Z" fill="#8ED6E8"/>
</svg>
