<svg width="226" height="24" viewBox="0 0 226 24" fill="none" xmlns="http://www.w3.org/2000/svg">
<g clip-path="url(#clip0_4427_2087)">
<path d="M20.2295 13.8261H1.28639V12.1605H2.02887C2.2496 12.1605 2.45027 12.2408 2.61081 12.4013C2.75127 12.5418 2.83154 12.7224 2.83154 12.903V13.3043H3.53388V12.903C3.51382 12.5418 3.37335 12.2007 3.11248 11.9197C2.83154 11.6388 2.45027 11.4783 2.04893 11.4783H1.30646V10.8963L2.37 11.0368V10.2542L1.30646 10.3746V10.2742H0.624186V10.3746L-0.439358 10.2542V11.0167L0.624186 10.8763V13.806H-0.479492V14.1472C-0.479492 16.5752 0.34325 18.1806 1.8884 19.8261L0.824855 23.5585H3.77468L4.03555 21.5318C5.72117 22.4749 7.72786 22.8562 9.89508 22.8562C12.0623 22.8562 14.069 22.4749 15.7345 21.5318L15.9954 23.5585H18.9452L17.8817 19.8261C19.4268 18.1806 20.2496 16.5752 20.2496 14.1472V13.806L20.2295 13.8261Z" fill="#201D1D"/>
<path d="M16.3975 20.0066C14.7119 21.612 12.3841 22.1739 9.87573 22.1739C7.18677 22.1739 4.75868 21.4916 3.03293 19.6856C1.54798 18.1204 0.745307 16.7558 0.665039 14.4883H19.0664C18.9861 16.8963 18.043 18.4214 16.3774 19.9866" fill="white"/>
<path d="M2.99358 22.8962H1.99023L2.51197 20.4481C2.77284 20.6889 3.07385 20.9096 3.35478 21.1303L2.99358 22.8962Z" fill="white"/>
<path d="M16.7587 22.8962L16.3975 21.1303C16.6985 20.9297 16.9794 20.7089 17.2403 20.4481L17.7419 22.8962H16.7386H16.7587Z" fill="white"/>
<path d="M10.0361 12.5619C10.0361 12.5619 13.3472 9.23079 10.9592 6.28096C8.57124 3.31106 12.0027 3.05176e-05 12.0027 3.05176e-05C12.0027 3.05176e-05 6.48429 2.82946 10.9592 6.28096C15.4341 9.73246 10.0361 12.5619 10.0361 12.5619Z" fill="#8BD4EC"/>
<path d="M8.45098 11.5988C8.45098 11.5988 10.8389 8.86968 8.71185 6.70246C6.58477 4.5553 8.99279 1.3446 8.99279 1.3446C8.99279 1.3446 4.67841 4.23423 8.71185 6.70246C12.4042 8.97002 8.45098 11.5988 8.45098 11.5988Z" fill="#8BD4EC"/>
<path d="M32.6917 11.3981C33.9358 10.0737 35.0194 9.53191 36.6047 9.53191C40.1164 9.53191 42.5245 12.4416 42.5245 16.6958C42.5245 20.95 40.1766 23.7794 36.6649 23.7794C35.1599 23.7794 33.8756 23.1974 32.6917 22.0135V23.5787H25.9492V20.4081H28.2569V7.04361H25.9492V3.87305H32.6917V11.3781V11.3981ZM35.4007 13.0837C33.6549 13.0837 32.6716 14.4483 32.6716 16.776C32.6716 19.1038 33.695 20.4081 35.3606 20.4081C37.0261 20.4081 38.0295 18.9834 38.0295 16.6356C38.0295 14.2878 37.0663 13.1038 35.4007 13.1038" fill="white"/>
<path d="M60.1626 23.5987H53.5606V22.5151C52.2763 23.4181 51.1927 23.7993 49.8281 23.7993C46.9586 23.7993 44.8516 21.9733 44.8516 19.505C44.8516 16.8361 47.1994 14.8897 50.4502 14.8897C51.4937 14.8897 52.0756 15.0101 53.5807 15.5519V14.7492C53.5807 13.3044 52.5372 12.3412 50.972 12.3412C49.9485 12.3412 49.2261 12.6622 48.4837 13.4448L44.9519 12.8027C46.0556 10.5351 48.1425 9.5318 51.594 9.5318C54.3432 9.5318 56.1492 10.1739 57.0924 11.4984C57.8148 12.4816 57.9552 13.204 57.9552 15.4515V20.4482H60.1827V23.6187L60.1626 23.5987ZM53.3198 18.3612C52.2161 17.7191 51.7345 17.5184 51.0322 17.5184C49.8683 17.5184 49.0656 18.2408 49.0656 19.2241C49.0656 20.2676 49.8281 21.0502 50.8315 21.0502C51.6944 21.0502 52.3967 20.6689 53.5606 19.6254V18.5017L53.3398 18.3612H53.3198Z" fill="white"/>
<path d="M61.085 9.89304H62.8308V7.70575L67.2054 4.57532V9.89304H69.7338V13.0636H67.2054V18.9833C67.2054 20.1071 67.406 20.3479 68.3692 20.3479C68.8308 20.3479 69.0916 20.2877 69.7338 20.087V23.097C68.6301 23.5586 67.4662 23.7994 66.4227 23.7994C65.1786 23.7994 64.0549 23.3579 63.4729 22.6154C62.9512 22.0134 62.8308 21.5118 62.8308 20.2475V13.0837H61.085V9.91311V9.89304Z" fill="white"/>
<path d="M71.2793 20.4282H73.3663V7.04361H71.2793V3.87305H77.8612V10.9767C79.5469 9.81284 80.3897 9.53191 81.7341 9.53191C83.4398 9.53191 84.8445 10.3145 85.4465 11.6189C85.888 12.5419 85.9482 12.9031 85.9482 14.5687V20.4081H87.9549V23.5787H81.5736V14.7894C81.5736 13.5653 81.1923 13.1038 80.189 13.1038C79.4666 13.1038 78.8846 13.3045 77.8612 13.9667V20.4081H79.8077V23.5787H71.2994V20.4081L71.2793 20.4282Z" fill="white"/>
<path d="M90.2826 18.863H93.4933C93.5736 20.1674 94.7375 20.9901 96.5034 20.9901C97.8679 20.9901 98.7308 20.4684 98.7308 19.6456C98.7308 18.9834 98.0886 18.6021 96.6438 18.3613L95.4198 18.1607C91.6873 17.5185 89.7408 16.0135 89.7609 13.6858C89.7609 11.3379 91.8478 9.65231 94.7977 9.65231C96.0218 9.65231 97.2057 9.89312 98.2692 10.3145V9.87305H101.4V13.8262H98.2692C97.9883 12.863 96.985 12.4015 95.2592 12.4015C94.0953 12.4015 93.3729 12.8028 93.3729 13.4249C93.3729 14.047 93.7141 14.2075 95.7408 14.5486C96.3228 14.6289 96.8044 14.7292 97.1856 14.8095C98.1488 14.95 98.9515 15.1908 99.6739 15.4717C101.36 16.1339 102.303 17.4985 102.303 19.2643C102.283 22.0536 100.156 23.8195 96.8044 23.8195C95.1789 23.8195 94.1355 23.5386 93.4532 22.8563V23.5587H90.2425V18.8229L90.2826 18.863Z" fill="white"/>
<path d="M103.93 9.89304H105.676V7.70575L110.05 4.57532V9.89304H112.579V13.0636H110.05V18.9833C110.05 20.1071 110.251 20.3479 111.214 20.3479C111.676 20.3479 111.936 20.2877 112.579 20.087V23.097C111.475 23.5586 110.311 23.7994 109.267 23.7994C108.023 23.7994 106.9 23.3579 106.318 22.6154C105.796 22.0134 105.676 21.5118 105.676 20.2475V13.0837H103.93V9.91311V9.89304Z" fill="white"/>
<path d="M114.423 16.7158C114.423 12.4214 117.312 9.55188 121.627 9.55188C125.941 9.55188 128.811 12.4214 128.811 16.7158C128.811 21.0101 125.941 23.9198 121.627 23.9198C117.312 23.9198 114.423 21.0101 114.423 16.7158ZM124.336 16.6355C124.336 14.3077 123.312 12.9231 121.607 12.9231C119.901 12.9231 118.918 14.3077 118.918 16.776C118.918 19.2442 119.941 20.5285 121.607 20.5285C123.373 20.5285 124.336 19.1438 124.336 16.6355Z" fill="white"/>
<path d="M140.349 23.5988H130.737V20.4282H133.266V13.0637H130.898V9.89312H137.259V13.3446C137.921 11.0771 139.747 9.65231 142.075 9.65231H142.737V13.8062H142.296C140.289 13.8062 139.085 14.3881 138.363 15.7125C137.901 16.5553 137.64 17.659 137.64 18.7225V20.4082H140.369V23.5787L140.349 23.5988Z" fill="white"/>
<path d="M158.35 20.5485C157.688 21.592 157.327 21.9331 156.344 22.6154C154.959 23.5184 153.554 23.9198 151.688 23.9198C146.972 23.9198 143.982 21.2107 143.982 16.9766C143.982 12.7425 147.113 9.55188 151.427 9.55188C155.742 9.55188 158.531 12.6221 158.531 17.2776V17.6589H148.337C148.457 19.2241 148.819 19.9265 149.902 20.5686C150.444 20.9097 151.126 21.0903 151.788 21.0903C152.952 21.0903 153.695 20.7091 154.979 19.4649L158.37 20.5686L158.35 20.5485ZM151.186 12.4415C149.561 12.4415 148.638 13.3445 148.377 15.1907H154.116C153.895 13.485 152.792 12.4415 151.186 12.4415Z" fill="white"/>
<path d="M219.272 8.56859C216.864 8.56859 214.837 9.5318 213.633 11.0769C212.59 9.39133 210.764 8.56859 208.556 8.56859C206.489 8.56859 204.744 9.31106 203.62 10.6555V8.72912H200.269V23.7993H203.8V16.1539C203.8 13.1639 205.386 11.6388 207.713 11.6388C209.861 11.6388 211.105 12.9432 211.105 15.6121V23.7993H214.636V16.1539C214.636 13.1639 216.242 11.6388 218.57 11.6388C220.717 11.6388 221.961 12.9432 221.961 15.6121V23.7993H225.493V15.1706C225.493 10.6355 222.944 8.56859 219.312 8.56859M189.392 20.9699C186.844 20.9699 184.938 19.1438 184.938 16.2542C184.938 13.3646 186.864 11.5385 189.392 11.5385C191.921 11.5385 193.867 13.3646 193.867 16.2542C193.867 19.1438 191.941 20.9699 189.392 20.9699ZM189.392 24C194.068 24 197.439 20.7893 197.439 16.2743C197.439 11.7592 194.088 8.56859 189.392 8.56859C184.697 8.56859 181.386 11.7592 181.386 16.2743C181.386 20.7893 184.777 24 189.392 24ZM173.941 24C176.871 24 179.218 22.7358 180.382 20.4682L177.673 18.883C176.77 20.3278 175.426 20.9699 173.921 20.9699C171.332 20.9699 169.346 19.184 169.346 16.2542C169.346 13.3244 171.312 11.5385 173.921 11.5385C175.406 11.5385 176.77 12.1806 177.673 13.6254L180.382 12.0402C179.218 9.75253 176.891 8.54852 173.941 8.54852C169.165 8.54852 165.794 11.7392 165.794 16.2542C165.794 20.7692 169.185 23.9799 173.941 23.9799M162.402 24C163.667 24 164.71 23.0167 164.71 21.6522C164.71 20.2876 163.667 19.3044 162.402 19.3044C161.138 19.3044 160.095 20.2274 160.095 21.6522C160.095 23.0769 161.138 24 162.402 24Z" fill="white"/>
</g>
<defs>
<clipPath id="clip0_4427_2087">
<rect width="226" height="24" fill="white"/>
</clipPath>
</defs>
</svg>
