<svg width="24" height="24" viewBox="0 0 24 24" fill="none" xmlns="http://www.w3.org/2000/svg">
<rect width="24" height="24" rx="4" fill="#00AFDB"/>
<path d="M5.70312 20.4282H6.51678L6.80266 18.9988C6.56076 18.8449 6.34086 18.647 6.12095 18.449L5.70312 20.4282Z" fill="#B3B3B3"/>
<path d="M4.62402 13.6771C4.69 15.5023 5.34972 16.6018 6.53722 17.8553C7.92264 19.3067 9.87981 19.8565 12.0569 19.8565C14.08 19.8565 15.9493 19.3947 17.3127 18.0972C18.6541 16.8437 19.4018 15.6122 19.4678 13.6771H4.62402Z" fill="#B3B3B3"/>
<path d="M17.3135 19.0209L17.5994 20.4503H18.413L17.9952 18.4711C17.7753 18.669 17.5554 18.8449 17.3135 19.0209Z" fill="#B3B3B3"/>
<path d="M20.1278 13.1053L5.08612 13.1273V11.7639H5.72385C5.89978 11.7639 6.0757 11.8518 6.18566 11.9618C6.29561 12.0717 6.36158 12.2257 6.36158 12.3796L6.33959 12.7095H6.91135L6.88936 12.3796C6.88936 12.0937 6.77941 11.8078 6.5595 11.5879C6.33959 11.368 6.03172 11.2361 5.70186 11.2361H5.10811V10.7743L5.96575 10.8842L5.94376 10.2685L5.06413 10.3565V10.2685H4.62431V10.3565L3.76667 10.2685V10.8842L4.60232 10.7743V13.1273L3.98658 13.1053H3.67871V13.4132C3.67871 14.4028 3.85464 15.2164 4.1845 15.9641C4.51436 16.6898 4.97617 17.3275 5.59191 17.9873L4.77825 20.846L4.73427 21H7.10927L7.13126 20.846L7.32918 19.3727C8.6926 20.1204 10.2979 20.4282 12.0572 20.4282C13.7945 20.4282 15.4218 20.1204 16.7852 19.3727L16.9831 20.846L17.0051 21H19.3801L19.3141 20.8241L18.5005 17.9873C19.1162 17.3495 19.578 16.6898 19.9079 15.9641C20.2378 15.2164 20.4137 14.3808 20.4137 13.3912V13.1053H20.1278Z" fill="black"/>
<path d="M5.70117 20.4282H6.51483L6.80071 18.9988C6.55881 18.8449 6.3389 18.647 6.119 18.4491L5.70117 20.4282Z" fill="white"/>
<path d="M17.3135 19.0208L17.5994 20.4502H18.413L17.9952 18.471C17.7753 18.669 17.5554 18.8449 17.3135 19.0208Z" fill="white"/>
<path d="M19.4678 13.6771H4.62402C4.69 15.5023 5.34972 16.6018 6.53722 17.8553C7.92264 19.3067 9.87981 19.8565 12.0569 19.8565C14.08 19.8565 15.9493 19.3947 17.3127 18.0972C18.6541 16.8437 19.4018 15.6122 19.4678 13.6771Z" fill="white"/>
<path d="M12.1904 12.1157C12.1904 12.1157 16.5446 9.82867 12.9381 7.05783C14.8513 9.43283 12.1904 12.1157 12.1904 12.1157Z" fill="#8ED6E8"/>
<path d="M12.9369 7.05788C11.0237 4.68287 13.7725 2 13.7725 2C13.7725 2 9.30842 4.28704 12.9369 7.05788Z" fill="#8ED6E8"/>
<path d="M10.8916 11.346C10.8916 11.346 14.0803 9.23493 11.1115 7.4097C12.8268 9.14697 10.8916 11.346 10.8916 11.346Z" fill="#8ED6E8"/>
<path d="M11.1123 7.40974C9.39704 5.67247 11.3322 3.09955 11.3322 3.09955C11.3322 3.09955 7.87968 5.40858 11.1123 7.40974Z" fill="#8ED6E8"/>
</svg>
