<svg width="16" height="16" viewBox="0 0 16 16" fill="none" xmlns="http://www.w3.org/2000/svg">
<path fill-rule="evenodd" clip-rule="evenodd" d="M7.99984 0C7.29259 0 6.61432 0.280951 6.11422 0.781049C5.61412 1.28115 5.33317 1.95942 5.33317 2.66667V8C5.33317 8.70724 5.61412 9.38552 6.11422 9.88562C6.61432 10.3857 7.29259 10.6667 7.99984 10.6667C8.70708 10.6667 9.38536 10.3857 9.88546 9.88562C10.3856 9.38552 10.6665 8.70724 10.6665 8V2.66667C10.6665 1.95942 10.3856 1.28115 9.88546 0.781049C9.38536 0.280951 8.70708 0 7.99984 0ZM7.05703 1.72386C7.30708 1.47381 7.64622 1.33333 7.99984 1.33333C8.35346 1.33333 8.6926 1.47381 8.94265 1.72386C9.1927 1.97391 9.33317 2.31304 9.33317 2.66667V8C9.33317 8.35362 9.1927 8.69276 8.94265 8.94281C8.6926 9.19286 8.35346 9.33333 7.99984 9.33333C7.64621 9.33333 7.30708 9.19286 7.05703 8.94281C6.80698 8.69276 6.6665 8.35362 6.6665 8V2.66667C6.6665 2.31304 6.80698 1.97391 7.05703 1.72386Z" fill="#292737"/>
<path d="M3.99984 6.66667C3.99984 6.29848 3.70136 6 3.33317 6C2.96498 6 2.6665 6.29848 2.6665 6.66667V8C2.6665 9.41449 3.22841 10.771 4.2286 11.7712C5.07035 12.613 6.1645 13.1443 7.33317 13.2915V14.6667H5.33317C4.96498 14.6667 4.6665 14.9651 4.6665 15.3333C4.6665 15.7015 4.96498 16 5.33317 16H10.6665C11.0347 16 11.3332 15.7015 11.3332 15.3333C11.3332 14.9651 11.0347 14.6667 10.6665 14.6667H8.6665V13.2915C9.83517 13.1443 10.9293 12.613 11.7711 11.7712C12.7713 10.771 13.3332 9.41449 13.3332 8V6.66667C13.3332 6.29848 13.0347 6 12.6665 6C12.2983 6 11.9998 6.29848 11.9998 6.66667V8C11.9998 9.06087 11.5784 10.0783 10.8283 10.8284C10.0781 11.5786 9.0607 12 7.99984 12C6.93897 12 5.92156 11.5786 5.17141 10.8284C4.42126 10.0783 3.99984 9.06087 3.99984 8V6.66667Z" fill="#292737"/>
</svg>
