<svg width="16" height="16" viewBox="0 0 16 16" fill="none" xmlns="http://www.w3.org/2000/svg">
<path fill-rule="evenodd" clip-rule="evenodd" d="M4.00016 2C3.63197 2 3.3335 2.29848 3.3335 2.66667V13.3333C3.3335 13.7015 3.63197 14 4.00016 14H6.66683C7.03502 14 7.3335 13.7015 7.3335 13.3333V2.66667C7.3335 2.29848 7.03502 2 6.66683 2H4.00016ZM4.66683 12.6667V3.33333H6.00016V12.6667H4.66683Z" fill="#292737"/>
<path fill-rule="evenodd" clip-rule="evenodd" d="M9.3335 2C8.96531 2 8.66683 2.29848 8.66683 2.66667V13.3333C8.66683 13.7015 8.96531 14 9.3335 14H12.0002C12.3684 14 12.6668 13.7015 12.6668 13.3333V2.66667C12.6668 2.29848 12.3684 2 12.0002 2H9.3335ZM10.0002 12.6667V3.33333H11.3335V12.6667H10.0002Z" fill="#292737"/>
</svg>
