<svg width="16" height="16" viewBox="0 0 16 16" fill="none" xmlns="http://www.w3.org/2000/svg">
<path fill-rule="evenodd" clip-rule="evenodd" d="M1.98975 1.93938C1.98975 1.65978 2.16421 1.40989 2.42669 1.31354C3.52221 0.911414 4.42226 0.727303 5.34346 0.744963C6.25422 0.762423 7.14066 0.976927 8.19642 1.30228C9.2341 1.62206 9.9735 1.80946 10.6912 1.83247C11.3906 1.8549 12.1122 1.72139 13.0922 1.32201C13.2977 1.23824 13.5315 1.26228 13.7157 1.38613C13.8999 1.50998 14.0104 1.7174 14.0104 1.93938V9.27272C14.0104 9.54375 13.8463 9.7878 13.5953 9.89009C12.4886 10.3411 11.5789 10.5283 10.6484 10.4985C9.73628 10.4692 8.84723 10.2314 7.80375 9.90982C6.77834 9.59382 6.03677 9.42517 5.3179 9.41139C4.71761 9.39988 4.10097 9.49618 3.32308 9.74742L3.32308 14.6667C3.32308 15.0349 3.0246 15.3333 2.65641 15.3333C2.28822 15.3333 1.98975 15.0349 1.98975 14.6667V1.93938ZM5.34346 8.0783C4.68552 8.06569 4.03837 8.156 3.32308 8.35516V2.41408C4.10097 2.16284 4.71761 2.06654 5.3179 2.07805C6.03677 2.09183 6.77834 2.26048 7.80375 2.57648C8.84723 2.89805 9.73628 3.13587 10.6484 3.16512C11.3091 3.18631 11.9594 3.09808 12.6771 2.88366V8.8142C11.9011 9.09052 11.288 9.18495 10.6912 9.16581C9.9735 9.1428 9.2341 8.9554 8.19642 8.63562C7.14066 8.31027 6.25422 8.09576 5.34346 8.0783Z" fill="#292737"/>
</svg>
