<svg width="16" height="16" viewBox="0 0 16 16" fill="none" xmlns="http://www.w3.org/2000/svg">
<path fill-rule="evenodd" clip-rule="evenodd" d="M8.59766 1.03824C8.48535 0.810705 8.2536 0.666656 7.99986 0.666656C7.74611 0.666656 7.51437 0.810705 7.40205 1.03824L5.49702 4.89763L1.23677 5.52033C0.985731 5.55703 0.777278 5.73303 0.699026 5.97437C0.620774 6.21571 0.686289 6.48054 0.868035 6.65756L3.95018 9.65957L3.22278 13.9006C3.17989 14.1508 3.28272 14.4035 3.48803 14.5527C3.69335 14.7018 3.96555 14.7215 4.19016 14.6034L7.99986 12.5999L11.8096 14.6034C12.0342 14.7215 12.3064 14.7018 12.5117 14.5527C12.717 14.4035 12.8198 14.1508 12.7769 13.9006L12.0495 9.65957L15.1317 6.65756C15.3134 6.48054 15.3789 6.21571 15.3007 5.97437C15.2224 5.73303 15.014 5.55703 14.7629 5.52033L10.5027 4.89763L8.59766 1.03824ZM6.53766 5.80174L7.99986 2.83949L9.46205 5.80174C9.55908 5.9983 9.74654 6.13461 9.96344 6.16631L13.2342 6.64439L10.868 8.94909C10.7108 9.10225 10.639 9.323 10.6761 9.53935L11.2344 12.7944L8.31016 11.2566C8.1159 11.1545 7.88381 11.1545 7.68956 11.2566L4.76531 12.7944L5.3236 9.53935C5.3607 9.323 5.28893 9.10225 5.13168 8.94909L2.76546 6.64439L6.03628 6.16631C6.25318 6.13461 6.44064 5.9983 6.53766 5.80174Z" fill="#292737"/>
</svg>
