<svg width="16" height="16" viewBox="0 0 16 16" fill="none" xmlns="http://www.w3.org/2000/svg">
<path d="M10.4714 2.19526C10.2111 1.93491 9.78895 1.93491 9.5286 2.19526L6.19526 5.5286C5.93491 5.78894 5.93491 6.21106 6.19526 6.4714C6.45561 6.73175 6.87772 6.73175 7.13807 6.4714L9.33333 4.27614V10.6667C9.33333 11.1971 9.12262 11.7058 8.74755 12.0809C8.37247 12.456 7.86377 12.6667 7.33333 12.6667H2.66667C2.29848 12.6667 2 12.9651 2 13.3333C2 13.7015 2.29848 14 2.66667 14H7.33333C8.21739 14 9.06524 13.6488 9.69036 13.0237C10.3155 12.3986 10.6667 11.5507 10.6667 10.6667V4.27614L12.8619 6.4714C13.1223 6.73175 13.5444 6.73175 13.8047 6.4714C14.0651 6.21106 14.0651 5.78894 13.8047 5.5286L10.4714 2.19526Z" fill="#292737"/>
</svg>
