<svg width="16" height="16" viewBox="0 0 16 16" fill="none" xmlns="http://www.w3.org/2000/svg">
<g clip-path="url(#clip0_1741_61818)">
<path fill-rule="evenodd" clip-rule="evenodd" d="M4.7595 9.56979C3.48706 8.59507 2.6665 7.06003 2.6665 5.33333C2.6665 2.38781 5.05432 0 7.99984 0C10.9454 0 13.3332 2.38781 13.3332 5.33333C13.3332 7.05969 12.5129 8.59447 11.2409 9.56922L11.994 15.2457C12.0277 15.4994 11.9131 15.75 11.6992 15.8906C11.4852 16.0311 11.2097 16.0367 10.9902 15.905L7.99984 14.1108L5.0095 15.905C4.78999 16.0367 4.51444 16.0311 4.30048 15.8905C4.08652 15.75 3.97194 15.4993 4.00564 15.2456L4.7595 9.56979ZM3.99984 5.33333C3.99984 3.12419 5.7907 1.33333 7.99984 1.33333C10.209 1.33333 11.9998 3.12419 11.9998 5.33333C11.9998 6.72099 11.2932 7.9436 10.2202 8.661C10.1822 8.68067 10.1464 8.70385 10.1133 8.73005C9.50004 9.11242 8.77574 9.33333 7.99984 9.33333C5.7907 9.33333 3.99984 7.54247 3.99984 5.33333ZM9.99057 10.2827C9.37547 10.5304 8.70357 10.6667 7.99984 10.6667C7.29638 10.6667 6.62473 10.5305 6.00981 10.283L5.50947 14.0501L7.65684 12.7617C7.86796 12.635 8.13171 12.635 8.34283 12.7617L10.4904 14.0502L9.99057 10.2827Z" fill="#292737"/>
</g>
<defs>
<clipPath id="clip0_1741_61818">
<rect width="16" height="16" fill="white"/>
</clipPath>
</defs>
</svg>
