<svg width="16" height="16" viewBox="0 0 16 16" fill="none" xmlns="http://www.w3.org/2000/svg">
<path d="M7.3335 4.66665C7.70169 4.66665 8.00016 4.96512 8.00016 5.33331V6.66665H9.3335C9.70168 6.66665 10.0002 6.96512 10.0002 7.33331C10.0002 7.7015 9.70168 7.99998 9.3335 7.99998H8.00016V9.33331C8.00016 9.7015 7.70169 9.99998 7.3335 9.99998C6.96531 9.99998 6.66683 9.7015 6.66683 9.33331V7.99998H5.3335C4.96531 7.99998 4.66683 7.7015 4.66683 7.33331C4.66683 6.96512 4.96531 6.66665 5.3335 6.66665H6.66683V5.33331C6.66683 4.96512 6.96531 4.66665 7.3335 4.66665Z" fill="#292737"/>
<path fill-rule="evenodd" clip-rule="evenodd" d="M11.0786 12.0213C10.0521 12.8423 8.75015 13.3333 7.3335 13.3333C4.01979 13.3333 1.3335 10.647 1.3335 7.33331C1.3335 4.0196 4.01979 1.33331 7.3335 1.33331C10.6472 1.33331 13.3335 4.0196 13.3335 7.33331C13.3335 8.75001 12.8425 10.052 12.0214 11.0785L14.4715 13.5286C14.7319 13.7889 14.7319 14.2111 14.4715 14.4714C14.2112 14.7318 13.789 14.7318 13.5287 14.4714L11.0786 12.0213ZM2.66683 7.33331C2.66683 4.75598 4.75617 2.66665 7.3335 2.66665C9.91082 2.66665 12.0002 4.75598 12.0002 7.33331C12.0002 8.59055 11.503 9.73166 10.6945 10.5708C10.6717 10.5884 10.6497 10.6076 10.6287 10.6286C10.6077 10.6495 10.5885 10.6716 10.5709 10.6944C9.73177 11.5028 8.59069 12 7.3335 12C4.75617 12 2.66683 9.91064 2.66683 7.33331Z" fill="#292737"/>
</svg>
