<svg width="16" height="16" viewBox="0 0 16 16" fill="none" xmlns="http://www.w3.org/2000/svg">
<g clip-path="url(#clip0_1741_61969)">
<path fill-rule="evenodd" clip-rule="evenodd" d="M8.00016 0.666656C7.82335 0.666656 7.65378 0.736894 7.52876 0.861919C7.40373 0.986943 7.3335 1.15651 7.3335 1.33332V7.99999C7.3335 8.36818 7.63197 8.66666 8.00016 8.66666H14.6668C15.035 8.66666 15.3335 8.36818 15.3335 7.99999C15.3335 7.03696 15.1438 6.08337 14.7753 5.19364C14.4067 4.30392 13.8666 3.4955 13.1856 2.81454C12.5046 2.13358 11.6962 1.59341 10.8065 1.22487C9.91679 0.856339 8.96319 0.666656 8.00016 0.666656ZM8.66683 7.33332V2.03714C9.22589 2.09965 9.7745 2.24059 10.2963 2.45671C11.0242 2.75824 11.6857 3.2002 12.2428 3.75735C12.8 4.3145 13.2419 4.97594 13.5434 5.70389C13.7596 6.22565 13.9005 6.77426 13.963 7.33332H8.66683Z" fill="#292737"/>
<path d="M5.60008 2.49767C5.93754 2.35041 6.09172 1.95747 5.94446 1.62001C5.7972 1.28255 5.40426 1.12836 5.0668 1.27563C3.96891 1.75473 3.0051 2.49548 2.25963 3.43311C1.51416 4.37075 1.00973 5.47673 0.790438 6.65436C0.571145 7.83198 0.643667 9.0454 1.00167 10.1885C1.35966 11.3316 1.99224 12.3697 2.84408 13.2118C3.69593 14.054 4.7411 14.6747 5.88824 15.0196C7.03538 15.3645 8.24954 15.4232 9.42459 15.1905C10.5996 14.9577 11.6998 14.4407 12.6288 13.6846C13.5579 12.9285 14.2876 11.9562 14.7541 10.853C14.8975 10.5138 14.7389 10.1227 14.3998 9.97929C14.0606 9.83589 13.6695 9.99455 13.5261 10.3337C13.1444 11.2364 12.5473 12.0318 11.7872 12.6505C11.0271 13.2691 10.1269 13.6921 9.16554 13.8825C8.20414 14.073 7.21073 14.025 6.27217 13.7427C5.3336 13.4605 4.47845 12.9527 3.78149 12.2637C3.08453 11.5746 2.56697 10.7253 2.27406 9.79004C1.98115 8.85476 1.92182 7.86196 2.10124 6.89845C2.28066 5.93494 2.69338 5.03005 3.30331 4.26289C3.91324 3.49573 4.70181 2.88966 5.60008 2.49767Z" fill="#292737"/>
</g>
<defs>
<clipPath id="clip0_1741_61969">
<rect width="16" height="16" fill="white"/>
</clipPath>
</defs>
</svg>
