<svg width="16" height="16" viewBox="0 0 16 16" fill="none" xmlns="http://www.w3.org/2000/svg">
<path d="M2.00016 3.33334C1.63197 3.33334 1.3335 3.63182 1.3335 4.00001C1.3335 4.3682 1.63197 4.66668 2.00016 4.66668H2.00683C2.37502 4.66668 2.6735 4.3682 2.6735 4.00001C2.6735 3.63182 2.37502 3.33334 2.00683 3.33334H2.00016Z" fill="#292737"/>
<path d="M5.3335 3.33334C4.96531 3.33334 4.66683 3.63182 4.66683 4.00001C4.66683 4.3682 4.96531 4.66668 5.3335 4.66668H14.0002C14.3684 4.66668 14.6668 4.3682 14.6668 4.00001C14.6668 3.63182 14.3684 3.33334 14.0002 3.33334H5.3335Z" fill="#292737"/>
<path d="M5.3335 7.33334C4.96531 7.33334 4.66683 7.63182 4.66683 8.00001C4.66683 8.3682 4.96531 8.66668 5.3335 8.66668H14.0002C14.3684 8.66668 14.6668 8.3682 14.6668 8.00001C14.6668 7.63182 14.3684 7.33334 14.0002 7.33334H5.3335Z" fill="#292737"/>
<path d="M4.66683 12C4.66683 11.6318 4.96531 11.3333 5.3335 11.3333H14.0002C14.3684 11.3333 14.6668 11.6318 14.6668 12C14.6668 12.3682 14.3684 12.6667 14.0002 12.6667H5.3335C4.96531 12.6667 4.66683 12.3682 4.66683 12Z" fill="#292737"/>
<path d="M1.3335 8.00001C1.3335 7.63182 1.63197 7.33334 2.00016 7.33334H2.00683C2.37502 7.33334 2.6735 7.63182 2.6735 8.00001C2.6735 8.3682 2.37502 8.66668 2.00683 8.66668H2.00016C1.63197 8.66668 1.3335 8.3682 1.3335 8.00001Z" fill="#292737"/>
<path d="M2.00016 11.3333C1.63197 11.3333 1.3335 11.6318 1.3335 12C1.3335 12.3682 1.63197 12.6667 2.00016 12.6667H2.00683C2.37502 12.6667 2.6735 12.3682 2.6735 12C2.6735 11.6318 2.37502 11.3333 2.00683 11.3333H2.00016Z" fill="#292737"/>
</svg>
