<svg width="16" height="16" viewBox="0 0 16 16" fill="none" xmlns="http://www.w3.org/2000/svg">
<g clip-path="url(#clip0_1741_62175)">
<path fill-rule="evenodd" clip-rule="evenodd" d="M13.1081 0.666653H3.8169C3.33604 0.662214 2.86962 0.831186 2.50315 1.14269C2.13577 1.45496 1.89358 1.88942 1.82114 2.36609L0.901066 8.36661C0.857558 8.65325 0.876891 8.94593 0.957726 9.22436C1.03856 9.50279 1.17896 9.76032 1.36921 9.9791C1.55945 10.1979 1.79499 10.3727 2.05949 10.4914C2.32274 10.6095 2.60842 10.6693 2.89693 10.6667H6.00018V12.6667C6.00018 13.3739 6.28113 14.0522 6.78123 14.5523C7.28133 15.0524 7.95961 15.3333 8.66685 15.3333C8.93031 15.3333 9.16906 15.1782 9.27606 14.9374L11.7668 9.33332H13.1082C13.6465 9.34128 14.1693 9.1521 14.578 8.80131C14.9883 8.44911 15.255 7.95853 15.3275 7.42268C15.3315 7.39306 15.3335 7.36321 15.3335 7.33332V2.66665C15.3335 2.63677 15.3315 2.60691 15.3275 2.57729C15.255 2.04144 14.9883 1.55086 14.578 1.19867C14.1693 0.847871 13.6465 0.658698 13.1081 0.666653ZM13.1253 1.99988C13.3393 1.9961 13.5472 2.07101 13.7096 2.2104C13.8622 2.34139 13.9646 2.52075 14.0002 2.7179V7.28208C13.9646 7.47922 13.8622 7.65859 13.7096 7.78958C13.5472 7.92896 13.3393 8.00388 13.1253 8.00009L13.1135 7.99999H12.0002V1.99999H13.1135L13.1253 1.99988ZM8.26163 13.9369L10.6668 8.52518V1.99999H3.80598C3.6452 1.99817 3.48919 2.05448 3.36668 2.15861C3.24417 2.26274 3.16342 2.40764 3.13931 2.56661L2.2193 8.5667C2.20487 8.66212 2.21128 8.75993 2.23819 8.85261C2.26513 8.94542 2.31193 9.03127 2.37535 9.10419C2.43876 9.17712 2.51727 9.23539 2.60544 9.27496C2.69361 9.31453 2.78933 9.33446 2.88597 9.33336L2.89352 9.33328L6.66685 9.33332C7.03504 9.33332 7.33352 9.6318 7.33352 9.99999V12.6667C7.33352 13.0203 7.47399 13.3594 7.72404 13.6095C7.87594 13.7614 8.06071 13.8728 8.26163 13.9369Z" fill="#292737"/>
</g>
<defs>
<clipPath id="clip0_1741_62175">
<rect width="16" height="16" fill="white"/>
</clipPath>
</defs>
</svg>
