<svg width="16" height="16" viewBox="0 0 16 16" fill="none" xmlns="http://www.w3.org/2000/svg">
<path fill-rule="evenodd" clip-rule="evenodd" d="M8.47149 1.32194C8.34639 1.19684 8.17671 1.1266 7.99979 1.12668C7.82288 1.12676 7.65325 1.19715 7.52827 1.32236L3.76217 5.09512C2.92288 5.93402 2.35079 7.00335 2.119 8.16716C1.88717 9.33115 2.00576 10.5378 2.45977 11.6343C2.91378 12.7309 3.68281 13.6682 4.66959 14.3277C5.65637 14.9872 6.81657 15.3391 8.00342 15.3391C9.19028 15.3391 10.3505 14.9872 11.3373 14.3277C12.324 13.6682 13.0931 12.7309 13.5471 11.6343C14.0011 10.5378 14.1197 9.33116 13.8878 8.16716C13.656 7.00324 13.0842 5.93421 12.2448 5.09527L8.47149 1.32194ZM8.0005 2.73657L11.302 6.03808C11.955 6.69061 12.3999 7.52228 12.5802 8.4276C12.7605 9.33293 12.6683 10.2714 12.3151 11.1243C11.962 11.9772 11.3639 12.7062 10.5964 13.2191C9.8289 13.732 8.92653 14.0058 8.00342 14.0058C7.08031 14.0058 6.17794 13.732 5.41044 13.2191C4.64295 12.7062 4.04481 11.9772 3.69169 11.1243C3.33857 10.2714 3.24633 9.33293 3.42665 8.4276C3.60696 7.52228 4.05172 6.69076 4.70467 6.03824L8.0005 2.73657Z" fill="#292737"/>
</svg>
