<svg width="16" height="16" viewBox="0 0 16 16" fill="none" xmlns="http://www.w3.org/2000/svg">
<path fill-rule="evenodd" clip-rule="evenodd" d="M9.32836 1.41602C9.36506 1.12235 9.20378 0.839641 8.9323 0.721796C8.66082 0.60395 8.34415 0.679184 8.15469 0.90654L1.48802 8.90654C1.32242 9.10526 1.28672 9.38184 1.39644 9.6161C1.50616 9.85036 1.74149 10 2.00017 10H7.24498L6.67199 14.584C6.63528 14.8776 6.79657 15.1603 7.06804 15.2782C7.33952 15.396 7.65619 15.3208 7.84565 15.0935L14.5123 7.09345C14.6779 6.89473 14.7136 6.61815 14.6039 6.38389C14.4942 6.14964 14.2588 6 14.0002 6H8.75536L9.32836 1.41602ZM8.00017 8.66666H3.42353L7.72328 3.50697L7.33865 6.58397C7.31493 6.77372 7.37384 6.96451 7.50039 7.10786C7.62694 7.25122 7.80895 7.33333 8.00017 7.33333H12.5768L8.27706 12.493L8.66169 9.41602C8.68541 9.22628 8.62651 9.03548 8.49996 8.89213C8.37341 8.74877 8.19139 8.66666 8.00017 8.66666Z" fill="#292737"/>
</svg>
