<svg width="16" height="16" viewBox="0 0 16 16" fill="none" xmlns="http://www.w3.org/2000/svg">
<path fill-rule="evenodd" clip-rule="evenodd" d="M5.33333 5.33332C3.86057 5.33332 2.66667 6.52723 2.66667 7.99999C2.66667 9.47275 3.86057 10.6667 5.33333 10.6667C6.80609 10.6667 8 9.47275 8 7.99999C8 6.52723 6.80609 5.33332 5.33333 5.33332ZM4 7.99999C4 7.26361 4.59695 6.66666 5.33333 6.66666C6.06971 6.66666 6.66667 7.26361 6.66667 7.99999C6.66667 8.73637 6.06971 9.33332 5.33333 9.33332C4.59695 9.33332 4 8.73637 4 7.99999Z" fill="#292737"/>
<path fill-rule="evenodd" clip-rule="evenodd" d="M5.33333 2.66666C2.38781 2.66666 0 5.05447 0 7.99999C0 10.9455 2.38781 13.3333 5.33333 13.3333H10.6667C13.6122 13.3333 16 10.9455 16 7.99999C16 5.05447 13.6122 2.66666 10.6667 2.66666H5.33333ZM1.33333 7.99999C1.33333 5.79085 3.12419 3.99999 5.33333 3.99999H10.6667C12.8758 3.99999 14.6667 5.79085 14.6667 7.99999C14.6667 10.2091 12.8758 12 10.6667 12H5.33333C3.12419 12 1.33333 10.2091 1.33333 7.99999Z" fill="#292737"/>
</svg>
