<svg width="16" height="16" viewBox="0 0 16 16" fill="none" xmlns="http://www.w3.org/2000/svg">
<g clip-path="url(#clip0_1741_62033)">
<path fill-rule="evenodd" clip-rule="evenodd" d="M6 5.33333C5.63181 5.33333 5.33333 5.63181 5.33333 6V10C5.33333 10.3682 5.63181 10.6667 6 10.6667H10C10.3682 10.6667 10.6667 10.3682 10.6667 10V6C10.6667 5.63181 10.3682 5.33333 10 5.33333H6ZM6.66667 9.33333V6.66667H9.33333V9.33333H6.66667Z" fill="#292737"/>
<path fill-rule="evenodd" clip-rule="evenodd" d="M6 0C6.36819 0 6.66667 0.298477 6.66667 0.666667V2H9.33333V0.666667C9.33333 0.298477 9.63181 0 10 0C10.3682 0 10.6667 0.298477 10.6667 0.666667V2H12C13.1046 2 14 2.89543 14 4V5.33333H15.3333C15.7015 5.33333 16 5.63181 16 6C16 6.36819 15.7015 6.66667 15.3333 6.66667H14V8.66667H15.3333C15.7015 8.66667 16 8.96514 16 9.33333C16 9.70152 15.7015 10 15.3333 10H14V12C14 13.1046 13.1046 14 12 14H10.6667V15.3333C10.6667 15.7015 10.3682 16 10 16C9.63181 16 9.33333 15.7015 9.33333 15.3333V14H6.66667V15.3333C6.66667 15.7015 6.36819 16 6 16C5.63181 16 5.33333 15.7015 5.33333 15.3333V14H4C2.89543 14 2 13.1046 2 12V10H0.666667C0.298477 10 0 9.70152 0 9.33333C0 8.96514 0.298477 8.66667 0.666667 8.66667H2V6.66667H0.666667C0.298477 6.66667 0 6.36819 0 6C0 5.63181 0.298477 5.33333 0.666667 5.33333H2V4C2 2.89543 2.89543 2 4 2H5.33333V0.666667C5.33333 0.298477 5.63181 0 6 0ZM3.33333 12C3.33333 12.3682 3.63181 12.6667 4 12.6667H12C12.3682 12.6667 12.6667 12.3682 12.6667 12V4C12.6667 3.63181 12.3682 3.33333 12 3.33333H4C3.63181 3.33333 3.33333 3.63181 3.33333 4V12Z" fill="#292737"/>
</g>
<defs>
<clipPath id="clip0_1741_62033">
<rect width="16" height="16" fill="white"/>
</clipPath>
</defs>
</svg>
