<svg width="16" height="16" viewBox="0 0 16 16" fill="none" xmlns="http://www.w3.org/2000/svg">
<path fill-rule="evenodd" clip-rule="evenodd" d="M3.3335 2.66668C3.15668 2.66668 2.98712 2.73691 2.86209 2.86194C2.73707 2.98696 2.66683 3.15653 2.66683 3.33334V12.6667C2.66683 12.8435 2.73707 13.0131 2.86209 13.1381C2.98712 13.2631 3.15669 13.3333 3.3335 13.3333H6.00016C6.36835 13.3333 6.66683 13.6318 6.66683 14C6.66683 14.3682 6.36835 14.6667 6.00016 14.6667H3.3335C2.80306 14.6667 2.29435 14.456 1.91928 14.0809C1.54421 13.7058 1.3335 13.1971 1.3335 12.6667V3.33334C1.3335 2.80291 1.54421 2.2942 1.91928 1.91913C2.29436 1.54406 2.80306 1.33334 3.3335 1.33334H6.00016C6.36835 1.33334 6.66683 1.63182 6.66683 2.00001C6.66683 2.3682 6.36835 2.66668 6.00016 2.66668H3.3335ZM10.1954 4.19527C10.4558 3.93492 10.8779 3.93492 11.1382 4.19527L14.4716 7.52861C14.7319 7.78895 14.7319 8.21106 14.4716 8.47141L11.1382 11.8047C10.8779 12.0651 10.4558 12.0651 10.1954 11.8047C9.93507 11.5444 9.93507 11.1223 10.1954 10.8619L12.3907 8.66668H6.00016C5.63197 8.66668 5.3335 8.3682 5.3335 8.00001C5.3335 7.63182 5.63197 7.33334 6.00016 7.33334H12.3907L10.1954 5.13808C9.93507 4.87773 9.93507 4.45562 10.1954 4.19527Z" fill="#292737"/>
</svg>
