<svg width="16" height="16" viewBox="0 0 16 16" fill="none" xmlns="http://www.w3.org/2000/svg">
<g clip-path="url(#clip0_1741_62141)">
<path d="M8.66667 1.33332C8.66667 0.965133 8.36819 0.666656 8 0.666656C7.63181 0.666656 7.33333 0.965133 7.33333 1.33332V4.39051L5.80474 2.86192C5.54439 2.60157 5.12228 2.60157 4.86193 2.86192C4.60158 3.12227 4.60158 3.54438 4.86193 3.80473L7.5286 6.47139C7.78895 6.73174 8.21106 6.73174 8.47141 6.47139L11.1381 3.80473C11.3984 3.54438 11.3984 3.12227 11.1381 2.86192C10.8777 2.60157 10.4556 2.60157 10.1953 2.86192L8.66667 4.39051V1.33332Z" fill="#292737"/>
<path d="M8 7.99999C6.93913 7.99999 5.92172 8.42142 5.17157 9.17156C4.42143 9.92171 4 10.9391 4 12C4 12.3682 4.29848 12.6667 4.66667 12.6667C5.03486 12.6667 5.33333 12.3682 5.33333 12C5.33333 11.2927 5.61429 10.6145 6.11438 10.1144C6.61448 9.61427 7.29276 9.33332 8 9.33332C8.70724 9.33332 9.38552 9.61427 9.88562 10.1144C10.3857 10.6145 10.6667 11.2927 10.6667 12C10.6667 12.3682 10.9651 12.6667 11.3333 12.6667C11.7015 12.6667 12 12.3682 12 12C12 10.9391 11.5786 9.92171 10.8284 9.17156C10.0783 8.42142 9.06087 7.99999 8 7.99999Z" fill="#292737"/>
<path d="M2.34191 6.3419C2.60226 6.08155 3.02437 6.08155 3.28472 6.3419L4.23139 7.28857C4.49173 7.54892 4.49173 7.97103 4.23139 8.23137C3.97104 8.49172 3.54893 8.49172 3.28858 8.23137L2.34191 7.28471C2.08156 7.02436 2.08156 6.60225 2.34191 6.3419Z" fill="#292737"/>
<path d="M0.666667 11.3333C0.298477 11.3333 0 11.6318 0 12C0 12.3682 0.298477 12.6667 0.666667 12.6667H2C2.36819 12.6667 2.66667 12.3682 2.66667 12C2.66667 11.6318 2.36819 11.3333 2 11.3333H0.666667Z" fill="#292737"/>
<path d="M13.3333 12C13.3333 11.6318 13.6318 11.3333 14 11.3333H15.3333C15.7015 11.3333 16 11.6318 16 12C16 12.3682 15.7015 12.6667 15.3333 12.6667H14C13.6318 12.6667 13.3333 12.3682 13.3333 12Z" fill="#292737"/>
<path d="M13.6581 7.28471C13.9185 7.02436 13.9185 6.60225 13.6581 6.3419C13.3978 6.08155 12.9757 6.08155 12.7153 6.3419L11.7687 7.28857C11.5083 7.54892 11.5083 7.97103 11.7687 8.23137C12.029 8.49172 12.4511 8.49172 12.7115 8.23137L13.6581 7.28471Z" fill="#292737"/>
<path d="M0 14.6667C0 14.2985 0.298477 14 0.666667 14H15.3333C15.7015 14 16 14.2985 16 14.6667C16 15.0348 15.7015 15.3333 15.3333 15.3333H0.666667C0.298477 15.3333 0 15.0348 0 14.6667Z" fill="#292737"/>
</g>
<defs>
<clipPath id="clip0_1741_62141">
<rect width="16" height="16" fill="white"/>
</clipPath>
</defs>
</svg>
