<svg width="16" height="16" viewBox="0 0 16 16" fill="none" xmlns="http://www.w3.org/2000/svg">
<g clip-path="url(#clip0_1741_62223)">
<path d="M7.99984 4.66667C8.36803 4.66667 8.6665 4.96515 8.6665 5.33334V8.00001C8.6665 8.36819 8.36803 8.66667 7.99984 8.66667C7.63165 8.66667 7.33317 8.36819 7.33317 8.00001V5.33334C7.33317 4.96515 7.63165 4.66667 7.99984 4.66667Z" fill="#292737"/>
<path d="M7.99984 10C7.63165 10 7.33317 10.2985 7.33317 10.6667C7.33317 11.0349 7.63165 11.3333 7.99984 11.3333H8.0065C8.37469 11.3333 8.67317 11.0349 8.67317 10.6667C8.67317 10.2985 8.37469 10 8.0065 10H7.99984Z" fill="#292737"/>
<path fill-rule="evenodd" clip-rule="evenodd" d="M4.76843 0.861934C4.89346 0.73691 5.06303 0.666672 5.23984 0.666672H10.7598C10.9366 0.666672 11.1062 0.73691 11.2312 0.861934L15.1379 4.7686C15.2629 4.89363 15.3332 5.06319 15.3332 5.24001V10.76C15.3332 10.9368 15.2629 11.1064 15.1379 11.2314L11.2312 15.1381C11.1062 15.2631 10.9366 15.3333 10.7598 15.3333H5.23984C5.06303 15.3333 4.89346 15.2631 4.76843 15.1381L0.861766 11.2314C0.736742 11.1064 0.666504 10.9368 0.666504 10.76V5.24001C0.666504 5.06319 0.736742 4.89363 0.861766 4.7686L4.76843 0.861934ZM5.51598 2.00001L1.99984 5.51615V10.4839L5.51598 14H10.4837L13.9998 10.4839V5.51615L10.4837 2.00001H5.51598Z" fill="#292737"/>
</g>
<defs>
<clipPath id="clip0_1741_62223">
<rect width="16" height="16" fill="white"/>
</clipPath>
</defs>
</svg>
