<svg width="16" height="16" viewBox="0 0 16 16" fill="none" xmlns="http://www.w3.org/2000/svg">
<path d="M11.8049 0.195262C11.5446 -0.0650874 11.1224 -0.0650874 10.8621 0.195262C10.6017 0.455612 10.6017 0.877722 10.8621 1.13807L12.3907 2.66667H4.66683C3.78277 2.66667 2.93493 3.01786 2.30981 3.64298C1.68469 4.2681 1.3335 5.11595 1.3335 6V7.33333C1.3335 7.70152 1.63197 8 2.00016 8C2.36835 8 2.66683 7.70152 2.66683 7.33333V6C2.66683 5.46957 2.87754 4.96086 3.25262 4.58579C3.62769 4.21071 4.1364 4 4.66683 4H12.3907L10.8621 5.5286C10.6017 5.78895 10.6017 6.21106 10.8621 6.4714C11.1224 6.73175 11.5446 6.73175 11.8049 6.4714L14.4716 3.80474C14.7319 3.54439 14.7319 3.12228 14.4716 2.86193L11.8049 0.195262Z" fill="#292737"/>
<path d="M5.13823 9.5286C5.39858 9.78895 5.39858 10.2111 5.13823 10.4714L3.60964 12H11.3335C11.8639 12 12.3726 11.7893 12.7477 11.4142C13.1228 11.0391 13.3335 10.5304 13.3335 10V8.66667C13.3335 8.29848 13.632 8 14.0002 8C14.3684 8 14.6668 8.29848 14.6668 8.66667V10C14.6668 10.8841 14.3156 11.7319 13.6905 12.357C13.0654 12.9821 12.2176 13.3333 11.3335 13.3333H3.60964L5.13823 14.8619C5.39858 15.1223 5.39858 15.5444 5.13823 15.8047C4.87788 16.0651 4.45577 16.0651 4.19542 15.8047L1.52876 13.1381C1.26841 12.8777 1.26841 12.4556 1.52876 12.1953L4.19542 9.5286C4.45577 9.26825 4.87788 9.26825 5.13823 9.5286Z" fill="#292737"/>
</svg>
