<svg width="16" height="16" viewBox="0 0 16 16" fill="none" xmlns="http://www.w3.org/2000/svg">
<path d="M2.00016 3.33333C1.63197 3.33333 1.3335 3.63181 1.3335 3.99999C1.3335 4.36818 1.63197 4.66666 2.00016 4.66666H14.0002C14.3684 4.66666 14.6668 4.36818 14.6668 3.99999C14.6668 3.63181 14.3684 3.33333 14.0002 3.33333H2.00016Z" fill="#292737"/>
<path d="M2.00016 5.99999C1.63197 5.99999 1.3335 6.29847 1.3335 6.66666C1.3335 7.03485 1.63197 7.33333 2.00016 7.33333H11.3335C11.7017 7.33333 12.0002 7.03485 12.0002 6.66666C12.0002 6.29847 11.7017 5.99999 11.3335 5.99999H2.00016Z" fill="#292737"/>
<path d="M1.3335 9.33333C1.3335 8.96514 1.63197 8.66666 2.00016 8.66666H14.0002C14.3684 8.66666 14.6668 8.96514 14.6668 9.33333C14.6668 9.70152 14.3684 9.99999 14.0002 9.99999H2.00016C1.63197 9.99999 1.3335 9.70152 1.3335 9.33333Z" fill="#292737"/>
<path d="M2.00016 11.3333C1.63197 11.3333 1.3335 11.6318 1.3335 12C1.3335 12.3682 1.63197 12.6667 2.00016 12.6667H11.3335C11.7017 12.6667 12.0002 12.3682 12.0002 12C12.0002 11.6318 11.7017 11.3333 11.3335 11.3333H2.00016Z" fill="#292737"/>
</svg>
