<svg width="16" height="16" viewBox="0 0 16 16" fill="none" xmlns="http://www.w3.org/2000/svg">
<path fill-rule="evenodd" clip-rule="evenodd" d="M6.29765 5.3546C6.53222 4.95761 6.66683 4.49453 6.66683 4.00001C6.66683 2.52725 5.47292 1.33334 4.00016 1.33334C2.5274 1.33334 1.3335 2.52725 1.3335 4.00001C1.3335 5.47277 2.5274 6.66668 4.00016 6.66668C4.49472 6.66668 4.95784 6.53205 5.35486 6.29743L7.05743 8.00001L5.35486 9.70258C4.95784 9.46797 4.49472 9.33334 4.00016 9.33334C2.5274 9.33334 1.3335 10.5273 1.3335 12C1.3335 13.4728 2.5274 14.6667 4.00016 14.6667C5.47292 14.6667 6.66683 13.4728 6.66683 12C6.66683 11.5055 6.53222 11.0424 6.29765 10.6454L13.805 3.13808C14.0653 2.87773 14.0653 2.45562 13.805 2.19527C13.5446 1.93492 13.1225 1.93492 12.8622 2.19527L8.00024 7.0572L6.29765 5.3546ZM4.00016 2.66668C3.26378 2.66668 2.66683 3.26363 2.66683 4.00001C2.66683 4.73639 3.26378 5.33334 4.00016 5.33334C4.35658 5.33334 4.68033 5.1935 4.91954 4.96568C4.92685 4.95763 4.9344 4.94971 4.94217 4.94194C4.94993 4.93417 4.95784 4.92664 4.96589 4.91934C5.19367 4.68013 5.3335 4.3564 5.3335 4.00001C5.3335 3.26363 4.73654 2.66668 4.00016 2.66668ZM4.00016 10.6667C3.26378 10.6667 2.66683 11.2636 2.66683 12C2.66683 12.7364 3.26378 13.3333 4.00016 13.3333C4.73654 13.3333 5.3335 12.7364 5.3335 12C5.3335 11.6436 5.19366 11.3199 4.96587 11.0807C4.95783 11.0734 4.94993 11.0658 4.94217 11.0581C4.9344 11.0503 4.92687 11.0424 4.91956 11.0344C4.68035 10.8065 4.35659 10.6667 4.00016 10.6667Z" fill="#292737"/>
<path d="M9.17498 9.18237C9.43509 8.92179 9.8572 8.92141 10.1178 9.18152L13.8045 12.8615C14.065 13.1216 14.0654 13.5437 13.8053 13.8043C13.5452 14.0649 13.1231 14.0653 12.8625 13.8052L9.17583 10.1252C8.91525 9.86507 8.91487 9.44296 9.17498 9.18237Z" fill="#292737"/>
</svg>
