<svg width="16" height="16" viewBox="0 0 16 16" fill="none" xmlns="http://www.w3.org/2000/svg">
<g clip-path="url(#clip0_1741_61748)">
<path fill-rule="evenodd" clip-rule="evenodd" d="M7.1334 15.2827C4.51698 14.9747 2.32205 13.2894 1.29351 10.9715C1.28066 10.9466 1.26933 10.9207 1.25966 10.894C0.877929 10.0061 0.666504 9.02776 0.666504 8.00001C0.666504 6.39123 1.18454 4.90345 2.06291 3.69438C2.08398 3.65956 2.10835 3.62648 2.13589 3.59567C3.47399 1.81695 5.60258 0.666672 7.99984 0.666672C8.26161 0.666672 8.52018 0.680388 8.77487 0.707141C8.80523 0.708412 8.83563 0.711769 8.86586 0.717271C11.4824 1.0251 13.6775 2.71043 14.7061 5.02832C14.719 5.05339 14.7304 5.07939 14.7401 5.10618C15.1218 5.99401 15.3332 6.97232 15.3332 8.00001C15.3332 9.60876 14.8151 11.0965 13.9368 12.3056C13.9157 12.3404 13.8913 12.3735 13.8638 12.4044C12.5257 14.1831 10.3971 15.3333 7.99984 15.3333C7.73809 15.3333 7.47954 15.3196 7.22488 15.2929C7.19436 15.2916 7.16379 15.2882 7.1334 15.2827ZM7.61448 4.66667L9.09663 2.10002C10.7157 2.3991 12.1069 3.34825 12.9895 4.66667H9.55143C9.54332 4.66652 9.5352 4.66652 9.52708 4.66667H7.61448ZM5.68967 7.99988L6.84453 6.00001H9.15501L10.3099 7.99998L9.15499 10H6.84467L5.68967 7.99988ZM10.1106 11.0114C10.1154 11.0036 10.12 10.9956 10.1244 10.9876L11.0798 9.33312L12.5611 11.8983C11.54 13.0918 10.0587 13.8798 8.3921 13.9874L10.1106 11.0114ZM8.38504 11.3333H6.47253C6.46445 11.3335 6.45638 11.3335 6.44833 11.3333H3.0102C3.8927 12.6517 5.28385 13.6009 6.9029 13.9L8.38504 11.3333ZM11.6623 7.67564L13.3823 10.6542C13.7777 9.85401 13.9998 8.95295 13.9998 8.00001C13.9998 7.29873 13.8795 6.62556 13.6584 6.00001H10.6947L11.6513 7.65651C11.6551 7.66283 11.6587 7.66921 11.6623 7.67564ZM1.99984 8.00001C1.99984 8.70128 2.12015 9.37445 2.34125 10H5.30499L4.35164 8.34908C4.34551 8.33908 4.33964 8.32893 4.33406 8.31864L2.61735 5.34579C2.222 6.146 1.99984 7.04706 1.99984 8.00001ZM3.43862 4.10172C4.4596 2.90824 5.94085 2.12023 7.60742 2.01263L4.91983 6.66675L3.43862 4.10172Z" fill="#292737"/>
</g>
<defs>
<clipPath id="clip0_1741_61748">
<rect width="16" height="16" fill="white"/>
</clipPath>
</defs>
</svg>
