<svg width="16" height="16" viewBox="0 0 16 16" fill="none" xmlns="http://www.w3.org/2000/svg">
<g clip-path="url(#clip0_1741_62105)">
<path fill-rule="evenodd" clip-rule="evenodd" d="M13.3332 0.585785C12.7813 0.585785 12.252 0.80502 11.8618 1.19526L5.52843 7.52859C5.44299 7.61403 5.38238 7.72109 5.35308 7.83831L4.68641 10.505C4.62961 10.7322 4.69618 10.9725 4.86177 11.1381C5.02735 11.3037 5.26768 11.3702 5.49486 11.3134L8.16153 10.6468C8.27875 10.6175 8.3858 10.5568 8.47124 10.4714L14.8046 4.13807C15.1948 3.74783 15.4141 3.21855 15.4141 2.66667C15.4141 2.11478 15.1948 1.5855 14.8046 1.19526C14.4143 0.80502 13.8851 0.585785 13.3332 0.585785ZM12.8046 2.13807C12.9448 1.99788 13.1349 1.91912 13.3332 1.91912C13.5314 1.91912 13.7216 1.99788 13.8618 2.13807C14.002 2.27826 14.0807 2.4684 14.0807 2.66667C14.0807 2.86493 14.002 3.05507 13.8618 3.19526L7.659 9.39802L6.24942 9.75042L6.60181 8.34083L12.8046 2.13807Z" fill="#292737"/>
<path d="M2.6665 2.00001C2.13607 2.00001 1.62736 2.21072 1.25229 2.5858C0.877217 2.96087 0.666504 3.46958 0.666504 4.00001V13.3333C0.666504 13.8638 0.877218 14.3725 1.25229 14.7476C1.62736 15.1226 2.13607 15.3333 2.6665 15.3333H11.9998C12.5303 15.3333 13.039 15.1226 13.4141 14.7476C13.7891 14.3725 13.9998 13.8638 13.9998 13.3333V8.66668C13.9998 8.29849 13.7014 8.00001 13.3332 8.00001C12.965 8.00001 12.6665 8.29849 12.6665 8.66668V13.3333C12.6665 13.5102 12.5963 13.6797 12.4712 13.8047C12.3462 13.9298 12.1766 14 11.9998 14H2.6665C2.48969 14 2.32012 13.9298 2.1951 13.8047C2.07008 13.6797 1.99984 13.5102 1.99984 13.3333V4.00001C1.99984 3.8232 2.07008 3.65363 2.1951 3.52861C2.32012 3.40358 2.48969 3.33334 2.6665 3.33334H7.33317C7.70136 3.33334 7.99984 3.03487 7.99984 2.66668C7.99984 2.29849 7.70136 2.00001 7.33317 2.00001H2.6665Z" fill="#292737"/>
</g>
<defs>
<clipPath id="clip0_1741_62105">
<rect width="16" height="16" fill="white"/>
</clipPath>
</defs>
</svg>
