<svg width="16" height="16" viewBox="0 0 16 16" fill="none" xmlns="http://www.w3.org/2000/svg">
<g clip-path="url(#clip0_1741_62115)">
<path fill-rule="evenodd" clip-rule="evenodd" d="M1.13807 0.195262C0.877722 -0.0650874 0.455612 -0.0650874 0.195262 0.195262C-0.0650874 0.455612 -0.0650874 0.877722 0.195262 1.13807L3.04565 3.98846C1.8398 5.02645 0.833571 6.279 0.0792296 7.68479C-0.023193 7.87566 -0.0264924 8.1044 0.070382 8.29815L0.666667 8C0.070382 8.29815 0.0709135 8.29921 0.0709135 8.29921L0.0716927 8.30076L0.0739934 8.30531L0.0815587 8.32012C0.0879169 8.33249 0.0969046 8.3498 0.108502 8.37171C0.131693 8.41554 0.165349 8.47785 0.209314 8.55601C0.297195 8.71224 0.426567 8.93233 0.596224 9.19502C0.93471 9.71913 1.43789 10.4196 2.09698 11.1226C3.40299 12.5157 5.40033 14 8 14L8.0109 13.9999C9.38985 13.9774 10.7308 13.569 11.8841 12.8269L14.8619 15.8047C15.1223 16.0651 15.5444 16.0651 15.8047 15.8047C16.0651 15.5444 16.0651 15.1223 15.8047 14.8619L1.13807 0.195262ZM1.42838 8.00211C2.09957 6.83878 2.96688 5.80092 3.9914 4.93421L5.69069 6.63351C5.62435 6.73934 5.56537 6.84995 5.5143 6.96457C5.36855 7.29168 5.29018 7.64479 5.28386 8.00285C5.27754 8.3609 5.34341 8.71656 5.47753 9.04861C5.61165 9.38066 5.81127 9.68229 6.06449 9.93551C6.31772 10.1887 6.61935 10.3884 6.95139 10.5225C7.28344 10.6566 7.6391 10.7225 7.99715 10.7161C8.35521 10.7098 8.70832 10.6315 9.03543 10.4857C9.15005 10.4346 9.26066 10.3757 9.3665 10.3093L10.9143 11.8571C10.0291 12.3683 9.02487 12.6489 7.99456 12.6667C5.93008 12.6646 4.26263 11.4832 3.06969 10.2107C2.47878 9.5804 2.02362 8.94755 1.71628 8.47165C1.59728 8.28741 1.5011 8.1277 1.42838 8.00211ZM6.61699 8.02637C6.61938 7.89066 6.64248 7.75636 6.68526 7.62807L8.37193 9.31474C8.24364 9.35753 8.10935 9.38062 7.97363 9.38302C7.79461 9.38618 7.61678 9.35325 7.45075 9.28619C7.28473 9.21913 7.13391 9.11931 7.0073 8.9927C6.88069 8.86609 6.78088 8.71527 6.71382 8.54925C6.64676 8.38323 6.61383 8.2054 6.61699 8.02637Z" fill="#292737"/>
<path d="M14.5633 8.01339C12.6811 4.91048 10.177 2.82437 6.76587 3.44813C6.40368 3.51436 6.05639 3.27444 5.99016 2.91226C5.92393 2.55007 6.16385 2.20278 6.52603 2.13655C10.8953 1.3376 13.8929 4.21687 15.8784 7.61597C16.0186 7.81535 16.0439 8.08463 15.9212 8.31428C15.4946 9.11228 14.9859 9.86356 14.4033 10.5559C14.1663 10.8376 13.7457 10.8738 13.464 10.6368C13.1823 10.3997 13.1461 9.97917 13.3831 9.69745C13.8255 9.17174 14.2204 8.60817 14.5633 8.01339Z" fill="#292737"/>
</g>
<defs>
<clipPath id="clip0_1741_62115">
<rect width="16" height="16" fill="white"/>
</clipPath>
</defs>
</svg>
