<svg width="16" height="16" viewBox="0 0 16 16" fill="none" xmlns="http://www.w3.org/2000/svg">
<path fill-rule="evenodd" clip-rule="evenodd" d="M7.99984 3.33336C7.99984 3.07709 7.85294 2.8435 7.62196 2.73249C7.39099 2.62148 7.11682 2.65269 6.91671 2.81278L3.76598 5.33336H1.33317C0.964981 5.33336 0.666504 5.63184 0.666504 6.00003V10C0.666504 10.3682 0.964981 10.6667 1.33317 10.6667H3.76598L6.91671 13.1873C7.11682 13.3474 7.39099 13.3786 7.62196 13.2676C7.85294 13.1565 7.99984 12.923 7.99984 12.6667V3.33336ZM4.4163 6.52061L6.6665 4.72044V11.2796L4.4163 9.47945C4.29809 9.38488 4.15122 9.33336 3.99984 9.33336H1.99984V6.66669H3.99984C4.15122 6.66669 4.29809 6.61517 4.4163 6.52061Z" fill="#292737"/>
</svg>
