<svg width="16" height="16" viewBox="0 0 16 16" fill="none" xmlns="http://www.w3.org/2000/svg">
<path d="M8.13807 2.19526C7.87772 1.93491 7.45561 1.93491 7.19526 2.19526L4.33333 5.05719L3.13807 3.86193C2.87772 3.60158 2.45561 3.60158 2.19526 3.86193C1.93491 4.12228 1.93491 4.54439 2.19526 4.80474L4.33333 6.94281L8.13807 3.13807C8.39842 2.87772 8.39842 2.45561 8.13807 2.19526Z" fill="#292737"/>
<path d="M10.4714 9.5286C10.2111 9.26825 9.78895 9.26825 9.5286 9.5286C9.26825 9.78895 9.26825 10.2111 9.5286 10.4714L10.7239 11.6667L9.52859 12.8619C9.26825 13.1223 9.26825 13.5444 9.52859 13.8047C9.78895 14.0651 10.2111 14.0651 10.4714 13.8047L11.6667 12.6095L12.8619 13.8047C13.1223 14.0651 13.5444 14.0651 13.8047 13.8047C14.0651 13.5444 14.0651 13.1223 13.8047 12.8619L12.6095 11.6667L13.8047 10.4714C14.0651 10.2111 14.0651 9.78895 13.8047 9.5286C13.5444 9.26825 13.1223 9.26825 12.8619 9.5286L11.6667 10.7239L10.4714 9.5286Z" fill="#292737"/>
<path d="M13.8047 3.13807C14.0651 2.87772 14.0651 2.45561 13.8047 2.19526C13.5444 1.93491 13.1223 1.93491 12.8619 2.19526L2.19526 12.8619C1.93491 13.1223 1.93491 13.5444 2.19526 13.8047C2.45561 14.0651 2.87772 14.0651 3.13807 13.8047L13.8047 3.13807Z" fill="#292737"/>
</svg>
