<svg width="16" height="16" viewBox="0 0 16 16" fill="none" xmlns="http://www.w3.org/2000/svg">
<path fill-rule="evenodd" clip-rule="evenodd" d="M8.00016 0.66806C7.64964 0.66806 7.30528 0.760183 7.00159 0.935186L2.33607 3.6012L2.3335 3.60268C2.02976 3.77804 1.77748 4.03019 1.60196 4.33384C1.42644 4.63749 1.33386 4.98195 1.3335 5.33268V10.6674C1.33386 11.0181 1.42644 11.3626 1.60196 11.6662C1.77748 11.9699 2.02976 12.222 2.3335 12.3974L2.33607 12.3989L7.00016 15.064L7.0014 15.0648C7.30513 15.2398 7.64956 15.332 8.00016 15.332C8.35078 15.332 8.69522 15.2398 8.99896 15.0647L9.00016 15.064L13.6643 12.3989L13.6668 12.3974C13.9706 12.222 14.2228 11.9699 14.3984 11.6662C14.5739 11.3626 14.6665 11.0181 14.6668 10.6674V5.33268C14.6665 4.98195 14.5739 4.63749 14.3984 4.33384C14.2228 4.03019 13.9706 3.77804 13.6668 3.60267L9.00016 0.936009L8.99877 0.935207C8.69507 0.760191 8.3507 0.66806 8.00016 0.66806ZM7.66683 2.09071C7.76818 2.0322 7.88314 2.00139 8.00016 2.00139C8.11719 2.00139 8.23215 2.0322 8.3335 2.09071L8.33607 2.09219L13.0002 4.75738L13.0012 4.75799C13.102 4.81642 13.1857 4.90023 13.244 5.0011C13.3025 5.10231 13.3334 5.21713 13.3335 5.33404V10.666C13.3334 10.7829 13.3025 10.8977 13.244 10.999C13.1857 11.0998 13.102 11.1836 13.0012 11.2421L13.0002 11.2427L8.33607 13.9079L8.3335 13.9093C8.23215 13.9679 8.11719 13.9987 8.00016 13.9987C7.88314 13.9987 7.76818 13.9679 7.66683 13.9093L3.00016 11.2427L2.99911 11.2421C2.89833 11.1836 2.81462 11.0998 2.75632 10.999C2.69786 10.8978 2.667 10.7831 2.66683 10.6663V5.33376C2.667 5.21695 2.69786 5.10223 2.75632 5.0011C2.81462 4.90023 2.89833 4.81641 2.99911 4.75799L3.00016 4.75738L7.66425 2.09219L7.66683 2.09071Z" fill="#292737"/>
</svg>
