<svg width="16" height="16" viewBox="0 0 16 16" fill="none" xmlns="http://www.w3.org/2000/svg">
<path fill-rule="evenodd" clip-rule="evenodd" d="M8 1.33331C6.15905 1.33331 4.66667 2.8257 4.66667 4.66665C4.66667 6.5076 6.15905 7.99998 8 7.99998C9.84095 7.99998 11.3333 6.5076 11.3333 4.66665C11.3333 2.8257 9.84095 1.33331 8 1.33331ZM6 4.66665C6 3.56208 6.89543 2.66665 8 2.66665C9.10457 2.66665 10 3.56208 10 4.66665C10 5.77122 9.10457 6.66665 8 6.66665C6.89543 6.66665 6 5.77122 6 4.66665Z" fill="#292737"/>
<path d="M5.33333 9.33331C4.44928 9.33331 3.60143 9.6845 2.97631 10.3096C2.35119 10.9347 2 11.7826 2 12.6666V14C2 14.3682 2.29848 14.6666 2.66667 14.6666C3.03486 14.6666 3.33333 14.3682 3.33333 14V12.6666C3.33333 12.1362 3.54405 11.6275 3.91912 11.2524C4.29419 10.8774 4.8029 10.6666 5.33333 10.6666H10.6667C11.1971 10.6666 11.7058 10.8774 12.0809 11.2524C12.456 11.6275 12.6667 12.1362 12.6667 12.6666V14C12.6667 14.3682 12.9651 14.6666 13.3333 14.6666C13.7015 14.6666 14 14.3682 14 14V12.6666C14 11.7826 13.6488 10.9347 13.0237 10.3096C12.3986 9.6845 11.5507 9.33331 10.6667 9.33331H5.33333Z" fill="#292737"/>
</svg>
