<svg width="16" height="16" viewBox="0 0 16 16" fill="none" xmlns="http://www.w3.org/2000/svg">
<path fill-rule="evenodd" clip-rule="evenodd" d="M6.49523 10C7.01879 9.36604 7.33333 8.55309 7.33333 7.66667C7.33333 5.64162 5.69171 4 3.66667 4C1.64162 4 0 5.64162 0 7.66667C0 9.69171 1.64162 11.3333 3.66667 11.3333H12.3333C14.3584 11.3333 16 9.69171 16 7.66667C16 5.64162 14.3584 4 12.3333 4C10.3083 4 8.66667 5.64162 8.66667 7.66667C8.66667 8.55309 8.98121 9.36604 9.50478 10H6.49523ZM3.66667 5.33333C2.378 5.33333 1.33333 6.378 1.33333 7.66667C1.33333 8.95533 2.378 10 3.66667 10C4.95533 10 6 8.95533 6 7.66667C6 6.378 4.95533 5.33333 3.66667 5.33333ZM12.3333 10C13.622 10 14.6667 8.95533 14.6667 7.66667C14.6667 6.378 13.622 5.33333 12.3333 5.33333C11.0447 5.33333 10 6.378 10 7.66667C10 8.95533 11.0447 10 12.3333 10Z" fill="#292737"/>
</svg>
