<svg width="16" height="16" viewBox="0 0 16 16" fill="none" xmlns="http://www.w3.org/2000/svg">
<path fill-rule="evenodd" clip-rule="evenodd" d="M7.62196 2.73249C7.85294 2.8435 7.99984 3.07709 7.99984 3.33336V12.6667C7.99984 12.923 7.85294 13.1565 7.62196 13.2676C7.39099 13.3786 7.11682 13.3474 6.91671 13.1873L3.76598 10.6667H1.33317C0.964981 10.6667 0.666504 10.3682 0.666504 10V6.00003C0.666504 5.63184 0.964981 5.33336 1.33317 5.33336H3.76598L6.91671 2.81278C7.11682 2.65269 7.39099 2.62148 7.62196 2.73249ZM6.6665 4.72044L4.4163 6.52061C4.29809 6.61517 4.15122 6.66669 3.99984 6.66669H1.99984V9.33336H3.99984C4.15122 9.33336 4.29809 9.38488 4.4163 9.47945L6.6665 11.2796V4.72044Z" fill="#292737"/>
<path d="M13.3332 8.94284L11.8046 10.4714C11.5442 10.7318 11.1221 10.7318 10.8618 10.4714C10.6014 10.2111 10.6014 9.78897 10.8618 9.52862L12.3904 8.00003L10.8618 6.47143C10.6014 6.21108 10.6014 5.78897 10.8618 5.52862C11.1221 5.26827 11.5442 5.26827 11.8046 5.52862L13.3332 7.05722L14.8618 5.52862C15.1221 5.26827 15.5442 5.26827 15.8046 5.52862C16.0649 5.78897 16.0649 6.21108 15.8046 6.47143L14.276 8.00003L15.8046 9.52862C16.0649 9.78897 16.0649 10.2111 15.8046 10.4714C15.5442 10.7318 15.1221 10.7318 14.8618 10.4714L13.3332 8.94284Z" fill="#292737"/>
</svg>
