<svg width="16" height="16" viewBox="0 0 16 16" fill="none" xmlns="http://www.w3.org/2000/svg">
<path fill-rule="evenodd" clip-rule="evenodd" d="M14.6668 3.33332C14.6668 2.76536 14.3209 2.33038 13.9413 2.03123C13.5542 1.72614 13.0353 1.48056 12.4536 1.28665C11.2832 0.89652 9.70873 0.666656 8.00016 0.666656C6.29159 0.666656 4.7171 0.89652 3.5467 1.28665C2.96499 1.48056 2.44614 1.72614 2.05902 2.03123C1.67942 2.33038 1.3335 2.76536 1.3335 3.33332V12.6667C1.3335 13.2329 1.67563 13.668 2.05487 13.9685C2.44077 14.2743 2.95825 14.5201 3.53905 14.714C4.70756 15.1041 6.28232 15.3333 8.00016 15.3333C9.71801 15.3333 11.2928 15.1041 12.4613 14.714C13.0421 14.5201 13.5596 14.2743 13.9455 13.9685C14.3247 13.668 14.6668 13.2329 14.6668 12.6667V3.33332ZM2.66887 3.32313C2.66682 3.32985 2.66683 3.33269 2.66683 3.33328C2.66683 3.33323 2.66683 3.33332 2.66683 3.33328C2.66683 3.33411 2.66695 3.33722 2.66887 3.34352C2.67113 3.35095 2.67671 3.36562 2.69021 3.38761C2.71851 3.43371 2.77622 3.50301 2.88432 3.58821C3.10444 3.76168 3.46427 3.94706 3.96834 4.11508C4.96951 4.44881 6.39502 4.66666 8.00016 4.66666C9.6053 4.66666 11.0308 4.44881 12.032 4.11508C12.5361 3.94706 12.8959 3.76168 13.116 3.58821C13.2241 3.50301 13.2818 3.43371 13.3101 3.38761C13.3236 3.36562 13.3292 3.35095 13.3315 3.34352C13.3334 3.33713 13.3335 3.33425 13.3335 3.33347C13.3335 3.33343 13.3335 3.3335 13.3335 3.33347C13.3335 3.33288 13.3335 3.32985 13.3315 3.32313C13.3292 3.3157 13.3236 3.30102 13.3101 3.27904C13.2818 3.23294 13.2241 3.16364 13.116 3.07844C12.8959 2.90497 12.5361 2.71959 12.032 2.55157C11.0308 2.21784 9.6053 1.99999 8.00016 1.99999C6.39502 1.99999 4.96951 2.21784 3.96834 2.55157C3.46427 2.71959 3.10444 2.90497 2.88432 3.07844C2.77622 3.16364 2.71851 3.23294 2.69021 3.27904C2.67671 3.30102 2.67113 3.3157 2.66887 3.32313ZM13.3335 5.01772C13.066 5.15451 12.7691 5.27485 12.4536 5.37999C11.2832 5.77013 9.70873 5.99999 8.00016 5.99999C6.29159 5.99999 4.7171 5.77013 3.5467 5.37999C3.23127 5.27485 2.93432 5.15451 2.66683 5.01772V7.99999C2.66683 8.00125 2.66688 8.00468 2.6691 8.012C2.67146 8.01983 2.67713 8.03472 2.69055 8.05674C2.71864 8.10285 2.77582 8.17196 2.88295 8.25686C3.10122 8.42982 3.45875 8.61487 3.96127 8.78263C4.95944 9.11586 6.38467 9.33332 8.00016 9.33332C9.61565 9.33332 11.0409 9.11586 12.0391 8.78263C12.5416 8.61487 12.8991 8.42982 13.1174 8.25686C13.2245 8.17196 13.2817 8.10285 13.3098 8.05674C13.3232 8.03472 13.3289 8.01983 13.3312 8.012C13.3334 8.00468 13.3335 8.00125 13.3335 7.99999V5.01772ZM13.3335 9.68786C13.0682 9.82357 12.7739 9.94298 12.4613 10.0473C11.2928 10.4374 9.71801 10.6667 8.00016 10.6667C6.28232 10.6667 4.70756 10.4374 3.53905 10.0473C3.22641 9.94298 2.93212 9.82357 2.66683 9.68786V12.6667C2.66683 12.6679 2.66688 12.6713 2.6691 12.6787C2.67146 12.6865 2.67713 12.7014 2.69055 12.7234C2.71864 12.7695 2.77582 12.8386 2.88295 12.9235C3.10122 13.0965 3.45875 13.2815 3.96127 13.4493C4.95944 13.7825 6.38467 14 8.00016 14C9.61565 14 11.0409 13.7825 12.0391 13.4493C12.5416 13.2815 12.8991 13.0965 13.1174 12.9235C13.2245 12.8386 13.2817 12.7695 13.3098 12.7234C13.3232 12.7014 13.3289 12.6865 13.3312 12.6787C13.3334 12.6713 13.3335 12.6679 13.3335 12.6667V9.68786Z" fill="#292737"/>
</svg>
