<svg width="16" height="16" viewBox="0 0 16 16" fill="none" xmlns="http://www.w3.org/2000/svg">
<g clip-path="url(#clip0_1741_62057)">
<path fill-rule="evenodd" clip-rule="evenodd" d="M8 5.33333C6.52724 5.33333 5.33333 6.52724 5.33333 8C5.33333 9.47276 6.52724 10.6667 8 10.6667C9.47276 10.6667 10.6667 9.47276 10.6667 8C10.6667 6.52724 9.47276 5.33333 8 5.33333ZM6.66667 8C6.66667 7.26362 7.26362 6.66667 8 6.66667C8.73638 6.66667 9.33333 7.26362 9.33333 8C9.33333 8.73638 8.73638 9.33333 8 9.33333C7.26362 9.33333 6.66667 8.73638 6.66667 8Z" fill="#292737"/>
<path fill-rule="evenodd" clip-rule="evenodd" d="M13.5432 10.2692L12.9333 10L13.5461 10.2626C13.5794 10.1849 13.6347 10.1187 13.7051 10.072C13.7753 10.0256 13.8575 10.0005 13.9417 10H14C14.5304 10 15.0391 9.78929 15.4142 9.41421C15.7893 9.03914 16 8.53043 16 8C16 7.46957 15.7893 6.96086 15.4142 6.58579C15.0391 6.21071 14.5304 6 14 6H13.8883C13.8042 5.99947 13.722 5.97445 13.6518 5.92796C13.6045 5.89665 13.5641 5.85653 13.5325 5.81004C13.523 5.76462 13.5087 5.72018 13.4899 5.67749C13.4549 5.59828 13.4445 5.51041 13.46 5.42521C13.4752 5.34095 13.5151 5.26312 13.5746 5.20154L13.6111 5.165C13.797 4.97931 13.9447 4.75856 14.0453 4.51588C14.1459 4.27309 14.1977 4.01283 14.1977 3.75C14.1977 3.48717 14.1459 3.22691 14.0453 2.98412C13.9447 2.74155 13.7974 2.52116 13.6117 2.33552C13.4259 2.14957 13.2053 2.00205 12.9625 1.90141C12.7198 1.80076 12.4595 1.74895 12.1967 1.74895C11.9338 1.74895 11.6736 1.80076 11.4308 1.90141C11.188 2.00205 10.9674 2.14957 10.7817 2.33552L10.7451 2.37207C10.6835 2.43152 10.6057 2.47142 10.5215 2.4867C10.4363 2.50215 10.3484 2.49172 10.2692 2.45676L10.2626 2.45391C10.1849 2.42062 10.1187 2.36534 10.072 2.29488C10.0256 2.22469 10.0005 2.1425 10 2.05833V2C10 1.46957 9.78929 0.960859 9.41421 0.585786C9.03914 0.210714 8.53043 0 8 0C7.46957 0 6.96086 0.210714 6.58579 0.585786C6.21071 0.960859 6 1.46957 6 2V2.11167C5.99947 2.19583 5.97445 2.27803 5.92796 2.34821C5.89666 2.39549 5.85653 2.43593 5.81005 2.46748C5.76462 2.47699 5.72018 2.49125 5.67749 2.51009C5.59828 2.54505 5.51041 2.55548 5.42521 2.54003C5.34095 2.52475 5.26312 2.48485 5.20154 2.4254L5.165 2.38886C4.97925 2.2029 4.75868 2.05539 4.51588 1.95474C4.27308 1.85409 4.01283 1.80228 3.75 1.80228C3.48717 1.80228 3.22692 1.85409 2.98412 1.95474C2.74144 2.05534 2.52095 2.20277 2.33526 2.3886C2.14943 2.57429 2.00201 2.79477 1.90141 3.03745C1.80076 3.28025 1.74895 3.5405 1.74895 3.80333C1.74895 4.06616 1.80076 4.32642 1.90141 4.56921C2.00205 4.81201 2.14957 5.03259 2.33552 5.21833L2.37206 5.25487C2.43152 5.31645 2.47142 5.39428 2.4867 5.47855C2.50215 5.56374 2.49172 5.65161 2.45676 5.73082C2.45109 5.74367 2.44582 5.7567 2.44098 5.76988C2.41096 5.85149 2.35709 5.92218 2.28637 5.97276C2.21728 6.02218 2.13522 6.05017 2.05043 6.05333H2C1.46957 6.05333 0.960859 6.26405 0.585786 6.63912C0.210714 7.01419 0 7.5229 0 8.05333C0 8.58377 0.210714 9.09247 0.585786 9.46755C0.960859 9.84262 1.46957 10.0533 2 10.0533H2.11167C2.19583 10.0539 2.27803 10.0789 2.34821 10.1254C2.41867 10.172 2.47395 10.2383 2.50724 10.316L2.51009 10.3225C2.54505 10.4017 2.55548 10.4896 2.54003 10.5748C2.52475 10.659 2.48486 10.7369 2.42541 10.7985L2.38886 10.835C2.2029 11.0207 2.05539 11.2413 1.95474 11.4841C1.85409 11.7269 1.80228 11.9872 1.80228 12.25C1.80228 12.5128 1.85409 12.7731 1.95474 13.0159C2.05539 13.2587 2.2029 13.4793 2.38886 13.665C2.5745 13.8507 2.79489 13.998 3.03745 14.0986C3.28025 14.1992 3.5405 14.251 3.80333 14.251C4.06617 14.251 4.32642 14.1992 4.56921 14.0986C4.8119 13.998 5.03238 13.8506 5.21808 13.6647L5.25487 13.6279C5.31645 13.5685 5.39428 13.5286 5.47855 13.5133C5.56374 13.4979 5.65161 13.5083 5.73082 13.5432C5.74367 13.5489 5.7567 13.5542 5.76988 13.559C5.85149 13.589 5.92218 13.6429 5.97276 13.7136C6.02218 13.7827 6.05017 13.8648 6.05333 13.9496V14C6.05333 14.5304 6.26405 15.0391 6.63912 15.4142C7.01419 15.7893 7.5229 16 8.05333 16C8.58377 16 9.09247 15.7893 9.46755 15.4142C9.84262 15.0391 10.0533 14.5304 10.0533 14V13.8883C10.0539 13.8042 10.0789 13.722 10.1254 13.6518C10.172 13.5813 10.2383 13.5261 10.316 13.4928L10.3225 13.4899C10.4017 13.4549 10.4896 13.4445 10.5748 13.46C10.659 13.4752 10.7369 13.5151 10.7984 13.5746L10.835 13.6111C11.0207 13.797 11.2414 13.9447 11.4841 14.0453C11.7269 14.1459 11.9872 14.1977 12.25 14.1977C12.5128 14.1977 12.7731 14.1459 13.0159 14.0453C13.2586 13.9447 13.479 13.7972 13.6647 13.6114C13.8506 13.4257 13.998 13.2052 14.0986 12.9625C14.1992 12.7198 14.251 12.4595 14.251 12.1967C14.251 11.9338 14.1992 11.6736 14.0986 11.4308C13.998 11.1881 13.8506 10.9676 13.6647 10.7819L13.6279 10.7451C13.5685 10.6835 13.5286 10.6057 13.5133 10.5215C13.4979 10.4363 13.5083 10.3484 13.5432 10.2692ZM7.5286 1.5286C7.65362 1.40357 7.82319 1.33333 8 1.33333C8.17681 1.33333 8.34638 1.40357 8.47141 1.5286C8.59643 1.65362 8.66667 1.82319 8.66667 2V2.06L8.66667 2.06266C8.66805 2.4072 8.77014 2.74382 8.96037 3.03108C9.14995 3.31734 9.41882 3.54213 9.73408 3.67801C10.0562 3.81939 10.4132 3.86141 10.7593 3.79864C11.1067 3.73566 11.4272 3.57008 11.6795 3.32324L11.6847 3.31807L11.7247 3.27807C11.7867 3.21609 11.8604 3.16665 11.9414 3.1331C12.0223 3.09955 12.1091 3.08228 12.1967 3.08228C12.2843 3.08228 12.371 3.09955 12.452 3.1331C12.5329 3.16665 12.6064 3.21582 12.6683 3.27781L12.6689 3.27833C12.7308 3.34025 12.78 3.41378 12.8136 3.49471C12.8471 3.57564 12.8644 3.66239 12.8644 3.75C12.8644 3.83761 12.8471 3.92436 12.8136 4.00529C12.78 4.08622 12.7308 4.15975 12.6689 4.22167L12.6286 4.26193L12.6234 4.26716C12.3766 4.5195 12.211 4.84 12.148 5.18733C12.0933 5.48888 12.1182 5.79865 12.219 6.08641C12.2269 6.14695 12.2431 6.20625 12.2672 6.26262C12.403 6.5793 12.6283 6.84939 12.9156 7.03963C13.2029 7.22986 13.5395 7.33195 13.884 7.33333L13.8867 7.33333H14C14.1768 7.33333 14.3464 7.40357 14.4714 7.5286C14.5964 7.65362 14.6667 7.82319 14.6667 8C14.6667 8.17681 14.5964 8.34638 14.4714 8.47141C14.3464 8.59643 14.1768 8.66667 14 8.66667L13.94 8.66666L13.9373 8.66667C13.5928 8.66805 13.2562 8.77014 12.9689 8.96037C12.6826 9.14997 12.4578 9.41887 12.322 9.73416C12.1806 10.0562 12.1386 10.4132 12.2014 10.7593C12.2643 11.1067 12.4299 11.4272 12.6768 11.6795L12.6819 11.6847L12.7219 11.7247C12.7839 11.7867 12.8333 11.8604 12.8669 11.9414C12.9004 12.0223 12.9177 12.1091 12.9177 12.1967C12.9177 12.2843 12.9004 12.371 12.8669 12.452C12.8333 12.5329 12.7842 12.6064 12.7222 12.6683L12.7217 12.6689C12.6598 12.7308 12.5862 12.78 12.5053 12.8136C12.4244 12.8471 12.3376 12.8644 12.25 12.8644C12.1624 12.8644 12.0756 12.8471 11.9947 12.8136C11.9138 12.78 11.8402 12.7308 11.7783 12.6689L11.7381 12.6286L11.7328 12.6234C11.4805 12.3766 11.16 12.211 10.8127 12.148C10.4665 12.0853 10.1096 12.1273 9.78749 12.2686C9.4722 12.4045 9.2033 12.6293 9.01371 12.9156C8.82347 13.2029 8.72138 13.5395 8.72001 13.884L8.72 13.8867V14C8.72 14.1768 8.64976 14.3464 8.52474 14.4714C8.39971 14.5964 8.23014 14.6667 8.05333 14.6667C7.87652 14.6667 7.70695 14.5964 7.58193 14.4714C7.4569 14.3464 7.38667 14.1768 7.38667 14V13.94L7.38648 13.9244C7.37819 13.57 7.26348 13.2263 7.05725 12.938C6.85511 12.6553 6.57422 12.4387 6.24985 12.315C5.93197 12.1792 5.58108 12.1396 5.24067 12.2014C4.89334 12.2643 4.57283 12.4299 4.32049 12.6768L4.31526 12.6819L4.27526 12.7219C4.21334 12.7839 4.13956 12.8333 4.05863 12.8669C3.97769 12.9004 3.89094 12.9177 3.80333 12.9177C3.71572 12.9177 3.62897 12.9004 3.54804 12.8669C3.46711 12.8333 3.39358 12.7842 3.33167 12.7222L3.33114 12.7217C3.26916 12.6598 3.21999 12.5862 3.18644 12.5053C3.15289 12.4244 3.13562 12.3376 3.13562 12.25C3.13562 12.1624 3.15289 12.0756 3.18644 11.9947C3.21999 11.9138 3.26916 11.8402 3.33114 11.7783L3.3714 11.7381L3.37658 11.7328C3.62341 11.4805 3.789 11.16 3.85197 10.8127C3.91474 10.4665 3.87272 10.1095 3.73134 9.78741C3.59547 9.47215 3.37067 9.20329 3.08441 9.01371C2.79715 8.82347 2.46053 8.72138 2.11599 8.72001L2.11333 8.72H2C1.82319 8.72 1.65362 8.64976 1.5286 8.52474C1.40357 8.39971 1.33333 8.23014 1.33333 8.05333C1.33333 7.87652 1.40357 7.70695 1.5286 7.58193C1.65362 7.4569 1.82319 7.38667 2 7.38667H2.06L2.07559 7.38648C2.42999 7.37819 2.7737 7.26348 3.06203 7.05725C3.34465 6.85511 3.56126 6.57422 3.68497 6.24985C3.82075 5.93198 3.86036 5.58109 3.79864 5.24067C3.73566 4.89334 3.57008 4.57283 3.32324 4.32049L3.31807 4.31526L3.27807 4.27526C3.21609 4.21335 3.16665 4.13956 3.1331 4.05863C3.09955 3.97769 3.08228 3.89094 3.08228 3.80333C3.08228 3.71572 3.09955 3.62897 3.1331 3.54804C3.16665 3.46711 3.21582 3.39358 3.27781 3.33167L3.27833 3.33114C3.34025 3.26916 3.41377 3.21999 3.49471 3.18644C3.57564 3.15289 3.66239 3.13562 3.75 3.13562C3.83761 3.13562 3.92436 3.15289 4.00529 3.18644C4.08623 3.21999 4.15975 3.26916 4.22167 3.33114L4.26193 3.3714L4.26716 3.37658C4.5195 3.62341 4.84 3.789 5.18733 3.85197C5.48888 3.90665 5.79865 3.88181 6.08641 3.78104C6.14695 3.77313 6.20625 3.75692 6.26262 3.73276C6.5793 3.59703 6.84939 3.37167 7.03963 3.08441C7.22986 2.79715 7.33195 2.46053 7.33333 2.11599L7.33333 2.11333V2C7.33333 1.82319 7.40357 1.65362 7.5286 1.5286Z" fill="#292737"/>
</g>
<defs>
<clipPath id="clip0_1741_62057">
<rect width="16" height="16" fill="white"/>
</clipPath>
</defs>
</svg>
