<svg width="16" height="16" viewBox="0 0 16 16" fill="none" xmlns="http://www.w3.org/2000/svg">
<path d="M7.14393 3.36244C7.24897 3.33034 7.36031 3.32469 7.46806 3.34599C7.57581 3.36729 7.67663 3.41489 7.76155 3.48454C7.84648 3.5542 7.91288 3.64376 7.95485 3.74526C7.99682 3.84676 8.01306 3.95706 8.00213 4.06635C7.99119 4.17564 7.95343 4.28054 7.89219 4.37171C7.83095 4.46289 7.74813 4.53753 7.65109 4.58898C7.55405 4.64044 7.4458 4.66712 7.33597 4.66666L7.33317 4.66666H1.33317C0.964981 4.66666 0.666504 4.96513 0.666504 5.33332C0.666504 5.70151 0.964981 5.99999 1.33317 5.99999H7.33196H7.33317V5.33332L7.33037 5.99998L7.33196 5.99999C7.66092 6.00111 7.98509 5.92107 8.27573 5.76695C8.56684 5.61258 8.8153 5.38868 8.99903 5.11514C9.18275 4.84161 9.29605 4.52692 9.32884 4.19905C9.36163 3.87117 9.31291 3.54028 9.187 3.23578C9.06109 2.93127 8.8619 2.66259 8.60713 2.45363C8.35236 2.24466 8.0499 2.10188 7.72665 2.03797C7.4034 1.97407 7.06936 1.99102 6.75424 2.08732C6.40213 2.19493 6.20392 2.56761 6.31153 2.91972C6.41914 3.27184 6.79181 3.47005 7.14393 3.36244Z" fill="#292737"/>
<path d="M12.7074 5.37613C12.8647 5.32857 13.0313 5.3205 13.1924 5.35264C13.3536 5.38478 13.5043 5.45613 13.6313 5.56039C13.7584 5.66465 13.8577 5.7986 13.9206 5.9504C13.9836 6.1022 14.0081 6.26716 13.9921 6.4307C13.9761 6.59424 13.92 6.75132 13.8289 6.88804C13.7377 7.02476 13.6143 7.13692 13.4695 7.21458C13.3248 7.29217 13.1633 7.33295 12.9991 7.33332H1.33317C0.964981 7.33332 0.666504 7.6318 0.666504 7.99999C0.666504 8.36818 0.964981 8.66666 1.33317 8.66666H2.33038L2.33317 8.66667L2.33596 8.66666H12.9998L13.001 8.66665C13.3844 8.66597 13.7618 8.57081 14.0997 8.38959C14.4376 8.20837 14.7256 7.94668 14.9383 7.62767C15.151 7.30865 15.2818 6.94213 15.3191 6.56054C15.3564 6.17894 15.2992 5.79403 15.1523 5.43983C15.0055 5.08564 14.7737 4.77308 14.4773 4.52981C14.181 4.28654 13.8292 4.12004 13.4532 4.04505C13.0772 3.97006 12.6885 3.98889 12.3215 4.09987C11.9545 4.21084 11.6205 4.41055 11.349 4.68132C11.0884 4.94134 11.0878 5.36345 11.3478 5.62413C11.6079 5.88481 12.03 5.88534 12.2906 5.62532C12.407 5.50928 12.5501 5.42369 12.7074 5.37613Z" fill="#292737"/>
<path d="M10.2757 10.233C9.98506 10.0789 9.66086 9.99885 9.33187 9.99999H1.33317C0.964981 9.99999 0.666504 10.2985 0.666504 10.6667C0.666504 11.0348 0.964981 11.3333 1.33317 11.3333H9.33317L9.33597 11.3333C9.44581 11.3329 9.55405 11.3595 9.65109 11.411C9.74813 11.4625 9.83095 11.5371 9.89219 11.6283C9.95343 11.7194 9.99119 11.8243 10.0021 11.9336C10.0131 12.0429 9.99682 12.1532 9.95485 12.2547C9.91288 12.3562 9.84648 12.4458 9.76155 12.5154C9.67663 12.5851 9.57581 12.6327 9.46806 12.654C9.36031 12.6753 9.24897 12.6696 9.14393 12.6375C8.79181 12.5299 8.41914 12.7281 8.31153 13.0803C8.20392 13.4324 8.40213 13.805 8.75424 13.9127C9.06936 14.009 9.4034 14.0259 9.72665 13.962C10.0499 13.8981 10.3524 13.7553 10.6071 13.5463C10.8619 13.3374 11.0611 13.0687 11.187 12.7642C11.3129 12.4597 11.3616 12.1288 11.3288 11.8009C11.296 11.4731 11.1828 11.1584 10.999 10.8848C10.8153 10.6113 10.5668 10.3874 10.2757 10.233Z" fill="#292737"/>
</svg>
