<svg width="16" height="16" viewBox="0 0 16 16" fill="none" xmlns="http://www.w3.org/2000/svg">
<g clip-path="url(#clip0_1741_61957)">
<path d="M5.38828 0.697723C6.33419 0.601402 7.28946 0.731265 8.17534 1.07661C9.06122 1.42195 9.85234 1.97288 10.4835 2.68399C10.9987 3.26444 11.3952 3.93804 11.6529 4.66666H12.0008C12.9189 4.66774 13.8087 4.98463 14.5208 5.56413C15.233 6.14363 15.7241 6.95047 15.9117 7.84921C16.0993 8.74795 15.9721 9.68388 15.5513 10.4999C15.1305 11.3159 14.4418 11.9623 13.6008 12.3307C13.2635 12.4784 12.8704 12.3247 12.7227 11.9874C12.575 11.6502 12.7286 11.257 13.0659 11.1093C13.6266 10.8638 14.0857 10.4328 14.3662 9.88882C14.6467 9.34481 14.7316 8.72085 14.6065 8.12169C14.4814 7.52253 14.154 6.98464 13.6793 6.59831C13.2046 6.21203 12.6115 6.00078 11.9995 6H11.16C10.856 6 10.5905 5.79435 10.5145 5.50002C10.3296 4.78399 9.9772 4.12216 9.4863 3.56907C8.99539 3.01598 8.38008 2.58748 7.69106 2.31888C7.00205 2.05029 6.25906 1.94928 5.52335 2.0242C4.78763 2.09911 4.08025 2.3478 3.45952 2.74977C2.83879 3.15174 2.32247 3.69547 1.95313 4.33615C1.58378 4.97684 1.37199 5.69612 1.3352 6.43473C1.29842 7.17333 1.43769 7.9101 1.74155 8.58431C2.04541 9.25852 2.50514 9.85087 3.08286 10.3125C3.3705 10.5424 3.41735 10.9619 3.1875 11.2495C2.95765 11.5371 2.53815 11.584 2.25051 11.3541C1.50773 10.7606 0.916638 9.999 0.525966 9.13215C0.135295 8.26531 -0.0437735 7.31804 0.00352195 6.3684C0.0508174 5.41877 0.323122 4.49397 0.797991 3.67024C1.27286 2.8465 1.9367 2.14742 2.73478 1.6306C3.53287 1.11379 4.44236 0.794043 5.38828 0.697723Z" fill="#292737"/>
<path d="M4.66667 10.6667C4.66667 10.2985 4.96514 10 5.33333 10H5.34C5.70819 10 6.00667 10.2985 6.00667 10.6667C6.00667 11.0349 5.70819 11.3333 5.34 11.3333H5.33333C4.96514 11.3333 4.66667 11.0349 4.66667 10.6667Z" fill="#292737"/>
<path d="M5.33333 12.6667C4.96514 12.6667 4.66667 12.9651 4.66667 13.3333C4.66667 13.7015 4.96514 14 5.33333 14H5.34C5.70819 14 6.00667 13.7015 6.00667 13.3333C6.00667 12.9651 5.70819 12.6667 5.34 12.6667H5.33333Z" fill="#292737"/>
<path d="M7.33333 12C7.33333 11.6318 7.63181 11.3333 8 11.3333H8.00667C8.37486 11.3333 8.67333 11.6318 8.67333 12C8.67333 12.3682 8.37486 12.6667 8.00667 12.6667H8C7.63181 12.6667 7.33333 12.3682 7.33333 12Z" fill="#292737"/>
<path d="M8 14C7.63181 14 7.33333 14.2985 7.33333 14.6667C7.33333 15.0349 7.63181 15.3333 8 15.3333H8.00667C8.37486 15.3333 8.67333 15.0349 8.67333 14.6667C8.67333 14.2985 8.37486 14 8.00667 14H8Z" fill="#292737"/>
<path d="M10 10.6667C10 10.2985 10.2985 10 10.6667 10H10.6733C11.0415 10 11.34 10.2985 11.34 10.6667C11.34 11.0349 11.0415 11.3333 10.6733 11.3333H10.6667C10.2985 11.3333 10 11.0349 10 10.6667Z" fill="#292737"/>
<path d="M10.6667 12.6667C10.2985 12.6667 10 12.9651 10 13.3333C10 13.7015 10.2985 14 10.6667 14H10.6733C11.0415 14 11.34 13.7015 11.34 13.3333C11.34 12.9651 11.0415 12.6667 10.6733 12.6667H10.6667Z" fill="#292737"/>
</g>
<defs>
<clipPath id="clip0_1741_61957">
<rect width="16" height="16" fill="white"/>
</clipPath>
</defs>
</svg>
