<svg width="16" height="16" viewBox="0 0 16 16" fill="none" xmlns="http://www.w3.org/2000/svg">
<path d="M2.11438 6.11438C2.61448 5.61428 3.29276 5.33333 4 5.33333H6C6.36819 5.33333 6.66667 5.03486 6.66667 4.66667C6.66667 4.29848 6.36819 4 6 4H4C2.93913 4 1.92172 4.42143 1.17157 5.17157C0.421427 5.92172 0 6.93913 0 8C0 9.06087 0.421427 10.0783 1.17157 10.8284C1.54301 11.1999 1.98396 11.4945 2.46927 11.6955C2.95457 11.8965 3.47471 12 4 12H6C6.36819 12 6.66667 11.7015 6.66667 11.3333C6.66667 10.9651 6.36819 10.6667 6 10.6667H4C3.64981 10.6667 3.30305 10.5977 2.97951 10.4637C2.65598 10.3297 2.36201 10.1332 2.11438 9.88562C1.61428 9.38552 1.33333 8.70724 1.33333 8C1.33333 7.29276 1.61428 6.61448 2.11438 6.11438Z" fill="#292737"/>
<path d="M10 4C9.63181 4 9.33333 4.29848 9.33333 4.66667C9.33333 5.03486 9.63181 5.33333 10 5.33333H12C12.3502 5.33333 12.697 5.40231 13.0205 5.53632C13.344 5.67033 13.638 5.86676 13.8856 6.11438C14.1332 6.362 14.3297 6.65598 14.4637 6.97951C14.5977 7.30305 14.6667 7.64981 14.6667 8C14.6667 8.35019 14.5977 8.69695 14.4637 9.02049C14.3297 9.34402 14.1332 9.638 13.8856 9.88562C13.638 10.1332 13.344 10.3297 13.0205 10.4637C12.697 10.5977 12.3502 10.6667 12 10.6667H10C9.63181 10.6667 9.33333 10.9651 9.33333 11.3333C9.33333 11.7015 9.63181 12 10 12H12C12.5253 12 13.0454 11.8965 13.5307 11.6955C14.016 11.4945 14.457 11.1999 14.8284 10.8284C15.1999 10.457 15.4945 10.016 15.6955 9.53073C15.8965 9.04543 16 8.52529 16 8C16 7.47471 15.8965 6.95457 15.6955 6.46927C15.4945 5.98396 15.1999 5.54301 14.8284 5.17157C14.457 4.80014 14.016 4.5055 13.5307 4.30448C13.0454 4.10346 12.5253 4 12 4H10Z" fill="#292737"/>
<path d="M5.33333 7.33333C4.96514 7.33333 4.66667 7.63181 4.66667 8C4.66667 8.36819 4.96514 8.66667 5.33333 8.66667H10.6667C11.0349 8.66667 11.3333 8.36819 11.3333 8C11.3333 7.63181 11.0349 7.33333 10.6667 7.33333H5.33333Z" fill="#292737"/>
</svg>
