<svg width="16" height="16" viewBox="0 0 16 16" fill="none" xmlns="http://www.w3.org/2000/svg">
<g clip-path="url(#clip0_1741_61896)">
<path d="M6.67755 2.1437C7.93959 1.85856 9.26 1.98901 10.4418 2.51561C10.7782 2.66546 11.1723 2.51431 11.3221 2.17799C11.472 1.84168 11.3208 1.44756 10.9845 1.29771C9.54003 0.654086 7.92621 0.49464 6.38371 0.843146C4.84121 1.19165 3.4527 2.02944 2.42524 3.23156C1.39779 4.43368 0.78645 5.93572 0.6824 7.51367C0.578351 9.09162 0.987166 10.6609 1.84787 11.9876C2.70858 13.3142 3.97507 14.327 5.45845 14.8751C6.94183 15.4231 8.56262 15.4769 10.0791 15.0286C11.5956 14.5802 12.9265 13.6536 13.8733 12.387C14.8202 11.1205 15.3323 9.58175 15.3332 8.00037V7.38666C15.3332 7.01847 15.0347 6.71999 14.6665 6.71999C14.2983 6.71999 13.9998 7.01847 13.9998 7.38666V7.99961C13.9991 9.29346 13.5801 10.5524 12.8054 11.5887C12.0307 12.625 10.9418 13.3831 9.70105 13.75C8.4603 14.1168 7.13419 14.0728 5.92052 13.6244C4.70685 13.176 3.67063 12.3473 2.96641 11.2619C2.2622 10.1764 1.92771 8.89245 2.01284 7.6014C2.09798 6.31035 2.59816 5.08141 3.43881 4.09785C4.27945 3.1143 5.41551 2.42884 6.67755 2.1437Z" fill="#292737"/>
<path d="M15.1381 3.13784C15.3984 2.87736 15.3982 2.45525 15.1377 2.19503C14.8772 1.93481 14.4551 1.93502 14.1949 2.1955L7.9996 8.39696L6.47124 6.8686C6.21089 6.60825 5.78878 6.60825 5.52843 6.8686C5.26808 7.12895 5.26808 7.55106 5.52843 7.81141L7.52843 9.81141C7.6535 9.93647 7.82314 10.0067 8 10.0067C8.17687 10.0066 8.34648 9.9363 8.47148 9.81117L15.1381 3.13784Z" fill="#292737"/>
</g>
<defs>
<clipPath id="clip0_1741_61896">
<rect width="16" height="16" fill="white"/>
</clipPath>
</defs>
</svg>
