<svg width="16" height="16" viewBox="0 0 16 16" fill="none" xmlns="http://www.w3.org/2000/svg">
<g clip-path="url(#clip0_1741_62121)">
<path fill-rule="evenodd" clip-rule="evenodd" d="M7.36177 2.02859C8.23735 1.153 9.4249 0.661102 10.6632 0.661102C11.9014 0.661102 13.089 1.153 13.9646 2.02859C14.8402 2.90418 15.3321 4.09173 15.3321 5.32999C15.3321 6.56802 14.8404 7.75535 13.9651 8.63089L13.9646 8.6314L12.1957 10.4055C12.1605 10.4514 12.1194 10.4926 12.0736 10.528L9.47194 13.1374C9.34686 13.2628 9.17699 13.3333 8.99984 13.3333H3.60933L1.80458 15.1381C1.54423 15.3984 1.12212 15.3984 0.861766 15.1381C0.601417 14.8777 0.601417 14.4556 0.861766 14.1953L2.6665 12.3905V6.99999C2.6665 6.82318 2.73674 6.65361 2.86177 6.52859L7.36177 2.02859ZM11.3819 9.33334L13.0211 7.68929L13.0218 7.68859C13.6473 7.06305 13.9987 6.21464 13.9987 5.32999C13.9987 4.44535 13.6473 3.59694 13.0218 2.9714C12.3962 2.34586 11.5478 1.99444 10.6632 1.99444C9.77853 1.99444 8.93011 2.34586 8.30457 2.9714L3.99984 7.27614V11.0572L10.1951 4.86194C10.4554 4.60159 10.8776 4.60159 11.1379 4.86194C11.3983 5.12229 11.3983 5.5444 11.1379 5.80475L7.60931 9.33334H11.3819ZM6.27598 10.6667H10.0525L8.72312 12H4.94266L6.27598 10.6667Z" fill="#292737"/>
</g>
<defs>
<clipPath id="clip0_1741_62121">
<rect width="16" height="16" fill="white"/>
</clipPath>
</defs>
</svg>
