<svg width="16" height="16" viewBox="0 0 16 16" fill="none" xmlns="http://www.w3.org/2000/svg">
<path d="M2.86209 2.86192C2.98712 2.7369 3.15668 2.66666 3.3335 2.66666H10.6668C11.035 2.66666 11.3335 2.36818 11.3335 1.99999C11.3335 1.63181 11.035 1.33333 10.6668 1.33333H3.3335C2.80306 1.33333 2.29436 1.54404 1.91928 1.91911C1.54421 2.29419 1.3335 2.8029 1.3335 3.33333V12.6667C1.3335 13.1971 1.54421 13.7058 1.91928 14.0809C2.29436 14.4559 2.80306 14.6667 3.3335 14.6667H12.6668C13.1973 14.6667 13.706 14.4559 14.081 14.0809C14.4561 13.7058 14.6668 13.1971 14.6668 12.6667V7.99999C14.6668 7.6318 14.3684 7.33333 14.0002 7.33333C13.632 7.33333 13.3335 7.6318 13.3335 7.99999V12.6667C13.3335 12.8435 13.2633 13.013 13.1382 13.1381C13.0132 13.2631 12.8436 13.3333 12.6668 13.3333H3.3335C3.15669 13.3333 2.98712 13.2631 2.86209 13.1381C2.73707 13.013 2.66683 12.8435 2.66683 12.6667V3.33333C2.66683 3.15652 2.73707 2.98695 2.86209 2.86192Z" fill="#292737"/>
<path d="M8.47157 9.80473L15.1382 3.13807C15.3986 2.87772 15.3986 2.45561 15.1382 2.19526C14.8779 1.93491 14.4558 1.93491 14.1954 2.19526L8.00016 8.39052L6.47157 6.86192C6.21122 6.60157 5.78911 6.60157 5.52876 6.86192C5.26841 7.12227 5.26841 7.54438 5.52876 7.80473L7.52876 9.80473C7.78911 10.0651 8.21122 10.0651 8.47157 9.80473Z" fill="#292737"/>
</svg>
