<svg width="16" height="16" viewBox="0 0 16 16" fill="none" xmlns="http://www.w3.org/2000/svg">
<g clip-path="url(#clip0_1741_62177)">
<path fill-rule="evenodd" clip-rule="evenodd" d="M7.33317 0.666656C7.06971 0.666656 6.83096 0.821812 6.72396 1.06256L4.23325 6.66666H2.6665C2.13607 6.66666 1.62736 6.87737 1.25229 7.25244C0.877218 7.62752 0.666504 8.13622 0.666504 8.66666V13.3333C0.666504 13.8638 0.877218 14.3725 1.25229 14.7475C1.62736 15.1226 2.13607 15.3333 2.6665 15.3333H12.183C12.6639 15.3378 13.1304 15.1688 13.4969 14.8573C13.8643 14.545 14.1065 14.1105 14.1789 13.6338L15.099 7.63337C15.1425 7.34672 15.1231 7.05405 15.0423 6.77562C14.9615 6.49719 14.8211 6.23966 14.6308 6.02088C14.4406 5.8021 14.205 5.6273 13.9405 5.50858C13.6773 5.39043 13.3916 5.33065 13.1031 5.33332H9.99984V3.33332C9.99984 2.62608 9.71889 1.9478 9.21879 1.44771C8.71869 0.947608 8.04041 0.666656 7.33317 0.666656ZM7.73839 2.06306L5.33317 7.4748V14H12.194C12.3548 14.0018 12.5108 13.9455 12.6333 13.8414C12.7559 13.7372 12.8366 13.5923 12.8607 13.4334L13.7807 7.43328C13.7952 7.33782 13.7888 7.24009 13.7618 7.14736C13.7349 7.05455 13.6881 6.96871 13.6247 6.89578C13.5613 6.82286 13.4827 6.76459 13.3946 6.72502C13.3064 6.68545 13.2107 6.66552 13.1141 6.66661L13.1065 6.6667L9.33317 6.66666C8.96498 6.66666 8.6665 6.36818 8.6665 5.99999V3.33332C8.6665 2.9797 8.52603 2.64056 8.27598 2.39051C8.12408 2.23862 7.93931 2.12716 7.73839 2.06306ZM3.99984 7.99999V14H2.6665C2.48969 14 2.32012 13.9298 2.1951 13.8047C2.07007 13.6797 1.99984 13.5101 1.99984 13.3333V8.66666C1.99984 8.48984 2.07007 8.32028 2.1951 8.19525C2.32012 8.07023 2.48969 7.99999 2.6665 7.99999H3.99984Z" fill="#292737"/>
</g>
<defs>
<clipPath id="clip0_1741_62177">
<rect width="16" height="16" fill="white"/>
</clipPath>
</defs>
</svg>
