<svg width="16" height="16" viewBox="0 0 16 16" fill="none" xmlns="http://www.w3.org/2000/svg">
<path fill-rule="evenodd" clip-rule="evenodd" d="M6.9012 0.924683L7.73363 1.46961C8.78945 2.15054 9.60054 3.20433 10.0327 4.45664C10.1794 4.09623 10.3538 3.74664 10.5157 3.39345L11.1638 4.10056C12.6186 5.68778 14 8.06644 14 10.3766C14 13.4747 12.2492 15.4389 9.44805 15.7784L8.52973 15.8894L8.73057 14.9055C8.88715 14.1356 8.91556 13.6325 8.88252 13.28C8.84288 12.8367 8.64997 12.4886 8.40949 12.1426C8.17958 11.811 7.95165 11.4787 7.76931 11.1119C7.01946 11.7584 6.72877 12.3423 6.63562 12.823C6.5167 13.4386 6.68517 14.0679 6.99303 14.7397L7.5361 15.9247L6.32973 15.7784C4.62787 15.5722 2.95111 14.3317 2.29045 12.5218C1.60006 10.6282 2.08829 8.33674 4.31868 6.22766C5.79856 4.82857 6.5821 3.0143 6.9012 0.924683ZM7.7812 3.30335C7.27778 4.84587 6.31123 6.25145 5.18349 7.31752C3.2603 9.13612 3.08787 10.8091 3.51862 11.9884C3.83904 12.8677 4.53075 13.5907 5.35063 14.0008C5.25484 13.5151 5.25215 13.013 5.3427 12.5261C5.55808 11.4117 6.29273 10.3673 7.70391 9.40498L8.41544 8.91988L8.68102 9.78845C8.91357 10.5496 9.39586 11.0881 9.77309 11.7563C10.188 12.4915 10.2673 13.3348 10.1827 14.1767C11.9136 13.7046 12.6787 12.2724 12.6787 10.3766C12.6787 8.77499 11.7934 7.20363 10.9147 5.97538C10.5527 6.86053 9.78961 7.17192 9.04505 7.57845V6.41219C9.04505 5.4254 8.67706 4.22238 7.7812 3.30407V3.30335Z" fill="#292737"/>
</svg>
