<svg width="16" height="16" viewBox="0 0 16 16" fill="none" xmlns="http://www.w3.org/2000/svg">
<path d="M7.8049 5.13807C8.06525 4.87772 8.06525 4.45561 7.8049 4.19526C7.54455 3.93491 7.12244 3.93491 6.86209 4.19526L3.52876 7.5286C3.26841 7.78894 3.26841 8.21106 3.52876 8.4714L6.86209 11.8047C7.12244 12.0651 7.54455 12.0651 7.8049 11.8047C8.06525 11.5444 8.06525 11.1223 7.8049 10.8619L4.94297 8L7.8049 5.13807Z" fill="#292737"/>
<path d="M12.4716 5.13807C12.7319 4.87772 12.7319 4.45561 12.4716 4.19526C12.2112 3.93491 11.7891 3.93491 11.5288 4.19526L8.19542 7.5286C7.93508 7.78894 7.93508 8.21106 8.19542 8.4714L11.5288 11.8047C11.7891 12.0651 12.2112 12.0651 12.4716 11.8047C12.7319 11.5444 12.7319 11.1223 12.4716 10.8619L9.60964 8L12.4716 5.13807Z" fill="#292737"/>
</svg>
