<svg width="16" height="16" viewBox="0 0 16 16" fill="none" xmlns="http://www.w3.org/2000/svg">
<path fill-rule="evenodd" clip-rule="evenodd" d="M4.6665 1.33333C4.13607 1.33333 3.62736 1.54404 3.25229 1.91911C2.87722 2.29419 2.6665 2.8029 2.6665 3.33333V14C2.6665 14.2497 2.80607 14.4785 3.02812 14.5928C3.25016 14.707 3.51745 14.6876 3.72066 14.5425L7.99984 11.4859L12.279 14.5425C12.4822 14.6876 12.7495 14.707 12.9716 14.5928C13.1936 14.4785 13.3332 14.2497 13.3332 14V3.33333C13.3332 2.80289 13.1225 2.29419 12.7474 1.91911C12.3723 1.54404 11.8636 1.33333 11.3332 1.33333H4.6665ZM4.1951 2.86192C4.32012 2.7369 4.48969 2.66666 4.6665 2.66666H11.3332C11.51 2.66666 11.6796 2.7369 11.8046 2.86192C11.9296 2.98695 11.9998 3.15652 11.9998 3.33333V12.7045L8.38733 10.1242C8.15553 9.9586 7.84414 9.9586 7.61235 10.1242L3.99984 12.7045V3.33333C3.99984 3.15652 4.07008 2.98695 4.1951 2.86192Z" fill="#292737"/>
</svg>
