<svg width="16" height="16" viewBox="0 0 16 16" fill="none" xmlns="http://www.w3.org/2000/svg">
<path fill-rule="evenodd" clip-rule="evenodd" d="M7.99987 0.666656C8.27918 0.666656 8.52887 0.840767 8.62543 1.10285L13.2921 13.7695C13.389 14.0324 13.3111 14.3279 13.0972 14.5089C12.8833 14.6899 12.5791 14.7178 12.3358 14.5788L7.99987 12.1012L3.66396 14.5788C3.42068 14.7178 3.11643 14.6899 2.90254 14.5089C2.68865 14.3279 2.61077 14.0324 2.70764 13.7695L7.37431 1.10285C7.47087 0.840767 7.72056 0.666656 7.99987 0.666656ZM4.59146 12.5132L7.66911 10.7545C7.87407 10.6374 8.12567 10.6374 8.33063 10.7545L11.4083 12.5132L7.99987 3.26175L4.59146 12.5132Z" fill="#292737"/>
</svg>
