<svg width="16" height="16" viewBox="0 0 16 16" fill="none" xmlns="http://www.w3.org/2000/svg">
<g clip-path="url(#clip0_1741_61838)">
<path d="M5.33317 9.33332C4.96498 9.33332 4.6665 9.6318 4.6665 9.99999C4.6665 10.3682 4.96498 10.6667 5.33317 10.6667H10.6665C11.0347 10.6667 11.3332 10.3682 11.3332 9.99999C11.3332 9.6318 11.0347 9.33332 10.6665 9.33332H5.33317Z" fill="#292737"/>
<path d="M5.33317 5.99999C5.33317 5.6318 5.63165 5.33332 5.99984 5.33332H6.0065C6.37469 5.33332 6.67317 5.6318 6.67317 5.99999C6.67317 6.36818 6.37469 6.66666 6.0065 6.66666H5.99984C5.63165 6.66666 5.33317 6.36818 5.33317 5.99999Z" fill="#292737"/>
<path d="M9.99984 5.33332C9.63165 5.33332 9.33317 5.6318 9.33317 5.99999C9.33317 6.36818 9.63165 6.66666 9.99984 6.66666H10.0065C10.3747 6.66666 10.6732 6.36818 10.6732 5.99999C10.6732 5.6318 10.3747 5.33332 10.0065 5.33332H9.99984Z" fill="#292737"/>
<path fill-rule="evenodd" clip-rule="evenodd" d="M7.99984 0.666656C3.94975 0.666656 0.666504 3.9499 0.666504 7.99999C0.666504 12.0501 3.94975 15.3333 7.99984 15.3333C12.0499 15.3333 15.3332 12.0501 15.3332 7.99999C15.3332 3.9499 12.0499 0.666656 7.99984 0.666656ZM1.99984 7.99999C1.99984 4.68628 4.68613 1.99999 7.99984 1.99999C11.3135 1.99999 13.9998 4.68628 13.9998 7.99999C13.9998 11.3137 11.3135 14 7.99984 14C4.68613 14 1.99984 11.3137 1.99984 7.99999Z" fill="#292737"/>
</g>
<defs>
<clipPath id="clip0_1741_61838">
<rect width="16" height="16" fill="white"/>
</clipPath>
</defs>
</svg>
