<svg width="16" height="16" viewBox="0 0 16 16" fill="none" xmlns="http://www.w3.org/2000/svg">
<path fill-rule="evenodd" clip-rule="evenodd" d="M8 5.33333C6.15905 5.33333 4.66667 6.82571 4.66667 8.66666C4.66667 10.5076 6.15905 12 8 12C9.84095 12 11.3333 10.5076 11.3333 8.66666C11.3333 6.82571 9.84095 5.33333 8 5.33333ZM6 8.66666C6 7.56209 6.89543 6.66666 8 6.66666C9.10457 6.66666 10 7.56209 10 8.66666C10 9.77123 9.10457 10.6667 8 10.6667C6.89543 10.6667 6 9.77123 6 8.66666Z" fill="#292737"/>
<path fill-rule="evenodd" clip-rule="evenodd" d="M6 1.33333C5.7771 1.33333 5.56894 1.44473 5.4453 1.63019L4.30988 3.33333H2C1.46957 3.33333 0.960859 3.54404 0.585786 3.91911C0.210714 4.29419 0 4.8029 0 5.33333V12.6667C0 13.1971 0.210714 13.7058 0.585786 14.0809C0.960859 14.4559 1.46957 14.6667 2 14.6667H14C14.5304 14.6667 15.0391 14.4559 15.4142 14.0809C15.7893 13.7058 16 13.1971 16 12.6667V5.33333C16 4.80289 15.7893 4.29419 15.4142 3.91911C15.0391 3.54404 14.5304 3.33333 14 3.33333H11.6901L10.5547 1.63019C10.4311 1.44473 10.2229 1.33333 10 1.33333H6ZM5.22137 4.36979L6.35679 2.66666H9.64321L10.7786 4.36979C10.9023 4.55526 11.1104 4.66666 11.3333 4.66666H14C14.1768 4.66666 14.3464 4.7369 14.4714 4.86192C14.5964 4.98695 14.6667 5.15652 14.6667 5.33333V12.6667C14.6667 12.8435 14.5964 13.013 14.4714 13.1381C14.3464 13.2631 14.1768 13.3333 14 13.3333H2C1.82319 13.3333 1.65362 13.2631 1.5286 13.1381C1.40357 13.013 1.33333 12.8435 1.33333 12.6667V5.33333C1.33333 5.15652 1.40357 4.98695 1.5286 4.86192C1.65362 4.7369 1.82319 4.66666 2 4.66666H4.66667C4.88957 4.66666 5.09772 4.55526 5.22137 4.36979Z" fill="#292737"/>
</svg>
