<svg width="16" height="16" viewBox="0 0 16 16" fill="none" xmlns="http://www.w3.org/2000/svg">
<path fill-rule="evenodd" clip-rule="evenodd" d="M4.66683 3.33332V2.66666C4.66683 2.13622 4.87754 1.62752 5.25262 1.25244C5.62769 0.87737 6.1364 0.666656 6.66683 0.666656H9.3335C9.86393 0.666656 10.3726 0.87737 10.7477 1.25244C11.1228 1.62752 11.3335 2.13622 11.3335 2.66666V3.33332H14.0002C14.3684 3.33332 14.6668 3.6318 14.6668 3.99999C14.6668 4.36818 14.3684 4.66666 14.0002 4.66666H13.3335V13.3333C13.3335 13.8638 13.1228 14.3725 12.7477 14.7475C12.3726 15.1226 11.8639 15.3333 11.3335 15.3333H4.66683C4.1364 15.3333 3.62769 15.1226 3.25262 14.7475C2.87754 14.3725 2.66683 13.8638 2.66683 13.3333V4.66666H2.00016C1.63197 4.66666 1.3335 4.36818 1.3335 3.99999C1.3335 3.6318 1.63197 3.33332 2.00016 3.33332H4.66683ZM6.19542 2.19525C6.32045 2.07023 6.49002 1.99999 6.66683 1.99999H9.3335C9.51031 1.99999 9.67988 2.07023 9.8049 2.19525C9.92992 2.32028 10.0002 2.48985 10.0002 2.66666V3.33332H6.00016V2.66666C6.00016 2.48985 6.0704 2.32028 6.19542 2.19525ZM4.00016 4.66666V13.3333C4.00016 13.5101 4.0704 13.6797 4.19542 13.8047C4.32045 13.9298 4.49002 14 4.66683 14H11.3335C11.5103 14 11.6799 13.9298 11.8049 13.8047C11.9299 13.6797 12.0002 13.5101 12.0002 13.3333V4.66666H4.00016Z" fill="#292737"/>
</svg>
