<svg width="16" height="16" viewBox="0 0 16 16" fill="none" xmlns="http://www.w3.org/2000/svg">
<path fill-rule="evenodd" clip-rule="evenodd" d="M8.6665 12H13.3332C14.4377 12 15.3332 11.1046 15.3332 10V3.33334C15.3332 2.22877 14.4377 1.33334 13.3332 1.33334H2.6665C1.56193 1.33334 0.666504 2.22877 0.666504 3.33334V10C0.666504 11.1046 1.56193 12 2.6665 12H7.33317V13.3333H5.33317C4.96498 13.3333 4.6665 13.6318 4.6665 14C4.6665 14.3682 4.96498 14.6667 5.33317 14.6667H10.6665C11.0347 14.6667 11.3332 14.3682 11.3332 14C11.3332 13.6318 11.0347 13.3333 10.6665 13.3333H8.6665V12ZM2.6665 2.66668C2.29831 2.66668 1.99984 2.96515 1.99984 3.33334V10C1.99984 10.3682 2.29831 10.6667 2.6665 10.6667H13.3332C13.7014 10.6667 13.9998 10.3682 13.9998 10V3.33334C13.9998 2.96515 13.7014 2.66668 13.3332 2.66668H2.6665Z" fill="#292737"/>
</svg>
