<svg width="16" height="16" viewBox="0 0 16 16" fill="none" xmlns="http://www.w3.org/2000/svg">
<path d="M1.13807 3.52858C0.877722 3.26823 0.455612 3.26823 0.195262 3.52858C-0.0650874 3.78892 -0.0650874 4.21103 0.195262 4.47138L5.19526 9.47138C5.45561 9.73173 5.87772 9.73173 6.13807 9.47138L9 6.60945L13.7239 11.3333H11.3333C10.9651 11.3333 10.6667 11.6318 10.6667 12C10.6667 12.3682 10.9651 12.6666 11.3333 12.6666H15.3333C15.7015 12.6666 16 12.3682 16 12V7.99998C16 7.63179 15.7015 7.33331 15.3333 7.33331C14.9651 7.33331 14.6667 7.63179 14.6667 7.99998V10.3905L9.47141 5.19524C9.21106 4.93489 8.78895 4.93489 8.5286 5.19524L5.66667 8.05717L1.13807 3.52858Z" fill="#292737"/>
</svg>
