<svg width="16" height="16" viewBox="0 0 16 16" fill="none" xmlns="http://www.w3.org/2000/svg">
<g clip-path="url(#clip0_1741_62135)">
<path fill-rule="evenodd" clip-rule="evenodd" d="M5.99984 5.33332C5.63165 5.33332 5.33317 5.6318 5.33317 5.99999V9.99999C5.33317 10.3682 5.63165 10.6667 5.99984 10.6667H9.99984C10.368 10.6667 10.6665 10.3682 10.6665 9.99999V5.99999C10.6665 5.6318 10.368 5.33332 9.99984 5.33332H5.99984ZM6.6665 9.33332V6.66666H9.33317V9.33332H6.6665Z" fill="#292737"/>
<path fill-rule="evenodd" clip-rule="evenodd" d="M7.99984 0.666656C3.94975 0.666656 0.666504 3.9499 0.666504 7.99999C0.666504 12.0501 3.94975 15.3333 7.99984 15.3333C12.0499 15.3333 15.3332 12.0501 15.3332 7.99999C15.3332 3.9499 12.0499 0.666656 7.99984 0.666656ZM1.99984 7.99999C1.99984 4.68628 4.68613 1.99999 7.99984 1.99999C11.3135 1.99999 13.9998 4.68628 13.9998 7.99999C13.9998 11.3137 11.3135 14 7.99984 14C4.68613 14 1.99984 11.3137 1.99984 7.99999Z" fill="#292737"/>
</g>
<defs>
<clipPath id="clip0_1741_62135">
<rect width="16" height="16" fill="white"/>
</clipPath>
</defs>
</svg>
