<svg width="16" height="16" viewBox="0 0 16 16" fill="none" xmlns="http://www.w3.org/2000/svg">
<path d="M8.66667 1.33332C8.66667 0.965133 8.36819 0.666656 8 0.666656C7.63181 0.666656 7.33333 0.965133 7.33333 1.33332V7.99999C7.33333 8.36818 7.63181 8.66666 8 8.66666C8.36819 8.66666 8.66667 8.36818 8.66667 7.99999V1.33332Z" fill="#292737"/>
<path d="M4.2249 4.89799C4.4852 4.6376 4.48513 4.21549 4.22474 3.95518C3.96435 3.69488 3.54224 3.69495 3.28193 3.95534C2.3498 4.88778 1.71508 6.07567 1.45802 7.36881C1.20096 8.66196 1.33311 10.0023 1.83776 11.2203C2.34241 12.4384 3.19689 13.4795 4.29317 14.2119C5.38945 14.9443 6.6783 15.3353 7.99675 15.3353C9.3152 15.3353 10.604 14.9443 11.7003 14.2119C12.7966 13.4795 13.6511 12.4384 14.1557 11.2203C14.6604 10.0023 14.7925 8.66196 14.5355 7.36881C14.2784 6.07567 13.6437 4.88778 12.7116 3.95534C12.4513 3.69495 12.0291 3.69488 11.7688 3.95518C11.5084 4.21549 11.5083 4.6376 11.7686 4.89799C12.5143 5.64394 13.0221 6.59426 13.2277 7.62877C13.4334 8.66329 13.3277 9.73556 12.9239 10.71C12.5202 11.6844 11.8366 12.5173 10.9596 13.1032C10.0826 13.6892 9.05151 14.0019 7.99675 14.0019C6.94199 14.0019 5.91091 13.6892 5.03389 13.1032C4.15686 12.5173 3.47328 11.6844 3.06956 10.71C2.66584 9.73556 2.56012 8.66329 2.76577 7.62877C2.97141 6.59426 3.47919 5.64394 4.2249 4.89799Z" fill="#292737"/>
</svg>
