<svg width="16" height="16" viewBox="0 0 16 16" fill="none" xmlns="http://www.w3.org/2000/svg">
<path fill-rule="evenodd" clip-rule="evenodd" d="M2.25657 1.3846C2.0072 1.28071 1.71979 1.33758 1.52878 1.52859C1.33776 1.71961 1.2809 2.00702 1.38479 2.25638L6.09812 13.5697C6.20477 13.8257 6.45878 13.989 6.73595 13.9796C7.01313 13.9703 7.25557 13.7903 7.34477 13.5277L8.67338 9.616L12.1954 13.1381C12.4558 13.3984 12.8779 13.3984 13.1383 13.1381C13.3986 12.8777 13.3986 12.4556 13.1383 12.1953L9.61619 8.67319L13.5279 7.34458C13.7905 7.25539 13.9705 7.01294 13.9798 6.73577C13.9891 6.4586 13.8259 6.20459 13.5699 6.09794L2.25657 1.3846ZM6.65 11.4274L3.23815 3.23797L11.4276 6.64982L8.17245 7.75542C7.97627 7.82205 7.82223 7.97609 7.7556 8.17226L6.65 11.4274Z" fill="#292737"/>
</svg>
