<svg width="16" height="16" viewBox="0 0 16 16" fill="none" xmlns="http://www.w3.org/2000/svg">
<path d="M8.4714 3.52859C8.21106 3.26824 7.78894 3.26824 7.5286 3.52859L4.19526 6.86192C3.93491 7.12227 3.93491 7.54438 4.19526 7.80473C4.45561 8.06508 4.87772 8.06508 5.13807 7.80473L8 4.9428L10.8619 7.80473C11.1223 8.06508 11.5444 8.06508 11.8047 7.80473C12.0651 7.54438 12.0651 7.12227 11.8047 6.86192L8.4714 3.52859Z" fill="#292737"/>
<path d="M11.8047 11.5286L8.4714 8.19526C8.21106 7.93491 7.78894 7.93491 7.5286 8.19526L4.19526 11.5286C3.93491 11.7889 3.93491 12.211 4.19526 12.4714C4.45561 12.7317 4.87772 12.7317 5.13807 12.4714L8 9.60947L10.8619 12.4714C11.1223 12.7317 11.5444 12.7317 11.8047 12.4714C12.0651 12.211 12.0651 11.7889 11.8047 11.5286Z" fill="#292737"/>
</svg>
