<svg width="16" height="16" viewBox="0 0 16 16" fill="none" xmlns="http://www.w3.org/2000/svg">
<path fill-rule="evenodd" clip-rule="evenodd" d="M10.5202 1.59185C9.98937 1.59185 9.48028 1.80272 9.10493 2.17807L2.97826 8.30474C2.35273 8.93027 2.0013 9.77869 2.0013 10.6633C2.0013 11.548 2.35273 12.3964 2.97826 13.0219C3.6038 13.6475 4.45222 13.9989 5.33686 13.9989C6.22151 13.9989 7.06992 13.6475 7.69546 13.0219L13.8221 6.89526C14.0825 6.63491 14.5046 6.63491 14.7649 6.89526C15.0253 7.15561 15.0253 7.57772 14.7649 7.83807L8.63826 13.9647C7.76268 14.8403 6.57513 15.3322 5.33686 15.3322C4.09859 15.3322 2.91104 14.8403 2.03546 13.9647C1.15987 13.0891 0.667969 11.9016 0.667969 10.6633C0.667969 9.42506 1.15987 8.23751 2.03546 7.36193L8.16212 1.23526C8.78752 0.60986 9.63575 0.258514 10.5202 0.258514C11.4046 0.258514 12.2529 0.60986 12.8783 1.23526C13.5037 1.86066 13.855 2.70888 13.855 3.59333C13.855 4.47778 13.5037 5.326 12.8783 5.9514L6.74493 12.0781C6.36972 12.4533 5.86082 12.6641 5.33019 12.6641C4.79956 12.6641 4.29067 12.4533 3.91546 12.0781C3.54024 11.7029 3.32945 11.194 3.32945 10.6633C3.32945 10.1327 3.54024 9.62381 3.91546 9.24859L9.57573 3.59498C9.83624 3.33479 10.2583 3.33503 10.5185 3.59554C10.7787 3.85604 10.7785 4.27815 10.518 4.53835L4.85826 10.1914C4.73328 10.3165 4.66279 10.4865 4.66279 10.6633C4.66279 10.8403 4.7331 11.0101 4.85826 11.1353C4.98343 11.2604 5.15319 11.3307 5.33019 11.3307C5.5072 11.3307 5.67696 11.2604 5.80212 11.1353L11.9355 5.00859C12.3106 4.63327 12.5217 4.12404 12.5217 3.59333C12.5217 3.0625 12.3108 2.55342 11.9355 2.17807C11.5601 1.80272 11.051 1.59185 10.5202 1.59185Z" fill="#292737"/>
</svg>
