<svg width="16" height="16" viewBox="0 0 16 16" fill="none" xmlns="http://www.w3.org/2000/svg">
<path d="M12.4714 5.5286C12.7318 5.78894 12.7318 6.21106 12.4714 6.4714L10.9428 8L12.4714 9.5286C12.7318 9.78895 12.7318 10.2111 12.4714 10.4714C12.2111 10.7318 11.7889 10.7318 11.5286 10.4714L10 8.94281L8.47141 10.4714C8.21106 10.7318 7.78895 10.7318 7.5286 10.4714C7.26825 10.2111 7.26825 9.78895 7.5286 9.5286L9.05719 8L7.5286 6.4714C7.26825 6.21106 7.26825 5.78894 7.5286 5.5286C7.78895 5.26825 8.21106 5.26825 8.47141 5.5286L10 7.05719L11.5286 5.5286C11.7889 5.26825 12.2111 5.26825 12.4714 5.5286Z" fill="#292737"/>
<path fill-rule="evenodd" clip-rule="evenodd" d="M4.83162 2.22766C4.95821 2.08299 5.14109 2 5.33333 2H14C14.5304 2 15.0391 2.21071 15.4142 2.58579C15.7893 2.96086 16 3.46957 16 4V12C16 12.5304 15.7893 13.0391 15.4142 13.4142C15.0391 13.7893 14.5304 14 14 14H5.33333C5.14109 14 4.95821 13.917 4.83162 13.7723L0.164949 8.439C-0.054983 8.18765 -0.054983 7.81235 0.164949 7.561L4.83162 2.22766ZM5.63585 3.33333L1.55251 8L5.63585 12.6667H14C14.1768 12.6667 14.3464 12.5964 14.4714 12.4714C14.5964 12.3464 14.6667 12.1768 14.6667 12V4C14.6667 3.82319 14.5964 3.65362 14.4714 3.5286C14.3464 3.40357 14.1768 3.33333 14 3.33333H5.63585Z" fill="#292737"/>
</svg>
