<svg width="16" height="16" viewBox="0 0 16 16" fill="none" xmlns="http://www.w3.org/2000/svg">
<g clip-path="url(#clip0_1741_61870)">
<path fill-rule="evenodd" clip-rule="evenodd" d="M1.13807 0.195262C0.877722 -0.0650874 0.455612 -0.0650874 0.195262 0.195262C-0.0650874 0.455612 -0.0650874 0.877722 0.195262 1.13807L2.39052 3.33333H2C1.46957 3.33333 0.960859 3.54405 0.585786 3.91912C0.210714 4.29419 9.93411e-09 4.8029 9.93411e-09 5.33333V12.6667C9.93411e-09 13.1971 0.210714 13.7058 0.585786 14.0809C0.960859 14.456 1.46957 14.6667 2 14.6667H13.7239L14.8619 15.8047C15.1223 16.0651 15.5444 16.0651 15.8047 15.8047C16.0651 15.5444 16.0651 15.1223 15.8047 14.8619L14.4716 13.5288C14.4715 13.5287 14.4717 13.5289 14.4716 13.5288L10.6675 9.72468C10.6617 9.71866 10.6558 9.71273 10.6497 9.7069L6.95978 6.01698C6.95394 6.01091 6.948 6.00497 6.94197 5.99916L1.13807 0.195262ZM12.3905 13.3333L10.2157 11.1585C10.05 11.3076 9.86919 11.4402 9.67585 11.5539C9.25369 11.8023 8.78199 11.9545 8.29431 11.9998C7.80664 12.0451 7.31497 11.9824 6.85428 11.8161C6.39359 11.6499 5.9752 11.3841 5.62888 11.0378C5.28255 10.6915 5.0168 10.2731 4.85053 9.81239C4.68426 9.3517 4.62155 8.86003 4.66686 8.37235C4.71218 7.88468 4.86441 7.41298 5.11272 6.99081C5.22643 6.79748 5.35902 6.61671 5.50817 6.45098L3.72386 4.66667H2C1.82319 4.66667 1.65362 4.7369 1.5286 4.86193C1.40357 4.98695 1.33333 5.15652 1.33333 5.33333V12.6667C1.33333 12.8435 1.40357 13.013 1.5286 13.1381C1.65362 13.2631 1.82319 13.3333 2 13.3333H12.3905ZM6.45316 7.39597C6.38225 7.48056 6.31827 7.57111 6.26199 7.6668C6.113 7.92009 6.02167 8.20311 5.99448 8.49572C5.96729 8.78833 6.00491 9.08333 6.10468 9.35974C6.20444 9.63615 6.36389 9.88719 6.57168 10.095C6.77948 10.3028 7.03051 10.4622 7.30693 10.562C7.58334 10.6618 7.87834 10.6994 8.17095 10.6722C8.46355 10.645 8.74657 10.5537 8.99987 10.4047C9.09555 10.3484 9.18611 10.2844 9.2707 10.2135L6.45316 7.39597Z" fill="#292737"/>
<path d="M6 1.33333C5.63181 1.33333 5.33333 1.63181 5.33333 2C5.33333 2.36819 5.63181 2.66667 6 2.66667H9.64321L10.7786 4.3698C10.9023 4.55527 11.1104 4.66667 11.3333 4.66667H14C14.1768 4.66667 14.3464 4.7369 14.4714 4.86193C14.5964 4.98695 14.6667 5.15652 14.6667 5.33333V11.56C14.6667 11.9282 14.9651 12.2267 15.3333 12.2267C15.7015 12.2267 16 11.9282 16 11.56V5.33333C16 4.8029 15.7893 4.29419 15.4142 3.91912C15.0391 3.54405 14.5304 3.33333 14 3.33333H11.6901L10.5547 1.6302C10.4311 1.44473 10.2229 1.33333 10 1.33333H6Z" fill="#292737"/>
</g>
<defs>
<clipPath id="clip0_1741_61870">
<rect width="16" height="16" fill="white"/>
</clipPath>
</defs>
</svg>
