<svg width="16" height="16" viewBox="0 0 16 16" fill="none" xmlns="http://www.w3.org/2000/svg">
<path fill-rule="evenodd" clip-rule="evenodd" d="M4.00016 5.66668C4.00016 4.7462 4.74635 4.00001 5.66683 4.00001C6.5873 4.00001 7.3335 4.7462 7.3335 5.66668C7.3335 6.58715 6.5873 7.33334 5.66683 7.33334C4.74635 7.33334 4.00016 6.58715 4.00016 5.66668ZM5.66683 5.33334C5.48273 5.33334 5.3335 5.48258 5.3335 5.66668C5.3335 5.85077 5.48273 6.00001 5.66683 6.00001C5.85092 6.00001 6.00016 5.85077 6.00016 5.66668C6.00016 5.48258 5.85092 5.33334 5.66683 5.33334Z" fill="#292737"/>
<path fill-rule="evenodd" clip-rule="evenodd" d="M1.3335 3.33334C1.3335 2.22877 2.22893 1.33334 3.3335 1.33334H12.6668C13.7714 1.33334 14.6668 2.22877 14.6668 3.33334V12.6667C14.6668 13.7712 13.7714 14.6667 12.6668 14.6667H3.3335C2.22893 14.6667 1.3335 13.7712 1.3335 12.6667V3.33334ZM3.3335 2.66668C2.96531 2.66668 2.66683 2.96515 2.66683 3.33334V12.6667C2.66683 12.9526 2.84678 13.1964 3.09959 13.2912L10.1955 6.19527C10.4558 5.93492 10.8779 5.93492 11.1383 6.19527L13.3335 8.39048V3.33334C13.3335 2.96515 13.035 2.66668 12.6668 2.66668H3.3335ZM13.3335 10.2761L10.6669 7.60949L4.94302 13.3333H12.6668C13.035 13.3333 13.3335 13.0349 13.3335 12.6667V10.2761Z" fill="#292737"/>
</svg>
