<svg width="16" height="16" viewBox="0 0 16 16" fill="none" xmlns="http://www.w3.org/2000/svg">
<g clip-path="url(#clip0_1741_62323)">
<circle cx="8" cy="8" r="8" fill="#292737"/>
<path d="M7.99686 11.4261C7.48645 11.4261 7.03237 11.3433 6.63465 11.1775C6.23913 11.0096 5.92868 10.7809 5.7033 10.4915C5.47792 10.202 5.36523 9.87388 5.36523 9.50709C5.36523 9.22426 5.42931 8.96463 5.55747 8.72821C5.68784 8.48957 5.8646 8.29181 6.08777 8.13493C6.31094 7.97584 6.56063 7.8742 6.83683 7.83V7.7836C6.47445 7.71069 6.18058 7.53502 5.9552 7.25661C5.72982 6.976 5.61713 6.65008 5.61713 6.27887C5.61713 5.92754 5.71987 5.61488 5.92537 5.34089C6.13086 5.06469 6.41258 4.84815 6.77054 4.69127C7.1307 4.53218 7.53948 4.45264 7.99686 4.45264C8.45425 4.45264 8.86192 4.53218 9.21987 4.69127C9.58004 4.85036 9.86287 5.06801 10.0684 5.34421C10.2739 5.6182 10.3777 5.92975 10.3799 6.27887C10.3777 6.65229 10.2628 6.9782 10.0352 7.25661C9.80763 7.53502 9.51596 7.71069 9.16022 7.7836V7.83C9.432 7.8742 9.67837 7.97584 9.89933 8.13493C10.1225 8.29181 10.2993 8.48957 10.4296 8.72821C10.5622 8.96463 10.6296 9.22426 10.6318 9.50709C10.6296 9.87388 10.5158 10.202 10.2904 10.4915C10.065 10.7809 9.75349 11.0096 9.35577 11.1775C8.96025 11.3433 8.50728 11.4261 7.99686 11.4261ZM7.99686 10.3721C8.22445 10.3721 8.42332 10.3313 8.59345 10.2495C8.76359 10.1655 8.89617 10.0506 8.99118 9.90482C9.0884 9.75677 9.13702 9.58663 9.13702 9.3944C9.13702 9.19774 9.0873 9.02429 8.98787 8.87404C8.88844 8.72158 8.75365 8.60226 8.58351 8.51608C8.41337 8.4277 8.21782 8.38351 7.99686 8.38351C7.77811 8.38351 7.58256 8.4277 7.41022 8.51608C7.23787 8.60226 7.10198 8.72158 7.00255 8.87404C6.90532 9.02429 6.85671 9.19774 6.85671 9.3944C6.85671 9.58663 6.90422 9.75677 6.99923 9.90482C7.09424 10.0506 7.22792 10.1655 7.40027 10.2495C7.57262 10.3313 7.77148 10.3721 7.99686 10.3721ZM7.99686 7.33947C8.18689 7.33947 8.35592 7.30081 8.50397 7.22347C8.65201 7.14613 8.76801 7.03897 8.85198 6.90197C8.93594 6.76498 8.97792 6.60699 8.97792 6.42802C8.97792 6.25125 8.93594 6.09658 8.85198 5.964C8.76801 5.82922 8.65311 5.72426 8.50728 5.64913C8.36145 5.5718 8.19131 5.53313 7.99686 5.53313C7.80463 5.53313 7.63449 5.5718 7.48645 5.64913C7.3384 5.72426 7.2224 5.82922 7.13844 5.964C7.05668 6.09658 7.0158 6.25125 7.0158 6.42802C7.0158 6.60699 7.05779 6.76498 7.14175 6.90197C7.22571 7.03897 7.34172 7.14613 7.48976 7.22347C7.6378 7.30081 7.80684 7.33947 7.99686 7.33947Z" fill="white"/>
</g>
<defs>
<clipPath id="clip0_1741_62323">
<rect width="16" height="16" fill="white"/>
</clipPath>
</defs>
</svg>
