<svg width="16" height="16" viewBox="0 0 16 16" fill="none" xmlns="http://www.w3.org/2000/svg">
<path fill-rule="evenodd" clip-rule="evenodd" d="M7.99984 3.33333C7.99984 3.07871 7.8548 2.84632 7.62607 2.73445C7.39734 2.62258 7.12486 2.65077 6.92388 2.80709L0.923877 7.47376C0.761486 7.60006 0.666504 7.79427 0.666504 7.99999C0.666504 8.20572 0.761486 8.39993 0.923877 8.52623L6.92388 13.1929C7.12486 13.3492 7.39734 13.3774 7.62607 13.2655C7.8548 13.1537 7.99984 12.9213 7.99984 12.6667V7.99999C7.99984 8.20572 8.09482 8.39993 8.25721 8.52623L14.2572 13.1929C14.4582 13.3492 14.7307 13.3774 14.9594 13.2655C15.1881 13.1537 15.3332 12.9213 15.3332 12.6667V3.33333C15.3332 3.07871 15.1881 2.84632 14.9594 2.73445C14.7307 2.62258 14.4582 2.65077 14.2572 2.80709L8.25721 7.47376C8.09482 7.60006 7.99984 7.79427 7.99984 7.99999V3.33333ZM6.6665 11.3036L2.41905 7.99999L6.6665 4.69642V11.3036ZM13.9998 11.3036L9.75239 7.99999L13.9998 4.69642V11.3036Z" fill="#292737"/>
</svg>
