<svg width="16" height="16" viewBox="0 0 16 16" fill="none" xmlns="http://www.w3.org/2000/svg">
<path d="M3.13807 2.86192C2.87772 2.60157 2.45561 2.60157 2.19526 2.86192C1.93491 3.12227 1.93491 3.54438 2.19526 3.80473L5.72386 7.33332L2.19526 10.8619C1.93491 11.1223 1.93491 11.5444 2.19526 11.8047C2.45561 12.0651 2.87772 12.0651 3.13807 11.8047L7.13807 7.80473C7.39842 7.54438 7.39842 7.12227 7.13807 6.86192L3.13807 2.86192Z" fill="#292737"/>
<path d="M8 12C7.63181 12 7.33333 12.2985 7.33333 12.6667C7.33333 13.0348 7.63181 13.3333 8 13.3333H13.3333C13.7015 13.3333 14 13.0348 14 12.6667C14 12.2985 13.7015 12 13.3333 12H8Z" fill="#292737"/>
</svg>
