<svg width="16" height="16" viewBox="0 0 16 16" fill="none" xmlns="http://www.w3.org/2000/svg">
<g clip-path="url(#clip0_1741_61758)">
<path d="M7.99984 7.33332C8.36803 7.33332 8.6665 7.6318 8.6665 7.99999V10.6667C8.6665 11.0348 8.36803 11.3333 7.99984 11.3333C7.63165 11.3333 7.33317 11.0348 7.33317 10.6667V7.99999C7.33317 7.6318 7.63165 7.33332 7.99984 7.33332Z" fill="#292737"/>
<path d="M7.99984 4.66666C7.63165 4.66666 7.33317 4.96513 7.33317 5.33332C7.33317 5.70151 7.63165 5.99999 7.99984 5.99999H8.0065C8.37469 5.99999 8.67317 5.70151 8.67317 5.33332C8.67317 4.96513 8.37469 4.66666 8.0065 4.66666H7.99984Z" fill="#292737"/>
<path fill-rule="evenodd" clip-rule="evenodd" d="M0.666504 7.99999C0.666504 3.9499 3.94975 0.666656 7.99984 0.666656C12.0499 0.666656 15.3332 3.9499 15.3332 7.99999C15.3332 12.0501 12.0499 15.3333 7.99984 15.3333C3.94975 15.3333 0.666504 12.0501 0.666504 7.99999ZM7.99984 1.99999C4.68613 1.99999 1.99984 4.68628 1.99984 7.99999C1.99984 11.3137 4.68613 14 7.99984 14C11.3135 14 13.9998 11.3137 13.9998 7.99999C13.9998 4.68628 11.3135 1.99999 7.99984 1.99999Z" fill="#292737"/>
</g>
<defs>
<clipPath id="clip0_1741_61758">
<rect width="16" height="16" fill="white"/>
</clipPath>
</defs>
</svg>
