<svg width="16" height="16" viewBox="0 0 16 16" fill="none" xmlns="http://www.w3.org/2000/svg">
<path d="M8.00016 4.66668C8.36835 4.66668 8.66683 4.96515 8.66683 5.33334V7.33334H10.6668C11.035 7.33334 11.3335 7.63182 11.3335 8.00001C11.3335 8.3682 11.035 8.66668 10.6668 8.66668H8.66683V10.6667C8.66683 11.0349 8.36835 11.3333 8.00016 11.3333C7.63197 11.3333 7.3335 11.0349 7.3335 10.6667V8.66668H5.3335C4.96531 8.66668 4.66683 8.3682 4.66683 8.00001C4.66683 7.63182 4.96531 7.33334 5.3335 7.33334H7.3335V5.33334C7.3335 4.96515 7.63197 4.66668 8.00016 4.66668Z" fill="#292737"/>
<path fill-rule="evenodd" clip-rule="evenodd" d="M1.3335 3.33334C1.3335 2.22877 2.22893 1.33334 3.3335 1.33334H12.6668C13.7714 1.33334 14.6668 2.22877 14.6668 3.33334V12.6667C14.6668 13.7712 13.7714 14.6667 12.6668 14.6667H3.3335C2.22893 14.6667 1.3335 13.7712 1.3335 12.6667V3.33334ZM3.3335 2.66668C2.96531 2.66668 2.66683 2.96515 2.66683 3.33334V12.6667C2.66683 13.0349 2.96531 13.3333 3.3335 13.3333H12.6668C13.035 13.3333 13.3335 13.0349 13.3335 12.6667V3.33334C13.3335 2.96515 13.035 2.66668 12.6668 2.66668H3.3335Z" fill="#292737"/>
</svg>
