<svg width="16" height="16" viewBox="0 0 16 16" fill="none" xmlns="http://www.w3.org/2000/svg">
<path fill-rule="evenodd" clip-rule="evenodd" d="M8.23408 0.709104C8.08316 0.652507 7.91684 0.652507 7.76592 0.709104L2.43258 2.7091C2.17238 2.80668 2 3.05543 2 3.33332V7.99999C2 10.2976 3.52116 12.1335 4.89433 13.335C5.59492 13.9481 6.29236 14.4272 6.81333 14.7528C7.07452 14.9161 7.29312 15.0418 7.44796 15.1275C7.52542 15.1704 7.58705 15.2033 7.63021 15.226C7.6518 15.2373 7.66878 15.2461 7.68083 15.2523L7.69516 15.2596L7.69948 15.2617L7.70091 15.2625C7.70113 15.2626 7.70186 15.2629 8 14.6667L7.70186 15.2629C7.88954 15.3568 8.11046 15.3568 8.29814 15.2629L8 14.6667C8.29814 15.2629 8.29793 15.263 8.29814 15.2629L8.29909 15.2625L8.30052 15.2617L8.30484 15.2596L8.31917 15.2523C8.33122 15.2461 8.3482 15.2373 8.36979 15.226C8.41295 15.2033 8.47458 15.1704 8.55204 15.1275C8.70688 15.0418 8.92549 14.9161 9.18667 14.7528C9.70764 14.4272 10.4051 13.9481 11.1057 13.335C12.4788 12.1335 14 10.2976 14 7.99999V3.33332C14 3.05543 13.8276 2.80668 13.5674 2.7091L8.23408 0.709104ZM8.48 13.6222C8.29114 13.7402 8.12776 13.8361 8 13.9085C7.87224 13.8361 7.70887 13.7402 7.52 13.6222C7.04097 13.3228 6.40508 12.8853 5.77234 12.3316C4.47884 11.1998 3.33333 9.70236 3.33333 7.99999V3.79532L8 2.04532L12.6667 3.79532V7.99999C12.6667 9.70236 11.5212 11.1998 10.2277 12.3316C9.59492 12.8853 8.95903 13.3228 8.48 13.6222Z" fill="#292737"/>
</svg>
