<svg width="16" height="16" viewBox="0 0 16 16" fill="none" xmlns="http://www.w3.org/2000/svg">
<path fill-rule="evenodd" clip-rule="evenodd" d="M3.3335 1.33333C2.80306 1.33333 2.29436 1.54404 1.91928 1.91911C1.54421 2.29419 1.3335 2.8029 1.3335 3.33333V12.6667C1.3335 13.1971 1.54421 13.7058 1.91928 14.0809C2.29436 14.4559 2.80306 14.6667 3.3335 14.6667H12.6668C13.1973 14.6667 13.706 14.4559 14.081 14.0809C14.4561 13.7058 14.6668 13.1971 14.6668 12.6667V3.33333C14.6668 2.80289 14.4561 2.29419 14.081 1.91911C13.706 1.54404 13.1973 1.33333 12.6668 1.33333H3.3335ZM12.6668 13.3333H8.66683V2.66666H12.6668C12.8436 2.66666 13.0132 2.7369 13.1382 2.86192C13.2633 2.98695 13.3335 3.15652 13.3335 3.33333V12.6667C13.3335 12.8435 13.2633 13.013 13.1382 13.1381C13.0132 13.2631 12.8436 13.3333 12.6668 13.3333ZM7.3335 13.3333V2.66666H3.3335C3.15668 2.66666 2.98712 2.7369 2.86209 2.86192C2.73707 2.98695 2.66683 3.15652 2.66683 3.33333V12.6667C2.66683 12.8435 2.73707 13.013 2.86209 13.1381C2.98712 13.2631 3.15669 13.3333 3.3335 13.3333H7.3335Z" fill="#292737"/>
</svg>
