<svg width="16" height="16" viewBox="0 0 16 16" fill="none" xmlns="http://www.w3.org/2000/svg">
<path d="M8.00016 4.66669C8.00016 4.2985 7.70169 4.00002 7.3335 4.00002C6.96531 4.00002 6.66683 4.2985 6.66683 4.66669V7.33335C6.66683 7.70154 6.96531 8.00002 7.3335 8.00002C7.70169 8.00002 8.00016 7.70154 8.00016 7.33335V4.66669Z" fill="#292737"/>
<path d="M11.3335 4.66669C11.3335 4.2985 11.035 4.00002 10.6668 4.00002C10.2986 4.00002 10.0002 4.2985 10.0002 4.66669V7.33335C10.0002 7.70154 10.2986 8.00002 10.6668 8.00002C11.035 8.00002 11.3335 7.70154 11.3335 7.33335V4.66669Z" fill="#292737"/>
<path fill-rule="evenodd" clip-rule="evenodd" d="M2.00016 0.666687C1.63197 0.666687 1.3335 0.965164 1.3335 1.33335V12C1.3335 12.3682 1.63197 12.6667 2.00016 12.6667H4.66683V14.6667C4.66683 14.9363 4.82926 15.1794 5.07837 15.2826C5.32749 15.3858 5.61423 15.3288 5.8049 15.1381L8.27631 12.6667H11.3335C11.5103 12.6667 11.6799 12.5964 11.8049 12.4714L14.4716 9.80476C14.5966 9.67973 14.6668 9.51017 14.6668 9.33335V1.33335C14.6668 0.965164 14.3684 0.666687 14.0002 0.666687H2.00016ZM2.66683 11.3334V2.00002H13.3335V9.05721L11.0574 11.3334H8.00016C7.82335 11.3334 7.65378 11.4036 7.52876 11.5286L6.00016 13.0572V12C6.00016 11.6318 5.70169 11.3334 5.3335 11.3334H2.66683Z" fill="#292737"/>
</svg>
