<svg width="16" height="16" viewBox="0 0 16 16" fill="none" xmlns="http://www.w3.org/2000/svg">
<path d="M8.66683 2.00001C8.66683 1.63182 8.36835 1.33334 8.00016 1.33334C7.63197 1.33334 7.3335 1.63182 7.3335 2.00001V8.39053L5.13823 6.19527C4.87788 5.93492 4.45577 5.93492 4.19542 6.19527C3.93508 6.45562 3.93508 6.87773 4.19542 7.13808L7.52876 10.4714C7.78911 10.7318 8.21122 10.7318 8.47157 10.4714L11.8049 7.13808C12.0652 6.87773 12.0652 6.45562 11.8049 6.19527C11.5446 5.93492 11.1224 5.93492 10.8621 6.19527L8.66683 8.39053V2.00001Z" fill="#292737"/>
<path d="M2.00016 9.33334C2.36835 9.33334 2.66683 9.63182 2.66683 10V12.6667C2.66683 12.8435 2.73707 13.0131 2.86209 13.1381C2.98712 13.2631 3.15669 13.3333 3.3335 13.3333H12.6668C12.8436 13.3333 13.0132 13.2631 13.1382 13.1381C13.2633 13.0131 13.3335 12.8435 13.3335 12.6667V10C13.3335 9.63182 13.632 9.33334 14.0002 9.33334C14.3684 9.33334 14.6668 9.63182 14.6668 10V12.6667C14.6668 13.1971 14.4561 13.7058 14.081 14.0809C13.706 14.456 13.1973 14.6667 12.6668 14.6667H3.3335C2.80306 14.6667 2.29435 14.456 1.91928 14.0809C1.54421 13.7058 1.3335 13.1971 1.3335 12.6667V10C1.3335 9.63182 1.63197 9.33334 2.00016 9.33334Z" fill="#292737"/>
</svg>
