<svg width="16" height="16" viewBox="0 0 16 16" fill="none" xmlns="http://www.w3.org/2000/svg">
<g clip-path="url(#clip0_1741_61993)">
<path d="M2.1951 2.19527C2.32012 2.07024 2.48969 2.00001 2.6665 2.00001H8.6665C8.84332 2.00001 9.01288 2.07024 9.13791 2.19527C9.26293 2.32029 9.33317 2.48986 9.33317 2.66667V3.33334C9.33317 3.70153 9.63165 4.00001 9.99984 4.00001C10.368 4.00001 10.6665 3.70153 10.6665 3.33334V2.66667C10.6665 2.13624 10.4558 1.62753 10.0807 1.25246C9.70564 0.877385 9.19694 0.666672 8.6665 0.666672H2.6665C2.13607 0.666672 1.62736 0.877385 1.25229 1.25246C0.877217 1.62753 0.666504 2.13624 0.666504 2.66667V8.66667C0.666504 9.19711 0.877218 9.70581 1.25229 10.0809C1.62736 10.456 2.13607 10.6667 2.6665 10.6667H3.33317C3.70136 10.6667 3.99984 10.3682 3.99984 10C3.99984 9.63181 3.70136 9.33334 3.33317 9.33334H2.6665C2.48969 9.33334 2.32012 9.2631 2.1951 9.13808C2.07008 9.01305 1.99984 8.84348 1.99984 8.66667V2.66667C1.99984 2.48986 2.07008 2.32029 2.1951 2.19527Z" fill="#292737"/>
<path fill-rule="evenodd" clip-rule="evenodd" d="M7.33317 5.33334C6.2286 5.33334 5.33317 6.22877 5.33317 7.33334V13.3333C5.33317 14.4379 6.2286 15.3333 7.33317 15.3333H13.3332C14.4377 15.3333 15.3332 14.4379 15.3332 13.3333V7.33334C15.3332 6.22877 14.4377 5.33334 13.3332 5.33334H7.33317ZM6.6665 7.33334C6.6665 6.96515 6.96498 6.66667 7.33317 6.66667H13.3332C13.7014 6.66667 13.9998 6.96515 13.9998 7.33334V13.3333C13.9998 13.7015 13.7014 14 13.3332 14H7.33317C6.96498 14 6.6665 13.7015 6.6665 13.3333V7.33334Z" fill="#292737"/>
</g>
<defs>
<clipPath id="clip0_1741_61993">
<rect width="16" height="16" fill="white"/>
</clipPath>
</defs>
</svg>
