<svg width="16" height="16" viewBox="0 0 16 16" fill="none" xmlns="http://www.w3.org/2000/svg">
<path d="M11.3333 3.33331C10.9651 3.33331 10.6667 3.63179 10.6667 3.99998C10.6667 4.36817 10.9651 4.66665 11.3333 4.66665H13.7239L9 9.3905L6.13807 6.52858C5.87772 6.26823 5.45561 6.26823 5.19526 6.52858L0.195262 11.5286C-0.0650874 11.7889 -0.0650874 12.211 0.195262 12.4714C0.455612 12.7317 0.877722 12.7317 1.13807 12.4714L5.66667 7.94279L8.5286 10.8047C8.78895 11.0651 9.21106 11.0651 9.47141 10.8047L14.6667 5.60946V7.99998C14.6667 8.36817 14.9651 8.66665 15.3333 8.66665C15.7015 8.66665 16 8.36817 16 7.99998V3.99998C16 3.63179 15.7015 3.33331 15.3333 3.33331H11.3333Z" fill="#292737"/>
</svg>
