<svg width="16" height="16" viewBox="0 0 16 16" fill="none" xmlns="http://www.w3.org/2000/svg">
<g clip-path="url(#clip0_1741_61941)">
<path fill-rule="evenodd" clip-rule="evenodd" d="M7.99984 0.666672C3.94975 0.666672 0.666504 3.94992 0.666504 8.00001C0.666504 12.0501 3.94975 15.3333 7.99984 15.3333C12.0499 15.3333 15.3332 12.0501 15.3332 8.00001C15.3332 4.09158 12.2756 0.897298 8.42192 0.678615C8.39366 0.67083 8.3639 0.666672 8.33317 0.666672C8.31331 0.666672 8.29386 0.668408 8.27496 0.671737C8.18367 0.66837 8.09195 0.666672 7.99984 0.666672ZM1.99984 8.00001C1.99984 4.6863 4.68613 2.00001 7.99984 2.00001C11.3135 2.00001 13.9998 4.6863 13.9998 8.00001C13.9998 11.3137 11.3135 14 7.99984 14C4.68613 14 1.99984 11.3137 1.99984 8.00001Z" fill="#292737"/>
</g>
<defs>
<clipPath id="clip0_1741_61941">
<rect width="16" height="16" fill="white"/>
</clipPath>
</defs>
</svg>
