<svg width="16" height="16" viewBox="0 0 16 16" fill="none" xmlns="http://www.w3.org/2000/svg">
<g clip-path="url(#clip0_1741_61939)">
<path fill-rule="evenodd" clip-rule="evenodd" d="M0.666504 8.00001C0.666504 6.39123 1.18454 4.90345 2.06291 3.69439C2.08398 3.65956 2.10835 3.62649 2.13589 3.59568C3.47399 1.81695 5.60258 0.666672 7.99984 0.666672C10.9919 0.666672 13.5654 2.45857 14.7058 5.02777C14.719 5.05319 14.7305 5.07957 14.7403 5.10676C15.1219 5.99444 15.3332 6.97254 15.3332 8.00001C15.3332 12.0501 12.0499 15.3333 7.99984 15.3333C7.73809 15.3333 7.47955 15.3196 7.22488 15.2929C7.19436 15.2916 7.16379 15.2882 7.1334 15.2827C3.49166 14.854 0.666504 11.7569 0.666504 8.00001ZM7.99984 2.00001C6.17432 2.00001 4.53922 2.81526 3.43876 4.10155L4.93435 6.68868C5.44363 5.49967 6.62446 4.66667 7.99984 4.66667H12.9895C11.9131 3.05869 10.0801 2.00001 7.99984 2.00001ZM8.39145 13.9874C11.5226 13.7857 13.9998 11.1821 13.9998 8.00001C13.9998 7.29873 13.8795 6.62556 13.6584 6.00001H10.6667C11.0852 6.55711 11.3332 7.2496 11.3332 8.00001C11.3332 8.65621 11.1436 9.26812 10.8161 9.78395L8.39145 13.9874ZM8.39663 11.31L6.90268 13.8999C4.11291 13.3844 1.99984 10.939 1.99984 8.00001C1.99984 7.04683 2.2221 6.14558 2.61762 5.34523L5.04501 9.54424C5.60194 10.6077 6.71615 11.3333 7.99984 11.3333C8.1341 11.3333 8.26652 11.3254 8.39663 11.31ZM9.75778 8.95455C9.74765 8.96926 9.73802 8.98449 9.72894 9.00023L9.67852 9.08765C9.32199 9.63679 8.70333 10 7.99984 10C7.27841 10 6.64619 9.61803 6.2944 9.04529C6.28701 9.02991 6.27898 9.0147 6.2703 8.99969L6.21774 8.90876C6.07842 8.63609 5.99984 8.32722 5.99984 8.00001C5.99984 6.89544 6.89527 6.00001 7.99984 6.00001C9.10441 6.00001 9.99984 6.89544 9.99984 8.00001C9.99984 8.34568 9.91214 8.67087 9.75778 8.95455Z" fill="#292737"/>
</g>
<defs>
<clipPath id="clip0_1741_61939">
<rect width="16" height="16" fill="white"/>
</clipPath>
</defs>
</svg>
