<svg width="16" height="16" viewBox="0 0 16 16" fill="none" xmlns="http://www.w3.org/2000/svg">
<path d="M13.8325 9.40446C13.8245 9.4134 13.8162 9.42217 13.8076 9.43077L8.47233 14.766C8.34727 14.8911 8.17764 14.9613 8.00077 14.9613H7.99971C7.82285 14.9613 7.65322 14.8911 7.52815 14.766L2.19289 9.43077C2.18429 9.42217 2.17597 9.41339 2.16794 9.40446L1.67377 8.91028C-0.0598744 7.17664 -0.0598767 4.36585 1.67377 2.6322C3.40741 0.89856 6.2182 0.89856 7.95184 2.6322L8.00024 2.6806L8.04864 2.6322C9.78229 0.898559 12.5931 0.89856 14.3267 2.6322C16.0604 4.36585 16.0604 7.17664 14.3267 8.91028L13.8325 9.40446Z" fill="#292737"/>
</svg>
