<svg width="16" height="16" viewBox="0 0 16 16" fill="none" xmlns="http://www.w3.org/2000/svg">
<path d="M6.66667 7.33333C6.29848 7.33333 6 7.6318 6 7.99999C6 8.36818 6.29848 8.66666 6.66667 8.66666H9.33333C9.70152 8.66666 10 8.36818 10 7.99999C10 7.6318 9.70152 7.33333 9.33333 7.33333H6.66667Z" fill="#292737"/>
<path fill-rule="evenodd" clip-rule="evenodd" d="M0 1.99999C0 1.63181 0.298477 1.33333 0.666667 1.33333H15.3333C15.7015 1.33333 16 1.63181 16 1.99999V5.33333C16 5.70152 15.7015 5.99999 15.3333 5.99999H14.6667V14C14.6667 14.3682 14.3682 14.6667 14 14.6667H2C1.63181 14.6667 1.33333 14.3682 1.33333 14V5.99999H0.666667C0.298477 5.99999 0 5.70152 0 5.33333V1.99999ZM13.3333 13.3333V5.99999H2.66667V13.3333H13.3333ZM14.6667 4.66666H1.33333V2.66666H14.6667V4.66666Z" fill="#292737"/>
</svg>
