<svg width="16" height="16" viewBox="0 0 16 16" fill="none" xmlns="http://www.w3.org/2000/svg">
<g clip-path="url(#clip0_1741_62255)">
<path d="M5.77567 1.33903C6.68199 1.30564 7.5841 1.47814 8.41416 1.84357C9.24422 2.20901 9.98063 2.75786 10.568 3.44886C11.0423 4.00681 11.4095 4.64572 11.6529 5.33332H12.0001C12.8888 5.33391 13.7525 5.63043 14.4539 6.17608C15.1554 6.72173 15.6551 7.48544 15.8743 8.34667C16.0935 9.20791 16.0197 10.1176 15.6645 10.9322C15.3092 11.7468 14.6928 12.4199 13.9126 12.8453C13.5893 13.0216 13.1844 12.9024 13.0081 12.5791C12.8319 12.2558 12.9511 11.8509 13.2744 11.6747C13.7945 11.3911 14.2055 10.9423 14.4423 10.3993C14.6791 9.85618 14.7283 9.24971 14.5822 8.67556C14.4361 8.1014 14.1029 7.59226 13.6353 7.22849C13.1676 6.86473 12.5922 6.66705 11.9997 6.66666H11.1601C10.8562 6.66666 10.5908 6.46111 10.5147 6.16686C10.3381 5.48392 10.009 4.84989 9.55216 4.31244C9.09529 3.77499 8.52252 3.34811 7.87692 3.06388C7.23131 2.77966 6.52968 2.64549 5.82476 2.67146C5.11984 2.69743 4.42998 2.88287 3.80705 3.21383C3.18411 3.5448 2.64431 4.01267 2.22822 4.58228C1.81214 5.1519 1.53059 5.80842 1.40476 6.50251C1.27893 7.19659 1.31209 7.91017 1.50173 8.5896C1.69138 9.26902 2.03258 9.89662 2.49969 10.4252C2.74351 10.7011 2.7175 11.1224 2.4416 11.3662C2.1657 11.61 1.74439 11.584 1.50058 11.3081C0.900012 10.6285 0.461322 9.82161 0.21749 8.94806C-0.0263405 8.07452 -0.0689672 7.15706 0.0928155 6.26466C0.254598 5.37227 0.61658 4.52816 1.15155 3.7958C1.68651 3.06344 2.38055 2.46189 3.18146 2.03637C3.98238 1.61084 4.86934 1.37242 5.77567 1.33903Z" fill="#292737"/>
<path d="M7.74497 7.38392C7.66813 7.41571 7.59603 7.46249 7.53313 7.52426C7.53299 7.5244 7.53327 7.52413 7.53313 7.52426C7.53181 7.52556 7.53007 7.52728 7.52876 7.5286L4.86209 10.1953C4.60174 10.4556 4.60174 10.8777 4.86209 11.1381C5.12244 11.3984 5.54455 11.3984 5.8049 11.1381L7.3335 9.60948V14C7.3335 14.3682 7.63197 14.6667 8.00016 14.6667C8.36835 14.6667 8.66683 14.3682 8.66683 14V9.60948L10.1954 11.1381C10.4558 11.3984 10.8779 11.3984 11.1382 11.1381C11.3986 10.8777 11.3986 10.4556 11.1382 10.1953L8.47157 7.5286C8.40788 7.46491 8.33452 7.41681 8.25622 7.38428C8.17796 7.3517 8.09216 7.3336 8.00216 7.33334L8.00016 7.33333L7.99834 7.33334C7.90867 7.3336 7.823 7.35156 7.74497 7.38392Z" fill="#292737"/>
</g>
<defs>
<clipPath id="clip0_1741_62255">
<rect width="16" height="16" fill="white"/>
</clipPath>
</defs>
</svg>
