<svg width="16" height="16" viewBox="0 0 16 16" fill="none" xmlns="http://www.w3.org/2000/svg">
<path fill-rule="evenodd" clip-rule="evenodd" d="M4.00016 4.66668C4.00016 4.29849 4.29864 4.00001 4.66683 4.00001H6.66683C7.03502 4.00001 7.3335 4.29849 7.3335 4.66668V10.6667C7.3335 11.0349 7.03502 11.3333 6.66683 11.3333H4.66683C4.29864 11.3333 4.00016 11.0349 4.00016 10.6667V4.66668ZM5.3335 5.33334V10H6.00016V5.33334H5.3335Z" fill="#292737"/>
<path fill-rule="evenodd" clip-rule="evenodd" d="M9.3335 4.00001C8.96531 4.00001 8.66683 4.29849 8.66683 4.66668V8.00001C8.66683 8.3682 8.96531 8.66668 9.3335 8.66668H11.3335C11.7017 8.66668 12.0002 8.3682 12.0002 8.00001V4.66668C12.0002 4.29849 11.7017 4.00001 11.3335 4.00001H9.3335ZM10.0002 7.33334V5.33334H10.6668V7.33334H10.0002Z" fill="#292737"/>
<path fill-rule="evenodd" clip-rule="evenodd" d="M1.3335 3.33334C1.3335 2.22877 2.22893 1.33334 3.3335 1.33334H12.6668C13.7714 1.33334 14.6668 2.22877 14.6668 3.33334V12.6667C14.6668 13.7712 13.7714 14.6667 12.6668 14.6667H3.3335C2.22893 14.6667 1.3335 13.7712 1.3335 12.6667V3.33334ZM3.3335 2.66668C2.96531 2.66668 2.66683 2.96515 2.66683 3.33334V12.6667C2.66683 13.0349 2.96531 13.3333 3.3335 13.3333H12.6668C13.035 13.3333 13.3335 13.0349 13.3335 12.6667V3.33334C13.3335 2.96515 13.035 2.66668 12.6668 2.66668H3.3335Z" fill="#292737"/>
</svg>
