<svg width="16" height="16" viewBox="0 0 16 16" fill="none" xmlns="http://www.w3.org/2000/svg">
<path fill-rule="evenodd" clip-rule="evenodd" d="M8.00016 4C6.5274 4 5.3335 5.19391 5.3335 6.66667C5.3335 8.13943 6.5274 9.33333 8.00016 9.33333C9.47292 9.33333 10.6668 8.13943 10.6668 6.66667C10.6668 5.19391 9.47292 4 8.00016 4ZM6.66683 6.66667C6.66683 5.93029 7.26378 5.33333 8.00016 5.33333C8.73654 5.33333 9.3335 5.93029 9.3335 6.66667C9.3335 7.40305 8.73654 8 8.00016 8C7.26378 8 6.66683 7.40305 6.66683 6.66667Z" fill="#292737"/>
<path fill-rule="evenodd" clip-rule="evenodd" d="M7.63 15.8878C7.63019 15.8879 7.63036 15.888 8.00016 15.3333L7.63 15.8878C7.85393 16.0371 8.14603 16.0373 8.36996 15.888L8.00016 15.3333C8.36996 15.888 8.36977 15.8882 8.36996 15.888L8.37223 15.8865L8.37667 15.8835L8.39195 15.8732C8.40493 15.8644 8.42344 15.8517 8.44712 15.8353C8.49448 15.8025 8.56252 15.7547 8.6483 15.6928C8.8198 15.5689 9.06259 15.3881 9.35295 15.1569C9.93261 14.6954 10.7072 14.0286 11.4841 13.2085C13.0107 11.5972 14.6668 9.26796 14.6668 6.66667C14.6668 4.89856 13.9644 3.20286 12.7142 1.95262C11.464 0.702379 9.76827 0 8.00016 0C6.23205 0 4.53636 0.702379 3.28612 1.95262C2.03587 3.20286 1.3335 4.89856 1.3335 6.66667C1.3335 9.26796 2.98967 11.5972 4.51619 13.2085C5.29309 14.0286 6.06772 14.6954 6.64738 15.1569C6.93774 15.3881 7.18053 15.5689 7.35202 15.6928C7.4378 15.7547 7.50585 15.8025 7.5532 15.8353C7.57688 15.8517 7.59539 15.8644 7.60837 15.8732L7.62365 15.8835L7.6281 15.8865L7.63 15.8878ZM4.22893 2.89543C5.22912 1.89524 6.58567 1.33333 8.00016 1.33333C9.41465 1.33333 10.7712 1.89524 11.7714 2.89543C12.7716 3.89562 13.3335 5.25218 13.3335 6.66667C13.3335 8.73204 11.9897 10.7362 10.5162 12.2915C9.79309 13.0548 9.06772 13.6796 8.52238 14.1139C8.31942 14.2755 8.14215 14.4101 8.00016 14.5151C7.85818 14.4101 7.68091 14.2755 7.47795 14.1139C6.93261 13.6796 6.20724 13.0548 5.48413 12.2915C4.01065 10.7362 2.66683 8.73204 2.66683 6.66667C2.66683 5.25218 3.22873 3.89562 4.22893 2.89543Z" fill="#292737"/>
</svg>
