<svg width="16" height="16" viewBox="0 0 16 16" fill="none" xmlns="http://www.w3.org/2000/svg">
<path d="M5.13807 3.52859C4.87772 3.26824 4.45561 3.26824 4.19526 3.52859C3.93491 3.78894 3.93491 4.21105 4.19526 4.4714L7.5286 7.80473C7.78894 8.06508 8.21106 8.06508 8.4714 7.80473L11.8047 4.4714C12.0651 4.21105 12.0651 3.78894 11.8047 3.52859C11.5444 3.26824 11.1223 3.26824 10.8619 3.52859L8 6.39052L5.13807 3.52859Z" fill="#292737"/>
<path d="M5.13807 8.19526C4.87772 7.93491 4.45561 7.93491 4.19526 8.19526C3.93491 8.45561 3.93491 8.87772 4.19526 9.13807L7.5286 12.4714C7.78894 12.7317 8.21106 12.7317 8.4714 12.4714L11.8047 9.13807C12.0651 8.87772 12.0651 8.45561 11.8047 8.19526C11.5444 7.93491 11.1223 7.93491 10.8619 8.19526L8 11.0572L5.13807 8.19526Z" fill="#292737"/>
</svg>
