<svg width="16" height="16" viewBox="0 0 16 16" fill="none" xmlns="http://www.w3.org/2000/svg">
<g clip-path="url(#clip0_1741_61991)">
<path fill-rule="evenodd" clip-rule="evenodd" d="M11.459 5.38416C11.5388 5.14461 11.4765 4.8805 11.2979 4.70194C11.1194 4.52339 10.8552 4.46104 10.6157 4.54089L6.37569 5.95422C6.17662 6.02058 6.02041 6.17679 5.95405 6.37586L4.54072 10.6159C4.46087 10.8554 4.52322 11.1195 4.70177 11.2981C4.88033 11.4766 5.14444 11.539 5.384 11.4591L9.624 10.0458C9.82307 9.97944 9.97928 9.82323 10.0456 9.62416L11.459 5.38416ZM6.22727 9.77259L7.11356 7.11372L9.77242 6.22744L8.88613 8.8863L6.22727 9.77259Z" fill="#292737"/>
<path fill-rule="evenodd" clip-rule="evenodd" d="M7.99984 0.666672C3.94975 0.666672 0.666504 3.94992 0.666504 8.00001C0.666504 12.0501 3.94975 15.3333 7.99984 15.3333C12.0499 15.3333 15.3332 12.0501 15.3332 8.00001C15.3332 3.94992 12.0499 0.666672 7.99984 0.666672ZM1.99984 8.00001C1.99984 4.6863 4.68613 2.00001 7.99984 2.00001C11.3135 2.00001 13.9998 4.6863 13.9998 8.00001C13.9998 11.3137 11.3135 14 7.99984 14C4.68613 14 1.99984 11.3137 1.99984 8.00001Z" fill="#292737"/>
</g>
<defs>
<clipPath id="clip0_1741_61991">
<rect width="16" height="16" fill="white"/>
</clipPath>
</defs>
</svg>
