<svg width="16" height="16" viewBox="0 0 16 16" fill="none" xmlns="http://www.w3.org/2000/svg">
<g clip-path="url(#clip0_1741_62099)">
<path fill-rule="evenodd" clip-rule="evenodd" d="M6.8294 5.07381C6.62304 4.95645 6.36983 4.95769 6.16463 5.07706C5.95942 5.19643 5.83317 5.41592 5.83317 5.65332V10.0133C5.83317 10.2507 5.95942 10.4702 6.16463 10.5896C6.36983 10.709 6.62304 10.7102 6.8294 10.5928L10.6627 8.41283C10.8711 8.29432 10.9998 8.07305 10.9998 7.83332C10.9998 7.59359 10.8711 7.37232 10.6627 7.25381L6.8294 5.07381ZM8.98459 7.83332L7.1665 8.86726V6.79938L8.98459 7.83332Z" fill="#292737"/>
<path fill-rule="evenodd" clip-rule="evenodd" d="M7.9998 2L7.94663 2.00008C7.91224 2.00015 7.86185 2.0003 7.79744 2.00061C7.66863 2.00121 7.48364 2.00242 7.25818 2.00483C6.80752 2.00965 6.19391 2.0193 5.54342 2.03863C4.89401 2.05793 4.20249 2.08702 3.59765 2.13114C3.01144 2.1739 2.45008 2.23415 2.09432 2.3293L2.08507 2.33185C1.65835 2.45257 1.27104 2.68378 0.962263 3.0021C0.65349 3.32042 0.434189 3.71459 0.32651 4.1448C0.322903 4.15921 0.319779 4.17373 0.317142 4.18835C0.10027 5.39096 -0.00592669 6.6109 -0.00011718 7.83289C-0.00761747 9.06408 0.0985878 10.2933 0.317147 11.505C0.321053 11.5267 0.326028 11.5481 0.332054 11.5693C0.450765 11.9861 0.674979 12.3653 0.983033 12.6702C1.29109 12.975 1.67257 13.1953 2.09062 13.3097L2.09432 13.3107C2.45008 13.4058 3.01144 13.4661 3.59765 13.5089C4.20249 13.553 4.89401 13.5821 5.54342 13.6014C6.19391 13.6207 6.80752 13.6303 7.25818 13.6352C7.48364 13.6376 7.66863 13.6388 7.79744 13.6394C7.86185 13.6397 7.91224 13.6398 7.94663 13.6399L7.9996 13.64L8.05316 13.6399C8.08755 13.6398 8.13793 13.6397 8.20234 13.6394C8.33115 13.6388 8.51615 13.6376 8.74161 13.6352C9.19226 13.6303 9.80588 13.6207 10.4564 13.6014C11.1058 13.5821 11.7973 13.553 12.4021 13.5089C12.9883 13.4661 13.5497 13.4058 13.9055 13.3107L13.9147 13.3082C14.3414 13.1874 14.7288 12.9562 15.0375 12.6379C15.3463 12.3196 15.5656 11.9254 15.6733 11.4952C15.6769 11.4808 15.68 11.4663 15.6826 11.4516C15.8979 10.2579 16.0041 9.04715 15.9999 7.83422C16.0074 6.60288 15.9012 5.37347 15.6826 4.16166L15.0266 4.28L15.6733 4.11813C15.5656 3.68792 15.3463 3.29375 15.0375 2.97543C14.7288 2.65711 14.3414 2.42591 13.9147 2.30518C13.907 2.30299 13.8992 2.30094 13.8914 2.29903C13.5409 2.21345 12.9844 2.15865 12.3979 2.1196C11.7943 2.0794 11.1037 2.05285 10.4546 2.03525C9.80463 2.01761 9.1914 2.00881 8.74099 2.00441C8.51566 2.00221 8.33078 2.0011 8.20207 2.00055C8.13771 2.00028 8.08738 2.00014 8.05303 2.00007L7.9998 2ZM7.99989 2.66667L7.99991 3.33333L8.05034 3.3334L8.19636 3.33387C8.32296 3.33442 8.50538 3.3355 8.72796 3.33768C9.17338 3.34203 9.77849 3.35072 10.4185 3.36809C11.0594 3.38548 11.7305 3.41144 12.3093 3.44998C12.895 3.48899 13.3365 3.53813 13.5632 3.59145C13.7596 3.64915 13.9378 3.75672 14.0805 3.90378C14.2212 4.04889 14.3225 4.22747 14.3748 4.42251C14.5761 5.54672 14.6737 6.68705 14.6666 7.82915L14.6666 7.83573C14.6706 8.96062 14.573 10.0836 14.3748 11.1908C14.3225 11.3859 14.2212 11.5645 14.0805 11.7096C13.9362 11.8583 13.7555 11.9667 13.5563 12.0239C13.3371 12.0816 12.8972 12.1359 12.3051 12.1791C11.7275 12.2212 11.0573 12.2496 10.4168 12.2686C9.77724 12.2876 9.17252 12.2972 8.72734 12.3019C8.50489 12.3043 8.32259 12.3055 8.19609 12.3061C8.13284 12.3064 8.08356 12.3065 8.05021 12.3066H7.94958C7.91622 12.3065 7.86694 12.3064 7.8037 12.3061C7.6772 12.3055 7.4949 12.3043 7.27244 12.3019C6.82726 12.2972 6.22254 12.2876 5.58303 12.2686C4.94245 12.2496 4.27229 12.2212 3.69464 12.1791C3.10002 12.1357 2.65887 12.0811 2.44065 12.0231C2.24452 11.9691 2.06555 11.8656 1.92094 11.7225C1.78291 11.5859 1.68063 11.4176 1.62288 11.2325C1.42303 10.1121 1.32607 8.97566 1.33321 7.83752L1.33322 7.83004C1.32762 6.69654 1.42527 5.56491 1.62496 4.44917C1.67729 4.25413 1.77856 4.07555 1.91932 3.93044C2.06361 3.78169 2.24433 3.67333 2.44346 3.61613C2.66264 3.5584 3.10257 3.50413 3.69464 3.46094C4.27229 3.41881 4.94245 3.39041 5.58303 3.37137C6.22254 3.35237 6.82726 3.34285 7.27244 3.33809C7.4949 3.33571 7.6772 3.33452 7.8037 3.33393C7.86694 3.33363 7.91622 3.33348 7.94958 3.33341L7.99923 3.33333L7.99989 2.66667Z" fill="#292737"/>
</g>
<defs>
<clipPath id="clip0_1741_62099">
<rect width="16" height="16" fill="white"/>
</clipPath>
</defs>
</svg>
