<svg width="16" height="16" viewBox="0 0 16 16" fill="none" xmlns="http://www.w3.org/2000/svg">
<path fill-rule="evenodd" clip-rule="evenodd" d="M5.99984 4C5.99984 2.89543 6.89527 2 7.99984 2C9.10441 2 9.99984 2.89543 9.99984 4C9.99984 5.10457 9.10441 6 7.99984 6C6.89527 6 5.99984 5.10457 5.99984 4ZM7.99984 3.33333C7.63165 3.33333 7.33317 3.63181 7.33317 4C7.33317 4.36819 7.63165 4.66667 7.99984 4.66667C8.36803 4.66667 8.6665 4.36819 8.6665 4C8.6665 3.63181 8.36803 3.33333 7.99984 3.33333Z" fill="#292737"/>
<path d="M2.6665 8C2.6665 7.63181 2.96498 7.33333 3.33317 7.33333H12.6665C13.0347 7.33333 13.3332 7.63181 13.3332 8C13.3332 8.36819 13.0347 8.66667 12.6665 8.66667H3.33317C2.96498 8.66667 2.6665 8.36819 2.6665 8Z" fill="#292737"/>
<path fill-rule="evenodd" clip-rule="evenodd" d="M7.99984 10C6.89527 10 5.99984 10.8954 5.99984 12C5.99984 13.1046 6.89527 14 7.99984 14C9.10441 14 9.99984 13.1046 9.99984 12C9.99984 10.8954 9.10441 10 7.99984 10ZM7.33317 12C7.33317 11.6318 7.63165 11.3333 7.99984 11.3333C8.36803 11.3333 8.6665 11.6318 8.6665 12C8.6665 12.3682 8.36803 12.6667 7.99984 12.6667C7.63165 12.6667 7.33317 12.3682 7.33317 12Z" fill="#292737"/>
</svg>
