<svg width="16" height="16" viewBox="0 0 16 16" fill="none" xmlns="http://www.w3.org/2000/svg">
<path d="M8.66667 2C7.78261 2 6.93477 2.35119 6.30964 2.97631C5.68452 3.60143 5.33333 4.44928 5.33333 5.33333V11.7239L3.13807 9.5286C2.87772 9.26825 2.45561 9.26825 2.19526 9.5286C1.93491 9.78895 1.93491 10.2111 2.19526 10.4714L5.5286 13.8047C5.78894 14.0651 6.21106 14.0651 6.4714 13.8047L9.80474 10.4714C10.0651 10.2111 10.0651 9.78895 9.80474 9.5286C9.54439 9.26825 9.12228 9.26825 8.86193 9.5286L6.66667 11.7239V5.33333C6.66667 4.8029 6.87738 4.29419 7.25245 3.91912C7.62753 3.54405 8.13623 3.33333 8.66667 3.33333H13.3333C13.7015 3.33333 14 3.03486 14 2.66667C14 2.29848 13.7015 2 13.3333 2H8.66667Z" fill="#292737"/>
</svg>
