<svg width="16" height="16" viewBox="0 0 16 16" fill="none" xmlns="http://www.w3.org/2000/svg">
<g clip-path="url(#clip0_1741_61830)">
<path fill-rule="evenodd" clip-rule="evenodd" d="M1.13807 0.195262C0.877722 -0.0650874 0.455612 -0.0650874 0.195262 0.195262C-0.0650874 0.455612 -0.0650874 0.877722 0.195262 1.13807L3.72021 4.66302L3.33339 5.33405C3.33328 7.56873 2.85529 8.9565 2.41479 9.7641C2.19359 10.1696 1.9782 10.4357 1.82858 10.5936C1.7536 10.6727 1.69468 10.7252 1.6592 10.7548C1.64145 10.7696 1.62955 10.7786 1.62442 10.7825L1.62251 10.7839C1.38352 10.948 1.27776 11.2483 1.36199 11.5265C1.44712 11.8077 1.70627 12 2.00005 12H11.0572L14.8619 15.8047C15.1223 16.0651 15.5444 16.0651 15.8047 15.8047C16.0651 15.5444 16.0651 15.1223 15.8047 14.8619L11.8099 10.8671C11.8065 10.8636 11.8031 10.8602 11.7997 10.8568L4.65507 3.71226C4.6481 3.70497 4.64096 3.69783 4.63366 3.69085L1.13807 0.195262ZM4.66448 5.60729C4.62695 7.88669 4.12348 9.41593 3.58532 10.4026C3.53458 10.4956 3.48366 10.5835 3.43293 10.6667H9.72385L4.66448 5.60729Z" fill="#292737"/>
<path d="M10.2043 1.21415C9.45919 0.814824 8.61958 0.625412 7.77516 0.666147C6.93075 0.706882 6.11326 0.976233 5.41002 1.44543C5.10374 1.64977 5.02111 2.06372 5.22545 2.37C5.4298 2.67627 5.84374 2.75891 6.15002 2.55456C6.65234 2.21942 7.23626 2.02703 7.83941 1.99793C8.44256 1.96884 9.04229 2.10413 9.57453 2.38936C10.1068 2.67459 10.5515 3.09905 10.8613 3.61739C11.1708 4.13518 11.3339 4.72722 11.3334 5.33041C11.3151 6.51608 11.4645 7.69841 11.777 8.84234C11.874 9.19752 12.2406 9.40679 12.5957 9.30977C12.9509 9.21275 13.1602 8.84617 13.0632 8.491C12.7832 7.46596 12.6497 6.40645 12.6666 5.34399L10.2043 1.21415Z" fill="#292737"/>
<path d="M10.2043 1.21415C10.9495 1.61347 11.5721 2.20771 12.0058 2.93339C12.4381 3.6567 12.6664 4.48352 12.6667 5.32606L10.2043 1.21415Z" fill="#292737"/>
<path d="M7.42329 13.6655C7.23855 13.347 6.8306 13.2386 6.51211 13.4233C6.19363 13.6081 6.08521 14.016 6.26996 14.3345C6.44577 14.6376 6.69812 14.8892 7.00173 15.064C7.30535 15.2389 7.64958 15.331 7.99996 15.331C8.35034 15.331 8.69457 15.2389 8.99819 15.064C9.3018 14.8892 9.55415 14.6376 9.72996 14.3345C9.91471 14.016 9.80629 13.6081 9.48781 13.4233C9.16932 13.2386 8.76137 13.347 8.57663 13.6655C8.51802 13.7665 8.43391 13.8504 8.3327 13.9087C8.2315 13.967 8.11675 13.9976 7.99996 13.9976C7.88317 13.9976 7.76842 13.967 7.66722 13.9087C7.56601 13.8504 7.4819 13.7665 7.42329 13.6655Z" fill="#292737"/>
</g>
<defs>
<clipPath id="clip0_1741_61830">
<rect width="16" height="16" fill="white"/>
</clipPath>
</defs>
</svg>
