<svg width="16" height="16" viewBox="0 0 16 16" fill="none" xmlns="http://www.w3.org/2000/svg">
<g clip-path="url(#clip0_1741_62155)">
<path fill-rule="evenodd" clip-rule="evenodd" d="M0.666504 2.78666V13.2133C0.666504 14.3842 1.61566 15.3333 2.7865 15.3333H13.2132C14.384 15.3333 15.3332 14.3842 15.3332 13.2133V2.78666C15.3332 1.61581 14.384 0.666656 13.2132 0.666656H2.7865C1.61566 0.666656 0.666504 1.61581 0.666504 2.78666ZM1.99984 2.78666C1.99984 2.35219 2.35204 1.99999 2.7865 1.99999H3.99984V3.99999H1.99984V2.78666ZM1.99984 5.33332H3.99984V7.33332H1.99984V5.33332ZM13.9998 3.99999V2.78666C13.9998 2.35219 13.6476 1.99999 13.2132 1.99999H11.9998V3.99999H13.9998ZM11.9998 5.33332H13.9998V7.33332H11.9998V5.33332ZM10.6665 1.99999H5.33317V7.33332H10.6665V1.99999ZM13.9998 8.66666V10.6667H11.9998V8.66666H13.9998ZM13.9998 12H11.9998V14H13.2132C13.6476 14 13.9998 13.6478 13.9998 13.2133V12ZM10.6665 8.66666V14H5.33317V8.66666H10.6665ZM1.99984 12V13.2133C1.99984 13.6478 2.35204 14 2.7865 14H3.99984V12H1.99984ZM3.99984 10.6667H1.99984V8.66666H3.99984V10.6667Z" fill="#292737"/>
</g>
<defs>
<clipPath id="clip0_1741_62155">
<rect width="16" height="16" fill="white"/>
</clipPath>
</defs>
</svg>
