<svg width="16" height="16" viewBox="0 0 16 16" fill="none" xmlns="http://www.w3.org/2000/svg">
<path fill-rule="evenodd" clip-rule="evenodd" d="M7.00903 3.57501C5.79609 2.36207 3.82952 2.36207 2.61658 3.57501C1.40363 4.78795 1.40363 6.75453 2.61658 7.96747L3.13638 8.48727C3.14488 8.49577 3.15312 8.50447 3.16111 8.51337L8.00024 13.3525L12.8392 8.51358C12.8472 8.50464 12.8555 8.49587 12.8641 8.48727L13.3839 7.96747C14.5969 6.75453 14.5969 4.78795 13.3839 3.57501C12.171 2.36207 10.2044 2.36207 8.99145 3.57501L8.47165 4.09482C8.2113 4.35517 7.78919 4.35517 7.52884 4.09482L7.00903 3.57501ZM13.8325 9.40446C13.8245 9.4134 13.8162 9.42217 13.8076 9.43077L8.47233 14.766C8.34727 14.8911 8.17764 14.9613 8.00077 14.9613C8.0006 14.9613 8.00095 14.9613 8.00077 14.9613C8.0006 14.9613 7.99989 14.9613 7.99971 14.9613C7.82285 14.9613 7.65322 14.8911 7.52815 14.766L2.19289 9.43077C2.18429 9.42217 2.17597 9.41339 2.16794 9.40446L1.67377 8.91028C-0.0598743 7.17664 -0.0598768 4.36585 1.67377 2.6322C3.40741 0.89856 6.2182 0.89856 7.95184 2.6322L8.00024 2.6806L8.04864 2.6322C9.78228 0.898559 12.5931 0.89856 14.3267 2.6322C16.0604 4.36585 16.0604 7.17664 14.3267 8.91028L13.8325 9.40446Z" fill="#292737"/>
</svg>
