<svg width="16" height="16" viewBox="0 0 16 16" fill="none" xmlns="http://www.w3.org/2000/svg">
<path fill-rule="evenodd" clip-rule="evenodd" d="M4.00016 2C3.63197 2 3.3335 2.29848 3.3335 2.66667V13.3333C3.3335 13.7015 3.63197 14 4.00016 14H10.0002C10.8842 14 11.7321 13.6488 12.3572 13.0237C12.9823 12.3986 13.3335 11.5507 13.3335 10.6667C13.3335 9.78261 12.9823 8.93476 12.3572 8.30964C12.1375 8.08994 11.8903 7.90407 11.6236 7.7554C11.6462 7.73406 11.6685 7.71238 11.6905 7.69036C12.3156 7.06524 12.6668 6.21739 12.6668 5.33333C12.6668 4.44928 12.3156 3.60143 11.6905 2.97631C11.0654 2.35119 10.2176 2 9.3335 2H4.00016ZM9.3335 7.33333C9.86393 7.33333 10.3726 7.12262 10.7477 6.74755C11.1228 6.37247 11.3335 5.86377 11.3335 5.33333C11.3335 4.8029 11.1228 4.29419 10.7477 3.91912C10.3726 3.54405 9.86393 3.33333 9.3335 3.33333H4.66683V7.33333H9.3335ZM4.66683 8.66667V12.6667H10.0002C10.5306 12.6667 11.0393 12.456 11.4144 12.0809C11.7894 11.7058 12.0002 11.1971 12.0002 10.6667C12.0002 10.1362 11.7894 9.62753 11.4144 9.25245C11.0393 8.87738 10.5306 8.66667 10.0002 8.66667H4.66683Z" fill="#292737"/>
</svg>
