<svg width="16" height="16" viewBox="0 0 16 16" fill="none" xmlns="http://www.w3.org/2000/svg">
<path fill-rule="evenodd" clip-rule="evenodd" d="M11.8732 1.43586C11.1472 1.2542 10.3829 1.29989 9.68373 1.56676C8.98453 1.83364 8.38416 2.30881 7.96381 2.92801C7.54808 3.54041 7.32829 4.26447 7.33321 5.00424C6.495 4.94125 5.67504 4.71458 4.92047 4.33478C3.97183 3.8573 3.156 3.15262 2.54564 2.2835L2.00007 2.66664L1.40378 2.36849C1.39848 2.37909 1.39349 2.38979 1.38879 2.40058L1.38682 2.40508L1.37911 2.42303C1.3728 2.43787 1.36421 2.4584 1.3537 2.48436C1.33268 2.53624 1.30391 2.60989 1.27025 2.70299C1.20301 2.88897 1.11579 3.15382 1.03172 3.47888C0.864388 4.1259 0.705207 5.02816 0.750756 6.03024C0.796438 7.03524 1.04902 8.15438 1.71811 9.21084C2.21968 10.0028 2.94112 10.7369 3.94322 11.3553C2.93098 11.8216 1.81777 12.0452 0.693232 12.0005C0.384751 11.9882 0.1082 12.1894 0.0248346 12.4866C-0.0585311 12.7839 0.0730995 13.0995 0.342974 13.2494C3.52732 15.0185 7.10068 15.035 9.89663 13.5468C12.7088 12.05 14.6667 9.06659 14.6667 4.99997L14.6667 4.99777C14.6664 4.88959 14.6612 4.78155 14.6513 4.67395C15.295 3.95968 15.7528 3.0954 15.9811 2.15772L15.3334 1.99997L14.9491 1.45519C14.4768 1.78835 13.9633 2.05769 13.4218 2.25671C12.9816 1.86301 12.4506 1.58032 11.8732 1.43586ZM2.08271 5.9697C2.04958 5.24079 2.14737 4.56329 2.26983 4.02904C2.8649 4.63496 3.5573 5.14135 4.32101 5.52576C5.46606 6.1021 6.73587 6.38631 8.01735 6.35308C8.37869 6.34371 8.66673 6.04809 8.66673 5.68664V5.01997L8.66667 5.01103C8.6603 4.53581 8.80003 4.0701 9.06697 3.67689C9.3339 3.28367 9.71516 2.98192 10.1592 2.81245C10.6032 2.64297 11.0886 2.61396 11.5496 2.72932C12.0107 2.84468 12.4251 3.09885 12.737 3.45746C12.9091 3.65532 13.1812 3.73393 13.4323 3.65832C13.5867 3.61182 13.7395 3.56067 13.8905 3.50497C13.7647 3.66941 13.6271 3.82551 13.4786 3.97197C13.3202 4.12822 13.2501 4.35323 13.2919 4.5718C13.319 4.71331 13.3329 4.85702 13.3334 5.00108C13.333 8.60053 11.6244 11.1167 9.27017 12.3698C7.53807 13.2917 5.42025 13.5489 3.3068 13.0104C4.1562 12.7659 4.9672 12.3876 5.70782 11.8849C5.9081 11.7489 6.01896 11.5151 5.99743 11.274C5.97589 11.0329 5.82536 10.8224 5.60416 10.7241C4.21076 10.1048 3.36026 9.31174 2.84453 8.49743C2.32612 7.67889 2.12037 6.79803 2.08271 5.9697Z" fill="#292737"/>
</svg>
