<svg width="16" height="16" viewBox="0 0 16 16" fill="none" xmlns="http://www.w3.org/2000/svg">
<path d="M4.66667 1.99998C4.66667 1.63179 4.36819 1.33331 4 1.33331C3.63181 1.33331 3.33333 1.63179 3.33333 1.99998V6.66665C3.33333 7.90432 3.825 9.09131 4.70017 9.96648C5.57534 10.8416 6.76232 11.3333 8 11.3333C9.23768 11.3333 10.4247 10.8416 11.2998 9.96648C12.175 9.09131 12.6667 7.90432 12.6667 6.66665V1.99998C12.6667 1.63179 12.3682 1.33331 12 1.33331C11.6318 1.33331 11.3333 1.63179 11.3333 1.99998V6.66665C11.3333 7.5507 10.9821 8.39855 10.357 9.02367C9.7319 9.64879 8.88406 9.99998 8 9.99998C7.11595 9.99998 6.2681 9.64879 5.64298 9.02367C5.01786 8.39855 4.66667 7.5507 4.66667 6.66665V1.99998Z" fill="#292737"/>
<path d="M2.66667 13.3333C2.29848 13.3333 2 13.6318 2 14C2 14.3682 2.29848 14.6666 2.66667 14.6666H13.3333C13.7015 14.6666 14 14.3682 14 14C14 13.6318 13.7015 13.3333 13.3333 13.3333H2.66667Z" fill="#292737"/>
</svg>
