<svg width="16" height="16" viewBox="0 0 16 16" fill="none" xmlns="http://www.w3.org/2000/svg">
<path d="M5.39036 10.882L6.69527 11.7055L8.00017 10.882L9.30508 11.7055L10.61 10.882M6.2603 7.588H6.269M9.74005 7.588H9.74875M8.00019 3.47066C7.239 3.47066 6.52217 3.73006 5.89929 4.18628C5.02065 3.59254 4.59439 3.33725 3.6505 3.53819C1.38084 4.0224 0.495239 6.96641 1.28079 10.1122C2.06722 13.258 3.67399 15.4163 5.94366 14.9321C6.1774 14.8822 6.40361 14.8047 6.61699 14.7015C7.05196 14.8951 7.51651 14.9997 8.00019 14.9997C8.47878 14.9984 8.95115 14.8969 9.38339 14.7024C9.59703 14.8048 9.82317 14.882 10.0567 14.9321C12.3264 15.4155 13.9332 13.258 14.7187 10.1122C15.5051 6.96559 14.6195 4.0224 12.3499 3.53819C11.406 3.33725 10.9797 3.59254 10.1011 4.1871C9.47821 3.73006 8.76226 3.47066 8.00019 3.47066ZM8.00019 3.47066C8.00019 2.46105 8.60304 1.53857 9.55649 1.08729L9.74005 1" stroke="#292737" stroke-width="1.3" stroke-linecap="round" stroke-linejoin="round"/>
</svg>
