<svg width="16" height="16" viewBox="0 0 16 16" fill="none" xmlns="http://www.w3.org/2000/svg">
<g clip-path="url(#clip0_1741_62207)">
<path fill-rule="evenodd" clip-rule="evenodd" d="M5.13791 0.861949C4.87756 0.6016 4.45545 0.6016 4.1951 0.861949C3.93475 1.1223 3.93475 1.54441 4.1951 1.80476L6.39036 4.00002H2.6665C1.56193 4.00002 0.666504 4.89545 0.666504 6.00002V13.3334C0.666504 14.4379 1.56193 15.3334 2.6665 15.3334H13.3332C14.4377 15.3334 15.3332 14.4379 15.3332 13.3334V6.00002C15.3332 4.89545 14.4377 4.00002 13.3332 4.00002H9.60931L11.8046 1.80476C12.0649 1.54441 12.0649 1.1223 11.8046 0.861949C11.5442 0.6016 11.1221 0.6016 10.8618 0.861949L7.99984 3.72388L5.13791 0.861949ZM1.99984 6.00002C1.99984 5.63183 2.29831 5.33335 2.6665 5.33335H13.3332C13.7014 5.33335 13.9998 5.63183 13.9998 6.00002V13.3334C13.9998 13.7015 13.7014 14 13.3332 14H2.6665C2.29831 14 1.99984 13.7015 1.99984 13.3334V6.00002Z" fill="#292737"/>
</g>
<defs>
<clipPath id="clip0_1741_62207">
<rect width="16" height="16" fill="white"/>
</clipPath>
</defs>
</svg>
