<svg width="16" height="16" viewBox="0 0 16 16" fill="none" xmlns="http://www.w3.org/2000/svg">
<path d="M3.3335 1.33334C2.80306 1.33334 2.29436 1.54406 1.91928 1.91913C1.54421 2.2942 1.3335 2.80291 1.3335 3.33334V5.33334C1.3335 5.70153 1.63197 6.00001 2.00016 6.00001C2.36835 6.00001 2.66683 5.70153 2.66683 5.33334V3.33334C2.66683 3.15653 2.73707 2.98696 2.86209 2.86194C2.98712 2.73691 3.15668 2.66668 3.3335 2.66668H5.3335C5.70169 2.66668 6.00016 2.3682 6.00016 2.00001C6.00016 1.63182 5.70169 1.33334 5.3335 1.33334H3.3335Z" fill="#292737"/>
<path d="M10.6668 1.33334C10.2986 1.33334 10.0002 1.63182 10.0002 2.00001C10.0002 2.3682 10.2986 2.66668 10.6668 2.66668H12.6668C12.8436 2.66668 13.0132 2.73691 13.1382 2.86194C13.2633 2.98696 13.3335 3.15653 13.3335 3.33334V5.33334C13.3335 5.70153 13.632 6.00001 14.0002 6.00001C14.3684 6.00001 14.6668 5.70153 14.6668 5.33334V3.33334C14.6668 2.80291 14.4561 2.2942 14.081 1.91913C13.706 1.54406 13.1973 1.33334 12.6668 1.33334H10.6668Z" fill="#292737"/>
<path d="M2.66683 10.6667C2.66683 10.2985 2.36835 10 2.00016 10C1.63197 10 1.3335 10.2985 1.3335 10.6667V12.6667C1.3335 13.1971 1.54421 13.7058 1.91928 14.0809C2.29436 14.456 2.80306 14.6667 3.3335 14.6667H5.3335C5.70169 14.6667 6.00016 14.3682 6.00016 14C6.00016 13.6318 5.70169 13.3333 5.3335 13.3333H3.3335C3.15669 13.3333 2.98712 13.2631 2.86209 13.1381C2.73707 13.0131 2.66683 12.8435 2.66683 12.6667V10.6667Z" fill="#292737"/>
<path d="M14.6668 10.6667C14.6668 10.2985 14.3684 10 14.0002 10C13.632 10 13.3335 10.2985 13.3335 10.6667V12.6667C13.3335 12.8435 13.2633 13.0131 13.1382 13.1381C13.0132 13.2631 12.8436 13.3333 12.6668 13.3333H10.6668C10.2986 13.3333 10.0002 13.6318 10.0002 14C10.0002 14.3682 10.2986 14.6667 10.6668 14.6667H12.6668C13.1973 14.6667 13.706 14.456 14.081 14.0809C14.4561 13.7058 14.6668 13.1971 14.6668 12.6667V10.6667Z" fill="#292737"/>
</svg>
