<svg width="16" height="16" viewBox="0 0 16 16" fill="none" xmlns="http://www.w3.org/2000/svg">
<path d="M6.00016 6.66666C6.00016 6.29847 5.70169 5.99999 5.3335 5.99999C4.96531 5.99999 4.66683 6.29847 4.66683 6.66666C4.66683 7.55071 5.01802 8.39856 5.64314 9.02368C6.26826 9.6488 7.11611 9.99999 8.00016 9.99999C8.88422 9.99999 9.73206 9.6488 10.3572 9.02368C10.9823 8.39856 11.3335 7.55071 11.3335 6.66666C11.3335 6.29847 11.035 5.99999 10.6668 5.99999C10.2986 5.99999 10.0002 6.29847 10.0002 6.66666C10.0002 7.19709 9.78945 7.7058 9.41438 8.08087C9.0393 8.45594 8.5306 8.66666 8.00016 8.66666C7.46973 8.66666 6.96102 8.45594 6.58595 8.08087C6.21088 7.7058 6.00016 7.19709 6.00016 6.66666Z" fill="#292737"/>
<path fill-rule="evenodd" clip-rule="evenodd" d="M3.46683 0.933323C3.59273 0.765453 3.79032 0.666656 4.00016 0.666656H12.0002C12.21 0.666656 12.4076 0.765453 12.5335 0.933323L14.5294 3.59458C14.6156 3.70691 14.6668 3.84747 14.6668 3.99999V13.3333C14.6668 13.8638 14.4561 14.3725 14.081 14.7475C13.706 15.1226 13.1973 15.3333 12.6668 15.3333H3.3335C2.80306 15.3333 2.29435 15.1226 1.91928 14.7475C1.54421 14.3725 1.3335 13.8638 1.3335 13.3333V3.99999C1.3335 3.84748 1.38471 3.70693 1.47087 3.5946L3.46683 0.933323ZM11.6668 1.99999L12.6668 3.33332H3.3335L4.3335 1.99999H11.6668ZM2.66683 13.3333V4.66666H13.3335V13.3333C13.3335 13.5101 13.2633 13.6797 13.1382 13.8047C13.0132 13.9298 12.8436 14 12.6668 14H3.3335C3.15669 14 2.98712 13.9298 2.86209 13.8047C2.73707 13.6797 2.66683 13.5101 2.66683 13.3333Z" fill="#292737"/>
</svg>
