<svg width="16" height="16" viewBox="0 0 16 16" fill="none" xmlns="http://www.w3.org/2000/svg">
<path fill-rule="evenodd" clip-rule="evenodd" d="M3.3335 1.33334C2.80306 1.33334 2.29436 1.54406 1.91928 1.91913C1.54421 2.2942 1.3335 2.80291 1.3335 3.33334V14C1.3335 14.2697 1.49592 14.5127 1.74504 14.6159C1.99416 14.7191 2.2809 14.6621 2.47157 14.4714L4.94297 12H12.6668C13.1973 12 13.706 11.7893 14.081 11.4142C14.4561 11.0392 14.6668 10.5304 14.6668 10V3.33334C14.6668 2.80291 14.4561 2.2942 14.081 1.91913C13.706 1.54406 13.1973 1.33334 12.6668 1.33334H3.3335ZM2.86209 2.86194C2.98712 2.73691 3.15668 2.66668 3.3335 2.66668H12.6668C12.8436 2.66668 13.0132 2.73691 13.1382 2.86194C13.2633 2.98696 13.3335 3.15653 13.3335 3.33334V10C13.3335 10.1768 13.2633 10.3464 13.1382 10.4714C13.0132 10.5964 12.8436 10.6667 12.6668 10.6667H4.66683C4.49002 10.6667 4.32045 10.7369 4.19542 10.8619L2.66683 12.3905V3.33334C2.66683 3.15653 2.73707 2.98696 2.86209 2.86194Z" fill="#292737"/>
</svg>
