<svg width="16" height="16" viewBox="0 0 16 16" fill="none" xmlns="http://www.w3.org/2000/svg">
<g clip-path="url(#clip0_1741_62332)">
<path fill-rule="evenodd" clip-rule="evenodd" d="M7.99984 0.666656C3.94975 0.666656 0.666504 3.9499 0.666504 7.99999C0.666504 12.0501 3.94975 15.3333 7.99984 15.3333C12.0499 15.3333 15.3332 12.0501 15.3332 7.99999C15.3332 3.9499 12.0499 0.666656 7.99984 0.666656ZM1.99984 7.99999C1.99984 4.68628 4.68613 1.99999 7.99984 1.99999C11.3135 1.99999 13.9998 4.68628 13.9998 7.99999C13.9998 11.3137 11.3135 14 7.99984 14C4.68613 14 1.99984 11.3137 1.99984 7.99999ZM11.8394 6.10053C12.079 5.82098 12.0466 5.40011 11.767 5.1605C11.4875 4.92088 11.0666 4.95326 10.827 5.23281L7.26532 9.38811L5.10552 7.49828C4.82842 7.25583 4.40725 7.28391 4.1648 7.561C3.92234 7.83809 3.95042 8.25926 4.22751 8.50172L7.40104 11.2786L11.8394 6.10053Z" fill="#292737"/>
</g>
<defs>
<clipPath id="clip0_1741_62332">
<rect width="16" height="16" fill="white"/>
</clipPath>
</defs>
</svg>
