<svg width="16" height="16" viewBox="0 0 16 16" fill="none" xmlns="http://www.w3.org/2000/svg">
<path fill-rule="evenodd" clip-rule="evenodd" d="M1.74246 2.80709C1.54148 2.65077 1.269 2.62258 1.04027 2.73445C0.811538 2.84632 0.666504 3.07871 0.666504 3.33333V12.6667C0.666504 12.9213 0.811538 13.1537 1.04027 13.2655C1.269 13.3774 1.54148 13.3492 1.74246 13.1929L7.74246 8.52623C7.90486 8.39993 7.99984 8.20572 7.99984 7.99999V12.6667C7.99984 12.9213 8.14487 13.1537 8.3736 13.2655C8.60233 13.3774 8.87481 13.3492 9.0758 13.1929L15.0758 8.52623C15.2382 8.39993 15.3332 8.20572 15.3332 7.99999C15.3332 7.79427 15.2382 7.60006 15.0758 7.47376L9.0758 2.80709C8.87481 2.65077 8.60233 2.62258 8.3736 2.73445C8.14487 2.84632 7.99984 3.07871 7.99984 3.33333V7.99999C7.99984 7.79427 7.90486 7.60006 7.74246 7.47376L1.74246 2.80709ZM6.24729 7.99999L1.99984 11.3036V4.69642L6.24729 7.99999ZM13.5806 7.99999L9.33317 11.3036V4.69642L13.5806 7.99999Z" fill="#292737"/>
</svg>
