<svg width="16" height="16" viewBox="0 0 16 16" fill="none" xmlns="http://www.w3.org/2000/svg">
<g clip-path="url(#clip0_1741_61918)">
<path fill-rule="evenodd" clip-rule="evenodd" d="M4.76843 0.861919C4.89346 0.736894 5.06303 0.666656 5.23984 0.666656H10.7598C10.9366 0.666656 11.1062 0.736894 11.2312 0.861919L15.1379 4.76859C15.2629 4.89361 15.3332 5.06318 15.3332 5.23999V10.76C15.3332 10.9368 15.2629 11.1064 15.1379 11.2314L11.2312 15.1381C11.1062 15.2631 10.9366 15.3333 10.7598 15.3333H5.23984C5.06303 15.3333 4.89346 15.2631 4.76843 15.1381L0.861766 11.2314C0.736742 11.1064 0.666504 10.9368 0.666504 10.76V5.23999C0.666504 5.06318 0.736742 4.89361 0.861766 4.76859L4.76843 0.861919ZM5.51598 1.99999L1.99984 5.51613V10.4838L5.51598 14H10.4837L13.9998 10.4838V5.51613L10.4837 1.99999H5.51598Z" fill="#292737"/>
</g>
<defs>
<clipPath id="clip0_1741_61918">
<rect width="16" height="16" fill="white"/>
</clipPath>
</defs>
</svg>
