<svg width="16" height="16" viewBox="0 0 16 16" fill="none" xmlns="http://www.w3.org/2000/svg">
<path fill-rule="evenodd" clip-rule="evenodd" d="M14.4311 1.4913C14.5806 1.61797 14.6668 1.80402 14.6668 1.99998V10.6667C14.6668 12.1394 13.4729 13.3333 12.0002 13.3333C10.5274 13.3333 9.3335 12.1394 9.3335 10.6667C9.3335 9.19389 10.5274 7.99998 12.0002 7.99998C12.4859 7.99998 12.9413 8.12984 13.3335 8.35674V2.78696L6.66683 3.89807V12C6.66683 13.4727 5.47292 14.6667 4.00016 14.6667C2.5274 14.6667 1.3335 13.4727 1.3335 12C1.3335 10.5272 2.5274 9.33332 4.00016 9.33332C4.48588 9.33332 4.94126 9.46318 5.3335 9.69007V3.33332C5.3335 3.00743 5.5691 2.7293 5.89056 2.67572L13.8906 1.34239C14.0839 1.31017 14.2816 1.36464 14.4311 1.4913ZM13.3335 10.6667C13.3335 9.93027 12.7365 9.33332 12.0002 9.33332C11.2638 9.33332 10.6668 9.93027 10.6668 10.6667C10.6668 11.403 11.2638 12 12.0002 12C12.7365 12 13.3335 11.403 13.3335 10.6667ZM4.00016 10.6667C4.73654 10.6667 5.3335 11.2636 5.3335 12C5.3335 12.7364 4.73654 13.3333 4.00016 13.3333C3.26378 13.3333 2.66683 12.7364 2.66683 12C2.66683 11.2636 3.26378 10.6667 4.00016 10.6667Z" fill="#292737"/>
</svg>
