<svg width="16" height="16" viewBox="0 0 16 16" fill="none" xmlns="http://www.w3.org/2000/svg">
<g clip-path="url(#clip0_1741_62326)">
<circle cx="8" cy="8" r="8" fill="#292737"/>
<path d="M7.92519 4.45264C8.27431 4.45264 8.61017 4.5112 8.93277 4.6283C9.25758 4.74541 9.54704 4.93212 9.80114 5.18844C10.0575 5.44475 10.2596 5.78503 10.4077 6.20927C10.5579 6.6313 10.6342 7.14945 10.6364 7.76372C10.6364 8.34043 10.5712 8.85526 10.4408 9.30823C10.3127 9.75899 10.1282 10.1424 9.88732 10.4583C9.64647 10.7743 9.35591 11.0151 9.01563 11.1809C8.67535 11.3444 8.2953 11.4261 7.87548 11.4261C7.42251 11.4261 7.02257 11.3388 6.67567 11.1643C6.32876 10.9875 6.04925 10.7478 5.83713 10.4451C5.62721 10.1401 5.50016 9.79765 5.45597 9.4176H6.87122C6.92646 9.66508 7.04246 9.85731 7.21923 9.99431C7.396 10.1291 7.61475 10.1965 7.87548 10.1965C8.3174 10.1965 8.65326 10.0043 8.88305 9.61978C9.11285 9.2331 9.22886 8.7039 9.23106 8.03219H9.18466C9.08302 8.23105 8.94603 8.40229 8.77368 8.54592C8.60133 8.68733 8.40357 8.79671 8.1804 8.87404C7.95944 8.95138 7.72412 8.99005 7.47444 8.99005C7.0745 8.99005 6.71765 8.89614 6.40389 8.70832C6.09012 8.52051 5.84265 8.26199 5.66146 7.93276C5.48028 7.60353 5.38968 7.22789 5.38968 6.80586C5.38747 6.35069 5.49243 5.94522 5.70455 5.58948C5.91667 5.23373 6.21276 4.95532 6.59281 4.75425C6.97507 4.55097 7.4192 4.45043 7.92519 4.45264ZM7.93514 5.57954C7.71197 5.57954 7.5131 5.63257 7.33855 5.73863C7.1662 5.84469 7.0292 5.98721 6.92756 6.16618C6.82813 6.34516 6.77952 6.54513 6.78173 6.76609C6.78173 6.98926 6.83034 7.19033 6.92756 7.36931C7.02699 7.54608 7.16178 7.68749 7.33192 7.79355C7.50427 7.8974 7.70092 7.94933 7.92188 7.94933C8.0876 7.94933 8.24117 7.91839 8.38258 7.85652C8.52399 7.79466 8.64663 7.70959 8.75048 7.60132C8.85654 7.49084 8.9394 7.36378 8.99906 7.22016C9.05872 7.07654 9.08855 6.92407 9.08855 6.76277C9.08634 6.54844 9.03552 6.35179 8.93608 6.17281C8.83665 5.99384 8.69966 5.85021 8.5251 5.74194C8.35054 5.63367 8.15389 5.57954 7.93514 5.57954Z" fill="white"/>
</g>
<defs>
<clipPath id="clip0_1741_62326">
<rect width="16" height="16" fill="white"/>
</clipPath>
</defs>
</svg>
