<svg width="16" height="16" viewBox="0 0 16 16" fill="none" xmlns="http://www.w3.org/2000/svg">
<path d="M6.4714 3.13807C6.73175 2.87772 6.73175 2.45561 6.4714 2.19526C6.21106 1.93491 5.78894 1.93491 5.5286 2.19526L2.19526 5.5286C1.93491 5.78894 1.93491 6.21106 2.19526 6.4714L5.5286 9.80474C5.78894 10.0651 6.21106 10.0651 6.4714 9.80474C6.73175 9.54439 6.73175 9.12228 6.4714 8.86193L4.27614 6.66667H10.6667C11.1971 6.66667 11.7058 6.87738 12.0809 7.25245C12.456 7.62753 12.6667 8.13623 12.6667 8.66667V13.3333C12.6667 13.7015 12.9651 14 13.3333 14C13.7015 14 14 13.7015 14 13.3333V8.66667C14 7.78261 13.6488 6.93476 13.0237 6.30964C12.3986 5.68452 11.5507 5.33333 10.6667 5.33333H4.27614L6.4714 3.13807Z" fill="#292737"/>
</svg>
