<svg width="16" height="16" viewBox="0 0 16 16" fill="none" xmlns="http://www.w3.org/2000/svg">
<path d="M6.4714 2.19526C6.21106 1.93491 5.78894 1.93491 5.5286 2.19526L2.19526 5.5286C1.93491 5.78894 1.93491 6.21106 2.19526 6.4714C2.45561 6.73175 2.87772 6.73175 3.13807 6.4714L5.33333 4.27614V10.6667C5.33333 11.5507 5.68452 12.3986 6.30964 13.0237C6.93476 13.6488 7.78261 14 8.66667 14H13.3333C13.7015 14 14 13.7015 14 13.3333C14 12.9651 13.7015 12.6667 13.3333 12.6667H8.66667C8.13623 12.6667 7.62753 12.456 7.25245 12.0809C6.87738 11.7058 6.66667 11.1971 6.66667 10.6667V4.27614L8.86193 6.4714C9.12228 6.73175 9.54439 6.73175 9.80474 6.4714C10.0651 6.21106 10.0651 5.78894 9.80474 5.5286L6.4714 2.19526Z" fill="#292737"/>
</svg>
