<svg width="16" height="16" viewBox="0 0 16 16" fill="none" xmlns="http://www.w3.org/2000/svg">
<path fill-rule="evenodd" clip-rule="evenodd" d="M14 1.33334C14 0.965149 13.7015 0.666672 13.3333 0.666672H4.33333C3.71449 0.666672 3.121 0.912504 2.68342 1.35009C2.24583 1.78767 2 2.38117 2 3.00001V13C2 13.6188 2.24583 14.2123 2.68342 14.6499C3.121 15.0875 3.71449 15.3333 4.33333 15.3333H13.3333C13.7015 15.3333 14 15.0349 14 14.6667V1.33334ZM3.62623 2.2929C3.81376 2.10536 4.06812 2.00001 4.33333 2.00001H12.6667V10.6667H4.33333C3.98411 10.6667 3.64295 10.745 3.33333 10.8918V3.00001C3.33333 2.73479 3.43869 2.48043 3.62623 2.2929ZM3.33333 13C3.33333 13.2652 3.43869 13.5196 3.62623 13.7071C3.81376 13.8946 4.06812 14 4.33333 14H12.6667V12H4.33333C4.06812 12 3.81376 12.1054 3.62623 12.2929C3.43869 12.4804 3.33333 12.7348 3.33333 13Z" fill="#292737"/>
</svg>
