<svg width="16" height="16" viewBox="0 0 16 16" fill="none" xmlns="http://www.w3.org/2000/svg">
<path d="M5.2 6.13334L5.57333 6.41334C5.62533 6.344 5.657 6.26156 5.66478 6.17525C5.67256 6.08893 5.65616 6.00215 5.6174 5.92464C5.57864 5.84712 5.51906 5.78193 5.44534 5.73637C5.37162 5.6908 5.28667 5.66667 5.2 5.66667V6.13334ZM3.8 8L3.42667 7.72C3.37467 7.78933 3.343 7.87178 3.33522 7.95809C3.32744 8.04441 3.34384 8.13119 3.3826 8.2087C3.42136 8.28622 3.48094 8.35141 3.55466 8.39697C3.62838 8.44254 3.71333 8.46667 3.8 8.46667V8ZM2.86667 6.6H5.2V5.66667H2.86667V6.6ZM4.82667 5.85334L3.42667 7.72L4.17333 8.28L5.57333 6.41334L4.82667 5.85334ZM3.8 8.46667H4.26667V7.53334H3.8V8.46667ZM4.26667 9.4H2.86667V10.3333H4.26667V9.4ZM4.73333 8.93333C4.73333 9.0571 4.68417 9.1758 4.59665 9.26332C4.50913 9.35083 4.39043 9.4 4.26667 9.4V10.3333C4.63797 10.3333 4.99407 10.1858 5.25662 9.92328C5.51917 9.66073 5.66667 9.30464 5.66667 8.93333H4.73333ZM4.26667 8.46667C4.39043 8.46667 4.50913 8.51583 4.59665 8.60335C4.68417 8.69087 4.73333 8.80957 4.73333 8.93333H5.66667C5.66667 8.56203 5.51917 8.20594 5.25662 7.94339C4.99407 7.68084 4.63797 7.53334 4.26667 7.53334V8.46667ZM8.46667 5.66667H8V6.6H8.46667V5.66667ZM6.6 7.06667V8H7.53333V7.06667H6.6ZM6.6 8V8.93333H7.53333V8H6.6ZM8 7.53334H7.06667V8.46667H8V7.53334ZM9.4 8.93333C9.4 8.56203 9.2525 8.20594 8.98995 7.94339C8.7274 7.68084 8.3713 7.53334 8 7.53334V8.46667C8.12377 8.46667 8.24247 8.51583 8.32998 8.60335C8.4175 8.69087 8.46667 8.80957 8.46667 8.93333H9.4ZM8 10.3333C8.3713 10.3333 8.7274 10.1858 8.98995 9.92328C9.2525 9.66073 9.4 9.30464 9.4 8.93333H8.46667C8.46667 9.0571 8.4175 9.1758 8.32998 9.26332C8.24247 9.35083 8.12377 9.4 8 9.4V10.3333ZM8 9.4C7.87623 9.4 7.75753 9.35083 7.67002 9.26332C7.5825 9.1758 7.53333 9.0571 7.53333 8.93333H6.6C6.6 9.30464 6.7475 9.66073 7.01005 9.92328C7.2726 10.1858 7.6287 10.3333 8 10.3333V9.4ZM8 5.66667C7.6287 5.66667 7.2726 5.81417 7.01005 6.07672C6.7475 6.33927 6.6 6.69537 6.6 7.06667H7.53333C7.53333 6.9429 7.5825 6.8242 7.67002 6.73669C7.75753 6.64917 7.87623 6.6 8 6.6V5.66667ZM12.2 7.06667V8.93333H13.1333V7.06667H12.2ZM11.2667 8.93333V7.06667H10.3333V8.93333H11.2667ZM11.7333 9.4C11.6096 9.4 11.4909 9.35083 11.4033 9.26332C11.3158 9.1758 11.2667 9.0571 11.2667 8.93333H10.3333C10.3333 9.30464 10.4808 9.66073 10.7434 9.92328C11.0059 10.1858 11.362 10.3333 11.7333 10.3333V9.4ZM12.2 8.93333C12.2 9.0571 12.1508 9.1758 12.0633 9.26332C11.9758 9.35083 11.8571 9.4 11.7333 9.4V10.3333C12.1046 10.3333 12.4607 10.1858 12.7233 9.92328C12.9858 9.66073 13.1333 9.30464 13.1333 8.93333H12.2ZM11.7333 6.6C11.8571 6.6 11.9758 6.64917 12.0633 6.73669C12.1508 6.8242 12.2 6.9429 12.2 7.06667H13.1333C13.1333 6.69537 12.9858 6.33927 12.7233 6.07672C12.4607 5.81417 12.1046 5.66667 11.7333 5.66667V6.6ZM11.7333 5.66667C11.362 5.66667 11.0059 5.81417 10.7434 6.07672C10.4808 6.33927 10.3333 6.69537 10.3333 7.06667H11.2667C11.2667 6.9429 11.3158 6.8242 11.4033 6.73669C11.4909 6.64917 11.6096 6.6 11.7333 6.6V5.66667ZM8 14.0667C6.39102 14.0667 4.84794 13.4275 3.71022 12.2898C2.5725 11.1521 1.93333 9.60898 1.93333 8H1C1 9.85652 1.7375 11.637 3.05025 12.9497C4.36301 14.2625 6.14348 15 8 15V14.0667ZM14.0667 8C14.0667 8.79669 13.9097 9.58557 13.6049 10.3216C13.3 11.0577 12.8531 11.7264 12.2898 12.2898C11.7264 12.8531 11.0577 13.3 10.3216 13.6049C9.58557 13.9097 8.79669 14.0667 8 14.0667V15C9.85652 15 11.637 14.2625 12.9497 12.9497C14.2625 11.637 15 9.85652 15 8H14.0667ZM8 1C6.14348 1 4.36301 1.7375 3.05025 3.05026C1.7375 4.36301 1 6.14349 1 8H1.93333C1.93333 6.39102 2.5725 4.84794 3.71022 3.71022C4.84794 2.5725 6.39102 1.93334 8 1.93334V1ZM13.6 3.8C13.7238 3.8 13.8425 3.84917 13.93 3.93669C14.0175 4.0242 14.0667 4.1429 14.0667 4.26667H15C15 3.89537 14.8525 3.53927 14.5899 3.27672C14.3274 3.01417 13.9713 2.86667 13.6 2.86667V3.8ZM13.6 4.73334C13.4762 4.73334 13.3575 4.68417 13.27 4.59665C13.1825 4.50914 13.1333 4.39044 13.1333 4.26667H12.2C12.2 4.63797 12.3475 4.99407 12.6101 5.25662C12.8726 5.51917 13.2287 5.66667 13.6 5.66667V4.73334ZM13.1333 4.26667C13.1333 4.15187 13.1744 4.04734 13.2435 3.9652L12.5313 3.36227C12.3251 3.60587 12.2 3.92227 12.2 4.26667H13.1333ZM13.2435 3.9652C13.2872 3.9133 13.3418 3.87161 13.4034 3.84307C13.465 3.81453 13.5321 3.79983 13.6 3.8V2.86667C13.1707 2.86667 12.7871 3.05987 12.5313 3.36227L13.2435 3.9652ZM8 1.93334C9.80507 1.93334 11.4263 2.72107 12.5379 3.9736L13.236 3.35387C12.5799 2.61293 11.7737 2.0199 10.871 1.61409C9.96834 1.20828 8.98971 0.998962 8 1V1.93334ZM13.4637 5.35867C13.8501 6.1576 14.0667 7.05267 14.0667 8H15C15 6.908 14.7499 5.8748 14.3037 4.95267L13.4637 5.35867ZM14.0667 4.26667C14.0668 4.36575 14.0354 4.46229 13.977 4.54233C13.9186 4.62237 13.8363 4.68175 13.7419 4.71187L14.0256 5.6004C14.3085 5.51014 14.5553 5.33229 14.7304 5.09255C14.9056 4.8528 15 4.56358 15 4.26667H14.0667ZM13.7419 4.71187C13.696 4.7263 13.6481 4.73354 13.6 4.73334V5.66667C13.7444 5.66697 13.888 5.644 14.0256 5.6004L13.7419 4.71187Z" fill="#292737"/>
</svg>
