<svg width="16" height="16" viewBox="0 0 16 16" fill="none" xmlns="http://www.w3.org/2000/svg">
<g clip-path="url(#clip0_1741_61926)">
<path fill-rule="evenodd" clip-rule="evenodd" d="M8.00016 2.08334C4.73248 2.08334 2.0835 4.73233 2.0835 8.00001C2.0835 11.2677 4.73248 13.9167 8.00016 13.9167C11.2678 13.9167 13.9168 11.2677 13.9168 8.00001C13.9168 4.73233 11.2678 2.08334 8.00016 2.08334ZM0.583496 8.00001C0.583496 3.9039 3.90405 0.583344 8.00016 0.583344C12.0963 0.583344 15.4168 3.9039 15.4168 8.00001C15.4168 12.0961 12.0963 15.4167 8.00016 15.4167C3.90405 15.4167 0.583496 12.0961 0.583496 8.00001ZM6.66683 5.25001C7.08104 5.25001 7.41683 5.5858 7.41683 6.00001V10C7.41683 10.4142 7.08104 10.75 6.66683 10.75C6.25262 10.75 5.91683 10.4142 5.91683 10V6.00001C5.91683 5.5858 6.25262 5.25001 6.66683 5.25001ZM10.0835 6.00001C10.0835 5.5858 9.74771 5.25001 9.3335 5.25001C8.91928 5.25001 8.5835 5.5858 8.5835 6.00001V10C8.5835 10.4142 8.91928 10.75 9.3335 10.75C9.74771 10.75 10.0835 10.4142 10.0835 10V6.00001Z" fill="#292737"/>
</g>
<defs>
<clipPath id="clip0_1741_61926">
<rect width="16" height="16" fill="white"/>
</clipPath>
</defs>
</svg>
