<svg width="16" height="16" viewBox="0 0 16 16" fill="none" xmlns="http://www.w3.org/2000/svg">
<g clip-path="url(#clip0_1741_61953)">
<path fill-rule="evenodd" clip-rule="evenodd" d="M1.13807 0.195262C0.877722 -0.0650874 0.455612 -0.0650874 0.195262 0.195262C-0.0650874 0.455612 -0.0650874 0.877722 0.195262 1.13807L1.74073 2.68354C1.30596 2.74037 0.899216 2.93902 0.585786 3.25245C0.210714 3.62753 9.93411e-09 4.13623 9.93411e-09 4.66667V11.3333C9.93411e-09 11.8638 0.210714 12.3725 0.585786 12.7475C0.960859 13.1226 1.46957 13.3333 2 13.3333H9.33333C9.86377 13.3333 10.3725 13.1226 10.7475 12.7475C10.9305 12.5646 11.0743 12.3499 11.1736 12.1165L14.8619 15.8047C15.1223 16.0651 15.5444 16.0651 15.8047 15.8047C16.0651 15.5444 16.0651 15.1223 15.8047 14.8619L1.13807 0.195262ZM10 10.9428L3.05719 4H2C1.82319 4 1.65362 4.07024 1.5286 4.19526C1.40357 4.32029 1.33333 4.48986 1.33333 4.66667V11.3333C1.33333 11.5101 1.40357 11.6797 1.5286 11.8047C1.65362 11.9298 1.82319 12 2 12H9.33333C9.51014 12 9.67971 11.9298 9.80474 11.8047C9.92976 11.6797 10 11.5101 10 11.3333V10.9428Z" fill="#292737"/>
<path d="M7.10667 4H9.33333C9.51015 4 9.67971 4.07024 9.80474 4.19526C9.92976 4.32029 10 4.48986 10 4.66667V6.89333C10 7.07014 10.0702 7.23971 10.1953 7.36474L10.8619 8.0314C11.0934 8.26291 11.4588 8.29205 11.7241 8.10017L14.6667 5.97168V11.3333C14.6667 11.7015 14.9651 12 15.3333 12C15.7015 12 16 11.7015 16 11.3333V4.66667C16 4.41623 15.8596 4.18691 15.6366 4.07298C15.4136 3.95905 15.1455 3.97972 14.9426 4.1265L11.403 6.68684L11.3333 6.61719V4.66667C11.3333 4.13623 11.1226 3.62753 10.7475 3.25245C10.3725 2.87738 9.86377 2.66667 9.33333 2.66667H7.10667C6.73848 2.66667 6.44 2.96514 6.44 3.33333C6.44 3.70152 6.73848 4 7.10667 4Z" fill="#292737"/>
</g>
<defs>
<clipPath id="clip0_1741_61953">
<rect width="16" height="16" fill="white"/>
</clipPath>
</defs>
</svg>
