<svg width="16" height="16" viewBox="0 0 16 16" fill="none" xmlns="http://www.w3.org/2000/svg">
<path fill-rule="evenodd" clip-rule="evenodd" d="M3.78087 10.6667C3.699 10.7328 3.62031 10.8035 3.54518 10.8787C2.98257 11.4413 2.6665 12.2043 2.6665 13C2.6665 13.7956 2.98257 14.5587 3.54518 15.1213C4.10779 15.6839 4.87085 16 5.6665 16C6.46215 16 7.22521 15.6839 7.78782 15.1213C8.35043 14.5587 8.6665 13.7956 8.6665 13V10.8278C8.82949 10.9367 9.00315 11.0296 9.18512 11.105C9.5491 11.2557 9.93921 11.3333 10.3332 11.3333C10.7271 11.3333 11.1172 11.2557 11.4812 11.105C11.8452 10.9542 12.1759 10.7332 12.4545 10.4546C12.7331 10.1761 12.954 9.84535 13.1048 9.48137C13.2556 9.1174 13.3332 8.72729 13.3332 8.33332C13.3332 7.93936 13.2556 7.54925 13.1048 7.18527C12.954 6.8213 12.7331 6.49058 12.4545 6.212C12.3796 6.13708 12.3009 6.06633 12.2188 5.99999C12.3009 5.93365 12.3796 5.8629 12.4545 5.78798C12.7331 5.5094 12.954 5.17868 13.1048 4.81471C13.2556 4.45073 13.3332 4.06062 13.3332 3.66666C13.3332 3.27269 13.2556 2.88258 13.1048 2.51861C12.954 2.15463 12.7331 1.82391 12.4545 1.54534C12.1759 1.26676 11.8452 1.04578 11.4812 0.895018C11.1172 0.744254 10.7271 0.666656 10.3332 0.666656H5.6665C4.87085 0.666656 4.10779 0.982727 3.54518 1.54534C2.98257 2.10795 2.6665 2.87101 2.6665 3.66666C2.6665 4.46231 2.98257 5.22537 3.54518 5.78798C3.62031 5.8631 3.699 5.93383 3.78087 5.99999C3.699 6.06616 3.62031 6.13688 3.54518 6.212C2.98257 6.77461 2.6665 7.53767 2.6665 8.33332C2.6665 9.12897 2.98257 9.89203 3.54518 10.4546C3.62031 10.5298 3.699 10.6005 3.78087 10.6667ZM5.6665 1.99999C5.22448 1.99999 4.80055 2.17558 4.48799 2.48815C4.17543 2.80071 3.99984 3.22463 3.99984 3.66666C3.99984 4.10868 4.17543 4.53261 4.48799 4.84517C4.80055 5.15773 5.22448 5.33332 5.6665 5.33332H7.33317V1.99999H5.6665ZM7.33317 11.3333H5.6665C5.22448 11.3333 4.80055 11.5089 4.48799 11.8215C4.17543 12.134 3.99984 12.558 3.99984 13C3.99984 13.442 4.17543 13.8659 4.48799 14.1785C4.80055 14.4911 5.22448 14.6667 5.6665 14.6667C6.10853 14.6667 6.53245 14.4911 6.84502 14.1785C7.15758 13.8659 7.33317 13.442 7.33317 13V11.3333ZM5.6665 6.66666C5.22448 6.66666 4.80055 6.84225 4.48799 7.15481C4.17543 7.46737 3.99984 7.8913 3.99984 8.33332C3.99984 8.77535 4.17543 9.19927 4.48799 9.51183C4.80055 9.8244 5.22448 9.99999 5.6665 9.99999H7.33317V6.66666H5.6665ZM8.6665 8.33332C8.6665 8.55219 8.70961 8.76892 8.79337 8.97113C8.87713 9.17334 8.9999 9.35707 9.15466 9.51183C9.30942 9.6666 9.49316 9.78936 9.69537 9.87312C9.89757 9.95688 10.1143 9.99999 10.3332 9.99999C10.552 9.99999 10.7688 9.95688 10.971 9.87312C11.1732 9.78936 11.3569 9.6666 11.5117 9.51183C11.6664 9.35707 11.7892 9.17334 11.873 8.97113C11.9567 8.76892 11.9998 8.55219 11.9998 8.33332C11.9998 8.11445 11.9567 7.89773 11.873 7.69552C11.7892 7.49331 11.6664 7.30958 11.5117 7.15481C11.3569 7.00005 11.1732 6.87728 10.971 6.79352C10.7688 6.70977 10.552 6.66666 10.3332 6.66666C10.1143 6.66666 9.89757 6.70977 9.69537 6.79352C9.49316 6.87728 9.30942 7.00005 9.15466 7.15481C8.9999 7.30958 8.87713 7.49331 8.79337 7.69552C8.70961 7.89773 8.6665 8.11445 8.6665 8.33332ZM10.3332 5.33332C10.552 5.33332 10.7688 5.29021 10.971 5.20646C11.1732 5.1227 11.3569 4.99993 11.5117 4.84517C11.6664 4.6904 11.7892 4.50667 11.873 4.30446C11.9567 4.10225 11.9998 3.88553 11.9998 3.66666C11.9998 3.44779 11.9567 3.23106 11.873 3.02885C11.7892 2.82664 11.6664 2.64291 11.5117 2.48815C11.3569 2.33338 11.1732 2.21062 10.971 2.12686C10.7688 2.0431 10.552 1.99999 10.3332 1.99999H8.6665V5.33332H10.3332Z" fill="#292737"/>
</svg>
