<svg width="16" height="16" viewBox="0 0 16 16" fill="none" xmlns="http://www.w3.org/2000/svg">
<g clip-path="url(#clip0_1741_62305)">
<circle cx="8" cy="8" r="8" fill="#292737"/>
<path d="M5.61072 11.3333V10.2992L8.02692 8.06201C8.23241 7.86315 8.40476 7.68417 8.54396 7.52508C8.68537 7.36599 8.79254 7.21021 8.86546 7.05775C8.93837 6.90308 8.97483 6.73625 8.97483 6.55728C8.97483 6.35841 8.92954 6.18717 8.83894 6.04355C8.74835 5.89771 8.62461 5.78613 8.46773 5.70879C8.31085 5.62925 8.13298 5.58947 7.93411 5.58947C7.72641 5.58947 7.54522 5.63146 7.39055 5.71542C7.23588 5.79939 7.11656 5.91981 7.0326 6.07669C6.94863 6.23357 6.90665 6.42028 6.90665 6.63682H5.54443C5.54443 6.19269 5.64497 5.80712 5.84604 5.4801C6.04712 5.15308 6.32884 4.90008 6.69121 4.7211C7.05359 4.54213 7.4712 4.45264 7.94406 4.45264C8.43017 4.45264 8.8533 4.53881 9.21347 4.71116C9.57584 4.8813 9.85757 5.11773 10.0586 5.42044C10.2597 5.72315 10.3602 6.07006 10.3602 6.46116C10.3602 6.71747 10.3094 6.97047 10.2078 7.22016C10.1084 7.46984 9.93048 7.74714 9.67417 8.05207C9.41786 8.35478 9.05659 8.71826 8.59036 9.1425L7.59936 10.1136V10.16H10.4497V11.3333H5.61072Z" fill="white"/>
</g>
<defs>
<clipPath id="clip0_1741_62305">
<rect width="16" height="16" fill="white"/>
</clipPath>
</defs>
</svg>
