<svg width="16" height="16" viewBox="0 0 16 16" fill="none" xmlns="http://www.w3.org/2000/svg">
<g clip-path="url(#clip0_1741_62005)">
<path fill-rule="evenodd" clip-rule="evenodd" d="M3.33317 1.33332C3.33317 0.965133 3.63165 0.666656 3.99984 0.666656H11.9998C12.368 0.666656 12.6665 0.965133 12.6665 1.33332V5.33332H13.3332C13.8636 5.33332 14.3723 5.54404 14.7474 5.91911C15.1225 6.29418 15.3332 6.80289 15.3332 7.33332V10.6667C15.3332 11.1971 15.1225 11.7058 14.7474 12.0809C14.3723 12.4559 13.8636 12.6667 13.3332 12.6667H12.6665V14.6667C12.6665 15.0348 12.368 15.3333 11.9998 15.3333H3.99984C3.63165 15.3333 3.33317 15.0348 3.33317 14.6667V12.6667H2.6665C2.13607 12.6667 1.62736 12.4559 1.25229 12.0809C0.877218 11.7058 0.666504 11.1971 0.666504 10.6667V7.33332C0.666504 6.80289 0.877218 6.29418 1.25229 5.91911C1.62736 5.54404 2.13607 5.33332 2.6665 5.33332H3.33317V1.33332ZM4.6665 14H11.3332V9.99999H4.6665V14ZM12.6665 11.3333V9.33332C12.6665 8.96513 12.368 8.66666 11.9998 8.66666H3.99984C3.63165 8.66666 3.33317 8.96513 3.33317 9.33332V11.3333H2.6665C2.48969 11.3333 2.32012 11.2631 2.1951 11.1381C2.07008 11.013 1.99984 10.8435 1.99984 10.6667V7.33332C1.99984 7.15651 2.07008 6.98694 2.1951 6.86192C2.32012 6.73689 2.48969 6.66666 2.6665 6.66666H13.3332C13.51 6.66666 13.6796 6.73689 13.8046 6.86192C13.9296 6.98694 13.9998 7.15651 13.9998 7.33332V10.6667C13.9998 10.8435 13.9296 11.013 13.8046 11.1381C13.6796 11.2631 13.51 11.3333 13.3332 11.3333H12.6665ZM11.3332 1.99999V5.33332H4.6665V1.99999H11.3332Z" fill="#292737"/>
</g>
<defs>
<clipPath id="clip0_1741_62005">
<rect width="16" height="16" fill="white"/>
</clipPath>
</defs>
</svg>
