<svg width="16" height="16" viewBox="0 0 16 16" fill="none" xmlns="http://www.w3.org/2000/svg">
<g clip-path="url(#clip0_1741_62127)">
<path d="M4.93321 8.79999C5.22683 8.57977 5.643 8.6384 5.86445 8.93055L5.86754 8.93449C5.87151 8.93951 5.87905 8.94889 5.89008 8.96203C5.91218 8.98837 5.948 9.02944 5.99683 9.08039C6.09503 9.18285 6.24259 9.32187 6.43366 9.46083C6.81837 9.74062 7.35023 9.99999 7.99988 9.99999C8.64952 9.99999 9.18139 9.74062 9.5661 9.46083C9.75717 9.32187 9.90473 9.18285 10.0029 9.08039C10.0518 9.02944 10.0876 8.98837 10.1097 8.96203C10.1207 8.94889 10.1282 8.93951 10.1322 8.93449L10.1353 8.93054C10.3568 8.6384 10.7729 8.57977 11.0665 8.79999C11.3611 9.0209 11.4208 9.43877 11.1999 9.73332L10.6665 9.33332C11.1999 9.73332 11.2 9.7331 11.1999 9.73332L11.1992 9.73422L11.1984 9.73524L11.1966 9.73765L11.1918 9.74393L11.1776 9.7621C11.1661 9.77662 11.1505 9.79588 11.131 9.81919C11.0919 9.86578 11.0365 9.92887 10.9656 10.0029C10.8242 10.1505 10.6176 10.3448 10.3503 10.5391C9.81837 10.926 9.0169 11.3333 7.99988 11.3333C6.98286 11.3333 6.18139 10.926 5.64943 10.5391C5.38217 10.3448 5.17556 10.1505 5.03418 10.0029C4.96321 9.92887 4.90788 9.86578 4.86878 9.81919C4.84921 9.79588 4.83364 9.77662 4.82215 9.7621L4.80795 9.74393L4.80315 9.73765L4.80132 9.73524L4.80055 9.73422C4.80039 9.734 4.79988 9.73332 5.33321 9.33332L4.79988 9.73332C4.57896 9.43877 4.63866 9.0209 4.93321 8.79999Z" fill="#292737"/>
<path d="M5.33317 5.99999C5.33317 5.6318 5.63165 5.33332 5.99984 5.33332H6.0065C6.37469 5.33332 6.67317 5.6318 6.67317 5.99999C6.67317 6.36818 6.37469 6.66666 6.0065 6.66666H5.99984C5.63165 6.66666 5.33317 6.36818 5.33317 5.99999Z" fill="#292737"/>
<path d="M9.99984 5.33332C9.63165 5.33332 9.33317 5.6318 9.33317 5.99999C9.33317 6.36818 9.63165 6.66666 9.99984 6.66666H10.0065C10.3747 6.66666 10.6732 6.36818 10.6732 5.99999C10.6732 5.6318 10.3747 5.33332 10.0065 5.33332H9.99984Z" fill="#292737"/>
<path fill-rule="evenodd" clip-rule="evenodd" d="M7.99984 0.666656C3.94975 0.666656 0.666504 3.9499 0.666504 7.99999C0.666504 12.0501 3.94975 15.3333 7.99984 15.3333C12.0499 15.3333 15.3332 12.0501 15.3332 7.99999C15.3332 3.9499 12.0499 0.666656 7.99984 0.666656ZM1.99984 7.99999C1.99984 4.68628 4.68613 1.99999 7.99984 1.99999C11.3135 1.99999 13.9998 4.68628 13.9998 7.99999C13.9998 11.3137 11.3135 14 7.99984 14C4.68613 14 1.99984 11.3137 1.99984 7.99999Z" fill="#292737"/>
</g>
<defs>
<clipPath id="clip0_1741_62127">
<rect width="16" height="16" fill="white"/>
</clipPath>
</defs>
</svg>
