<svg width="16" height="16" viewBox="0 0 16 16" fill="none" xmlns="http://www.w3.org/2000/svg">
<g clip-path="url(#clip0_1741_62314)">
<circle cx="8" cy="8" r="8" fill="#292737"/>
<path d="M8.0214 11.4261C7.55296 11.4261 7.13535 11.3399 6.76855 11.1676C6.40397 10.9953 6.11451 10.7577 5.90018 10.455C5.68585 10.1523 5.57427 9.80538 5.56543 9.41429H6.95748C6.97294 9.67723 7.08342 9.89045 7.28891 10.054C7.49441 10.2175 7.73857 10.2992 8.0214 10.2992C8.24677 10.2992 8.44564 10.2495 8.61799 10.1501C8.79254 10.0484 8.92843 9.90813 9.02566 9.72915C9.12509 9.54797 9.1748 9.34026 9.1748 9.10605C9.1748 8.86741 9.12398 8.6575 9.02234 8.47631C8.92291 8.29513 8.78481 8.15371 8.60804 8.05207C8.43128 7.95043 8.2291 7.8985 8.00151 7.89629C7.80265 7.89629 7.60931 7.93717 7.42149 8.01893C7.23588 8.10068 7.09116 8.21227 6.9873 8.35368L5.71126 8.12499L6.03276 4.54544H10.1824V5.71874H7.216L7.04033 7.41902H7.08011C7.19943 7.25109 7.37951 7.11189 7.62035 7.00141C7.8612 6.89093 8.13077 6.83569 8.42907 6.83569C8.83784 6.83569 9.20242 6.9318 9.52282 7.12404C9.84321 7.31627 10.0962 7.58032 10.2818 7.91618C10.4674 8.24983 10.5591 8.6343 10.5569 9.06959C10.5591 9.52697 10.4531 9.93354 10.2387 10.2893C10.0266 10.6428 9.72941 10.9212 9.34715 11.1245C8.9671 11.3256 8.52518 11.4261 8.0214 11.4261Z" fill="white"/>
</g>
<defs>
<clipPath id="clip0_1741_62314">
<rect width="16" height="16" fill="white"/>
</clipPath>
</defs>
</svg>
