<svg width="16" height="16" viewBox="0 0 16 16" fill="none" xmlns="http://www.w3.org/2000/svg">
<path fill-rule="evenodd" clip-rule="evenodd" d="M11.3335 1.33334C11.3335 0.965149 11.035 0.666672 10.6668 0.666672C10.2986 0.666672 10.0002 0.965149 10.0002 1.33334V2.00001H6.00016V1.33334C6.00016 0.965149 5.70169 0.666672 5.3335 0.666672C4.96531 0.666672 4.66683 0.965149 4.66683 1.33334V2.00001H3.3335C2.22893 2.00001 1.3335 2.89544 1.3335 4.00001V13.3333C1.3335 14.4379 2.22893 15.3333 3.3335 15.3333H12.6668C13.7714 15.3333 14.6668 14.4379 14.6668 13.3333V4.00001C14.6668 2.89544 13.7714 2.00001 12.6668 2.00001H11.3335V1.33334ZM13.3335 6.00001V4.00001C13.3335 3.63182 13.035 3.33334 12.6668 3.33334H11.3335V4.00001C11.3335 4.3682 11.035 4.66667 10.6668 4.66667C10.2986 4.66667 10.0002 4.3682 10.0002 4.00001V3.33334H6.00016V4.00001C6.00016 4.3682 5.70169 4.66667 5.3335 4.66667C4.96531 4.66667 4.66683 4.3682 4.66683 4.00001V3.33334H3.3335C2.96531 3.33334 2.66683 3.63182 2.66683 4.00001V6.00001H13.3335ZM2.66683 7.33334H13.3335V13.3333C13.3335 13.7015 13.035 14 12.6668 14H3.3335C2.96531 14 2.66683 13.7015 2.66683 13.3333V7.33334Z" fill="#292737"/>
</svg>
