<svg width="16" height="16" viewBox="0 0 16 16" fill="none" xmlns="http://www.w3.org/2000/svg">
<path fill-rule="evenodd" clip-rule="evenodd" d="M5.66667 1.33331C3.82572 1.33331 2.33333 2.8257 2.33333 4.66665C2.33333 6.5076 3.82572 7.99998 5.66667 7.99998C7.50762 7.99998 9 6.5076 9 4.66665C9 2.8257 7.50762 1.33331 5.66667 1.33331ZM3.66667 4.66665C3.66667 3.56208 4.5621 2.66665 5.66667 2.66665C6.77124 2.66665 7.66667 3.56208 7.66667 4.66665C7.66667 5.77122 6.77124 6.66665 5.66667 6.66665C4.5621 6.66665 3.66667 5.77122 3.66667 4.66665Z" fill="#292737"/>
<path d="M3.33333 9.33331C2.44928 9.33331 1.60143 9.6845 0.976311 10.3096C0.35119 10.9347 0 11.7826 0 12.6666V14C0 14.3682 0.298477 14.6666 0.666667 14.6666C1.03486 14.6666 1.33333 14.3682 1.33333 14V12.6666C1.33333 12.1362 1.54405 11.6275 1.91912 11.2524C2.29419 10.8774 2.8029 10.6666 3.33333 10.6666H8C8.53043 10.6666 9.03914 10.8774 9.41421 11.2524C9.78929 11.6275 10 12.1362 10 12.6666V14C10 14.3682 10.2985 14.6666 10.6667 14.6666C11.0349 14.6666 11.3333 14.3682 11.3333 14V12.6666C11.3333 11.7826 10.9821 10.9347 10.357 10.3096C9.7319 9.6845 8.88406 9.33331 8 9.33331H3.33333Z" fill="#292737"/>
<path d="M11.5286 4.86191C11.7889 4.60156 12.2111 4.60156 12.4714 4.86191L13.6667 6.05717L14.8619 4.86191C15.1223 4.60156 15.5444 4.60156 15.8047 4.86191C16.0651 5.12226 16.0651 5.54437 15.8047 5.80472L14.6095 6.99998L15.8047 8.19524C16.0651 8.45559 16.0651 8.8777 15.8047 9.13805C15.5444 9.3984 15.1223 9.3984 14.8619 9.13805L13.6667 7.94279L12.4714 9.13805C12.2111 9.3984 11.7889 9.3984 11.5286 9.13805C11.2682 8.8777 11.2682 8.45559 11.5286 8.19524L12.7239 6.99998L11.5286 5.80472C11.2682 5.54437 11.2682 5.12226 11.5286 4.86191Z" fill="#292737"/>
</svg>
