<svg width="16" height="16" viewBox="0 0 16 16" fill="none" xmlns="http://www.w3.org/2000/svg">
<g clip-path="url(#clip0_1741_62317)">
<circle cx="8" cy="8" r="8" fill="#292737"/>
<path d="M8.07446 11.4261C7.72534 11.4239 7.38838 11.3654 7.06357 11.2505C6.74096 11.1356 6.45151 10.9488 6.19519 10.6903C5.93888 10.4318 5.7356 10.0893 5.58535 9.66286C5.4373 9.23641 5.36328 8.71274 5.36328 8.09184C5.36549 7.52177 5.43067 7.01245 5.55883 6.56391C5.6892 6.11315 5.8748 5.73089 6.11565 5.41713C6.3587 5.10336 6.64927 4.86473 6.98733 4.70122C7.3254 4.5355 7.70435 4.45264 8.12417 4.45264C8.57714 4.45264 8.97708 4.54102 9.32398 4.71779C9.67089 4.89235 9.9493 5.12988 10.1592 5.43038C10.3713 5.73089 10.4995 6.06785 10.5437 6.44127H9.12843C9.07319 6.20485 8.95719 6.01924 8.78042 5.88446C8.60365 5.74967 8.3849 5.68228 8.12417 5.68228C7.68225 5.68228 7.34639 5.87451 7.1166 6.25898C6.88901 6.64345 6.773 7.16602 6.76858 7.82669H6.81499C6.91663 7.62562 7.05362 7.45437 7.22597 7.31296C7.40053 7.16933 7.59829 7.05996 7.81925 6.98483C8.04242 6.9075 8.27774 6.86883 8.52521 6.86883C8.92736 6.86883 9.28531 6.96384 9.59908 7.15387C9.91284 7.34168 10.1603 7.60021 10.3415 7.92944C10.5227 8.25867 10.6133 8.6354 10.6133 9.05964C10.6133 9.51924 10.5061 9.92802 10.2918 10.286C10.0797 10.6439 9.78247 10.9245 9.40021 11.1278C9.02016 11.3289 8.57824 11.4283 8.07446 11.4261ZM8.06783 10.2992C8.28879 10.2992 8.48655 10.2462 8.6611 10.1401C8.83566 10.0341 8.97266 9.89045 9.07209 9.70927C9.17152 9.52808 9.22124 9.3248 9.22124 9.09942C9.22124 8.87404 9.17152 8.67186 9.07209 8.49288C8.97487 8.31391 8.84008 8.17139 8.66773 8.06533C8.49538 7.95927 8.29873 7.90624 8.07777 7.90624C7.91205 7.90624 7.75848 7.93717 7.61707 7.99904C7.47786 8.06091 7.35523 8.14708 7.24917 8.25756C7.14532 8.36804 7.06357 8.4962 7.00391 8.64203C6.94425 8.78565 6.91442 8.93922 6.91442 9.10273C6.91442 9.32148 6.96413 9.52145 7.06357 9.70264C7.16521 9.88382 7.3022 10.0286 7.47455 10.1368C7.64911 10.2451 7.84687 10.2992 8.06783 10.2992Z" fill="white"/>
</g>
<defs>
<clipPath id="clip0_1741_62317">
<rect width="16" height="16" fill="white"/>
</clipPath>
</defs>
</svg>
