<svg width="16" height="16" viewBox="0 0 16 16" fill="none" xmlns="http://www.w3.org/2000/svg">
<path d="M5.80457 6.19527C5.54423 5.93492 5.12212 5.93492 4.86177 6.19527C4.60142 6.45562 4.60142 6.87773 4.86177 7.13808L7.52843 9.80475C7.78878 10.0651 8.21089 10.0651 8.47124 9.80475L11.1379 7.13808C11.3983 6.87773 11.3983 6.45562 11.1379 6.19527C10.8776 5.93492 10.4554 5.93492 10.1951 6.19527L7.99984 8.39053L5.80457 6.19527Z" fill="#292737"/>
<path fill-rule="evenodd" clip-rule="evenodd" d="M13.3332 1.33334H2.6665C2.13607 1.33334 1.62736 1.54406 1.25229 1.91913C0.877217 2.2942 0.666504 2.80291 0.666504 3.33334V7.33334C0.666504 9.27826 1.43912 11.1435 2.81439 12.5188C3.49535 13.1998 4.30377 13.7399 5.19349 14.1085C6.08321 14.477 7.03681 14.6667 7.99984 14.6667C9.94476 14.6667 11.81 13.8941 13.1853 12.5188C14.5606 11.1435 15.3332 9.27826 15.3332 7.33334V3.33334C15.3332 2.80291 15.1225 2.2942 14.7474 1.91913C14.3723 1.54406 13.8636 1.33334 13.3332 1.33334ZM2.1951 2.86194C2.32012 2.73691 2.48969 2.66668 2.6665 2.66668H13.3332C13.51 2.66668 13.6796 2.73691 13.8046 2.86194C13.9296 2.98696 13.9998 3.15653 13.9998 3.33334V7.33334C13.9998 8.92464 13.3677 10.4508 12.2425 11.576C11.1173 12.7012 9.59114 13.3333 7.99984 13.3333C7.21191 13.3333 6.43169 13.1781 5.70374 12.8766C4.97578 12.5751 4.31435 12.1331 3.7572 11.576C2.63198 10.4508 1.99984 8.92464 1.99984 7.33334V3.33334C1.99984 3.15653 2.07008 2.98696 2.1951 2.86194Z" fill="#292737"/>
</svg>
