<svg width="16" height="16" viewBox="0 0 16 16" fill="none" xmlns="http://www.w3.org/2000/svg">
<path d="M7.99984 11.3333C7.63165 11.3333 7.33317 11.6318 7.33317 12C7.33317 12.3682 7.63165 12.6667 7.99984 12.6667H8.0065C8.37469 12.6667 8.67317 12.3682 8.67317 12C8.67317 11.6318 8.37469 11.3333 8.0065 11.3333H7.99984Z" fill="#292737"/>
<path fill-rule="evenodd" clip-rule="evenodd" d="M4.6665 0.666656C3.56193 0.666656 2.6665 1.56209 2.6665 2.66666V13.3333C2.6665 14.4379 3.56193 15.3333 4.6665 15.3333H11.3332C12.4377 15.3333 13.3332 14.4379 13.3332 13.3333V2.66666C13.3332 1.56209 12.4377 0.666656 11.3332 0.666656H4.6665ZM3.99984 2.66666C3.99984 2.29847 4.29831 1.99999 4.6665 1.99999H11.3332C11.7014 1.99999 11.9998 2.29847 11.9998 2.66666V13.3333C11.9998 13.7015 11.7014 14 11.3332 14H4.6665C4.29831 14 3.99984 13.7015 3.99984 13.3333V2.66666Z" fill="#292737"/>
</svg>
