<svg width="16" height="16" viewBox="0 0 16 16" fill="none" xmlns="http://www.w3.org/2000/svg">
<path d="M2.19523 3.5286C2.32025 3.40357 2.48982 3.33333 2.66664 3.33333H13.3333C13.5101 3.33333 13.6797 3.40357 13.8047 3.5286C13.9297 3.65362 14 3.82319 14 4V12C14 12.1768 13.9297 12.3464 13.8047 12.4714C13.6797 12.5964 13.5101 12.6667 13.3333 12.6667H9.3333C8.96511 12.6667 8.66664 12.9651 8.66664 13.3333C8.66664 13.7015 8.96511 14 9.3333 14H13.3333C13.8637 14 14.3724 13.7893 14.7475 13.4142C15.1226 13.0391 15.3333 12.5304 15.3333 12V4C15.3333 3.46957 15.1226 2.96086 14.7475 2.58579C14.3724 2.21071 13.8637 2 13.3333 2H2.66664C2.1362 2 1.62749 2.21071 1.25242 2.58579C0.877349 2.96086 0.666635 3.46957 0.666635 4V5.33333C0.666635 5.70152 0.965112 6 1.3333 6C1.70149 6 1.99997 5.70152 1.99997 5.33333V4C1.99997 3.82319 2.07021 3.65362 2.19523 3.5286Z" fill="#292737"/>
<path d="M1.40699 7.37075C1.04106 7.33005 0.71142 7.59371 0.670721 7.95964C0.630021 8.32557 0.893676 8.65522 1.25961 8.69591C2.46304 8.82976 3.58511 9.36913 4.44131 10.2253C5.29751 11.0815 5.83687 12.2036 5.97072 13.407C6.01142 13.773 6.34106 14.0366 6.70699 13.9959C7.07293 13.9552 7.33658 13.6256 7.29588 13.2596C7.12858 11.7554 6.45437 10.3528 5.38412 9.28252C4.31386 8.21227 2.91128 7.53806 1.40699 7.37075Z" fill="#292737"/>
<path d="M1.46652 10.0801C1.10576 10.0065 0.753657 10.2393 0.680081 10.6001C0.606506 10.9609 0.839318 11.313 1.20008 11.3866C1.71256 11.4911 2.18298 11.744 2.55282 12.1138C2.92265 12.4837 3.17557 12.9541 3.28008 13.4666C3.35366 13.8273 3.70576 14.0601 4.06652 13.9866C4.42729 13.913 4.6601 13.5609 4.58652 13.2001C4.42975 12.4314 4.05038 11.7258 3.49563 11.171C2.94088 10.6163 2.23524 10.2369 1.46652 10.0801Z" fill="#292737"/>
<path d="M1.33333 12.6667C0.965144 12.6667 0.666667 12.9651 0.666667 13.3333C0.666667 13.7015 0.965144 14 1.33333 14H1.34C1.70819 14 2.00667 13.7015 2.00667 13.3333C2.00667 12.9651 1.70819 12.6667 1.34 12.6667H1.33333Z" fill="#292737"/>
</svg>
