<svg width="16" height="16" viewBox="0 0 16 16" fill="none" xmlns="http://www.w3.org/2000/svg">
<g clip-path="url(#clip0_1741_61796)">
<path d="M8.47124 4.86193L11.1379 7.5286C11.3983 7.78895 11.3983 8.21106 11.1379 8.47141C10.8776 8.73176 10.4554 8.73176 10.1951 8.47141L8.6665 6.94281V10.6667C8.6665 11.0349 8.36803 11.3333 7.99984 11.3333C7.63165 11.3333 7.33317 11.0349 7.33317 10.6667V6.94281L5.80457 8.47141C5.54423 8.73176 5.12212 8.73176 4.86177 8.47141C4.60142 8.21106 4.60142 7.78895 4.86177 7.5286L7.52843 4.86193C7.78878 4.60158 8.21089 4.60158 8.47124 4.86193Z" fill="#292737"/>
<path fill-rule="evenodd" clip-rule="evenodd" d="M0.666504 8.00001C0.666504 3.94992 3.94975 0.666672 7.99984 0.666672C12.0499 0.666672 15.3332 3.94992 15.3332 8.00001C15.3332 12.0501 12.0499 15.3333 7.99984 15.3333C3.94975 15.3333 0.666504 12.0501 0.666504 8.00001ZM7.99984 2.00001C4.68613 2.00001 1.99984 4.6863 1.99984 8.00001C1.99984 11.3137 4.68613 14 7.99984 14C11.3135 14 13.9998 11.3137 13.9998 8.00001C13.9998 4.6863 11.3135 2.00001 7.99984 2.00001Z" fill="#292737"/>
</g>
<defs>
<clipPath id="clip0_1741_61796">
<rect width="16" height="16" fill="white"/>
</clipPath>
</defs>
</svg>
