<svg width="16" height="16" viewBox="0 0 16 16" fill="none" xmlns="http://www.w3.org/2000/svg">
<g clip-path="url(#clip0_1741_61890)">
<path d="M8.47124 0.861919C8.21089 0.601569 7.78878 0.601569 7.52843 0.861919L5.52843 2.86192C5.26808 3.12227 5.26808 3.54438 5.52843 3.80473C5.78878 4.06508 6.21089 4.06508 6.47124 3.80473L7.33317 2.9428V7.33332H2.94265L3.80458 6.47139C4.06492 6.21105 4.06492 5.78893 3.80458 5.52859C3.54423 5.26824 3.12212 5.26824 2.86177 5.52859L0.861766 7.52859C0.601417 7.78893 0.601417 8.21105 0.861766 8.4714L2.86177 10.4714C3.12212 10.7317 3.54423 10.7317 3.80458 10.4714C4.06492 10.211 4.06492 9.78893 3.80458 9.52859L2.94265 8.66666H7.33317V13.0572L6.47124 12.1953C6.21089 11.9349 5.78878 11.9349 5.52843 12.1953C5.26808 12.4556 5.26808 12.8777 5.52843 13.1381L7.52843 15.1381C7.78878 15.3984 8.21089 15.3984 8.47124 15.1381L10.4712 13.1381C10.7316 12.8777 10.7316 12.4556 10.4712 12.1953C10.2109 11.9349 9.78878 11.9349 9.52843 12.1953L8.6665 13.0572V8.66666H13.057L12.1951 9.52859C11.9347 9.78893 11.9347 10.211 12.1951 10.4714C12.4555 10.7317 12.8776 10.7317 13.1379 10.4714L15.1379 8.4714C15.3983 8.21105 15.3983 7.78893 15.1379 7.52859L13.1379 5.52859C12.8776 5.26824 12.4555 5.26824 12.1951 5.52859C11.9347 5.78893 11.9347 6.21105 12.1951 6.47139L13.057 7.33332H8.6665V2.9428L9.52843 3.80473C9.78878 4.06508 10.2109 4.06508 10.4712 3.80473C10.7316 3.54438 10.7316 3.12227 10.4712 2.86192L8.47124 0.861919Z" fill="#292737"/>
</g>
<defs>
<clipPath id="clip0_1741_61890">
<rect width="16" height="16" fill="white"/>
</clipPath>
</defs>
</svg>
