<svg width="16" height="16" viewBox="0 0 16 16" fill="none" xmlns="http://www.w3.org/2000/svg">
<path fill-rule="evenodd" clip-rule="evenodd" d="M13.3332 2.66667C13.3332 2.4104 13.1863 2.17682 12.9553 2.0658C12.7243 1.95479 12.4502 1.986 12.25 2.14609L5.58337 7.47943C5.42523 7.60594 5.33317 7.79748 5.33317 8.00001C5.33317 8.20253 5.42523 8.39407 5.58337 8.52059L12.25 13.8539C12.4502 14.014 12.7243 14.0452 12.9553 13.9342C13.1863 13.8232 13.3332 13.5896 13.3332 13.3333V2.66667ZM11.9998 11.9463L7.06702 8.00001L11.9998 4.05376V11.9463Z" fill="#292737"/>
<path d="M3.99984 3.33334C3.99984 2.96515 3.70136 2.66667 3.33317 2.66667C2.96498 2.66667 2.6665 2.96515 2.6665 3.33334V12.6667C2.6665 13.0349 2.96498 13.3333 3.33317 13.3333C3.70136 13.3333 3.99984 13.0349 3.99984 12.6667V3.33334Z" fill="#292737"/>
</svg>
