<svg width="16" height="16" viewBox="0 0 16 16" fill="none" xmlns="http://www.w3.org/2000/svg">
<g clip-path="url(#clip0_1741_61760)">
<path fill-rule="evenodd" clip-rule="evenodd" d="M6.49341 5.0124C7.11575 4.68948 7.82406 4.57102 8.51759 4.67387C9.22503 4.77877 9.87997 5.10842 10.3857 5.61412C10.8914 6.11982 11.221 6.77476 11.3259 7.4822C11.4288 8.17574 11.3103 8.88405 10.9874 9.50638C10.6645 10.1287 10.1535 10.6334 9.52728 10.9486C8.90102 11.2638 8.1913 11.3735 7.49908 11.2621C6.80686 11.1508 6.16739 10.8239 5.67163 10.3282C5.17586 9.8324 4.84904 9.19293 4.73765 8.50071C4.62626 7.80849 4.73598 7.09878 5.0512 6.47251C5.36642 5.84624 5.87108 5.33532 6.49341 5.0124ZM8.32202 5.99278C7.90589 5.93107 7.48091 6.00215 7.10751 6.1959C6.73411 6.38965 6.43131 6.6962 6.24218 7.07196C6.05305 7.44772 5.98722 7.87355 6.05405 8.28888C6.12088 8.70421 6.31697 9.0879 6.61444 9.38536C6.9119 9.68282 7.29558 9.87891 7.71091 9.94574C8.12624 10.0126 8.55207 9.94674 8.92783 9.75761C9.30359 9.56848 9.61015 9.26568 9.8039 8.89228C9.99765 8.51888 10.0687 8.0939 10.007 7.67778C9.94407 7.25331 9.74628 6.86035 9.44286 6.55693C9.13944 6.25351 8.74648 6.05572 8.32202 5.99278Z" fill="#292737"/>
<path d="M11.6665 3.66666C11.2983 3.66666 10.9998 3.96513 10.9998 4.33332C10.9998 4.70151 11.2983 4.99999 11.6665 4.99999H11.6732C12.0414 4.99999 12.3398 4.70151 12.3398 4.33332C12.3398 3.96513 12.0414 3.66666 11.6732 3.66666H11.6665Z" fill="#292737"/>
<path fill-rule="evenodd" clip-rule="evenodd" d="M0.666504 4.66666C0.666504 2.45752 2.45736 0.666656 4.6665 0.666656H11.3332C13.5423 0.666656 15.3332 2.45752 15.3332 4.66666V11.3333C15.3332 13.5425 13.5423 15.3333 11.3332 15.3333H4.6665C2.45736 15.3333 0.666504 13.5425 0.666504 11.3333V4.66666ZM4.6665 1.99999C3.19374 1.99999 1.99984 3.1939 1.99984 4.66666V11.3333C1.99984 12.8061 3.19374 14 4.6665 14H11.3332C12.8059 14 13.9998 12.8061 13.9998 11.3333V4.66666C13.9998 3.1939 12.8059 1.99999 11.3332 1.99999H4.6665Z" fill="#292737"/>
</g>
<defs>
<clipPath id="clip0_1741_61760">
<rect width="16" height="16" fill="white"/>
</clipPath>
</defs>
</svg>
