<svg width="16" height="16" viewBox="0 0 16 16" fill="none" xmlns="http://www.w3.org/2000/svg">
<g clip-path="url(#clip0_1741_62247)">
<path fill-rule="evenodd" clip-rule="evenodd" d="M8 0.666687C6.00158 0.666687 4.07491 1.41155 2.5962 2.75584C1.11749 4.10012 0.192914 5.94729 0.00301922 7.93667C-0.0148289 8.12365 0.0470278 8.30949 0.173376 8.44847C0.299724 8.58745 0.478839 8.66669 0.666669 8.66669H7.33333V12.6667C7.33333 13.3739 7.61428 14.0522 8.11438 14.5523C8.61448 15.0524 9.29276 15.3334 10 15.3334C10.7072 15.3334 11.3855 15.0524 11.8856 14.5523C12.3857 14.0522 12.6667 13.3739 12.6667 12.6667C12.6667 12.2985 12.3682 12 12 12C11.6318 12 11.3333 12.2985 11.3333 12.6667C11.3333 13.0203 11.1929 13.3594 10.9428 13.6095C10.6928 13.8595 10.3536 14 10 14C9.64638 14 9.30724 13.8595 9.05719 13.6095C8.80714 13.3594 8.66667 13.0203 8.66667 12.6667V8.66669H15.3333C15.5212 8.66669 15.7003 8.58745 15.8266 8.44847C15.953 8.30949 16.0148 8.12365 15.997 7.93667C15.8071 5.94729 14.8825 4.10012 13.4038 2.75584C11.9251 1.41155 9.99842 0.666687 8 0.666687ZM3.49309 3.74242C4.72638 2.62126 6.33327 2.00002 8 2.00002C9.66674 2.00002 11.2736 2.62126 12.5069 3.74242C13.5571 4.69717 14.2722 5.95607 14.5592 7.33335H1.44085C1.7278 5.95607 2.44287 4.69717 3.49309 3.74242Z" fill="#292737"/>
</g>
<defs>
<clipPath id="clip0_1741_62247">
<rect width="16" height="16" fill="white"/>
</clipPath>
</defs>
</svg>
