<svg width="16" height="16" viewBox="0 0 16 16" fill="none" xmlns="http://www.w3.org/2000/svg">
<path fill-rule="evenodd" clip-rule="evenodd" d="M3.23724 1.24411C3.3278 1.09268 3.49126 0.999969 3.66769 0.999969H12.3323C12.5087 0.999969 12.6722 1.09268 12.7628 1.24411L14.9289 4.86652C14.9754 4.94432 15 5.03327 15 5.12392C15 5.41456 14.8965 5.72132 14.7612 5.99286C14.6384 6.23922 14.4729 6.48973 14.278 6.72152V13.8177C14.278 14.0947 14.0535 14.3193 13.7765 14.3193H2.22364C1.94665 14.3193 1.7221 14.0947 1.7221 13.8177V6.88092C1.69769 6.85255 1.67396 6.82388 1.65093 6.79499C1.23114 6.26849 1 5.6177 1 5.12392C1 5.03327 1.02457 4.94432 1.07109 4.86652L3.23724 1.24411ZM12.3323 7.79891C12.6675 7.79891 12.9858 7.70214 13.2749 7.55107V13.3162H10.1949V9.6933C10.1949 9.4163 9.97032 9.19176 9.69333 9.19176H6.34974C6.07275 9.19176 5.8482 9.4163 5.8482 9.6933V13.3162H2.72518V7.61663C3.00459 7.73098 3.31892 7.79891 3.66769 7.79891C4.41624 7.79891 4.98229 7.44335 5.38422 7.08143C5.55132 6.93096 5.69578 6.77435 5.81711 6.63468C5.96095 6.80058 6.13056 6.97665 6.32444 7.13877C6.73903 7.48542 7.30057 7.79891 8 7.79891C8.71686 7.79891 9.28262 7.43866 9.68474 7.08562C9.85177 6.93898 9.99884 6.7863 10.1239 6.64857C10.4811 7.12493 11.1507 7.79891 12.3323 7.79891ZM6.85128 13.3162H9.19179V10.1948H6.85128V13.3162ZM3.95215 2.00305L2.01277 5.24623C2.04792 5.4896 2.18024 5.84985 2.43523 6.16966C2.7249 6.53297 3.13278 6.79583 3.66769 6.79583C4.07443 6.79583 4.41094 6.60802 4.71301 6.33602C4.86411 6.19996 4.99831 6.05014 5.12321 5.90303C5.14989 5.8716 5.17787 5.83813 5.20648 5.8039L5.2065 5.80387C5.26296 5.73632 5.32192 5.66579 5.37833 5.60209L6.27507 2.00305H3.95215ZM7.30882 2.00305H8.68394L9.55269 5.78033C9.51844 5.8197 9.48459 5.85858 9.45228 5.89505C9.32214 6.04195 9.18027 6.19372 9.02295 6.33183C8.70302 6.61271 8.36622 6.79583 8 6.79583C7.61635 6.79583 7.27533 6.62633 6.96787 6.36925C6.73265 6.17257 6.53824 5.94271 6.37852 5.73675L7.30882 2.00305ZM12.0479 2.00305H9.7132L10.5147 5.48773L10.5214 5.49436C10.673 5.64644 10.7898 5.81212 10.903 5.97274C11.2059 6.4024 11.4833 6.79583 12.3323 6.79583C12.6634 6.79583 13.0796 6.55841 13.4482 6.14744C13.6233 5.95225 13.7664 5.74024 13.8634 5.54547C13.9266 5.41865 13.9628 5.31422 13.9812 5.23615L12.0479 2.00305Z" fill="#292737"/>
</svg>
