<svg width="16" height="16" viewBox="0 0 16 16" fill="none" xmlns="http://www.w3.org/2000/svg">
<path fill-rule="evenodd" clip-rule="evenodd" d="M1.33317 1.33333C0.964981 1.33333 0.666504 1.63181 0.666504 1.99999V12C0.666504 12.3682 0.964981 12.6667 1.33317 12.6667H5.99984C6.35346 12.6667 6.6926 12.8071 6.94265 13.0572C7.1927 13.3072 7.33317 13.6464 7.33317 14C7.33317 14.3682 7.63165 14.6667 7.99984 14.6667C8.36803 14.6667 8.6665 14.3682 8.6665 14C8.6665 13.6464 8.80698 13.3072 9.05703 13.0572C9.30708 12.8071 9.64622 12.6667 9.99984 12.6667H14.6665C15.0347 12.6667 15.3332 12.3682 15.3332 12V1.99999C15.3332 1.63181 15.0347 1.33333 14.6665 1.33333H10.6665C9.78245 1.33333 8.9346 1.68452 8.30948 2.30964C8.1973 2.42182 8.09393 2.54118 7.99984 2.66664C7.90574 2.54118 7.80238 2.42182 7.69019 2.30964C7.06507 1.68452 6.21723 1.33333 5.33317 1.33333H1.33317ZM8.6665 11.6906C9.06844 11.4585 9.52768 11.3333 9.99984 11.3333H13.9998V2.66666H10.6665C10.1361 2.66666 9.62736 2.87738 9.25229 3.25245C8.87722 3.62752 8.6665 4.13623 8.6665 4.66666V11.6906ZM7.33317 11.6906V4.66666C7.33317 4.13623 7.12246 3.62752 6.74738 3.25245C6.37231 2.87738 5.8636 2.66666 5.33317 2.66666H1.99984V11.3333H5.99984C6.47199 11.3333 6.93123 11.4585 7.33317 11.6906Z" fill="#292737"/>
</svg>
