<svg width="16" height="16" viewBox="0 0 16 16" fill="none" xmlns="http://www.w3.org/2000/svg">
<path d="M4.6665 0.666667C4.6665 0.298477 4.36803 0 3.99984 0C3.63165 0 3.33317 0.298477 3.33317 0.666667V2.66667C3.33317 3.03486 3.63165 3.33333 3.99984 3.33333C4.36803 3.33333 4.6665 3.03486 4.6665 2.66667V0.666667Z" fill="#292737"/>
<path fill-rule="evenodd" clip-rule="evenodd" d="M0.666504 5.33333C0.666504 4.96514 0.964981 4.66667 1.33317 4.66667H12.6665C13.5506 4.66667 14.3984 5.01786 15.0235 5.64298C15.6486 6.2681 15.9998 7.11594 15.9998 8C15.9998 8.88406 15.6486 9.7319 15.0235 10.357C14.3984 10.9821 13.5506 11.3333 12.6665 11.3333C12.6665 12.2174 12.3153 13.0652 11.6902 13.6904C11.0651 14.3155 10.2172 14.6667 9.33317 14.6667H3.99984C3.11578 14.6667 2.26794 14.3155 1.64281 13.6904C1.01769 13.0652 0.666504 12.2174 0.666504 11.3333V5.33333ZM12.6665 10V6C13.1969 6 13.7056 6.21071 14.0807 6.58579C14.4558 6.96086 14.6665 7.46957 14.6665 8C14.6665 8.53043 14.4558 9.03914 14.0807 9.41421C13.7056 9.78929 13.1969 10 12.6665 10ZM11.3332 6V11.3333C11.3332 11.8638 11.1225 12.3725 10.7474 12.7475C10.3723 13.1226 9.8636 13.3333 9.33317 13.3333H3.99984C3.4694 13.3333 2.9607 13.1226 2.58562 12.7475C2.21055 12.3725 1.99984 11.8638 1.99984 11.3333V6H11.3332Z" fill="#292737"/>
<path d="M6.6665 0C7.03469 0 7.33317 0.298477 7.33317 0.666667V2.66667C7.33317 3.03486 7.03469 3.33333 6.6665 3.33333C6.29831 3.33333 5.99984 3.03486 5.99984 2.66667V0.666667C5.99984 0.298477 6.29831 0 6.6665 0Z" fill="#292737"/>
<path d="M9.99984 0.666667C9.99984 0.298477 9.70136 0 9.33317 0C8.96498 0 8.6665 0.298477 8.6665 0.666667V2.66667C8.6665 3.03486 8.96498 3.33333 9.33317 3.33333C9.70136 3.33333 9.99984 3.03486 9.99984 2.66667V0.666667Z" fill="#292737"/>
</svg>
