<svg width="16" height="16" viewBox="0 0 16 16" fill="none" xmlns="http://www.w3.org/2000/svg">
<g clip-path="url(#clip0_1741_62173)">
<path fill-rule="evenodd" clip-rule="evenodd" d="M7.66667 0C7.04783 0 6.45434 0.245833 6.01675 0.683417C5.57917 1.121 5.33333 1.71449 5.33333 2.33333V9.50601C4.82536 9.92506 4.43774 10.4748 4.21435 11.0991C3.94934 11.8398 3.92953 12.646 4.15788 13.3988C4.38622 14.1515 4.85059 14.8109 5.48242 15.2795C6.11425 15.7481 6.88003 16.0011 7.66667 16.0011C8.4533 16.0011 9.21908 15.7481 9.85091 15.2795C10.4827 14.8109 10.9471 14.1515 11.1755 13.3988C11.4038 12.646 11.384 11.8398 11.119 11.0991C10.8956 10.4748 10.508 9.92506 10 9.50601V2.33333C10 1.71449 9.75417 1.121 9.31658 0.683417C8.879 0.245833 8.28551 0 7.66667 0ZM6.95956 1.62623C7.1471 1.43869 7.40145 1.33333 7.66667 1.33333C7.93188 1.33333 8.18624 1.43869 8.37377 1.62623C8.56131 1.81376 8.66667 2.06812 8.66667 2.33333V9.84C8.66667 10.0627 8.77783 10.2706 8.96296 10.3943C9.37919 10.6724 9.69494 11.077 9.86359 11.5483C10.0322 12.0197 10.0448 12.5327 9.89953 13.0117C9.75423 13.4908 9.45871 13.9104 9.05664 14.2086C8.65457 14.5068 8.16725 14.6678 7.66667 14.6678C7.16608 14.6678 6.67877 14.5068 6.27669 14.2086C5.87462 13.9104 5.57911 13.4908 5.4338 13.0117C5.28849 12.5327 5.30109 12.0197 5.46974 11.5483C5.63839 11.077 5.95414 10.6724 6.37037 10.3943C6.55551 10.2706 6.66667 10.0627 6.66667 9.84V2.33333C6.66667 2.06812 6.77202 1.81376 6.95956 1.62623Z" fill="#292737"/>
</g>
<defs>
<clipPath id="clip0_1741_62173">
<rect width="16" height="16" fill="white"/>
</clipPath>
</defs>
</svg>
