<svg width="16" height="16" viewBox="0 0 16 16" fill="none" xmlns="http://www.w3.org/2000/svg">
<g clip-path="url(#clip0_1741_62225)">
<path fill-rule="evenodd" clip-rule="evenodd" d="M7.99984 15.3333C12.0499 15.3333 15.3332 12.0501 15.3332 7.99999C15.3332 3.9499 12.0499 0.666656 7.99984 0.666656C3.94975 0.666656 0.666504 3.9499 0.666504 7.99999C0.666504 12.0501 3.94975 15.3333 7.99984 15.3333ZM6.48364 2.19321C4.11238 2.81064 2.31184 4.84215 2.03646 7.33332H4.6999C4.84937 5.4912 5.46591 3.72294 6.48364 2.19321ZM9.51603 2.19321C10.5338 3.72294 11.1503 5.4912 11.2998 7.33332H13.9632C13.6878 4.84215 11.8873 2.81064 9.51603 2.19321ZM9.96144 7.33332C9.79398 5.52454 9.11296 3.80128 7.99984 2.36719C6.88672 3.80128 6.2057 5.52454 6.03823 7.33332H9.96144ZM6.03823 8.66666H9.96144C9.79398 10.4754 9.11295 12.1987 7.99984 13.6328C6.88672 12.1987 6.2057 10.4754 6.03823 8.66666ZM4.6999 8.66666H2.03646C2.31184 11.1578 4.11238 13.1893 6.48364 13.8068C5.46591 12.277 4.84937 10.5088 4.6999 8.66666ZM9.51603 13.8068C10.5338 12.277 11.1503 10.5088 11.2998 8.66666H13.9632C13.6878 11.1578 11.8873 13.1893 9.51603 13.8068Z" fill="#292737"/>
</g>
<defs>
<clipPath id="clip0_1741_62225">
<rect width="16" height="16" fill="white"/>
</clipPath>
</defs>
</svg>
