<svg width="16" height="16" viewBox="0 0 16 16" fill="none" xmlns="http://www.w3.org/2000/svg">
<g clip-path="url(#clip0_1741_62339)">
<path fill-rule="evenodd" clip-rule="evenodd" d="M4.51998 5.0202L7.90247 1.73166L7.12794 0.934998L2.92602 5.0202H2.00005C1.32504 5.0202 0.777832 5.5674 0.777832 6.24242V7.33333C0.777832 7.84273 1.08947 8.27935 1.5325 8.46293C1.50965 8.5985 1.50948 8.74079 1.53575 8.8853L2.50545 14.2186C2.61111 14.7998 3.11727 15.2222 3.70795 15.2222H12.2922C12.8828 15.2222 13.389 14.7998 13.4947 14.2186L14.4644 8.8853C14.4906 8.74079 14.4905 8.5985 14.4676 8.46293C14.9106 8.27935 15.2223 7.84273 15.2223 7.33333V6.24242C15.2223 5.5674 14.6751 5.0202 14.0001 5.0202H13.0741L8.87217 0.934998L8.09764 1.73166L11.4801 5.0202H4.51998ZM13.2619 8.55555H2.73826C2.66893 8.55555 2.61654 8.61833 2.62894 8.68654L3.59863 14.0199C3.60824 14.0727 3.65426 14.1111 3.70795 14.1111H12.2922C12.3459 14.1111 12.3919 14.0727 12.4015 14.0199L13.3712 8.68654C13.3836 8.61833 13.3312 8.55555 13.2619 8.55555ZM14.0001 7.44444C14.0614 7.44444 14.1112 7.39469 14.1112 7.33333V6.24242C14.1112 6.18105 14.0614 6.13131 14.0001 6.13131H2.00005C1.93869 6.13131 1.88894 6.18105 1.88894 6.24242V7.33333C1.88894 7.39469 1.93869 7.44444 2.00005 7.44444H14.0001ZM5.02026 12.8485V9.81818H6.13137V12.8485H5.02026ZM7.4445 12.8485V9.81818H8.55561V12.8485H7.4445ZM9.86874 12.8485V9.81818H10.9799V12.8485H9.86874Z" fill="#292737"/>
</g>
<defs>
<clipPath id="clip0_1741_62339">
<rect width="16" height="16" fill="white"/>
</clipPath>
</defs>
</svg>
