<svg width="16" height="16" viewBox="0 0 16 16" fill="none" xmlns="http://www.w3.org/2000/svg">
<path d="M8.6665 3.33332C8.6665 2.96513 8.36803 2.66666 7.99984 2.66666C7.63165 2.66666 7.33317 2.96513 7.33317 3.33332V7.33332H3.33317C2.96498 7.33332 2.6665 7.6318 2.6665 7.99999C2.6665 8.36818 2.96498 8.66666 3.33317 8.66666H7.33317V12.6667C7.33317 13.0348 7.63165 13.3333 7.99984 13.3333C8.36803 13.3333 8.6665 13.0348 8.6665 12.6667V8.66666H12.6665C13.0347 8.66666 13.3332 8.36818 13.3332 7.99999C13.3332 7.6318 13.0347 7.33332 12.6665 7.33332H8.6665V3.33332Z" fill="#292737"/>
</svg>
