<svg width="16" height="16" viewBox="0 0 16 16" fill="none" xmlns="http://www.w3.org/2000/svg">
<g clip-path="url(#clip0_1741_61945)">
<path d="M8.6665 4.00001C8.6665 3.63182 8.36803 3.33334 7.99984 3.33334C7.63165 3.33334 7.33317 3.63182 7.33317 4.00001V8.00001C7.33317 8.25252 7.47584 8.48336 7.7017 8.59629L10.3684 9.92962C10.6977 10.0943 11.0981 9.9608 11.2628 9.63148C11.4274 9.30216 11.294 8.90171 10.9646 8.73705L8.6665 7.58798V4.00001Z" fill="#292737"/>
<path fill-rule="evenodd" clip-rule="evenodd" d="M7.99984 0.666672C3.94975 0.666672 0.666504 3.94992 0.666504 8.00001C0.666504 12.0501 3.94975 15.3333 7.99984 15.3333C12.0499 15.3333 15.3332 12.0501 15.3332 8.00001C15.3332 3.94992 12.0499 0.666672 7.99984 0.666672ZM1.99984 8.00001C1.99984 4.6863 4.68613 2.00001 7.99984 2.00001C11.3135 2.00001 13.9998 4.6863 13.9998 8.00001C13.9998 11.3137 11.3135 14 7.99984 14C4.68613 14 1.99984 11.3137 1.99984 8.00001Z" fill="#292737"/>
</g>
<defs>
<clipPath id="clip0_1741_61945">
<rect width="16" height="16" fill="white"/>
</clipPath>
</defs>
</svg>
