<svg width="16" height="16" viewBox="0 0 16 16" fill="none" xmlns="http://www.w3.org/2000/svg">
<path fill-rule="evenodd" clip-rule="evenodd" d="M10.6667 5.33332C9.19391 5.33332 8 6.52723 8 7.99999C8 9.47275 9.19391 10.6667 10.6667 10.6667C12.1394 10.6667 13.3333 9.47275 13.3333 7.99999C13.3333 6.52723 12.1394 5.33332 10.6667 5.33332ZM9.33333 7.99999C9.33333 7.26361 9.93029 6.66666 10.6667 6.66666C11.403 6.66666 12 7.26361 12 7.99999C12 8.73637 11.403 9.33332 10.6667 9.33332C9.93029 9.33332 9.33333 8.73637 9.33333 7.99999Z" fill="#292737"/>
<path fill-rule="evenodd" clip-rule="evenodd" d="M5.33333 2.66666C2.38781 2.66666 0 5.05447 0 7.99999C0 10.9455 2.38781 13.3333 5.33333 13.3333H10.6667C13.6122 13.3333 16 10.9455 16 7.99999C16 5.05447 13.6122 2.66666 10.6667 2.66666H5.33333ZM1.33333 7.99999C1.33333 5.79085 3.12419 3.99999 5.33333 3.99999H10.6667C12.8758 3.99999 14.6667 5.79085 14.6667 7.99999C14.6667 10.2091 12.8758 12 10.6667 12H5.33333C3.12419 12 1.33333 10.2091 1.33333 7.99999Z" fill="#292737"/>
</svg>
