<svg width="16" height="16" viewBox="0 0 16 16" fill="none" xmlns="http://www.w3.org/2000/svg">
<path fill-rule="evenodd" clip-rule="evenodd" d="M8.00016 0.66803C7.64964 0.66803 7.30528 0.760153 7.00159 0.935155L4.87105 2.15261C4.73095 2.18032 4.60027 2.25269 4.50188 2.36356L2.33607 3.60117L2.3335 3.60265C2.08683 3.74506 1.8741 3.93812 1.70885 4.16827C1.66863 4.20851 1.63294 4.2546 1.6031 4.30618C1.57741 4.3506 1.5574 4.39676 1.54288 4.44381C1.40572 4.71947 1.33381 5.02363 1.3335 5.33264V10.6673C1.33386 11.0181 1.42644 11.3625 1.60196 11.6662C1.77748 11.9698 2.02976 12.222 2.3335 12.3973L2.33607 12.3988L7.00016 15.064L7.0014 15.0647C7.21286 15.1866 7.44406 15.2683 7.68332 15.3067C7.77757 15.3577 7.88548 15.3867 8.00016 15.3867C8.11485 15.3867 8.22276 15.3577 8.317 15.3067C8.55628 15.2683 8.78749 15.1866 8.99896 15.0647L9.00016 15.064L13.6643 12.3988L13.6668 12.3973C13.9706 12.222 14.2228 11.9698 14.3984 11.6662C14.5739 11.3625 14.6665 11.0181 14.6668 10.6673V5.33264C14.6665 5.02368 14.5946 4.71956 14.4575 4.44394C14.443 4.39685 14.423 4.35065 14.3972 4.30618C14.3674 4.25456 14.3317 4.20844 14.2914 4.16818C14.1262 3.93807 13.9135 3.74504 13.6668 3.60264L9.00016 0.935979L8.99877 0.935177C8.69507 0.760161 8.3507 0.66803 8.00016 0.66803ZM8.66683 13.7188L13.0002 11.2426L13.0012 11.242C13.102 11.1836 13.1857 11.0998 13.244 10.9989C13.3025 10.8977 13.3334 10.7829 13.3335 10.666V5.69169L8.66683 8.3912V13.7188ZM7.3335 8.39118L2.66683 5.69168V10.6663C2.667 10.7831 2.69786 10.8978 2.75632 10.9989C2.81462 11.0998 2.89834 11.1836 2.99911 11.242L3.00016 11.2426L7.3335 13.7188V8.39118ZM8.33607 2.09216L12.6408 4.55202L11.0036 5.49909L6.3741 2.82939L7.66425 2.09216L7.66683 2.09068C7.76818 2.03217 7.88314 2.00136 8.00016 2.00136C8.11719 2.00136 8.23215 2.03217 8.3335 2.09068L8.33607 2.09216ZM8.00017 7.23649L9.6712 6.26986L5.03349 3.59545L3.35949 4.55202L8.00017 7.23649Z" fill="#292737"/>
</svg>
