<svg width="16" height="16" viewBox="0 0 16 16" fill="none" xmlns="http://www.w3.org/2000/svg">
<g clip-path="url(#clip0_1741_62329)">
<circle cx="8" cy="8" r="8" fill="#292737"/>
<path d="M6.05377 4.54544V11.3333H4.61864V5.90766H4.57886L3.02441 6.88209V5.60936L4.70481 4.54544H6.05377Z" fill="white"/>
<path d="M10.2352 11.4825C9.6651 11.4803 9.17457 11.3399 8.76359 11.0615C8.35481 10.7831 8.03994 10.3799 7.81898 9.85178C7.60023 9.32369 7.49196 8.68843 7.49417 7.94601C7.49417 7.20579 7.60355 6.57495 7.8223 6.05349C8.04326 5.53202 8.35813 5.1354 8.7669 4.86362C9.17789 4.58963 9.66731 4.45264 10.2352 4.45264C10.803 4.45264 11.2914 4.58963 11.7001 4.86362C12.1111 5.13761 12.4271 5.53534 12.6481 6.0568C12.869 6.57606 12.9784 7.20579 12.9762 7.94601C12.9762 8.69064 12.8657 9.327 12.6447 9.8551C12.426 10.3832 12.1122 10.7864 11.7035 11.0649C11.2947 11.3433 10.8053 11.4825 10.2352 11.4825ZM10.2352 10.2926C10.6241 10.2926 10.9345 10.097 11.1665 9.70595C11.3985 9.31485 11.5134 8.7282 11.5112 7.94601C11.5112 7.43117 11.4582 7.00251 11.3521 6.66002C11.2483 6.31754 11.1002 6.06012 10.908 5.88777C10.718 5.71542 10.4937 5.62925 10.2352 5.62925C9.8485 5.62925 9.53915 5.82259 9.30715 6.20927C9.07514 6.59594 8.95803 7.17486 8.95582 7.94601C8.95582 8.46747 9.00775 8.90276 9.1116 9.25188C9.21766 9.59879 9.36681 9.85952 9.55904 10.0341C9.75128 10.2064 9.97665 10.2926 10.2352 10.2926Z" fill="white"/>
</g>
<defs>
<clipPath id="clip0_1741_62329">
<rect width="16" height="16" fill="white"/>
</clipPath>
</defs>
</svg>
