<svg width="16" height="16" viewBox="0 0 16 16" fill="none" xmlns="http://www.w3.org/2000/svg">
<path d="M5.3335 7.33334C4.96531 7.33334 4.66683 7.63182 4.66683 8.00001C4.66683 8.3682 4.96531 8.66668 5.3335 8.66668H10.6668C11.035 8.66668 11.3335 8.3682 11.3335 8.00001C11.3335 7.63182 11.035 7.33334 10.6668 7.33334H5.3335Z" fill="#292737"/>
<path fill-rule="evenodd" clip-rule="evenodd" d="M3.3335 1.33334C2.22893 1.33334 1.3335 2.22877 1.3335 3.33334V12.6667C1.3335 13.7712 2.22893 14.6667 3.3335 14.6667H12.6668C13.7714 14.6667 14.6668 13.7712 14.6668 12.6667V3.33334C14.6668 2.22877 13.7714 1.33334 12.6668 1.33334H3.3335ZM2.66683 3.33334C2.66683 2.96515 2.96531 2.66668 3.3335 2.66668H12.6668C13.035 2.66668 13.3335 2.96515 13.3335 3.33334V12.6667C13.3335 13.0349 13.035 13.3333 12.6668 13.3333H3.3335C2.96531 13.3333 2.66683 13.0349 2.66683 12.6667V3.33334Z" fill="#292737"/>
</svg>
