<svg width="16" height="16" viewBox="0 0 16 16" fill="none" xmlns="http://www.w3.org/2000/svg">
<path d="M3.33333 2.66667C3.33333 2.29848 3.03486 2 2.66667 2C2.29848 2 2 2.29848 2 2.66667V7.33333C2 8.21739 2.35119 9.06523 2.97631 9.69036C3.60143 10.3155 4.44928 10.6667 5.33333 10.6667H11.7239L9.5286 12.8619C9.26825 13.1223 9.26825 13.5444 9.5286 13.8047C9.78895 14.0651 10.2111 14.0651 10.4714 13.8047L13.8047 10.4714C14.0651 10.2111 14.0651 9.78895 13.8047 9.5286L10.4714 6.19526C10.2111 5.93491 9.78895 5.93491 9.5286 6.19526C9.26825 6.45561 9.26825 6.87772 9.5286 7.13807L11.7239 9.33333H5.33333C4.8029 9.33333 4.29419 9.12262 3.91912 8.74755C3.54405 8.37247 3.33333 7.86377 3.33333 7.33333V2.66667Z" fill="#292737"/>
</svg>
