<svg width="16" height="16" viewBox="0 0 16 16" fill="none" xmlns="http://www.w3.org/2000/svg">
<path d="M5.52876 5.52857C5.78911 5.26823 6.21122 5.26823 6.47157 5.52857L8.00016 7.05717L9.52876 5.52857C9.78911 5.26823 10.2112 5.26823 10.4716 5.52857C10.7319 5.78892 10.7319 6.21103 10.4716 6.47138L8.94297 7.99998L10.4716 9.52857C10.7319 9.78892 10.7319 10.211 10.4716 10.4714C10.2112 10.7317 9.78911 10.7317 9.52876 10.4714L8.00016 8.94279L6.47157 10.4714C6.21122 10.7317 5.78911 10.7317 5.52876 10.4714C5.26841 10.211 5.26841 9.78892 5.52876 9.52857L7.05735 7.99998L5.52876 6.47138C5.26841 6.21103 5.26841 5.78892 5.52876 5.52857Z" fill="#292737"/>
<path fill-rule="evenodd" clip-rule="evenodd" d="M1.3335 3.33331C1.3335 2.22874 2.22893 1.33331 3.3335 1.33331H12.6668C13.7714 1.33331 14.6668 2.22874 14.6668 3.33331V12.6666C14.6668 13.7712 13.7714 14.6666 12.6668 14.6666H3.3335C2.22893 14.6666 1.3335 13.7712 1.3335 12.6666V3.33331ZM3.3335 2.66665C2.96531 2.66665 2.66683 2.96512 2.66683 3.33331V12.6666C2.66683 13.0348 2.96531 13.3333 3.3335 13.3333H12.6668C13.035 13.3333 13.3335 13.0348 13.3335 12.6666V3.33331C13.3335 2.96512 13.035 2.66665 12.6668 2.66665H3.3335Z" fill="#292737"/>
</svg>
