<svg width="16" height="16" viewBox="0 0 16 16" fill="none" xmlns="http://www.w3.org/2000/svg">
<g clip-path="url(#clip0_1741_62039)">
<path fill-rule="evenodd" clip-rule="evenodd" d="M0.666504 7.99999C0.666504 3.9499 3.94975 0.666656 7.99984 0.666656C12.0499 0.666656 15.3332 3.9499 15.3332 7.99999C15.3332 12.0501 12.0499 15.3333 7.99984 15.3333C3.94975 15.3333 0.666504 12.0501 0.666504 7.99999ZM8.6665 13.9634V12C8.6665 11.6318 8.36803 11.3333 7.99984 11.3333C7.63165 11.3333 7.33317 11.6318 7.33317 12V13.9634C4.55209 13.6559 2.34389 11.4477 2.03646 8.66666H3.99984C4.36803 8.66666 4.6665 8.36818 4.6665 7.99999C4.6665 7.6318 4.36803 7.33332 3.99984 7.33332H2.03646C2.34389 4.55225 4.55209 2.34404 7.33317 2.03661V3.99999C7.33317 4.36818 7.63165 4.66666 7.99984 4.66666C8.36803 4.66666 8.6665 4.36818 8.6665 3.99999V2.03661C11.4476 2.34404 13.6558 4.55225 13.9632 7.33332H11.9998C11.6316 7.33332 11.3332 7.6318 11.3332 7.99999C11.3332 8.36818 11.6316 8.66666 11.9998 8.66666H13.9632C13.6558 11.4477 11.4476 13.6559 8.6665 13.9634Z" fill="#292737"/>
</g>
<defs>
<clipPath id="clip0_1741_62039">
<rect width="16" height="16" fill="white"/>
</clipPath>
</defs>
</svg>
