<svg width="16" height="16" viewBox="0 0 16 16" fill="none" xmlns="http://www.w3.org/2000/svg">
<path fill-rule="evenodd" clip-rule="evenodd" d="M3.81728 3.8169C4.11013 3.52396 4.11006 3.04909 3.81712 2.75624C3.52418 2.46339 3.04931 2.46346 2.75646 2.7564C1.36605 4.14723 0.584961 6.03335 0.584961 7.99999C0.584961 9.96662 1.36605 11.8527 2.75646 13.2436C3.04931 13.5365 3.52418 13.5366 3.81712 13.2437C4.11006 12.9509 4.11013 12.476 3.81728 12.1831C2.70808 11.0735 2.08496 9.56887 2.08496 7.99999C2.08496 6.4311 2.70808 4.92644 3.81728 3.8169ZM13.2439 2.7564C12.9511 2.46346 12.4762 2.46339 12.1833 2.75624C11.8903 3.04909 11.8903 3.52396 12.1831 3.8169C13.2923 4.92644 13.9154 6.4311 13.9154 7.99999C13.9154 9.56887 13.2923 11.0735 12.1831 12.1831C11.8903 12.476 11.8903 12.9509 12.1833 13.2437C12.4762 13.5366 12.9511 13.5365 13.2439 13.2436C14.6344 11.8527 15.4154 9.96662 15.4154 7.99999C15.4154 6.03335 14.6344 4.14723 13.2439 2.7564ZM5.70357 5.69728C5.99663 5.40455 5.99689 4.92967 5.70416 4.63662C5.41143 4.34356 4.93656 4.3433 4.6435 4.63603C4.20186 5.07717 3.85151 5.60104 3.61247 6.17769C3.37343 6.75433 3.25039 7.37243 3.25039 7.99665C3.25039 8.62088 3.37343 9.23898 3.61247 9.81562C3.85151 10.3923 4.20186 10.9161 4.6435 11.3573C4.93656 11.65 5.41143 11.6497 5.70416 11.3567C5.99689 11.0636 5.99663 10.5888 5.70357 10.296C5.4014 9.99419 5.16168 9.63575 4.99813 9.24121C4.83457 8.84666 4.75039 8.42375 4.75039 7.99665C4.75039 7.56955 4.83457 7.14664 4.99813 6.7521C5.16168 6.35755 5.4014 5.99911 5.70357 5.69728ZM11.3569 4.64269C11.0638 4.34996 10.589 4.35023 10.2962 4.64328C10.0035 4.93634 10.0038 5.41121 10.2968 5.70394C10.599 6.00578 10.8387 6.36422 11.0023 6.75876C11.1658 7.15331 11.25 7.57622 11.25 8.00332C11.25 8.43042 11.1658 8.85333 11.0023 9.24787C10.8387 9.64242 10.599 10.0009 10.2968 10.3027C10.0038 10.5954 10.0035 11.0703 10.2962 11.3634C10.589 11.6564 11.0638 11.6567 11.3569 11.3639C11.7985 10.9228 12.1489 10.3989 12.3879 9.82229C12.627 9.24564 12.75 8.62754 12.75 8.00332C12.75 7.3791 12.627 6.76099 12.3879 6.18435C12.1489 5.60771 11.7985 5.08384 11.3569 4.64269ZM7.41683 7.99999C7.41683 7.67782 7.678 7.41666 8.00016 7.41666C8.32233 7.41666 8.5835 7.67782 8.5835 7.99999C8.5835 8.32216 8.32233 8.58332 8.00016 8.58332C7.678 8.58332 7.41683 8.32216 7.41683 7.99999ZM8.00016 5.91666C6.84957 5.91666 5.91683 6.8494 5.91683 7.99999C5.91683 9.15058 6.84957 10.0833 8.00016 10.0833C9.15076 10.0833 10.0835 9.15058 10.0835 7.99999C10.0835 6.8494 9.15076 5.91666 8.00016 5.91666Z" fill="#292737"/>
</svg>
