<svg width="16" height="16" viewBox="0 0 16 16" fill="none" xmlns="http://www.w3.org/2000/svg">
<path d="M10.0002 1.33334C9.63197 1.33334 9.3335 1.63182 9.3335 2.00001C9.3335 2.3682 9.63197 2.66668 10.0002 2.66668H12.3907L8.86209 6.19527C8.60174 6.45562 8.60174 6.87773 8.86209 7.13808C9.12244 7.39843 9.54455 7.39843 9.8049 7.13808L13.3335 3.60949V6.00001C13.3335 6.3682 13.632 6.66668 14.0002 6.66668C14.3684 6.66668 14.6668 6.3682 14.6668 6.00001V2.00001C14.6668 1.63182 14.3684 1.33334 14.0002 1.33334H10.0002Z" fill="#292737"/>
<path d="M2.66683 10C2.66683 9.63182 2.36835 9.33334 2.00016 9.33334C1.63197 9.33334 1.3335 9.63182 1.3335 10V14C1.3335 14.3682 1.63197 14.6667 2.00016 14.6667H6.00016C6.36835 14.6667 6.66683 14.3682 6.66683 14C6.66683 13.6318 6.36835 13.3333 6.00016 13.3333H3.60964L7.13823 9.80475C7.39858 9.5444 7.39858 9.12229 7.13823 8.86194C6.87788 8.60159 6.45577 8.60159 6.19542 8.86194L2.66683 12.3905V10Z" fill="#292737"/>
</svg>
