<svg width="16" height="16" viewBox="0 0 16 16" fill="none" xmlns="http://www.w3.org/2000/svg">
<g clip-path="url(#clip0_1741_61792)">
<path d="M8.47124 4.86193C8.73159 5.12228 8.73159 5.54439 8.47124 5.80474L6.94265 7.33334L10.6665 7.33334C11.0347 7.33334 11.3332 7.63182 11.3332 8.00001C11.3332 8.3682 11.0347 8.66667 10.6665 8.66667L6.94265 8.66667L8.47124 10.1953C8.73159 10.4556 8.73159 10.8777 8.47124 11.1381C8.21089 11.3984 7.78878 11.3984 7.52843 11.1381L4.86177 8.47141C4.60142 8.21106 4.60142 7.78895 4.86177 7.5286L7.52843 4.86193C7.78878 4.60158 8.21089 4.60158 8.47124 4.86193Z" fill="#292737"/>
<path fill-rule="evenodd" clip-rule="evenodd" d="M0.666504 8.00001C0.666504 3.94992 3.94975 0.666672 7.99984 0.666672C12.0499 0.666672 15.3332 3.94992 15.3332 8.00001C15.3332 12.0501 12.0499 15.3333 7.99984 15.3333C3.94975 15.3333 0.666504 12.0501 0.666504 8.00001ZM7.99984 2.00001C4.68613 2.00001 1.99984 4.6863 1.99984 8.00001C1.99984 11.3137 4.68613 14 7.99984 14C11.3135 14 13.9998 11.3137 13.9998 8.00001C13.9998 4.6863 11.3135 2.00001 7.99984 2.00001Z" fill="#292737"/>
</g>
<defs>
<clipPath id="clip0_1741_61792">
<rect width="16" height="16" fill="white"/>
</clipPath>
</defs>
</svg>
