<svg width="16" height="16" viewBox="0 0 16 16" fill="none" xmlns="http://www.w3.org/2000/svg">
<path d="M8.00016 2C8.36835 2 8.66683 2.29848 8.66683 2.66667V13.3333C8.66683 13.7015 8.36835 14 8.00016 14C7.63197 14 7.3335 13.7015 7.3335 13.3333V2.66667C7.3335 2.29848 7.63197 2 8.00016 2Z" fill="#292737"/>
<path d="M12.0002 6C12.3684 6 12.6668 6.29848 12.6668 6.66667V13.3333C12.6668 13.7015 12.3684 14 12.0002 14C11.632 14 11.3335 13.7015 11.3335 13.3333V6.66667C11.3335 6.29848 11.632 6 12.0002 6Z" fill="#292737"/>
<path d="M4.66683 9.33333C4.66683 8.96514 4.36835 8.66667 4.00016 8.66667C3.63197 8.66667 3.3335 8.96514 3.3335 9.33333V13.3333C3.3335 13.7015 3.63197 14 4.00016 14C4.36835 14 4.66683 13.7015 4.66683 13.3333V9.33333Z" fill="#292737"/>
</svg>
