<svg width="16" height="16" viewBox="0 0 16 16" fill="none" xmlns="http://www.w3.org/2000/svg">
<g clip-path="url(#clip0_1741_61746)">
<path fill-rule="evenodd" clip-rule="evenodd" d="M10.6665 3.33334C10.6665 4.5759 9.81666 5.61997 8.6665 5.91599V13.9629C10.0125 13.8124 11.2755 13.2096 12.2425 12.2426C13.2094 11.2757 13.8123 10.0127 13.9627 8.66667H12.6665C12.2983 8.66667 11.9998 8.3682 11.9998 8.00001C11.9998 7.63181 12.2983 7.33334 12.6665 7.33334H14.6665C15.0347 7.33334 15.3332 7.63181 15.3332 8.00001C15.3332 9.94493 14.5606 11.8102 13.1853 13.1855C11.81 14.5607 9.94476 15.3333 7.99984 15.3333C6.05492 15.3333 4.18965 14.5607 2.81439 13.1855C1.43912 11.8102 0.666504 9.94493 0.666504 8.00001C0.666504 7.82319 0.736742 7.65363 0.861766 7.5286C0.98679 7.40358 1.15636 7.33334 1.33317 7.33334H3.33317C3.70136 7.33334 3.99984 7.63181 3.99984 8.00001C3.99984 8.3682 3.70136 8.66667 3.33317 8.66667H2.03697C2.18742 10.0127 2.79025 11.2757 3.7572 12.2426C4.72415 13.2096 5.98716 13.8124 7.33317 13.9629V5.91599C6.18302 5.61997 5.33317 4.5759 5.33317 3.33334C5.33317 1.86058 6.52708 0.666672 7.99984 0.666672C9.4726 0.666672 10.6665 1.86058 10.6665 3.33334ZM7.99984 2.00001C7.26346 2.00001 6.6665 2.59696 6.6665 3.33334C6.6665 4.06972 7.26346 4.66667 7.99984 4.66667C8.73622 4.66667 9.33317 4.06972 9.33317 3.33334C9.33317 2.59696 8.73622 2.00001 7.99984 2.00001Z" fill="#292737"/>
</g>
<defs>
<clipPath id="clip0_1741_61746">
<rect width="16" height="16" fill="white"/>
</clipPath>
</defs>
</svg>
