<svg width="16" height="16" viewBox="0 0 16 16" fill="none" xmlns="http://www.w3.org/2000/svg">
<g clip-path="url(#clip0_1741_61832)">
<path fill-rule="evenodd" clip-rule="evenodd" d="M7.74472 0.0507512C7.99383 -0.0524361 8.28058 0.00460104 8.47124 0.195266L12.1379 3.86193C12.3983 4.12228 12.3983 4.54439 12.1379 4.80474L8.94265 8L12.1379 11.1953C12.3983 11.4556 12.3983 11.8777 12.1379 12.1381L8.47124 15.8047C8.28058 15.9954 7.99383 16.0524 7.74472 15.9493C7.4956 15.8461 7.33317 15.603 7.33317 15.3333V9.60948L4.80458 12.1381C4.54423 12.3984 4.12212 12.3984 3.86177 12.1381C3.60142 11.8777 3.60142 11.4556 3.86177 11.1953L7.05703 8L3.86177 4.80474C3.60142 4.54439 3.60142 4.12228 3.86177 3.86193C4.12212 3.60158 4.54423 3.60158 4.80458 3.86193L7.33317 6.39053V0.666671C7.33317 0.397029 7.4956 0.153939 7.74472 0.0507512ZM8.6665 9.60948L10.7237 11.6667L8.6665 13.7239V9.60948ZM8.6665 6.39053V2.27615L10.7237 4.33334L8.6665 6.39053Z" fill="#292737"/>
</g>
<defs>
<clipPath id="clip0_1741_61832">
<rect width="16" height="16" fill="white"/>
</clipPath>
</defs>
</svg>
