<svg width="16" height="16" viewBox="0 0 16 16" fill="none" xmlns="http://www.w3.org/2000/svg">
<g clip-path="url(#clip0_1741_62081)">
<path fill-rule="evenodd" clip-rule="evenodd" d="M7.99984 0.666656C3.94975 0.666656 0.666504 3.9499 0.666504 7.99999C0.666504 12.0501 3.94975 15.3333 7.99984 15.3333C12.0499 15.3333 15.3332 12.0501 15.3332 7.99999C15.3332 3.9499 12.0499 0.666656 7.99984 0.666656ZM6.74071 2.13233C7.14672 2.04562 7.56795 1.99999 7.99984 1.99999C9.46475 1.99999 10.807 2.52497 11.8488 3.39707C10.9912 4.28194 10.0054 4.94317 8.84175 5.42957C8.25706 4.36402 7.57449 3.31161 6.74071 2.13233ZM5.42283 2.58004C3.80497 3.35066 2.58653 4.82433 2.16262 6.60596C4.28108 6.52552 6.05528 6.30766 7.56399 5.87484C6.98274 4.83962 6.29156 3.79325 5.42283 2.58004ZM2.00008 7.94596C1.99992 7.96395 1.99984 7.98196 1.99984 7.99999C1.99984 9.47401 2.53137 10.8239 3.41323 11.8684C4.96728 9.80118 6.57048 8.55446 8.31592 7.93205L8.31682 7.93173C8.3926 7.90483 8.46945 7.87901 8.54734 7.85429C8.48833 7.71823 8.42831 7.58369 8.36718 7.45037C8.31002 7.32572 8.25182 7.20199 8.19246 7.07893C6.42021 7.62396 4.37293 7.86671 2.00008 7.94596ZM4.38809 12.7916C5.39289 13.5502 6.64383 14 7.99984 14C8.83158 14 9.62379 13.8308 10.3439 13.5248C9.90857 11.753 9.49877 10.3387 9.04305 9.09666C8.94737 9.12536 8.85402 9.15589 8.76308 9.18817C7.29785 9.71083 5.86258 10.7947 4.38809 12.7916ZM11.5476 12.8393C12.7539 11.9534 13.6168 10.6273 13.8996 9.09775C12.5955 8.79658 11.3991 8.72871 10.3672 8.83729C10.7842 10.0014 11.1606 11.2959 11.5476 12.8393ZM13.9948 7.7529C13.9433 6.48019 13.4953 5.30961 12.771 4.36134C11.8024 5.35151 10.7032 6.08377 9.45093 6.61988C9.49421 6.71098 9.53694 6.80253 9.57916 6.89461C9.67887 7.11204 9.77555 7.33205 9.86966 7.5557C11.0991 7.37876 12.5008 7.43077 13.9948 7.7529Z" fill="#292737"/>
</g>
<defs>
<clipPath id="clip0_1741_62081">
<rect width="16" height="16" fill="white"/>
</clipPath>
</defs>
</svg>
