<svg width="16" height="16" viewBox="0 0 16 16" fill="none" xmlns="http://www.w3.org/2000/svg">
<path fill-rule="evenodd" clip-rule="evenodd" d="M0.666667 1.33331C0.298477 1.33331 0 1.63179 0 1.99998V10.6666C0 11.0348 0.298477 11.3333 0.666667 11.3333H1.55788C1.4139 11.6364 1.33333 11.9754 1.33333 12.3333C1.33333 13.622 2.378 14.6666 3.66667 14.6666C4.95533 14.6666 6 13.622 6 12.3333C6 11.9754 5.91944 11.6364 5.77546 11.3333H10.2245C10.0806 11.6364 10 11.9754 10 12.3333C10 13.622 11.0447 14.6666 12.3333 14.6666C13.622 14.6666 14.6667 13.622 14.6667 12.3333C14.6667 11.9754 14.5861 11.6364 14.4421 11.3333H15.3333C15.7015 11.3333 16 11.0348 16 10.6666V7.33331C16 7.1565 15.9298 6.98693 15.8047 6.86191L13.8047 4.86191C13.6797 4.73688 13.5101 4.66665 13.3333 4.66665H11.3333V1.99998C11.3333 1.63179 11.0349 1.33331 10.6667 1.33331H0.666667ZM14.6667 9.99998V7.60945L13.0572 5.99998H11.3333V9.99998H14.6667ZM12.3333 11.3333C11.781 11.3333 11.3333 11.781 11.3333 12.3333C11.3333 12.8856 11.781 13.3333 12.3333 13.3333C12.8856 13.3333 13.3333 12.8856 13.3333 12.3333C13.3333 11.781 12.8856 11.3333 12.3333 11.3333ZM2.66667 12.3333C2.66667 11.781 3.11438 11.3333 3.66667 11.3333C4.21895 11.3333 4.66667 11.781 4.66667 12.3333C4.66667 12.8856 4.21895 13.3333 3.66667 13.3333C3.11438 13.3333 2.66667 12.8856 2.66667 12.3333ZM10 9.99998H1.33333V2.66665H10V9.99998Z" fill="#292737"/>
</svg>
