<svg width="16" height="16" viewBox="0 0 16 16" fill="none" xmlns="http://www.w3.org/2000/svg">
<path fill-rule="evenodd" clip-rule="evenodd" d="M6 3.33333C3.42267 3.33333 1.33333 5.42267 1.33333 8C1.33333 10.5773 3.42267 12.6667 6 12.6667H12C13.4728 12.6667 14.6667 11.4728 14.6667 10C14.6667 8.52724 13.4728 7.33333 12 7.33333H11.1653C10.8611 7.33333 10.5955 7.12743 10.5197 6.83284C10.0016 4.81993 8.17356 3.33333 6 3.33333ZM0 8C0 4.68629 2.68629 2 6 2C8.6131 2 10.8347 3.66993 11.6584 6H12C14.2091 6 16 7.79086 16 10C16 12.2091 14.2091 14 12 14H6C2.68629 14 0 11.3137 0 8Z" fill="#292737"/>
</svg>
