<svg width="16" height="16" viewBox="0 0 16 16" fill="none" xmlns="http://www.w3.org/2000/svg">
<g clip-path="url(#clip0_1741_62037)">
<path fill-rule="evenodd" clip-rule="evenodd" d="M4.75331 0.672445C4.7565 0.304269 4.46062 0.00321644 4.09245 2.55673e-05C3.72427 -0.00316527 3.42322 0.292714 3.42003 0.66089L3.39632 3.39632L0.66089 3.42003C0.292714 3.42322 -0.00316527 3.72427 2.55673e-05 4.09245C0.00321644 4.46062 0.304269 4.7565 0.672445 4.75331L3.38476 4.7298L3.33336 10.6609L3.33333 10.6667C3.33333 11.1971 3.54405 11.7058 3.91912 12.0809C4.29419 12.456 4.8029 12.6667 5.33333 12.6667H11.3333V15.3333C11.3333 15.7015 11.6318 16 12 16C12.3682 16 12.6667 15.7015 12.6667 15.3333V12.6667H15.3333C15.7015 12.6667 16 12.3682 16 12C16 11.6318 15.7015 11.3333 15.3333 11.3333H12.6667V5.33333C12.6667 4.8029 12.456 4.29419 12.0809 3.91912C11.7058 3.54405 11.1971 3.33333 10.6667 3.33333L10.6609 3.33336L4.7298 3.38476L4.75331 0.672445ZM4.71825 4.71825L4.66667 10.6691C4.6673 10.845 4.73747 11.0136 4.86193 11.1381C4.98695 11.2631 5.15652 11.3333 5.33333 11.3333H11.3333V5.33333C11.3333 5.15652 11.2631 4.98695 11.1381 4.86193C11.0136 4.73747 10.845 4.6673 10.6691 4.66667L4.71825 4.71825Z" fill="#292737"/>
</g>
<defs>
<clipPath id="clip0_1741_62037">
<rect width="16" height="16" fill="white"/>
</clipPath>
</defs>
</svg>
