<svg width="16" height="16" viewBox="0 0 16 16" fill="none" xmlns="http://www.w3.org/2000/svg">
<g clip-path="url(#clip0_1741_62085)">
<path fill-rule="evenodd" clip-rule="evenodd" d="M1.13807 0.195262C0.877722 -0.0650874 0.455612 -0.0650874 0.195262 0.195262C-0.0650874 0.455612 -0.0650874 0.877722 0.195262 1.13807L2.07786 3.02067C2.02778 3.11492 2 3.22177 2 3.33334V8.00001C2 10.2976 3.52116 12.1335 4.89433 13.3351C5.59492 13.9481 6.29236 14.4272 6.81333 14.7528C7.07452 14.9161 7.29312 15.0418 7.44796 15.1275C7.52542 15.1704 7.58705 15.2034 7.63021 15.226C7.6518 15.2373 7.66878 15.2461 7.68083 15.2523L7.69516 15.2596L7.69948 15.2618L7.70091 15.2625C7.70113 15.2626 7.70186 15.263 8 14.6667L7.70186 15.263C7.89414 15.3591 8.12099 15.3566 8.31112 15.2563C9.58474 14.5843 10.7475 13.723 11.7601 12.7029L14.8619 15.8047C15.1223 16.0651 15.5444 16.0651 15.8047 15.8047C16.0651 15.5444 16.0651 15.1223 15.8047 14.8619L12.2211 11.2783C12.2194 11.2765 12.2176 11.2748 12.2158 11.273L3.63521 2.6924C3.62856 2.68546 3.62178 2.67868 3.61486 2.67205L1.13807 0.195262ZM3.33333 4.27614V8.00001C3.33333 9.70238 4.47884 11.1998 5.77234 12.3316C6.40508 12.8853 7.04097 13.3228 7.52 13.6222C7.70837 13.7399 7.87138 13.8356 7.99899 13.9079C9.03341 13.3253 9.98178 12.6023 10.8173 11.7601L3.33333 4.27614Z" fill="#292737"/>
<path d="M7.76684 0.70879C7.91755 0.652514 8.08352 0.652629 8.23414 0.709114L13.5675 2.70911C13.8277 2.80669 14.0001 3.05544 14.0001 3.33333V8.00439C13.9966 8.52211 13.9169 9.0365 13.7634 9.53096C13.6543 9.8826 13.2807 10.0792 12.9291 9.97003C12.5775 9.86089 12.3809 9.48735 12.49 9.13571C12.6044 8.7671 12.664 8.38367 12.6667 7.99774V3.79533L7.99956 2.04515L6.12661 2.74454C5.78168 2.87335 5.39765 2.69814 5.26885 2.35322C5.14005 2.00829 5.31525 1.62426 5.66018 1.49546L7.76684 0.70879Z" fill="#292737"/>
</g>
<defs>
<clipPath id="clip0_1741_62085">
<rect width="16" height="16" fill="white"/>
</clipPath>
</defs>
</svg>
