<svg width="16" height="16" viewBox="0 0 16 16" fill="none" xmlns="http://www.w3.org/2000/svg">
<path fill-rule="evenodd" clip-rule="evenodd" d="M6.74029 1.33742C7.10623 1.37808 7.36992 1.70769 7.32926 2.07363L6.96707 5.33334H9.62553L10.0041 1.92639C10.0447 1.56045 10.3743 1.29676 10.7403 1.33742C11.1062 1.37808 11.3699 1.70769 11.3293 2.07363L10.9671 5.33334H13.3333C13.7015 5.33334 14 5.63182 14 6.00001C14 6.3682 13.7015 6.66667 13.3333 6.66667H10.8189L10.5226 9.33334H13.3333C13.7015 9.33334 14 9.63182 14 10C14 10.3682 13.7015 10.6667 13.3333 10.6667H10.3745L9.99592 14.0736C9.95526 14.4396 9.62565 14.7033 9.25971 14.6626C8.89377 14.6219 8.63008 14.2923 8.67074 13.9264L9.03293 10.6667H6.37447L5.99592 14.0736C5.95526 14.4396 5.62565 14.7033 5.25971 14.6626C4.89377 14.6219 4.63008 14.2923 4.67074 13.9264L5.03293 10.6667H2.66667C2.29848 10.6667 2 10.3682 2 10C2 9.63182 2.29848 9.33334 2.66667 9.33334H5.18108L5.47738 6.66667H2.66667C2.29848 6.66667 2 6.3682 2 6.00001C2 5.63182 2.29848 5.33334 2.66667 5.33334H5.62553L6.00408 1.92639C6.04474 1.56045 6.37435 1.29676 6.74029 1.33742ZM9.18108 9.33334L9.47738 6.66667H6.81892L6.52262 9.33334H9.18108Z" fill="#292737"/>
</svg>
