<svg width="16" height="16" viewBox="0 0 16 16" fill="none" xmlns="http://www.w3.org/2000/svg">
<path fill-rule="evenodd" clip-rule="evenodd" d="M3.3335 1.33334C2.80306 1.33334 2.29436 1.54406 1.91928 1.91913C1.54421 2.2942 1.3335 2.80291 1.3335 3.33334V12.6667C1.3335 13.1971 1.54421 13.7058 1.91928 14.0809C2.29435 14.456 2.80306 14.6667 3.3335 14.6667H12.6668C13.1973 14.6667 13.706 14.456 14.081 14.0809C14.4561 13.7058 14.6668 13.1971 14.6668 12.6667V5.33334C14.6668 5.15653 14.5966 4.98696 14.4716 4.86194L11.1382 1.52861C11.0132 1.40358 10.8436 1.33334 10.6668 1.33334H3.3335ZM3.3335 2.66668C3.15668 2.66668 2.98712 2.73691 2.86209 2.86194C2.73707 2.98696 2.66683 3.15653 2.66683 3.33334V12.6667C2.66683 12.8435 2.73707 13.0131 2.86209 13.1381C2.98712 13.2631 3.15669 13.3333 3.3335 13.3333H4.00016V8.66668C4.00016 8.29849 4.29864 8.00001 4.66683 8.00001H11.3335C11.7017 8.00001 12.0002 8.29849 12.0002 8.66668V13.3333H12.6668C12.8436 13.3333 13.0132 13.2631 13.1382 13.1381C13.2633 13.0131 13.3335 12.8435 13.3335 12.6667V5.60949L10.3907 2.66668H5.3335V4.66668H10.0002C10.3684 4.66668 10.6668 4.96515 10.6668 5.33334C10.6668 5.70153 10.3684 6.00001 10.0002 6.00001H4.66683C4.29864 6.00001 4.00016 5.70153 4.00016 5.33334V2.66668H3.3335ZM5.3335 9.33334V13.3333H10.6668V9.33334H5.3335Z" fill="#292737"/>
</svg>
