<svg width="16" height="16" viewBox="0 0 16 16" fill="none" xmlns="http://www.w3.org/2000/svg">
<path fill-rule="evenodd" clip-rule="evenodd" d="M3.74963 2.14609C3.54952 1.986 3.27536 1.95479 3.04438 2.0658C2.8134 2.17682 2.6665 2.4104 2.6665 2.66667V13.3333C2.6665 13.5896 2.8134 13.8232 3.04438 13.9342C3.27536 14.0452 3.54952 14.014 3.74963 13.8539L10.4163 8.52059C10.5744 8.39407 10.6665 8.20253 10.6665 8.00001C10.6665 7.79748 10.5744 7.60594 10.4163 7.47943L3.74963 2.14609ZM8.93265 8.00001L3.99984 11.9463V4.05376L8.93265 8.00001Z" fill="#292737"/>
<path d="M13.3332 3.33334C13.3332 2.96515 13.0347 2.66667 12.6665 2.66667C12.2983 2.66667 11.9998 2.96515 11.9998 3.33334V12.6667C11.9998 13.0349 12.2983 13.3333 12.6665 13.3333C13.0347 13.3333 13.3332 13.0349 13.3332 12.6667V3.33334Z" fill="#292737"/>
</svg>
