<svg width="16" height="16" viewBox="0 0 16 16" fill="none" xmlns="http://www.w3.org/2000/svg">
<path fill-rule="evenodd" clip-rule="evenodd" d="M0 4C0 2.89543 0.895431 2 2 2H14C15.1046 2 16 2.89543 16 4V12C16 13.1046 15.1046 14 14 14H2C0.895431 14 0 13.1046 0 12V4ZM1.33333 4C1.33333 3.63181 1.63181 3.33333 2 3.33333H14C14.3682 3.33333 14.6667 3.63181 14.6667 4V6H1.33333V4ZM14.6667 7.33333V12C14.6667 12.3682 14.3682 12.6667 14 12.6667H2C1.63181 12.6667 1.33333 12.3682 1.33333 12V7.33333H14.6667Z" fill="#292737"/>
</svg>
