<svg width="16" height="16" viewBox="0 0 16 16" fill="none" xmlns="http://www.w3.org/2000/svg">
<path d="M5.42739 3.33089C6.44002 2.77254 7.6067 2.55843 8.7516 2.72082C9.89651 2.88322 10.9576 3.41332 11.775 4.23126C11.7798 4.23602 11.7846 4.24072 11.7895 4.24534L13.6222 5.99999H11.3333C10.9651 5.99999 10.6667 6.29847 10.6667 6.66666C10.6667 7.03485 10.9651 7.33332 11.3333 7.33332H15.3333C15.7015 7.33332 16 7.03485 16 6.66666V2.66666C16 2.29847 15.7015 1.99999 15.3333 1.99999C14.9651 1.99999 14.6667 2.29847 14.6667 2.66666V5.1541L12.7108 3.28142C11.69 2.26317 10.3666 1.60321 8.93885 1.4007C7.50772 1.19771 6.04938 1.46535 4.78359 2.16329C3.5178 2.86124 2.51314 3.95167 1.921 5.27028C1.32886 6.58888 1.18133 8.06422 1.50063 9.47397C1.81994 10.8837 2.58877 12.1515 3.69129 13.0863C4.79381 14.0211 6.17028 14.5722 7.61327 14.6566C9.05626 14.741 10.4876 14.3541 11.6916 13.5543C12.8956 12.7545 13.807 11.585 14.2885 10.2221C14.4112 9.87492 14.2292 9.49406 13.882 9.37141C13.5348 9.24876 13.154 9.43076 13.0313 9.77792C12.6461 10.8682 11.917 11.8038 10.9538 12.4437C9.9906 13.0836 8.84553 13.3931 7.69113 13.3255C6.53674 13.258 5.43557 12.8171 4.55356 12.0693C3.67154 11.3215 3.05647 10.3072 2.80103 9.17944C2.54559 8.05164 2.66361 6.87137 3.13732 5.81648C3.61103 4.7616 4.41476 3.88925 5.42739 3.33089Z" fill="#292737"/>
</svg>
