<svg width="16" height="16" viewBox="0 0 16 16" fill="none" xmlns="http://www.w3.org/2000/svg">
<path d="M4.6665 3.99999C4.29831 3.99999 3.99984 4.29847 3.99984 4.66666C3.99984 5.03485 4.29831 5.33332 4.6665 5.33332H4.67317C5.04136 5.33332 5.33984 5.03485 5.33984 4.66666C5.33984 4.29847 5.04136 3.99999 4.67317 3.99999H4.6665Z" fill="#292737"/>
<path fill-rule="evenodd" clip-rule="evenodd" d="M1.33317 0.666656C0.964981 0.666656 0.666504 0.965133 0.666504 1.33332V7.99999C0.666504 8.17694 0.736848 8.34662 0.862041 8.47167L6.58817 14.1911C6.77389 14.377 6.99455 14.5246 7.23729 14.6253C7.48009 14.7259 7.74034 14.7777 8.00317 14.7777C8.266 14.7777 8.52625 14.7259 8.76905 14.6253C9.01173 14.5247 9.23222 14.3772 9.41791 14.1914L14.1979 9.41139L13.7265 8.93999L14.1993 9.40999C14.5718 9.03526 14.7809 8.52836 14.7809 7.99999C14.7809 7.47162 14.5718 6.96472 14.1993 6.58999L8.47124 0.861919C8.34622 0.736894 8.17665 0.666656 7.99984 0.666656H1.33317ZM13.2543 8.46937L13.2537 8.46999L8.4751 13.2486C8.41318 13.3106 8.3394 13.36 8.25846 13.3936C8.17753 13.4271 8.09078 13.4444 8.00317 13.4444C7.91556 13.4444 7.82881 13.4271 7.74788 13.3936C7.66695 13.36 7.59342 13.3108 7.5315 13.2488L7.53097 13.2483L1.99984 7.72362V1.99999H7.7237L13.2537 7.52999L13.2543 7.53061C13.3781 7.65545 13.4476 7.82416 13.4476 7.99999C13.4476 8.17582 13.3781 8.34453 13.2543 8.46937Z" fill="#292737"/>
</svg>
