<svg width="16" height="16" viewBox="0 0 16 16" fill="none" xmlns="http://www.w3.org/2000/svg">
<path d="M7.5286 0.861919C7.78895 0.601569 8.21106 0.601569 8.4714 0.861919L11.1381 3.52859C11.3984 3.78893 11.3984 4.21105 11.1381 4.47139C10.8777 4.73174 10.4556 4.73174 10.1953 4.47139L8.66667 2.9428L8.66667 9.99999C8.66667 10.3682 8.36819 10.6667 8 10.6667C7.63181 10.6667 7.33333 10.3682 7.33333 9.99999L7.33333 2.9428L5.80474 4.47139C5.54439 4.73174 5.12228 4.73174 4.86193 4.47139C4.60158 4.21105 4.60158 3.78893 4.86193 3.52859L7.5286 0.861919Z" fill="#292737"/>
<path d="M2.66667 7.33332C3.03486 7.33332 3.33333 7.6318 3.33333 7.99999V13.3333C3.33333 13.5101 3.40357 13.6797 3.5286 13.8047C3.65362 13.9298 3.82319 14 4 14H12C12.1768 14 12.3464 13.9298 12.4714 13.8047C12.5964 13.6797 12.6667 13.5101 12.6667 13.3333V7.99999C12.6667 7.6318 12.9651 7.33332 13.3333 7.33332C13.7015 7.33332 14 7.6318 14 7.99999V13.3333C14 13.8638 13.7893 14.3725 13.4142 14.7475C13.0391 15.1226 12.5304 15.3333 12 15.3333H4C3.46957 15.3333 2.96086 15.1226 2.58579 14.7475C2.21071 14.3725 2 13.8638 2 13.3333V7.99999C2 7.6318 2.29848 7.33332 2.66667 7.33332Z" fill="#292737"/>
</svg>
