<svg width="16" height="16" viewBox="0 0 16 16" fill="none" xmlns="http://www.w3.org/2000/svg">
<path d="M9.3335 2.00001C9.3335 1.63182 9.63197 1.33334 10.0002 1.33334H14.0002C14.3684 1.33334 14.6668 1.63182 14.6668 2.00001V6.00001C14.6668 6.3682 14.3684 6.66668 14.0002 6.66668C13.632 6.66668 13.3335 6.3682 13.3335 6.00001V3.60949L7.13823 9.80475C6.87788 10.0651 6.45577 10.0651 6.19542 9.80475C5.93508 9.5444 5.93508 9.12229 6.19542 8.86194L12.3907 2.66668H10.0002C9.63197 2.66668 9.3335 2.3682 9.3335 2.00001Z" fill="#292737"/>
<path d="M3.3335 4.66668C3.15668 4.66668 2.98712 4.73691 2.86209 4.86194C2.73707 4.98696 2.66683 5.15653 2.66683 5.33334V12.6667C2.66683 12.8435 2.73707 13.0131 2.86209 13.1381C2.98712 13.2631 3.15669 13.3333 3.3335 13.3333H10.6668C10.8436 13.3333 11.0132 13.2631 11.1382 13.1381C11.2633 13.0131 11.3335 12.8435 11.3335 12.6667V8.66668C11.3335 8.29849 11.632 8.00001 12.0002 8.00001C12.3684 8.00001 12.6668 8.29849 12.6668 8.66668V12.6667C12.6668 13.1971 12.4561 13.7058 12.081 14.0809C11.706 14.456 11.1973 14.6667 10.6668 14.6667H3.3335C2.80306 14.6667 2.29435 14.456 1.91928 14.0809C1.54421 13.7058 1.3335 13.1971 1.3335 12.6667V5.33334C1.3335 4.80291 1.54421 4.2942 1.91928 3.91913C2.29436 3.54406 2.80306 3.33334 3.3335 3.33334H7.3335C7.70169 3.33334 8.00016 3.63182 8.00016 4.00001C8.00016 4.3682 7.70169 4.66668 7.3335 4.66668H3.3335Z" fill="#292737"/>
</svg>
