<svg width="16" height="16" viewBox="0 0 16 16" fill="none" xmlns="http://www.w3.org/2000/svg">
<g clip-path="url(#clip0_1741_62055)">
<path d="M3.33317 3.99999C3.33317 3.6318 3.63165 3.33332 3.99984 3.33332H4.0065C4.37469 3.33332 4.67317 3.6318 4.67317 3.99999C4.67317 4.36818 4.37469 4.66666 4.0065 4.66666H3.99984C3.63165 4.66666 3.33317 4.36818 3.33317 3.99999Z" fill="#292737"/>
<path fill-rule="evenodd" clip-rule="evenodd" d="M2.6665 0.666656C1.56193 0.666656 0.666504 1.56209 0.666504 2.66666V5.33332C0.666504 6.43789 1.56193 7.33332 2.6665 7.33332H13.3332C14.4377 7.33332 15.3332 6.43789 15.3332 5.33332V2.66666C15.3332 1.56209 14.4377 0.666656 13.3332 0.666656H2.6665ZM1.99984 2.66666C1.99984 2.29847 2.29831 1.99999 2.6665 1.99999H13.3332C13.7014 1.99999 13.9998 2.29847 13.9998 2.66666V5.33332C13.9998 5.70151 13.7014 5.99999 13.3332 5.99999H2.6665C2.29831 5.99999 1.99984 5.70151 1.99984 5.33332V2.66666Z" fill="#292737"/>
<path d="M3.99984 11.3333C3.63165 11.3333 3.33317 11.6318 3.33317 12C3.33317 12.3682 3.63165 12.6667 3.99984 12.6667H4.0065C4.37469 12.6667 4.67317 12.3682 4.67317 12C4.67317 11.6318 4.37469 11.3333 4.0065 11.3333H3.99984Z" fill="#292737"/>
<path fill-rule="evenodd" clip-rule="evenodd" d="M2.6665 8.66666C1.56193 8.66666 0.666504 9.56209 0.666504 10.6667V13.3333C0.666504 14.4379 1.56193 15.3333 2.6665 15.3333H13.3332C14.4377 15.3333 15.3332 14.4379 15.3332 13.3333V10.6667C15.3332 9.56209 14.4377 8.66666 13.3332 8.66666H2.6665ZM1.99984 10.6667C1.99984 10.2985 2.29831 9.99999 2.6665 9.99999H13.3332C13.7014 9.99999 13.9998 10.2985 13.9998 10.6667V13.3333C13.9998 13.7015 13.7014 14 13.3332 14H2.6665C2.29831 14 1.99984 13.7015 1.99984 13.3333V10.6667Z" fill="#292737"/>
</g>
<defs>
<clipPath id="clip0_1741_62055">
<rect width="16" height="16" fill="white"/>
</clipPath>
</defs>
</svg>
