<svg width="16" height="16" viewBox="0 0 16 16" fill="none" xmlns="http://www.w3.org/2000/svg">
<path fill-rule="evenodd" clip-rule="evenodd" d="M5.3335 1.33334C5.70169 1.33334 6.00016 1.63182 6.00016 2.00001V4.00001C6.00016 4.53044 5.78945 5.03915 5.41438 5.41422C5.0393 5.7893 4.5306 6.00001 4.00016 6.00001H2.00016C1.63197 6.00001 1.3335 5.70153 1.3335 5.33334C1.3335 4.96515 1.63197 4.66668 2.00016 4.66668H4.00016C4.17697 4.66668 4.34654 4.59644 4.47157 4.47141C4.59659 4.34639 4.66683 4.17682 4.66683 4.00001V2.00001C4.66683 1.63182 4.96531 1.33334 5.3335 1.33334ZM10.6668 1.33334C11.035 1.33334 11.3335 1.63182 11.3335 2.00001V4.00001C11.3335 4.17682 11.4037 4.34639 11.5288 4.47141C11.6538 4.59644 11.8234 4.66668 12.0002 4.66668H14.0002C14.3684 4.66668 14.6668 4.96515 14.6668 5.33334C14.6668 5.70153 14.3684 6.00001 14.0002 6.00001H12.0002C11.4697 6.00001 10.961 5.7893 10.5859 5.41422C10.2109 5.03915 10.0002 4.53044 10.0002 4.00001V2.00001C10.0002 1.63182 10.2986 1.33334 10.6668 1.33334ZM1.3335 10.6667C1.3335 10.2985 1.63197 10 2.00016 10H4.00016C4.5306 10 5.0393 10.2107 5.41438 10.5858C5.78945 10.9609 6.00016 11.4696 6.00016 12V14C6.00016 14.3682 5.70169 14.6667 5.3335 14.6667C4.96531 14.6667 4.66683 14.3682 4.66683 14V12C4.66683 11.8232 4.59659 11.6536 4.47157 11.5286C4.34654 11.4036 4.17697 11.3333 4.00016 11.3333H2.00016C1.63197 11.3333 1.3335 11.0349 1.3335 10.6667ZM12.0002 11.3333C11.8234 11.3333 11.6538 11.4036 11.5288 11.5286C11.4037 11.6536 11.3335 11.8232 11.3335 12V14C11.3335 14.3682 11.035 14.6667 10.6668 14.6667C10.2986 14.6667 10.0002 14.3682 10.0002 14V12C10.0002 11.4696 10.2109 10.9609 10.5859 10.5858C10.961 10.2107 11.4697 10 12.0002 10H14.0002C14.3684 10 14.6668 10.2985 14.6668 10.6667C14.6668 11.0349 14.3684 11.3333 14.0002 11.3333H12.0002Z" fill="#292737"/>
</svg>
