<svg width="16" height="16" viewBox="0 0 16 16" fill="none" xmlns="http://www.w3.org/2000/svg">
<path fill-rule="evenodd" clip-rule="evenodd" d="M2.33333 4.66665C2.33333 2.8257 3.82572 1.33331 5.66667 1.33331C7.50762 1.33331 9 2.8257 9 4.66665C9 6.5076 7.50762 7.99998 5.66667 7.99998C3.82572 7.99998 2.33333 6.5076 2.33333 4.66665ZM5.66667 2.66665C4.5621 2.66665 3.66667 3.56208 3.66667 4.66665C3.66667 5.77122 4.5621 6.66665 5.66667 6.66665C6.77124 6.66665 7.66667 5.77122 7.66667 4.66665C7.66667 3.56208 6.77124 2.66665 5.66667 2.66665Z" fill="#292737"/>
<path d="M0.976311 10.3096C1.60143 9.6845 2.44928 9.33331 3.33333 9.33331H8C8.88406 9.33331 9.7319 9.6845 10.357 10.3096C10.9821 10.9347 11.3333 11.7826 11.3333 12.6666V14C11.3333 14.3682 11.0349 14.6666 10.6667 14.6666C10.2985 14.6666 10 14.3682 10 14V12.6666C10 12.1362 9.78929 11.6275 9.41421 11.2524C9.03914 10.8774 8.53043 10.6666 8 10.6666H3.33333C2.8029 10.6666 2.29419 10.8774 1.91912 11.2524C1.54405 11.6275 1.33333 12.1362 1.33333 12.6666V14C1.33333 14.3682 1.03486 14.6666 0.666667 14.6666C0.298477 14.6666 0 14.3682 0 14V12.6666C0 11.7826 0.35119 10.9347 0.976311 10.3096Z" fill="#292737"/>
<path d="M11.3333 6.66665C10.9651 6.66665 10.6667 6.96512 10.6667 7.33331C10.6667 7.7015 10.9651 7.99998 11.3333 7.99998H15.3333C15.7015 7.99998 16 7.7015 16 7.33331C16 6.96512 15.7015 6.66665 15.3333 6.66665H11.3333Z" fill="#292737"/>
</svg>
