<svg width="16" height="16" viewBox="0 0 16 16" fill="none" xmlns="http://www.w3.org/2000/svg">
<g clip-path="url(#clip0_1741_62285)">
<path d="M8.17199 5.34955C7.86165 5.29632 7.54247 5.35464 7.27101 5.51418C6.99954 5.67373 6.79329 5.9242 6.6888 6.22123C6.56662 6.56856 6.18601 6.75108 5.83869 6.62889C5.49136 6.50671 5.30884 6.1261 5.43103 5.77878C5.64001 5.1847 6.05249 4.68376 6.59543 4.36467C7.13836 4.04558 7.77671 3.92894 8.3974 4.03541C9.0181 4.14187 9.58109 4.46458 9.98665 4.94636C10.3921 5.42804 10.6141 6.03766 10.6132 6.66728C10.6129 7.68752 9.85654 8.36127 9.31638 8.72137C9.02596 8.91499 8.74028 9.05735 8.52984 9.15088C8.42367 9.19807 8.33427 9.23387 8.26985 9.25841C8.23758 9.27071 8.21142 9.28023 8.19238 9.287L8.16923 9.29511L8.16185 9.29763L8.15926 9.29851L8.15824 9.29885C8.15824 9.29885 8.1574 9.29913 7.94658 8.66667L8.1574 9.29913C7.8081 9.41556 7.43056 9.22679 7.31413 8.87749C7.19777 8.52843 7.38622 8.15115 7.73507 8.03445L7.7457 8.03072C7.75596 8.02707 7.77277 8.02097 7.79519 8.01243C7.84014 7.9953 7.90699 7.96861 7.98832 7.93246C8.15288 7.85933 8.3672 7.75169 8.57678 7.61197C9.03652 7.30548 9.27991 6.97943 9.27991 6.66667L9.27992 6.66568C9.28039 6.3508 9.1694 6.04592 8.96662 5.80502C8.76383 5.56413 8.48234 5.40278 8.17199 5.34955Z" fill="#292737"/>
<path d="M7.99984 10.6667C7.63165 10.6667 7.33317 10.9651 7.33317 11.3333C7.33317 11.7015 7.63165 12 7.99984 12H8.0065C8.37469 12 8.67317 11.7015 8.67317 11.3333C8.67317 10.9651 8.37469 10.6667 8.0065 10.6667H7.99984Z" fill="#292737"/>
<path fill-rule="evenodd" clip-rule="evenodd" d="M0.666504 7.99999C0.666504 3.9499 3.94975 0.666656 7.99984 0.666656C12.0499 0.666656 15.3332 3.9499 15.3332 7.99999C15.3332 12.0501 12.0499 15.3333 7.99984 15.3333C3.94975 15.3333 0.666504 12.0501 0.666504 7.99999ZM7.99984 1.99999C4.68613 1.99999 1.99984 4.68628 1.99984 7.99999C1.99984 11.3137 4.68613 14 7.99984 14C11.3135 14 13.9998 11.3137 13.9998 7.99999C13.9998 4.68628 11.3135 1.99999 7.99984 1.99999Z" fill="#292737"/>
</g>
<defs>
<clipPath id="clip0_1741_62285">
<rect width="16" height="16" fill="white"/>
</clipPath>
</defs>
</svg>
