<svg width="16" height="16" viewBox="0 0 16 16" fill="none" xmlns="http://www.w3.org/2000/svg">
<path d="M2.66667 2.66667C2.29848 2.66667 2 2.96515 2 3.33334C2 3.70153 2.29848 4.00001 2.66667 4.00001H13.3333C13.7015 4.00001 14 3.70153 14 3.33334C14 2.96515 13.7015 2.66667 13.3333 2.66667H2.66667Z" fill="#292737"/>
<path d="M2.66667 5.33334C2.29848 5.33334 2 5.63182 2 6.00001C2 6.3682 2.29848 6.66667 2.66667 6.66667H13.3333C13.7015 6.66667 14 6.3682 14 6.00001C14 5.63182 13.7015 5.33334 13.3333 5.33334H2.66667Z" fill="#292737"/>
<path d="M2 12.6667C2 12.2985 2.29848 12 2.66667 12H13.3333C13.7015 12 14 12.2985 14 12.6667C14 13.0349 13.7015 13.3333 13.3333 13.3333H2.66667C2.29848 13.3333 2 13.0349 2 12.6667Z" fill="#292737"/>
<path d="M3.33333 8.66667C2.96514 8.66667 2.66667 8.96515 2.66667 9.33334C2.66667 9.70153 2.96514 10 3.33333 10H3.36574C3.73393 10 4.03241 9.70153 4.03241 9.33334C4.03241 8.96515 3.73393 8.66667 3.36574 8.66667H3.33333Z" fill="#292737"/>
<path d="M5.63426 8.66667C5.26607 8.66667 4.96759 8.96515 4.96759 9.33334C4.96759 9.70153 5.26607 10 5.63426 10H5.69907C6.06726 10 6.36574 9.70153 6.36574 9.33334C6.36574 8.96515 6.06726 8.66667 5.69907 8.66667H5.63426Z" fill="#292737"/>
<path d="M7.96759 8.66667C7.5994 8.66667 7.30093 8.96515 7.30093 9.33334C7.30093 9.70153 7.5994 10 7.96759 10H8.03241C8.4006 10 8.69907 9.70153 8.69907 9.33334C8.69907 8.96515 8.4006 8.66667 8.03241 8.66667H7.96759Z" fill="#292737"/>
<path d="M10.3009 8.66667C9.93274 8.66667 9.63426 8.96515 9.63426 9.33334C9.63426 9.70153 9.93274 10 10.3009 10H10.3657C10.7339 10 11.0324 9.70153 11.0324 9.33334C11.0324 8.96515 10.7339 8.66667 10.3657 8.66667H10.3009Z" fill="#292737"/>
<path d="M12.6343 8.66667C12.2661 8.66667 11.9676 8.96515 11.9676 9.33334C11.9676 9.70153 12.2661 10 12.6343 10H12.6667C13.0349 10 13.3333 9.70153 13.3333 9.33334C13.3333 8.96515 13.0349 8.66667 12.6667 8.66667H12.6343Z" fill="#292737"/>
</svg>
