<svg width="16" height="16" viewBox="0 0 16 16" fill="none" xmlns="http://www.w3.org/2000/svg">
<path fill-rule="evenodd" clip-rule="evenodd" d="M15.1383 0.861938C15.3375 1.06116 15.3899 1.36411 15.2693 1.61873L9.26934 14.2854C9.1488 14.5399 8.88137 14.6912 8.60115 14.6634C8.32094 14.6357 8.08838 14.4349 8.02008 14.1617L6.78376 9.21642L1.83849 7.9801C1.56531 7.91181 1.3645 7.67925 1.33676 7.39903C1.30901 7.11882 1.46031 6.85139 1.71479 6.73085L14.3815 0.73085C14.6361 0.61024 14.939 0.662716 15.1383 0.861938ZM3.96908 7.13838L7.4952 8.01991C7.73406 8.07963 7.92056 8.26613 7.98027 8.50498L8.8618 12.0311L13.2653 2.73493L3.96908 7.13838Z" fill="#292737"/>
</svg>
