<svg width="16" height="16" viewBox="0 0 16 16" fill="none" xmlns="http://www.w3.org/2000/svg">
<path fill-rule="evenodd" clip-rule="evenodd" d="M8.00022 0.666672C6.76254 0.666672 5.57555 1.15834 4.70038 2.03351C3.82521 2.90868 3.33355 4.09566 3.33355 5.33334C3.33355 7.56844 2.8555 8.95642 2.41495 9.7641C2.19375 10.1696 1.97837 10.4357 1.82875 10.5936C1.75376 10.6727 1.69484 10.7252 1.65936 10.7548C1.64161 10.7696 1.62971 10.7786 1.62458 10.7825L1.62267 10.7839C1.38368 10.948 1.27792 11.2483 1.36215 11.5265C1.44729 11.8077 1.70644 12 2.00021 12H14.0002C14.294 12 14.5531 11.8077 14.6383 11.5265C14.7225 11.2483 14.6167 10.948 14.3778 10.7839L14.3759 10.7825C14.3707 10.7786 14.3588 10.7696 14.3411 10.7548C14.3056 10.7252 14.2467 10.6727 14.1717 10.5936C14.0221 10.4357 13.8067 10.1696 13.5855 9.7641C13.1449 8.95642 12.6669 7.56844 12.6669 5.33334C12.6669 4.09566 12.1752 2.90868 11.3 2.03351C10.4249 1.15834 9.23789 0.666672 8.00022 0.666672ZM12.415 10.4026C12.4657 10.4956 12.5166 10.5836 12.5673 10.6667H3.4331C3.48382 10.5836 3.53475 10.4956 3.58548 10.4026C4.14493 9.37692 4.66688 7.7649 4.66688 5.33334C4.66688 4.44928 5.01807 3.60144 5.64319 2.97632C6.26831 2.35119 7.11616 2.00001 8.00022 2.00001C8.88427 2.00001 9.73212 2.35119 10.3572 2.97632C10.9824 3.60144 11.3335 4.44928 11.3335 5.33334C11.3335 7.7649 11.8555 9.37692 12.415 10.4026Z" fill="#292737"/>
<path d="M7.42356 13.6655C7.23881 13.347 6.83086 13.2386 6.51238 13.4233C6.1939 13.6081 6.08548 14.016 6.27023 14.3345C6.44604 14.6376 6.69838 14.8892 7.002 15.064C7.30562 15.2389 7.64985 15.331 8.00023 15.331C8.35061 15.331 8.69484 15.2389 8.99845 15.064C9.30207 14.8892 9.55442 14.6376 9.73023 14.3345C9.91497 14.016 9.80656 13.6081 9.48808 13.4233C9.16959 13.2386 8.76164 13.347 8.57689 13.6655C8.51829 13.7665 8.43418 13.8504 8.33297 13.9087C8.23176 13.967 8.11702 13.9976 8.00023 13.9976C7.88343 13.9976 7.76869 13.967 7.66749 13.9087C7.56628 13.8504 7.48217 13.7665 7.42356 13.6655Z" fill="#292737"/>
</svg>
