<svg width="16" height="16" viewBox="0 0 16 16" fill="none" xmlns="http://www.w3.org/2000/svg">
<path d="M6.6665 3.33333C6.6665 2.59695 7.26346 2 7.99984 2C8.73622 2 9.33317 2.59695 9.33317 3.33333C9.33317 4.06971 8.73622 4.66667 7.99984 4.66667C7.26346 4.66667 6.6665 4.06971 6.6665 3.33333Z" fill="#292737"/>
<path d="M6.6665 8C6.6665 7.26362 7.26346 6.66667 7.99984 6.66667C8.73622 6.66667 9.33317 7.26362 9.33317 8C9.33317 8.73638 8.73622 9.33333 7.99984 9.33333C7.26346 9.33333 6.6665 8.73638 6.6665 8Z" fill="#292737"/>
<path d="M7.99984 11.3333C7.26346 11.3333 6.6665 11.9303 6.6665 12.6667C6.6665 13.403 7.26346 14 7.99984 14C8.73622 14 9.33317 13.403 9.33317 12.6667C9.33317 11.9303 8.73622 11.3333 7.99984 11.3333Z" fill="#292737"/>
</svg>
