<svg width="16" height="16" viewBox="0 0 16 16" fill="none" xmlns="http://www.w3.org/2000/svg">
<path d="M8 11.3333C7.63181 11.3333 7.33333 11.6318 7.33333 12C7.33333 12.3682 7.63181 12.6667 8 12.6667H8.00667C8.37486 12.6667 8.67333 12.3682 8.67333 12C8.67333 11.6318 8.37486 11.3333 8.00667 11.3333H8Z" fill="#292737"/>
<path fill-rule="evenodd" clip-rule="evenodd" d="M4 0.666656C2.89543 0.666656 2 1.56209 2 2.66666V13.3333C2 14.4379 2.89543 15.3333 4 15.3333H12C13.1046 15.3333 14 14.4379 14 13.3333V2.66666C14 1.56209 13.1046 0.666656 12 0.666656H4ZM3.33333 2.66666C3.33333 2.29847 3.63181 1.99999 4 1.99999H12C12.3682 1.99999 12.6667 2.29847 12.6667 2.66666V13.3333C12.6667 13.7015 12.3682 14 12 14H4C3.63181 14 3.33333 13.7015 3.33333 13.3333V2.66666Z" fill="#292737"/>
</svg>
