<svg width="16" height="16" viewBox="0 0 16 16" fill="none" xmlns="http://www.w3.org/2000/svg">
<g clip-path="url(#clip0_1741_61794)">
<path d="M8.47124 4.86193L11.1379 7.5286C11.3983 7.78895 11.3983 8.21106 11.1379 8.47141L8.47124 11.1381C8.21089 11.3984 7.78878 11.3984 7.52843 11.1381C7.26808 10.8777 7.26808 10.4556 7.52843 10.1953L9.05703 8.66667H5.33317C4.96498 8.66667 4.6665 8.3682 4.6665 8.00001C4.6665 7.63181 4.96498 7.33334 5.33317 7.33334H9.05703L7.52843 5.80474C7.26808 5.54439 7.26808 5.12228 7.52843 4.86193C7.78878 4.60158 8.21089 4.60158 8.47124 4.86193Z" fill="#292737"/>
<path fill-rule="evenodd" clip-rule="evenodd" d="M0.666504 8.00001C0.666504 3.94992 3.94975 0.666672 7.99984 0.666672C12.0499 0.666672 15.3332 3.94992 15.3332 8.00001C15.3332 12.0501 12.0499 15.3333 7.99984 15.3333C3.94975 15.3333 0.666504 12.0501 0.666504 8.00001ZM7.99984 2.00001C4.68613 2.00001 1.99984 4.6863 1.99984 8.00001C1.99984 11.3137 4.68613 14 7.99984 14C11.3135 14 13.9998 11.3137 13.9998 8.00001C13.9998 4.6863 11.3135 2.00001 7.99984 2.00001Z" fill="#292737"/>
</g>
<defs>
<clipPath id="clip0_1741_61794">
<rect width="16" height="16" fill="white"/>
</clipPath>
</defs>
</svg>
