<svg width="16" height="16" viewBox="0 0 16 16" fill="none" xmlns="http://www.w3.org/2000/svg">
<g clip-path="url(#clip0_1741_62191)">
<path d="M7.99979 8.66666C6.20212 8.66666 5.075 9.93135 4.85551 10.1966C4.62079 10.4803 4.66047 10.9005 4.94414 11.1352C5.22781 11.37 5.64805 11.3303 5.88277 11.0466C6.04844 10.8464 6.83161 9.99999 7.99979 9.99999C9.21544 9.99999 10.0131 10.9169 10.1291 11.0617C10.3594 11.3491 10.7789 11.3954 11.0663 11.1652C11.3536 10.935 11.3999 10.5154 11.1697 10.2281C11.0095 10.0281 9.86522 8.66666 7.99979 8.66666Z" fill="#292737"/>
<path d="M5.33317 5.99999C5.33317 5.6318 5.63165 5.33332 5.99984 5.33332H6.0065C6.37469 5.33332 6.67317 5.6318 6.67317 5.99999C6.67317 6.36818 6.37469 6.66666 6.0065 6.66666H5.99984C5.63165 6.66666 5.33317 6.36818 5.33317 5.99999Z" fill="#292737"/>
<path d="M9.99984 5.33332C9.63165 5.33332 9.33317 5.6318 9.33317 5.99999C9.33317 6.36818 9.63165 6.66666 9.99984 6.66666H10.0065C10.3747 6.66666 10.6732 6.36818 10.6732 5.99999C10.6732 5.6318 10.3747 5.33332 10.0065 5.33332H9.99984Z" fill="#292737"/>
<path fill-rule="evenodd" clip-rule="evenodd" d="M7.99984 0.666656C3.94975 0.666656 0.666504 3.9499 0.666504 7.99999C0.666504 12.0501 3.94975 15.3333 7.99984 15.3333C12.0499 15.3333 15.3332 12.0501 15.3332 7.99999C15.3332 3.9499 12.0499 0.666656 7.99984 0.666656ZM1.99984 7.99999C1.99984 4.68628 4.68613 1.99999 7.99984 1.99999C11.3135 1.99999 13.9998 4.68628 13.9998 7.99999C13.9998 11.3137 11.3135 14 7.99984 14C4.68613 14 1.99984 11.3137 1.99984 7.99999Z" fill="#292737"/>
</g>
<defs>
<clipPath id="clip0_1741_62191">
<rect width="16" height="16" fill="white"/>
</clipPath>
</defs>
</svg>
