<svg width="16" height="16" viewBox="0 0 16 16" fill="none" xmlns="http://www.w3.org/2000/svg">
<g clip-path="url(#clip0_1741_62169)">
<path fill-rule="evenodd" clip-rule="evenodd" d="M7.99984 5.99999C6.89527 5.99999 5.99984 6.89542 5.99984 7.99999C5.99984 9.10456 6.89527 9.99999 7.99984 9.99999C9.10441 9.99999 9.99984 9.10456 9.99984 7.99999C9.99984 6.89542 9.10441 5.99999 7.99984 5.99999ZM7.33317 7.99999C7.33317 7.6318 7.63165 7.33332 7.99984 7.33332C8.36803 7.33332 8.6665 7.6318 8.6665 7.99999C8.6665 8.36818 8.36803 8.66666 7.99984 8.66666C7.63165 8.66666 7.33317 8.36818 7.33317 7.99999Z" fill="#292737"/>
<path fill-rule="evenodd" clip-rule="evenodd" d="M3.33317 7.99999C3.33317 5.42266 5.42251 3.33332 7.99984 3.33332C10.5772 3.33332 12.6665 5.42266 12.6665 7.99999C12.6665 10.5773 10.5772 12.6667 7.99984 12.6667C5.42251 12.6667 3.33317 10.5773 3.33317 7.99999ZM7.99984 4.66666C6.15889 4.66666 4.6665 6.15904 4.6665 7.99999C4.6665 9.84094 6.15889 11.3333 7.99984 11.3333C9.84079 11.3333 11.3332 9.84094 11.3332 7.99999C11.3332 6.15904 9.84079 4.66666 7.99984 4.66666Z" fill="#292737"/>
<path fill-rule="evenodd" clip-rule="evenodd" d="M0.666504 7.99999C0.666504 3.9499 3.94975 0.666656 7.99984 0.666656C12.0499 0.666656 15.3332 3.9499 15.3332 7.99999C15.3332 12.0501 12.0499 15.3333 7.99984 15.3333C3.94975 15.3333 0.666504 12.0501 0.666504 7.99999ZM7.99984 1.99999C4.68613 1.99999 1.99984 4.68628 1.99984 7.99999C1.99984 11.3137 4.68613 14 7.99984 14C11.3135 14 13.9998 11.3137 13.9998 7.99999C13.9998 4.68628 11.3135 1.99999 7.99984 1.99999Z" fill="#292737"/>
</g>
<defs>
<clipPath id="clip0_1741_62169">
<rect width="16" height="16" fill="white"/>
</clipPath>
</defs>
</svg>
