<svg width="16" height="16" viewBox="0 0 16 16" fill="none" xmlns="http://www.w3.org/2000/svg">
<g clip-path="url(#clip0_1741_61816)">
<path fill-rule="evenodd" clip-rule="evenodd" d="M9.66645 0.85898C8.05464 0.482833 6.363 0.662993 4.86657 1.37016C3.37014 2.07734 2.15694 3.26993 1.42423 4.75403C0.691531 6.23812 0.482419 7.92644 0.830901 9.54445C1.17938 11.1625 2.06496 12.615 3.34364 13.6659C4.62232 14.7168 6.21889 15.3042 7.87376 15.3327C9.52863 15.3611 11.1445 14.8289 12.4585 13.8226C12.7508 13.5988 12.8063 13.1803 12.5825 12.888C12.3586 12.5957 11.9402 12.5402 11.6478 12.764C10.5727 13.5874 9.25067 14.0228 7.89669 13.9995C6.5427 13.9763 5.23641 13.4956 4.19022 12.6358C3.14403 11.776 2.41947 10.5875 2.13435 9.26371C1.84922 7.93989 2.02032 6.55854 2.6198 5.34428C3.21928 4.13002 4.2119 3.15426 5.43625 2.57567C6.66061 1.99707 8.04468 1.84967 9.36343 2.15742C10.6822 2.46518 11.858 3.21 12.6998 4.27076C13.5416 5.33152 13.9998 6.64584 13.9998 8V8.66667C13.9998 9.02029 13.8594 9.35943 13.6093 9.60948C13.3593 9.85953 13.0201 10 12.6665 10C12.3129 10 11.9738 9.85953 11.7237 9.60948C11.4737 9.35943 11.3332 9.02029 11.3332 8.66667V5.33334C11.3332 4.96515 11.0347 4.66667 10.6665 4.66667C10.2984 4.66667 9.99997 4.96502 9.99985 5.3331C9.44274 4.91464 8.75025 4.66667 7.99984 4.66667C6.15889 4.66667 4.6665 6.15905 4.6665 8C4.6665 9.84095 6.15889 11.3333 7.99984 11.3333C8.9919 11.3333 9.88274 10.8999 10.4934 10.2122C10.579 10.3326 10.675 10.4464 10.7809 10.5523C11.281 11.0524 11.9593 11.3333 12.6665 11.3333C13.3738 11.3333 14.052 11.0524 14.5521 10.5523C15.0522 10.0522 15.3332 9.37391 15.3332 8.66667V8C15.3331 6.34489 14.7731 4.73845 13.7442 3.44195C12.7154 2.14546 11.2782 1.23513 9.66645 0.85898ZM5.99984 8C5.99984 6.89543 6.89527 6 7.99984 6C9.10441 6 9.99984 6.89543 9.99984 8C9.99984 9.10457 9.10441 10 7.99984 10C6.89527 10 5.99984 9.10457 5.99984 8Z" fill="#292737"/>
</g>
<defs>
<clipPath id="clip0_1741_61816">
<rect width="16" height="16" fill="white"/>
</clipPath>
</defs>
</svg>
