<svg width="16" height="16" viewBox="0 0 16 16" fill="none" xmlns="http://www.w3.org/2000/svg">
<g clip-path="url(#clip0_1741_62101)">
<path fill-rule="evenodd" clip-rule="evenodd" d="M7.99984 0.666656C3.94975 0.666656 0.666504 3.9499 0.666504 7.99999C0.666504 12.0501 3.94975 15.3333 7.99984 15.3333C12.0499 15.3333 15.3332 12.0501 15.3332 7.99999C15.3332 3.9499 12.0499 0.666656 7.99984 0.666656ZM4.25469 3.31208C5.28114 2.49098 6.58315 1.99999 7.99984 1.99999C11.3135 1.99999 13.9998 4.68628 13.9998 7.99999C13.9998 9.41668 13.5088 10.7187 12.6878 11.7451L4.25469 3.31208ZM3.31189 4.25489C2.49081 5.28133 1.99984 6.58332 1.99984 7.99999C1.99984 11.3137 4.68613 14 7.99984 14C9.4165 14 10.7185 13.509 11.7449 12.6879L3.31189 4.25489Z" fill="#292737"/>
</g>
<defs>
<clipPath id="clip0_1741_62101">
<rect width="16" height="16" fill="white"/>
</clipPath>
</defs>
</svg>
