<svg width="16" height="16" viewBox="0 0 16 16" fill="none" xmlns="http://www.w3.org/2000/svg">
<path fill-rule="evenodd" clip-rule="evenodd" d="M7.00159 0.935155C7.30528 0.760153 7.64964 0.66803 8.00016 0.66803C8.3507 0.66803 8.69507 0.760161 8.99877 0.935177L9.00016 0.935979L13.6668 3.60264C13.9135 3.74505 14.1262 3.93809 14.2914 4.16822C14.3317 4.20847 14.3674 4.25458 14.3972 4.30619C14.423 4.35065 14.443 4.39684 14.4575 4.44392C14.5946 4.71955 14.6665 5.02367 14.6668 5.33264V10.6673C14.6665 11.0181 14.5739 11.3625 14.3984 11.6662C14.2228 11.9698 13.9706 12.222 13.6668 12.3973L13.6643 12.3988L9.00016 15.064L8.99896 15.0647C8.78749 15.1866 8.55628 15.2683 8.317 15.3067C8.22276 15.3577 8.11485 15.3867 8.00016 15.3867C7.88548 15.3867 7.77757 15.3577 7.68332 15.3067C7.44406 15.2683 7.21286 15.1866 7.0014 15.0647L7.00016 15.064L2.33607 12.3988L2.3335 12.3973C2.02976 12.222 1.77748 11.9698 1.60196 11.6662C1.42644 11.3625 1.33386 11.0181 1.3335 10.6673V5.33264C1.33381 5.02362 1.40573 4.71946 1.54288 4.44379C1.55741 4.39676 1.57741 4.35061 1.6031 4.30619C1.63294 4.25462 1.66862 4.20854 1.70883 4.16831C1.87407 3.93814 2.08682 3.74507 2.3335 3.60265L2.33607 3.60116L7.00159 0.935155ZM8.66683 13.7188L13.0002 11.2426L13.0012 11.242C13.102 11.1836 13.1857 11.0998 13.244 10.9989C13.3025 10.8977 13.3334 10.7829 13.3335 10.666V5.6917L8.66683 8.39121V13.7188ZM7.3335 8.39119V13.7188L3.00016 11.2426L2.99911 11.242C2.89834 11.1836 2.81462 11.0998 2.75632 10.9989C2.69786 10.8978 2.667 10.7831 2.66683 10.6663V5.69169L7.3335 8.39119ZM8.33607 2.09216L12.6409 4.55203L8.00017 7.2365L3.35948 4.55202L7.66425 2.09216L7.66683 2.09068C7.76818 2.03217 7.88314 2.00136 8.00016 2.00136C8.11719 2.00136 8.23215 2.03217 8.3335 2.09068L8.33607 2.09216Z" fill="#292737"/>
</svg>
