<svg width="16" height="16" viewBox="0 0 16 16" fill="none" xmlns="http://www.w3.org/2000/svg">
<path fill-rule="evenodd" clip-rule="evenodd" d="M4.22893 4.22877C5.22912 3.22858 6.58567 2.66668 8.00016 2.66668C9.41465 2.66668 10.7712 3.22858 11.7714 4.22877C12.7716 5.22897 13.3335 6.58552 13.3335 8.00001V8.66668H12.0002C11.4697 8.66668 10.961 8.87739 10.5859 9.25246C10.2109 9.62754 10.0002 10.1362 10.0002 10.6667V12.6667C10.0002 13.1971 10.2109 13.7058 10.5859 14.0809C10.961 14.456 11.4697 14.6667 12.0002 14.6667H12.6668C13.1973 14.6667 13.706 14.456 14.081 14.0809C14.4561 13.7058 14.6668 13.1971 14.6668 12.6667V8.00001C14.6668 6.2319 13.9644 4.53621 12.7142 3.28596C11.464 2.03572 9.76827 1.33334 8.00016 1.33334C6.23205 1.33334 4.53636 2.03572 3.28612 3.28596C2.03587 4.53621 1.3335 6.2319 1.3335 8.00001V12.6667C1.3335 13.1971 1.54421 13.7058 1.91928 14.0809C2.29435 14.456 2.80306 14.6667 3.3335 14.6667H4.00016C4.5306 14.6667 5.0393 14.456 5.41438 14.0809C5.78945 13.7058 6.00016 13.1971 6.00016 12.6667V10.6667C6.00016 10.1362 5.78945 9.62754 5.41438 9.25246C5.0393 8.87739 4.5306 8.66668 4.00016 8.66668H2.66683V8.00001C2.66683 6.58552 3.22873 5.22897 4.22893 4.22877ZM2.66683 10V12.6667C2.66683 12.8435 2.73707 13.0131 2.86209 13.1381C2.98712 13.2631 3.15669 13.3333 3.3335 13.3333H4.00016C4.17697 13.3333 4.34654 13.2631 4.47157 13.1381C4.59659 13.0131 4.66683 12.8435 4.66683 12.6667V10.6667C4.66683 10.4899 4.59659 10.3203 4.47157 10.1953C4.34654 10.0702 4.17697 10 4.00016 10H2.66683ZM13.3335 10H12.0002C11.8234 10 11.6538 10.0702 11.5288 10.1953C11.4037 10.3203 11.3335 10.4899 11.3335 10.6667V12.6667C11.3335 12.8435 11.4037 13.0131 11.5288 13.1381C11.6538 13.2631 11.8234 13.3333 12.0002 13.3333H12.6668C12.8436 13.3333 13.0132 13.2631 13.1382 13.1381C13.2633 13.0131 13.3335 12.8435 13.3335 12.6667V10Z" fill="#292737"/>
</svg>
