<svg width="16" height="16" viewBox="0 0 16 16" fill="none" xmlns="http://www.w3.org/2000/svg">
<path d="M5.3335 6.66665C4.96531 6.66665 4.66683 6.96512 4.66683 7.33331C4.66683 7.7015 4.96531 7.99998 5.3335 7.99998H9.3335C9.70168 7.99998 10.0002 7.7015 10.0002 7.33331C10.0002 6.96512 9.70168 6.66665 9.3335 6.66665H5.3335Z" fill="#292737"/>
<path fill-rule="evenodd" clip-rule="evenodd" d="M7.3335 13.3333C8.75015 13.3333 10.0521 12.8423 11.0786 12.0213L13.5287 14.4714C13.789 14.7318 14.2112 14.7318 14.4715 14.4714C14.7319 14.2111 14.7319 13.7889 14.4715 13.5286L12.0214 11.0785C12.8425 10.052 13.3335 8.75001 13.3335 7.33331C13.3335 4.0196 10.6472 1.33331 7.3335 1.33331C4.01979 1.33331 1.3335 4.0196 1.3335 7.33331C1.3335 10.647 4.01979 13.3333 7.3335 13.3333ZM7.3335 2.66665C4.75617 2.66665 2.66683 4.75598 2.66683 7.33331C2.66683 9.91064 4.75617 12 7.3335 12C8.59069 12 9.73177 11.5028 10.5709 10.6944C10.5885 10.6716 10.6077 10.6495 10.6287 10.6286C10.6497 10.6076 10.6717 10.5884 10.6945 10.5708C11.503 9.73166 12.0002 8.59055 12.0002 7.33331C12.0002 4.75598 9.91082 2.66665 7.3335 2.66665Z" fill="#292737"/>
</svg>
