<svg width="16" height="16" viewBox="0 0 16 16" fill="none" xmlns="http://www.w3.org/2000/svg">
<path fill-rule="evenodd" clip-rule="evenodd" d="M14.4712 1.80473C14.7315 1.54438 14.7315 1.12227 14.4712 0.861919C14.2108 0.601569 13.7887 0.601569 13.5284 0.861919L7.54905 6.84125C6.81101 6.31877 5.92279 6.03692 5.00759 6.04488C3.87141 6.05475 2.78455 6.51048 1.98112 7.31392C1.17768 8.11735 0.721951 9.20421 0.712078 10.3404C0.702205 11.4766 1.13898 12.5712 1.92833 13.3885L1.93331 13.3936C2.3347 13.8004 2.81261 14.1238 3.3395 14.3451C3.8664 14.5665 4.43188 14.6814 5.00338 14.6833C5.57488 14.6853 6.14112 14.5741 6.66948 14.3563C7.19785 14.1385 7.67791 13.8183 8.08203 13.4142C8.48614 13.01 8.80633 12.53 9.02415 12.0016C9.24197 11.4732 9.35312 10.907 9.35121 10.3355C9.34929 9.76401 9.23435 9.19853 9.01299 8.67164C8.87883 8.35229 8.70718 8.05094 8.5022 7.77371L10.3331 5.9428L11.8617 7.47139C12.1221 7.73174 12.5442 7.73174 12.8045 7.47139L15.1379 5.13806C15.3982 4.87771 15.3982 4.4556 15.1379 4.19525L13.6093 2.66666L14.4712 1.80473ZM7.1239 8.2149C7.13194 8.22285 7.14014 8.23055 7.14847 8.23801C7.41908 8.51099 7.63478 8.8335 7.78373 9.18806C7.93698 9.55284 8.01655 9.94432 8.01788 10.34C8.01921 10.7356 7.94225 11.1276 7.79145 11.4934C7.64066 11.8592 7.41899 12.1916 7.13922 12.4713C6.85945 12.7511 6.52709 12.9728 6.1613 13.1236C5.79551 13.2744 5.4035 13.3513 5.00785 13.35C4.61219 13.3487 4.22071 13.2691 3.85593 13.1159C3.49225 12.9631 3.16227 12.7401 2.8849 12.4596C2.33999 11.8941 2.03854 11.1374 2.04536 10.352C2.0522 9.56539 2.3677 8.81295 2.92393 8.25673C3.48015 7.7005 4.23259 7.385 5.01918 7.37816C5.80323 7.37135 6.55869 7.67176 7.1239 8.2149ZM12.3331 6.05718L11.2759 4.99999L12.6664 3.60947L13.7236 4.66666L12.3331 6.05718Z" fill="#292737"/>
</svg>
