<svg width="16" height="16" viewBox="0 0 16 16" fill="none" xmlns="http://www.w3.org/2000/svg">
<path d="M2 2.66667C2 2.29848 2.29848 2 2.66667 2C5.67245 2 8.55513 3.19404 10.6805 5.31946C12.806 7.44487 14 10.3275 14 13.3333C14 13.7015 13.7015 14 13.3333 14C12.9651 14 12.6667 13.7015 12.6667 13.3333C12.6667 10.6812 11.6131 8.13763 9.73773 6.26227C7.86237 4.3869 5.31883 3.33333 2.66667 3.33333C2.29848 3.33333 2 3.03486 2 2.66667Z" fill="#292737"/>
<path d="M2 7.33333C2 6.96514 2.29848 6.66667 2.66667 6.66667C4.43478 6.66667 6.13047 7.36905 7.38071 8.61929C8.63095 9.86953 9.33333 11.5652 9.33333 13.3333C9.33333 13.7015 9.03486 14 8.66667 14C8.29848 14 8 13.7015 8 13.3333C8 11.9188 7.4381 10.5623 6.4379 9.5621C5.43771 8.5619 4.08115 8 2.66667 8C2.29848 8 2 7.70152 2 7.33333Z" fill="#292737"/>
<path d="M3.33333 11.3333C2.59695 11.3333 2 11.9303 2 12.6667C2 13.403 2.59695 14 3.33333 14C4.06971 14 4.66667 13.403 4.66667 12.6667C4.66667 11.9303 4.06971 11.3333 3.33333 11.3333Z" fill="#292737"/>
</svg>
