<svg width="16" height="16" viewBox="0 0 16 16" fill="none" xmlns="http://www.w3.org/2000/svg">
<g clip-path="url(#clip0_1741_62107)">
<path fill-rule="evenodd" clip-rule="evenodd" d="M12.6665 0.781036C12.3313 0.781036 11.9995 0.847053 11.6898 0.975317C11.3801 1.10358 11.0988 1.29158 10.8618 1.52858L1.86178 10.5286C1.77974 10.6106 1.72054 10.7126 1.69001 10.8246L0.69001 14.4912C0.627063 14.7221 0.692615 14.9689 0.861781 15.1381C1.03095 15.3072 1.27779 15.3728 1.5086 15.3098L5.17526 14.3098C5.28719 14.2793 5.38922 14.2201 5.47126 14.1381L14.4713 5.13806C14.7083 4.90106 14.8963 4.6197 15.0245 4.31004C15.1528 4.00038 15.2188 3.66849 15.2188 3.33332C15.2188 2.99815 15.1528 2.66626 15.0245 2.3566C14.8963 2.04695 14.7083 1.76558 14.4713 1.52858C14.2343 1.29158 13.9529 1.10358 13.6432 0.975317C13.3336 0.847053 13.0017 0.781036 12.6665 0.781036ZM12.2 2.20716C12.3479 2.1459 12.5064 2.11437 12.6665 2.11437C12.8266 2.11437 12.9851 2.1459 13.133 2.20716C13.2809 2.26841 13.4153 2.3582 13.5284 2.47139C13.6416 2.58458 13.7314 2.71896 13.7927 2.86685C13.8539 3.01474 13.8855 3.17324 13.8855 3.33332C13.8855 3.4934 13.8539 3.65191 13.7927 3.79979C13.7314 3.94768 13.6416 4.08206 13.5284 4.19525L4.65364 13.0701L2.28333 13.7165L2.92978 11.3462L11.8046 2.47139C11.9178 2.3582 12.0522 2.26841 12.2 2.20716Z" fill="#292737"/>
</g>
<defs>
<clipPath id="clip0_1741_62107">
<rect width="16" height="16" fill="white"/>
</clipPath>
</defs>
</svg>
