<svg width="16" height="16" viewBox="0 0 16 16" fill="none" xmlns="http://www.w3.org/2000/svg">
<path d="M4.47157 4.19526C4.21122 3.93491 3.78911 3.93491 3.52876 4.19526C3.26841 4.45561 3.26841 4.87772 3.52876 5.13807L6.39069 8L3.52876 10.8619C3.26841 11.1223 3.26841 11.5444 3.52876 11.8047C3.78911 12.0651 4.21122 12.0651 4.47157 11.8047L7.8049 8.4714C8.06525 8.21106 8.06525 7.78894 7.8049 7.5286L4.47157 4.19526Z" fill="#292737"/>
<path d="M9.13823 4.19526C8.87788 3.93491 8.45577 3.93491 8.19542 4.19526C7.93508 4.45561 7.93508 4.87772 8.19542 5.13807L11.0574 8L8.19542 10.8619C7.93508 11.1223 7.93508 11.5444 8.19542 11.8047C8.45577 12.0651 8.87788 12.0651 9.13823 11.8047L12.4716 8.4714C12.7319 8.21106 12.7319 7.78894 12.4716 7.5286L9.13823 4.19526Z" fill="#292737"/>
</svg>
