<svg width="16" height="16" viewBox="0 0 16 16" fill="none" xmlns="http://www.w3.org/2000/svg">
<path d="M13.1847 2.81533C12.9244 2.55494 12.5023 2.55488 12.2419 2.81519C11.9815 3.0755 11.9814 3.49761 12.2417 3.758C13.3665 4.88316 13.9984 6.40901 13.9984 7.99999C13.9984 9.59098 13.3665 11.1168 12.2417 12.242C11.9814 12.5024 11.9815 12.9245 12.2419 13.1848C12.5023 13.4451 12.9244 13.4451 13.1847 13.1847C14.5595 11.8095 15.3318 9.94453 15.3318 7.99999C15.3318 6.05546 14.5595 4.19053 13.1847 2.81533Z" fill="#292737"/>
<path d="M10.8313 5.16866C10.571 4.90827 10.1489 4.90821 9.88853 5.16852C9.62814 5.42883 9.62808 5.85094 9.88839 6.11133C10.3883 6.6114 10.6692 7.28956 10.6692 7.99666C10.6692 8.70377 10.3883 9.38192 9.88839 9.882C9.62808 10.1424 9.62814 10.5645 9.88853 10.8248C10.1489 11.0851 10.571 11.085 10.8313 10.8247C11.5812 10.0746 12.0025 9.05732 12.0025 7.99666C12.0025 6.936 11.5812 5.91877 10.8313 5.16866Z" fill="#292737"/>
<path fill-rule="evenodd" clip-rule="evenodd" d="M7.99984 3.33333C7.99984 3.07706 7.85294 2.84348 7.62196 2.73246C7.39099 2.62145 7.11682 2.65266 6.91671 2.81275L3.76598 5.33333H1.33317C0.964981 5.33333 0.666504 5.63181 0.666504 6V10C0.666504 10.3682 0.964981 10.6667 1.33317 10.6667H3.76598L6.91671 13.1872C7.11682 13.3473 7.39099 13.3785 7.62196 13.2675C7.85294 13.1565 7.99984 12.9229 7.99984 12.6667V3.33333ZM4.4163 6.52058L6.6665 4.72042V11.2796L4.4163 9.47942C4.29809 9.38485 4.15122 9.33333 3.99984 9.33333H1.99984V6.66667H3.99984C4.15122 6.66667 4.29809 6.61515 4.4163 6.52058Z" fill="#292737"/>
</svg>
