<svg width="16" height="16" viewBox="0 0 16 16" fill="none" xmlns="http://www.w3.org/2000/svg">
<path d="M1 10.4527C1.24267 10.5708 1.50867 10.6312 1.77778 10.625C2.08072 10.6322 2.38065 10.5562 2.65167 10.4038C2.92269 10.2513 3.15665 10.027 3.33333 9.75003C3.51002 9.4731 3.74398 9.24872 4.015 9.09628C4.28602 8.94383 4.58595 8.86789 4.88889 8.87503C5.19183 8.86789 5.49176 8.94383 5.76278 9.09628C6.0338 9.24872 6.26776 9.4731 6.44444 9.75003C6.62113 10.027 6.85509 10.2513 7.12611 10.4038C7.39713 10.5562 7.69706 10.6322 8 10.625C8.30294 10.6322 8.60287 10.5562 8.87389 10.4038C9.14491 10.2513 9.37887 10.027 9.55556 9.75003C9.73224 9.4731 9.9662 9.24872 10.2372 9.09628C10.5082 8.94383 10.8082 8.86789 11.1111 8.87503C11.4141 8.86789 11.714 8.94383 11.985 9.09628C12.256 9.24872 12.49 9.4731 12.6667 9.75003C12.8434 10.027 13.0773 10.2513 13.3483 10.4038C13.6193 10.5562 13.9193 10.6322 14.2222 10.625C14.4944 10.6312 14.7604 10.5708 15 10.4527M1 15H15V8C15 7.30381 14.7542 6.63613 14.3166 6.14384C13.879 5.65156 13.2855 5.375 12.6667 5.375H3.33333C2.71449 5.375 2.121 5.65156 1.68342 6.14384C1.24583 6.63613 1 7.30381 1 8V15ZM8.00001 1L9.13945 2.43325C9.34278 2.67915 9.47891 2.98569 9.5316 3.31626C9.5843 3.64683 9.55133 3.98747 9.43663 4.29754C9.32193 4.60761 9.13035 4.87399 8.88474 5.06491C8.63914 5.25582 8.34989 5.3632 8.05153 5.37422C7.75316 5.38524 7.45827 5.29944 7.20207 5.12707C6.94586 4.95469 6.73916 4.70301 6.60662 4.40208C6.47409 4.10115 6.42133 3.76367 6.45463 3.42992C6.48794 3.09617 6.6059 2.78026 6.79445 2.51987L8.00001 1Z" stroke="#292737" stroke-width="1.3" stroke-linecap="round" stroke-linejoin="round"/>
</svg>
