<svg width="16" height="16" viewBox="0 0 16 16" fill="none" xmlns="http://www.w3.org/2000/svg">
<path fill-rule="evenodd" clip-rule="evenodd" d="M0.728434 1.71943C0.837673 1.48398 1.07363 1.33334 1.33318 1.33334H14.6665C14.9261 1.33334 15.162 1.48398 15.2713 1.71943C15.3805 1.95487 15.3432 2.23231 15.1756 2.43049L9.99985 8.55078V14C9.99985 14.2311 9.88021 14.4456 9.68367 14.5671C9.48712 14.6886 9.2417 14.6996 9.03504 14.5963L6.36837 13.263C6.14251 13.15 5.99985 12.9192 5.99985 12.6667V8.55078L0.824133 2.43049C0.656534 2.23231 0.619195 1.95487 0.728434 1.71943ZM2.77005 2.66668L7.17556 7.87619C7.27734 7.99654 7.33318 8.14906 7.33318 8.30668V12.2547L8.66651 12.9213V8.30668C8.66651 8.14906 8.72236 7.99654 8.82413 7.87619L13.2296 2.66668H2.77005Z" fill="#292737"/>
</svg>
