<svg width="16" height="16" viewBox="0 0 16 16" fill="none" xmlns="http://www.w3.org/2000/svg">
<path d="M14.4716 2.47141L10.943 6.00001H13.3335C13.7017 6.00001 14.0002 6.29849 14.0002 6.66668C14.0002 7.03487 13.7017 7.33334 13.3335 7.33334H9.3335C8.96531 7.33334 8.66683 7.03487 8.66683 6.66668V2.66668C8.66683 2.29849 8.96531 2.00001 9.3335 2.00001C9.70169 2.00001 10.0002 2.29849 10.0002 2.66668V5.0572L13.5288 1.52861C13.7891 1.26826 14.2112 1.26826 14.4716 1.52861C14.7319 1.78896 14.7319 2.21107 14.4716 2.47141Z" fill="#292737"/>
<path d="M2.66683 8.66668C2.29864 8.66668 2.00016 8.96515 2.00016 9.33334C2.00016 9.70153 2.29864 10 2.66683 10H5.05735L1.52876 13.5286C1.26841 13.789 1.26841 14.2111 1.52876 14.4714C1.78911 14.7318 2.21122 14.7318 2.47157 14.4714L6.00016 10.9428V13.3333C6.00016 13.7015 6.29864 14 6.66683 14C7.03502 14 7.3335 13.7015 7.3335 13.3333V9.33334C7.3335 8.96515 7.03502 8.66668 6.66683 8.66668H2.66683Z" fill="#292737"/>
</svg>
