<svg width="16" height="16" viewBox="0 0 16 16" fill="none" xmlns="http://www.w3.org/2000/svg">
<path d="M5.99984 2.66667C5.99984 2.29848 6.29831 2 6.6665 2H12.6665C13.0347 2 13.3332 2.29848 13.3332 2.66667C13.3332 3.03486 13.0347 3.33333 12.6665 3.33333H10.0265L7.35979 12.6667H9.33317C9.70136 12.6667 9.99984 12.9651 9.99984 13.3333C9.99984 13.7015 9.70136 14 9.33317 14H3.33317C2.96498 14 2.6665 13.7015 2.6665 13.3333C2.6665 12.9651 2.96498 12.6667 3.33317 12.6667H5.9731L8.63977 3.33333H6.6665C6.29831 3.33333 5.99984 3.03486 5.99984 2.66667Z" fill="#292737"/>
</svg>
