<svg width="16" height="16" viewBox="0 0 16 16" fill="none" xmlns="http://www.w3.org/2000/svg">
<path d="M5.80457 4.4714C6.06493 4.21105 6.06493 3.78894 5.80457 3.52859C5.54423 3.26824 5.12212 3.26824 4.86177 3.52859L0.861766 7.52859C0.601417 7.78894 0.601417 8.21105 0.861766 8.4714L4.86177 12.4714C5.12212 12.7317 5.54423 12.7317 5.80457 12.4714C6.06493 12.211 6.06493 11.7889 5.80457 11.5286L2.27598 7.99999L5.80457 4.4714Z" fill="#292737"/>
<path d="M11.1379 3.52859C10.8776 3.26824 10.4554 3.26824 10.1951 3.52859C9.93475 3.78894 9.93475 4.21105 10.1951 4.4714L13.7237 7.99999L10.1951 11.5286C9.93475 11.7889 9.93475 12.211 10.1951 12.4714C10.4554 12.7317 10.8776 12.7317 11.1379 12.4714L15.1379 8.4714C15.3983 8.21105 15.3983 7.78894 15.1379 7.52859L11.1379 3.52859Z" fill="#292737"/>
</svg>
