<svg width="16" height="16" viewBox="0 0 16 16" fill="none" xmlns="http://www.w3.org/2000/svg">
<path fill-rule="evenodd" clip-rule="evenodd" d="M4.00016 1.33333C3.29292 1.33333 2.61464 1.61428 2.11454 2.11438C1.61445 2.61447 1.3335 3.29275 1.3335 3.99999C1.3335 4.70724 1.61445 5.38552 2.11454 5.88561C2.61464 6.38571 3.29292 6.66666 4.00016 6.66666H5.3335V9.33333H4.00016C3.29292 9.33333 2.61464 9.61428 2.11454 10.1144C1.61445 10.6145 1.3335 11.2927 1.3335 12C1.3335 12.7072 1.61445 13.3855 2.11454 13.8856C2.61464 14.3857 3.29292 14.6667 4.00016 14.6667C4.70741 14.6667 5.38568 14.3857 5.88578 13.8856C6.38588 13.3855 6.66683 12.7072 6.66683 12V10.6667H9.3335V12C9.3335 12.7072 9.61445 13.3855 10.1145 13.8856C10.6146 14.3857 11.2929 14.6667 12.0002 14.6667C12.7074 14.6667 13.3857 14.3857 13.8858 13.8856C14.3859 13.3855 14.6668 12.7072 14.6668 12C14.6668 11.2928 14.3859 10.6145 13.8858 10.1144C13.3857 9.61428 12.7074 9.33333 12.0002 9.33333H10.6668V6.66666H12.0002C12.7074 6.66666 13.3857 6.38571 13.8858 5.88561C14.3859 5.38552 14.6668 4.70724 14.6668 3.99999C14.6668 3.29275 14.3859 2.61447 13.8858 2.11438C13.3857 1.61428 12.7074 1.33333 12.0002 1.33333C11.2929 1.33333 10.6146 1.61428 10.1145 2.11438C9.61445 2.61447 9.3335 3.29275 9.3335 3.99999V5.33333H6.66683V3.99999C6.66683 3.29275 6.38588 2.61447 5.88578 2.11438C5.38568 1.61428 4.70741 1.33333 4.00016 1.33333ZM5.3335 3.99999V5.33333H4.00016C3.64654 5.33333 3.3074 5.19285 3.05735 4.9428C2.80731 4.69276 2.66683 4.35362 2.66683 3.99999C2.66683 3.64637 2.80731 3.30723 3.05735 3.05719C3.3074 2.80714 3.64654 2.66666 4.00016 2.66666C4.35378 2.66666 4.69292 2.80714 4.94297 3.05719C5.19302 3.30723 5.3335 3.64637 5.3335 3.99999ZM6.66683 9.33333V6.66666H9.3335V9.33333H6.66683ZM4.00016 10.6667H5.3335V12C5.3335 12.3536 5.19302 12.6928 4.94297 12.9428C4.69292 13.1929 4.35379 13.3333 4.00016 13.3333C3.64654 13.3333 3.3074 13.1929 3.05735 12.9428C2.80731 12.6928 2.66683 12.3536 2.66683 12C2.66683 11.6464 2.80731 11.3072 3.05735 11.0572C3.3074 10.8071 3.64654 10.6667 4.00016 10.6667ZM10.6668 12V10.6667H12.0002C12.3538 10.6667 12.6929 10.8071 12.943 11.0572C13.193 11.3072 13.3335 11.6464 13.3335 12C13.3335 12.3536 13.193 12.6928 12.943 12.9428C12.6929 13.1929 12.3538 13.3333 12.0002 13.3333C11.6465 13.3333 11.3074 13.1929 11.0574 12.9428C10.8073 12.6928 10.6668 12.3536 10.6668 12ZM12.0002 5.33333H10.6668V3.99999C10.6668 3.64637 10.8073 3.30723 11.0574 3.05719C11.3074 2.80714 11.6465 2.66666 12.0002 2.66666C12.3538 2.66666 12.6929 2.80714 12.943 3.05719C13.193 3.30723 13.3335 3.64637 13.3335 3.99999C13.3335 4.35362 13.193 4.69276 12.943 4.9428C12.6929 5.19285 12.3538 5.33333 12.0002 5.33333Z" fill="#292737"/>
</svg>
