<svg width="16" height="16" viewBox="0 0 16 16" fill="none" xmlns="http://www.w3.org/2000/svg">
<path d="M11.2244 2.17174C9.95947 1.47246 8.50152 1.20322 7.07024 1.4046C5.64338 1.60535 4.32009 2.26297 3.29848 3.27876L1.33333 5.09275V2.66668C1.33333 2.29849 1.03486 2.00001 0.666667 2.00001C0.298477 2.00001 0 2.29849 0 2.66668V6.66668C0 7.03487 0.298477 7.33334 0.666667 7.33334H4.66667C5.03486 7.33334 5.33333 7.03487 5.33333 6.66668C5.33333 6.29849 5.03486 6.00001 4.66667 6.00001H2.31622L4.21219 4.24989C4.21858 4.24399 4.22485 4.23797 4.23101 4.23182C5.04933 3.41489 6.11098 2.88602 7.256 2.72493C8.40102 2.56383 9.56739 2.77922 10.5794 3.33864C11.5913 3.89807 12.3941 4.77122 12.8666 5.82655C13.3392 6.88187 13.456 8.06219 13.1994 9.18966C12.9429 10.3171 12.3268 11.3307 11.4441 12.0776C10.5614 12.8245 9.4599 13.2643 8.30551 13.3308C7.15112 13.3972 6.0064 13.0867 5.04384 12.446C4.08128 11.8053 3.35302 10.8691 2.96879 9.77849C2.84644 9.43122 2.46574 9.24889 2.11847 9.37123C1.77121 9.49358 1.58887 9.87428 1.71122 10.2215C2.19151 11.5848 3.10184 12.755 4.30504 13.5559C5.50824 14.3568 6.93913 14.7449 8.38212 14.6619C9.82511 14.5788 11.202 14.0291 12.3054 13.0954C13.4088 12.1618 14.1788 10.8949 14.4995 9.48552C14.8202 8.07618 14.6742 6.60077 14.0835 5.28162C13.4928 3.96247 12.4894 2.87103 11.2244 2.17174Z" fill="#292737"/>
</svg>
