<svg width="16" height="16" viewBox="0 0 16 16" fill="none" xmlns="http://www.w3.org/2000/svg">
<g clip-path="url(#clip0_1741_61772)">
<path d="M11.3303 0.711119C10.2815 0.702006 9.2711 1.10518 8.5167 1.83382L8.50981 1.84056L7.36314 2.98056C7.10204 3.24015 7.1008 3.66226 7.36039 3.92337C7.61998 4.18448 8.04209 4.18571 8.3032 3.92612L9.44626 2.7897C9.94885 2.30594 10.621 2.03834 11.3187 2.0444C12.0179 2.05048 12.6867 2.33093 13.1812 2.82535C13.6756 3.31977 13.956 3.98861 13.9621 4.6878C13.9682 5.38516 13.7008 6.05708 13.2174 6.55959L11.2218 8.55527C10.9514 8.82571 10.626 9.03493 10.2677 9.16857C9.90946 9.30222 9.52664 9.35725 9.14523 9.32993C8.76382 9.30262 8.39274 9.19359 8.05717 9.01026C7.7216 8.82692 7.42939 8.57356 7.20035 8.26735C6.97981 7.97252 6.56202 7.91229 6.26718 8.13283C5.97235 8.35337 5.91212 8.77116 6.13266 9.06599C6.47622 9.5253 6.91455 9.90534 7.4179 10.1803C7.92126 10.4554 8.47787 10.6189 9.04998 10.6599C9.6221 10.7008 10.1963 10.6183 10.7337 10.4178C11.2711 10.2174 11.7592 9.90365 12.1647 9.49799L14.1646 7.49808L14.1727 7.48982C14.9013 6.73541 15.3045 5.725 15.2954 4.67621C15.2863 3.62742 14.8656 2.62417 14.124 1.88254C13.3823 1.14091 12.3791 0.720233 11.3303 0.711119Z" fill="#292737"/>
<path d="M6.94966 5.34015C6.37755 5.29918 5.80331 5.38172 5.26591 5.58219C4.72854 5.78265 4.24056 6.09632 3.83507 6.50193L1.83507 8.50193L1.82695 8.51019C1.09832 9.2646 0.695139 10.275 0.704253 11.3238C0.713366 12.3726 1.13404 13.3758 1.87567 14.1175C2.61731 14.8591 3.62056 15.2798 4.66934 15.2889C5.71813 15.298 6.72854 14.8948 7.48295 14.1662L7.49121 14.1581L8.63121 13.0181C8.89156 12.7577 8.89156 12.3356 8.63121 12.0753C8.37086 11.8149 7.94875 11.8149 7.6884 12.0753L6.55272 13.211C6.0502 13.6943 5.37829 13.9617 4.68093 13.9556C3.98174 13.9495 3.31291 13.6691 2.81848 13.1747C2.32406 12.6802 2.04361 12.0114 2.03754 11.3122C2.03148 10.6148 2.29884 9.94293 2.7822 9.44042L4.77788 7.44474C5.04822 7.1743 5.37364 6.96508 5.73191 6.83144C6.09019 6.69779 6.47301 6.64276 6.85442 6.67008C7.23583 6.69739 7.6069 6.80642 7.94247 6.98975C8.27804 7.17309 8.57026 7.42645 8.7993 7.73265C9.01984 8.02749 9.43763 8.08772 9.73246 7.86718C10.0273 7.64664 10.0875 7.22885 9.86698 6.93402C9.52342 6.47471 9.0851 6.09467 8.58174 5.81966C8.07839 5.54466 7.52178 5.38112 6.94966 5.34015Z" fill="#292737"/>
</g>
<defs>
<clipPath id="clip0_1741_61772">
<rect width="16" height="16" fill="white"/>
</clipPath>
</defs>
</svg>
