<svg width="16" height="16" viewBox="0 0 16 16" fill="none" xmlns="http://www.w3.org/2000/svg">
<path fill-rule="evenodd" clip-rule="evenodd" d="M8.66683 0.666667C8.66683 0.298477 8.36835 0 8.00016 0C7.63197 0 7.3335 0.298477 7.3335 0.666667V2.66667H6.3335C5.53785 2.66667 4.77478 2.98274 4.21218 3.54535C3.64957 4.10796 3.3335 4.87102 3.3335 5.66667C3.3335 6.46232 3.64957 7.22538 4.21218 7.78799C4.77478 8.3506 5.53785 8.66667 6.3335 8.66667H7.3335V12H4.00016C3.63197 12 3.3335 12.2985 3.3335 12.6667C3.3335 13.0349 3.63197 13.3333 4.00016 13.3333H7.3335V15.3333C7.3335 15.7015 7.63197 16 8.00016 16C8.36835 16 8.66683 15.7015 8.66683 15.3333V13.3333H9.66683C10.4625 13.3333 11.2255 13.0173 11.7881 12.4547C12.3508 11.892 12.6668 11.129 12.6668 10.3333C12.6668 9.53768 12.3508 8.77462 11.7881 8.21201C11.2255 7.6494 10.4625 7.33333 9.66683 7.33333H8.66683V4H11.3335C11.7017 4 12.0002 3.70152 12.0002 3.33333C12.0002 2.96514 11.7017 2.66667 11.3335 2.66667H8.66683V0.666667ZM7.3335 4H6.3335C5.89147 4 5.46755 4.1756 5.15498 4.48816C4.84242 4.80072 4.66683 5.22464 4.66683 5.66667C4.66683 6.10869 4.84242 6.53262 5.15498 6.84518C5.46755 7.15774 5.89147 7.33333 6.3335 7.33333H7.3335V4ZM8.66683 8.66667V12H9.66683C10.1089 12 10.5328 11.8244 10.8453 11.5118C11.1579 11.1993 11.3335 10.7754 11.3335 10.3333C11.3335 9.89131 11.1579 9.46738 10.8453 9.15482C10.5328 8.84226 10.1089 8.66667 9.66683 8.66667H8.66683Z" fill="#292737"/>
</svg>
