<svg width="16" height="16" viewBox="0 0 16 16" fill="none" xmlns="http://www.w3.org/2000/svg">
<path d="M1 2.55556H2.94444L4.21378 6.36433C4.5235 7.29369 5.11782 8.10202 5.91254 8.67478C6.70725 9.24754 7.66206 9.55568 8.64167 9.55556H10.7222C11.8568 9.55556 12.9448 9.10486 13.7471 8.30262C14.5493 7.50038 15 6.41232 15 5.27778C15 4.14324 14.5493 3.05517 13.7471 2.25293C12.9448 1.45069 11.8568 1 10.7222 1H10.3333V5.66667M4.11111 5.66667H15M6.44444 11.8889L7.22222 9.55556M11.8889 9.55556L12.6667 11.8889M4.11111 13.4444C4.11111 13.857 4.275 14.2527 4.56672 14.5444C4.85845 14.8361 5.25411 15 5.66667 15C6.07923 15 6.47489 14.8361 6.76661 14.5444C7.05833 14.2527 7.22222 13.857 7.22222 13.4444C7.22222 13.0319 7.05833 12.6362 6.76661 12.3445C6.47489 12.0528 6.07923 11.8889 5.66667 11.8889C5.25411 11.8889 4.85845 12.0528 4.56672 12.3445C4.275 12.6362 4.11111 13.0319 4.11111 13.4444ZM11.8889 13.4444C11.8889 13.857 12.0528 14.2527 12.3445 14.5444C12.6362 14.8361 13.0319 15 13.4444 15C13.857 15 14.2527 14.8361 14.5444 14.5444C14.8361 14.2527 15 13.857 15 13.4444C15 13.0319 14.8361 12.6362 14.5444 12.3445C14.2527 12.0528 13.857 11.8889 13.4444 11.8889C13.0319 11.8889 12.6362 12.0528 12.3445 12.3445C12.0528 12.6362 11.8889 13.0319 11.8889 13.4444Z" stroke="#292737" stroke-width="1.3" stroke-linecap="round" stroke-linejoin="round"/>
</svg>
