<svg width="16" height="16" viewBox="0 0 16 16" fill="none" xmlns="http://www.w3.org/2000/svg">
<path fill-rule="evenodd" clip-rule="evenodd" d="M4.86193 6.19527C5.12228 5.93492 5.54439 5.93492 5.80474 6.19527L7.13772 7.52826C7.39881 7.40331 7.69124 7.33334 8 7.33334C9.10457 7.33334 10 8.22877 10 9.33334C10 10.4379 9.10457 11.3333 8 11.3333C6.89543 11.3333 6 10.4379 6 9.33334C6 9.02458 6.06997 8.73216 6.19491 8.47107L4.86193 7.13808C4.60158 6.87773 4.60158 6.45562 4.86193 6.19527ZM8 8.66668C7.63181 8.66668 7.33333 8.96515 7.33333 9.33334C7.33333 9.70153 7.63181 10 8 10C8.36819 10 8.66667 9.70153 8.66667 9.33334C8.66667 8.96515 8.36819 8.66668 8 8.66668Z" fill="#292737"/>
<path fill-rule="evenodd" clip-rule="evenodd" d="M0 9.33334C0 4.91515 3.58181 1.33334 8 1.33334C12.4182 1.33334 16 4.91515 16 9.33334C16 11.2667 15.313 13.0415 14.1707 14.4246L13.9707 14.6667H2.02931L1.82933 14.4246C0.686998 13.0415 0 11.2667 0 9.33334ZM7.33333 2.6996V3.33334C7.33333 3.70153 7.63181 4.00001 8 4.00001C8.36819 4.00001 8.66667 3.70153 8.66667 3.33334V2.6996C10.0078 2.83276 11.2319 3.36336 12.2198 4.17195C12.2115 4.17948 12.2033 4.18725 12.1953 4.19527L11.5286 4.86194C11.2682 5.12229 11.2682 5.5444 11.5286 5.80475C11.7889 6.0651 12.2111 6.0651 12.4714 5.80475L13.1381 5.13808C13.1461 5.13006 13.1539 5.12188 13.1614 5.11357C13.97 6.1014 14.5006 7.32559 14.6337 8.66668H14C13.6318 8.66668 13.3333 8.96515 13.3333 9.33334C13.3333 9.70153 13.6318 10 14 10H14.6338C14.5104 11.2435 14.0453 12.386 13.3335 13.3333H2.66655C1.95468 12.386 1.48964 11.2435 1.36623 10H2C2.36819 10 2.66667 9.70153 2.66667 9.33334C2.66667 8.96515 2.36819 8.66668 2 8.66668H1.36625C1.67898 5.51714 4.18379 3.01232 7.33333 2.6996Z" fill="#292737"/>
</svg>
