<svg width="16" height="16" viewBox="0 0 16 16" fill="none" xmlns="http://www.w3.org/2000/svg">
<g clip-path="url(#clip0_1741_61754)">
<path d="M4.86177 7.5286C5.12212 7.26825 5.54423 7.26825 5.80457 7.5286L7.33317 9.0572V5.33334C7.33317 4.96515 7.63165 4.66667 7.99984 4.66667C8.36803 4.66667 8.6665 4.96515 8.6665 5.33334V9.0572L10.1951 7.5286C10.4554 7.26825 10.8776 7.26825 11.1379 7.5286C11.3983 7.78895 11.3983 8.21106 11.1379 8.47141L8.47172 11.1376C8.47011 11.1392 8.46849 11.1408 8.46687 11.1424C8.34703 11.2601 8.18293 11.3328 8.00184 11.3333L7.99984 11.3333L7.99784 11.3333C7.90817 11.3331 7.82267 11.3151 7.74465 11.2828C7.6678 11.251 7.5957 11.2042 7.5328 11.1424C7.53118 11.1408 7.52956 11.1392 7.52796 11.1376L4.86177 8.47141C4.60142 8.21106 4.60142 7.78895 4.86177 7.5286Z" fill="#292737"/>
<path fill-rule="evenodd" clip-rule="evenodd" d="M0.666504 8.00001C0.666504 3.94992 3.94975 0.666672 7.99984 0.666672C12.0499 0.666672 15.3332 3.94992 15.3332 8.00001C15.3332 12.0501 12.0499 15.3333 7.99984 15.3333C3.94975 15.3333 0.666504 12.0501 0.666504 8.00001ZM7.99984 2.00001C4.68613 2.00001 1.99984 4.6863 1.99984 8.00001C1.99984 11.3137 4.68613 14 7.99984 14C11.3135 14 13.9998 11.3137 13.9998 8.00001C13.9998 4.6863 11.3135 2.00001 7.99984 2.00001Z" fill="#292737"/>
</g>
<defs>
<clipPath id="clip0_1741_61754">
<rect width="16" height="16" fill="white"/>
</clipPath>
</defs>
</svg>
