<svg width="16" height="16" viewBox="0 0 16 16" fill="none" xmlns="http://www.w3.org/2000/svg">
<g clip-path="url(#clip0_1741_62189)">
<path fill-rule="evenodd" clip-rule="evenodd" d="M1.13807 0.195262C0.877722 -0.0650874 0.455612 -0.0650874 0.195262 0.195262C-0.0650874 0.455612 -0.0650874 0.877722 0.195262 1.13807L4.43144 5.37424L1.48785 8.90654C1.32225 9.10527 1.28655 9.38185 1.39627 9.6161C1.50599 9.85036 1.74132 10 2 10H7.24481L6.67181 14.584C6.63511 14.8776 6.79639 15.1604 7.06787 15.2782C7.33935 15.396 7.65602 15.3208 7.84548 15.0935L10.7115 11.6543L14.8619 15.8047C15.1223 16.0651 15.5444 16.0651 15.8047 15.8047C16.0651 15.5444 16.0651 15.1223 15.8047 14.8619L11.1439 10.2011C11.1404 10.1975 11.1369 10.194 11.1333 10.1905L5.81062 4.86781C5.80711 4.86422 5.80355 4.86066 5.79995 4.85714L1.13807 0.195262ZM5.37813 6.32094L3.42336 8.66667H7.72386L5.37813 6.32094ZM8.6406 9.58341L8.27689 12.493L9.76477 10.7076L8.6406 9.58341Z" fill="#292737"/>
<path d="M9.3283 1.41551C9.36477 1.12183 9.20328 0.83925 8.93173 0.721607C8.66018 0.603963 8.34358 0.679415 8.15428 0.906889L6.53428 2.85356C6.29876 3.13657 6.33726 3.55692 6.62027 3.79244C6.90328 4.02795 7.32363 3.98945 7.55915 3.70644L7.7249 3.50727L7.6118 4.41782C7.56641 4.78321 7.82582 5.1162 8.1912 5.16158C8.55659 5.20697 8.88958 4.94756 8.93496 4.58218L9.3283 1.41551Z" fill="#292737"/>
<path d="M10.4399 6C10.0718 6 9.77328 6.29848 9.77328 6.66667C9.77328 7.03486 10.0718 7.33333 10.4399 7.33333H12.5747L11.8682 8.17936C11.6322 8.46197 11.67 8.88239 11.9526 9.11838C12.2352 9.35438 12.6557 9.31659 12.8917 9.03398L14.5117 7.09398C14.6775 6.89533 14.7135 6.61863 14.6038 6.3842C14.4942 6.14978 14.2587 6 13.9999 6H10.4399Z" fill="#292737"/>
</g>
<defs>
<clipPath id="clip0_1741_62189">
<rect width="16" height="16" fill="white"/>
</clipPath>
</defs>
</svg>
