<svg width="16" height="16" viewBox="0 0 16 16" fill="none" xmlns="http://www.w3.org/2000/svg">
<path d="M9.39352 7.30001L10.3335 6.36001L11.2735 7.30001L11.9802 6.59334L11.0402 5.64668L11.9802 4.70668L11.2735 4.00001L10.3335 4.94001L9.39352 4.00001L8.68685 4.70668L9.62685 5.64668L8.68685 6.59334L9.39352 7.30001Z" fill="#292737"/>
<path d="M4.16683 5.14666H7.50016V6.14666H4.16683V5.14666Z" fill="#292737"/>
<path d="M12.0002 10.5H8.66683V11.5H12.0002V10.5Z" fill="#292737"/>
<path d="M12.0002 8.83334H8.66683V9.83334H12.0002V8.83334Z" fill="#292737"/>
<path d="M5.3335 12H6.3335V10.6667H7.66683V9.66668H6.3335V8.33334H5.3335V9.66668H4.00016V10.6667H5.3335V12Z" fill="#292737"/>
<path fill-rule="evenodd" clip-rule="evenodd" d="M3.3335 1.33334C2.22893 1.33334 1.3335 2.22877 1.3335 3.33334V12.6667C1.3335 13.7712 2.22893 14.6667 3.3335 14.6667H12.6668C13.7714 14.6667 14.6668 13.7712 14.6668 12.6667V3.33334C14.6668 2.22877 13.7714 1.33334 12.6668 1.33334H3.3335ZM2.66683 3.33334C2.66683 2.96515 2.96531 2.66668 3.3335 2.66668H12.6668C13.035 2.66668 13.3335 2.96515 13.3335 3.33334V12.6667C13.3335 13.0349 13.035 13.3333 12.6668 13.3333H3.3335C2.96531 13.3333 2.66683 13.0349 2.66683 12.6667V3.33334Z" fill="#292737"/>
</svg>
