<svg width="16" height="16" viewBox="0 0 16 16" fill="none" xmlns="http://www.w3.org/2000/svg">
<path fill-rule="evenodd" clip-rule="evenodd" d="M2.6665 1.33334C2.13607 1.33334 1.62736 1.54406 1.25229 1.91913C0.877217 2.2942 0.666504 2.80291 0.666504 3.33334V12.6667C0.666504 13.1971 0.877218 13.7058 1.25229 14.0809C1.62736 14.456 2.13607 14.6667 2.6665 14.6667H13.3332C13.8636 14.6667 14.3723 14.456 14.7474 14.0809C15.1225 13.7058 15.3332 13.1971 15.3332 12.6667V5.33334C15.3332 4.80291 15.1225 4.2942 14.7474 3.91913C14.3723 3.54406 13.8636 3.33334 13.3332 3.33334H7.68996L6.55454 1.63021C6.43089 1.44474 6.22274 1.33334 5.99984 1.33334H2.6665ZM2.1951 2.86194C2.32012 2.73691 2.48969 2.66668 2.6665 2.66668H5.64305L6.77847 4.36981C6.90211 4.55528 7.11027 4.66668 7.33317 4.66668H13.3332C13.51 4.66668 13.6796 4.73691 13.8046 4.86194C13.9296 4.98696 13.9998 5.15653 13.9998 5.33334V12.6667C13.9998 12.8435 13.9296 13.0131 13.8046 13.1381C13.6796 13.2631 13.51 13.3333 13.3332 13.3333H2.6665C2.48969 13.3333 2.32012 13.2631 2.1951 13.1381C2.07008 13.0131 1.99984 12.8435 1.99984 12.6667V3.33334C1.99984 3.15653 2.07008 2.98696 2.1951 2.86194Z" fill="#292737"/>
</svg>
