<svg width="16" height="16" viewBox="0 0 16 16" fill="none" xmlns="http://www.w3.org/2000/svg">
<path fill-rule="evenodd" clip-rule="evenodd" d="M11.3333 1.33334C11.3333 0.965149 11.0349 0.666672 10.6667 0.666672C10.2985 0.666672 10 0.965149 10 1.33334V2.00001H6V1.33334C6 0.965149 5.70152 0.666672 5.33333 0.666672C4.96514 0.666672 4.66667 0.965149 4.66667 1.33334V2.00001H3.33333C2.22876 2.00001 1.33333 2.89544 1.33333 4.00001V8.66667H2.66667V7.33334H13.3333V13.3333C13.3333 13.7015 13.0349 14 12.6667 14H8V15.3333H12.6667C13.7712 15.3333 14.6667 14.4379 14.6667 13.3333V4.00001C14.6667 2.89544 13.7712 2.00001 12.6667 2.00001H11.3333V1.33334ZM13.3333 6.00001V4.00001C13.3333 3.63182 13.0349 3.33334 12.6667 3.33334H11.3333V4.00001C11.3333 4.3682 11.0349 4.66667 10.6667 4.66667C10.2985 4.66667 10 4.3682 10 4.00001V3.33334H6V4.00001C6 4.3682 5.70152 4.66667 5.33333 4.66667C4.96514 4.66667 4.66667 4.3682 4.66667 4.00001V3.33334H3.33333C2.96514 3.33334 2.66667 3.63182 2.66667 4.00001V6.00001H13.3333Z" fill="#292737"/>
<path d="M4 8.52887C4.26255 8.26816 4.68822 8.26816 4.95077 8.52887L7.80309 11.3613C8.06564 11.622 8.06564 12.0447 7.80309 12.3054L4.95077 15.1378C4.68822 15.3985 4.26255 15.3985 4 15.1378C3.73745 14.8771 3.73745 14.4544 4 14.1937L5.70463 12.5009L0.672297 12.5009C0.300998 12.5009 0 12.202 0 11.8333C0 11.4646 0.300998 11.1657 0.672298 11.1657L5.70463 11.1657L4 9.47301C3.73745 9.21229 3.73745 8.78959 4 8.52887Z" fill="#292737"/>
</svg>
