<svg width="16" height="16" viewBox="0 0 16 16" fill="none" xmlns="http://www.w3.org/2000/svg">
<g clip-path="url(#clip0_1741_62273)">
<path d="M10.4712 5.52862C10.7316 5.78897 10.7316 6.21108 10.4712 6.47143L8.94265 8.00002L10.4712 9.52862C10.7316 9.78897 10.7316 10.2111 10.4712 10.4714C10.2109 10.7318 9.78878 10.7318 9.52843 10.4714L7.99984 8.94283L6.47124 10.4714C6.21089 10.7318 5.78878 10.7318 5.52843 10.4714C5.26808 10.2111 5.26808 9.78897 5.52843 9.52862L7.05703 8.00002L5.52843 6.47143C5.26808 6.21108 5.26808 5.78897 5.52843 5.52862C5.78878 5.26827 6.21089 5.26827 6.47124 5.52862L7.99984 7.05721L9.52843 5.52862C9.78878 5.26827 10.2109 5.26827 10.4712 5.52862Z" fill="#292737"/>
<path fill-rule="evenodd" clip-rule="evenodd" d="M4.76843 0.861949C4.89346 0.736925 5.06303 0.666687 5.23984 0.666687H10.7598C10.9366 0.666687 11.1062 0.736925 11.2312 0.861949L15.1379 4.76862C15.2629 4.89364 15.3332 5.06321 15.3332 5.24002V10.76C15.3332 10.9368 15.2629 11.1064 15.1379 11.2314L11.2312 15.1381C11.1062 15.2631 10.9366 15.3334 10.7598 15.3334H5.23984C5.06303 15.3334 4.89346 15.2631 4.76843 15.1381L0.861766 11.2314C0.736742 11.1064 0.666504 10.9368 0.666504 10.76V5.24002C0.666504 5.06321 0.736742 4.89364 0.861766 4.76862L4.76843 0.861949ZM5.51598 2.00002L1.99984 5.51616V10.4839L5.51598 14H10.4837L13.9998 10.4839V5.51616L10.4837 2.00002H5.51598Z" fill="#292737"/>
</g>
<defs>
<clipPath id="clip0_1741_62273">
<rect width="16" height="16" fill="white"/>
</clipPath>
</defs>
</svg>
