<svg width="16" height="16" viewBox="0 0 16 16" fill="none" xmlns="http://www.w3.org/2000/svg">
<path fill-rule="evenodd" clip-rule="evenodd" d="M12.0002 1.25244C11.4483 1.25244 10.919 1.47168 10.5288 1.86192L2.19544 10.1953C2.11 10.2807 2.04939 10.3877 2.02008 10.505L1.35342 13.1716C1.29662 13.3988 1.36319 13.6391 1.52877 13.8047C1.69436 13.9703 1.93468 14.0369 2.16187 13.9801L4.82853 13.3134C4.94576 13.2841 5.05281 13.2235 5.13825 13.1381L13.4716 4.80473C13.6648 4.6115 13.8181 4.3821 13.9227 4.12964C14.0272 3.87718 14.0811 3.60659 14.0811 3.33332C14.0811 3.06006 14.0272 2.78947 13.9227 2.537C13.8181 2.28454 13.6648 2.05514 13.4716 1.86192C13.2784 1.66869 13.049 1.51541 12.7965 1.41084C12.544 1.30626 12.2734 1.25244 12.0002 1.25244ZM11.4716 2.80473C11.6118 2.66453 11.8019 2.58577 12.0002 2.58577C12.0983 2.58577 12.1956 2.60511 12.2863 2.64268C12.3769 2.68025 12.4594 2.73531 12.5288 2.80473C12.5982 2.87414 12.6533 2.95655 12.6908 3.04725C12.7284 3.13794 12.7477 3.23515 12.7477 3.33332C12.7477 3.43149 12.7284 3.5287 12.6908 3.6194C12.6533 3.71009 12.5982 3.7925 12.5288 3.86192L4.32601 12.0647L2.91642 12.4171L3.26882 11.0075L11.4716 2.80473Z" fill="#292737"/>
<path d="M8.00018 12.6667C7.63199 12.6667 7.33351 12.9651 7.33351 13.3333C7.33351 13.7015 7.63199 14 8.00018 14H14.0002C14.3684 14 14.6668 13.7015 14.6668 13.3333C14.6668 12.9651 14.3684 12.6667 14.0002 12.6667H8.00018Z" fill="#292737"/>
</svg>
