<svg width="16" height="16" viewBox="0 0 16 16" fill="none" xmlns="http://www.w3.org/2000/svg">
<g clip-path="url(#clip0_1741_61770)">
<path fill-rule="evenodd" clip-rule="evenodd" d="M0.666504 7.99999C0.666504 3.9499 3.94975 0.666656 7.99984 0.666656C12.0499 0.666656 15.3332 3.9499 15.3332 7.99999C15.3332 12.0501 12.0499 15.3333 7.99984 15.3333C3.94975 15.3333 0.666504 12.0501 0.666504 7.99999ZM3.31188 4.25489C2.49081 5.28133 1.99984 6.58333 1.99984 7.99999C1.99984 9.41665 2.49081 10.7186 3.31188 11.7451L5.21875 9.83822C4.86975 9.31127 4.6665 8.67937 4.6665 7.99999C4.6665 7.32061 4.86975 6.68871 5.21875 6.16176L3.31188 4.25489ZM6.16155 10.781L4.25469 12.6879C5.28114 13.509 6.58315 14 7.99984 14C9.41653 14 10.7185 13.509 11.745 12.6879L9.83813 10.781C9.31117 11.1301 8.67924 11.3333 7.99984 11.3333C7.32044 11.3333 6.68851 11.1301 6.16155 10.781ZM13.9998 7.99999C13.9998 9.41665 13.5089 10.7186 12.6878 11.7451L10.7809 9.83822C11.1299 9.31127 11.3332 8.67937 11.3332 7.99999C11.3332 7.32062 11.1299 6.68871 10.7809 6.16176L12.6878 4.25489C13.5089 5.28134 13.9998 6.58333 13.9998 7.99999ZM11.745 3.31208L9.83813 5.21894C9.31117 4.86992 8.67924 4.66666 7.99984 4.66666C7.32044 4.66666 6.68851 4.86992 6.16155 5.21894L4.25469 3.31208C5.28114 2.49098 6.58315 1.99999 7.99984 1.99999C9.41653 1.99999 10.7185 2.49098 11.745 3.31208ZM7.99984 5.99999C6.89527 5.99999 5.99984 6.89542 5.99984 7.99999C5.99984 9.10456 6.89527 9.99999 7.99984 9.99999C9.10441 9.99999 9.99984 9.10456 9.99984 7.99999C9.99984 6.89542 9.10441 5.99999 7.99984 5.99999Z" fill="#292737"/>
</g>
<defs>
<clipPath id="clip0_1741_61770">
<rect width="16" height="16" fill="white"/>
</clipPath>
</defs>
</svg>
