<svg width="16" height="16" viewBox="0 0 16 16" fill="none" xmlns="http://www.w3.org/2000/svg">
<path fill-rule="evenodd" clip-rule="evenodd" d="M12.5882 1.07927C11.724 0.688176 10.7611 0.56976 9.8278 0.739803C8.89454 0.909846 8.03526 1.36027 7.36448 2.03105C6.69369 2.70184 6.24327 3.56112 6.07323 4.49438C5.93142 5.27268 5.99023 6.07161 6.2405 6.81673L1.942 11.1152C1.55175 11.5055 1.33252 12.0348 1.33252 12.5866C1.33252 13.1385 1.55175 13.6678 1.942 14.058C2.33224 14.4483 2.86152 14.6675 3.4134 14.6675C3.96528 14.6675 4.49456 14.4483 4.8848 14.058L9.18331 9.75954C9.92844 10.0098 10.7274 10.0686 11.5057 9.92682C12.4389 9.75677 13.2982 9.30635 13.969 8.63557C14.6398 7.96479 15.0902 7.10551 15.2602 6.17224C15.4303 5.23898 15.3119 4.27605 14.9208 3.4118C14.8305 3.21241 14.6482 3.07 14.4329 3.03078C14.2176 2.99155 13.9967 3.06049 13.842 3.21524L11.3334 5.72384L10.2762 4.66664L12.7848 2.15805C12.9396 2.0033 13.0085 1.78245 12.9693 1.56714C12.93 1.35184 12.7876 1.1695 12.5882 1.07927ZM10.0668 2.05154C10.3892 1.99279 10.7166 1.98225 11.0386 2.01863L9.32866 3.72857L9.32397 3.73331C9.07967 3.98255 8.94283 4.31764 8.94283 4.66664C8.94283 5.01565 9.07967 5.35074 9.32397 5.59998L9.32866 5.60471L10.3953 6.67138L10.4001 6.67607C10.6493 6.92038 10.9844 7.05722 11.3334 7.05722C11.6824 7.05722 12.0175 6.92038 12.2667 6.67607L12.2715 6.67138L13.9814 4.96144C14.0178 5.28342 14.0072 5.61081 13.9485 5.93324C13.827 6.59986 13.5053 7.21363 13.0262 7.69276C12.547 8.17189 11.9333 8.49362 11.2667 8.61508C10.6 8.73654 9.91224 8.65196 9.29492 8.3726C9.04211 8.2582 8.74487 8.31236 8.54866 8.50857L3.942 13.1152C3.8018 13.2554 3.61166 13.3342 3.4134 13.3342C3.21514 13.3342 3.025 13.2554 2.8848 13.1152C2.74461 12.975 2.66585 12.7849 2.66585 12.5866C2.66585 12.3884 2.74461 12.1982 2.8848 12.058L7.49147 7.45138C7.68768 7.25517 7.74184 6.95794 7.62744 6.70513C7.34809 6.0878 7.2635 5.4 7.38496 4.73338C7.50642 4.06676 7.82815 3.45299 8.30728 2.97386C8.78641 2.49473 9.40019 2.173 10.0668 2.05154Z" fill="#292737"/>
</svg>
