<svg width="16" height="16" viewBox="0 0 16 16" fill="none" xmlns="http://www.w3.org/2000/svg">
<path d="M3.33317 10.6667C3.33317 10.2985 3.63165 10 3.99984 10H4.0065C4.37469 10 4.67317 10.2985 4.67317 10.6667C4.67317 11.0349 4.37469 11.3333 4.0065 11.3333H3.99984C3.63165 11.3333 3.33317 11.0349 3.33317 10.6667Z" fill="#292737"/>
<path d="M6.6665 10C6.29831 10 5.99984 10.2985 5.99984 10.6667C5.99984 11.0349 6.29831 11.3333 6.6665 11.3333H6.67317C7.04136 11.3333 7.33984 11.0349 7.33984 10.6667C7.33984 10.2985 7.04136 10 6.67317 10H6.6665Z" fill="#292737"/>
<path fill-rule="evenodd" clip-rule="evenodd" d="M4.82615 2C4.45407 2.0002 4.08941 2.10419 3.77319 2.30028C3.45728 2.49618 3.20223 2.77624 3.03663 3.10903L3.03615 3.11L0.743056 7.68953C0.694174 7.78226 0.666504 7.8879 0.666504 8V12C0.666504 12.5304 0.877218 13.0391 1.25229 13.4142C1.62736 13.7893 2.13607 14 2.6665 14H13.3332C13.8636 14 14.3723 13.7893 14.7474 13.4142C15.1225 13.0391 15.3332 12.5304 15.3332 12V8C15.3332 7.99151 15.333 7.98302 15.3327 7.97455C15.3288 7.87191 15.3018 7.7752 15.2566 7.68952L12.9635 3.11L12.9631 3.10912C12.7975 2.77629 12.5424 2.4962 12.2265 2.30028C11.9103 2.10419 11.5456 2.0002 11.1735 2H4.82615ZM13.5871 7.33333L11.7704 3.70516L11.7695 3.70333C11.7143 3.59226 11.6292 3.49879 11.5238 3.43343C11.4184 3.36808 11.2969 3.33342 11.1729 3.33333H4.82673C4.70275 3.33342 4.58124 3.36808 4.47587 3.43343C4.37047 3.49879 4.28538 3.59226 4.23019 3.70333L3.63317 3.40667L4.22928 3.70516L2.41256 7.33333H13.5871ZM1.99984 8.66667V12C1.99984 12.1768 2.07008 12.3464 2.1951 12.4714C2.32012 12.5964 2.48969 12.6667 2.6665 12.6667H13.3332C13.51 12.6667 13.6796 12.5964 13.8046 12.4714C13.9296 12.3464 13.9998 12.1768 13.9998 12V8.66667H1.99984Z" fill="#292737"/>
</svg>
