<svg width="16" height="16" viewBox="0 0 16 16" fill="none" xmlns="http://www.w3.org/2000/svg">
<g clip-path="url(#clip0_1741_62308)">
<circle cx="8" cy="8" r="8" fill="#292737"/>
<path d="M7.983 11.4261C7.48805 11.4261 7.04724 11.3411 6.66056 11.1709C6.27609 10.9986 5.97227 10.7621 5.7491 10.4616C5.52814 10.1589 5.41434 9.8098 5.40771 9.41428H6.85279C6.86163 9.58 6.91576 9.72584 7.0152 9.85178C7.11684 9.97552 7.25162 10.0716 7.41955 10.1401C7.58748 10.2086 7.7764 10.2429 7.98631 10.2429C8.20506 10.2429 8.3984 10.2042 8.56633 10.1269C8.73426 10.0495 8.86573 9.94238 8.96075 9.80538C9.05576 9.66839 9.10326 9.5104 9.10326 9.33142C9.10326 9.15024 9.05244 8.99004 8.9508 8.85084C8.85137 8.70942 8.70775 8.59894 8.51993 8.5194C8.33432 8.43985 8.11336 8.40008 7.85705 8.40008H7.224V7.3461H7.85705C8.07359 7.3461 8.26472 7.30854 8.43044 7.23341C8.59837 7.15829 8.72874 7.05444 8.82154 6.92186C8.91434 6.78708 8.96075 6.63019 8.96075 6.45122C8.96075 6.28108 8.91987 6.13193 8.83811 6.00377C8.75857 5.87341 8.64588 5.77177 8.50004 5.69885C8.35642 5.62593 8.18849 5.58947 7.99626 5.58947C7.80181 5.58947 7.62394 5.62483 7.46264 5.69553C7.30134 5.76403 7.17208 5.86236 7.07486 5.99052C6.97763 6.11867 6.92571 6.26892 6.91908 6.44127H5.54361C5.55023 6.05017 5.66182 5.70548 5.87836 5.40718C6.0949 5.10889 6.38657 4.87577 6.75336 4.70785C7.12236 4.53771 7.53887 4.45264 8.00289 4.45264C8.47132 4.45264 8.8812 4.53771 9.23253 4.70785C9.58385 4.87798 9.85674 5.10778 10.0512 5.39724C10.2478 5.68449 10.3451 6.00709 10.3428 6.36504C10.3451 6.74509 10.2268 7.06217 9.98821 7.31627C9.75178 7.57038 9.44354 7.73168 9.06349 7.80017V7.8532C9.56286 7.91728 9.94291 8.09074 10.2036 8.37356C10.4666 8.65418 10.597 9.00551 10.5947 9.42754C10.597 9.81422 10.4854 10.1578 10.26 10.4583C10.0368 10.7588 9.72858 10.9953 9.33527 11.1676C8.94196 11.3399 8.49121 11.4261 7.983 11.4261Z" fill="white"/>
</g>
<defs>
<clipPath id="clip0_1741_62308">
<rect width="16" height="16" fill="white"/>
</clipPath>
</defs>
</svg>
