<svg width="16" height="16" viewBox="0 0 16 16" fill="none" xmlns="http://www.w3.org/2000/svg">
<path d="M9.47493 1.4993C8.37655 1.25077 7.2331 1.28454 6.1513 1.59745C5.0739 1.90909 4.09261 2.48749 3.29822 3.27901L1.33333 5.09275V2.66668C1.33333 2.29849 1.03486 2.00001 0.666667 2.00001C0.298477 2.00001 0 2.29849 0 2.66668V6.66668C0 7.03487 0.298477 7.33334 0.666667 7.33334H4.66667C5.03486 7.33334 5.33333 7.03487 5.33333 6.66668C5.33333 6.29849 5.03486 6.00001 4.66667 6.00001H2.31622L4.21219 4.24989C4.21876 4.24382 4.2252 4.23763 4.23152 4.23131C4.86841 3.5941 5.65634 3.12861 6.52178 2.87828C7.38722 2.62795 8.30198 2.60094 9.18069 2.79976C10.0594 2.99857 10.8734 3.41675 11.5468 4.01526C12.2202 4.61377 12.731 5.37311 13.0315 6.22242C13.1543 6.56952 13.5353 6.75132 13.8824 6.6285C14.2295 6.50567 14.4113 6.12472 14.2885 5.77762C13.9128 4.71598 13.2743 3.76681 12.4326 3.01867C11.5908 2.27054 10.5733 1.74782 9.47493 1.4993Z" fill="#292737"/>
<path d="M2.96848 9.77762C2.84565 9.43052 2.4647 9.24872 2.1176 9.37154C1.7705 9.49437 1.5887 9.87532 1.71152 10.2224C2.0872 11.2841 2.7257 12.2332 3.56742 12.9814C4.40915 13.7295 5.42668 14.2522 6.52507 14.5007C7.62345 14.7493 8.7669 14.7155 9.8487 14.4026C10.9261 14.0909 11.9074 13.5126 12.7018 12.721L14.6667 10.9073V13.3333C14.6667 13.7015 14.9651 14 15.3333 14C15.7015 14 16 13.7015 16 13.3333V9.33334C16 8.96515 15.7015 8.66668 15.3333 8.66668H11.3333C10.9651 8.66668 10.6667 8.96515 10.6667 9.33334C10.6667 9.70153 10.9651 10 11.3333 10H13.6838L11.7878 11.7502C11.7812 11.7562 11.7748 11.7624 11.7685 11.7687C11.1316 12.4059 10.3437 12.8714 9.47822 13.1218C8.61278 13.3721 7.69802 13.3991 6.81931 13.2003C5.94061 13.0015 5.12658 12.5833 4.4532 11.9848C3.77982 11.3863 3.26902 10.6269 2.96848 9.77762Z" fill="#292737"/>
</svg>
