<svg width="16" height="16" viewBox="0 0 16 16" fill="none" xmlns="http://www.w3.org/2000/svg">
<g clip-path="url(#clip0_1741_61981)">
<path fill-rule="evenodd" clip-rule="evenodd" d="M8.37125 0.779598C8.26513 0.708283 8.13737 0.666672 7.99989 0.666672C7.86242 0.666672 7.73466 0.708283 7.62854 0.779598L0.982541 5.09949C0.912832 5.14255 0.850043 5.19919 0.798396 5.26867C0.791851 5.27747 0.785529 5.28642 0.779433 5.29551C0.70143 5.4118 0.664851 5.54416 0.666561 5.67484V10.3252C0.664851 10.4558 0.70143 10.5882 0.779433 10.7045C0.785529 10.7136 0.791851 10.7225 0.798395 10.7313C0.850042 10.8008 0.91283 10.8575 0.982537 10.9005L7.62854 15.2204C7.73467 15.2917 7.86242 15.3333 7.99989 15.3333C8.13737 15.3333 8.26512 15.2917 8.37125 15.2204L15.0173 10.9005C15.0849 10.8587 15.146 10.8041 15.1968 10.7374C15.2023 10.7303 15.2076 10.723 15.2127 10.7156L15.2215 10.7027C15.2987 10.5869 15.3349 10.4552 15.3332 10.3252V5.67482C15.3349 5.54482 15.2987 5.41315 15.2215 5.2973L15.2127 5.28436C15.2076 5.277 15.2023 5.26973 15.1968 5.26257C15.146 5.19587 15.0849 5.14129 15.0173 5.0995L8.37125 0.779598ZM7.33323 2.5618L2.525 5.68714L4.66656 7.18623L7.33323 5.31957V2.5618ZM8.66656 5.31957V2.5618L13.4748 5.68714L11.3332 7.18623L8.66656 5.31957ZM12.4958 8.00001L13.9999 6.94711V9.0529L12.4958 8.00001ZM7.99989 6.48044L5.82909 8.00001L7.99989 9.51957L10.1707 8.00001L7.99989 6.48044ZM1.99989 6.94711L3.50403 8.00001L1.99989 9.0529V6.94711ZM4.66656 8.81378L2.525 10.3129L7.33323 13.4382V10.6804L4.66656 8.81378ZM13.4748 10.3129L11.3332 8.81378L8.66656 10.6804V13.4382L13.4748 10.3129Z" fill="#292737"/>
</g>
<defs>
<clipPath id="clip0_1741_61981">
<rect width="16" height="16" fill="white"/>
</clipPath>
</defs>
</svg>
