<svg width="16" height="16" viewBox="0 0 16 16" fill="none" xmlns="http://www.w3.org/2000/svg">
<path fill-rule="evenodd" clip-rule="evenodd" d="M10.1056 5.20992C10.5888 5.69779 11.2592 5.99999 12.0002 5.99999C13.4729 5.99999 14.6668 4.80608 14.6668 3.33332C14.6668 1.86056 13.4729 0.666656 12.0002 0.666656C10.5274 0.666656 9.3335 1.86056 9.3335 3.33332C9.3335 3.58468 9.36827 3.82792 9.43328 4.05848L5.89481 6.12345C5.41154 5.63555 4.74115 5.33332 4.00016 5.33332C2.5274 5.33332 1.3335 6.52723 1.3335 7.99999C1.3335 9.47275 2.5274 10.6667 4.00016 10.6667C4.74128 10.6667 5.41179 10.3643 5.89508 9.87627L9.43411 11.9385C9.36857 12.17 9.3335 12.4142 9.3335 12.6667C9.3335 14.1394 10.5274 15.3333 12.0002 15.3333C13.4729 15.3333 14.6668 14.1394 14.6668 12.6667C14.6668 11.1939 13.4729 9.99999 12.0002 9.99999C11.2603 9.99999 10.5908 10.3013 10.1077 10.7879L6.56717 8.72472C6.63209 8.49428 6.66683 8.25119 6.66683 7.99999C6.66683 7.74866 6.63206 7.50545 6.56707 7.2749L10.1056 5.20992ZM12.0002 1.99999C11.2638 1.99999 10.6668 2.59694 10.6668 3.33332C10.6668 3.56467 10.7257 3.78225 10.8294 3.97188C10.8363 3.98233 10.843 3.99303 10.8493 4.00398C10.8557 4.01484 10.8617 4.02581 10.8673 4.03687C11.1027 4.41498 11.522 4.66666 12.0002 4.66666C12.7365 4.66666 13.3335 4.0697 13.3335 3.33332C13.3335 2.59694 12.7365 1.99999 12.0002 1.99999ZM5.13361 7.29745C5.13912 7.30818 5.14495 7.31881 5.1511 7.32935C5.15729 7.33996 5.16373 7.35033 5.1704 7.36047C5.27438 7.55033 5.3335 7.76825 5.3335 7.99999C5.3335 8.23175 5.27436 8.44971 5.17036 8.63958C5.16362 8.64982 5.15713 8.6603 5.15088 8.67101C5.14483 8.6814 5.13908 8.69189 5.13365 8.70246C4.89845 9.08117 4.47875 9.33332 4.00016 9.33332C3.26378 9.33332 2.66683 8.73637 2.66683 7.99999C2.66683 7.26361 3.26378 6.66666 4.00016 6.66666C4.47873 6.66666 4.89841 6.91878 5.13361 7.29745ZM10.6668 12.6667C10.6668 12.45 10.7185 12.2454 10.8102 12.0645C10.8267 12.0428 10.8421 12.0198 10.8562 11.9956C10.8697 11.9725 10.8817 11.9488 10.8921 11.9248C11.1314 11.5681 11.5384 11.3333 12.0002 11.3333C12.7365 11.3333 13.3335 11.9303 13.3335 12.6667C13.3335 13.403 12.7365 14 12.0002 14C11.2638 14 10.6668 13.403 10.6668 12.6667Z" fill="#292737"/>
</svg>
