<svg width="16" height="16" viewBox="0 0 16 16" fill="none" xmlns="http://www.w3.org/2000/svg">
<path d="M8.47157 1.52858C8.21122 1.26823 7.78911 1.26823 7.52876 1.52858L4.19542 4.86191C3.93508 5.12226 3.93508 5.54437 4.19542 5.80472C4.45577 6.06507 4.87788 6.06507 5.13823 5.80472L7.3335 3.60945V10.0476C7.3335 10.4158 7.63197 10.7143 8.00016 10.7143C8.36835 10.7143 8.66683 10.4158 8.66683 10.0476V3.60945L10.8621 5.80472C11.1224 6.06507 11.5445 6.06507 11.8049 5.80472C12.0652 5.54437 12.0652 5.12226 11.8049 4.86191L8.47157 1.52858Z" fill="#292737"/>
<path d="M2.66683 9.99998C2.66683 9.63179 2.36835 9.33331 2.00016 9.33331C1.63197 9.33331 1.3335 9.63179 1.3335 9.99998V12.6666C1.3335 13.1971 1.54421 13.7058 1.91928 14.0809C2.29436 14.4559 2.80306 14.6666 3.3335 14.6666H12.6668C13.1973 14.6666 13.706 14.4559 14.081 14.0809C14.4561 13.7058 14.6668 13.1971 14.6668 12.6666V9.99998C14.6668 9.63179 14.3684 9.33331 14.0002 9.33331C13.632 9.33331 13.3335 9.63179 13.3335 9.99998V12.6666C13.3335 12.8435 13.2633 13.013 13.1382 13.1381C13.0132 13.2631 12.8436 13.3333 12.6668 13.3333H3.3335C3.15669 13.3333 2.98712 13.2631 2.86209 13.1381C2.73707 13.013 2.66683 12.8435 2.66683 12.6666V9.99998Z" fill="#292737"/>
</svg>
