<svg width="16" height="16" viewBox="0 0 16 16" fill="none" xmlns="http://www.w3.org/2000/svg">
<g clip-path="url(#clip0_1741_61810)">
<path fill-rule="evenodd" clip-rule="evenodd" d="M5.33333 0.666656C5.20876 0.666656 5.09216 0.700825 4.99241 0.760302L0.335907 3.42116C0.128191 3.53986 0 3.76075 0 3.99999V14.6667C0 14.9043 0.126506 15.124 0.332049 15.2433C0.537592 15.3625 0.791091 15.3634 0.997426 15.2455L5.35431 12.7558L10.3565 15.2569C10.443 15.3025 10.5408 15.3296 10.6446 15.333C10.652 15.3332 10.6593 15.3333 10.6667 15.3333C10.7912 15.3333 10.9078 15.2992 11.0076 15.2397L15.6641 12.5788C15.8718 12.4601 16 12.2392 16 12V1.33332C16 1.09568 15.8735 0.875998 15.668 0.756716C15.4624 0.637435 15.2089 0.636589 15.0026 0.754494L10.6457 3.24414L5.64347 0.743034C5.55237 0.695072 5.44881 0.667581 5.33891 0.666679L5.33333 0.666656ZM11.3333 13.5179L14.6667 11.6131V2.48211L11.3333 4.38687V13.5179ZM10 4.41201L6 2.41201V11.588L10 13.588V4.41201ZM1.33333 4.38687L4.66667 2.48211V11.6131L1.33333 13.5179V4.38687Z" fill="#292737"/>
</g>
<defs>
<clipPath id="clip0_1741_61810">
<rect width="16" height="16" fill="white"/>
</clipPath>
</defs>
</svg>
