<svg width="16" height="16" viewBox="0 0 16 16" fill="none" xmlns="http://www.w3.org/2000/svg">
<path fill-rule="evenodd" clip-rule="evenodd" d="M4.66667 9.33332C4.66667 7.49237 6.15905 5.99999 8 5.99999C9.84095 5.99999 11.3333 7.49237 11.3333 9.33332C11.3333 11.1743 9.84095 12.6667 8 12.6667C6.15905 12.6667 4.66667 11.1743 4.66667 9.33332ZM8 7.33332C6.89543 7.33332 6 8.22875 6 9.33332C6 10.4379 6.89543 11.3333 8 11.3333C9.10457 11.3333 10 10.4379 10 9.33332C10 8.22875 9.10457 7.33332 8 7.33332Z" fill="#292737"/>
<path d="M8 3.33332C7.63181 3.33332 7.33333 3.6318 7.33333 3.99999C7.33333 4.36818 7.63181 4.66666 8 4.66666H8.00667C8.37486 4.66666 8.67333 4.36818 8.67333 3.99999C8.67333 3.6318 8.37486 3.33332 8.00667 3.33332H8Z" fill="#292737"/>
<path fill-rule="evenodd" clip-rule="evenodd" d="M2 2.66666C2 1.56209 2.89543 0.666656 4 0.666656H12C13.1046 0.666656 14 1.56209 14 2.66666V13.3333C14 14.4379 13.1046 15.3333 12 15.3333H4C2.89543 15.3333 2 14.4379 2 13.3333V2.66666ZM4 1.99999C3.63181 1.99999 3.33333 2.29847 3.33333 2.66666V13.3333C3.33333 13.7015 3.63181 14 4 14H12C12.3682 14 12.6667 13.7015 12.6667 13.3333V2.66666C12.6667 2.29847 12.3682 1.99999 12 1.99999H4Z" fill="#292737"/>
</svg>
