<svg width="16" height="16" viewBox="0 0 16 16" fill="none" xmlns="http://www.w3.org/2000/svg">
<path fill-rule="evenodd" clip-rule="evenodd" d="M6.6665 1.33333C6.13607 1.33333 5.62736 1.54404 5.25229 1.91911C4.87722 2.29419 4.6665 2.80289 4.6665 3.33333V3.99999H2.6665C1.56193 3.99999 0.666504 4.89543 0.666504 5.99999V12.6667C0.666504 13.7712 1.56193 14.6667 2.6665 14.6667H13.3332C14.4377 14.6667 15.3332 13.7712 15.3332 12.6667V5.99999C15.3332 4.89543 14.4377 3.99999 13.3332 3.99999H11.3332V3.33333C11.3332 2.80289 11.1225 2.29419 10.7474 1.91911C10.3723 1.54404 9.8636 1.33333 9.33317 1.33333H6.6665ZM9.99984 3.99999V3.33333C9.99984 3.15652 9.9296 2.98695 9.80457 2.86192C9.67955 2.7369 9.50998 2.66666 9.33317 2.66666H6.6665C6.48969 2.66666 6.32012 2.7369 6.1951 2.86192C6.07008 2.98695 5.99984 3.15652 5.99984 3.33333V3.99999H9.99984ZM5.99984 5.33333H9.99984V13.3333H5.99984V5.33333ZM4.6665 5.33333H2.6665C2.29831 5.33333 1.99984 5.6318 1.99984 5.99999V12.6667C1.99984 13.0349 2.29831 13.3333 2.6665 13.3333H4.6665V5.33333ZM11.3332 13.3333V5.33333H13.3332C13.7014 5.33333 13.9998 5.6318 13.9998 5.99999V12.6667C13.9998 13.0349 13.7014 13.3333 13.3332 13.3333H11.3332Z" fill="#292737"/>
</svg>
