<svg width="16" height="16" viewBox="0 0 16 16" fill="none" xmlns="http://www.w3.org/2000/svg">
<path fill-rule="evenodd" clip-rule="evenodd" d="M10.6665 1.33333H5.33317C4.46236 1.33333 3.72153 1.88987 3.44697 2.66666H2.6665C1.56193 2.66666 0.666504 3.56209 0.666504 4.66666V11.3333C0.666504 12.4379 1.56193 13.3333 2.6665 13.3333H3.44697C3.72153 14.1101 4.46236 14.6667 5.33317 14.6667H10.6665C11.5373 14.6667 12.2781 14.1101 12.5527 13.3333H13.3332C14.4377 13.3333 15.3332 12.4379 15.3332 11.3333V4.66666C15.3332 3.56209 14.4377 2.66666 13.3332 2.66666H12.5527C12.2781 1.88987 11.5373 1.33333 10.6665 1.33333ZM12.6665 3.99999V12H13.3332C13.7014 12 13.9998 11.7015 13.9998 11.3333V4.66666C13.9998 4.29847 13.7014 3.99999 13.3332 3.99999H12.6665ZM3.33317 12V3.99999H2.6665C2.29831 3.99999 1.99984 4.29847 1.99984 4.66666V11.3333C1.99984 11.7015 2.29831 12 2.6665 12H3.33317ZM4.6665 3.33333C4.6665 2.96514 4.96498 2.66666 5.33317 2.66666H10.6665C11.0347 2.66666 11.3332 2.96514 11.3332 3.33333V12.6667C11.3332 13.0349 11.0347 13.3333 10.6665 13.3333H5.33317C4.96498 13.3333 4.6665 13.0349 4.6665 12.6667V3.33333Z" fill="#292737"/>
</svg>
