<svg width="16" height="16" viewBox="0 0 16 16" fill="none" xmlns="http://www.w3.org/2000/svg">
<g clip-path="url(#clip0_1741_62053)">
<path fill-rule="evenodd" clip-rule="evenodd" d="M15.1379 0.861937C15.2869 1.01093 15.3506 1.21289 15.3291 1.4072C15.3231 1.46167 15.3103 1.51553 15.2909 1.56747L10.6291 14.8869C10.5388 15.1449 10.3001 15.3216 10.027 15.3328C9.7539 15.3439 9.50165 15.1872 9.39063 14.9374L6.8281 9.17174L1.06242 6.60922C0.812628 6.4982 0.655919 6.24595 0.667061 5.97283C0.678204 5.69971 0.85494 5.46107 1.11294 5.37077L14.4324 0.708975C14.4846 0.689414 14.5388 0.676637 14.5936 0.670644C14.6339 0.666215 14.6743 0.665498 14.7143 0.66838C14.8687 0.679409 15.0199 0.743928 15.1379 0.861937ZM12.1294 2.92766L3.14056 6.07374L7.18553 7.87151L12.1294 2.92766ZM8.12834 8.81432L13.0722 3.87046L9.9261 12.8593L8.12834 8.81432Z" fill="#292737"/>
</g>
<defs>
<clipPath id="clip0_1741_62053">
<rect width="16" height="16" fill="white"/>
</clipPath>
</defs>
</svg>
