<svg width="16" height="16" viewBox="0 0 16 16" fill="none" xmlns="http://www.w3.org/2000/svg">
<g clip-path="url(#clip0_1741_62271)">
<path d="M10.4712 5.52862C10.7316 5.78897 10.7316 6.21108 10.4712 6.47143L8.94265 8.00002L10.4712 9.52862C10.7316 9.78897 10.7316 10.2111 10.4712 10.4714C10.2109 10.7318 9.78878 10.7318 9.52843 10.4714L7.99984 8.94283L6.47124 10.4714C6.21089 10.7318 5.78878 10.7318 5.52843 10.4714C5.26808 10.2111 5.26808 9.78897 5.52843 9.52862L7.05703 8.00002L5.52843 6.47143C5.26808 6.21108 5.26808 5.78897 5.52843 5.52862C5.78878 5.26827 6.21089 5.26827 6.47124 5.52862L7.99984 7.05721L9.52843 5.52862C9.78878 5.26827 10.2109 5.26827 10.4712 5.52862Z" fill="#292737"/>
<path fill-rule="evenodd" clip-rule="evenodd" d="M0.666504 8.00002C0.666504 3.94993 3.94975 0.666687 7.99984 0.666687C12.0499 0.666687 15.3332 3.94993 15.3332 8.00002C15.3332 12.0501 12.0499 15.3334 7.99984 15.3334C3.94975 15.3334 0.666504 12.0501 0.666504 8.00002ZM7.99984 2.00002C4.68613 2.00002 1.99984 4.68631 1.99984 8.00002C1.99984 11.3137 4.68613 14 7.99984 14C11.3135 14 13.9998 11.3137 13.9998 8.00002C13.9998 4.68631 11.3135 2.00002 7.99984 2.00002Z" fill="#292737"/>
</g>
<defs>
<clipPath id="clip0_1741_62271">
<rect width="16" height="16" fill="white"/>
</clipPath>
</defs>
</svg>
