<svg width="16" height="16" viewBox="0 0 16 16" fill="none" xmlns="http://www.w3.org/2000/svg">
<path d="M9.3335 2.00001C9.3335 1.63182 9.63197 1.33334 10.0002 1.33334H12.6668C13.1973 1.33334 13.706 1.54406 14.081 1.91913C14.4561 2.2942 14.6668 2.80291 14.6668 3.33334V12.6667C14.6668 13.1971 14.4561 13.7058 14.081 14.0809C13.706 14.456 13.1973 14.6667 12.6668 14.6667H10.0002C9.63197 14.6667 9.3335 14.3682 9.3335 14C9.3335 13.6318 9.63197 13.3333 10.0002 13.3333H12.6668C12.8436 13.3333 13.0132 13.2631 13.1382 13.1381C13.2633 13.0131 13.3335 12.8435 13.3335 12.6667V3.33334C13.3335 3.15653 13.2633 2.98696 13.1382 2.86194C13.0132 2.73691 12.8436 2.66668 12.6668 2.66668H10.0002C9.63197 2.66668 9.3335 2.3682 9.3335 2.00001Z" fill="#292737"/>
<path d="M6.19542 4.19527C6.45577 3.93492 6.87788 3.93492 7.13823 4.19527L10.4716 7.52861C10.7319 7.78895 10.7319 8.21106 10.4716 8.47141L7.13823 11.8047C6.87788 12.0651 6.45577 12.0651 6.19542 11.8047C5.93508 11.5444 5.93508 11.1223 6.19542 10.8619L8.39069 8.66668H2.00016C1.63197 8.66668 1.3335 8.3682 1.3335 8.00001C1.3335 7.63182 1.63197 7.33334 2.00016 7.33334H8.39069L6.19542 5.13808C5.93508 4.87773 5.93508 4.45562 6.19542 4.19527Z" fill="#292737"/>
</svg>
