<svg width="16" height="16" viewBox="0 0 16 16" fill="none" xmlns="http://www.w3.org/2000/svg">
<path d="M2.1951 2.86192C2.32012 2.7369 2.48969 2.66666 2.6665 2.66666H13.3332C13.51 2.66666 13.6796 2.7369 13.8046 2.86192C13.9296 2.98695 13.9998 3.15652 13.9998 3.33333V9.99999C13.9998 10.1768 13.9296 10.3464 13.8046 10.4714C13.6796 10.5964 13.51 10.6667 13.3332 10.6667H12.6665C12.2983 10.6667 11.9998 10.9651 11.9998 11.3333C11.9998 11.7015 12.2983 12 12.6665 12H13.3332C13.8636 12 14.3723 11.7893 14.7474 11.4142C15.1225 11.0391 15.3332 10.5304 15.3332 9.99999V3.33333C15.3332 2.80289 15.1225 2.29419 14.7474 1.91911C14.3723 1.54404 13.8636 1.33333 13.3332 1.33333H2.6665C2.13607 1.33333 1.62736 1.54404 1.25229 1.91911C0.877217 2.29419 0.666504 2.8029 0.666504 3.33333V9.99999C0.666504 10.5304 0.877218 11.0391 1.25229 11.4142C1.62736 11.7893 2.13607 12 2.6665 12H3.33317C3.70136 12 3.99984 11.7015 3.99984 11.3333C3.99984 10.9651 3.70136 10.6667 3.33317 10.6667H2.6665C2.48969 10.6667 2.32012 10.5964 2.1951 10.4714C2.07008 10.3464 1.99984 10.1768 1.99984 9.99999V3.33333C1.99984 3.15652 2.07008 2.98695 2.1951 2.86192Z" fill="#292737"/>
<path fill-rule="evenodd" clip-rule="evenodd" d="M8.51198 9.5732C8.38532 9.42121 8.19769 9.33333 7.99984 9.33333C7.80198 9.33333 7.61435 9.42121 7.48769 9.5732L4.15436 13.5732C3.98875 13.7719 3.95306 14.0485 4.06278 14.2828C4.1725 14.517 4.40783 14.6667 4.6665 14.6667H11.3332C11.5918 14.6667 11.8272 14.517 11.9369 14.2828C12.0466 14.0485 12.0109 13.7719 11.8453 13.5732L8.51198 9.5732ZM7.99984 11.0414L9.90981 13.3333H6.08987L7.99984 11.0414Z" fill="#292737"/>
</svg>
