<svg width="16" height="16" viewBox="0 0 16 16" fill="none" xmlns="http://www.w3.org/2000/svg">
<path d="M7.99984 6.66668C8.36803 6.66668 8.6665 6.96515 8.6665 7.33334V8.66668H9.99984C10.368 8.66668 10.6665 8.96515 10.6665 9.33334C10.6665 9.70153 10.368 10 9.99984 10H8.6665V11.3333C8.6665 11.7015 8.36803 12 7.99984 12C7.63165 12 7.33317 11.7015 7.33317 11.3333V10H5.99984C5.63165 10 5.33317 9.70153 5.33317 9.33334C5.33317 8.96515 5.63165 8.66668 5.99984 8.66668H7.33317V7.33334C7.33317 6.96515 7.63165 6.66668 7.99984 6.66668Z" fill="#292737"/>
<path fill-rule="evenodd" clip-rule="evenodd" d="M1.25229 1.91913C1.62736 1.54406 2.13607 1.33334 2.6665 1.33334H5.99984C6.22274 1.33334 6.43089 1.44474 6.55454 1.63021L7.68996 3.33334H13.3332C13.8636 3.33334 14.3723 3.54406 14.7474 3.91913C15.1225 4.2942 15.3332 4.80291 15.3332 5.33334V12.6667C15.3332 13.1971 15.1225 13.7058 14.7474 14.0809C14.3723 14.456 13.8636 14.6667 13.3332 14.6667H2.6665C2.13607 14.6667 1.62736 14.456 1.25229 14.0809C0.877218 13.7058 0.666504 13.1971 0.666504 12.6667V3.33334C0.666504 2.80291 0.877217 2.2942 1.25229 1.91913ZM2.6665 2.66668C2.48969 2.66668 2.32012 2.73691 2.1951 2.86194C2.07008 2.98696 1.99984 3.15653 1.99984 3.33334V12.6667C1.99984 12.8435 2.07008 13.0131 2.1951 13.1381C2.32012 13.2631 2.48969 13.3333 2.6665 13.3333H13.3332C13.51 13.3333 13.6796 13.2631 13.8046 13.1381C13.9296 13.0131 13.9998 12.8435 13.9998 12.6667V5.33334C13.9998 5.15653 13.9296 4.98696 13.8046 4.86194C13.6796 4.73691 13.51 4.66668 13.3332 4.66668H7.33317C7.11027 4.66668 6.90211 4.55528 6.77847 4.36981L5.64305 2.66668H2.6665Z" fill="#292737"/>
</svg>
