<svg width="16" height="16" viewBox="0 0 16 16" fill="none" xmlns="http://www.w3.org/2000/svg">
<g clip-path="url(#clip0_1741_61931)">
<path fill-rule="evenodd" clip-rule="evenodd" d="M1.38464 0.668648C1.42387 0.671667 1.46288 0.678144 1.50119 0.68808L11.1563 3.01862C11.4086 3.07953 11.6026 3.28138 11.6536 3.53593L12.4223 7.3795C12.6616 7.28543 12.9444 7.33513 13.1379 7.5286L15.1379 9.5286C15.3983 9.78895 15.3983 10.2111 15.1379 10.4714L10.4712 15.1381C10.2109 15.3984 9.78878 15.3984 9.52843 15.1381L7.52843 13.1381C7.33496 12.9446 7.28526 12.6618 7.37934 12.4224L3.53576 11.6537C3.28121 11.6028 3.07936 11.4088 3.01845 11.1564L0.687914 1.50135C0.677958 1.46297 0.671475 1.42388 0.668463 1.38457C0.654118 1.19731 0.718552 1.00515 0.861766 0.861932C0.979812 0.743886 1.13111 0.679364 1.28551 0.668365C1.31835 0.666008 1.35148 0.666078 1.38464 0.668648ZM5.52808 6.47106L2.53718 3.48016L4.21467 10.4298L8.44739 11.2763L11.2761 8.44755L10.4296 4.21484L3.47999 2.53735L6.47089 5.52825C6.73198 5.4033 7.02441 5.33334 7.33317 5.33334C8.43774 5.33334 9.33317 6.22877 9.33317 7.33334C9.33317 8.43791 8.43774 9.33334 7.33317 9.33334C6.2286 9.33334 5.33317 8.43791 5.33317 7.33334C5.33317 7.02457 5.40314 6.73215 5.52808 6.47106ZM6.85358 6.87026C6.73776 6.99019 6.6665 7.15344 6.6665 7.33334C6.6665 7.70153 6.96498 8 7.33317 8C7.70136 8 7.99984 7.70153 7.99984 7.33334C7.99984 6.96515 7.70136 6.66667 7.33317 6.66667C7.15327 6.66667 6.99002 6.73792 6.87009 6.85375C6.86739 6.85654 6.86467 6.85932 6.86191 6.86207C6.85915 6.86483 6.85638 6.86756 6.85358 6.87026ZM8.94265 12.6667L9.99984 13.7239L13.7237 10L12.6665 8.94281L8.94265 12.6667Z" fill="#292737"/>
</g>
<defs>
<clipPath id="clip0_1741_61931">
<rect width="16" height="16" fill="white"/>
</clipPath>
</defs>
</svg>
