<svg width="16" height="16" viewBox="0 0 16 16" fill="none" xmlns="http://www.w3.org/2000/svg">
<path fill-rule="evenodd" clip-rule="evenodd" d="M6 0.666672C5.26362 0.666672 4.66667 1.26363 4.66667 2.00001H4C3.46957 2.00001 2.96086 2.21072 2.58579 2.58579C2.21071 2.96086 2 3.46957 2 4.00001V13.3333C2 13.8638 2.21071 14.3725 2.58579 14.7476C2.96086 15.1226 3.46957 15.3333 4 15.3333H12C12.5304 15.3333 13.0391 15.1226 13.4142 14.7476C13.7893 14.3725 14 13.8638 14 13.3333V4.00001C14 3.46957 13.7893 2.96086 13.4142 2.58579C13.0391 2.21072 12.5304 2.00001 12 2.00001H11.3333C11.3333 1.26363 10.7364 0.666672 10 0.666672H6ZM11.3333 3.33334C11.3333 4.06972 10.7364 4.66667 10 4.66667H6C5.26362 4.66667 4.66667 4.06972 4.66667 3.33334H4C3.82319 3.33334 3.65362 3.40358 3.5286 3.5286C3.40357 3.65363 3.33333 3.82319 3.33333 4.00001V13.3333C3.33333 13.5101 3.40357 13.6797 3.5286 13.8047C3.65362 13.9298 3.82319 14 4 14H12C12.1768 14 12.3464 13.9298 12.4714 13.8047C12.5964 13.6797 12.6667 13.5101 12.6667 13.3333V4.00001C12.6667 3.82319 12.5964 3.65363 12.4714 3.5286C12.3464 3.40358 12.1768 3.33334 12 3.33334H11.3333ZM6 3.33334H10V2.00001H6V3.33334Z" fill="#292737"/>
</svg>
