<svg width="16" height="16" viewBox="0 0 16 16" fill="none" xmlns="http://www.w3.org/2000/svg">
<path d="M6.81932 2.79976C7.69803 2.60094 8.61278 2.62795 9.47823 2.87828C10.3437 3.12861 11.1316 3.5941 11.7685 4.23131C11.7748 4.23763 11.7812 4.24382 11.7878 4.24989L13.6838 6.00001H11.3333C10.9651 6.00001 10.6667 6.29849 10.6667 6.66668C10.6667 7.03487 10.9651 7.33334 11.3333 7.33334H15.3333C15.7015 7.33334 16 7.03487 16 6.66668V2.66668C16 2.29849 15.7015 2.00001 15.3333 2.00001C14.9651 2.00001 14.6667 2.29849 14.6667 2.66668V5.09274L12.7018 3.27901C11.9074 2.48749 10.9261 1.90909 9.84871 1.59745C8.7669 1.28454 7.62346 1.25077 6.52507 1.4993C5.42669 1.74782 4.40916 2.27054 3.56743 3.01867C2.7257 3.76681 2.08721 4.71598 1.71153 5.77762C1.5887 6.12472 1.77051 6.50567 2.11761 6.6285C2.46471 6.75132 2.84566 6.56952 2.96848 6.22242C3.26903 5.37311 3.77982 4.61377 4.45321 4.01526C5.12659 3.41675 5.94061 2.99857 6.81932 2.79976Z" fill="#292737"/>
<path d="M0.666667 8.66668C0.298477 8.66668 0 8.96515 0 9.33334V13.3333C0 13.7015 0.298477 14 0.666667 14C1.03486 14 1.33333 13.7015 1.33333 13.3333V10.9073L3.29821 12.721C4.09261 13.5125 5.0739 14.0909 6.1513 14.4026C7.2331 14.7155 8.37655 14.7493 9.47493 14.5007C10.5733 14.2522 11.5908 13.7295 12.4326 12.9814C13.2743 12.2332 13.9128 11.284 14.2885 10.2224C14.4113 9.87531 14.2295 9.49436 13.8824 9.37153C13.5353 9.24871 13.1543 9.43051 13.0315 9.77761C12.731 10.6269 12.2202 11.3863 11.5468 11.9848C10.8734 12.5833 10.0594 13.0015 9.18069 13.2003C8.30198 13.3991 7.38722 13.3721 6.52178 13.1217C5.65634 12.8714 4.86841 12.4059 4.23152 11.7687C4.2252 11.7624 4.21876 11.7562 4.21219 11.7501L2.31621 10H4.66667C5.03486 10 5.33333 9.70153 5.33333 9.33334C5.33333 8.96515 5.03486 8.66668 4.66667 8.66668H0.666667Z" fill="#292737"/>
</svg>
