<svg width="16" height="16" viewBox="0 0 16 16" fill="none" xmlns="http://www.w3.org/2000/svg">
<path fill-rule="evenodd" clip-rule="evenodd" d="M3.3335 2.66668C2.96531 2.66668 2.66683 2.96515 2.66683 3.33334V12.6667C2.66683 13.0349 2.96531 13.3333 3.3335 13.3333H12.6668C13.035 13.3333 13.3335 13.0349 13.3335 12.6667V3.33334C13.3335 2.96515 13.035 2.66668 12.6668 2.66668H3.3335ZM1.3335 3.33334C1.3335 2.22877 2.22893 1.33334 3.3335 1.33334H12.6668C13.7714 1.33334 14.6668 2.22877 14.6668 3.33334V12.6667C14.6668 13.7712 13.7714 14.6667 12.6668 14.6667H3.3335C2.22893 14.6667 1.3335 13.7712 1.3335 12.6667V3.33334Z" fill="#292737"/>
</svg>
