<svg width="16" height="16" viewBox="0 0 16 16" fill="none" xmlns="http://www.w3.org/2000/svg">
<g clip-path="url(#clip0_1741_61955)">
<path d="M8.17534 0.409934C7.28946 0.0645931 6.33419 -0.0652694 5.38828 0.0310508C4.44236 0.127371 3.53287 0.447116 2.73478 0.96393C1.9367 1.48074 1.27286 2.17983 0.797991 3.00357C0.323122 3.8273 0.0508174 4.7521 0.00352195 5.70173C-0.0437735 6.65136 0.135295 7.59864 0.525966 8.46548C0.916638 9.33233 1.50773 10.0939 2.25051 10.6875C2.53815 10.9173 2.95765 10.8705 3.1875 10.5828C3.41735 10.2952 3.3705 9.8757 3.08286 9.64585C2.50514 9.18419 2.04541 8.59185 1.74155 7.91764C1.43769 7.24343 1.29842 6.50666 1.3352 5.76805C1.37199 5.02945 1.58378 4.31016 1.95313 3.66948C2.32247 3.0288 2.83879 2.48506 3.45952 2.0831C4.08025 1.68113 4.78763 1.43244 5.52335 1.35752C6.25906 1.28261 7.00205 1.38361 7.69106 1.65221C8.38008 1.92081 8.99539 2.34931 9.4863 2.9024C9.9772 3.45549 10.3296 4.11732 10.5145 4.83335C10.5905 5.12768 10.856 5.33332 11.16 5.33332H11.9995C12.6115 5.3341 13.2046 5.54536 13.6793 5.93164C14.154 6.31797 14.4814 6.85586 14.6065 7.45502C14.7316 8.05418 14.6467 8.67814 14.3662 9.22215C14.0857 9.76616 13.6266 10.1971 13.0659 10.4427C12.7286 10.5904 12.575 10.9835 12.7227 11.3208C12.8704 11.658 13.2635 11.8117 13.6008 11.664C14.4418 11.2957 15.1305 10.6492 15.5513 9.83323C15.9721 9.01721 16.0993 8.08128 15.9117 7.18254C15.7241 6.2838 15.233 5.47696 14.5208 4.89746C13.8087 4.31796 12.9189 4.00107 12.0008 3.99999H11.6529C11.3952 3.27137 10.9987 2.59777 10.4835 2.01732C9.85234 1.30621 9.06122 0.755276 8.17534 0.409934Z" fill="#292737"/>
<path d="M6 8.66667C6 8.29848 5.70152 8 5.33333 8C4.96514 8 4.66667 8.29848 4.66667 8.66667V14C4.66667 14.3682 4.96514 14.6667 5.33333 14.6667C5.70152 14.6667 6 14.3682 6 14V8.66667Z" fill="#292737"/>
<path d="M11.3333 8.66667C11.3333 8.29848 11.0349 8 10.6667 8C10.2985 8 10 8.29848 10 8.66667V14C10 14.3682 10.2985 14.6667 10.6667 14.6667C11.0349 14.6667 11.3333 14.3682 11.3333 14V8.66667Z" fill="#292737"/>
<path d="M8 9.33333C8.36819 9.33333 8.66667 9.63181 8.66667 10V15.3333C8.66667 15.7015 8.36819 16 8 16C7.63181 16 7.33333 15.7015 7.33333 15.3333V10C7.33333 9.63181 7.63181 9.33333 8 9.33333Z" fill="#292737"/>
</g>
<defs>
<clipPath id="clip0_1741_61955">
<rect width="16" height="16" fill="white"/>
</clipPath>
</defs>
</svg>
