<svg width="16" height="16" viewBox="0 0 16 16" fill="none" xmlns="http://www.w3.org/2000/svg">
<path d="M10 2.00001C10 1.63182 10.2985 1.33334 10.6667 1.33334H14C14.3682 1.33334 14.6667 1.63182 14.6667 2.00001V5.33334C14.6667 5.70153 14.3682 6.00001 14 6.00001C13.6318 6.00001 13.3333 5.70153 13.3333 5.33334V3.60949L3.13807 13.8047C2.87772 14.0651 2.45561 14.0651 2.19526 13.8047C1.93491 13.5444 1.93491 13.1223 2.19526 12.8619L12.3905 2.66668H10.6667C10.2985 2.66668 10 2.3682 10 2.00001Z" fill="#292737"/>
<path d="M14.6667 10.6667C14.6667 10.2985 14.3682 10 14 10C13.6318 10 13.3333 10.2985 13.3333 10.6667V12.3905L10.4714 9.52861C10.2111 9.26826 9.78895 9.26826 9.5286 9.52861C9.26825 9.78895 9.26825 10.2111 9.5286 10.4714L12.3905 13.3333H10.6667C10.2985 13.3333 10 13.6318 10 14C10 14.3682 10.2985 14.6667 10.6667 14.6667H14C14.3682 14.6667 14.6667 14.3682 14.6667 14V10.6667Z" fill="#292737"/>
<path d="M3.13807 2.19527C2.87772 1.93492 2.45561 1.93492 2.19526 2.19527C1.93491 2.45562 1.93491 2.87773 2.19526 3.13808L5.5286 6.47141C5.78894 6.73176 6.21106 6.73176 6.4714 6.47141C6.73175 6.21106 6.73175 5.78895 6.4714 5.52861L3.13807 2.19527Z" fill="#292737"/>
</svg>
