<svg width="16" height="16" viewBox="0 0 16 16" fill="none" xmlns="http://www.w3.org/2000/svg">
<g clip-path="url(#clip0_1741_61766)">
<path fill-rule="evenodd" clip-rule="evenodd" d="M7.70184 0.737038C7.88953 0.643196 8.11044 0.643196 8.29813 0.737038L14.9648 4.07037C15.1906 4.1833 15.3333 4.41414 15.3333 4.66666C15.3333 4.91917 15.1906 5.15001 14.9648 5.26294L8.29813 8.59627C8.11044 8.69012 7.88953 8.69012 7.70184 8.59627L1.03517 5.26294C0.809318 5.15001 0.66665 4.91917 0.66665 4.66666C0.66665 4.41414 0.809318 4.1833 1.03517 4.07037L7.70184 0.737038ZM2.82403 4.66666L7.99998 7.25463L13.1759 4.66666L7.99998 2.07868L2.82403 4.66666Z" fill="#292737"/>
<path d="M0.737032 11.0352C0.901691 10.7059 1.30214 10.5724 1.63146 10.737L7.99998 13.9213L14.3685 10.737C14.6978 10.5724 15.0983 10.7059 15.2629 11.0352C15.4276 11.3645 15.2941 11.7649 14.9648 11.9296L8.29813 15.2629C8.11044 15.3568 7.88953 15.3568 7.70184 15.2629L1.03517 11.9296C0.705855 11.7649 0.572372 11.3645 0.737032 11.0352Z" fill="#292737"/>
<path d="M1.63146 7.40371C1.30214 7.23905 0.901691 7.37253 0.737032 7.70185C0.572372 8.03117 0.705855 8.43162 1.03517 8.59627L7.70184 11.9296C7.88953 12.0235 8.11044 12.0235 8.29813 11.9296L14.9648 8.59627C15.2941 8.43162 15.4276 8.03117 15.2629 7.70185C15.0983 7.37253 14.6978 7.23905 14.3685 7.40371L7.99998 10.588L1.63146 7.40371Z" fill="#292737"/>
</g>
<defs>
<clipPath id="clip0_1741_61766">
<rect width="16" height="16" fill="white"/>
</clipPath>
</defs>
</svg>
