<svg width="16" height="16" viewBox="0 0 16 16" fill="none" xmlns="http://www.w3.org/2000/svg">
<path fill-rule="evenodd" clip-rule="evenodd" d="M14 5.91652V5.33332C14 5.15651 13.9298 4.98694 13.8047 4.86192L9.80474 0.861919C9.67971 0.736894 9.51014 0.666656 9.33333 0.666656H8.74991C8.74986 0.666656 8.74981 0.666656 8.74976 0.666656H4C3.46957 0.666656 2.96086 0.87737 2.58579 1.25244C2.21071 1.62752 2 2.13622 2 2.66666V13.3333C2 13.8638 2.21071 14.3725 2.58579 14.7475C2.96086 15.1226 3.46957 15.3333 4 15.3333H12C12.5304 15.3333 13.0391 15.1226 13.4142 14.7475C13.7893 14.3725 14 13.8638 14 13.3333V5.91712C14 5.91692 14 5.91672 14 5.91652ZM8 1.99999V5.91666C8 6.33087 8.33578 6.66666 8.75 6.66666H12.6667V13.3333C12.6667 13.5101 12.5964 13.6797 12.4714 13.8047C12.3464 13.9298 12.1768 14 12 14H4C3.82319 14 3.65362 13.9298 3.5286 13.8047C3.40357 13.6797 3.33333 13.5101 3.33333 13.3333V2.66666C3.33333 2.48985 3.40357 2.32028 3.5286 2.19525C3.65362 2.07023 3.82319 1.99999 4 1.99999H8ZM9.49999 3.22733V5.16666H11.4393L9.49999 3.22733ZM5.33333 9.99999C5.33333 9.6318 5.63181 9.33332 6 9.33332H10C10.3682 9.33332 10.6667 9.6318 10.6667 9.99999C10.6667 10.3682 10.3682 10.6667 10 10.6667H6C5.63181 10.6667 5.33333 10.3682 5.33333 9.99999Z" fill="#292737"/>
</svg>
