<svg width="16" height="16" viewBox="0 0 16 16" fill="none" xmlns="http://www.w3.org/2000/svg">
<g clip-path="url(#clip0_1741_61848)">
<path fill-rule="evenodd" clip-rule="evenodd" d="M1.13807 0.195262C0.877722 -0.0650874 0.455612 -0.0650874 0.195262 0.195262C-0.0650874 0.455612 -0.0650874 0.877722 0.195262 1.13807L5.33333 6.27614V8C5.3338 8.52708 5.49045 9.04278 5.78349 9.48088C6.07654 9.91898 6.49285 10.2604 6.97983 10.4621C7.46681 10.6637 8.00262 10.7165 8.5196 10.6138C8.81492 10.5551 9.09652 10.4472 9.35323 10.296L10.3373 11.2801C9.88119 11.6086 9.35878 11.8387 8.80315 11.9526C8.60221 11.9938 8.39928 12.0193 8.19614 12.0293C8.13413 12.0103 8.06827 12 8 12C7.93172 12 7.86585 12.0103 7.80382 12.0293C7.3494 12.007 6.89964 11.9073 6.47451 11.7319C5.73764 11.4279 5.10838 10.9107 4.66747 10.2467C4.22656 9.58262 3.99411 8.80196 3.99994 8.00488L3.99996 8V6.66667C3.99996 6.29848 3.70149 6 3.3333 6C2.96511 6 2.66663 6.29848 2.66663 6.66667V7.99764C2.65936 9.05955 2.96927 10.0995 3.55668 10.9842C4.14456 11.8696 4.98357 12.5592 5.96607 12.9645C6.40618 13.146 6.86609 13.2668 7.33333 13.3257V14.6667H5.33333C4.96514 14.6667 4.66667 14.9651 4.66667 15.3333C4.66667 15.7015 4.96514 16 5.33333 16H10.6667C11.0349 16 11.3333 15.7015 11.3333 15.3333C11.3333 14.9651 11.0349 14.6667 10.6667 14.6667H8.66667V13.3256C8.80188 13.3086 8.93673 13.2863 9.07092 13.2588C9.88299 13.0923 10.6418 12.7396 11.2894 12.2322L14.8619 15.8047C15.1223 16.0651 15.5444 16.0651 15.8047 15.8047C16.0651 15.5444 16.0651 15.1223 15.8047 14.8619L11.9127 10.9699C11.8828 10.9174 11.8451 10.8682 11.7998 10.8238C11.758 10.7828 11.7121 10.7484 11.6634 10.7206L1.13807 0.195262ZM8.3437 9.28651L6.66667 7.60948V7.99966C6.66695 8.26311 6.74527 8.52058 6.89175 8.73956C7.03827 8.95861 7.24642 9.12933 7.48991 9.23015C7.7334 9.33097 8.00131 9.35737 8.2598 9.30602C8.28803 9.30041 8.31601 9.2939 8.3437 9.28651Z" fill="#292737"/>
<path d="M12.6666 6C13.0348 6 13.3333 6.29848 13.3333 6.66667V8C13.333 8.31424 13.305 8.62842 13.2495 8.93772C13.1845 9.30013 12.838 9.54121 12.4756 9.47619C12.1132 9.41117 11.8721 9.06468 11.9371 8.70228C11.9787 8.4703 11.9998 8.2351 12 7.99942V6.66667C12 6.29848 12.2984 6 12.6666 6Z" fill="#292737"/>
<path d="M8 9.93411e-09C6.52724 9.93411e-09 5.33333 1.19391 5.33333 2.66667C5.33333 3.03486 5.63181 3.33333 6 3.33333C6.36819 3.33333 6.66667 3.03486 6.66667 2.66667C6.66667 1.93029 7.26362 1.33333 8 1.33333C8.73638 1.33333 9.33333 1.93029 9.33333 2.66667V6C9.33333 6.36819 9.63181 6.66667 10 6.66667C10.3682 6.66667 10.6667 6.36819 10.6667 6V2.66667C10.6667 1.19391 9.47276 9.93411e-09 8 9.93411e-09Z" fill="#292737"/>
</g>
<defs>
<clipPath id="clip0_1741_61848">
<rect width="16" height="16" fill="white"/>
</clipPath>
</defs>
</svg>
