<svg width="16" height="16" viewBox="0 0 16 16" fill="none" xmlns="http://www.w3.org/2000/svg">
<path fill-rule="evenodd" clip-rule="evenodd" d="M10 0.666656C8.93913 0.666656 7.92172 1.08808 7.17157 1.83823C6.42143 2.58837 6 3.60579 6 4.66666V5.99999H4.66667C4.29848 5.99999 4 6.29847 4 6.66666V9.33332C4 9.70151 4.29848 9.99999 4.66667 9.99999H6V14.6667C6 15.0348 6.29848 15.3333 6.66667 15.3333H9.33333C9.70152 15.3333 10 15.0348 10 14.6667V9.99999H11.3333C11.6392 9.99999 11.9059 9.79179 11.9801 9.49501L12.6468 6.82835C12.6966 6.62919 12.6518 6.41819 12.5255 6.25638C12.3991 6.09457 12.2053 5.99999 12 5.99999H10V4.66666H12C12.3682 4.66666 12.6667 4.36818 12.6667 3.99999V1.33332C12.6667 0.965133 12.3682 0.666656 12 0.666656H10ZM8.11438 2.78104C8.61448 2.28094 9.29276 1.99999 10 1.99999H11.3333V3.33332H10C9.64638 3.33332 9.30724 3.4738 9.05719 3.72385C8.80714 3.9739 8.66667 4.31303 8.66667 4.66666V6.66666C8.66667 7.03485 8.96514 7.33332 9.33333 7.33332H11.1461L10.8128 8.66666H9.33333C8.96514 8.66666 8.66667 8.96513 8.66667 9.33332V14H7.33333V9.33332C7.33333 8.96513 7.03486 8.66666 6.66667 8.66666H5.33333V7.33332H6.66667C7.03486 7.33332 7.33333 7.03485 7.33333 6.66666V4.66666C7.33333 3.95941 7.61428 3.28114 8.11438 2.78104Z" fill="#292737"/>
</svg>
