<svg width="16" height="16" viewBox="0 0 16 16" fill="none" xmlns="http://www.w3.org/2000/svg">
<path d="M1 10.2267C1 11.4927 1.50291 12.7068 2.39809 13.602C3.29327 14.4972 4.5074 15.0001 5.77337 15.0001C7.03935 15.0001 8.25348 14.4972 9.14866 13.602C10.0438 12.7068 10.5467 11.4927 10.5467 10.2267C10.5467 8.96068 10.0438 7.74654 9.14866 6.85135C8.25348 5.95616 7.03935 5.45325 5.77337 5.45325C4.5074 5.45325 3.29327 5.95616 2.39809 6.85135C1.50291 7.74654 1 8.96068 1 10.2267Z" stroke="#292737" stroke-width="1.13751" stroke-miterlimit="10"/>
<path d="M6.7334 8.31847C6.7334 9.41472 7.16888 10.4661 7.94403 11.2412C8.71919 12.0164 9.77053 12.4519 10.8668 12.4519C11.963 12.4519 13.0143 12.0164 13.7895 11.2412C14.5647 10.4661 15.0001 9.41472 15.0001 8.31847C15.0001 7.22222 14.5647 6.17087 13.7895 5.39571C13.0143 4.62054 11.963 4.18506 10.8668 4.18506C9.77053 4.18506 8.71919 4.62054 7.94403 5.39571C7.16888 6.17087 6.7334 7.22222 6.7334 8.31847Z" stroke="#292737" stroke-width="1.13751" stroke-miterlimit="10"/>
<path d="M11.1802 4.18H10.5468L8.64014 2.2733L9.27348 0.999939H12.4535L13.0935 2.2733L11.1802 4.18Z" stroke="#292737" stroke-width="1.13751" stroke-miterlimit="10"/>
</svg>
