<svg width="16" height="16" viewBox="0 0 16 16" fill="none" xmlns="http://www.w3.org/2000/svg">
<path fill-rule="evenodd" clip-rule="evenodd" d="M2 3.33333C0.895431 3.33333 0 4.22876 0 5.33333V10.6667C0 11.7712 0.895431 12.6667 2 12.6667H11.3333C12.4379 12.6667 13.3333 11.7712 13.3333 10.6667V5.33333C13.3333 4.22876 12.4379 3.33333 11.3333 3.33333H2ZM1.33333 5.33333C1.33333 4.96514 1.63181 4.66666 2 4.66666H11.3333C11.7015 4.66666 12 4.96514 12 5.33333V10.6667C12 11.0349 11.7015 11.3333 11.3333 11.3333H2C1.63181 11.3333 1.33333 11.0349 1.33333 10.6667V5.33333Z" fill="#292737"/>
<path d="M16 7.33333C16 6.96514 15.7015 6.66666 15.3333 6.66666C14.9651 6.66666 14.6667 6.96514 14.6667 7.33333V8.66666C14.6667 9.03485 14.9651 9.33333 15.3333 9.33333C15.7015 9.33333 16 9.03485 16 8.66666V7.33333Z" fill="#292737"/>
</svg>
