<svg width="16" height="16" viewBox="0 0 16 16" fill="none" xmlns="http://www.w3.org/2000/svg">
<path d="M2 2.66667C2 2.29848 2.29848 2 2.66667 2H13.3333C13.7015 2 14 2.29848 14 2.66667V4.66667C14 5.03486 13.7015 5.33333 13.3333 5.33333C12.9651 5.33333 12.6667 5.03486 12.6667 4.66667V3.33333H8.66667V12.6667H10C10.3682 12.6667 10.6667 12.9651 10.6667 13.3333C10.6667 13.7015 10.3682 14 10 14H6C5.63181 14 5.33333 13.7015 5.33333 13.3333C5.33333 12.9651 5.63181 12.6667 6 12.6667H7.33333V3.33333H3.33333V4.66667C3.33333 5.03486 3.03486 5.33333 2.66667 5.33333C2.29848 5.33333 2 5.03486 2 4.66667V2.66667Z" fill="#292737"/>
</svg>
