<svg width="16" height="16" viewBox="0 0 16 16" fill="none" xmlns="http://www.w3.org/2000/svg">
<path d="M7.88803 4.3698C8.09227 4.06345 8.00949 3.64954 7.70313 3.4453C7.39678 3.24107 6.98287 3.32385 6.77863 3.6302L4.11197 7.6302C3.97559 7.83478 3.96287 8.09781 4.07888 8.31458C4.1949 8.53135 4.4208 8.66667 4.66667 8.66667H7.42099L5.4453 11.6302C5.24107 11.9366 5.32385 12.3505 5.6302 12.5547C5.93655 12.7589 6.35047 12.6762 6.5547 12.3698L9.22137 8.36981C9.35775 8.16523 9.37046 7.9022 9.25445 7.68543C9.13844 7.46866 8.91253 7.33334 8.66667 7.33334H5.91234L7.88803 4.3698Z" fill="#292737"/>
<path d="M2 4.66667C1.82319 4.66667 1.65362 4.73691 1.5286 4.86193C1.40357 4.98696 1.33333 5.15653 1.33333 5.33334V10.6667C1.33333 10.8435 1.40357 11.0131 1.5286 11.1381C1.65362 11.2631 1.82319 11.3333 2 11.3333H3.33333C3.70152 11.3333 4 11.6318 4 12C4 12.3682 3.70152 12.6667 3.33333 12.6667H2C1.46957 12.6667 0.960859 12.456 0.585786 12.0809C0.210714 11.7058 0 11.1971 0 10.6667V5.33334C0 4.80291 0.210714 4.2942 0.585786 3.91912C0.960859 3.54405 1.46957 3.33334 2 3.33334H4.12667C4.49486 3.33334 4.79333 3.63181 4.79333 4C4.79333 4.36819 4.49486 4.66667 4.12667 4.66667H2Z" fill="#292737"/>
<path d="M9.33333 4C9.33333 3.63181 9.63181 3.33334 10 3.33334H11.3333C11.8638 3.33334 12.3725 3.54405 12.7475 3.91912C13.1226 4.2942 13.3333 4.8029 13.3333 5.33334V10.6667C13.3333 11.1971 13.1226 11.7058 12.7475 12.0809C12.3725 12.456 11.8638 12.6667 11.3333 12.6667H9.20667C8.83848 12.6667 8.54 12.3682 8.54 12C8.54 11.6318 8.83848 11.3333 9.20667 11.3333H11.3333C11.5101 11.3333 11.6797 11.2631 11.8047 11.1381C11.9298 11.0131 12 10.8435 12 10.6667V5.33334C12 5.15653 11.9298 4.98696 11.8047 4.86193C11.6797 4.73691 11.5101 4.66667 11.3333 4.66667H10C9.63181 4.66667 9.33333 4.36819 9.33333 4Z" fill="#292737"/>
<path d="M15.3333 6.66667C15.7015 6.66667 16 6.96515 16 7.33334V8.66667C16 9.03486 15.7015 9.33334 15.3333 9.33334C14.9651 9.33334 14.6667 9.03486 14.6667 8.66667V7.33334C14.6667 6.96515 14.9651 6.66667 15.3333 6.66667Z" fill="#292737"/>
</svg>
