<svg width="16" height="16" viewBox="0 0 16 16" fill="none" xmlns="http://www.w3.org/2000/svg">
<g clip-path="url(#clip0_1741_62193)">
<path fill-rule="evenodd" clip-rule="evenodd" d="M2.6665 2.99999C2.6665 3.34922 2.74479 3.69037 2.89165 3.99999H1.33317C0.964981 3.99999 0.666504 4.29847 0.666504 4.66666V7.99999C0.666504 8.36818 0.964981 8.66666 1.33317 8.66666H1.99984V14.6667C1.99984 15.0348 2.29831 15.3333 2.6665 15.3333H13.3332C13.7014 15.3333 13.9998 15.0348 13.9998 14.6667V8.66666H14.6665C15.0347 8.66666 15.3332 8.36818 15.3332 7.99999V4.66666C15.3332 4.29847 15.0347 3.99999 14.6665 3.99999H13.108C13.2549 3.69037 13.3332 3.34922 13.3332 2.99999C13.3332 2.38115 13.0873 1.78766 12.6498 1.35007C12.2122 0.912489 11.6187 0.666656 10.9998 0.666656C9.46244 0.666656 8.53805 1.77443 8.04069 2.67871C8.02683 2.70392 8.01321 2.72911 7.99984 2.75427C7.98646 2.72911 7.97285 2.70392 7.95898 2.67871C7.46163 1.77443 6.53724 0.666656 4.99984 0.666656C4.381 0.666656 3.78751 0.912489 3.34992 1.35007C2.91234 1.78766 2.6665 2.38115 2.6665 2.99999ZM4.99984 1.99999C4.73462 1.99999 4.48027 2.10535 4.29273 2.29288C4.10519 2.48042 3.99984 2.73477 3.99984 2.99999C3.99984 3.26521 4.10519 3.51956 4.29273 3.7071C4.48027 3.89463 4.73462 3.99999 4.99984 3.99999H7.10252C7.02113 3.78707 6.91811 3.55293 6.79069 3.32127C6.37138 2.55889 5.79577 1.99999 4.99984 1.99999ZM8.89716 3.99999H10.9998C11.2651 3.99999 11.5194 3.89463 11.7069 3.7071C11.8945 3.51956 11.9998 3.26521 11.9998 2.99999C11.9998 2.73477 11.8945 2.48042 11.7069 2.29288C11.5194 2.10535 11.2651 1.99999 10.9998 1.99999C10.2039 1.99999 9.62829 2.55889 9.20898 3.32127C9.08157 3.55293 8.97854 3.78707 8.89716 3.99999ZM8.6665 5.33332V7.33332H13.9998V5.33332H8.6665ZM7.33317 5.33332V7.33332H1.99984V5.33332H7.33317ZM8.6665 14H12.6665V8.66666H8.6665V14ZM7.33317 8.66666V14H3.33317V8.66666H7.33317Z" fill="#292737"/>
</g>
<defs>
<clipPath id="clip0_1741_62193">
<rect width="16" height="16" fill="white"/>
</clipPath>
</defs>
</svg>
