<svg width="16" height="16" viewBox="0 0 16 16" fill="none" xmlns="http://www.w3.org/2000/svg">
<path fill-rule="evenodd" clip-rule="evenodd" d="M11.3333 6.70456V4.66669C11.3333 3.56212 10.4379 2.66669 9.33333 2.66669H2C0.895431 2.66669 0 3.56212 0 4.66669V11.3334C0 12.4379 0.895431 13.3334 2 13.3334H9.33333C10.4379 13.3334 11.3333 12.4379 11.3333 11.3334V9.29548L14.9458 11.8758C15.1491 12.021 15.4163 12.0404 15.6384 11.9261C15.8604 11.8119 16 11.5831 16 11.3334V4.66669C16 4.41696 15.8604 4.18818 15.6384 4.07391C15.4163 3.95964 15.1491 3.97905 14.9458 4.1242L11.3333 6.70456ZM1.33333 4.66669C1.33333 4.2985 1.63181 4.00002 2 4.00002H9.33333C9.70152 4.00002 10 4.2985 10 4.66669V11.3334C10 11.7015 9.70152 12 9.33333 12H2C1.63181 12 1.33333 11.7015 1.33333 11.3334V4.66669ZM14.6667 10.0379L11.8136 8.00002L14.6667 5.96215V10.0379Z" fill="#292737"/>
</svg>
