<svg width="16" height="16" viewBox="0 0 16 16" fill="none" xmlns="http://www.w3.org/2000/svg">
<g clip-path="url(#clip0_1741_61973)">
<path fill-rule="evenodd" clip-rule="evenodd" d="M7.0363 4.77862C6.83173 4.64224 6.5687 4.62953 6.35193 4.74554C6.13516 4.86155 5.99984 5.08746 5.99984 5.33332V10.6667C5.99984 10.9125 6.13516 11.1384 6.35193 11.2544C6.5687 11.3705 6.83173 11.3577 7.0363 11.2214L11.0363 8.55469C11.2218 8.43105 11.3332 8.22289 11.3332 7.99999C11.3332 7.77709 11.2218 7.56893 11.0363 7.44529L7.0363 4.77862ZM9.46465 7.99999L7.33317 9.42098V6.579L9.46465 7.99999Z" fill="#292737"/>
<path fill-rule="evenodd" clip-rule="evenodd" d="M7.99984 0.666656C3.94975 0.666656 0.666504 3.9499 0.666504 7.99999C0.666504 12.0501 3.94975 15.3333 7.99984 15.3333C12.0499 15.3333 15.3332 12.0501 15.3332 7.99999C15.3332 3.9499 12.0499 0.666656 7.99984 0.666656ZM1.99984 7.99999C1.99984 4.68628 4.68613 1.99999 7.99984 1.99999C11.3135 1.99999 13.9998 4.68628 13.9998 7.99999C13.9998 11.3137 11.3135 14 7.99984 14C4.68613 14 1.99984 11.3137 1.99984 7.99999Z" fill="#292737"/>
</g>
<defs>
<clipPath id="clip0_1741_61973">
<rect width="16" height="16" fill="white"/>
</clipPath>
</defs>
</svg>
