<svg width="16" height="16" viewBox="0 0 16 16" fill="none" xmlns="http://www.w3.org/2000/svg">
<path fill-rule="evenodd" clip-rule="evenodd" d="M4.00016 6.66666V4.66666C4.00016 3.60579 4.42159 2.58837 5.17174 1.83823C5.92188 1.08808 6.9393 0.666656 8.00016 0.666656C9.06103 0.666656 10.0784 1.08808 10.8286 1.83823C11.5787 2.58837 12.0002 3.60579 12.0002 4.66666V6.66666H12.6668C13.7714 6.66666 14.6668 7.56209 14.6668 8.66666V13.3333C14.6668 14.4379 13.7714 15.3333 12.6668 15.3333H3.3335C2.22893 15.3333 1.3335 14.4379 1.3335 13.3333V8.66666C1.3335 7.56209 2.22893 6.66666 3.3335 6.66666H4.00016ZM6.11454 2.78104C6.61464 2.28094 7.29292 1.99999 8.00016 1.99999C8.70741 1.99999 9.38568 2.28094 9.88578 2.78104C10.3859 3.28114 10.6668 3.95941 10.6668 4.66666V6.66666H5.3335V4.66666C5.3335 3.95941 5.61445 3.28114 6.11454 2.78104ZM3.3335 7.99999C2.96531 7.99999 2.66683 8.29847 2.66683 8.66666V13.3333C2.66683 13.7015 2.96531 14 3.3335 14H12.6668C13.035 14 13.3335 13.7015 13.3335 13.3333V8.66666C13.3335 8.29847 13.035 7.99999 12.6668 7.99999H3.3335Z" fill="#292737"/>
</svg>
