<svg width="16" height="16" viewBox="0 0 16 16" fill="none" xmlns="http://www.w3.org/2000/svg">
<path d="M5.33333 7.99999C4.96514 7.99999 4.66667 8.29847 4.66667 8.66666C4.66667 9.03485 4.96514 9.33332 5.33333 9.33332H10.6667C11.0349 9.33332 11.3333 9.03485 11.3333 8.66666C11.3333 8.29847 11.0349 7.99999 10.6667 7.99999H5.33333Z" fill="#292737"/>
<path d="M4.66667 11.3333C4.66667 10.9651 4.96514 10.6667 5.33333 10.6667H10.6667C11.0349 10.6667 11.3333 10.9651 11.3333 11.3333C11.3333 11.7015 11.0349 12 10.6667 12H5.33333C4.96514 12 4.66667 11.7015 4.66667 11.3333Z" fill="#292737"/>
<path d="M5.33333 5.33332C4.96514 5.33332 4.66667 5.6318 4.66667 5.99999C4.66667 6.36818 4.96514 6.66666 5.33333 6.66666H6.66667C7.03486 6.66666 7.33333 6.36818 7.33333 5.99999C7.33333 5.6318 7.03486 5.33332 6.66667 5.33332H5.33333Z" fill="#292737"/>
<path fill-rule="evenodd" clip-rule="evenodd" d="M2.58579 1.25244C2.96086 0.87737 3.46957 0.666656 4 0.666656H9.33333C9.51014 0.666656 9.67971 0.736894 9.80474 0.861919L13.8047 4.86192C13.9298 4.98694 14 5.15651 14 5.33332V13.3333C14 13.8638 13.7893 14.3725 13.4142 14.7475C13.0391 15.1226 12.5304 15.3333 12 15.3333H4C3.46957 15.3333 2.96086 15.1226 2.58579 14.7475C2.21071 14.3725 2 13.8638 2 13.3333V2.66666C2 2.13622 2.21071 1.62752 2.58579 1.25244ZM4 1.99999C3.82319 1.99999 3.65362 2.07023 3.5286 2.19525C3.40357 2.32028 3.33333 2.48985 3.33333 2.66666V13.3333C3.33333 13.5101 3.40357 13.6797 3.5286 13.8047C3.65362 13.9298 3.82319 14 4 14H12C12.1768 14 12.3464 13.9298 12.4714 13.8047C12.5964 13.6797 12.6667 13.5101 12.6667 13.3333V5.99999H9.33333C8.96514 5.99999 8.66667 5.70151 8.66667 5.33332V1.99999H4ZM10 2.9428L11.7239 4.66666H10V2.9428Z" fill="#292737"/>
</svg>
