<svg width="16" height="16" viewBox="0 0 16 16" fill="none" xmlns="http://www.w3.org/2000/svg">
<path fill-rule="evenodd" clip-rule="evenodd" d="M7.99979 0.66803C7.64926 0.66803 7.3049 0.760153 7.00121 0.935155L4.87067 2.15261C4.73059 2.18032 4.5999 2.25268 4.50151 2.36356L2.33569 3.60117L2.33312 3.60265C2.08645 3.74506 1.87372 3.93812 1.70848 4.16827C1.66826 4.20851 1.63257 4.2546 1.60273 4.30618C1.57703 4.3506 1.55703 4.39676 1.5425 4.44381C1.40535 4.71947 1.33344 5.02363 1.33312 5.33264L1.33312 7.98721C1.33297 7.99533 1.33297 8.00344 1.33312 8.01154L1.33312 10.6673C1.33348 11.0181 1.42606 11.3625 1.60158 11.6662C1.7771 11.9698 2.02938 12.222 2.33312 12.3973L2.33569 12.3988L4.50184 13.6366C4.59677 13.7432 4.72541 13.8191 4.87101 13.8476L6.99979 15.064L7.00102 15.0647C7.21249 15.1866 7.44368 15.2683 7.68295 15.3067C7.77719 15.3577 7.8851 15.3867 7.99979 15.3867C8.11447 15.3867 8.22238 15.3577 8.31663 15.3067C8.55591 15.2683 8.78711 15.1866 8.99859 15.0647L8.99979 15.064L11.1286 13.8476C11.2742 13.8191 11.4028 13.7432 11.4977 13.6366L13.6639 12.3988L13.6665 12.3973C13.9702 12.222 14.2225 11.9698 14.398 11.6662C14.5735 11.3625 14.6661 11.0181 14.6665 10.6673V8.01159C14.6666 8.00346 14.6666 7.99532 14.6665 7.98717V5.33264C14.6661 5.02368 14.5942 4.71956 14.4571 4.44394C14.4426 4.39685 14.4226 4.35065 14.3969 4.30618C14.367 4.25456 14.3313 4.20844 14.291 4.16818C14.1258 3.93807 13.9131 3.74504 13.6665 3.60264L11.4981 2.36357C11.3997 2.25268 11.269 2.18032 11.1289 2.1526L8.99979 0.935979L8.99839 0.935177C8.6947 0.760161 8.35032 0.66803 7.99979 0.66803ZM8.66645 13.7188L10.3331 12.7665V9.73333C10.3331 9.49523 10.4601 9.27521 10.6663 9.15609L13.3331 7.61524V5.69169L8.66645 8.3912V13.7188ZM7.33312 8.39118L2.66645 5.69168V7.61524L5.3333 9.15609C5.53947 9.27521 5.66645 9.49523 5.66645 9.73333V12.7665L7.33312 13.7188V8.39118ZM7.9998 7.23649L12.6405 4.55202L10.9668 3.59565L8.3333 5.11724C8.12694 5.23647 7.87263 5.23647 7.66627 5.11724L5.03275 3.59565L3.35912 4.55202L7.9998 7.23649ZM11.6665 12.0045L12.9998 11.2426L13.0008 11.242C13.1016 11.1836 13.1853 11.0998 13.2436 10.9989C13.3021 10.8977 13.333 10.7829 13.3331 10.666V9.15513L11.6665 10.1181V12.0045ZM2.66645 10.6663V9.15513L4.33312 10.1181V12.0045L2.99979 11.2426L2.99873 11.242C2.89796 11.1836 2.81424 11.0998 2.75594 10.9989C2.69748 10.8978 2.66662 10.7831 2.66645 10.6663ZM9.62686 2.82996L8.33312 2.09069C8.23177 2.03217 8.11681 2.00136 7.99979 2.00136C7.88276 2.00136 7.7678 2.03217 7.66645 2.09068L7.66388 2.09216L6.37271 2.82996L7.99979 3.77005L9.62686 2.82996Z" fill="#292737"/>
</svg>
