<svg width="16" height="16" viewBox="0 0 16 16" fill="none" xmlns="http://www.w3.org/2000/svg">
<path d="M1.38729 6.50007C3.21381 4.89005 5.56498 4.00173 7.99979 4.00173C10.4346 4.00173 12.7858 4.89005 14.6123 6.50007C14.8885 6.74354 15.3098 6.717 15.5532 6.4408C15.7967 6.16459 15.7702 5.74332 15.494 5.49985C13.4239 3.67516 10.7593 2.6684 7.99979 2.6684C5.24034 2.6684 2.57568 3.67516 0.505627 5.49985C0.229423 5.74332 0.202884 6.16459 0.44635 6.4408C0.689815 6.717 1.11109 6.74354 1.38729 6.50007Z" fill="#292737"/>
<path d="M3.75985 8.87891C4.95776 7.88113 6.46749 7.33474 8.02651 7.33474C9.58554 7.33474 11.0953 7.88113 12.2932 8.87891C12.5761 9.11455 12.9965 9.07623 13.2321 8.79332C13.4677 8.51041 13.4294 8.09005 13.1465 7.8544C11.709 6.65707 9.89734 6.0014 8.02651 6.0014C6.15568 6.0014 4.34401 6.65707 2.90651 7.8544C2.6236 8.09005 2.58529 8.51041 2.82093 8.79332C3.05657 9.07623 3.47694 9.11455 3.75985 8.87891Z" fill="#292737"/>
<path d="M8.0032 10.6675C7.31135 10.6675 6.63664 10.8828 6.07264 11.2835C5.77249 11.4967 5.3563 11.4263 5.14306 11.1261C4.92982 10.826 5.00027 10.4098 5.30042 10.1965C6.09002 9.63555 7.03461 9.33417 8.0032 9.33417C8.97179 9.33417 9.91637 9.63555 10.706 10.1965C11.0061 10.4098 11.0766 10.826 10.8633 11.1261C10.6501 11.4263 10.2339 11.4967 9.93375 11.2835C9.36975 10.8828 8.69505 10.6675 8.0032 10.6675Z" fill="#292737"/>
<path d="M7.99985 12.6666C7.63166 12.6666 7.33318 12.9651 7.33318 13.3333C7.33318 13.7015 7.63166 14 7.99985 14H8.00651C8.3747 14 8.67318 13.7015 8.67318 13.3333C8.67318 12.9651 8.3747 12.6666 8.00651 12.6666H7.99985Z" fill="#292737"/>
</svg>
