<svg width="16" height="16" viewBox="0 0 16 16" fill="none" xmlns="http://www.w3.org/2000/svg">
<g clip-path="url(#clip0_1741_62299)">
<circle cx="8" cy="8" r="8" fill="#292737"/>
<path d="M7.99885 11.4825C7.42877 11.4803 6.93824 11.3399 6.52726 11.0615C6.11848 10.7831 5.80362 10.3799 5.58266 9.85178C5.36391 9.32369 5.25564 8.68843 5.25785 7.94601C5.25785 7.20579 5.36722 6.57495 5.58597 6.05349C5.80693 5.53202 6.1218 5.1354 6.53057 4.86362C6.94156 4.58963 7.43098 4.45264 7.99885 4.45264C8.56672 4.45264 9.05504 4.58963 9.46381 4.86362C9.8748 5.13761 10.1908 5.53534 10.4117 6.0568C10.6327 6.57606 10.7421 7.20579 10.7399 7.94601C10.7399 8.69064 10.6294 9.327 10.4084 9.8551C10.1897 10.3832 9.8759 10.7864 9.46713 11.0649C9.05835 11.3433 8.56893 11.4825 7.99885 11.4825ZM7.99885 10.2926C8.38774 10.2926 8.69819 10.097 8.93019 9.70595C9.1622 9.31485 9.2771 8.7282 9.27489 7.94601C9.27489 7.43117 9.22186 7.00251 9.1158 6.66002C9.01195 6.31754 8.86391 6.06012 8.67167 5.88777C8.48165 5.71542 8.25737 5.62925 7.99885 5.62925C7.61217 5.62925 7.30283 5.82259 7.07082 6.20927C6.83881 6.59594 6.7217 7.17486 6.71949 7.94601C6.71949 8.46747 6.77142 8.90276 6.87527 9.25188C6.98133 9.59879 7.13048 9.85952 7.32271 10.0341C7.51495 10.2064 7.74033 10.2926 7.99885 10.2926Z" fill="white"/>
</g>
<defs>
<clipPath id="clip0_1741_62299">
<rect width="16" height="16" fill="white"/>
</clipPath>
</defs>
</svg>
