<svg width="16" height="16" viewBox="0 0 16 16" fill="none" xmlns="http://www.w3.org/2000/svg">
<path fill-rule="evenodd" clip-rule="evenodd" d="M8.40946 0.807088C8.16872 0.619846 7.83161 0.619846 7.59087 0.807088L1.59087 5.47375C1.42848 5.60006 1.3335 5.79426 1.3335 5.99999V13.3333C1.3335 13.8638 1.54421 14.3725 1.91928 14.7475C2.29435 15.1226 2.80306 15.3333 3.3335 15.3333H12.6668C13.1973 15.3333 13.706 15.1226 14.081 14.7475C14.4561 14.3725 14.6668 13.8638 14.6668 13.3333V5.99999C14.6668 5.79426 14.5718 5.60006 14.4095 5.47375L8.40946 0.807088ZM10.6668 14H12.6668C12.8436 14 13.0132 13.9298 13.1382 13.8047C13.2633 13.6797 13.3335 13.5101 13.3335 13.3333V6.32605L8.00016 2.1779L2.66683 6.32605V13.3333C2.66683 13.5101 2.73707 13.6797 2.86209 13.8047C2.98712 13.9298 3.15669 14 3.3335 14H5.3335V7.99999C5.3335 7.6318 5.63197 7.33332 6.00016 7.33332H10.0002C10.3684 7.33332 10.6668 7.6318 10.6668 7.99999V14ZM6.66683 14V8.66666H9.3335V14H6.66683Z" fill="#292737"/>
</svg>
