<svg width="16" height="16" viewBox="0 0 16 16" fill="none" xmlns="http://www.w3.org/2000/svg">
<path d="M6.63229 1.78918C6.54155 1.51695 6.28679 1.33333 5.99984 1.33333C5.71288 1.33333 5.45813 1.51695 5.36738 1.78918L3.51933 7.33333H1.33317C0.964981 7.33333 0.666504 7.6318 0.666504 7.99999C0.666504 8.36818 0.964981 8.66666 1.33317 8.66666H3.99984C4.28679 8.66666 4.54155 8.48304 4.63229 8.21081L5.99984 4.10818L9.36738 14.2108C9.45812 14.483 9.71288 14.6667 9.99984 14.6667C10.2868 14.6667 10.5416 14.483 10.6323 14.2108L12.4803 8.66666H14.6665C15.0347 8.66666 15.3332 8.36818 15.3332 7.99999C15.3332 7.6318 15.0347 7.33333 14.6665 7.33333H11.9998C11.7129 7.33333 11.4581 7.51695 11.3674 7.78918L9.99984 11.8918L6.63229 1.78918Z" fill="#292737"/>
</svg>
