<svg width="16" height="16" viewBox="0 0 16 16" fill="none" xmlns="http://www.w3.org/2000/svg">
<g clip-path="url(#clip0_1741_62079)">
<path d="M8.41827 1.83707C7.58807 1.47039 6.6855 1.29682 5.77851 1.32944C4.87152 1.36205 3.98375 1.6 3.18203 2.02537C2.38031 2.45074 1.68553 3.05244 1.15001 3.78517C0.614478 4.51791 0.252154 5.36259 0.090311 6.25561C-0.0715322 7.14864 -0.0286771 8.06675 0.21565 8.94082C0.459977 9.81488 0.899409 10.6221 1.50086 11.3018C1.74487 11.5775 2.16619 11.6033 2.44192 11.3593C2.71765 11.1152 2.74337 10.6939 2.49937 10.4182C2.03157 9.88957 1.68979 9.2617 1.49976 8.58187C1.30973 7.90204 1.2764 7.18796 1.40227 6.49338C1.52815 5.7988 1.80996 5.14183 2.22648 4.57193C2.643 4.00202 3.18338 3.53403 3.80694 3.20319C4.4305 2.87235 5.12099 2.68728 5.82643 2.66191C6.53186 2.63654 7.23386 2.77154 7.87958 3.05673C8.52529 3.34193 9.09789 3.76989 9.55427 4.30841C10.0107 4.84692 10.3389 5.48195 10.5144 6.16569C10.59 6.46051 10.8557 6.66666 11.1601 6.66666H12.0001C12.567 6.66622 13.1197 6.84641 13.5772 7.1811C14.0347 7.51578 14.3736 7.98753 14.5449 8.5279C14.7161 9.06827 14.7106 9.64914 14.5293 10.1862C14.348 10.7233 14.0003 11.1886 13.5366 11.5147C13.2355 11.7265 13.163 12.1423 13.3748 12.4435C13.5866 12.7447 14.0024 12.8171 14.3036 12.6053C14.9991 12.1162 15.5207 11.4183 15.7926 10.6126C16.0646 9.80704 16.0727 8.93574 15.8159 8.12519C15.5591 7.31464 15.0507 6.607 14.3645 6.10498C13.6784 5.60306 12.8502 5.33278 12.0001 5.33333H11.6537C11.4114 4.64503 11.0451 4.00527 10.5715 3.44636C9.98468 2.75398 9.24848 2.20375 8.41827 1.83707Z" fill="#292737"/>
<path d="M8.00016 7.33333C8.36835 7.33333 8.66683 7.63181 8.66683 8V12.3905L10.1954 10.8619C10.4558 10.6016 10.8779 10.6016 11.1382 10.8619C11.3986 11.1223 11.3986 11.5444 11.1382 11.8047L8.47157 14.4714C8.21122 14.7318 7.78911 14.7318 7.52876 14.4714L4.86209 11.8047C4.60174 11.5444 4.60174 11.1223 4.86209 10.8619C5.12244 10.6016 5.54455 10.6016 5.8049 10.8619L7.3335 12.3905V8C7.3335 7.63181 7.63197 7.33333 8.00016 7.33333Z" fill="#292737"/>
</g>
<defs>
<clipPath id="clip0_1741_62079">
<rect width="16" height="16" fill="white"/>
</clipPath>
</defs>
</svg>
