<svg width="16" height="16" viewBox="0 0 16 16" fill="none" xmlns="http://www.w3.org/2000/svg">
<path fill-rule="evenodd" clip-rule="evenodd" d="M8.33663 2.66665C5.57699 2.66665 3.33986 4.90378 3.33986 7.66342C3.33986 8.46216 3.52679 9.21534 3.85867 9.88335C3.93708 10.0412 3.94981 10.2236 3.89408 10.3908L3.04818 12.9284L5.61144 12.1019C5.77718 12.0485 5.95725 12.062 6.11314 12.1396C6.78203 12.4726 7.53647 12.6602 8.33663 12.6602C11.0963 12.6602 13.3334 10.4231 13.3334 7.66342C13.3334 4.90378 11.0963 2.66665 8.33663 2.66665ZM2.00653 7.66342C2.00653 4.1674 4.84061 1.33331 8.33663 1.33331C11.8326 1.33331 14.6667 4.1674 14.6667 7.66342C14.6667 11.1594 11.8327 13.9935 8.33663 13.9935C7.42426 13.9935 6.55551 13.8001 5.77044 13.4516L2.2038 14.6016C1.96459 14.6788 1.70233 14.6148 1.52549 14.4362C1.34864 14.2576 1.28727 13.9948 1.36675 13.7563L2.54498 10.2217C2.19866 9.43872 2.00653 8.57273 2.00653 7.66342Z" fill="#292737"/>
</svg>
