<svg width="16" height="16" viewBox="0 0 16 16" fill="none" xmlns="http://www.w3.org/2000/svg">
<path fill-rule="evenodd" clip-rule="evenodd" d="M2.00016 1.33334C1.63197 1.33334 1.3335 1.63182 1.3335 2.00001V6.66668C1.3335 7.03487 1.63197 7.33334 2.00016 7.33334H6.66683C7.03502 7.33334 7.3335 7.03487 7.3335 6.66668V2.00001C7.3335 1.63182 7.03502 1.33334 6.66683 1.33334H2.00016ZM2.66683 6.00001V2.66668H6.00016V6.00001H2.66683Z" fill="#292737"/>
<path fill-rule="evenodd" clip-rule="evenodd" d="M9.3335 1.33334C8.96531 1.33334 8.66683 1.63182 8.66683 2.00001V6.66668C8.66683 7.03487 8.96531 7.33334 9.3335 7.33334H14.0002C14.3684 7.33334 14.6668 7.03487 14.6668 6.66668V2.00001C14.6668 1.63182 14.3684 1.33334 14.0002 1.33334H9.3335ZM10.0002 6.00001V2.66668H13.3335V6.00001H10.0002Z" fill="#292737"/>
<path fill-rule="evenodd" clip-rule="evenodd" d="M8.66683 9.33334C8.66683 8.96515 8.96531 8.66668 9.3335 8.66668H14.0002C14.3684 8.66668 14.6668 8.96515 14.6668 9.33334V14C14.6668 14.3682 14.3684 14.6667 14.0002 14.6667H9.3335C8.96531 14.6667 8.66683 14.3682 8.66683 14V9.33334ZM10.0002 10V13.3333H13.3335V10H10.0002Z" fill="#292737"/>
<path fill-rule="evenodd" clip-rule="evenodd" d="M2.00016 8.66668C1.63197 8.66668 1.3335 8.96515 1.3335 9.33334V14C1.3335 14.3682 1.63197 14.6667 2.00016 14.6667H6.66683C7.03502 14.6667 7.3335 14.3682 7.3335 14V9.33334C7.3335 8.96515 7.03502 8.66668 6.66683 8.66668H2.00016ZM2.66683 13.3333V10H6.00016V13.3333H2.66683Z" fill="#292737"/>
</svg>
