<svg width="16" height="16" viewBox="0 0 16 16" fill="none" xmlns="http://www.w3.org/2000/svg">
<path fill-rule="evenodd" clip-rule="evenodd" d="M4 0.666656C3.46957 0.666656 2.96086 0.87737 2.58579 1.25244C2.21071 1.62752 2 2.13622 2 2.66666V13.3333C2 13.8638 2.21071 14.3725 2.58579 14.7475C2.96086 15.1226 3.46957 15.3333 4 15.3333H12C12.5304 15.3333 13.0391 15.1226 13.4142 14.7475C13.7893 14.3725 14 13.8638 14 13.3333V5.99999C14 5.82318 13.9298 5.65361 13.8047 5.52859L9.13807 0.861938C9.07427 0.79814 8.99887 0.748588 8.91683 0.715375C8.8381 0.683501 8.75325 0.666656 8.66667 0.666656H4ZM8 1.99999H4C3.82319 1.99999 3.65362 2.07023 3.5286 2.19525C3.40357 2.32028 3.33333 2.48985 3.33333 2.66666V13.3333C3.33333 13.5101 3.40357 13.6797 3.5286 13.8047C3.65362 13.9298 3.82319 14 4 14H12C12.1768 14 12.3464 13.9298 12.4714 13.8047C12.5964 13.6797 12.6667 13.5101 12.6667 13.3333V6.66668H8.66667C8.29848 6.66668 8 6.3682 8 6.00001V1.99999ZM11.7239 5.33334L9.33333 2.94282V5.33334H11.7239Z" fill="#292737"/>
</svg>
