<svg width="16" height="16" viewBox="0 0 16 16" fill="none" xmlns="http://www.w3.org/2000/svg">
<g clip-path="url(#clip0_1741_62067)">
<path fill-rule="evenodd" clip-rule="evenodd" d="M7.99984 5.33332C6.52708 5.33332 5.33317 6.52723 5.33317 7.99999C5.33317 9.47275 6.52708 10.6667 7.99984 10.6667C9.4726 10.6667 10.6665 9.47275 10.6665 7.99999C10.6665 6.52723 9.4726 5.33332 7.99984 5.33332ZM6.6665 7.99999C6.6665 7.26361 7.26346 6.66666 7.99984 6.66666C8.73622 6.66666 9.33317 7.26361 9.33317 7.99999C9.33317 8.73637 8.73622 9.33332 7.99984 9.33332C7.26346 9.33332 6.6665 8.73637 6.6665 7.99999Z" fill="#292737"/>
<path fill-rule="evenodd" clip-rule="evenodd" d="M7.99984 0.666656C3.94975 0.666656 0.666504 3.9499 0.666504 7.99999C0.666504 12.0501 3.94975 15.3333 7.99984 15.3333C12.0499 15.3333 15.3332 12.0501 15.3332 7.99999C15.3332 3.9499 12.0499 0.666656 7.99984 0.666656ZM1.99984 7.99999C1.99984 4.68628 4.68613 1.99999 7.99984 1.99999C11.3135 1.99999 13.9998 4.68628 13.9998 7.99999C13.9998 11.3137 11.3135 14 7.99984 14C4.68613 14 1.99984 11.3137 1.99984 7.99999Z" fill="#292737"/>
</g>
<defs>
<clipPath id="clip0_1741_62067">
<rect width="16" height="16" fill="white"/>
</clipPath>
</defs>
</svg>
