<svg width="16" height="16" viewBox="0 0 16 16" fill="none" xmlns="http://www.w3.org/2000/svg">
<path fill-rule="evenodd" clip-rule="evenodd" d="M8.00016 0.666687C5.79102 0.666687 4.00016 2.45755 4.00016 4.66669V6.66669H3.3335C2.22893 6.66669 1.3335 7.56212 1.3335 8.66669V13.3334C1.3335 14.4379 2.22893 15.3334 3.3335 15.3334H12.6668C13.7714 15.3334 14.6668 14.4379 14.6668 13.3334V8.66669C14.6668 7.56212 13.7714 6.66669 12.6668 6.66669H5.3335V4.66669C5.3335 3.19393 6.5274 2.00002 8.00016 2.00002C9.47292 2.00002 10.6668 3.19393 10.6668 4.66669C10.6668 5.03488 10.9653 5.33335 11.3335 5.33335C11.7017 5.33335 12.0002 5.03488 12.0002 4.66669C12.0002 2.45755 10.2093 0.666687 8.00016 0.666687ZM2.66683 8.66669C2.66683 8.2985 2.96531 8.00002 3.3335 8.00002H12.6668C13.035 8.00002 13.3335 8.2985 13.3335 8.66669V13.3334C13.3335 13.7015 13.035 14 12.6668 14H3.3335C2.96531 14 2.66683 13.7015 2.66683 13.3334V8.66669Z" fill="#292737"/>
</svg>
