<svg width="16" height="16" viewBox="0 0 16 16" fill="none" xmlns="http://www.w3.org/2000/svg">
<g clip-path="url(#clip0_1741_61800)">
<path d="M8.6665 1.33332C8.6665 0.965133 8.36803 0.666656 7.99984 0.666656C7.63165 0.666656 7.33317 0.965133 7.33317 1.33332V3.99999C7.33317 4.36818 7.63165 4.66666 7.99984 4.66666C8.36803 4.66666 8.6665 4.36818 8.6665 3.99999V1.33332Z" fill="#292737"/>
<path d="M8.6665 12C8.6665 11.6318 8.36803 11.3333 7.99984 11.3333C7.63165 11.3333 7.33317 11.6318 7.33317 12V14.6667C7.33317 15.0348 7.63165 15.3333 7.99984 15.3333C8.36803 15.3333 8.6665 15.0348 8.6665 14.6667V12Z" fill="#292737"/>
<path d="M2.81505 2.81525C3.0754 2.5549 3.49751 2.5549 3.75786 2.81525L5.64453 4.70191C5.90488 4.96226 5.90488 5.38437 5.64453 5.64472C5.38418 5.90507 4.96207 5.90507 4.70172 5.64472L2.81505 3.75806C2.5547 3.49771 2.5547 3.0756 2.81505 2.81525Z" fill="#292737"/>
<path d="M11.2979 10.3553C11.0376 10.0949 10.6154 10.0949 10.3551 10.3553C10.0947 10.6156 10.0947 11.0377 10.3551 11.2981L12.2418 13.1847C12.5021 13.4451 12.9242 13.4451 13.1846 13.1847C13.4449 12.9244 13.4449 12.5023 13.1846 12.2419L11.2979 10.3553Z" fill="#292737"/>
<path d="M0.666504 7.99999C0.666504 7.6318 0.964981 7.33332 1.33317 7.33332H3.99984C4.36803 7.33332 4.6665 7.6318 4.6665 7.99999C4.6665 8.36818 4.36803 8.66666 3.99984 8.66666H1.33317C0.964981 8.66666 0.666504 8.36818 0.666504 7.99999Z" fill="#292737"/>
<path d="M11.9998 7.33332C11.6316 7.33332 11.3332 7.6318 11.3332 7.99999C11.3332 8.36818 11.6316 8.66666 11.9998 8.66666H14.6665C15.0347 8.66666 15.3332 8.36818 15.3332 7.99999C15.3332 7.6318 15.0347 7.33332 14.6665 7.33332H11.9998Z" fill="#292737"/>
<path d="M5.64453 10.3553C5.90488 10.6156 5.90488 11.0377 5.64453 11.2981L3.75786 13.1847C3.49751 13.4451 3.0754 13.4451 2.81505 13.1847C2.5547 12.9244 2.5547 12.5023 2.81505 12.2419L4.70172 10.3553C4.96207 10.0949 5.38418 10.0949 5.64453 10.3553Z" fill="#292737"/>
<path d="M13.1846 3.75806C13.4449 3.49771 13.4449 3.0756 13.1846 2.81525C12.9242 2.5549 12.5021 2.5549 12.2418 2.81525L10.3551 4.70191C10.0947 4.96226 10.0947 5.38437 10.3551 5.64472C10.6154 5.90507 11.0376 5.90507 11.2979 5.64472L13.1846 3.75806Z" fill="#292737"/>
</g>
<defs>
<clipPath id="clip0_1741_61800">
<rect width="16" height="16" fill="white"/>
</clipPath>
</defs>
</svg>
