<svg width="16" height="16" viewBox="0 0 16 16" fill="none" xmlns="http://www.w3.org/2000/svg">
<path d="M2.66667 2C2.29848 2 2 2.29848 2 2.66667C2 3.03486 2.29848 3.33333 2.66667 3.33333H7.33333C7.86377 3.33333 8.37247 3.54405 8.74755 3.91912C9.12262 4.29419 9.33333 4.8029 9.33333 5.33333V11.7239L7.13807 9.5286C6.87772 9.26825 6.45561 9.26825 6.19526 9.5286C5.93491 9.78895 5.93491 10.2111 6.19526 10.4714L9.5286 13.8047C9.78895 14.0651 10.2111 14.0651 10.4714 13.8047L13.8047 10.4714C14.0651 10.2111 14.0651 9.78895 13.8047 9.5286C13.5444 9.26825 13.1223 9.26825 12.8619 9.5286L10.6667 11.7239V5.33333C10.6667 4.44928 10.3155 3.60143 9.69036 2.97631C9.06523 2.35119 8.21739 2 7.33333 2H2.66667Z" fill="#292737"/>
</svg>
