<svg width="16" height="16" viewBox="0 0 16 16" fill="none" xmlns="http://www.w3.org/2000/svg">
<g clip-path="url(#clip0_1741_62137)">
<path d="M8 0C8.36819 0 8.66667 0.298477 8.66667 0.666667V2C8.66667 2.36819 8.36819 2.66667 8 2.66667C7.63181 2.66667 7.33333 2.36819 7.33333 2V0.666667C7.33333 0.298477 7.63181 0 8 0Z" fill="#292737"/>
<path fill-rule="evenodd" clip-rule="evenodd" d="M4 8C4 5.79086 5.79086 4 8 4C10.2091 4 12 5.79086 12 8C12 10.2091 10.2091 12 8 12C5.79086 12 4 10.2091 4 8ZM8 5.33333C6.52724 5.33333 5.33333 6.52724 5.33333 8C5.33333 9.47276 6.52724 10.6667 8 10.6667C9.47276 10.6667 10.6667 9.47276 10.6667 8C10.6667 6.52724 9.47276 5.33333 8 5.33333Z" fill="#292737"/>
<path d="M8.66667 14C8.66667 13.6318 8.36819 13.3333 8 13.3333C7.63181 13.3333 7.33333 13.6318 7.33333 14V15.3333C7.33333 15.7015 7.63181 16 8 16C8.36819 16 8.66667 15.7015 8.66667 15.3333V14Z" fill="#292737"/>
<path d="M2.34191 2.34191C2.60226 2.08156 3.02437 2.08156 3.28472 2.34191L4.23139 3.28858C4.49173 3.54893 4.49173 3.97104 4.23139 4.23139C3.97104 4.49173 3.54893 4.49173 3.28858 4.23139L2.34191 3.28472C2.08156 3.02437 2.08156 2.60226 2.34191 2.34191Z" fill="#292737"/>
<path d="M12.7115 11.7686C12.4511 11.5082 12.029 11.5082 11.7687 11.7686C11.5083 12.0289 11.5083 12.451 11.7687 12.7114L12.7153 13.6581C12.9757 13.9184 13.3978 13.9184 13.6581 13.6581C13.9185 13.3977 13.9185 12.9756 13.6581 12.7153L12.7115 11.7686Z" fill="#292737"/>
<path d="M0 8C0 7.63181 0.298477 7.33333 0.666667 7.33333H2C2.36819 7.33333 2.66667 7.63181 2.66667 8C2.66667 8.36819 2.36819 8.66667 2 8.66667H0.666667C0.298477 8.66667 0 8.36819 0 8Z" fill="#292737"/>
<path d="M14 7.33333C13.6318 7.33333 13.3333 7.63181 13.3333 8C13.3333 8.36819 13.6318 8.66667 14 8.66667H15.3333C15.7015 8.66667 16 8.36819 16 8C16 7.63181 15.7015 7.33333 15.3333 7.33333H14Z" fill="#292737"/>
<path d="M4.23139 11.7686C4.49173 12.0289 4.49173 12.451 4.23139 12.7114L3.28472 13.6581C3.02437 13.9184 2.60226 13.9184 2.34191 13.6581C2.08156 13.3977 2.08156 12.9756 2.34191 12.7153L3.28858 11.7686C3.54893 11.5082 3.97104 11.5082 4.23139 11.7686Z" fill="#292737"/>
<path d="M13.6581 3.28472C13.9185 3.02437 13.9185 2.60226 13.6581 2.34191C13.3978 2.08156 12.9757 2.08156 12.7153 2.34191L11.7687 3.28858C11.5083 3.54893 11.5083 3.97104 11.7687 4.23139C12.029 4.49173 12.4511 4.49173 12.7115 4.23139L13.6581 3.28472Z" fill="#292737"/>
</g>
<defs>
<clipPath id="clip0_1741_62137">
<rect width="16" height="16" fill="white"/>
</clipPath>
</defs>
</svg>
