<svg width="62" height="24" viewBox="0 0 62 24" fill="none" xmlns="http://www.w3.org/2000/svg">
<path d="M28.5483 11.6726V18.7486H26.3027V1.2749H32.2559C33.7647 1.2749 35.0513 1.77783 36.1039 2.78368C37.1799 3.78952 37.7179 5.01759 37.7179 6.46788C37.7179 7.95326 37.1799 9.18133 36.1039 10.1755C35.063 11.1696 33.7764 11.6609 32.2559 11.6609H28.5483V11.6726ZM28.5483 3.42695V9.52051H32.3027C33.1916 9.52051 33.9402 9.21642 34.525 8.61993C35.1214 8.02344 35.4255 7.29829 35.4255 6.47958C35.4255 5.67256 35.1214 4.95911 34.525 4.36262C33.9402 3.74274 33.2033 3.43864 32.3027 3.43864H28.5483V3.42695Z" fill="#3C4043"/>
<path d="M43.5875 6.39771C45.2483 6.39771 46.5582 6.84215 47.5173 7.73104C48.4764 8.61993 48.9559 9.8363 48.9559 11.3802V18.7486H46.8155V17.0878H46.722C45.798 18.4562 44.5582 19.1345 43.0144 19.1345C41.6927 19.1345 40.5933 18.7486 39.7044 17.9649C38.8155 17.1813 38.3711 16.2106 38.3711 15.041C38.3711 13.8012 38.8389 12.8188 39.7746 12.0936C40.7103 11.3568 41.9617 10.9942 43.5173 10.9942C44.8506 10.9942 45.95 11.2398 46.8038 11.731V11.2164C46.8038 10.4328 46.4997 9.77782 45.8799 9.22811C45.26 8.6784 44.5348 8.4094 43.7044 8.4094C42.453 8.4094 41.4588 8.93571 40.7337 10L38.7571 8.76027C39.8448 7.18133 41.4588 6.39771 43.5875 6.39771ZM40.6869 15.0761C40.6869 15.6609 40.9325 16.1521 41.4354 16.538C41.9266 16.924 42.5114 17.1228 43.1781 17.1228C44.1255 17.1228 44.9676 16.772 45.7044 16.0702C46.4413 15.3685 46.8155 14.5497 46.8155 13.6024C46.1138 13.0527 45.143 12.772 43.8916 12.772C42.9793 12.772 42.219 12.9942 41.6109 13.4269C40.991 13.8831 40.6869 14.4328 40.6869 15.0761Z" fill="#3C4043"/>
<path d="M61.17 6.78369L53.6846 24.0001H51.3688L54.1525 17.9767L49.2168 6.78369H51.6612L55.2168 15.3685H55.2636L58.7256 6.78369H61.17Z" fill="#3C4043"/>
<path d="M19.6176 10.2456C19.6176 9.51343 19.5521 8.81284 19.4304 8.13916H10.0176V11.9988L15.4386 12C15.2187 13.2842 14.5111 14.3789 13.4269 15.1087V17.6128H16.6538C18.538 15.869 19.6176 13.2912 19.6176 10.2456Z" fill="#4285F4"/>
<path d="M13.429 15.1088C12.5307 15.7146 11.374 16.069 10.0208 16.069C7.40675 16.069 5.18921 14.3076 4.39506 11.9333H1.06641V14.5158C2.71553 17.7883 6.105 20.0339 10.0208 20.0339C12.7272 20.0339 15.0009 19.1439 16.6559 17.6117L13.429 15.1088Z" fill="#34A853"/>
<path d="M4.0807 10.0175C4.0807 9.35087 4.19181 8.70643 4.39415 8.10058V5.51813H1.06549C0.383624 6.87134 0 8.39883 0 10.0175C0 11.6363 0.384793 13.1637 1.06549 14.517L4.39415 11.9345C4.19181 11.3287 4.0807 10.6842 4.0807 10.0175Z" fill="#FABB05"/>
<path d="M10.0208 3.96491C11.498 3.96491 12.8208 4.47368 13.8652 5.46783L16.7249 2.61053C14.988 0.992983 12.7237 0 10.0208 0C6.10617 0 2.71553 2.24561 1.06641 5.51812L4.39506 8.10058C5.18921 5.72631 7.40675 3.96491 10.0208 3.96491Z" fill="#E94235"/>
</svg>
