<svg width="57" height="24" viewBox="0 0 57 24" fill="none" xmlns="http://www.w3.org/2000/svg">
<g clip-path="url(#clip0_220_1279)">
<path d="M10.6921 3.09491C11.3582 2.26178 11.8103 1.14313 11.691 0C10.716 0.0484842 9.52607 0.64328 8.83718 1.47707C8.21863 2.19107 7.67116 3.35656 7.81389 4.45177C8.90846 4.54672 10.002 3.90467 10.6921 3.09491Z" fill="black"/>
<path d="M11.6793 4.66586C10.0897 4.57117 8.73817 5.56801 7.97906 5.56801C7.21953 5.56801 6.05709 4.71357 4.79981 4.7366C3.16339 4.76064 1.64497 5.68587 0.814555 7.15742C-0.893472 10.1012 0.363807 14.468 2.02477 16.8656C2.83137 18.0517 3.80347 19.3578 5.08435 19.3109C6.29457 19.2634 6.76892 18.5272 8.24 18.5272C9.70999 18.5272 10.1373 19.3109 11.4184 19.2871C12.7469 19.2634 13.5775 18.1004 14.384 16.913C15.3094 15.5609 15.6882 14.2553 15.712 14.1836C15.6882 14.1599 13.1502 13.1863 13.1267 10.2669C13.1027 7.82247 15.1193 6.65976 15.2142 6.58766C14.0754 4.90347 12.2961 4.71357 11.6793 4.66586Z" fill="black"/>
<path d="M25.5175 1.35703C28.9724 1.35703 31.3782 3.73851 31.3782 7.20576C31.3782 10.6854 28.9229 13.0792 25.4308 13.0792H21.6056V19.1624H18.8418V1.35703H25.5175V1.35703ZM21.6056 10.7594H24.7768C27.1831 10.7594 28.5526 9.46395 28.5526 7.21813C28.5526 4.97256 27.1831 3.68924 24.7892 3.68924H21.6056V10.7594Z" fill="black"/>
<path d="M32.1016 15.4736C32.1016 13.2031 33.8414 11.8088 36.9265 11.636L40.48 11.4264V10.427C40.48 8.98324 39.5051 8.11952 37.8766 8.11952C36.3338 8.11952 35.3713 8.85971 35.1371 10.0197H32.6199C32.768 7.67516 34.7668 5.94772 37.9752 5.94772C41.1216 5.94772 43.1328 7.61352 43.1328 10.2171V19.1629H40.5785V17.0283H40.5171C39.7645 18.472 38.1232 19.385 36.4205 19.385C33.8785 19.385 32.1016 17.8056 32.1016 15.4736ZM40.48 14.3015V13.2773L37.284 13.4746C35.6922 13.5858 34.7915 14.2891 34.7915 15.3996C34.7915 16.5347 35.7293 17.2751 37.1607 17.2751C39.0238 17.2751 40.48 15.9918 40.48 14.3015Z" fill="black"/>
<path d="M45.5412 23.9386V21.7792C45.7382 21.8284 46.1824 21.8284 46.4047 21.8284C47.6385 21.8284 48.3049 21.3103 48.7119 19.9777C48.7119 19.9529 48.9466 19.188 48.9466 19.1756L44.2578 6.18246H47.1449L50.4275 16.7449H50.4765L53.7591 6.18246H56.5724L51.7104 19.8418C50.6003 22.9885 49.3169 24.0002 46.627 24.0002C46.4047 24.0002 45.7382 23.9755 45.5412 23.9386Z" fill="black"/>
</g>
<defs>
<clipPath id="clip0_220_1279">
<rect width="57" height="24" fill="white"/>
</clipPath>
</defs>
</svg>
