<svg width="89" height="15" viewBox="0 0 89 15" fill="none" xmlns="http://www.w3.org/2000/svg">
<g clip-path="url(#clip0_220_1416)">
<path d="M15.4199 1.78711H8.94727V13.4186H15.4199V1.78711Z" fill="#FF5F00"/>
<path d="M9.35613 7.60234C9.35511 6.48215 9.60895 5.3764 10.0984 4.36882C10.5879 3.36123 11.3002 2.47822 12.1815 1.78662C11.0902 0.928869 9.77964 0.395451 8.39957 0.247326C7.0195 0.0992014 5.62559 0.342343 4.37717 0.948971C3.12875 1.5556 2.07619 2.50124 1.3398 3.67779C0.603406 4.85434 0.212891 6.21434 0.212891 7.60234C0.212891 8.99034 0.603406 10.3503 1.3398 11.5269C2.07619 12.7034 3.12875 13.6491 4.37717 14.2557C5.62559 14.8623 7.0195 15.1055 8.39957 14.9574C9.77964 14.8092 11.0902 14.2758 12.1815 13.4181C11.3003 12.7265 10.5879 11.8434 10.0985 10.8359C9.60896 9.82827 9.35511 8.72253 9.35613 7.60234Z" fill="#EB001B"/>
<path d="M24.1479 7.60234C24.1479 8.99033 23.7575 10.3503 23.0211 11.5269C22.2848 12.7034 21.2322 13.6491 19.9838 14.2557C18.7354 14.8623 17.3416 15.1055 15.9615 14.9574C14.5814 14.8092 13.2709 14.2758 12.1797 13.4181C13.0601 12.7258 13.7719 11.8426 14.2613 10.8352C14.7507 9.82776 15.005 8.72236 15.005 7.60234C15.005 6.48233 14.7507 5.37693 14.2613 4.3695C13.7719 3.36208 13.0601 2.47892 12.1797 1.78662C13.2709 0.928872 14.5814 0.395447 15.9615 0.247324C17.3416 0.0992011 18.7354 0.342354 19.9838 0.948988C21.2322 1.55562 22.2848 2.50126 23.0211 3.67782C23.7575 4.85437 24.1479 6.21436 24.1479 7.60234Z" fill="#F79E1B"/>
<path d="M23.4434 12.1865V11.9484H23.5395V11.8999H23.2949V11.9484H23.391V12.1865H23.4434ZM23.9182 12.1865V11.8994H23.8432L23.757 12.0969L23.6708 11.8994H23.5958V12.1865H23.6487V11.97L23.7296 12.1567H23.7845L23.8653 11.9695V12.1865H23.9182Z" fill="#F79E1B"/>
<path d="M31.6841 15.041H31.4102V12.5451V7.55274V2.56041V0.0644531H31.6841V5.05658V10.0489V15.041Z" fill="black"/>
<path d="M39.2609 12.1868H38.4922V3.36493H39.2609V12.1868ZM44.8691 3.36493C45.5434 3.35529 46.2145 3.45966 46.854 3.67365C47.4098 3.86039 47.9206 4.16085 48.3538 4.55586C48.7691 4.94349 49.0939 5.41787 49.3052 5.94526C49.7506 7.12497 49.7506 8.42665 49.3052 9.60636C49.094 10.1338 48.7692 10.6082 48.3538 10.9959C47.9206 11.3909 47.4098 11.6914 46.854 11.8781C46.2145 12.0921 45.5434 12.1965 44.8691 12.1868H41.649V3.36493H44.8691ZM42.4178 4.09584V11.4559H44.8691C45.447 11.4661 46.0224 11.3777 46.5705 11.1943C47.0319 11.038 47.455 10.7857 47.8118 10.454C48.1507 10.1304 48.4115 9.73383 48.5743 9.29444C48.9187 8.3113 48.9187 7.24033 48.5743 6.2572C48.411 5.81717 48.1503 5.41976 47.8118 5.09465C47.4561 4.76148 47.0327 4.50892 46.5705 4.3542C46.0219 4.17306 45.4467 4.08572 44.8691 4.09585L42.4178 4.09584ZM58.5744 3.26409C58.9436 3.26307 59.3117 3.30537 59.671 3.39011C60.015 3.47093 60.3482 3.59255 60.6633 3.75241C60.966 3.90579 61.2477 4.09745 61.5015 4.32269C61.7495 4.54314 61.9648 4.79776 62.141 5.07889L61.4983 5.50732C61.3472 5.27638 61.166 5.06662 60.9595 4.88355C60.7509 4.69828 60.5202 4.53952 60.2726 4.41089C60.017 4.27859 59.7462 4.17808 59.4662 4.1116C59.1741 4.04179 58.8747 4.0069 58.5744 4.00766C58.0732 4.00326 57.5758 4.09522 57.1094 4.27855C56.6685 4.45224 56.2676 4.71383 55.9311 5.0474C55.5915 5.38768 55.3237 5.79266 55.1435 6.23833C54.7611 7.2277 54.7611 8.32403 55.1435 9.3134C55.3236 9.75909 55.5915 10.1641 55.9311 10.5043C56.2676 10.8379 56.6685 11.0995 57.1094 11.2731C57.5758 11.4565 58.0732 11.5485 58.5744 11.5441C58.8735 11.5449 59.1717 11.5111 59.4629 11.4433C59.7421 11.3785 60.012 11.279 60.2664 11.1471C60.514 11.0185 60.7447 10.8598 60.9533 10.6745C61.1609 10.4901 61.3421 10.278 61.4921 10.0443L62.1221 10.5043C61.9387 10.78 61.7194 11.03 61.47 11.2479C61.2169 11.4684 60.9375 11.6568 60.6382 11.8088C60.3272 11.9665 59.9982 12.0861 59.6584 12.1647C58.6999 12.383 57.698 12.3094 56.7817 11.9536C56.2467 11.7423 55.7593 11.4263 55.3481 11.0242C54.939 10.6184 54.6164 10.134 54.3998 9.60005C53.942 8.42808 53.942 7.12677 54.3998 5.9548C54.6159 5.41967 54.9386 4.93405 55.3481 4.52748C55.7594 4.12535 56.2467 3.80935 56.7817 3.598C57.3521 3.37203 57.9609 3.25865 58.5744 3.26409ZM64.504 7.28429C64.6166 7.09726 64.7556 6.92748 64.9168 6.78022C65.0706 6.63998 65.2435 6.52223 65.4303 6.43046C65.6147 6.3403 65.8094 6.27262 66.01 6.22889C66.2087 6.18507 66.4115 6.16287 66.615 6.16267C66.9603 6.15868 67.3037 6.21519 67.6295 6.32962C67.9227 6.43287 68.1918 6.59475 68.4204 6.8054C68.6439 7.01573 68.8182 7.27285 68.9308 7.55839C69.0542 7.87453 69.1152 8.21155 69.1104 8.55087V12.1868H68.3921V8.7715C68.3959 8.49743 68.3532 8.22469 68.266 7.96483C68.189 7.73696 68.062 7.52921 67.8942 7.35681C67.725 7.18745 67.5207 7.0573 67.2956 6.97555C67.0369 6.8834 66.7636 6.83858 66.489 6.84323C66.223 6.84114 65.959 6.88924 65.7108 6.98499C65.4756 7.0754 65.2613 7.21262 65.0807 7.38832C64.8997 7.56596 64.7562 7.77805 64.6585 8.01209C64.5533 8.26452 64.5007 8.53576 64.504 8.80922V12.1868H63.7856V3.11279H64.504L64.504 7.28429ZM73.3828 6.16268C73.7609 6.1593 74.1355 6.23553 74.4822 6.38642C74.8143 6.53121 75.1127 6.74365 75.3581 7.01018C75.6115 7.2895 75.8094 7.6146 75.941 7.96805C76.0872 8.35794 76.1619 8.77099 76.1616 9.18738C76.1616 9.24196 76.1606 9.29353 76.1586 9.3417C76.1563 9.39005 76.1532 9.43734 76.1491 9.48356H71.1773C71.1957 9.80189 71.2737 10.1139 71.4072 10.4035C71.5277 10.6621 71.698 10.8944 71.9083 11.0872C72.1142 11.2743 72.3551 11.4188 72.617 11.5126C72.891 11.6104 73.18 11.6594 73.4709 11.6574C73.8548 11.6641 74.2355 11.5867 74.5863 11.4306C74.9161 11.278 75.2167 11.069 75.4747 10.813L75.8591 11.3046C75.6842 11.4821 75.491 11.6405 75.2826 11.7772C75.0947 11.8995 74.8939 12.0009 74.6839 12.0796C74.4833 12.1545 74.2752 12.2073 74.0632 12.2372C73.8524 12.2666 73.6398 12.2814 73.4269 12.2813C73.017 12.2856 72.6102 12.2096 72.2295 12.0576C71.8748 11.9156 71.5531 11.7022 71.2844 11.4306C71.0151 11.1546 70.8049 10.8265 70.6668 10.4665C70.5157 10.0703 70.4409 9.6491 70.4462 9.2251C70.4419 8.80399 70.5178 8.3859 70.67 7.99323C70.8096 7.63213 71.0195 7.3023 71.2874 7.02282C71.552 6.75045 71.8694 6.53495 72.2201 6.38953C72.5885 6.2365 72.9839 6.15934 73.3828 6.16268ZM73.3701 6.79908C73.0864 6.7956 72.8048 6.84807 72.5414 6.95349C72.2967 7.05315 72.0732 7.19859 71.883 7.38201C71.6905 7.56959 71.5335 7.79055 71.4199 8.03417C71.2972 8.29662 71.2195 8.57781 71.1899 8.86602H75.4307C75.4096 8.57581 75.3393 8.29132 75.2227 8.02473C75.1167 7.78145 74.966 7.56023 74.7784 7.37258C74.5932 7.18867 74.3734 7.04329 74.1317 6.94486C73.89 6.84642 73.6311 6.79687 73.3701 6.79908ZM80.295 6.16268C80.7153 6.15863 81.1321 6.23898 81.5207 6.39896C81.8888 6.55094 82.2174 6.78477 82.4817 7.08272L82.0153 7.56792C81.7914 7.34182 81.5276 7.15914 81.2371 7.02914C80.934 6.89786 80.6065 6.83234 80.2762 6.83691C79.9657 6.83433 79.6579 6.89545 79.372 7.01649C79.0985 7.13213 78.8511 7.30141 78.6442 7.51434C78.4349 7.73189 78.271 7.98892 78.162 8.27045C77.9311 8.88594 77.9311 9.56426 78.162 10.1798C78.2688 10.4588 78.4311 10.7132 78.6391 10.9276C78.8471 11.1421 79.0964 11.3121 79.372 11.4275C79.6579 11.5485 79.9657 11.6097 80.2762 11.6071C80.6115 11.6108 80.9436 11.542 81.2498 11.4054C81.5408 11.2746 81.8064 11.0932 82.0342 10.8698L82.4817 11.3614C82.215 11.658 81.8856 11.8916 81.5175 12.045C80.7318 12.359 79.8558 12.3601 79.0694 12.0481C78.7092 11.9017 78.3827 11.6835 78.1097 11.4067C77.8367 11.1299 77.6229 10.8004 77.4815 10.4382C77.1832 9.65594 77.1832 8.79124 77.4815 8.00897C77.6222 7.64602 77.8356 7.31568 78.1087 7.03826C78.3818 6.76085 78.7087 6.54222 79.0694 6.39584C79.4583 6.23711 79.875 6.15783 80.295 6.16268ZM84.6428 8.75886H85.607L88.1022 6.25719H89.0096L86.1867 9.05504L89.06 12.1868H88.1464L85.607 9.40791H84.6428V12.1868H83.9244V3.11279H84.6428V8.75886Z" fill="black"/>
</g>
<defs>
<clipPath id="clip0_220_1416">
<rect width="88.7671" height="15" fill="white"/>
</clipPath>
</defs>
</svg>
