<svg width="99" height="24" viewBox="0 0 99 24" fill="none" xmlns="http://www.w3.org/2000/svg">
<path d="M89.1368 19.5904C86.8576 19.5904 85.0808 17.7056 85.0808 15.4168C85.0808 13.128 86.8576 11.2424 89.1368 11.2424C91.4168 11.2424 93.1928 13.128 93.1928 15.4168C93.1928 17.7048 91.4168 19.5904 89.1368 19.5904ZM87.9968 24C89.9416 24 92.4224 23.2592 93.7968 20.3648L93.9304 20.432C93.3272 22.0136 93.3272 22.9568 93.3272 23.192V23.5624H98.2216V7.2704H93.3272V7.6408C93.3272 7.8768 93.3272 8.8192 93.9304 10.4008L93.7968 10.4688C92.4224 7.5736 89.9416 6.8328 87.9968 6.8328C83.3376 6.8328 80.052 10.536 80.052 15.4168C80.052 20.2968 83.3376 24 87.9968 24ZM71.5368 6.8328C69.3248 6.8328 67.5816 7.6072 66.1736 10.4688L66.0392 10.4C66.6424 8.8184 66.6424 7.876 66.6424 7.64V7.2696H61.748V23.5616H66.7768V14.9776C66.7768 12.7232 68.084 11.3088 70.196 11.3088C72.308 11.3088 73.348 12.5208 73.348 14.9448V23.5616H78.376V13.1936C78.376 9.4912 75.4928 6.832 71.5368 6.832V6.8328ZM54.4736 10.4688L54.3392 10.4C54.9432 8.8184 54.9432 7.876 54.9432 7.64V7.2696H50.0488V23.5616H55.0768L55.1104 15.7184C55.1104 13.4304 56.3176 12.0496 58.2952 12.0496C58.8312 12.0496 59.2672 12.1168 59.7704 12.252V7.2704C57.5576 6.7992 55.58 7.6408 54.4736 10.4688ZM38.4832 19.5904C36.2032 19.5904 34.4272 17.7056 34.4272 15.4168C34.4272 13.128 36.2032 11.2424 38.4832 11.2424C40.7632 11.2424 42.5392 13.128 42.5392 15.4168C42.5392 17.7048 40.7632 19.5904 38.4832 19.5904ZM37.3432 24C39.2872 24 41.768 23.2592 43.1432 20.3648L43.2768 20.432C42.6736 22.0136 42.6736 22.9568 42.6736 23.192V23.5624H47.568V7.2704H42.6736V7.6408C42.6736 7.8768 42.6736 8.8192 43.2768 10.4008L43.1424 10.4688C41.768 7.5736 39.2872 6.832 37.3432 6.832C32.684 6.832 29.3992 10.5352 29.3992 15.416C29.3992 20.296 32.684 24 37.3432 24ZM22.3912 23.5624H27.42V0H22.392L22.3912 23.5624ZM18.7048 0H13.5752C13.5752 4.208 10.9936 7.9776 7.07122 10.6704L5.52962 11.7472V0H0.199219V23.5624H5.52962V11.8824L14.3456 23.5624H20.8496L12.368 12.3864C16.224 9.5936 18.7384 5.2504 18.7048 0Z" fill="#F9F8F5"/>
</svg>
