<svg width="129" height="24" viewBox="0 0 129 24" fill="none" xmlns="http://www.w3.org/2000/svg">
<g clip-path="url(#clip0_220_1231)">
<path d="M102.406 5.57178L93.5923 23.7537H89.9407L93.2337 16.9613L88.0605 5.57178H91.81L95.1355 13.201L98.7654 5.57178H102.406Z" fill="white"/>
<path d="M68.8732 12.0271C68.8732 9.9405 67.2973 8.33205 65.3628 8.33205C63.4283 8.33205 61.8525 9.88616 61.8525 12.0271C61.8525 14.1464 63.4283 15.7222 65.3628 15.7222C67.2973 15.7222 68.8732 14.1138 68.8732 12.0271ZM58.6465 23.7536V5.57161H61.8199V7.24527C62.7763 6.06067 64.2 5.33252 65.8954 5.33252C69.3839 5.33252 72.1227 8.20164 72.1227 11.9945C72.1227 15.7874 69.3296 18.6783 65.8193 18.6783C64.1891 18.6783 62.8524 18.0371 61.9177 16.9503V23.7427H58.6465V23.7536Z" fill="white"/>
<path d="M83.5759 12.027C83.5759 9.85343 82.0001 8.33193 80.0656 8.33193C78.1311 8.33193 76.5553 9.88603 76.5553 12.027C76.5553 14.1462 78.1311 15.7221 80.0656 15.7221C82.0001 15.7221 83.5759 14.1897 83.5759 12.027ZM83.5977 18.4825V16.8089C82.6413 17.9717 81.2176 18.689 79.5222 18.689C75.9793 18.689 73.2949 15.8525 73.2949 12.027C73.2949 8.23412 76.088 5.34326 79.5983 5.34326C81.2502 5.34326 82.6413 6.07141 83.5977 7.20167V5.57149H86.7711V18.4825H83.5977Z" fill="white"/>
<path d="M52.9167 6.83204C52.9167 6.83204 53.7209 5.33228 55.7098 5.33228C56.5574 5.33228 57.1008 5.62571 57.1008 5.62571V8.91867C57.1008 8.91867 55.9054 8.17966 54.8077 8.33181C53.7101 8.48396 53.0145 9.48381 53.0145 10.8314V18.4824H49.7324V5.57137H52.9058V6.83204H52.9167Z" fill="white"/>
<path d="M127.05 4.8435L123.29 2.69167L119.475 0.507222C116.954 -0.938206 113.802 0.876728 113.802 3.78932V4.27837C113.802 4.55007 113.943 4.80003 114.182 4.93045L115.954 5.94116C116.443 6.22373 117.051 5.86509 117.051 5.29996V4.13709C117.051 3.56109 117.671 3.20245 118.171 3.48502L121.649 5.48471L125.115 7.47353C125.615 7.7561 125.615 8.48424 125.115 8.76681L121.649 10.7556L118.171 12.7553C117.671 13.0379 117.051 12.6792 117.051 12.1032V11.5272C117.051 8.61466 113.9 6.78885 111.378 8.24515L107.564 10.4296L103.803 12.5814C101.271 14.0377 101.271 17.7002 103.803 19.1565L107.564 21.3083L111.378 23.4928C113.9 24.9382 117.051 23.1233 117.051 20.2107V19.7216C117.051 19.4499 116.91 19.2 116.671 19.0696L114.9 18.0588C114.411 17.7763 113.802 18.1349 113.802 18.7V19.8629C113.802 20.4389 113.182 20.7975 112.683 20.515L109.205 18.5153L105.738 16.5265C105.238 16.2439 105.238 15.5158 105.738 15.2332L109.205 13.2444L112.683 11.2447C113.182 10.9621 113.802 11.3208 113.802 11.8968V12.4728C113.802 15.3853 116.954 17.2111 119.475 15.7549L123.29 13.5704L127.05 11.4186C129.582 9.95141 129.582 6.2998 127.05 4.8435Z" fill="white"/>
<path d="M13.2371 13.6684C12.5415 16.6354 9.98758 18.6785 6.68374 18.6785C2.86912 18.6785 0 15.8094 0 12.0165C0 8.22362 2.91259 5.33276 6.73808 5.33276C9.96584 5.33276 12.4872 7.37593 13.2153 10.2885H9.85717C9.25943 9.12565 8.07483 8.35403 6.75982 8.35403C4.84707 8.35403 3.24949 9.92988 3.24949 12.0165C3.24949 14.1031 4.84707 15.679 6.75982 15.679C8.12917 15.679 9.31377 14.9074 9.8789 13.6684H13.2371Z" fill="white"/>
<path d="M14.7461 18.4721V0.257568H17.9956V18.4721H14.7461Z" fill="white"/>
<path d="M22.8888 12.8754C23.117 14.7882 24.4864 15.8641 26.2144 15.8641C27.5837 15.8641 28.6379 15.2229 29.2574 14.1904H32.583C31.8113 16.9292 29.3552 18.6789 26.1275 18.6789C22.2259 18.6789 19.498 15.9402 19.498 12.0495C19.498 8.15877 22.3889 5.34399 26.2035 5.34399C30.0508 5.34399 32.8329 8.18051 32.8329 12.0495C32.8329 12.332 32.8112 12.6146 32.7569 12.8754H22.8888ZM29.3661 10.854C29.1379 9.18035 27.7685 8.16964 26.1709 8.16964C24.5733 8.16964 23.2583 9.14775 22.9214 10.854H29.3661Z" fill="white"/>
<path d="M44.4384 18.472V16.7984C43.482 17.9612 42.0692 18.6785 40.3629 18.6785C36.8309 18.6785 34.1465 15.842 34.1465 12.0165C34.1465 8.22362 36.9287 5.33276 40.439 5.33276C42.0909 5.33276 43.482 6.05004 44.4384 7.19117V5.56099H47.6118V18.4612H44.4384V18.472ZM44.4058 12.0165C44.4058 9.8538 42.8299 8.32143 40.8954 8.32143C38.961 8.32143 37.3851 9.86467 37.3851 12.0165C37.3851 14.1357 38.961 15.7116 40.8954 15.7116C42.8299 15.7116 44.4058 14.1901 44.4058 12.0165Z" fill="white"/>
</g>
<defs>
<clipPath id="clip0_220_1231">
<rect width="129" height="24" fill="white"/>
</clipPath>
</defs>
</svg>
