<svg width="31" height="24" viewBox="0 0 31 24" fill="none" xmlns="http://www.w3.org/2000/svg">
<g clip-path="url(#clip0_220_1299)">
<g clip-path="url(#clip1_220_1299)">
<path d="M9.55968 23.8651V22.2785C9.55968 21.6799 9.17826 21.28 8.56641 21.2747C8.24327 21.2694 7.90953 21.37 7.67644 21.7249C7.50163 21.4442 7.22616 21.2747 6.83945 21.2747C6.56928 21.2747 6.30441 21.3541 6.09781 21.6508V21.3382H5.54688V23.8678H6.10311V22.4666C6.10311 22.0269 6.34679 21.7938 6.7229 21.7938C7.09902 21.7938 7.27384 22.0322 7.27384 22.4613V23.8678H7.83007V22.4666C7.83007 22.0269 8.08434 21.7938 8.44987 21.7938C8.81539 21.7938 9.0061 22.0322 9.0061 22.4613V23.8678H9.56233L9.55968 23.8651ZM12.6587 22.6017V21.3382H12.1077V21.6455C11.9329 21.4177 11.6681 21.2747 11.3078 21.2747C10.598 21.2747 10.0444 21.8309 10.0444 22.6017C10.0444 23.3724 10.6006 23.9287 11.3078 23.9287C11.6681 23.9287 11.9329 23.7856 12.1077 23.5579V23.8651H12.6587V22.6017ZM10.6112 22.6017C10.6112 22.1567 10.9026 21.7912 11.3793 21.7912C11.8561 21.7912 12.1422 22.1408 12.1422 22.6017C12.1422 23.0625 11.8349 23.4122 11.3793 23.4122C10.9238 23.4122 10.6112 23.0467 10.6112 22.6017ZM24.4296 21.272C24.6256 21.272 24.8057 21.3065 24.9725 21.3727C25.1394 21.4415 25.2824 21.5342 25.4043 21.6534C25.5261 21.7726 25.6215 21.913 25.6903 22.0746C25.7592 22.2361 25.7936 22.4136 25.7936 22.6017C25.7936 22.7897 25.7592 22.9672 25.6903 23.1288C25.6215 23.2903 25.5261 23.4307 25.4043 23.5499C25.2824 23.6691 25.1394 23.7618 24.9725 23.8307C24.8057 23.8995 24.6256 23.9313 24.4296 23.9313C24.2336 23.9313 24.0534 23.8969 23.8866 23.8307C23.7197 23.7618 23.5767 23.6691 23.4575 23.5499C23.3356 23.4307 23.2429 23.2903 23.1741 23.1288C23.1052 22.9672 23.0708 22.7897 23.0708 22.6017C23.0708 22.4136 23.1052 22.2361 23.1741 22.0746C23.2429 21.913 23.3383 21.7726 23.4575 21.6534C23.5793 21.5342 23.7224 21.4415 23.8866 21.3727C24.0534 21.3038 24.2336 21.272 24.4296 21.272ZM24.4296 21.7912C24.3157 21.7912 24.2124 21.8097 24.1144 21.8494C24.0164 21.8892 23.9342 21.9448 23.8627 22.0163C23.7912 22.0878 23.7356 22.1726 23.6959 22.2732C23.6561 22.3739 23.6349 22.4825 23.6349 22.6017C23.6349 22.7209 23.6561 22.8321 23.6959 22.9301C23.7356 23.0308 23.7912 23.1155 23.8627 23.187C23.9342 23.2586 24.0164 23.3142 24.1144 23.3539C24.2124 23.3936 24.3157 23.4122 24.4296 23.4122C24.5435 23.4122 24.6468 23.3936 24.7448 23.3539C24.8428 23.3142 24.9249 23.2586 24.9964 23.187C25.0679 23.1155 25.1235 23.0308 25.1633 22.9301C25.203 22.8295 25.2242 22.7209 25.2242 22.6017C25.2242 22.4825 25.203 22.3712 25.1633 22.2732C25.1235 22.1726 25.0679 22.0878 24.9964 22.0163C24.9249 21.9448 24.8401 21.8892 24.7448 21.8494C24.6468 21.8097 24.5435 21.7912 24.4296 21.7912ZM15.6517 22.6017C15.6464 21.8124 15.1591 21.2747 14.4519 21.2747C13.7446 21.2747 13.1937 21.815 13.1937 22.6017C13.1937 23.3883 13.7341 23.9287 14.4889 23.9287C14.8703 23.9287 15.22 23.8333 15.5246 23.5737L15.2544 23.1658C15.0425 23.3354 14.7723 23.4307 14.5181 23.4307C14.1631 23.4307 13.84 23.2665 13.7605 22.8109H15.6385C15.6438 22.7421 15.6491 22.6732 15.6491 22.599L15.6517 22.6017ZM13.7685 22.3792C13.8268 22.0137 14.0492 21.7647 14.4413 21.7647C14.7962 21.7647 15.024 21.9872 15.0822 22.3792H13.7711H13.7685ZM17.9693 21.9819C17.8157 21.8865 17.5032 21.7647 17.18 21.7647C16.8781 21.7647 16.698 21.8759 16.698 22.0613C16.698 22.2309 16.8887 22.2785 17.1271 22.3103L17.3866 22.3474C17.9376 22.4269 18.2713 22.6599 18.2713 23.1049C18.2713 23.587 17.8475 23.9313 17.1191 23.9313C16.7059 23.9313 16.3245 23.8254 16.0252 23.6029L16.2848 23.1738C16.4702 23.3168 16.7456 23.4387 17.1271 23.4387C17.5085 23.4387 17.7045 23.3274 17.7045 23.1314C17.7045 22.9884 17.5614 22.9089 17.2595 22.8665L16.9999 22.8295C16.4331 22.75 16.1258 22.4957 16.1258 22.0825C16.1258 21.5793 16.539 21.272 17.1774 21.272C17.58 21.272 17.9455 21.3621 18.2077 21.5369L17.9693 21.9819ZM20.6128 21.8388H19.7148V22.9804C19.7148 23.2347 19.8049 23.4042 20.0804 23.4042C20.2234 23.4042 20.4035 23.3566 20.5677 23.2612L20.7267 23.7327C20.5518 23.8545 20.2764 23.9287 20.038 23.9287C19.3864 23.9287 19.1586 23.579 19.1586 22.991V21.8388H18.6448V21.3356H19.1586V20.5675H19.7148V21.3356H20.6154V21.8388H20.6128ZM22.5172 21.272C22.6284 21.272 22.7874 21.2932 22.9092 21.3409L22.7397 21.86C22.6231 21.8124 22.5066 21.7965 22.3953 21.7965C22.0351 21.7965 21.855 22.0295 21.855 22.448V23.8651H21.3041V21.3356H21.8497V21.6428C21.9927 21.4203 22.1993 21.272 22.5172 21.272ZM26.326 23.4969C26.3605 23.4969 26.3949 23.5022 26.4267 23.5155C26.4585 23.5287 26.485 23.5473 26.5088 23.5685C26.5326 23.5923 26.5512 23.6188 26.5644 23.6479C26.5777 23.6797 26.5856 23.7115 26.5856 23.7459C26.5856 23.7803 26.5777 23.8121 26.5644 23.8439C26.5512 23.8731 26.5326 23.9022 26.5088 23.9234C26.485 23.9472 26.4585 23.9631 26.4267 23.9764C26.3949 23.9896 26.3631 23.9975 26.326 23.9975C26.289 23.9975 26.2572 23.9896 26.2254 23.9764C26.1936 23.9631 26.1671 23.9446 26.1433 23.9234C26.1194 23.8995 26.1009 23.8731 26.0877 23.8439C26.0744 23.8148 26.0665 23.7803 26.0665 23.7459C26.0665 23.7115 26.0744 23.6797 26.0877 23.6479C26.1009 23.6161 26.1194 23.5896 26.1433 23.5685C26.1671 23.5446 26.1936 23.5287 26.2254 23.5155C26.2572 23.5022 26.2916 23.4969 26.326 23.4969ZM26.326 23.9446C26.3525 23.9446 26.379 23.9393 26.4028 23.9287C26.4267 23.9181 26.4479 23.9048 26.4638 23.8863C26.4823 23.8678 26.4956 23.8466 26.5061 23.8227C26.5167 23.7989 26.522 23.7724 26.522 23.7459C26.522 23.7194 26.5167 23.6929 26.5061 23.6691C26.4956 23.6453 26.4823 23.6241 26.4638 23.6055C26.4452 23.587 26.4267 23.5737 26.4028 23.5632C26.379 23.5526 26.3552 23.5473 26.326 23.5473C26.2969 23.5473 26.2731 23.5526 26.2492 23.5632C26.2254 23.5737 26.2042 23.587 26.1857 23.6055C26.1671 23.6241 26.1539 23.6453 26.1433 23.6691C26.1327 23.6929 26.1274 23.7194 26.1274 23.7459C26.1274 23.7724 26.1327 23.7989 26.1433 23.8227C26.1539 23.8466 26.1671 23.8678 26.1857 23.8863C26.2042 23.9048 26.2254 23.9181 26.2492 23.9287C26.2731 23.9393 26.2995 23.9446 26.326 23.9446ZM26.3419 23.6294C26.3711 23.6294 26.3949 23.6373 26.4108 23.6506C26.4267 23.6638 26.4346 23.6823 26.4346 23.7062C26.4346 23.7247 26.4293 23.7406 26.4161 23.7539C26.4029 23.7671 26.3843 23.7751 26.3605 23.7777L26.4373 23.8651H26.3764L26.3048 23.7777H26.281V23.8651H26.2307V23.632H26.3393L26.3419 23.6294ZM26.2837 23.6744V23.738H26.3419C26.3419 23.738 26.3658 23.738 26.3737 23.73C26.3817 23.7247 26.3843 23.7168 26.3843 23.7062C26.3843 23.6956 26.3817 23.6876 26.3737 23.6823C26.3658 23.6771 26.3552 23.6744 26.3419 23.6744H26.2837Z" fill="black"/>
<path d="M19.8317 2.03955H11.4883V17.0339H19.8317V2.03955Z" fill="#7375CF"/>
<path d="M12.0192 9.53537C12.0192 6.49465 13.4442 3.78501 15.6612 2.03951C14.0375 0.76283 11.9927 0 9.76779 0C4.50215 0 0.232422 4.26973 0.232422 9.53537C0.232422 14.801 4.50215 19.0707 9.76779 19.0707C11.9927 19.0707 14.0375 18.3079 15.6612 17.0312C13.4442 15.2857 12.0192 12.5761 12.0192 9.53537Z" fill="#EB001B"/>
<path d="M30.179 15.4446V15.1373H30.3035V15.0737H29.9883V15.1373H30.1128V15.4446H30.1816H30.179ZM30.7908 15.4446V15.0737H30.6955L30.5842 15.328L30.473 15.0737H30.3776V15.4446H30.4465V15.1664L30.5498 15.4075H30.6213L30.7246 15.1664V15.4472H30.7935L30.7908 15.4446Z" fill="#00A2E5"/>
<path d="M31.087 9.53537C31.087 14.801 26.8172 19.0707 21.5516 19.0707C19.3267 19.0707 17.2819 18.3079 15.6582 17.0312C17.8752 15.2857 19.3002 12.5761 19.3002 9.53537C19.3002 6.49465 17.8752 3.78501 15.6582 2.03951C17.2792 0.76283 19.3267 0 21.5516 0C26.8172 0 31.087 4.26973 31.087 9.53537Z" fill="#00A2E5"/>
</g>
</g>
<defs>
<clipPath id="clip0_220_1299">
<rect width="31" height="24" fill="white"/>
</clipPath>
<clipPath id="clip1_220_1299">
<rect width="30.8549" height="24" fill="white" transform="translate(0.230469)"/>
</clipPath>
</defs>
</svg>
