<svg width="31" height="24" viewBox="0 0 31 24" fill="none" xmlns="http://www.w3.org/2000/svg">
<g clip-path="url(#clip0_220_1291)">
<g clip-path="url(#clip1_220_1291)">
<path d="M5.61071 23.8621V22.273C5.61071 21.6745 5.22934 21.2719 4.6149 21.2666C4.2918 21.2613 3.9581 21.362 3.72503 21.7169C3.55024 21.4361 3.2748 21.2666 2.88813 21.2666C2.61799 21.2666 2.35315 21.3461 2.14657 21.6427V21.3302H1.5957V23.8621H2.15187V22.4584C2.15187 22.0188 2.39553 21.7857 2.7716 21.7857C3.14768 21.7857 3.32247 22.0241 3.32247 22.4531V23.8621H3.87864V22.4584C3.87864 22.0188 4.13289 21.7857 4.49837 21.7857C4.86386 21.7857 5.05454 22.0241 5.05454 22.4531V23.8621H5.61071ZM13.842 21.3302H12.9415V20.5622H12.3854V21.3302H11.8716V21.8334H12.3854V22.9881C12.3854 23.5761 12.6131 23.9256 13.2647 23.9256C13.503 23.9256 13.7784 23.8515 13.9532 23.7297L13.7943 23.2582C13.6301 23.3536 13.45 23.4013 13.307 23.4013C13.0316 23.4013 12.9415 23.2318 12.9415 22.9775V21.8334H13.842V21.3302ZM18.5403 21.2666C18.2225 21.2666 18.0159 21.4149 17.8729 21.6374V21.3302H17.3273V23.8621H17.8782V22.4425C17.8782 22.0241 18.0583 21.791 18.4185 21.791C18.5297 21.791 18.6462 21.8069 18.7628 21.8546L18.9323 21.3355C18.8104 21.2878 18.6515 21.2666 18.5403 21.2666ZM11.4372 21.5315C11.1724 21.3567 10.8069 21.2666 10.4044 21.2666C9.76344 21.2666 9.35028 21.5739 9.35028 22.0771C9.35028 22.4902 9.6575 22.7445 10.2243 22.8239L10.4838 22.861C10.7857 22.9034 10.9287 22.9828 10.9287 23.1258C10.9287 23.3218 10.7275 23.433 10.3514 23.433C9.97531 23.433 9.69458 23.3112 9.50919 23.1682L9.24964 23.5972C9.55156 23.8197 9.93294 23.9256 10.3461 23.9256C11.0771 23.9256 11.5008 23.5814 11.5008 23.0993C11.5008 22.6544 11.1671 22.4213 10.6162 22.3419L10.3567 22.3048C10.1183 22.273 9.92764 22.2254 9.92764 22.0559C9.92764 21.8705 10.1077 21.7592 10.4097 21.7592C10.7328 21.7592 11.0453 21.8811 11.1989 21.9764L11.4372 21.5315ZM26.1916 21.2666C25.8738 21.2666 25.6672 21.4149 25.5242 21.6374V21.3302H24.9786V23.8621H25.5295V22.4425C25.5295 22.0241 25.7096 21.791 26.0698 21.791C26.181 21.791 26.2975 21.8069 26.4141 21.8546L26.5836 21.3355C26.4617 21.2878 26.3028 21.2666 26.1916 21.2666ZM19.0938 22.5961C19.0938 23.3642 19.6288 23.9256 20.4445 23.9256C20.8259 23.9256 21.0801 23.8409 21.3556 23.6237L21.0907 23.1788C20.8842 23.3271 20.667 23.4066 20.4286 23.4066C19.989 23.4013 19.6659 23.0835 19.6659 22.5961C19.6659 22.1088 19.989 21.791 20.4286 21.7857C20.667 21.7857 20.8842 21.8652 21.0907 22.0135L21.3556 21.5686C21.0801 21.3514 20.8259 21.2666 20.4445 21.2666C19.6288 21.2666 19.0938 21.8281 19.0938 22.5961ZM24.253 22.5961V21.3302H23.7021V21.6374C23.5273 21.4096 23.2624 21.2666 22.9023 21.2666C22.1925 21.2666 21.6363 21.8228 21.6363 22.5961C21.6363 23.3695 22.1925 23.9256 22.9023 23.9256C23.2624 23.9256 23.5273 23.7826 23.7021 23.5549V23.8621H24.253V22.5961ZM22.2031 22.5961C22.2031 22.1512 22.4944 21.7857 22.9711 21.7857C23.4478 21.7857 23.7339 22.1353 23.7339 22.5961C23.7339 23.057 23.4266 23.4066 22.9711 23.4066C22.5156 23.4066 22.2031 23.0411 22.2031 22.5961ZM15.5555 21.2666C14.814 21.2666 14.2949 21.8069 14.2949 22.5961C14.2949 23.3854 14.8352 23.9256 15.5926 23.9256C15.974 23.9256 16.3236 23.8303 16.6308 23.5708L16.3607 23.1629C16.1488 23.3324 15.8786 23.4277 15.6244 23.4277C15.2695 23.4277 14.9464 23.2635 14.8669 22.808H16.7473C16.7526 22.7392 16.7579 22.6703 16.7579 22.5961C16.7526 21.8069 16.2653 21.2666 15.5555 21.2666ZM15.5449 21.7592C15.8998 21.7592 16.1276 21.9817 16.1859 22.3737H14.8722C14.9305 22.0082 15.153 21.7592 15.5449 21.7592ZM29.3618 22.5961V20.3132H28.8109V21.6374C28.6361 21.4096 28.3713 21.2666 28.0111 21.2666C27.3013 21.2666 26.7451 21.8228 26.7451 22.5961C26.7451 23.3695 27.3013 23.9256 28.0111 23.9256C28.3713 23.9256 28.6361 23.7826 28.8109 23.5549V23.8621H29.3618V22.5961ZM27.3119 22.5961C27.3119 22.1512 27.6032 21.7857 28.0799 21.7857C28.5566 21.7857 28.8427 22.1353 28.8427 22.5961C28.8427 23.057 28.5355 23.4066 28.0799 23.4066C27.6244 23.4066 27.3119 23.0411 27.3119 22.5961ZM8.71201 22.5961V21.3302H8.16114V21.6374C7.98635 21.4096 7.7215 21.2666 7.36132 21.2666C6.65154 21.2666 6.09537 21.8228 6.09537 22.5961C6.09537 23.3695 6.65154 23.9256 7.36132 23.9256C7.7215 23.9256 7.98635 23.7826 8.16114 23.5549V23.8621H8.71201V22.5961ZM6.66213 22.5961C6.66213 22.1512 6.95346 21.7857 7.43018 21.7857C7.90689 21.7857 8.19292 22.1353 8.19292 22.5961C8.19292 23.057 7.88571 23.4066 7.43018 23.4066C6.97465 23.4066 6.66213 23.0411 6.66213 22.5961ZM30.2781 23.494C30.3125 23.494 30.347 23.4993 30.3788 23.5125C30.4105 23.5257 30.437 23.5443 30.4609 23.5655C30.4847 23.5893 30.5032 23.6158 30.5165 23.6449C30.5297 23.6741 30.5377 23.7085 30.5377 23.7429C30.5377 23.7773 30.5297 23.8091 30.5165 23.8409C30.5032 23.87 30.4847 23.8992 30.4609 23.9204C30.437 23.9442 30.4105 23.9601 30.3788 23.9733C30.347 23.9866 30.3152 23.9945 30.2781 23.9945C30.241 23.9945 30.2093 23.9866 30.1775 23.9733C30.1457 23.9601 30.1192 23.9415 30.0954 23.9204C30.0715 23.8965 30.053 23.87 30.0398 23.8409C30.0265 23.8118 30.0186 23.7773 30.0186 23.7429C30.0186 23.7085 30.0265 23.6767 30.0398 23.6449C30.053 23.6131 30.0715 23.5867 30.0954 23.5655C30.1192 23.5416 30.1457 23.5257 30.1775 23.5125C30.2093 23.4993 30.2437 23.494 30.2781 23.494ZM30.2781 23.9415C30.3046 23.9415 30.3311 23.9362 30.3549 23.9256C30.3788 23.9151 30.3999 23.9018 30.4158 23.8833C30.4344 23.8647 30.4476 23.8435 30.4582 23.8197C30.4688 23.7959 30.4741 23.7694 30.4741 23.7429C30.4741 23.7164 30.4688 23.6899 30.4582 23.6661C30.4476 23.6423 30.4344 23.6211 30.4158 23.6025C30.3973 23.584 30.3788 23.5708 30.3549 23.5602C30.3311 23.5496 30.3072 23.5443 30.2781 23.5443C30.249 23.5443 30.2251 23.5496 30.2013 23.5602C30.1775 23.5708 30.1563 23.584 30.1377 23.6025C30.1192 23.6211 30.106 23.6423 30.0954 23.6661C30.0848 23.6899 30.0795 23.7164 30.0795 23.7429C30.0795 23.7694 30.0848 23.7959 30.0954 23.8197C30.106 23.8435 30.1192 23.8647 30.1377 23.8833C30.1563 23.9018 30.1775 23.9151 30.2013 23.9256C30.2251 23.9362 30.2516 23.9415 30.2781 23.9415ZM30.294 23.6264C30.3231 23.6264 30.347 23.6343 30.3629 23.6476C30.3788 23.6608 30.3867 23.6793 30.3867 23.7032C30.3867 23.7217 30.3814 23.7376 30.3682 23.7509C30.3549 23.7641 30.3364 23.772 30.3125 23.7747L30.3893 23.8621H30.3284L30.2569 23.7747H30.2331V23.8621H30.1828V23.629H30.2914L30.294 23.6264ZM30.2357 23.6714V23.735H30.294C30.294 23.735 30.3178 23.735 30.3258 23.727C30.3337 23.7217 30.3364 23.7138 30.3364 23.7032C30.3364 23.6926 30.3337 23.6846 30.3258 23.6793C30.3178 23.6741 30.3072 23.6714 30.294 23.6714H30.2357Z" fill="black"/>
<path d="M19.6003 2.03931H11.2578V17.032H19.6003V2.03931Z" fill="#F26522"/>
<path d="M11.7855 9.53432C11.7855 6.49393 13.2103 3.78459 15.4271 2.03928C13.8036 0.762745 11.759 0 9.53432 0C4.26926 0 0 4.26926 0 9.53432C0 14.7994 4.26926 19.0686 9.53432 19.0686C11.759 19.0686 13.8036 18.3059 15.4271 17.0294C13.2103 15.284 11.7855 12.5747 11.7855 9.53432Z" fill="#E52423"/>
<path d="M29.9446 15.4431V15.1358H30.0691V15.0723H29.7539V15.1358H29.8784V15.4431H29.9473H29.9446ZM30.5564 15.4431V15.0723H30.4611L30.3498 15.3265L30.2386 15.0723H30.1433V15.4431H30.2121V15.165L30.3154 15.406H30.3869L30.4902 15.165V15.4457H30.5591L30.5564 15.4431Z" fill="black"/>
<path d="M30.8509 9.53432C30.8509 14.7994 26.5816 19.0686 21.3166 19.0686C19.0919 19.0686 17.0473 18.3059 15.4238 17.0294C17.6406 15.284 19.0654 12.5747 19.0654 9.53432C19.0654 6.49393 17.6406 3.78459 15.4238 2.03928C17.0447 0.762745 19.0919 0 21.3166 0C26.5816 0 30.8509 4.26926 30.8509 9.53432Z" fill="#F99F1C"/>
</g>
</g>
<defs>
<clipPath id="clip0_220_1291">
<rect width="31" height="24" fill="white"/>
</clipPath>
<clipPath id="clip1_220_1291">
<rect width="30.8515" height="24" fill="white"/>
</clipPath>
</defs>
</svg>
