<svg width="72" height="24" viewBox="0 0 72 24" fill="none" xmlns="http://www.w3.org/2000/svg">
<g clip-path="url(#clip0_220_1346)">
<g clip-path="url(#clip1_220_1346)">
<path d="M18.4151 6.06263C18.7073 4.19546 18.4135 2.9254 17.4041 1.7754C16.292 0.508496 14.2826 -0.0349121 11.7141 -0.0349121H4.25484C3.73039 -0.0349121 3.28176 0.347369 3.2012 0.865503L0.0939808 20.5625C0.0323734 20.9511 0.332512 21.3018 0.725851 21.3018H5.3306L5.01309 23.3174C4.95938 23.6571 5.22161 23.9651 5.56597 23.9651H9.44724C9.90692 23.9651 10.2971 23.6302 10.3698 23.1768L10.4077 22.9794L11.1391 18.343L11.1865 18.0871C11.2575 17.6338 11.6493 17.2989 12.109 17.2989H12.6903C16.4499 17.2989 19.3944 15.7713 20.2554 11.353C20.6155 9.50632 20.4291 7.96614 19.4782 6.88248C19.1907 6.55549 18.8321 6.28379 18.4151 6.06263Z" fill="#009CDE"/>
<path d="M18.4151 6.06263C18.7073 4.19546 18.4135 2.9254 17.4041 1.7754C16.292 0.508496 14.2826 -0.0349121 11.7141 -0.0349121H4.25484C3.73039 -0.0349121 3.28176 0.347369 3.2012 0.865503L0.0939808 20.5625C0.0323734 20.9511 0.332512 21.3018 0.725851 21.3018H5.3306L6.48693 13.9673L6.45059 14.198C6.53274 13.6798 6.97504 13.2975 7.50108 13.2975H9.68893C13.9872 13.2975 17.3535 11.552 18.3361 6.5002C18.3645 6.35013 18.3898 6.20638 18.4119 6.06263" fill="#012169"/>
<path d="M7.73013 6.08791C7.7791 5.77513 7.97972 5.5208 8.24984 5.39127C8.37306 5.33282 8.50891 5.29965 8.65266 5.29965H14.499C15.1909 5.29965 15.837 5.34546 16.4278 5.44024C16.5968 5.4671 16.7611 5.49869 16.9207 5.53344C17.0802 5.56819 17.235 5.60769 17.3851 5.65192C17.4593 5.67403 17.5336 5.69615 17.6063 5.72142C17.8969 5.81778 18.1655 5.93152 18.4151 6.06263C18.7073 4.19546 18.4135 2.9254 17.4041 1.7754C16.292 0.508496 14.2826 -0.0349121 11.7141 -0.0349121H4.25484C3.73039 -0.0349121 3.28176 0.347369 3.2012 0.865503L0.0939808 20.5625C0.0323734 20.9511 0.332512 21.3018 0.725851 21.3018H5.3306L6.48693 13.9673L7.73013 6.08791Z" fill="#003087"/>
<path d="M50.4417 12.299C50.4717 12.1095 50.6344 11.9705 50.8255 11.9705H54.424C57.3922 11.9705 59.4711 14.3036 59.0051 17.3003C58.5249 20.2985 55.6972 22.6301 52.7417 22.6301H49.0768C48.9378 22.6301 48.8304 22.5053 48.8525 22.3679L50.4417 12.2975V12.299ZM51.9503 20.2843H52.5726C54.2266 20.2843 55.7825 19.3791 56.1206 17.3003C56.4176 15.392 55.3292 14.3163 53.5473 14.3163H53.0908C52.9786 14.3163 52.8838 14.3968 52.8665 14.5074L51.9503 20.2827V20.2843Z" fill="#003087"/>
<path d="M45.7815 14.6466L45.5508 16.0999H48.4101C48.5491 16.0999 48.6565 16.2247 48.6344 16.3621L48.3595 18.1187C48.3295 18.3082 48.1668 18.4473 47.9756 18.4473H45.5145C45.3234 18.4473 45.1607 18.5863 45.1306 18.7742L44.8858 20.286H47.914C48.053 20.286 48.1605 20.4108 48.1383 20.5482L47.8635 22.3048C47.8335 22.4944 47.6708 22.6334 47.4796 22.6334H42.0124C41.8734 22.6334 41.7659 22.5086 41.7881 22.3712L43.3772 12.3007C43.4072 12.1112 43.5699 11.9722 43.7611 11.9722H49.2283C49.3673 11.9722 49.4748 12.097 49.4526 12.2344L49.1778 13.991C49.1478 14.1806 48.9851 14.3196 48.7939 14.3196H46.1638C45.9726 14.3196 45.8099 14.4586 45.7799 14.6481L45.7815 14.6466Z" fill="#003087"/>
<path d="M61.4223 22.6317H59.2487C59.1097 22.6317 59.0023 22.5069 59.0244 22.3695L60.6135 12.299C60.6436 12.1095 60.8063 11.9705 60.9974 11.9705H63.171C63.31 11.9705 63.4175 12.0953 63.3953 12.2327L61.8062 22.3031C61.7762 22.4927 61.6135 22.6317 61.4223 22.6317Z" fill="#003087"/>
<path d="M41.0316 22.6317H38.1834C38.0618 22.6317 37.9512 22.5622 37.8991 22.4532L36.0193 18.5324H35.9908L35.3826 22.3679C35.359 22.5211 35.2263 22.6333 35.0715 22.6333H32.8346C32.6956 22.6333 32.5882 22.5085 32.6103 22.3711L34.2089 12.239C34.2326 12.0858 34.3653 11.9736 34.5201 11.9736H38.3935C40.5008 11.9736 41.9415 12.9767 41.5892 15.2546C41.3491 16.7253 40.3302 17.9969 38.7758 18.2655L41.2243 22.2889C41.3159 22.4406 41.2069 22.6333 41.03 22.6333L41.0316 22.6317ZM36.2752 16.7506H36.5437C37.4489 16.7506 38.4899 16.58 38.6778 15.4221C38.8674 14.2626 38.264 14.0967 37.2972 14.0936H36.9055C36.787 14.0936 36.6859 14.1789 36.6685 14.2958L36.2767 16.7506H36.2752Z" fill="#003087"/>
<path d="M67.3009 22.6317H65.1273C64.9883 22.6317 64.8808 22.507 64.903 22.3695L66.1762 14.3179H64.151C64.012 14.3179 63.9046 14.1931 63.9267 14.0557L64.2016 12.2991C64.2316 12.1095 64.3943 11.9705 64.5854 11.9705H71.3386C71.4776 11.9705 71.585 12.0953 71.5629 12.2327L71.288 13.9893C71.258 14.1789 71.0953 14.3179 70.9041 14.3179H68.9469L67.6848 22.3032C67.6548 22.4927 67.492 22.6317 67.3009 22.6317Z" fill="#003087"/>
<path d="M32.7534 15.0004C32.7218 15.1978 32.4801 15.2689 32.3395 15.1251C31.8641 14.6386 31.1674 14.3811 30.4187 14.3811C28.7237 14.3811 27.3809 15.6812 27.114 17.3335C26.8597 19.0143 27.8201 20.2291 29.5435 20.2291C30.2544 20.2291 31.0079 19.959 31.6334 19.5072C31.8056 19.3824 32.0441 19.5324 32.0094 19.7425L31.6145 22.1816C31.5908 22.3269 31.4865 22.4454 31.3444 22.4864C30.5008 22.7344 29.8531 22.9129 29.0617 22.9129C24.4664 22.9129 23.7319 18.9875 23.9689 17.3193C24.6323 12.6403 28.4299 11.5677 30.7567 11.6973C31.5071 11.7383 32.1784 11.8378 32.8371 12.0859C33.0504 12.1664 33.1768 12.3844 33.1404 12.6087L32.7534 14.9988V15.0004Z" fill="#003087"/>
<path d="M46.5568 1.29827H44.1557C43.9914 1.29827 43.8524 1.41833 43.8255 1.57945L42.854 7.73387C42.8351 7.8555 42.9283 7.9645 43.0515 7.9645H44.2836C44.3989 7.9645 44.4969 7.88078 44.5143 7.76704L44.7891 6.0215C44.8144 5.85879 44.955 5.74032 45.1193 5.74032H45.8791C47.4604 5.74032 48.3734 4.97575 48.6119 3.45927C48.7194 2.7958 48.6167 2.27451 48.3055 1.90961C47.9643 1.50837 47.3593 1.29669 46.5552 1.29669L46.5568 1.29827ZM46.8332 3.54615C46.7021 4.40707 46.0434 4.40707 45.4068 4.40707H45.045L45.2994 2.79896C45.3152 2.70102 45.3989 2.62994 45.4968 2.62994H45.6627C46.0955 2.62994 46.5046 2.62994 46.7163 2.87637C46.8427 3.02486 46.8806 3.24285 46.8332 3.54615Z" fill="#009CDE"/>
<path d="M29.4361 1.29828H27.035C26.8707 1.29828 26.7317 1.41833 26.7048 1.57946L25.7349 7.73387C25.7159 7.85551 25.8091 7.96451 25.9323 7.96451H27.0792C27.2435 7.96451 27.3825 7.84445 27.4093 7.68333L27.6716 6.02309C27.6968 5.86038 27.8374 5.7419 28.0017 5.7419H28.7615C30.3428 5.7419 31.2558 4.97734 31.4944 3.46085C31.6018 2.79739 31.4991 2.2761 31.1879 1.91119C30.8467 1.50996 30.2417 1.29828 29.4376 1.29828H29.4361ZM29.7125 3.54616C29.5814 4.40708 28.9227 4.40708 28.2861 4.40708H27.9243L28.1786 2.79897C28.1944 2.70103 28.2782 2.62994 28.3761 2.62994H28.542C28.9748 2.62994 29.3839 2.62994 29.5956 2.87637C29.722 3.02486 29.7599 3.24286 29.7125 3.54616Z" fill="#003087"/>
<path d="M36.611 3.51925H35.461C35.3631 3.51925 35.2794 3.59033 35.2636 3.68827L35.213 4.00894L35.1325 3.89205C34.8829 3.5303 34.3284 3.41025 33.7739 3.41025C32.5039 3.41025 31.4186 4.37227 31.2086 5.72289C31.098 6.39583 31.2544 7.04034 31.6366 7.48897C31.9873 7.90126 32.4881 8.07345 33.0836 8.07345C34.1073 8.07345 34.6744 7.4163 34.6744 7.4163L34.6238 7.7354C34.6049 7.85703 34.6981 7.96761 34.8213 7.96761H35.856C36.0202 7.96761 36.1593 7.84756 36.1861 7.68643L36.8069 3.75146C36.8259 3.62982 36.7327 3.52083 36.6095 3.52083L36.611 3.51925ZM35.0093 5.75607C34.8987 6.41321 34.3774 6.85394 33.7123 6.85394C33.379 6.85394 33.1121 6.74652 32.9399 6.54432C32.7693 6.3437 32.7061 6.0562 32.7598 5.73711C32.8641 5.08628 33.3932 4.63134 34.0472 4.63134C34.3742 4.63134 34.638 4.74033 34.8134 4.94411C34.9887 5.15105 35.0582 5.43855 35.0077 5.75764L35.0093 5.75607Z" fill="#003087"/>
<path d="M53.7321 3.51921H52.5821C52.4842 3.51921 52.4005 3.5903 52.3847 3.68824L52.3341 4.00891L52.2536 3.89202C52.004 3.53027 51.4495 3.41022 50.895 3.41022C49.625 3.41022 48.5397 4.37224 48.3296 5.72286C48.2191 6.3958 48.3755 7.04031 48.7577 7.48894C49.1084 7.90123 49.6092 8.07342 50.2047 8.07342C51.2283 8.07342 51.7955 7.41627 51.7955 7.41627L51.7449 7.73537C51.7259 7.857 51.8191 7.96758 51.9424 7.96758H52.977C53.1413 7.96758 53.2803 7.84752 53.3072 7.6864L53.928 3.75143C53.947 3.62979 53.8538 3.52079 53.7306 3.52079L53.7321 3.51921ZM52.1303 5.75603C52.0198 6.41318 51.4985 6.85391 50.8334 6.85391C50.5001 6.85391 50.2332 6.74649 50.061 6.54429C49.8904 6.34367 49.8272 6.05617 49.8809 5.73708C49.9851 5.08625 50.5143 4.63131 51.1683 4.63131C51.4953 4.63131 51.7591 4.7403 51.9345 4.94408C52.1098 5.15102 52.1793 5.43852 52.1288 5.75761L52.1303 5.75603Z" fill="#009CDE"/>
<path d="M42.7315 3.51935H41.5767C41.4662 3.51935 41.3635 3.57464 41.3003 3.66626L39.7064 6.01365L39.0303 3.75788C38.9876 3.61729 38.8581 3.51935 38.7112 3.51935H37.5754C37.438 3.51935 37.3416 3.65362 37.3859 3.78473L38.6575 7.51908L37.4617 9.20776C37.3685 9.34045 37.4617 9.52369 37.6244 9.52369H38.7791C38.8881 9.52369 38.9908 9.46998 39.054 9.37994L42.8958 3.83528C42.9874 3.70259 42.8926 3.52093 42.7315 3.52093V3.51935Z" fill="#003087"/>
<path d="M55.0878 1.46731L54.1021 7.73546C54.0831 7.8571 54.1763 7.96609 54.2995 7.96609H55.29C55.4543 7.96609 55.5933 7.84604 55.6201 7.68491L56.5916 1.5305C56.6106 1.40886 56.5174 1.29987 56.3942 1.29987H55.2852C55.1873 1.29987 55.1036 1.37095 55.0878 1.46889V1.46731Z" fill="#009CDE"/>
</g>
</g>
<defs>
<clipPath id="clip0_220_1346">
<rect width="72" height="24" fill="white"/>
</clipPath>
<clipPath id="clip1_220_1346">
<rect width="71.4819" height="24" fill="white" transform="translate(0.0859375 -0.0349121)"/>
</clipPath>
</defs>
</svg>
