<svg width="24" height="24" viewBox="0 0 24 24" fill="none" xmlns="http://www.w3.org/2000/svg">
<path d="M8.51085 21.3222L8.85747 19.1205L8.08536 19.1026H4.39844L6.96066 2.85644C6.96861 2.80739 6.99446 2.76166 7.03224 2.72919C7.07001 2.69671 7.11839 2.67882 7.16876 2.67882H13.3854C15.4493 2.67882 16.8735 3.10828 17.6171 3.95595C17.9657 4.35361 18.1878 4.76915 18.2951 5.22646C18.4078 5.70629 18.4098 6.27958 18.2998 6.97879L18.2918 7.02982V7.47785L18.6404 7.67535C18.934 7.83109 19.1673 8.00938 19.3463 8.21351C19.6445 8.5535 19.8374 8.98562 19.9189 9.49793C20.0031 10.0248 19.9752 10.6518 19.8374 11.3616C19.6783 12.1781 19.4212 12.8893 19.0739 13.4712C18.7544 14.0073 18.3475 14.452 17.8643 14.7967C17.4031 15.1241 16.855 15.3726 16.2353 15.5317C15.6348 15.6881 14.9502 15.767 14.1993 15.767H13.7155C13.3695 15.767 13.0335 15.8916 12.7697 16.1149C12.5053 16.3429 12.3303 16.6544 12.2766 16.995L12.2402 17.1932L11.6278 21.0737L11.6 21.2161C11.5927 21.2612 11.5801 21.2837 11.5615 21.299C11.545 21.3129 11.5211 21.3222 11.4979 21.3222H8.51085Z" fill="#253B80"/>
<path d="M18.9707 7.08133C18.9522 7.19996 18.931 7.32125 18.9071 7.44585C18.0873 11.655 15.2825 13.1091 11.7003 13.1091H9.87639C9.4383 13.1091 9.06915 13.4272 9.00088 13.8593L8.06706 19.7818L7.80262 21.4605C7.75821 21.7442 7.97692 22 8.26324 22H11.4982C11.8812 22 12.2066 21.7216 12.267 21.3439L12.2988 21.1795L12.9078 17.3143L12.9469 17.1022C13.0066 16.7231 13.3327 16.4448 13.7157 16.4448H14.1996C17.3337 16.4448 19.7873 15.1723 20.5044 11.49C20.8039 9.95173 20.6488 8.66731 19.8562 7.76397C19.6163 7.49158 19.3187 7.26558 18.9707 7.08133Z" fill="#179BD7"/>
<path d="M18.1142 6.73909C17.9889 6.70264 17.8597 6.6695 17.7272 6.63967C17.5939 6.61051 17.4574 6.58467 17.3169 6.56213C16.8251 6.4826 16.2863 6.44482 15.7091 6.44482H10.8365C10.7165 6.44482 10.6025 6.472 10.5004 6.52104C10.2758 6.62907 10.1088 6.84182 10.0683 7.10228L9.03178 13.6676L9.00195 13.8591C9.07022 13.427 9.43937 13.1088 9.87746 13.1088H11.7014C15.2836 13.1088 18.0884 11.6541 18.9082 7.44559C18.9327 7.32099 18.9533 7.1997 18.9718 7.08107C18.7644 6.97105 18.5397 6.87694 18.2978 6.79675C18.2381 6.77687 18.1765 6.75765 18.1142 6.73909Z" fill="#222D65"/>
<path d="M10.0671 7.10257C10.1075 6.84211 10.2745 6.62936 10.4992 6.52199C10.6019 6.47295 10.7152 6.44578 10.8352 6.44578H15.7078C16.285 6.44578 16.8239 6.48355 17.3156 6.56309C17.4561 6.58562 17.5927 6.61147 17.7259 6.64063C17.8584 6.67045 17.9877 6.70359 18.1129 6.74004C18.1752 6.7586 18.2369 6.77782 18.2972 6.79704C18.5391 6.87723 18.7638 6.97201 18.9712 7.08136C19.2151 5.52587 18.9692 4.46678 18.1282 3.50777C17.201 2.452 15.5275 2 13.3861 2H7.16948C6.73206 2 6.35893 2.31812 6.29133 2.7509L3.70193 19.1641C3.6509 19.4888 3.90142 19.7818 4.22882 19.7818H8.06685L9.0305 13.6678L10.0671 7.10257Z" fill="#253B80"/>
</svg>
