<svg width="53" height="16" viewBox="0 0 53 16" fill="none" xmlns="http://www.w3.org/2000/svg">
<g clip-path="url(#clip0_220_1327)">
<g clip-path="url(#clip1_220_1327)">
<path d="M19.5905 3.96863H16.691C16.4926 3.96863 16.3239 4.1217 16.2929 4.3297L15.1202 12.2251C15.0969 12.3809 15.2105 12.5214 15.3593 12.5214H16.7436C16.942 12.5214 17.1107 12.3683 17.1417 12.1599L17.458 10.0303C17.4885 9.82189 17.6577 9.66882 17.8556 9.66882H18.7735C20.6835 9.66882 21.7858 8.68735 22.0737 6.74241C22.2034 5.8915 22.0792 5.22293 21.704 4.75471C21.2919 4.24056 20.5609 3.96863 19.5905 3.96863ZM19.925 6.85226C19.7664 7.9571 18.9715 7.9571 18.2029 7.9571H17.7653L18.0723 5.89375C18.0905 5.76904 18.1923 5.6772 18.311 5.6772H18.5115C19.0351 5.6772 19.529 5.6772 19.7842 5.99415C19.9365 6.18324 19.9831 6.46418 19.925 6.85226Z" fill="#253B80"/>
<path d="M28.2586 6.81677H26.8701C26.7518 6.81677 26.6496 6.90861 26.6314 7.03332L26.5699 7.44572L26.4729 7.29625C26.1723 6.83298 25.502 6.6781 24.833 6.6781C23.2986 6.6781 21.9882 7.91214 21.7329 9.64323C21.6002 10.5067 21.7889 11.3324 22.2502 11.9083C22.6733 12.4377 23.2787 12.6583 23.999 12.6583C25.2353 12.6583 25.9208 11.8142 25.9208 11.8142L25.859 12.2239C25.8356 12.3805 25.9493 12.521 26.0972 12.521H27.3479C27.5467 12.521 27.7146 12.3679 27.746 12.1595L28.4964 7.11301C28.5202 6.95768 28.407 6.81677 28.2586 6.81677ZM26.3232 9.68645C26.1892 10.5288 25.5596 11.0943 24.7566 11.0943C24.3535 11.0943 24.0312 10.957 23.8244 10.6967C23.6192 10.4383 23.5411 10.0705 23.6064 9.66078C23.7315 8.82563 24.3717 8.2417 25.1624 8.2417C25.5567 8.2417 25.8772 8.38082 26.0883 8.6433C26.2999 8.90847 26.3838 9.27855 26.3232 9.68645Z" fill="#253B80"/>
<path d="M35.6507 6.81653H34.2555C34.1223 6.81653 33.9973 6.88676 33.9218 7.00427L31.9974 10.0144L31.1817 7.12178C31.1304 6.94079 30.9731 6.81653 30.7951 6.81653H29.424C29.2574 6.81653 29.1416 6.98941 29.1946 7.15599L30.7315 11.9454L29.2866 14.1114C29.173 14.282 29.2875 14.5166 29.4838 14.5166H30.8773C31.0096 14.5166 31.1334 14.4481 31.2084 14.3329L35.8492 7.21947C35.9602 7.04929 35.8462 6.81653 35.6507 6.81653Z" fill="#253B80"/>
<path d="M40.2721 3.96863H37.3722C37.1742 3.96863 37.0055 4.1217 36.9746 4.3297L35.8019 12.2251C35.7786 12.3809 35.8922 12.5214 36.0401 12.5214H37.5282C37.6665 12.5214 37.7847 12.4142 37.8064 12.2684L38.1392 10.0303C38.1697 9.82189 38.3389 9.66882 38.5369 9.66882H39.4543C41.3647 9.66882 42.4666 8.68735 42.7549 6.74241C42.885 5.8915 42.76 5.22293 42.3847 4.75471C41.9731 4.24056 41.2426 3.96863 40.2721 3.96863ZM40.6066 6.85226C40.4485 7.9571 39.6536 7.9571 38.8845 7.9571H38.4474L38.7548 5.89375C38.773 5.76904 38.8739 5.6772 38.993 5.6772H39.1936C39.7167 5.6772 40.2111 5.6772 40.4663 5.99415C40.6185 6.18324 40.6647 6.46418 40.6066 6.85226Z" fill="#179BD7"/>
<path d="M48.9404 6.81689H47.5527C47.4336 6.81689 47.3323 6.90873 47.3145 7.03344L47.253 7.44584L47.1555 7.29637C46.8549 6.8331 46.185 6.67822 45.516 6.67822C43.9817 6.67822 42.6716 7.91227 42.4164 9.64335C42.2841 10.5069 42.472 11.3326 42.9332 11.9084C43.3572 12.4378 43.9618 12.6584 44.6821 12.6584C45.9184 12.6584 46.6039 11.8143 46.6039 11.8143L46.542 12.224C46.5187 12.3807 46.6323 12.5211 46.7811 12.5211H48.0314C48.2294 12.5211 48.3981 12.3681 48.4291 12.1596L49.1799 7.11313C49.2028 6.95781 49.0892 6.81689 48.9404 6.81689ZM47.005 9.68657C46.8718 10.5289 46.2414 11.0944 45.4384 11.0944C45.0361 11.0944 44.713 10.9571 44.5061 10.6969C44.3009 10.4384 44.2238 10.0706 44.2882 9.66091C44.4141 8.82576 45.0535 8.24182 45.8442 8.24182C46.2384 8.24182 46.559 8.38094 46.7701 8.64342C46.9825 8.90859 47.0664 9.27867 47.005 9.68657Z" fill="#179BD7"/>
<path d="M50.5759 4.18539L49.3859 12.2254C49.3625 12.3811 49.4762 12.5216 49.6241 12.5216H50.8205C51.0194 12.5216 51.1881 12.3685 51.2186 12.1601L52.3922 4.26508C52.4155 4.1093 52.3019 3.96838 52.1539 3.96838H50.8142C50.6959 3.96883 50.5942 4.06068 50.5759 4.18539Z" fill="#179BD7"/>
<path d="M3.08186 14.0561L3.3036 12.5604L2.80968 12.5483H0.451172L2.09021 1.51214C2.0953 1.47882 2.11184 1.44776 2.136 1.4257C2.16017 1.40364 2.19112 1.39148 2.22334 1.39148H6.20011C7.52033 1.39148 8.43143 1.68322 8.90712 2.25905C9.13012 2.52918 9.27215 2.81146 9.34083 3.12211C9.4129 3.44807 9.41418 3.83751 9.3438 4.31248L9.33871 4.34715V4.6515L9.56172 4.78566C9.74953 4.89146 9.89877 5.01257 10.0132 5.15124C10.204 5.3822 10.3274 5.67574 10.3795 6.02376C10.4334 6.38168 10.4156 6.80758 10.3274 7.28977C10.2256 7.84443 10.0611 8.32751 9.83899 8.7228C9.63464 9.08703 9.37432 9.38912 9.06526 9.62324C8.77018 9.84564 8.41956 10.0145 8.02315 10.1225C7.63904 10.2288 7.20109 10.2824 6.72074 10.2824H6.41125C6.18994 10.2824 5.97499 10.367 5.80625 10.5187C5.63709 10.6736 5.52516 10.8852 5.49082 11.1166L5.4675 11.2512L5.07576 13.8872L5.05796 13.984C5.05329 14.0146 5.04524 14.03 5.03337 14.0403C5.02277 14.0498 5.0075 14.0561 4.99267 14.0561H3.08186Z" fill="#253B80"/>
<path d="M9.77092 4.38196C9.75905 4.46255 9.74549 4.54494 9.73022 4.62958C9.20578 7.4889 7.41157 8.47668 5.12005 8.47668H3.9533C3.67306 8.47668 3.43691 8.69278 3.39325 8.98632L2.79588 13.0095L2.62672 14.1499C2.59832 14.3425 2.73822 14.5163 2.92138 14.5163H4.99074C5.23579 14.5163 5.44396 14.3272 5.48254 14.0706L5.50289 13.959L5.89251 11.3333L5.91752 11.1892C5.95568 10.9317 6.16427 10.7426 6.40932 10.7426H6.71881C8.72373 10.7426 10.2932 9.8782 10.752 7.3768C10.9436 6.33185 10.8444 5.45933 10.3373 4.84568C10.1839 4.66064 9.9935 4.50712 9.77092 4.38196Z" fill="#179BD7"/>
<path d="M9.22165 4.14997C9.14152 4.12521 9.05885 4.1027 8.97405 4.08244C8.88884 4.06263 8.8015 4.04507 8.71162 4.02976C8.39704 3.97574 8.05236 3.95007 7.68308 3.95007H4.56611C4.48937 3.95007 4.41645 3.96853 4.35116 4.00185C4.20744 4.07523 4.1006 4.21975 4.07473 4.39669L3.41166 8.85653L3.39258 8.98664C3.43625 8.6931 3.67239 8.477 3.95263 8.477H5.11938C7.4109 8.477 9.20511 7.48877 9.72955 4.6299C9.74524 4.54526 9.75838 4.46287 9.77026 4.38228C9.63756 4.30755 9.49383 4.24361 9.33909 4.18914C9.30093 4.17563 9.2615 4.16258 9.22165 4.14997Z" fill="#222D65"/>
<path d="M4.07598 4.39639C4.10184 4.21946 4.20868 4.07494 4.3524 4.002C4.41812 3.96869 4.49061 3.95023 4.56735 3.95023H7.68433C8.0536 3.95023 8.39828 3.97589 8.71286 4.02992C8.80274 4.04522 8.89008 4.06278 8.9753 4.08259C9.06009 4.10285 9.14276 4.12536 9.22289 4.15012C9.26274 4.16273 9.30217 4.17579 9.34075 4.18884C9.4955 4.24332 9.63922 4.3077 9.77192 4.38199C9.92794 3.32533 9.77065 2.60588 9.23264 1.95442C8.63952 1.23722 7.56901 0.930176 6.19918 0.930176H2.22241C1.94259 0.930176 1.7039 1.14628 1.66066 1.44027L0.00423489 12.5899C-0.0284103 12.8105 0.131848 13.0095 0.341286 13.0095H2.79646L3.4129 8.85624L4.07598 4.39639Z" fill="#253B80"/>
</g>
</g>
<defs>
<clipPath id="clip0_220_1327">
<rect width="52.5714" height="16" fill="white"/>
</clipPath>
<clipPath id="clip1_220_1327">
<rect width="52.5714" height="14.8571" fill="white" transform="translate(0 0.930054)"/>
</clipPath>
</defs>
</svg>
