<svg width="24" height="24" viewBox="0 0 24 24" fill="none" xmlns="http://www.w3.org/2000/svg">
<g clip-path="url(#clip0_220_1313)">
<path d="M2.88194 16.8692H1.01521C0.887466 16.8692 0.77883 16.962 0.758904 17.0881L0.00391284 21.8749C-0.0110996 21.9693 0.0620519 22.0545 0.157859 22.0545H1.04905C1.1768 22.0545 1.28543 21.9617 1.30536 21.8353L1.50898 20.5442C1.52864 20.4178 1.63754 20.325 1.76501 20.325H2.35596C3.58562 20.325 4.2953 19.73 4.48064 18.5508C4.56416 18.035 4.48418 17.6296 4.24262 17.3457C3.97731 17.034 3.50674 16.8692 2.88194 16.8692ZM3.0973 18.6174C2.99522 19.2873 2.48343 19.2873 1.98856 19.2873H1.70687L1.90449 18.0363C1.91623 17.9607 1.98174 17.905 2.05817 17.905H2.18727C2.52437 17.905 2.84236 17.905 3.00668 18.0972C3.10467 18.2118 3.1347 18.3821 3.0973 18.6174Z" fill="#253B80"/>
<path d="M8.46243 18.5958H7.56851C7.49235 18.5958 7.42657 18.6515 7.41483 18.7271L7.37525 18.9771L7.31275 18.8865C7.11922 18.6057 6.68768 18.5118 6.25696 18.5118C5.26914 18.5118 4.42544 19.2599 4.26112 20.3094C4.17568 20.833 4.29715 21.3336 4.59412 21.6827C4.86653 22.0037 5.25631 22.1374 5.72006 22.1374C6.51599 22.1374 6.95736 21.6256 6.95736 21.6256L6.91751 21.874C6.9025 21.969 6.97565 22.0542 7.07091 22.0542H7.87612C8.00414 22.0542 8.11223 21.9614 8.13243 21.835L8.61556 18.7754C8.63084 18.6813 8.55796 18.5958 8.46243 18.5958ZM7.21639 20.3356C7.13014 20.8463 6.7248 21.1892 6.20783 21.1892C5.94825 21.1892 5.7408 21.1059 5.6076 20.9481C5.47549 20.7915 5.42527 20.5685 5.4673 20.3201C5.54782 19.8137 5.95999 19.4597 6.46904 19.4597C6.72289 19.4597 6.92925 19.5441 7.06518 19.7032C7.20138 19.864 7.25543 20.0883 7.21639 20.3356Z" fill="#253B80"/>
<path d="M13.2235 18.596H12.3252C12.2395 18.596 12.159 18.6386 12.1104 18.7098L10.8715 20.5348L10.3463 18.781C10.3133 18.6713 10.212 18.596 10.0974 18.596H9.21462C9.10735 18.596 9.03283 18.7008 9.06695 18.8018L10.0564 21.7055L9.12618 23.0187C9.05303 23.1221 9.12673 23.2643 9.25311 23.2643H10.1503C10.2355 23.2643 10.3152 23.2228 10.3635 23.153L13.3512 18.8403C13.4228 18.7371 13.3493 18.596 13.2235 18.596Z" fill="#253B80"/>
<path d="M16.1964 16.8692H14.3294C14.2019 16.8692 14.0933 16.962 14.0734 17.0881L13.3184 21.8749C13.3034 21.9693 13.3765 22.0545 13.4718 22.0545H14.4298C14.5188 22.0545 14.595 21.9895 14.6089 21.9011L14.8232 20.5442C14.8428 20.4178 14.9517 20.325 15.0792 20.325H15.6699C16.8998 20.325 17.6092 19.73 17.7948 18.5508C17.8786 18.035 17.7981 17.6296 17.5565 17.3457C17.2915 17.034 16.8212 16.8692 16.1964 16.8692ZM16.4118 18.6174C16.3099 19.2873 15.7982 19.2873 15.303 19.2873H15.0216L15.2195 18.0363C15.2312 17.9607 15.2962 17.905 15.3729 17.905H15.502C15.8388 17.905 16.1571 17.905 16.3214 18.0972C16.4194 18.2118 16.4492 18.3821 16.4118 18.6174Z" fill="#179BD7"/>
<path d="M21.7757 18.5958H20.8823C20.8056 18.5958 20.7404 18.6515 20.7289 18.7271L20.6894 18.9771L20.6266 18.8865C20.4331 18.6057 20.0018 18.5118 19.5711 18.5118C18.5832 18.5118 17.7398 19.2599 17.5755 20.3094C17.4903 20.833 17.6113 21.3336 17.9082 21.6827C18.1812 22.0037 18.5704 22.1374 19.0342 22.1374C19.8301 22.1374 20.2715 21.6256 20.2715 21.6256L20.2316 21.874C20.2166 21.969 20.2898 22.0542 20.3856 22.0542H21.1905C21.318 22.0542 21.4266 21.9614 21.4465 21.835L21.9299 18.7754C21.9447 18.6813 21.8715 18.5958 21.7757 18.5958ZM20.5297 20.3356C20.444 20.8463 20.0381 21.1892 19.5211 21.1892C19.2621 21.1892 19.0541 21.1059 18.9209 20.9481C18.7888 20.7915 18.7391 20.5685 18.7806 20.3201C18.8617 19.8137 19.2733 19.4597 19.7823 19.4597C20.0362 19.4597 20.2425 19.5441 20.3785 19.7032C20.5152 19.864 20.5693 20.0883 20.5297 20.3356Z" fill="#179BD7"/>
<path d="M22.8306 17.0005L22.0645 21.8749C22.0494 21.9694 22.1226 22.0545 22.2179 22.0545H22.9881C23.1162 22.0545 23.2248 21.9617 23.2444 21.8353L24 17.0488C24.015 16.9544 23.9418 16.8689 23.8466 16.8689H22.984C22.9079 16.8692 22.8424 16.9249 22.8306 17.0005Z" fill="#179BD7"/>
<path d="M10.7201 14.2997L10.96 12.7754L10.4255 12.763H7.87305L9.64688 1.51579C9.65238 1.48183 9.67028 1.45018 9.69643 1.42769C9.72258 1.40521 9.75608 1.39282 9.79095 1.39282H14.0948C15.5235 1.39282 16.5096 1.69014 17.0244 2.27698C17.2657 2.55228 17.4194 2.83997 17.4938 3.15656C17.5718 3.48875 17.5731 3.88564 17.497 4.3697L17.4915 4.40503V4.7152L17.7328 4.85193C17.9361 4.95975 18.0976 5.08318 18.2215 5.2245C18.4279 5.45987 18.5614 5.75903 18.6179 6.1137C18.6762 6.47847 18.6569 6.91252 18.5614 7.40393C18.4513 7.9692 18.2733 8.46153 18.0329 8.86438C17.8117 9.23557 17.53 9.54344 17.1955 9.78203C16.8762 10.0087 16.4967 10.1808 16.0677 10.2909C15.652 10.3992 15.178 10.4538 14.6582 10.4538H14.3233C14.0837 10.4538 13.8511 10.54 13.6685 10.6946C13.4854 10.8525 13.3643 11.0681 13.3271 11.304L13.3019 11.4412L12.8779 14.1276L12.8587 14.2262C12.8536 14.2574 12.8449 14.273 12.8321 14.2836C12.8206 14.2932 12.8041 14.2997 12.788 14.2997H10.7201Z" fill="#253B80"/>
<path d="M17.9623 4.44067C17.9494 4.5228 17.9347 4.60677 17.9182 4.69303C17.3506 7.60705 15.4089 8.61371 12.9289 8.61371H11.6662C11.3629 8.61371 11.1074 8.83395 11.0601 9.13311L10.4136 13.2332L10.2305 14.3954C10.1998 14.5918 10.3512 14.7689 10.5494 14.7689H12.789C13.0542 14.7689 13.2795 14.5762 13.3212 14.3147L13.3432 14.2009L13.7649 11.525L13.792 11.3782C13.8333 11.1157 14.059 10.923 14.3242 10.923H14.6591C16.8289 10.923 18.5275 10.042 19.024 7.4928C19.2314 6.42786 19.124 5.53865 18.5752 4.91327C18.4091 4.72469 18.2031 4.56823 17.9623 4.44067Z" fill="#179BD7"/>
<path d="M17.369 4.20372C17.2823 4.17848 17.1928 4.15554 17.101 4.1349C17.0088 4.11471 16.9143 4.09681 16.817 4.08121C16.4766 4.02615 16.1035 4 15.7039 4H12.3306C12.2475 4 12.1686 4.01881 12.098 4.05277C11.9424 4.12755 11.8268 4.27484 11.7988 4.45516L11.0812 9.00031L11.0605 9.13291C11.1078 8.83375 11.3634 8.61351 11.6667 8.61351H12.9294C15.4093 8.61351 17.3511 7.60639 17.9186 4.69283C17.9356 4.60657 17.9499 4.52261 17.9627 4.44047C17.8191 4.36431 17.6635 4.29916 17.4961 4.24364C17.4548 4.22987 17.4121 4.21657 17.369 4.20372Z" fill="#222D65"/>
<path d="M11.7979 4.45537C11.8259 4.27505 11.9415 4.12777 12.097 4.05344C12.1682 4.01948 12.2466 4.00067 12.3297 4.00067H15.703C16.1026 4.00067 16.4756 4.02682 16.8161 4.08188C16.9134 4.09748 17.0079 4.11538 17.1001 4.13557C17.1919 4.15621 17.2813 4.17915 17.3681 4.20439C17.4112 4.21724 17.4539 4.23054 17.4956 4.24385C17.6631 4.29937 17.8186 4.36498 17.9622 4.44069C18.1311 3.36382 17.9609 2.63061 17.3786 1.96669C16.7367 1.23577 15.5782 0.922852 14.0957 0.922852H9.79189C9.48906 0.922852 9.23074 1.14309 9.18394 1.4427L7.3913 12.8056C7.35597 13.0304 7.52941 13.2332 7.75607 13.2332H10.4131L11.0803 9.00052L11.7979 4.45537Z" fill="#253B80"/>
</g>
<defs>
<clipPath id="clip0_220_1313">
<rect width="24.0001" height="24" fill="white"/>
</clipPath>
</defs>
</svg>
