<svg width="38" height="13" viewBox="0 0 38 13" fill="none" xmlns="http://www.w3.org/2000/svg">
<g clip-path="url(#clip0_220_1289)">
<path d="M14.4277 0.229777L9.4527 12.8033H6.20686L3.75883 2.76906C3.6102 2.15101 3.48096 1.92459 3.02892 1.6642C2.29108 1.24008 1.07231 0.842375 0 0.595407L0.0728333 0.229777H5.29764C5.96363 0.229777 6.56232 0.699394 6.71353 1.51179L8.00652 8.7875L11.2021 0.229777H14.4277ZM27.1457 8.69818C27.1587 5.37963 22.8137 5.19681 22.8435 3.71438C22.8528 3.26321 23.2584 2.78353 24.146 2.66109C24.586 2.60008 25.7982 2.55354 27.1732 3.22379L27.7125 0.55746C26.9737 0.273384 26.0231 0 24.8403 0C21.8053 0 19.6694 1.70907 19.6513 4.15632C19.6318 5.96644 21.1759 6.97654 22.3392 7.57802C23.5361 8.19398 23.9376 8.58979 23.9331 9.14076C23.9246 9.98418 22.9785 10.3565 22.0944 10.3712C20.5511 10.3964 19.6555 9.92883 18.9416 9.57725L18.3851 12.3318C19.1025 12.6805 20.4268 12.9847 21.7997 13C25.0256 13 27.1358 11.3121 27.1457 8.69818ZM35.1601 12.8036H38L35.5211 0.229777H32.8999C32.3105 0.229777 31.8133 0.59331 31.5932 1.15224L26.9855 12.8033H30.2098L30.8501 10.9251H34.7896L35.1603 12.8033L35.1601 12.8036ZM31.734 8.34828L33.3501 3.62737L34.2804 8.34828H31.7342H31.734ZM18.8151 0.229777L16.2761 12.8033H13.2056L15.7457 0.229777H18.8151Z" fill="#1434CB"/>
</g>
<defs>
<clipPath id="clip0_220_1289">
<rect width="38" height="13" fill="white"/>
</clipPath>
</defs>
</svg>
