<svg width="28" height="28" viewBox="0 0 28 28" fill="none" xmlns="http://www.w3.org/2000/svg">
<g clip-path="url(#clip0_220_1417)">
<path d="M27.8086 0H-0.191406V28H27.8086V0Z" fill="white"/>
<path d="M27.8086 14H-0.191406V28H27.8086V14Z" fill="#1434CB"/>
<path d="M10.9598 3.91489L8.32388 10.2022H6.60429L5.30752 5.18479C5.22833 4.87651 5.16045 4.76337 4.92146 4.63186C4.52974 4.41974 3.88489 4.22034 3.31641 4.09731L3.35459 3.91489H6.12206C6.47418 3.91489 6.79237 4.14964 6.87297 4.5555L7.55742 8.19408L9.25014 3.91489H10.9584H10.9598ZM17.6968 8.15024C17.7039 6.49146 15.4031 6.39954 15.4186 5.65711C15.4243 5.43226 15.6378 5.19186 16.1087 5.13105C16.3421 5.10135 16.9841 5.07731 17.7124 5.41246L17.998 4.07893C17.6063 3.93752 17.1029 3.80176 16.4764 3.80176C14.8685 3.80176 13.7372 4.6559 13.7273 5.88055C13.7174 6.7856 14.5348 7.29044 15.1514 7.59166C15.7863 7.89994 15.9984 8.09792 15.9956 8.37226C15.9914 8.79368 15.4893 8.98034 15.0227 8.98741C14.2039 9.00014 13.7301 8.76681 13.3526 8.59004L13.057 9.96883C13.4374 10.1428 14.1388 10.2941 14.8657 10.3026C16.5754 10.3026 17.6926 9.45832 17.6982 8.15166M21.9449 10.205H23.4495L22.1358 3.91772H20.7485C20.436 3.91772 20.173 4.09873 20.0556 4.37873L17.6148 10.205H19.3231L19.6625 9.266H21.7497L21.9463 10.205H21.9449ZM20.1291 7.97772L20.9861 5.6161L21.4782 7.97772H20.1291ZM13.2861 3.91772L11.9413 10.205H10.315L11.6598 3.91772H13.2861Z" fill="#1434CB"/>
<path d="M5.65692 20.1824C5.65692 19.9816 5.705 19.8119 5.80258 19.6733C5.90015 19.5348 6.03308 19.4287 6.20137 19.358C6.36965 19.2873 6.55914 19.2519 6.77127 19.2519C7.00743 19.2519 7.19551 19.2745 7.33692 19.3212C7.47692 19.3679 7.58581 19.4131 7.66076 19.4612L7.69894 19.9873H7.68622C7.61692 19.9293 7.53066 19.877 7.43026 19.8331C7.32844 19.7893 7.22096 19.7525 7.10642 19.7271C6.99187 19.7002 6.88015 19.6875 6.76844 19.6875C6.59308 19.6875 6.45167 19.7158 6.34278 19.7723C6.23389 19.8289 6.18015 19.9293 6.18015 20.0707C6.18015 20.1796 6.20561 20.2644 6.25793 20.3253C6.30884 20.3861 6.38662 20.437 6.48985 20.4752C6.59308 20.5148 6.72036 20.5543 6.87308 20.5968C7.01733 20.6364 7.15308 20.676 7.28036 20.7156C7.40622 20.7566 7.51793 20.8089 7.61268 20.8739C7.70743 20.939 7.78096 21.0253 7.83611 21.1327C7.88985 21.2402 7.91813 21.3774 7.91813 21.5442C7.91813 21.8667 7.81349 22.1141 7.60278 22.2853C7.39207 22.4564 7.09793 22.5412 6.72036 22.5412C6.53086 22.5412 6.34137 22.5158 6.14904 22.4634C5.95672 22.4111 5.80116 22.3432 5.68238 22.257L5.64844 21.7267H5.66116C5.79975 21.844 5.96662 21.936 6.16177 22.0024C6.35692 22.0689 6.55207 22.1028 6.75005 22.1028C7.17005 22.1028 7.37935 21.9586 7.37935 21.6687C7.37935 21.5655 7.35531 21.482 7.30864 21.4184C7.26197 21.3548 7.18419 21.301 7.07955 21.2572C6.97349 21.2148 6.83632 21.1709 6.66662 21.1257C6.53369 21.0903 6.40642 21.0507 6.28763 21.0083C6.16743 20.9659 6.06137 20.9121 5.96662 20.8457C5.87187 20.7792 5.79834 20.6929 5.74319 20.5869C5.68945 20.4808 5.66116 20.3465 5.66116 20.1824H5.65692Z" fill="white"/>
<path d="M8.33203 22.4815V19.311H10.3755V19.7706H8.89062V20.6177H10.0629V21.0603H8.89062V22.0233H10.3755V22.4829H8.33203V22.4815Z" fill="white"/>
<path d="M11.219 20.8966C11.219 21.1356 11.2628 21.3449 11.3505 21.5216C11.4382 21.6998 11.5641 21.837 11.7281 21.9345C11.8921 22.0321 12.0901 22.0802 12.3206 22.0802C12.5511 22.0802 12.7534 22.0449 12.9089 21.9741C13.0645 21.9034 13.2002 21.8101 13.3176 21.697H13.3303L13.2723 22.2513C13.1493 22.3348 13.0051 22.404 12.8382 22.4578C12.6713 22.5115 12.4762 22.5398 12.2542 22.5398C12.0039 22.5398 11.779 22.4974 11.581 22.4125C11.3816 22.3277 11.2119 22.2103 11.0719 22.0618C10.9319 21.9133 10.8245 21.738 10.7509 21.5386C10.6774 21.3378 10.6406 21.1242 10.6406 20.8966C10.6406 20.6689 10.6774 20.4511 10.7509 20.2517C10.8245 20.0523 10.9319 19.8784 11.0719 19.7299C11.2119 19.5814 11.3816 19.464 11.5782 19.3792C11.7762 19.2943 11.9982 19.2519 12.2457 19.2519C12.4677 19.2519 12.66 19.2745 12.8212 19.3212C12.9824 19.3679 13.1196 19.4329 13.2342 19.5192L13.2921 20.0863H13.2794C13.162 19.9717 13.0249 19.8812 12.8665 19.8133C12.7081 19.7455 12.5228 19.7115 12.3121 19.7115C12.0816 19.7115 11.8851 19.7596 11.7224 19.8572C11.5598 19.9548 11.4354 20.0919 11.3491 20.2701C11.2628 20.4483 11.2204 20.6562 11.2204 20.8952L11.219 20.8966Z" fill="white"/>
<path d="M15.1011 22.0643C15.3882 22.0643 15.5961 22.0021 15.7262 21.8791C15.8563 21.7546 15.9227 21.5453 15.9227 21.247V19.311H16.3894V21.2752C16.3894 21.7207 16.2777 22.0417 16.0528 22.2411C15.8294 22.4405 15.5027 22.5395 15.0742 22.5395C14.6458 22.5395 14.3177 22.4405 14.0815 22.2439C13.8454 22.046 13.7266 21.7235 13.7266 21.2767V19.3124H14.2851V21.2357C14.2851 21.5326 14.3488 21.7462 14.4746 21.8734C14.6005 22.0007 14.8084 22.0658 15.0983 22.0658L15.1011 22.0643Z" fill="white"/>
<path d="M16.9297 22.4815V19.311H18.2689C18.4768 19.311 18.6578 19.352 18.8091 19.4354C18.9604 19.5189 19.0764 19.6334 19.157 19.7791C19.2376 19.9247 19.2786 20.0902 19.2786 20.274C19.2786 20.4904 19.2192 20.6799 19.099 20.8411C18.9788 21.0023 18.8162 21.1098 18.6111 21.1621L19.4242 22.4801H18.7822L18.0483 21.2371H17.4897V22.4801H16.9311L16.9297 22.4815ZM18.119 19.7536H17.4883V20.8213H18.119C18.3212 20.8213 18.4683 20.7775 18.5588 20.6898C18.6493 20.6021 18.6945 20.4678 18.6945 20.2868C18.6945 20.1058 18.6493 19.9714 18.5588 19.8837C18.4683 19.7961 18.3212 19.7522 18.119 19.7522V19.7536Z" fill="white"/>
<path d="M19.8438 22.4815V19.311H21.8886V19.7706H20.4037V20.6177H21.5761V21.0603H20.4037V22.0233H21.8886V22.4829H19.8438V22.4815Z" fill="white"/>
</g>
<defs>
<clipPath id="clip0_220_1417">
<rect width="28" height="28" fill="white"/>
</clipPath>
</defs>
</svg>
