<svg width="20" height="20" viewBox="0 0 20 20" fill="none" xmlns="http://www.w3.org/2000/svg">
<path d="M10 11C7.33333 11 2 12.3396 2 15L2 18L18 18L18 15C18 12.3396 12.6667 11 10 11ZM16.1004 16.1004L3.90044 16.1004L3.90044 15C3.90044 14.36 7.03022 12.8996 10 12.8996C12.9698 12.8996 16.1004 14.36 16.1004 15L16.1004 16.1004ZM10 10C10.7911 10 11.5645 9.76541 12.2223 9.32588C12.8801 8.88636 13.3928 8.26164 13.6955 7.53074C13.9983 6.79983 14.0775 5.99557 13.9231 5.21964C13.7688 4.44372 13.3878 3.73099 12.8284 3.17158C12.269 2.61217 11.5563 2.2312 10.7804 2.07686C10.0044 1.92252 9.20017 2.00173 8.46927 2.30448C7.73836 2.60724 7.11365 3.11992 6.67412 3.77772C6.2346 4.43552 6 5.20888 6 6C6 7.06087 6.42143 8.07828 7.17157 8.82843C7.92172 9.57858 8.93913 10 10 10ZM10 3.90045C10.4152 3.90062 10.8211 4.02391 11.1662 4.25472C11.5114 4.48553 11.7803 4.8135 11.9391 5.19715C12.0979 5.58081 12.1393 6.00294 12.0582 6.41015C11.9771 6.81737 11.7771 7.19139 11.4834 7.48493C11.1897 7.77847 10.8156 7.97834 10.4084 8.05928C10.0011 8.14022 9.57903 8.09859 9.19544 7.93965C8.81185 7.78072 8.48399 7.51161 8.25333 7.16636C8.02267 6.82111 7.89955 6.41522 7.89955 6C7.89956 5.72421 7.95389 5.45112 8.05946 5.19633C8.16503 4.94154 8.31976 4.71005 8.51481 4.51508C8.70987 4.32011 8.94143 4.16547 9.19626 4.06001C9.45109 3.95455 9.72421 3.90033 10 3.90045Z" fill="#222222"/>
</svg>
