<svg width="20" height="20" viewBox="0 0 20 20" fill="none" xmlns="http://www.w3.org/2000/svg">
<path d="M2 15C2 12.3396 7.33333 11 10 11C12.6667 11 18 12.3396 18 15L18 18L2 18L2 15Z" fill="#222222"/>
<path d="M12.2223 9.32588C11.5645 9.76541 10.7911 10 10 10C8.93913 10 7.92172 9.57858 7.17157 8.82843C6.42143 8.07828 6 7.06087 6 6C6 5.20888 6.2346 4.43552 6.67412 3.77772C7.11365 3.11992 7.73836 2.60724 8.46927 2.30448C9.20017 2.00173 10.0044 1.92252 10.7804 2.07686C11.5563 2.2312 12.269 2.61217 12.8284 3.17158C13.3878 3.73099 13.7688 4.44372 13.9231 5.21964C14.0775 5.99557 13.9983 6.79983 13.6955 7.53074C13.3928 8.26164 12.8801 8.88636 12.2223 9.32588Z" fill="#222222"/>
</svg>
