<svg width="20" height="20" viewBox="0 0 20 20" fill="none" xmlns="http://www.w3.org/2000/svg">
<path d="M8.12518 13.7502H13.7505M17.5006 4.37473V15.6253C17.5006 16.1226 17.3031 16.5995 16.9514 16.9512C16.5998 17.3028 16.1229 17.5004 15.6255 17.5004H6.25009C5.75279 17.5004 5.27585 17.3028 4.9242 16.9512C4.57255 16.5995 4.375 16.1226 4.375 15.6253V4.37473C4.375 3.87742 4.57255 3.40048 4.9242 3.04884C5.27585 2.69719 5.75279 2.49963 6.25009 2.49963H15.6255C16.1229 2.49963 16.5998 2.69719 16.9514 3.04884C17.3031 3.40048 17.5006 3.87742 17.5006 4.37473Z" stroke="#222222" stroke-width="1.5" stroke-linecap="round" stroke-linejoin="round"/>
<path d="M2.5 6.24994H5.31264M2.5 10.0001H5.31264M2.5 13.7503H5.31264M9.06282 9.06258C9.06282 9.55988 9.26037 10.0368 9.61202 10.3885C9.96367 10.7401 10.4406 10.9377 10.9379 10.9377C11.4352 10.9377 11.9122 10.7401 12.2638 10.3885C12.6154 10.0368 12.813 9.55988 12.813 9.06258C12.813 8.56527 12.6154 8.08833 12.2638 7.73669C11.9122 7.38504 11.4352 7.18748 10.9379 7.18748C10.4406 7.18748 9.96367 7.38504 9.61202 7.73669C9.26037 8.08833 9.06282 8.56527 9.06282 9.06258Z" stroke="#222222" stroke-width="1.5" stroke-linecap="round" stroke-linejoin="round"/>
</svg>
