<svg width="20" height="20" viewBox="0 0 20 20" fill="none" xmlns="http://www.w3.org/2000/svg">
<path fill-rule="evenodd" clip-rule="evenodd" d="M7.2848 4.34814C8.14574 3.99153 9.06848 3.80798 10.0003 3.80798C10.9322 3.80798 11.855 3.99153 12.7159 4.34814C13.5768 4.70474 14.3591 5.22743 15.018 5.88636C15.6769 6.54529 16.1996 7.32754 16.5562 8.18847C16.9128 9.0494 17.0964 9.97214 17.0964 10.904C17.0964 11.8359 16.9128 12.7586 16.5562 13.6195C16.1996 14.4805 15.6769 15.2627 15.018 15.9216C14.3591 16.5806 13.5768 17.1033 12.7159 17.4599C11.855 17.8165 10.9322 18 10.0003 18C9.06848 18 8.14574 17.8165 7.2848 17.4599C6.42387 17.1033 5.64161 16.5806 4.98268 15.9216C4.32375 15.2627 3.80106 14.4805 3.44445 13.6195C3.08784 12.7586 2.9043 11.8359 2.9043 10.904C2.9043 9.97214 3.08784 9.0494 3.44445 8.18847C3.80106 7.32755 4.32375 6.54529 4.98268 5.88636C5.64161 5.22743 6.42387 4.70474 7.2848 4.34814ZM10.0003 5.3447C9.27028 5.3447 8.54737 5.4885 7.87288 5.76788C7.19839 6.04726 6.58554 6.45675 6.06931 6.97298C5.55308 7.48921 5.14358 8.10207 4.8642 8.77655C4.58482 9.45104 4.44102 10.1739 4.44102 10.904C4.44102 11.6341 4.58482 12.357 4.8642 13.0315C5.14358 13.7059 5.55308 14.3188 6.06931 14.835C6.58554 15.3513 7.19839 15.7607 7.87288 16.0401C8.54737 16.3195 9.27028 16.4633 10.0003 16.4633C10.7304 16.4633 11.4533 16.3195 12.1278 16.0401C12.8023 15.7607 13.4151 15.3513 13.9314 14.835C14.4476 14.3188 14.8571 13.7059 15.1365 13.0315C15.4159 12.357 15.5597 11.6341 15.5597 10.904C15.5597 10.1739 15.4159 9.45104 15.1365 8.77655C14.8571 8.10207 14.4476 7.48921 13.9314 6.97298C13.4151 6.45675 12.8023 6.04726 12.1278 5.76788C11.4533 5.4885 10.7304 5.3447 10.0003 5.3447Z" fill="#222222"/>
<path fill-rule="evenodd" clip-rule="evenodd" d="M6.10226 2.31649C6.35185 2.65968 6.27597 3.14022 5.93278 3.38981L3.44691 5.19772C3.10372 5.44731 2.62317 5.37143 2.37358 5.02824C2.12398 4.68505 2.19986 4.20451 2.54305 3.95492L5.02893 2.14701C5.37212 1.89742 5.85266 1.9733 6.10226 2.31649ZM13.899 2.31649C14.1486 1.9733 14.6291 1.89742 14.9723 2.14701L17.4582 3.95492C17.8014 4.20451 17.8773 4.68505 17.6277 5.02824C17.3781 5.37143 16.8975 5.44731 16.5544 5.19772L14.0685 3.38981C13.7253 3.14022 13.6494 2.65968 13.899 2.31649ZM10.0006 7.42376C10.425 7.42376 10.769 7.76777 10.769 8.19212V10.1356H11.8085C12.2329 10.1356 12.5769 10.4796 12.5769 10.904C12.5769 11.3283 12.2329 11.6723 11.8085 11.6723H10.0006C9.57628 11.6723 9.23227 11.3283 9.23227 10.904V8.19212C9.23227 7.76777 9.57628 7.42376 10.0006 7.42376Z" fill="#222222"/>
</svg>
