<svg width="20" height="20" viewBox="0 0 20 20" fill="none" xmlns="http://www.w3.org/2000/svg">
<path d="M13.6328 5.48503C13.6685 5.68727 13.6248 5.88228 13.5017 6.07005C13.3781 6.25752 13.2152 6.36909 13.013 6.40475L7.60756 7.35788L14.8583 12.4349C15.0421 12.5636 15.1527 12.7339 15.19 12.9457C15.2273 13.1567 15.1815 13.3542 15.0528 13.538C14.9241 13.7219 14.754 13.8326 14.5426 13.8703C14.3311 13.9072 14.1335 13.8613 13.9496 13.7325L6.69892 8.65554L7.65205 14.061C7.68771 14.2632 7.63858 14.4545 7.50467 14.6347C7.37032 14.8146 7.20203 14.9223 6.99978 14.958C6.79754 14.9937 6.6045 14.9471 6.42066 14.8184C6.23683 14.6897 6.12708 14.5242 6.09142 14.3219L4.80762 7.04115C4.78059 6.94165 4.78177 6.84191 4.81116 6.74194C4.84128 6.64184 4.88663 6.54854 4.94721 6.46203C5.00778 6.37552 5.07798 6.3038 5.1578 6.24688C5.23806 6.19027 5.33335 6.15223 5.44366 6.13278L12.7245 4.84898C12.9267 4.81332 13.1197 4.85985 13.3036 4.98857C13.4874 5.1173 13.5972 5.28278 13.6328 5.48503Z" fill="#222222"/>
</svg>
