<svg width="20" height="20" viewBox="0 0 20 20" fill="none" xmlns="http://www.w3.org/2000/svg">
<path d="M13.6328 14.515C13.6685 14.3127 13.6248 14.1177 13.5017 13.9299C13.3781 13.7425 13.2152 13.6309 13.013 13.5952L7.60756 12.6421L14.8583 7.56512C15.0421 7.4364 15.1527 7.26613 15.19 7.05433C15.2273 6.84326 15.1815 6.64581 15.0528 6.46197C14.9241 6.27813 14.754 6.16739 14.5426 6.12974C14.3311 6.09283 14.1335 6.13873 13.9496 6.26745L6.69892 11.3445L7.65205 5.93902C7.68771 5.73677 7.63858 5.54555 7.50467 5.36535C7.37032 5.18545 7.20203 5.07767 6.99978 5.04201C6.79754 5.00635 6.6045 5.05288 6.42066 5.1816C6.23683 5.31033 6.12708 5.47581 6.09142 5.67805L4.80762 12.9589C4.78059 13.0584 4.78177 13.1581 4.81116 13.2581C4.84128 13.3582 4.88663 13.4515 4.94721 13.538C5.00778 13.6245 5.07798 13.6962 5.1578 13.7531C5.23806 13.8097 5.33335 13.8478 5.44366 13.8672L12.7245 15.151C12.9267 15.1867 13.1197 15.1401 13.3036 15.0114C13.4874 14.8827 13.5972 14.7172 13.6328 14.515Z" fill="#222222"/>
</svg>
