<svg width="20" height="20" viewBox="0 0 20 20" fill="none" xmlns="http://www.w3.org/2000/svg">
<path d="M4.21782 9.61384C4.36304 9.46863 4.54786 9.39259 4.77228 9.38572C4.9967 9.37939 5.18152 9.44883 5.32673 9.59404L9.20792 13.4752L9.20792 4.62374C9.20792 4.39932 9.28396 4.21107 9.43604 4.05899C9.58759 3.90744 9.77558 3.83166 10 3.83166C10.2244 3.83166 10.4127 3.90744 10.5648 4.05899C10.7163 4.21107 10.7921 4.39932 10.7921 4.62374L10.7921 13.4752L14.6733 9.59404C14.8185 9.44883 15.0033 9.37939 15.2277 9.38572C15.4521 9.39259 15.637 9.46863 15.7822 9.61384C15.9274 9.75906 16 9.94388 16 10.1683C16 10.3927 15.9274 10.5775 15.7822 10.7228L10.5545 15.9505C10.4884 16.0297 10.4061 16.0859 10.3073 16.1192C10.2081 16.1519 10.1056 16.1683 10 16.1683C9.89439 16.1683 9.79538 16.1519 9.70297 16.1192C9.61056 16.0859 9.52475 16.0297 9.44554 15.9505L4.21782 10.7228C4.07261 10.5775 4 10.3927 4 10.1683C4 9.94388 4.07261 9.75906 4.21782 9.61384Z" fill="#222222"/>
</svg>
