<svg width="20" height="20" viewBox="0 0 20 20" fill="none" xmlns="http://www.w3.org/2000/svg">
<path d="M6.36718 14.515C6.33151 14.3127 6.37523 14.1177 6.49833 13.9299C6.62187 13.7425 6.78476 13.6309 6.987 13.5952L12.3924 12.6421L5.14173 7.56512C4.95789 7.4364 4.8473 7.26613 4.80995 7.05433C4.77274 6.84326 4.81849 6.64581 4.94721 6.46197C5.07594 6.27813 5.24599 6.16739 5.45736 6.12974C5.66886 6.09283 5.86653 6.13873 6.05036 6.26745L13.3011 11.3445L12.348 5.93902C12.3123 5.73677 12.3614 5.54555 12.4953 5.36535C12.6297 5.18545 12.798 5.07767 13.0002 5.04201C13.2025 5.00635 13.3955 5.05288 13.5793 5.1816C13.7632 5.31033 13.8729 5.47581 13.9086 5.67805L15.1924 12.9589C15.2194 13.0584 15.2182 13.1581 15.1888 13.2581C15.1587 13.3582 15.1134 13.4515 15.0528 13.538C14.9922 13.6245 14.922 13.6962 14.8422 13.7531C14.7619 13.8097 14.6667 13.8478 14.5563 13.8672L7.27554 15.151C7.0733 15.1867 6.88026 15.1401 6.69642 15.0114C6.51258 14.8827 6.40284 14.7172 6.36718 14.515Z" fill="#222222"/>
</svg>
