<svg width="20" height="20" viewBox="0 0 20 20" fill="none" xmlns="http://www.w3.org/2000/svg">
<path d="M15.7822 10.3862C15.637 10.5314 15.4521 10.6074 15.2277 10.6143C15.0033 10.6206 14.8185 10.5512 14.6733 10.406L10.7921 6.52477L10.7921 15.3763C10.7921 15.6007 10.716 15.7889 10.564 15.941C10.4124 16.0926 10.2244 16.1683 10 16.1683C9.77558 16.1683 9.58733 16.0926 9.43525 15.941C9.2837 15.7889 9.20792 15.6007 9.20792 15.3763L9.20792 6.52477L5.32673 10.406C5.18152 10.5512 4.9967 10.6206 4.77228 10.6143C4.54785 10.6074 4.36304 10.5314 4.21782 10.3862C4.07261 10.2409 4 10.0561 4 9.8317C4 9.60728 4.07261 9.42246 4.21782 9.27725L9.44554 4.04952C9.51155 3.97032 9.59393 3.91408 9.69267 3.88081C9.79195 3.84807 9.89439 3.8317 10 3.8317C10.1056 3.8317 10.2046 3.84807 10.297 3.88081C10.3894 3.91408 10.4752 3.97032 10.5545 4.04952L15.7822 9.27725C15.9274 9.42246 16 9.60728 16 9.8317C16 10.0561 15.9274 10.2409 15.7822 10.3862Z" fill="#222222"/>
</svg>
