<svg width="20" height="20" viewBox="0 0 20 20" fill="none" xmlns="http://www.w3.org/2000/svg">
<path d="M9.61421 15.7822C9.46899 15.637 9.39295 15.4521 9.38609 15.2277C9.37975 15.0033 9.44919 14.8185 9.59441 14.6733L13.4756 10.7921H4.62411C4.39969 10.7921 4.21144 10.716 4.05936 10.564C3.90781 10.4124 3.83203 10.2244 3.83203 10C3.83203 9.77558 3.90781 9.58733 4.05936 9.43525C4.21144 9.2837 4.39969 9.20792 4.62411 9.20792H13.4756L9.59441 5.32673C9.44919 5.18152 9.37975 4.9967 9.38609 4.77228C9.39295 4.54785 9.46899 4.36304 9.61421 4.21782C9.75942 4.07261 9.94424 4 10.1687 4C10.3931 4 10.5779 4.07261 10.7231 4.21782L15.9508 9.44554C16.03 9.51155 16.0863 9.59393 16.1196 9.69267C16.1523 9.79195 16.1687 9.89439 16.1687 10C16.1687 10.1056 16.1523 10.2046 16.1196 10.297C16.0863 10.3894 16.03 10.4752 15.9508 10.5545L10.7231 15.7822C10.5779 15.9274 10.3931 16 10.1687 16C9.94424 16 9.75942 15.9274 9.61421 15.7822Z" fill="#222222"/>
</svg>
