<svg width="20" height="20" viewBox="0 0 20 20" fill="none" xmlns="http://www.w3.org/2000/svg">
<path d="M10.3858 4.21782C10.531 4.36304 10.607 4.54785 10.6139 4.77228C10.6202 4.9967 10.5508 5.18152 10.4056 5.32673L6.52441 9.20792L15.3759 9.20792C15.6003 9.20792 15.7886 9.28396 15.9406 9.43604C16.0922 9.58759 16.168 9.77558 16.168 10C16.168 10.2244 16.0922 10.4127 15.9406 10.5648C15.7886 10.7163 15.6003 10.7921 15.3759 10.7921L6.52441 10.7921L10.4056 14.6733C10.5508 14.8185 10.6202 15.0033 10.6139 15.2277C10.607 15.4521 10.531 15.637 10.3858 15.7822C10.2406 15.9274 10.0558 16 9.83134 16C9.60691 16 9.42209 15.9274 9.27688 15.7822L4.04916 10.5545C3.96995 10.4884 3.91371 10.4061 3.88045 10.3073C3.84771 10.2081 3.83134 10.1056 3.83134 10C3.83134 9.89439 3.84771 9.79538 3.88045 9.70297C3.91371 9.61056 3.96995 9.52475 4.04916 9.44554L9.27688 4.21782C9.4221 4.07261 9.60691 4 9.83134 4C10.0558 4 10.2406 4.07261 10.3858 4.21782Z" fill="#222222"/>
</svg>
