<svg width="20" height="20" viewBox="0 0 20 20" fill="none" xmlns="http://www.w3.org/2000/svg">
<path d="M6.36718 5.48503C6.33151 5.68727 6.37523 5.88228 6.49833 6.07005C6.62187 6.25752 6.78476 6.36909 6.987 6.40475L12.3924 7.35788L5.14173 12.4349C4.95789 12.5636 4.8473 12.7339 4.80995 12.9457C4.77274 13.1567 4.81849 13.3542 4.94721 13.538C5.07594 13.7219 5.24599 13.8326 5.45736 13.8703C5.66886 13.9072 5.86653 13.8613 6.05036 13.7325L13.3011 8.65554L12.348 14.061C12.3123 14.2632 12.3614 14.4545 12.4953 14.6347C12.6297 14.8146 12.798 14.9223 13.0002 14.958C13.2025 14.9937 13.3955 14.9471 13.5793 14.8184C13.7632 14.6897 13.8729 14.5242 13.9086 14.3219L15.1924 7.04115C15.2194 6.94165 15.2182 6.84191 15.1888 6.74194C15.1587 6.64184 15.1134 6.54854 15.0528 6.46203C14.9922 6.37552 14.922 6.3038 14.8422 6.24688C14.7619 6.19027 14.6667 6.15223 14.5563 6.13278L7.27554 4.84898C7.0733 4.81332 6.88026 4.85985 6.69642 4.98857C6.51258 5.1173 6.40284 5.28278 6.36718 5.48503Z" fill="#222222"/>
</svg>
