<svg width="20" height="20" viewBox="0 0 20 20" fill="none" xmlns="http://www.w3.org/2000/svg">
<path fill-rule="evenodd" clip-rule="evenodd" d="M2.90154 16.7692L0.760368 8.95479C0.736825 8.88126 0.725435 8.80438 0.726649 8.72718C0.726649 8.50361 0.815463 8.2892 0.973553 8.1311C1.13164 7.97301 1.34606 7.8842 1.56963 7.8842L5.60752 7.8842L9.29979 2.36266C9.37683 2.24858 9.48123 2.15564 9.60346 2.09231C9.72569 2.02899 9.86184 1.99731 9.99946 2.00018C10.1361 1.99758 10.2714 2.02849 10.3933 2.09021C10.5153 2.15193 10.6203 2.24258 10.6991 2.35423L14.3914 7.8842L18.4293 7.8842C18.6529 7.8842 18.8673 7.97302 19.0254 8.13111C19.1835 8.2892 19.2723 8.50361 19.2723 8.72719L19.247 8.95479L17.1058 16.7692C17.0051 17.1233 16.7918 17.4349 16.4983 17.6569C16.2048 17.879 15.8469 17.9994 15.4789 18L4.52007 18C4.15272 18.0005 3.79537 17.8803 3.50296 17.658C3.21054 17.4356 2.99925 17.1234 2.90154 16.7692ZM9.99946 4.34367L7.63911 7.8842L12.3598 7.8842L9.99946 4.34367ZM17.3334 9.57017L15.4789 16.314L4.5285 16.3225L2.67394 9.57017L17.3334 9.57017Z" fill="#222222"/>
</svg>
