<svg width="20" height="20" viewBox="0 0 20 20" fill="none" xmlns="http://www.w3.org/2000/svg">
<path d="M18.4293 7.8842L14.3914 7.8842L10.6991 2.35423C10.6203 2.24258 10.5153 2.15193 10.3933 2.09021C10.2714 2.02849 10.1361 1.99758 9.99946 2.00018C9.86184 1.99731 9.72569 2.02899 9.60346 2.09231C9.48123 2.15564 9.37683 2.24858 9.29979 2.36266L5.60752 7.8842L1.56963 7.8842C1.34606 7.8842 1.13164 7.97301 0.973553 8.1311C0.815463 8.2892 0.726649 8.50361 0.726649 8.72718C0.725435 8.80438 0.736825 8.88126 0.760368 8.95479L2.90154 16.7692C2.99925 17.1234 3.21054 17.4356 3.50296 17.658C3.79537 17.8803 4.15272 18.0005 4.52007 18L15.4789 18C15.8469 17.9994 16.2048 17.879 16.4983 17.6569C16.7918 17.4349 17.0051 17.1233 17.1058 16.7692L19.247 8.95479L19.2723 8.72719C19.2723 8.50361 19.1835 8.2892 19.0254 8.13111C18.8673 7.97302 18.6529 7.8842 18.4293 7.8842ZM9.99946 4.34367L12.3598 7.8842L7.63911 7.8842L9.99946 4.34367Z" fill="#222222"/>
</svg>
