<svg width="20" height="20" viewBox="0 0 20 20" fill="none" xmlns="http://www.w3.org/2000/svg">
<path d="M8.76815 2.18665C8.92435 2.01505 9.11466 1.87797 9.32689 1.78416C9.53913 1.69036 9.76861 1.64191 10.0007 1.64191C10.2327 1.64191 10.4622 1.69036 10.6744 1.78416C10.8866 1.87797 11.077 2.01505 11.2332 2.18665L12.0831 3.11998C12.2482 3.30116 12.4512 3.44371 12.6776 3.53748C12.904 3.63125 13.1483 3.67393 13.3931 3.66248L14.654 3.60415C14.8857 3.59323 15.1171 3.63079 15.3334 3.71444C15.5498 3.79808 15.7463 3.92596 15.9104 4.08989C16.0745 4.25382 16.2025 4.4502 16.2864 4.66647C16.3702 4.88273 16.408 5.11411 16.3973 5.34581L16.3381 6.60748C16.3267 6.85229 16.3694 7.09661 16.4631 7.32305C16.5569 7.54948 16.6995 7.75244 16.8806 7.91748L17.814 8.76748C17.9856 8.92368 18.1227 9.11399 18.2165 9.32622C18.3103 9.53846 18.3587 9.76794 18.3587 9.99998C18.3587 10.232 18.3103 10.4615 18.2165 10.6737C18.1227 10.886 17.9856 11.0763 17.814 11.2325L16.8806 12.0825C16.6995 12.2475 16.5569 12.4505 16.4631 12.6769C16.3694 12.9033 16.3267 13.1477 16.3381 13.3925L16.3965 14.6533C16.4074 14.885 16.3698 15.1164 16.2862 15.3328C16.2026 15.5491 16.0747 15.7456 15.9107 15.9097C15.7468 16.0738 15.5504 16.2019 15.3342 16.2857C15.1179 16.3696 14.8865 16.4073 14.6548 16.3966L13.3931 16.3375C13.1483 16.326 12.904 16.3687 12.6776 16.4625C12.4512 16.5562 12.2482 16.6988 12.0831 16.88L11.2332 17.8133C11.077 17.9849 10.8866 18.122 10.6744 18.2158C10.4622 18.3096 10.2327 18.358 10.0007 18.358C9.76861 18.358 9.53913 18.3096 9.32689 18.2158C9.11466 18.122 8.92435 17.9849 8.76815 17.8133L7.91815 16.88C7.75311 16.6988 7.55015 16.5562 7.32372 16.4625C7.09729 16.3687 6.85296 16.326 6.60815 16.3375L5.34732 16.3958C5.11563 16.4067 4.88421 16.3692 4.66787 16.2855C4.45152 16.2019 4.25502 16.074 4.09093 15.9101C3.92684 15.7461 3.79877 15.5498 3.71492 15.3335C3.63108 15.1172 3.59329 14.8858 3.60398 14.6541L3.66315 13.3925C3.6746 13.1477 3.63192 12.9033 3.53815 12.6769C3.44438 12.4505 3.30183 12.2475 3.12065 12.0825L2.18732 11.2325C2.01572 11.0763 1.87864 10.886 1.78483 10.6737C1.69103 10.4615 1.64258 10.232 1.64258 9.99998C1.64258 9.76794 1.69103 9.53846 1.78483 9.32622C1.87864 9.11399 2.01572 8.92368 2.18732 8.76748L3.12065 7.91748C3.30183 7.75244 3.44438 7.54948 3.53815 7.32305C3.63192 7.09661 3.6746 6.85229 3.66315 6.60748L3.60482 5.34665C3.5939 5.11495 3.63147 4.88354 3.71511 4.66719C3.79875 4.45085 3.92663 4.25435 4.09056 4.09026C4.2545 3.92617 4.45088 3.7981 4.66714 3.71425C4.8834 3.6304 5.11478 3.59262 5.34648 3.60331L6.60815 3.66248C6.85296 3.67393 7.09729 3.63125 7.32372 3.53748C7.55015 3.44371 7.75311 3.30116 7.91815 3.11998L8.76815 2.18665Z" stroke="#222222" stroke-width="1.5"/>
<path d="M7.5 9.99998L9.16667 11.6666L12.5 8.33331" stroke="#222222" stroke-width="1.5" stroke-linecap="round" stroke-linejoin="round"/>
</svg>
