<svg width="20" height="20" viewBox="0 0 20 20" fill="none" xmlns="http://www.w3.org/2000/svg">
<path d="M2.5 5.5C2.5 4.70435 2.81607 3.94129 3.37868 3.37868C3.94129 2.81607 4.70435 2.5 5.5 2.5H14.5C15.2956 2.5 16.0587 2.81607 16.6213 3.37868C17.1839 3.94129 17.5 4.70435 17.5 5.5V9.25H2.5V5.5Z" stroke="#222222" stroke-width="1.40625" stroke-linecap="round" stroke-linejoin="round"/>
<path d="M14.875 13.3751H12.625" stroke="#222222" stroke-width="1.40625" stroke-linecap="round"/>
<path d="M10 9.25018H17.5V14.5002C17.5 15.2958 17.1839 16.0589 16.6213 16.6215C16.0587 17.1841 15.2956 17.5002 14.5 17.5002H10M10 9.25018V17.5002M10 9.25018H2.5V14.5002C2.5 15.2958 2.81607 16.0589 3.37868 16.6215C3.94129 17.1841 4.70435 17.5002 5.5 17.5002H10" stroke="#222222" stroke-width="1.40625" stroke-linecap="round" stroke-linejoin="round"/>
<path d="M5.125 14.5002L6.25 13.3752M6.25 13.3752L7.375 12.2502M6.25 13.3752L7.375 14.5002M6.25 13.3752L5.125 12.2502" stroke="#222222" stroke-width="1.40625" stroke-linecap="round"/>
</svg>
