<svg width="20" height="20" viewBox="0 0 20 20" fill="none" xmlns="http://www.w3.org/2000/svg">
<path d="M4.03916 7.05895C4.0809 6.95965 4.1511 6.87493 4.24092 6.81545C4.33073 6.75598 4.43614 6.72443 4.54386 6.72476L15.4561 6.72477C15.5639 6.72443 15.6693 6.75598 15.7591 6.81546C15.8489 6.87493 15.9191 6.95965 15.9608 7.05895C16.0001 7.15973 16.0101 7.26959 15.9896 7.3758C15.9691 7.48201 15.9189 7.58024 15.8449 7.65913L10.3887 13.1153C10.2853 13.2177 10.1456 13.2752 10 13.2752C9.8544 13.2752 9.71469 13.2177 9.61125 13.1153L4.15511 7.65913C4.08109 7.58024 4.03092 7.48201 4.0104 7.3758C3.98988 7.26958 3.99985 7.15973 4.03916 7.05895Z" fill="#222222"/>
</svg>
