<svg width="20" height="20" viewBox="0 0 20 20" fill="none" xmlns="http://www.w3.org/2000/svg">
<path d="M15.9608 12.941C15.9191 13.0403 15.8489 13.1251 15.7591 13.1845C15.6693 13.244 15.5639 13.2756 15.4561 13.2752H4.54386C4.43614 13.2756 4.33073 13.244 4.24092 13.1845C4.1511 13.1251 4.0809 13.0403 4.03916 12.941C3.99985 12.8403 3.98988 12.7304 4.0104 12.6242C4.03092 12.518 4.08109 12.4198 4.15511 12.3409L9.61125 6.88473C9.71469 6.78227 9.8544 6.72479 10 6.72479C10.1456 6.72479 10.2853 6.78227 10.3888 6.88473L15.8449 12.3409C15.9189 12.4198 15.9691 12.518 15.9896 12.6242C16.0101 12.7304 16.0001 12.8403 15.9608 12.941Z" fill="#222222"/>
</svg>
