<svg width="20" height="20" viewBox="0 0 20 20" fill="none" xmlns="http://www.w3.org/2000/svg">
<path d="M12.9409 4.03916C13.0402 4.0809 13.1249 4.1511 13.1844 4.24092C13.2438 4.33073 13.2754 4.43614 13.2751 4.54386L13.2751 15.4561C13.2754 15.5639 13.2438 15.6693 13.1844 15.7591C13.1249 15.8489 13.0402 15.9191 12.9409 15.9608C12.8401 16.0001 12.7302 16.0101 12.624 15.9896C12.5178 15.9691 12.4196 15.9189 12.3407 15.8449L6.88454 10.3887C6.78209 10.2853 6.72461 10.1456 6.72461 10C6.72461 9.8544 6.78209 9.71469 6.88454 9.61125L12.3407 4.15511C12.4196 4.08109 12.5178 4.03092 12.624 4.0104C12.7302 3.98988 12.8401 3.99985 12.9409 4.03916Z" fill="#222222"/>
</svg>
