<svg width="20" height="20" viewBox="0 0 20 20" fill="none" xmlns="http://www.w3.org/2000/svg">
<path d="M17.5007 5.83333V4.16667H5.83398V5.83333H17.5007ZM17.5007 12.5V8.33333H5.83398V12.5H17.5007ZM17.5007 2.5C17.9427 2.5 18.3666 2.67559 18.6792 2.98816C18.9917 3.30072 19.1673 3.72464 19.1673 4.16667V12.5C19.1673 12.942 18.9917 13.3659 18.6792 13.6785C18.3666 13.9911 17.9427 14.1667 17.5007 14.1667H5.83398C5.39196 14.1667 4.96803 13.9911 4.65547 13.6785C4.34291 13.3659 4.16732 12.942 4.16732 12.5V4.16667C4.16732 3.24167 4.90898 2.5 5.83398 2.5H17.5007ZM2.50065 15.8333H15.0007V17.5H2.50065C2.05862 17.5 1.6347 17.3244 1.32214 17.0118C1.00958 16.6993 0.833984 16.2754 0.833984 15.8333V6.66667H2.50065V15.8333Z" fill="#222222"/>
</svg>
