<svg width="20" height="20" viewBox="0 0 20 20" fill="none" xmlns="http://www.w3.org/2000/svg">
<path fill-rule="evenodd" clip-rule="evenodd" d="M2 2.72025C2 2.32247 2.32247 2 2.72025 2H9.17732C9.84584 2.00014 10.4871 2.26583 10.9597 2.73862L17.2619 9.04075C17.7345 9.51349 18 10.1546 18 10.8231C18 11.4915 17.7345 12.1326 17.2619 12.6054L12.6054 17.2619C12.1327 17.7345 11.4915 18 10.8231 18C10.1546 18 9.51356 17.7345 9.04083 17.2619L2.73862 10.9597C2.26583 10.4871 2.00014 9.84599 2 9.17747V2.72025ZM3.44051 3.44051V9.17716C3.44051 9.17711 3.44051 9.17721 3.44051 9.17716C3.44061 9.46362 3.55447 9.73846 3.75706 9.94099L10.0593 16.2432C10.2619 16.4457 10.5366 16.5595 10.8231 16.5595C11.1096 16.5595 11.3843 16.4457 11.5869 16.2432L16.2432 11.5869C16.4457 11.3843 16.5595 11.1096 16.5595 10.8231C16.5595 10.5366 16.4457 10.2619 16.2432 10.0593L9.94107 3.75713C9.73854 3.55454 9.46377 3.44061 9.17732 3.44051C9.17727 3.44051 9.17737 3.44051 9.17732 3.44051H3.44051Z" fill="#222222"/>
<path fill-rule="evenodd" clip-rule="evenodd" d="M5 6.35047C5 5.60463 5.60463 5 6.35047 5H6.35948C7.10532 5 7.70995 5.60463 7.70995 6.35047V6.35948C7.70995 7.10532 7.10532 7.70995 6.35948 7.70995H6.35047C5.60463 7.70995 5 7.10532 5 6.35948V6.35047Z" fill="#222222"/>
<path d="M7.25 10.7425C7.25 9.782 8.032 9 8.9925 9C9.46 9 9.9105 9.1955 10.225 9.5185L10.735 10.02L11.245 9.51C11.5595 9.1955 12.01 9 12.4775 9C12.7063 9 12.9329 9.04507 13.1443 9.13264C13.3557 9.22021 13.5478 9.34856 13.7096 9.51037C13.8714 9.67217 13.9998 9.86426 14.0874 10.0757C14.1749 10.2871 14.22 10.5137 14.22 10.7425C14.22 11.2185 14.0245 11.6605 13.71 11.975L10.735 14.95L7.76 11.975C7.4455 11.652 7.25 11.227 7.25 10.7425Z" fill="#222222"/>
</svg>
