<svg width="20" height="20" viewBox="0 0 20 20" fill="none" xmlns="http://www.w3.org/2000/svg">
<path fill-rule="evenodd" clip-rule="evenodd" d="M14.2532 15.6665C14.6437 16.0571 15.2769 16.0571 15.6674 15.6665C16.058 15.276 16.058 14.6429 15.6674 14.2523L11.4151 10L15.6674 5.74767C16.058 5.35714 16.058 4.72398 15.6674 4.33345C15.2769 3.94293 14.6437 3.94293 14.2532 4.33345L10.0009 8.58579L5.74857 4.33347C5.35804 3.94294 4.72488 3.94294 4.33436 4.33347C3.94383 4.72399 3.94383 5.35716 4.33436 5.74768L8.58668 10L4.33436 14.2523C3.94383 14.6428 3.94383 15.276 4.33436 15.6665C4.72488 16.0571 5.35805 16.0571 5.74857 15.6665L10.0009 11.4142L14.2532 15.6665Z" fill="#222222"/>
</svg>
