<svg width="20" height="20" viewBox="0 0 20 20" fill="none" xmlns="http://www.w3.org/2000/svg">
<path d="M6.39547 1.66699C6.55018 1.66699 6.69855 1.72845 6.80795 1.83785C6.91734 1.94724 6.9788 2.09562 6.9788 2.25033V3.34116H13.243V2.25783C13.243 2.10312 13.3044 1.95474 13.4138 1.84535C13.5232 1.73595 13.6716 1.67449 13.8263 1.67449C13.981 1.67449 14.1294 1.73595 14.2388 1.84535C14.3482 1.95474 14.4096 2.10312 14.4096 2.25783V3.34116H16.668C17.1099 3.34116 17.5336 3.51664 17.8462 3.82902C18.1587 4.1414 18.3344 4.56511 18.3346 5.00699V16.6678C18.3344 17.1097 18.1587 17.5334 17.8462 17.8458C17.5336 18.1582 17.1099 18.3337 16.668 18.3337H3.33464C2.89275 18.3337 2.46896 18.1582 2.15642 17.8458C1.84388 17.5334 1.66819 17.1097 1.66797 16.6678V5.00699C1.66819 4.56511 1.84388 4.1414 2.15642 3.82902C2.46896 3.51664 2.89275 3.34116 3.33464 3.34116H5.81214V2.24949C5.81236 2.09493 5.87391 1.94677 5.98328 1.83755C6.09266 1.72834 6.2409 1.66699 6.39547 1.66699ZM2.83464 8.11866V16.6678C2.83464 16.7335 2.84757 16.7985 2.8727 16.8592C2.89782 16.9198 2.93465 16.9749 2.98108 17.0214C3.02751 17.0678 3.08263 17.1046 3.14329 17.1298C3.20396 17.1549 3.26897 17.1678 3.33464 17.1678H16.668C16.7336 17.1678 16.7986 17.1549 16.8593 17.1298C16.92 17.1046 16.9751 17.0678 17.0215 17.0214C17.068 16.9749 17.1048 16.9198 17.1299 16.8592C17.155 16.7985 17.168 16.7335 17.168 16.6678V8.13033L2.83464 8.11866ZM6.52922 13.8495C6.9126 13.8495 7.2238 14.1603 7.2238 14.5437C7.2238 14.927 6.9126 15.2378 6.52922 15.2378C6.14584 15.2378 5.83464 14.927 5.83464 14.5437C5.83464 14.1603 6.14584 13.8495 6.52922 13.8495ZM10.0013 13.8495C10.3847 13.8495 10.6955 14.1603 10.6955 14.5437C10.6955 14.927 10.3847 15.2378 10.0013 15.2378C9.61792 15.2378 9.30714 14.927 9.30714 14.5437C9.30714 14.1603 9.61792 13.8495 10.0013 13.8495ZM13.4734 13.8495C13.8568 13.8495 14.168 14.1603 14.168 14.5437C14.168 14.927 13.8568 15.2378 13.4734 15.2378C13.09 15.2378 12.7788 14.927 12.7788 14.5437C12.7788 14.1603 13.09 13.8495 13.4734 13.8495ZM6.52922 10.5353C6.9126 10.5353 7.2238 10.8461 7.2238 11.2295C7.2238 11.6129 6.9126 11.9237 6.52922 11.9237C6.14584 11.9237 5.83464 11.6129 5.83464 11.2295C5.83464 10.8461 6.14584 10.5353 6.52922 10.5353ZM10.0013 10.5353C10.3847 10.5353 10.6955 10.8461 10.6955 11.2295C10.6955 11.6129 10.3847 11.9237 10.0013 11.9237C9.61792 11.9237 9.30714 11.6129 9.30714 11.2295C9.30714 10.8461 9.61792 10.5353 10.0013 10.5353ZM13.4734 10.5353C13.8568 10.5353 14.168 10.8461 14.168 11.2295C14.168 11.6129 13.8568 11.9237 13.4734 11.9237C13.09 11.9237 12.7788 11.6129 12.7788 11.2295C12.7788 10.8461 13.09 10.5353 13.4734 10.5353ZM5.81214 4.50699H3.33464C3.26897 4.50699 3.20396 4.51992 3.14329 4.54505C3.08263 4.57018 3.02751 4.60701 2.98108 4.65344C2.93465 4.69987 2.89782 4.75499 2.8727 4.81565C2.84757 4.87631 2.83464 4.94133 2.83464 5.00699V6.95283L17.168 6.96449V5.00699C17.168 4.94133 17.155 4.87631 17.1299 4.81565C17.1048 4.75499 17.068 4.69987 17.0215 4.65344C16.9751 4.60701 16.92 4.57018 16.8593 4.54505C16.7986 4.51992 16.7336 4.50699 16.668 4.50699H14.4096V5.28116C14.4096 5.43587 14.3482 5.58424 14.2388 5.69364C14.1294 5.80303 13.981 5.86449 13.8263 5.86449C13.6716 5.86449 13.5232 5.80303 13.4138 5.69364C13.3044 5.58424 13.243 5.43587 13.243 5.28116V4.50699H6.9788V5.27366C6.9788 5.42837 6.91734 5.57674 6.80795 5.68614C6.69855 5.79553 6.55018 5.85699 6.39547 5.85699C6.24076 5.85699 6.09239 5.79553 5.98299 5.68614C5.87359 5.57674 5.81214 5.42837 5.81214 5.27366V4.50699Z" fill="#222222"/>
</svg>
