<svg width="20" height="20" viewBox="0 0 20 20" fill="none" xmlns="http://www.w3.org/2000/svg">
<path fill-rule="evenodd" clip-rule="evenodd" d="M8.53838 1.59998H11.4616C11.6493 1.59998 11.8128 1.59998 11.9667 1.62419C12.2666 1.67223 12.551 1.78978 12.7973 1.96744C13.0436 2.1451 13.2449 2.37794 13.3851 2.64733C13.4577 2.78571 13.5088 2.94052 13.5684 3.11781L13.6644 3.40754C13.7307 3.64293 13.8747 3.8489 14.0731 3.99185C14.2715 4.13479 14.5125 4.20625 14.7568 4.19457H17.3514C17.5234 4.19457 17.6884 4.26291 17.81 4.38455C17.9317 4.5062 18 4.67119 18 4.84322C18 5.01525 17.9317 5.18024 17.81 5.30188C17.6884 5.42353 17.5234 5.49187 17.3514 5.49187H2.64865C2.47662 5.49187 2.31163 5.42353 2.18998 5.30188C2.06834 5.18024 2 5.01525 2 4.84322C2 4.67119 2.06834 4.5062 2.18998 4.38455C2.31163 4.26291 2.47662 4.19457 2.64865 4.19457H5.32108C5.55209 4.18903 5.77524 4.10962 5.95782 3.96798C6.14039 3.82634 6.27278 3.62992 6.33557 3.40754L6.43243 3.11781C6.49124 2.94052 6.54227 2.78571 6.61405 2.64733C6.75433 2.37783 6.95576 2.14493 7.20221 1.96726C7.44866 1.7896 7.73328 1.6721 8.0333 1.62419C8.18724 1.59998 8.3507 1.59998 8.53751 1.59998H8.53838ZM7.41232 4.19457C7.47305 4.07564 7.52368 3.95182 7.56368 3.82441L7.65016 3.56495C7.72887 3.32884 7.74703 3.28127 7.76519 3.24668C7.81188 3.15674 7.87899 3.07899 7.96115 3.01967C8.0433 2.96034 8.13821 2.92109 8.23827 2.90506C8.35101 2.89553 8.46424 2.89293 8.5773 2.89727H11.4227C11.6718 2.89727 11.7237 2.899 11.7617 2.90592C11.8617 2.92186 11.9566 2.96098 12.0387 3.02015C12.1209 3.07932 12.188 3.1569 12.2348 3.24668C12.253 3.28127 12.2711 3.32884 12.3498 3.56581L12.4363 3.82527L12.4701 3.92214C12.5038 4.01727 12.5436 4.10722 12.5877 4.19457H7.41232Z" fill="#222222"/>
<path d="M4.73755 6.96224C4.72608 6.79055 4.64688 6.63045 4.51737 6.51716C4.38786 6.40387 4.21865 6.34666 4.04696 6.35813C3.87527 6.3696 3.71517 6.4488 3.60188 6.57832C3.48859 6.70783 3.43138 6.87704 3.44285 7.04873L3.84415 13.0613C3.91766 14.17 3.97734 15.066 4.11744 15.77C4.26361 16.5008 4.51096 17.1114 5.02296 17.5897C5.53409 18.0688 6.16026 18.2755 6.89971 18.3715C7.61063 18.4649 8.50836 18.4649 9.62058 18.4649H10.3808C11.4921 18.4649 12.3907 18.4649 13.1017 18.3715C13.8403 18.2755 14.4664 18.0688 14.9784 17.5897C15.4896 17.1114 15.7369 16.5 15.8831 15.77C16.0232 15.0669 16.082 14.17 16.1564 13.0613L16.5577 7.04873C16.5691 6.87704 16.5119 6.70783 16.3986 6.57832C16.2853 6.4488 16.1252 6.3696 15.9536 6.35813C15.7819 6.34666 15.6127 6.40387 15.4831 6.51716C15.3536 6.63045 15.2744 6.79055 15.263 6.96224L14.8651 12.9298C14.7873 14.0948 14.7319 14.906 14.6108 15.5158C14.4924 16.1082 14.328 16.4213 14.0919 16.6427C13.855 16.8641 13.5315 17.0076 12.933 17.0855C12.3164 17.1659 11.5034 17.1676 10.335 17.1676H9.66555C8.49798 17.1676 7.68501 17.1659 7.0675 17.0855C6.46901 17.0076 6.14555 16.8641 5.90858 16.6427C5.67247 16.4213 5.50815 16.1082 5.38966 15.5166C5.26858 14.906 5.21323 14.0948 5.13539 12.9289L4.73755 6.96224Z" fill="#222222"/>
<path d="M7.77301 8.52252C7.94412 8.50537 8.11503 8.55687 8.24817 8.66569C8.38132 8.77452 8.46581 8.93175 8.48307 9.10285L8.9155 13.4272C8.92817 13.5959 8.87441 13.7629 8.76569 13.8925C8.65697 14.0222 8.5019 14.1042 8.33356 14.1211C8.16521 14.1381 7.99691 14.0885 7.86457 13.9831C7.73222 13.8777 7.64629 13.7248 7.62512 13.5569L7.19269 9.23258C7.17554 9.06147 7.22704 8.89056 7.33586 8.75741C7.44468 8.62427 7.60192 8.53978 7.77301 8.52252ZM12.2271 8.52252C12.398 8.53978 12.5551 8.62415 12.6639 8.75711C12.7727 8.89006 12.8243 9.06075 12.8074 9.23171L12.375 13.556C12.3535 13.7236 12.2676 13.8762 12.1354 13.9813C12.0032 14.0865 11.8352 14.1359 11.6671 14.1191C11.499 14.1023 11.3441 14.0206 11.2353 13.8914C11.1266 13.7622 11.0725 13.5956 11.0846 13.4272L11.517 9.10285C11.5343 8.93192 11.6186 8.77482 11.7516 8.66602C11.8846 8.55723 12.0561 8.50562 12.2271 8.52252Z" fill="#222222"/>
</svg>
