<svg width="20" height="20" viewBox="0 0 20 20" fill="none" xmlns="http://www.w3.org/2000/svg">
<path d="M13 5H17.198C17.4255 5.00004 17.6462 5.07764 17.8236 5.21999C18.001 5.36234 18.1246 5.56094 18.174 5.783L19 9.5V14C19 14.2652 18.8946 14.5196 18.7071 14.7071C18.5196 14.8946 18.2652 15 18 15H16.5M19 9.5H13M16.5 15C16.5 15.5304 16.2893 16.0391 15.9142 16.4142C15.5391 16.7893 15.0304 17 14.5 17C13.9696 17 13.4609 16.7893 13.0858 16.4142C12.7107 16.0391 12.5 15.5304 12.5 15M16.5 15C16.5 14.4696 16.2893 13.9609 15.9142 13.5858C15.5391 13.2107 15.0304 13 14.5 13C13.9696 13 13.4609 13.2107 13.0858 13.5858C12.7107 13.9609 12.5 14.4696 12.5 15M13 9.5V5M13 9.5V11M13 5V4C13 3.73478 12.8946 3.48043 12.7071 3.29289C12.5196 3.10536 12.2652 3 12 3H2C1.73478 3 1.48043 3.10536 1.29289 3.29289C1.10536 3.48043 1 3.73478 1 4V14C1 14.2652 1.10536 14.5196 1.29289 14.7071C1.48043 14.8946 1.73478 15 2 15H3.5M7.5 15C7.5 14.4696 7.28929 13.9609 6.91421 13.5858C6.53914 13.2107 6.03043 13 5.5 13C4.96957 13 4.46086 13.2107 4.08579 13.5858C3.71071 13.9609 3.5 14.4696 3.5 15C3.5 15.5304 3.71071 16.0391 4.08579 16.4142C4.46086 16.7893 4.96957 17 5.5 17C6.03043 17 6.53914 16.7893 6.91421 16.4142C7.28929 16.0391 7.5 15.5304 7.5 15ZM7.5 15H12.5" stroke="#222222" stroke-width="1.5" stroke-linecap="round" stroke-linejoin="round"/>
</svg>
