<svg width="20" height="20" viewBox="0 0 20 20" fill="none" xmlns="http://www.w3.org/2000/svg">
<path d="M2.88889 4.66672L8.31822 8.76628L8.32 8.76805C8.92267 9.20983 9.224 9.43117 9.55467 9.5165C9.84675 9.59207 10.1533 9.59207 10.4453 9.5165C10.776 9.43117 11.0782 9.20983 11.6827 8.76628C11.6827 8.76628 15.1644 6.09428 17.1111 4.66672M2 13.3778V6.62228C2 5.62672 2 5.12894 2.19378 4.7485C2.36444 4.41339 2.63556 4.14228 2.97067 3.97161C3.35111 3.77783 3.84889 3.77783 4.84444 3.77783H15.1556C16.1511 3.77783 16.6489 3.77783 17.0284 3.97161C17.3636 4.14228 17.6356 4.41339 17.8062 4.7485C18 5.12805 18 5.62583 18 6.61961V13.3814C18 14.3752 18 14.8712 17.8062 15.2516C17.6356 15.5862 17.3633 15.8582 17.0284 16.0285C16.6489 16.2223 16.152 16.2223 15.1582 16.2223H4.84178C3.848 16.2223 3.35022 16.2223 2.97067 16.0285C2.63617 15.8581 2.36422 15.5861 2.19378 15.2516C2 14.8712 2 14.3734 2 13.3778Z" stroke="#222222" stroke-width="1.5" stroke-linecap="round" stroke-linejoin="round"/>
</svg>
