<svg width="20" height="20" viewBox="0 0 20 20" fill="none" xmlns="http://www.w3.org/2000/svg">
<path d="M16.2373 7.02051L16.3613 7.02344C16.3588 7.13913 16.3085 7.23556 16.2285 7.30176C16.1505 7.36625 16.05 7.39798 15.9482 7.40039H15.7451V7.39941C15.5106 7.40308 15.3359 7.20241 15.3408 6.98145L15.3496 5.39551L12.208 8.5166L12.209 8.51758C12.0078 8.71849 11.6816 8.71848 11.4805 8.51758C11.2794 8.31625 11.2793 7.99027 11.4805 7.78906L14.6104 4.67773L13.0684 4.67383V4.67285C12.8502 4.67613 12.6495 4.52355 12.6172 4.27344L12.6162 4.26562V4.05469C12.6212 3.83 12.8059 3.6457 13.0303 3.64062H13.0342L15.8223 3.65332C15.8263 3.65282 15.8309 3.65246 15.8359 3.65234L15.9785 3.64844L16.0615 3.6543C16.1421 3.66909 16.2142 3.70832 16.2695 3.76367L16.3223 3.83105C16.3641 3.90169 16.3764 3.98199 16.375 4.05566L16.374 4.06641L16.3623 4.1709C16.3651 4.18102 16.3701 4.19181 16.3701 4.2041L16.3623 7.02051V7.02344L16.2373 7.02051ZM7.39551 15.9453C7.39023 16.1696 7.20644 16.3536 6.98242 16.3594H6.97852L4.17188 16.3467C4.16913 16.3469 4.16622 16.3466 4.16309 16.3467L4.16406 16.3477L4.02148 16.3516C3.90858 16.3544 3.80537 16.3095 3.73145 16.2354C3.64614 16.152 3.62282 16.0417 3.625 15.9434V15.9326H3.62598L3.6377 15.8281C3.635 15.8181 3.62988 15.8078 3.62988 15.7959L3.6377 12.9795V12.9766C3.64024 12.8608 3.69137 12.7645 3.77148 12.6982C3.84952 12.6337 3.94995 12.6021 4.05176 12.5996H4.05469L4.2666 12.5986C4.50017 12.5948 4.67467 12.7952 4.6709 13.0156L4.66113 14.5938L7.80371 11.4814C8.00496 11.2808 8.33032 11.2816 8.53125 11.4824C8.70726 11.6584 8.72962 11.9299 8.59766 12.1299L8.53125 12.2109L5.40137 15.3213L6.94336 15.3262C7.16165 15.3227 7.36207 15.4761 7.39453 15.7256L7.39551 15.7344V15.9453ZM16.3691 15.4941H16.3701V15.7959C16.3701 15.8079 16.365 15.8181 16.3623 15.8281L16.374 15.9326L16.375 15.9443L16.3711 16.0186C16.3617 16.0944 16.3325 16.1708 16.2695 16.2334L16.2705 16.2344C16.1965 16.3094 16.0922 16.3544 15.9785 16.3516L15.8359 16.3477V16.3467C15.8328 16.3466 15.8299 16.3469 15.8271 16.3467L13.0342 16.3594H13.0303C12.8062 16.3541 12.6216 16.1698 12.6162 15.9453V15.7334L12.6172 15.7256C12.6495 15.4761 12.8501 15.3229 13.0684 15.3262L14.6113 15.3213L11.4805 12.2109C11.2793 12.0098 11.2794 11.6836 11.4805 11.4824C11.6814 11.2815 12.0068 11.281 12.208 11.4814L15.3496 14.6035L15.3408 13.0156V13.0146C15.3378 12.7953 15.5116 12.5951 15.7451 12.5986H15.9482C16.0498 12.6011 16.1505 12.6329 16.2285 12.6973C16.3087 12.7635 16.3597 12.8606 16.3623 12.9766V12.9795L16.3691 15.4941ZM7.39648 4.25781V4.26562L7.39551 4.27344C7.3632 4.52352 7.16181 4.67644 6.94336 4.67285V4.67383L5.40137 4.67773L8.53125 7.78906H8.53223C8.73309 7.99018 8.73312 8.31645 8.53223 8.51758C8.35621 8.6936 8.08368 8.71609 7.88379 8.58398L7.80371 8.51758L4.66113 5.4043L4.6709 6.98145C4.67582 7.20246 4.5012 7.40332 4.2666 7.39941V7.40039H4.05176C3.9499 7.398 3.84951 7.36628 3.77148 7.30176C3.69141 7.23553 3.64035 7.13913 3.6377 7.02344V7.02051L3.62988 4.2041L3.6377 4.16895L3.62598 4.06641L3.625 4.05566C3.6229 3.95717 3.64577 3.84708 3.73047 3.76367L3.73145 3.76465C3.80475 3.69101 3.90695 3.64685 4.01953 3.64941L4.02051 3.64844L4.16406 3.65137L4.16309 3.65234C4.16811 3.65243 4.17267 3.65284 4.17676 3.65332L6.97852 3.64062H6.98145C7.20612 3.64536 7.38995 3.83057 7.39551 4.05469V4.05762L7.39648 4.25781Z" fill="#222222" stroke="#222222" stroke-width="0.25"/>
</svg>
