<svg width="20" height="20" viewBox="0 0 20 20" fill="none" xmlns="http://www.w3.org/2000/svg">
<path d="M2.20833 6.45836H5.13021C5.28625 7.06782 5.6407 7.60801 6.13768 7.99377C6.63465 8.37953 7.24588 8.58891 7.875 8.58891C8.50412 8.58891 9.11535 8.37953 9.61232 7.99377C10.1093 7.60801 10.4637 7.06782 10.6198 6.45836H17.7917C17.9795 6.45836 18.1597 6.38373 18.2925 6.25089C18.4254 6.11805 18.5 5.93788 18.5 5.75002C18.5 5.56216 18.4254 5.38199 18.2925 5.24915C18.1597 5.11632 17.9795 5.04169 17.7917 5.04169H10.6198C10.4637 4.43223 10.1093 3.89204 9.61232 3.50628C9.11535 3.12052 8.50412 2.91113 7.875 2.91113C7.24588 2.91113 6.63465 3.12052 6.13768 3.50628C5.6407 3.89204 5.28625 4.43223 5.13021 5.04169H2.20833C2.02047 5.04169 1.8403 5.11632 1.70747 5.24915C1.57463 5.38199 1.5 5.56216 1.5 5.75002C1.5 5.93788 1.57463 6.11805 1.70747 6.25089C1.8403 6.38373 2.02047 6.45836 2.20833 6.45836ZM7.875 4.33336C8.15519 4.33336 8.42909 4.41644 8.66206 4.57211C8.89503 4.72777 9.07661 4.94903 9.18383 5.20789C9.29105 5.46675 9.31911 5.75159 9.26445 6.0264C9.20978 6.30121 9.07486 6.55363 8.87673 6.75176C8.67861 6.94988 8.42618 7.08481 8.15138 7.13947C7.87657 7.19413 7.59173 7.16608 7.33287 7.05885C7.074 6.95163 6.85275 6.77005 6.69708 6.53708C6.54142 6.30411 6.45833 6.03021 6.45833 5.75002C6.45833 5.3743 6.60759 5.01396 6.87327 4.74829C7.13894 4.48261 7.49928 4.33336 7.875 4.33336ZM17.7917 13.5417H16.2865C16.1304 12.9322 15.776 12.392 15.279 12.0063C14.782 11.6205 14.1708 11.4111 13.5417 11.4111C12.9125 11.4111 12.3013 11.6205 11.8043 12.0063C11.3074 12.392 10.9529 12.9322 10.7969 13.5417H2.20833C2.02047 13.5417 1.8403 13.6163 1.70747 13.7492C1.57463 13.882 1.5 14.0622 1.5 14.25C1.5 14.4379 1.57463 14.6181 1.70747 14.7509C1.8403 14.8837 2.02047 14.9584 2.20833 14.9584H10.7969C10.9529 15.5678 11.3074 16.108 11.8043 16.4938C12.3013 16.8795 12.9125 17.0889 13.5417 17.0889C14.1708 17.0889 14.782 16.8795 15.279 16.4938C15.776 16.108 16.1304 15.5678 16.2865 14.9584H17.7917C17.9795 14.9584 18.1597 14.8837 18.2925 14.7509C18.4254 14.6181 18.5 14.4379 18.5 14.25C18.5 14.0622 18.4254 13.882 18.2925 13.7492C18.1597 13.6163 17.9795 13.5417 17.7917 13.5417ZM13.5417 15.6667C13.2615 15.6667 12.9876 15.5836 12.7546 15.4279C12.5216 15.2723 12.3401 15.051 12.2328 14.7922C12.1256 14.5333 12.0976 14.2485 12.1522 13.9736C12.2069 13.6988 12.3418 13.4464 12.5399 13.2483C12.7381 13.0502 12.9905 12.9152 13.2653 12.8606C13.5401 12.8059 13.8249 12.834 14.0838 12.9412C14.3427 13.0484 14.5639 13.23 14.7196 13.463C14.8752 13.6959 14.9583 13.9698 14.9583 14.25C14.9583 14.6257 14.8091 14.9861 14.5434 15.2518C14.2777 15.5174 13.9174 15.6667 13.5417 15.6667Z" fill="#222222"/>
</svg>
