<svg width="20" height="20" viewBox="0 0 20 20" fill="none" xmlns="http://www.w3.org/2000/svg">
<path d="M15.3333 7.83333V3.66667C15.3333 3.22464 15.1577 2.80072 14.8452 2.48816C14.5326 2.17559 14.1087 2 13.6667 2H3.66667C3.22464 2 2.80072 2.17559 2.48816 2.48816C2.17559 2.80072 2 3.22464 2 3.66667V11.1667M15.3333 7.83333V13.6667C15.3333 14.1087 15.1577 14.5326 14.8452 14.8452C14.5326 15.1577 14.1087 15.3333 13.6667 15.3333H12M15.3333 7.83333C9.965 7.83333 7.74583 9.4875 6.12083 11.3692M2 11.1667V14.5C2 14.721 2.0878 14.933 2.24408 15.0893C2.40036 15.2455 2.61232 15.3333 2.83333 15.3333H12M12 15.3333C10.58 13.0267 8.31083 11.8767 6.12083 11.3692C4.1975 10.9225 3.16917 10.9717 2 11.1667M5.75 4.5C5.33333 4.5 4.5 4.75 4.5 5.75C4.5 6.75 5.33333 7 5.75 7C6.16667 7 7 6.75 7 5.75C7 4.75 6.16667 4.5 5.75 4.5Z" stroke="#222222" stroke-width="1.5" stroke-linecap="round" stroke-linejoin="round"/>
<path d="M18.6673 5.33331V15.3333C18.6673 16.2174 18.3161 17.0652 17.691 17.6903C17.0659 18.3155 16.218 18.6666 15.334 18.6666H5.33398" stroke="#222222" stroke-width="1.5" stroke-linecap="round" stroke-linejoin="round"/>
</svg>
