<svg width="20" height="20" viewBox="0 0 20 20" fill="none" xmlns="http://www.w3.org/2000/svg">
<path d="M3.33398 9.58331V16.25C3.33398 16.692 3.50958 17.1159 3.82214 17.4285C4.1347 17.7411 4.55862 17.9166 5.00065 17.9166H15.0007C15.4427 17.9166 15.8666 17.7411 16.1792 17.4285C16.4917 17.1159 16.6673 16.692 16.6673 16.25V9.58331" stroke="#222222" stroke-width="1.5" stroke-linecap="round" stroke-linejoin="round"/>
<path d="M10 4.99998C10 4.22643 9.69271 3.48457 9.14573 2.93758C8.59875 2.3906 7.85688 2.08331 7.08333 2.08331C6.5308 2.08331 6.00089 2.30281 5.61019 2.69351C5.21949 3.08421 5 3.61411 5 4.16665C5 4.71918 5.21949 5.24908 5.61019 5.63979C6.00089 6.03049 6.5308 6.24998 7.08333 6.24998H10M10 4.99998V6.24998M10 4.99998C10 4.22643 10.3073 3.48457 10.8543 2.93758C11.4013 2.3906 12.1431 2.08331 12.9167 2.08331C13.4692 2.08331 13.9991 2.30281 14.3898 2.69351C14.7805 3.08421 15 3.61411 15 4.16665C15 4.44023 14.9461 4.71114 14.8414 4.9639C14.7367 5.21666 14.5833 5.44633 14.3898 5.63979C14.1964 5.83324 13.9667 5.9867 13.7139 6.0914C13.4612 6.19609 13.1903 6.24998 12.9167 6.24998H10" stroke="#222222" stroke-width="1.5" stroke-linejoin="round"/>
<path d="M10 9.58333V17.9167M2.5 6.25H17.5V9.58333H2.5V6.25Z" stroke="#222222" stroke-width="1.5" stroke-linecap="round" stroke-linejoin="round"/>
</svg>
