<svg width="20" height="20" viewBox="0 0 20 20" fill="none" xmlns="http://www.w3.org/2000/svg">
<path fill-rule="evenodd" clip-rule="evenodd" d="M7.63475 2.87823C8.26198 2.251 9.11269 1.89862 9.99974 1.89862C10.8868 1.89862 11.7375 2.251 12.3647 2.87823C12.992 3.50546 13.3443 4.35617 13.3443 5.24322C13.3443 5.90403 13.1488 6.54469 12.7897 7.08781H14.4667H14.4668C14.8449 7.08778 15.2111 7.22046 15.5015 7.46272C15.7919 7.70501 15.988 8.04153 16.0557 8.41361L16.0557 8.41365L17.4715 16.1974L17.4715 16.1974C17.5138 16.4302 17.5045 16.6694 17.4442 16.8981C17.3839 17.1269 17.2741 17.3396 17.1225 17.5212C16.9709 17.7028 16.7813 17.8489 16.567 17.9492C16.3527 18.0494 16.1191 18.1013 15.8826 18.1013L14.473 16.6013H15.8826H15.8827C15.8995 16.6013 15.9161 16.5976 15.9314 16.5905C15.9466 16.5834 15.9601 16.573 15.9709 16.5601C15.9817 16.5471 15.9895 16.532 15.9938 16.5157C15.9981 16.4995 15.9987 16.4825 15.9957 16.4659L15.9957 16.4659L14.5799 8.68211C14.5751 8.65565 14.5612 8.63171 14.5405 8.61448C14.5198 8.59724 14.4938 8.58781 14.4669 8.58781H14.4668H9.99974H6.94244L5.53285 7.08781H7.20978C6.8507 6.54469 6.65514 5.90403 6.65514 5.24322C6.65514 4.35617 7.00752 3.50546 7.63475 2.87823ZM8.65383 10.409L6.94244 8.58781H6.94233L5.53273 7.08781C5.15458 7.08778 4.78841 7.22046 4.49805 7.46272C4.20766 7.70501 4.01151 8.04153 3.94382 8.41361L3.94381 8.41365L2.52803 16.1974L2.52803 16.1974C2.48569 16.4302 2.495 16.6694 2.5553 16.8981C2.61561 17.1269 2.72544 17.3396 2.87702 17.5212C3.0286 17.7028 3.21824 17.8489 3.43252 17.9492C3.64677 18.0494 3.88042 18.1013 4.11695 18.1013H4.11706H15.8825L14.4729 16.6013H14.473L12.6879 14.7017C12.8199 14.6662 12.9449 14.6185 13.0629 14.5587C13.3548 14.4099 13.5836 14.1966 13.7492 13.9187C13.9162 13.6393 13.9998 13.3032 13.9998 12.9102V12.3122H12.0881V13.146H12.871C12.8679 13.2663 12.8386 13.3716 12.7828 13.4618C12.7239 13.5572 12.6348 13.6309 12.5154 13.6829C12.3975 13.7348 12.2495 13.7608 12.0712 13.7608C11.9573 13.7608 11.8538 13.7456 11.7609 13.7153L11.2408 13.1619C11.1824 12.9911 11.1533 12.7893 11.1533 12.5565C11.1533 12.3066 11.189 12.0933 11.2606 11.9164C11.3336 11.7396 11.4389 11.6041 11.5764 11.5101C11.7154 11.416 11.8831 11.369 12.0796 11.369C12.1709 11.369 12.2544 11.3795 12.3302 11.4006C12.4074 11.4203 12.4747 11.4504 12.5323 11.4911C12.5912 11.5304 12.6404 11.5789 12.6797 11.6364C12.719 11.6926 12.7477 11.7578 12.766 11.8322H13.9492C13.9268 11.6161 13.8636 11.4174 13.7597 11.2364C13.6559 11.0553 13.519 10.8988 13.3492 10.7669C13.1808 10.6335 12.9864 10.5311 12.766 10.4595C12.547 10.3865 12.3098 10.35 12.0544 10.35C11.7638 10.35 11.4915 10.3991 11.2375 10.4974C10.9834 10.5942 10.7595 10.7381 10.5658 10.929C10.3721 11.1185 10.2206 11.3508 10.1111 11.6259C10.0799 11.7053 10.0532 11.7882 10.031 11.8744L9.33806 11.1371L9.89054 10.409H8.65383ZM8.65371 10.409L6.94233 8.58781H5.53273H5.53262C5.50572 8.58781 5.47967 8.59724 5.45901 8.61448C5.43837 8.6317 5.42442 8.65563 5.4196 8.68208L5.41959 8.68211L4.00381 16.4659L4.00381 16.4659C4.0008 16.4825 4.00146 16.4995 4.00575 16.5157C4.01004 16.532 4.01785 16.5471 4.02863 16.5601C4.03942 16.573 4.0529 16.5834 4.06814 16.5905C4.08338 16.5976 4.10001 16.6013 4.11684 16.6013H4.11695H14.4729L12.6878 14.7018C12.4946 14.7538 12.2862 14.7798 12.0628 14.7798C11.6431 14.7798 11.2747 14.6906 10.9574 14.5124C10.6402 14.3341 10.3925 14.0801 10.2142 13.7502C10.0374 13.4204 9.94896 13.0281 9.94896 12.5733C9.94896 12.3198 9.97629 12.0869 10.0309 11.8745L9.33801 11.1371L8.4336 12.3291L9.92422 14.7208H8.52624L7.55775 13.1039L7.17036 13.6092V14.7208H5.99976V10.409H7.17036V12.1522H7.22931L8.52624 10.409H8.65371ZM11.2409 13.1621C11.2459 13.1766 11.251 13.1909 11.2564 13.2049C11.3252 13.3846 11.4277 13.5221 11.5638 13.6176C11.6232 13.6592 11.6888 13.6917 11.7607 13.7152L11.2409 13.1621ZM11.3041 6.54754C10.9581 6.89347 10.489 7.08781 9.99974 7.08781C9.51052 7.08781 9.04134 6.89347 8.69541 6.54754C8.34948 6.20161 8.15514 5.73243 8.15514 5.24322C8.15514 4.754 8.34948 4.28482 8.69541 3.93889C9.04134 3.59296 9.51052 3.39862 9.99974 3.39862C10.489 3.39862 10.9581 3.59296 11.3041 3.93889C11.65 4.28482 11.8443 4.754 11.8443 5.24322C11.8443 5.73243 11.65 6.20161 11.3041 6.54754Z" fill="#222222"/>
</svg>
