<svg width="20" height="20" viewBox="0 0 20 20" fill="none" xmlns="http://www.w3.org/2000/svg">
<path fill-rule="evenodd" clip-rule="evenodd" d="M13.8254 3.6721C12.6103 3.04853 11.2825 2.65454 9.99922 2.65454C7.93993 2.65454 5.76598 3.66908 4.12702 5.01882C2.51418 6.34704 1.19922 8.18762 1.19922 10C1.19922 11.484 2.0808 12.9868 3.28565 14.2119L4.41657 13.081C3.38577 12.0312 2.79922 10.9021 2.79922 10C2.79922 8.90328 3.66608 7.47114 5.14415 6.2539C6.59609 5.05819 8.42214 4.25454 9.99922 4.25454C10.8358 4.25454 11.7424 4.48067 12.6261 4.87149L13.8254 3.6721ZM11.6252 5.87234C11.1122 5.67027 10.5612 5.56363 9.99922 5.56363C8.82262 5.56363 7.69422 6.03103 6.86224 6.86301C6.03026 7.69499 5.56286 8.8234 5.56286 10C5.56286 10.562 5.66949 11.113 5.87157 11.626L7.18061 10.3169C7.16884 10.2122 7.16286 10.1064 7.16286 10C7.16286 9.24775 7.46169 8.52631 7.99361 7.99438C8.52553 7.46246 9.24697 7.16363 9.99922 7.16363C10.1056 7.16363 10.2114 7.16961 10.3162 7.18139L11.6252 5.87234ZM12.6766 9.06362L13.8835 7.85668C14.2425 8.50725 14.4356 9.24367 14.4356 10C14.4356 11.1766 13.9682 12.305 13.1362 13.137C12.3042 13.969 11.1758 14.4364 9.99922 14.4364C9.24289 14.4364 8.50647 14.2432 7.85591 13.8843L9.06284 12.6773C9.36103 12.7816 9.67731 12.8364 9.99922 12.8364C10.7515 12.8364 11.4729 12.5375 12.0048 12.0056C12.5368 11.4737 12.8356 10.7522 12.8356 10C12.8356 9.67808 12.7809 9.36181 12.6766 9.06362ZM6.85867 14.8815C7.89976 15.4225 8.99951 15.7455 9.99922 15.7455C11.5763 15.7455 13.4023 14.9418 14.8543 13.7461C16.3324 12.5289 17.1992 11.0967 17.1992 10C17.1992 8.99006 16.4641 7.69568 15.1936 6.54662L16.3259 5.41425C17.7242 6.6995 18.7992 8.36128 18.7992 10C18.7992 11.8124 17.4843 13.653 15.8714 14.9812C14.2325 16.3309 12.0585 17.3455 9.99922 17.3455C8.54029 17.3455 7.02382 16.8362 5.6808 16.0594L6.85867 14.8815Z" fill="#222222"/>
<path d="M17.0723 2.68756L2.93013 16.8297" stroke="#222222" stroke-width="1.6" stroke-linecap="round"/>
</svg>
