<svg width="20" height="20" viewBox="0 0 20 20" fill="none" xmlns="http://www.w3.org/2000/svg">
<path d="M6.00293 5.8783C6.27069 5.87831 6.4873 6.09588 6.4873 6.36365C6.48729 6.6314 6.27068 6.84801 6.00293 6.84802C5.73517 6.84802 5.51759 6.63141 5.51758 6.36365C5.51758 6.09587 5.73516 5.8783 6.00293 5.8783Z" stroke="#222222" stroke-width="0.969697" stroke-linecap="round"/>
<path d="M9.08984 6.36371H14.2389" stroke="#222222" stroke-width="1.33333" stroke-linecap="round"/>
<path d="M6.00293 9.51468C6.27069 9.51469 6.4873 9.73227 6.4873 10C6.48729 10.2678 6.27068 10.4844 6.00293 10.4844C5.73517 10.4844 5.51759 10.2678 5.51758 10C5.51758 9.73226 5.73516 9.51468 6.00293 9.51468Z" stroke="#222222" stroke-width="0.969697" stroke-linecap="round"/>
<path d="M9.08984 10H14.2389" stroke="#222222" stroke-width="1.33333" stroke-linecap="round"/>
<path d="M6.00293 13.151C6.27069 13.151 6.4873 13.3686 6.4873 13.6364C6.48729 13.9041 6.27068 14.1207 6.00293 14.1208C5.73517 14.1208 5.51759 13.9041 5.51758 13.6364C5.51758 13.3686 5.73516 13.151 6.00293 13.151Z" stroke="#222222" stroke-width="0.969697" stroke-linecap="round"/>
<path d="M9.08984 13.6363H14.2389" stroke="#222222" stroke-width="1.33333" stroke-linecap="round"/>
<path d="M14.1212 2H5.87879C3.73659 2 2 3.73659 2 5.87879V14.1212C2 16.2634 3.73659 18 5.87879 18H14.1212C16.2634 18 18 16.2634 18 14.1212V5.87879C18 3.73659 16.2634 2 14.1212 2Z" stroke="#222222" stroke-width="1.33333" stroke-linecap="round"/>
</svg>
