<svg width="20" height="20" viewBox="0 0 20 20" fill="none" xmlns="http://www.w3.org/2000/svg">
<path d="M4.75637 4.51842C7.79036 1.48475 12.705 1.47468 15.7339 4.50279C18.7629 7.53265 18.7521 12.4474 15.7173 15.4813C12.6842 18.5149 7.7697 18.5257 4.74075 15.4969C3.92729 14.6845 3.30534 13.7004 2.92044 12.617C2.88439 12.5154 2.86897 12.4074 2.87454 12.2997C2.88015 12.192 2.90633 12.0864 2.95266 11.9891C2.99899 11.8918 3.06408 11.8045 3.14407 11.7323C3.22422 11.66 3.31872 11.6043 3.42044 11.5682C3.52191 11.5323 3.62933 11.5158 3.73684 11.5213C3.84462 11.5269 3.95092 11.5541 4.04837 11.6004C4.14568 11.6468 4.233 11.7118 4.3052 11.7919C4.3774 11.8719 4.43316 11.9657 4.46926 12.0672C4.77228 12.9202 5.26234 13.6952 5.90286 14.3348C8.28599 16.7178 12.1608 16.7144 14.5562 14.3182C16.9522 11.9227 16.9548 8.04792 14.5718 5.6649C12.1888 3.28222 8.31401 3.28556 5.91946 5.68053C5.5981 6.00141 5.31409 6.35666 5.0718 6.73814L5.77688 6.54283C5.86717 6.51381 5.96272 6.5029 6.05715 6.51158C6.15157 6.52027 6.24322 6.54863 6.32669 6.59361C6.40994 6.63849 6.48342 6.69945 6.54251 6.7733C6.60165 6.84736 6.64599 6.93297 6.67141 7.02428C6.69683 7.11564 6.70336 7.21151 6.69094 7.30553C6.67853 7.39953 6.6474 7.4905 6.59915 7.57213C6.55091 7.65366 6.486 7.72399 6.40969 7.78013C6.33331 7.83633 6.24613 7.87652 6.15383 7.8983L3.77883 8.56041C3.30314 8.69268 2.80986 8.41493 2.67825 7.93931L2.02493 5.56529C1.97573 5.38531 1.99996 5.19325 2.09231 5.03111C2.18478 4.86883 2.33796 4.74943 2.51809 4.70006H2.51712C2.6063 4.67535 2.69968 4.6692 2.79153 4.68053C2.88327 4.69186 2.97184 4.7209 3.05227 4.76646C3.13273 4.81207 3.2034 4.87323 3.26028 4.94615C3.31718 5.01915 3.35969 5.10302 3.3843 5.19224L3.60305 5.98814C3.92669 5.45534 4.31334 4.96119 4.75637 4.51842ZM9.98001 6.67564C10.198 6.67564 10.4069 6.76274 10.5611 6.91685C10.7152 7.07096 10.8023 7.27998 10.8023 7.49791V10.3192L12.4566 11.3133C12.6348 11.4294 12.7613 11.61 12.8091 11.8172C12.8569 12.0245 12.8228 12.2423 12.7134 12.4247C12.6041 12.6069 12.4283 12.7393 12.2232 12.7948C12.0178 12.8502 11.7982 12.8242 11.6118 12.7215L9.63723 11.5379C9.49111 11.4503 9.37061 11.3258 9.28665 11.1776C9.20271 11.0293 9.15864 10.8617 9.15872 10.6913V7.49791C9.15872 7.28004 9.24495 7.07095 9.39895 6.91685C9.55303 6.76278 9.76211 6.67568 9.98001 6.67564Z" fill="#222222"/>
</svg>
