<svg width="20" height="20" viewBox="0 0 20 20" fill="none" xmlns="http://www.w3.org/2000/svg">
<path d="M18.1189 9.87156L10.8986 2.655L10.4146 2.17103C10.3043 2.06148 10.1552 2 9.99977 2C9.84434 2 9.69521 2.06148 9.58494 2.17103L1.88067 9.87156C1.76768 9.98411 1.67838 10.1182 1.61804 10.2658C1.55771 10.4134 1.52756 10.5716 1.52937 10.7311C1.53685 11.3889 2.08435 11.9139 2.7421 11.9139L3.53626 11.9139L3.53626 18L16.4633 18L16.4633 11.9139L17.2743 11.9139C17.5938 11.9139 17.8946 11.7888 18.1207 11.5626C18.2321 11.4517 18.3203 11.3197 18.3803 11.1744C18.4402 11.0291 18.4708 10.8734 18.4702 10.7162C18.4702 10.3985 18.345 10.0977 18.1189 9.87156ZM11.0462 16.6546L8.95335 16.6546L8.95335 12.8426L11.0462 12.8426L11.0462 16.6546ZM15.1179 10.5685L15.1179 16.6546L12.2421 16.6546L12.2421 12.3942C12.2421 11.9812 11.9076 11.6467 11.4947 11.6467L8.50489 11.6467C8.09192 11.6467 7.75744 11.9812 7.75744 12.3942L7.75744 16.6546L4.88165 16.6546L4.88166 10.5685L3.08779 10.5685L10.0016 3.66031L10.4333 4.09195L16.9136 10.5685L15.1179 10.5685Z" fill="#222222"/>
</svg>
