<svg width="20" height="20" viewBox="0 0 20 20" fill="none" xmlns="http://www.w3.org/2000/svg">
<path d="M17.8333 10.3333H18.6667M15.75 4.91667L16.5833 4.08333M10.3333 2.83333V2M4.91667 4.91667L4.08333 4.08333M2.83333 10.3333H2M8.66667 18.6667H12M14.5 10.3333C14.4998 9.58218 14.2965 8.84505 13.9117 8.19995C13.5269 7.55485 12.9748 7.02577 12.314 6.66871C11.6531 6.31164 10.908 6.13987 10.1575 6.17156C9.40703 6.20326 8.67906 6.43725 8.05066 6.84876C7.42225 7.26028 6.91678 7.83402 6.58773 8.50926C6.25868 9.18451 6.11828 9.93616 6.1814 10.6847C6.24453 11.4332 6.50882 12.1507 6.94631 12.7613C7.3838 13.3719 7.97822 13.8529 8.66667 14.1533V16.1667H12V14.1533C12.7432 13.829 13.3757 13.2947 13.8197 12.6162C14.2638 11.9377 14.5002 11.1443 14.5 10.3333Z" stroke="#222222" stroke-width="1.5" stroke-linecap="round" stroke-linejoin="round"/>
</svg>
