<svg width="20" height="20" viewBox="0 0 20 20" fill="none" xmlns="http://www.w3.org/2000/svg">
<path d="M9.99919 3.33335C5.90335 3.33335 2.57419 6.14835 2.50002 10.6809C2.49969 10.7009 2.50337 10.7208 2.51087 10.7394C2.51836 10.758 2.5295 10.7749 2.54364 10.7891C2.55778 10.8034 2.57463 10.8146 2.59319 10.8222C2.61175 10.8298 2.63164 10.8336 2.65169 10.8334C2.68159 10.8332 2.71081 10.8245 2.73592 10.8082C2.76102 10.792 2.78095 10.7689 2.79335 10.7417C3.22919 9.80585 3.98419 9.58335 4.99919 9.58335C5.98669 9.58335 6.63585 9.77252 7.04585 10.6684C7.09085 10.7684 7.18919 10.8334 7.29919 10.8334C7.35759 10.8315 7.41425 10.813 7.46241 10.7799C7.51057 10.7468 7.54821 10.7006 7.57086 10.6467C7.96586 9.77419 9.08335 9.58335 9.99919 9.58335M9.99919 3.33335C14.0959 3.33335 17.4242 6.14835 17.4984 10.6809C17.4987 10.7009 17.495 10.7208 17.4875 10.7394C17.48 10.758 17.4689 10.7749 17.4547 10.7891C17.4406 10.8034 17.4237 10.8146 17.4052 10.8222C17.3866 10.8298 17.3667 10.8336 17.3467 10.8334C17.3168 10.8332 17.2876 10.8245 17.2625 10.8082C17.2374 10.792 17.2174 10.7689 17.205 10.7417C16.7684 9.80585 16.0134 9.58335 14.9992 9.58335C14.0117 9.58335 13.3625 9.77252 12.9525 10.6684C12.9305 10.7172 12.8949 10.7587 12.85 10.788C12.8051 10.8172 12.7528 10.833 12.6992 10.8334C12.6408 10.8315 12.5841 10.813 12.536 10.7799C12.4878 10.7468 12.4502 10.7006 12.4275 10.6467C12.0325 9.77419 10.915 9.58335 9.99919 9.58335M9.99919 3.33335V1.66669M9.99919 9.58335V16.6667C9.99919 17.1087 9.82359 17.5326 9.51103 17.8452C9.19847 18.1578 8.77455 18.3334 8.33252 18.3334C7.89049 18.3334 7.46657 18.1578 7.15401 17.8452C6.84145 17.5326 6.66585 17.1087 6.66585 16.6667" stroke="#222222" stroke-width="1.5" stroke-linecap="round" stroke-linejoin="round"/>
</svg>
