<svg width="20" height="20" viewBox="0 0 20 20" fill="none" xmlns="http://www.w3.org/2000/svg">
<path d="M9.68418 5.02574L9.86817 3.13065C9.94097 2.36909 10.6521 1.85232 11.3705 2.03791C12.4512 2.31789 13.2104 3.32184 13.2104 4.47297V6.90084C13.2104 7.44081 13.2104 7.71119 13.3272 7.90878C13.3936 8.02158 13.4848 8.11677 13.5936 8.18477C13.7856 8.30556 14.0471 8.30556 14.5695 8.30556H14.8863C16.2486 8.30556 16.9294 8.30556 17.3486 8.61754C17.6629 8.85193 17.8845 9.19511 17.9725 9.58389C18.0893 10.1039 17.8277 10.7542 17.3038 12.0534L17.043 12.7013C16.8917 13.0766 16.8298 13.4819 16.8622 13.8852C17.0478 16.1843 15.2247 18.121 12.996 17.9938L4.65726 17.5146C3.74611 17.4626 3.29094 17.4362 2.87976 17.0723C2.46779 16.7083 2.39019 16.3331 2.2358 15.5836C1.9072 13.9889 1.9222 12.3426 2.2798 10.7542C2.50618 9.75588 3.45973 9.21831 4.44447 9.3463C7.05553 9.68228 9.4226 7.73039 9.68418 5.02574Z" stroke="#222222" stroke-width="1.5" stroke-linecap="round" stroke-linejoin="round"/>
<path d="M6.00174 9.6001L5.89215 9.96568C5.18267 12.3307 5.22095 14.8572 6.00174 17.1997" stroke="#222222" stroke-width="1.5" stroke-linecap="round" stroke-linejoin="round"/>
</svg>
