<svg width="20" height="20" viewBox="0 0 20 20" fill="none" xmlns="http://www.w3.org/2000/svg">
<path d="M5.62499 14.1208C3.41825 11.7482 3.45728 8.02933 5.74987 5.72016C6.64837 4.81122 7.81667 4.21714 9.08047 4.02657L9.01315 2.00031C7.239 2.21452 5.58958 3.0229 4.33334 4.29387C1.26126 7.38643 1.22419 12.3804 4.21334 15.5432L2.51487 17.2524L7.89027 17.546L7.87564 11.8545L5.62499 14.1208ZM12.1096 2.45395L12.1242 8.14543L14.3749 5.88015C16.5816 8.25469 16.5426 11.9736 14.25 14.2808C13.3517 15.19 12.1833 15.7841 10.9194 15.9744L10.9867 17.9997C12.7609 17.7852 14.4104 16.9773 15.6675 15.7071C18.7386 12.6126 18.7757 7.61862 15.7865 4.45777L17.485 2.74662L12.1096 2.45395Z" fill="#222222"/>
</svg>
