<svg width="20" height="20" viewBox="0 0 20 20" fill="none" xmlns="http://www.w3.org/2000/svg">
<path d="M14.571 7.33333H13.8091V5.80952C13.8091 3.70667 12.1024 2 9.99954 2C7.89668 2 6.19001 3.70667 6.19001 5.80952V7.33333H5.42811C4.59001 7.33333 3.9043 8.01905 3.9043 8.85714V16.4762C3.9043 17.3143 4.59001 18 5.42811 18H14.571C15.4091 18 16.0948 17.3143 16.0948 16.4762V8.85714C16.0948 8.01905 15.4091 7.33333 14.571 7.33333ZM7.71382 5.80952C7.71382 4.54476 8.73477 3.52381 9.99954 3.52381C11.2643 3.52381 12.2852 4.54476 12.2852 5.80952V7.33333H7.71382V5.80952ZM14.571 16.4762H5.42811V8.85714H14.571V16.4762ZM9.99954 14.1905C10.8376 14.1905 11.5233 13.5048 11.5233 12.6667C11.5233 11.8286 10.8376 11.1429 9.99954 11.1429C9.16144 11.1429 8.47573 11.8286 8.47573 12.6667C8.47573 13.5048 9.16144 14.1905 9.99954 14.1905Z" fill="#222222"/>
</svg>
