<svg width="20" height="20" viewBox="0 0 20 20" fill="none" xmlns="http://www.w3.org/2000/svg">
<path fill-rule="evenodd" clip-rule="evenodd" d="M2 4.63548C2 4.06362 2.46358 3.60004 3.03544 3.60004H16.9646C17.5364 3.60004 18 4.06362 18 4.63548C18 5.20733 17.5364 5.67091 16.9646 5.67091H3.03544C2.46358 5.67091 2 5.20733 2 4.63548ZM2 10C2 9.42817 2.46358 8.96459 3.03544 8.96459H16.9646C17.5364 8.96459 18 9.42817 18 10C18 10.5719 17.5364 11.0355 16.9646 11.0355H3.03544C2.46358 11.0355 2 10.5719 2 10ZM3.03544 14.3291C2.46358 14.3291 2 14.7927 2 15.3646C2 15.9364 2.46358 16.4 3.03544 16.4H16.9646C17.5364 16.4 18 15.9364 18 15.3646C18 14.7927 17.5364 14.3291 16.9646 14.3291H3.03544Z" fill="#222222"/>
</svg>
