<svg width="20" height="20" viewBox="0 0 20 20" fill="none" xmlns="http://www.w3.org/2000/svg">
<path fill-rule="evenodd" clip-rule="evenodd" d="M15.0007 11.6666C14.5586 11.6666 14.1347 11.4911 13.8221 11.1785C13.5096 10.8659 13.334 10.442 13.334 9.99998C13.334 9.55795 13.5096 9.13403 13.8221 8.82147C14.1347 8.50891 14.5586 8.33331 15.0007 8.33331C15.4427 8.33331 15.8666 8.50891 16.1792 8.82147C16.4917 9.13403 16.6673 9.55795 16.6673 9.99998C16.6673 10.442 16.4917 10.8659 16.1792 11.1785C15.8666 11.4911 15.4427 11.6666 15.0007 11.6666ZM5.00065 11.6666C4.55862 11.6666 4.1347 11.4911 3.82214 11.1785C3.50958 10.8659 3.33398 10.442 3.33398 9.99998C3.33398 9.55795 3.50958 9.13403 3.82214 8.82147C4.1347 8.50891 4.55862 8.33331 5.00065 8.33331C5.44268 8.33331 5.8666 8.50891 6.17916 8.82147C6.49172 9.13403 6.66732 9.55795 6.66732 9.99998C6.66732 10.442 6.49172 10.8659 6.17916 11.1785C5.8666 11.4911 5.44268 11.6666 5.00065 11.6666ZM10.0007 11.6666C9.55862 11.6666 9.1347 11.4911 8.82214 11.1785C8.50958 10.8659 8.33398 10.442 8.33398 9.99998C8.33398 9.55795 8.50958 9.13403 8.82214 8.82147C9.1347 8.50891 9.55862 8.33331 10.0007 8.33331C10.4427 8.33331 10.8666 8.50891 11.1792 8.82147C11.4917 9.13403 11.6673 9.55795 11.6673 9.99998C11.6673 10.442 11.4917 10.8659 11.1792 11.1785C10.8666 11.4911 10.4427 11.6666 10.0007 11.6666Z" fill="#222222"/>
</svg>
