<svg width="20" height="20" viewBox="0 0 20 20" fill="none" xmlns="http://www.w3.org/2000/svg">
<path d="M9.37509 6.875C9.37509 6.70924 9.44094 6.55027 9.55815 6.43306C9.67536 6.31585 9.83433 6.25 10.0001 6.25H13.1251C13.2909 6.25 13.4498 6.31585 13.567 6.43306C13.6842 6.55027 13.7501 6.70924 13.7501 6.875V10C13.7501 10.1658 13.6842 10.3247 13.567 10.4419C13.4498 10.5592 13.2909 10.625 13.1251 10.625C12.9593 10.625 12.8004 10.5592 12.6831 10.4419C12.5659 10.3247 12.5001 10.1658 12.5001 10V8.38375L9.19259 11.6925C9.13448 11.7506 9.0655 11.7967 8.98957 11.8282C8.91365 11.8596 8.83227 11.8758 8.75009 11.8758C8.66791 11.8758 8.58654 11.8596 8.51061 11.8282C8.43469 11.7967 8.3657 11.7506 8.30759 11.6925C8.24948 11.6344 8.20339 11.5654 8.17194 11.4895C8.14049 11.4136 8.1243 11.3322 8.1243 11.25C8.1243 11.1678 8.14049 11.0864 8.17194 11.0105C8.20339 10.9346 8.24948 10.8656 8.30759 10.8075L11.6163 7.5H10.0001C9.83433 7.5 9.67536 7.43415 9.55815 7.31694C9.44094 7.19973 9.37509 7.04076 9.37509 6.875ZM5.16634 4.615C5.3773 3.9979 5.77596 3.46222 6.30651 3.08297C6.83706 2.70372 7.47293 2.49988 8.12509 2.5H14.3751C15.2039 2.5 15.9987 2.82924 16.5848 3.41529C17.1709 4.00134 17.5001 4.7962 17.5001 5.625V11.875C17.5001 13.2475 16.6151 14.4125 15.3851 14.8337V15.2887C15.3851 15.7075 15.2388 16.2425 14.8951 16.6837C14.5338 17.1487 13.9601 17.5 13.1738 17.5H5.96134C5.50582 17.5032 5.05421 17.4157 4.63276 17.2428C4.21131 17.0699 3.82844 16.815 3.50638 16.4928C3.18433 16.1707 2.92952 15.7877 2.75677 15.3662C2.58402 14.9447 2.49677 14.493 2.50009 14.0375V6.82875C2.50009 6.1425 2.74634 5.57125 3.18259 5.175C3.60759 4.78875 4.16384 4.61625 4.71134 4.61625H5.16634V4.615ZM5.00009 5.865H4.71259C4.46139 5.85495 4.21544 5.93872 4.02259 6.1C3.87509 6.23375 3.75009 6.455 3.75009 6.8275V14.0387C3.75009 15.28 4.72009 16.2512 5.96259 16.2512H13.1738C13.5476 16.2512 13.7663 16.1 13.9088 15.9162C14.0465 15.7352 14.1251 15.5161 14.1338 15.2887V15H8.12509C7.29629 15 6.50143 14.6708 5.91538 14.0847C5.32933 13.4987 5.00009 12.7038 5.00009 11.875V5.865ZM8.12509 3.75C7.62781 3.75 7.1509 3.94754 6.79927 4.29917C6.44764 4.65081 6.25009 5.12772 6.25009 5.625V11.875C6.25009 12.3723 6.44764 12.8492 6.79927 13.2008C7.1509 13.5525 7.62781 13.75 8.12509 13.75H14.3751C14.8724 13.75 15.3493 13.5525 15.7009 13.2008C16.0525 12.8492 16.2501 12.3723 16.2501 11.875V5.625C16.2501 5.12772 16.0525 4.65081 15.7009 4.29917C15.3493 3.94754 14.8724 3.75 14.3751 3.75H8.12509Z" fill="#222222"/>
</svg>
