<svg width="20" height="20" viewBox="0 0 20 20" fill="none" xmlns="http://www.w3.org/2000/svg">
<path fill-rule="evenodd" clip-rule="evenodd" d="M2 2.72025C2 2.32247 2.32247 2 2.72025 2H9.17732C9.84584 2.00014 10.4871 2.26583 10.9597 2.73862L17.2619 9.04075C17.7345 9.51349 18 10.1546 18 10.8231C18 11.4915 17.7345 12.1326 17.2619 12.6054L12.6054 17.2619C12.1327 17.7345 11.4915 18 10.8231 18C10.1546 18 9.51356 17.7345 9.04083 17.2619L2.73862 10.9597C2.26583 10.4871 2.00014 9.84599 2 9.17747V2.72025ZM3.44051 3.44051V9.17716C3.44051 9.17711 3.44051 9.17721 3.44051 9.17716C3.44061 9.46362 3.55447 9.73846 3.75706 9.94099L10.0593 16.2432C10.2619 16.4457 10.5366 16.5595 10.8231 16.5595C11.1096 16.5595 11.3843 16.4457 11.5869 16.2432L16.2432 11.5869C16.4457 11.3843 16.5595 11.1096 16.5595 10.8231C16.5595 10.5366 16.4457 10.2619 16.2432 10.0593L9.94107 3.75713C9.73854 3.55454 9.46377 3.44061 9.17732 3.44051C9.17727 3.44051 9.17737 3.44051 9.17732 3.44051H3.44051Z" fill="#222222"/>
<path fill-rule="evenodd" clip-rule="evenodd" d="M5.87109 7.22181C5.87109 6.47597 6.47572 5.87134 7.22157 5.87134H7.23057C7.97642 5.87134 8.58104 6.47597 8.58104 7.22181V7.23081C8.58104 7.97666 7.97642 8.58129 7.23057 8.58129H7.22157C6.47572 8.58129 5.87109 7.97666 5.87109 7.23081V7.22181Z" fill="#222222"/>
</svg>
