<svg width="20" height="20" viewBox="0 0 20 20" fill="none" xmlns="http://www.w3.org/2000/svg">
<path d="M9.13689 1.59064C9.40093 1.44401 9.69798 1.36707 10 1.36707C10.302 1.36707 10.5991 1.44401 10.8631 1.59064L17.5431 5.30087C17.6816 5.37788 17.797 5.49052 17.8773 5.62711C17.9577 5.76371 18 5.91929 18 6.07776V13.3978C17.9999 13.7148 17.9151 14.026 17.7543 14.2992C17.5934 14.5724 17.3625 14.7976 17.0853 14.9515L10.8631 18.4093C10.5991 18.5559 10.302 18.6329 10 18.6329C9.69798 18.6329 9.40093 18.5559 9.13689 18.4093L2.91467 14.9515C2.63765 14.7977 2.40678 14.5726 2.24597 14.2996C2.08515 14.0266 2.00023 13.7155 2 13.3986V6.07776C1.99999 5.91929 2.04235 5.76371 2.12268 5.62711C2.20301 5.49052 2.3184 5.37788 2.45689 5.30087L9.13689 1.59064Z" stroke="#222222" stroke-width="1.33" stroke-linecap="round" stroke-linejoin="round"/>
<path d="M5.99935 3.33289L13.9993 7.77733V10.8884M4.66602 10.2911L7.33268 11.7773" stroke="#222222" stroke-width="1.33" stroke-linecap="round" stroke-linejoin="round"/>
<path d="M2 5.55499L10 9.99944M10 9.99944L18 5.55499M10 9.99944V18.4439" stroke="#222222" stroke-width="1.33" stroke-linejoin="round"/>
</svg>
