<svg width="20" height="20" viewBox="0 0 20 20" fill="none" xmlns="http://www.w3.org/2000/svg">
<path d="M6.44531 8.22222V6.44444C6.44531 3.99022 7.54665 2 10.0009 2C12.4551 2 13.5564 3.99022 13.5564 6.44444V8.22222M10.0009 13.3333V12.8889M13.5564 13.3333V12.8889M6.44531 13.3333V12.8889M2.44531 15.1556V11.0667C2.44531 10.0711 2.44531 9.57333 2.63909 9.19378C2.80938 8.85895 3.08135 8.58667 3.41598 8.416C3.79642 8.22311 4.2942 8.22311 5.28976 8.22311H14.712C15.7075 8.22311 16.2053 8.22311 16.5858 8.416C16.9203 8.58644 17.1922 8.85839 17.3626 9.19289C17.5564 9.57333 17.5564 10.0711 17.5564 11.0667V15.1556C17.5564 16.1511 17.5564 16.6489 17.3626 17.0293C17.1922 17.3638 16.9203 17.6358 16.5858 17.8062C16.2053 18 15.7075 18 14.712 18H5.28976C4.2942 18 3.79642 18 3.41598 17.8062C3.08148 17.6358 2.80953 17.3638 2.63909 17.0293C2.44531 16.6498 2.44531 16.152 2.44531 15.1556Z" stroke="#222222" stroke-width="1.5" stroke-linecap="round" stroke-linejoin="round"/>
</svg>
