<svg width="20" height="20" viewBox="0 0 20 20" fill="none" xmlns="http://www.w3.org/2000/svg">
<path d="M9.99906 11.6666C10.4411 11.6666 10.865 11.491 11.1776 11.1785C11.4901 10.8659 11.6657 10.442 11.6657 9.99998C11.6657 9.55795 11.4901 9.13403 11.1776 8.82147C10.865 8.50891 10.4411 8.33331 9.99906 8.33331C9.55704 8.33331 9.13311 8.50891 8.82055 8.82147C8.50799 9.13403 8.3324 9.55795 8.3324 9.99998C8.3324 10.442 8.50799 10.8659 8.82055 11.1785C9.13311 11.491 9.55704 11.6666 9.99906 11.6666ZM4.99906 9.99998C4.99906 9.34337 5.12839 8.69319 5.37967 8.08656C5.63094 7.47993 5.99924 6.92874 6.46353 6.46444C6.92782 6.00015 7.47902 5.63185 8.08565 5.38058C8.69227 5.12931 9.34245 4.99998 9.99906 4.99998C10.6557 4.99998 11.3059 5.12931 11.9125 5.38058C12.5191 5.63185 13.0703 6.00015 13.5346 6.46444C13.9989 6.92874 14.3672 7.47993 14.6185 8.08656C14.8697 8.69319 14.9991 9.34337 14.9991 9.99998C14.9991 11.3261 14.4723 12.5978 13.5346 13.5355C12.5969 14.4732 11.3251 15 9.99906 15C8.67298 15 7.40121 14.4732 6.46353 13.5355C5.52585 12.5978 4.99906 11.3261 4.99906 9.99998ZM9.99906 6.24998C9.0045 6.24998 8.05067 6.64507 7.34741 7.34833C6.64415 8.05159 6.24906 9.00542 6.24906 9.99998C6.24906 10.9945 6.64415 11.9484 7.34741 12.6516C8.05067 13.3549 9.0045 13.75 9.99906 13.75C10.9936 13.75 11.9475 13.3549 12.6507 12.6516C13.354 11.9484 13.7491 10.9945 13.7491 9.99998C13.7491 9.00542 13.354 8.05159 12.6507 7.34833C11.9475 6.64507 10.9936 6.24998 9.99906 6.24998ZM1.66406 9.99998C1.66406 5.39664 5.39573 1.66498 9.99906 1.66498C14.6024 1.66498 18.3341 5.39664 18.3341 9.99998C18.3341 14.6033 14.6024 18.335 9.99906 18.335C5.39573 18.335 1.66406 14.6033 1.66406 9.99998ZM9.99906 2.91498C9.06865 2.91498 8.14734 3.09824 7.28775 3.45429C6.42816 3.81035 5.64711 4.33222 4.98921 4.99013C4.33131 5.64803 3.80943 6.42907 3.45338 7.28867C3.09732 8.14826 2.91406 9.06956 2.91406 9.99998C2.91406 10.9304 3.09732 11.8517 3.45338 12.7113C3.80943 13.5709 4.33131 14.3519 4.98921 15.0098C5.64711 15.6677 6.42816 16.1896 7.28775 16.5457C8.14734 16.9017 9.06865 17.085 9.99906 17.085C11.8781 17.085 13.6802 16.3385 15.0089 15.0098C16.3376 13.6811 17.0841 11.879 17.0841 9.99998C17.0841 8.12092 16.3376 6.31882 15.0089 4.99013C13.6802 3.66143 11.8781 2.91498 9.99906 2.91498Z" fill="#222222"/>
</svg>
