<svg width="20" height="20" viewBox="0 0 20 20" fill="none" xmlns="http://www.w3.org/2000/svg">
<path d="M16.2992 8.8C16.2992 13.3 9.99922 17.5 9.99922 17.5C9.99922 17.5 3.69922 13.3 3.69922 8.8C3.69922 7.12914 4.36297 5.52671 5.54445 4.34523C6.72592 3.16375 8.32835 2.5 9.99922 2.5C11.6701 2.5 13.2725 3.16375 14.454 4.34523C15.6355 5.52671 16.2992 7.12914 16.2992 8.8Z" fill="#222222" stroke="#222222" stroke-width="1.5" stroke-linecap="round" stroke-linejoin="round"/>
<path d="M10 11.5C11.3807 11.5 12.5 10.3807 12.5 9C12.5 7.61929 11.3807 6.5 10 6.5C8.61929 6.5 7.5 7.61929 7.5 9C7.5 10.3807 8.61929 11.5 10 11.5Z" fill="white"/>
</svg>
