<svg width="20" height="20" viewBox="0 0 20 20" fill="none" xmlns="http://www.w3.org/2000/svg">
<path fill-rule="evenodd" clip-rule="evenodd" d="M9.2513 15.2513C9.2513 15.6648 9.58651 16 10 16C10.4135 16 10.7487 15.6648 10.7487 15.2513L10.7487 10.7487L15.2513 10.7487C15.6648 10.7487 16 10.4135 16 10C16 9.58649 15.6648 9.25128 15.2513 9.25128L10.7487 9.25128L10.7487 4.74872C10.7487 4.33521 10.4135 4 10 4C9.58651 4 9.2513 4.33521 9.2513 4.74872L9.2513 9.25128L4.74872 9.25128C4.33521 9.25128 4 9.58649 4 10C4 10.4135 4.33521 10.7487 4.74872 10.7487L9.2513 10.7487L9.2513 15.2513Z" fill="#222222"/>
</svg>
