<svg width="20" height="20" viewBox="0 0 20 20" fill="none" xmlns="http://www.w3.org/2000/svg">
<path d="M9.99935 14.1667L11.2994 11.3167L14.166 10L11.2994 8.70002L9.99935 5.83335L8.69102 8.70002L5.83269 10L8.69102 11.3167L9.99935 14.1667ZM6.80769 2.30002C7.82025 1.88331 8.9044 1.66818 9.99935 1.66669C11.091 1.66669 12.1744 1.88335 13.191 2.30002C14.1994 2.71669 15.116 3.33335 15.891 4.10835C16.666 4.88335 17.2827 5.80002 17.6994 6.80835C18.116 7.82502 18.3327 8.90835 18.3327 10C18.3327 12.2084 17.4577 14.3334 15.891 15.8917C15.1182 16.6667 14.1999 17.2813 13.1888 17.7003C12.1777 18.1194 11.0938 18.3345 9.99935 18.3334C8.9044 18.3319 7.82025 18.1167 6.80769 17.7C5.79774 17.2803 4.8803 16.6658 4.10769 15.8917C3.3327 15.1189 2.71805 14.2005 2.29903 13.1895C1.88001 12.1784 1.66489 11.0945 1.66602 10C1.66602 7.79169 2.54102 5.66669 4.10769 4.10835C4.88269 3.33335 5.79935 2.71669 6.80769 2.30002ZM5.28269 14.7167C6.53269 15.9667 8.23269 16.6667 9.99935 16.6667C11.766 16.6667 13.466 15.9667 14.716 14.7167C15.966 13.4667 16.666 11.7667 16.666 10C16.666 8.23335 15.966 6.53335 14.716 5.28335C14.0964 4.66446 13.361 4.1737 12.5517 3.83911C11.7424 3.50452 10.8751 3.33267 9.99935 3.33335C8.23269 3.33335 6.53269 4.03335 5.28269 5.28335C4.66379 5.90294 4.17303 6.63839 3.83844 7.44769C3.50386 8.25699 3.332 9.12428 3.33269 10C3.33269 11.7667 4.03269 13.4667 5.28269 14.7167Z" fill="#222222"/>
</svg>
