<svg width="20" height="20" viewBox="0 0 20 20" fill="none" xmlns="http://www.w3.org/2000/svg">
<path d="M17.8243 13.3875L14.4743 10L17.2993 7.17503C17.5899 6.88581 17.8205 6.54201 17.9779 6.1634C18.1353 5.78478 18.2163 5.3788 18.2163 4.96878C18.2163 4.55875 18.1353 4.15277 17.9779 3.77416C17.8205 3.39554 17.5899 3.05174 17.2993 2.76253C16.7135 2.17859 15.9201 1.85069 15.093 1.85069C14.2659 1.85069 13.4725 2.17859 12.8868 2.76253L11.7743 3.86253L10.0118 5.62503L6.61178 2.18753C6.31759 1.90044 5.92283 1.73975 5.51178 1.73975C5.10073 1.73975 4.70596 1.90044 4.41178 2.18753L2.19928 4.40003C2.05377 4.54517 1.93832 4.71759 1.85955 4.90742C1.78078 5.09725 1.74023 5.30075 1.74023 5.50628C1.74023 5.7118 1.78078 5.9153 1.85955 6.10513C1.93832 6.29496 2.05377 6.46738 2.19928 6.61253L5.63678 10L5.36178 10.275L4.24928 11.375L2.06178 15.95C1.9202 16.2422 1.87314 16.5711 1.92712 16.8913C1.98111 17.2114 2.13346 17.5067 2.36301 17.7363C2.59256 17.9658 2.88792 18.1182 3.20804 18.1722C3.52815 18.2262 3.85714 18.1791 4.14928 18.0375L8.67428 15.85L9.28678 15.2375L9.77428 14.75L10.0118 14.4625L13.3618 17.8125C13.656 18.0996 14.0507 18.2603 14.4618 18.2603C14.8728 18.2603 15.2676 18.0996 15.5618 17.8125L17.7743 15.6C17.9231 15.4582 18.0425 15.2884 18.1256 15.1003C18.2087 14.9123 18.2538 14.7097 18.2585 14.5042C18.2631 14.2986 18.2272 14.0942 18.1527 13.9026C18.0781 13.711 17.9666 13.5359 17.8243 13.3875ZM15.0868 3.38753C15.5022 3.38618 15.9016 3.54774 16.1993 3.83753C16.3448 3.98267 16.4602 4.15509 16.539 4.34492C16.6178 4.53475 16.6583 4.73825 16.6583 4.94378C16.6583 5.1493 16.6178 5.3528 16.539 5.54263C16.4602 5.73246 16.3448 5.90488 16.1993 6.05003L13.9868 3.90003C14.2813 3.61325 14.6757 3.45194 15.0868 3.45003V3.38753ZM3.29928 5.50003L5.51178 3.30003L6.53678 4.32503L5.44928 5.42503L6.54928 6.52503L7.64928 5.42503L8.89928 6.67503L6.73678 8.93753L3.29928 5.50003ZM3.46178 16.6375L5.42428 12.6L7.51178 14.675L3.46178 16.6375ZM8.67428 13.6375L6.46178 11.425L12.8868 5.00003L15.0868 7.20003L8.67428 13.6375ZM14.5118 16.7L11.1618 13.3625L13.3743 11.15L14.5368 12.3125L13.4368 13.4125L14.5368 14.525L15.6493 13.4125L16.7243 14.5L14.5118 16.7Z" fill="#222222"/>
</svg>
