<svg width="20" height="20" viewBox="0 0 20 20" fill="none" xmlns="http://www.w3.org/2000/svg">
<path d="M10.5814 1.88029L16.3755 4.05308C16.6911 4.17139 16.9631 4.38322 17.1551 4.66026C17.3471 4.93731 17.4499 5.26635 17.4499 5.60342V10.0425C17.4499 11.426 17.0647 12.7822 16.3374 13.9591C15.6101 15.1359 14.5694 16.087 13.332 16.7057L10.5557 18.0938C10.3833 18.1801 10.1931 18.225 10.0003 18.225C9.80753 18.225 9.61738 18.1801 9.44494 18.0938L6.66873 16.7057C5.43131 16.087 4.39063 15.1359 3.66331 13.9591C2.93598 12.7822 2.55075 11.426 2.55078 10.0425V5.60342C2.55074 5.26635 2.65359 4.93731 2.84558 4.66026C3.03757 4.38322 3.30955 4.17139 3.62517 4.05308L9.41928 1.88029C9.79393 1.73985 10.2068 1.73985 10.5814 1.88029ZM10.0003 3.43063L4.20624 5.60342V10.0425C4.20643 11.1185 4.5062 12.1731 5.07197 13.0883C5.63774 14.0034 6.44716 14.743 7.40955 15.2241L10.0003 16.5212L12.5911 15.2258C13.5538 14.7445 14.3634 14.0047 14.9291 13.0892C15.4949 12.1737 15.7946 11.1187 15.7944 10.0425V5.60342L10.0003 3.43063ZM10.0003 6.68526C10.2199 6.68526 10.4304 6.77246 10.5856 6.92769C10.7409 7.08292 10.8281 7.29346 10.8281 7.51299V9.16844H12.4835C12.7031 9.16844 12.9136 9.25565 13.0688 9.41088C13.2241 9.56611 13.3113 9.77665 13.3113 9.99617C13.3113 10.2157 13.2241 10.4262 13.0688 10.5815C12.9136 10.7367 12.7031 10.8239 12.4835 10.8239H10.8281V12.4794C10.8281 12.6989 10.7409 12.9094 10.5856 13.0647C10.4304 13.2199 10.2199 13.3071 10.0003 13.3071C9.78081 13.3071 9.57028 13.2199 9.41505 13.0647C9.25982 12.9094 9.17261 12.6989 9.17261 12.4794V10.8239H7.51716C7.29763 10.8239 7.08709 10.7367 6.93186 10.5815C6.77663 10.4262 6.68943 10.2157 6.68943 9.99617C6.68943 9.77665 6.77663 9.56611 6.93186 9.41088C7.08709 9.25565 7.29763 9.16844 7.51716 9.16844H9.17261V7.51299C9.17261 7.29346 9.25982 7.08292 9.41505 6.92769C9.57028 6.77246 9.78081 6.68526 10.0003 6.68526Z" fill="#222222"/>
</svg>
