<svg width="20" height="20" viewBox="0 0 20 20" fill="none" xmlns="http://www.w3.org/2000/svg">
<path d="M5.50152 16.8573H8.42783V13.5301H5.09455C4.62944 14.2807 4.4744 15.072 4.49378 15.782C4.51316 16.3501 4.92013 16.8167 5.46276 16.837C5.46276 16.8573 5.48214 16.8573 5.50152 16.8573Z" fill="black"/>
<path d="M4.2421 16.2892C4.12582 15.4574 4.2421 14.4836 4.80411 13.5504L6.43199 10.6087L7.18779 11.055L5.8506 8.35672L2.94367 8.49873L3.69947 8.96535L2.51732 11.0956C2.49794 11.1158 2.49794 11.1361 2.47856 11.1767C2.14911 11.8056 2.18787 12.5766 2.51732 13.2055L4.2421 16.2892Z" fill="black"/>
<path d="M15.0571 13.2866C15.9098 13.3272 16.6462 13.0837 17.2276 12.6983C17.6927 12.4142 17.8671 11.7853 17.6152 11.2984C17.6152 11.2781 17.5958 11.2578 17.5958 11.2578L16.123 8.60016L13.3711 10.2638L15.0571 13.2866Z" fill="black"/>
<path d="M11.9565 13.5504V12.6374L10.3867 15.1937L11.9565 17.7499V16.837H14.3014C14.3208 16.837 14.3595 16.837 14.3789 16.837C15.0766 16.8167 15.6967 16.4109 16.0262 15.782L17.7509 12.6983C17.1308 13.2258 16.2587 13.5909 15.1928 13.5504H11.9565Z" fill="black"/>
<path d="M9.8619 4.38033C9.47431 3.58911 8.89292 3.04134 8.29215 2.69645C7.82704 2.43271 7.22628 2.57472 6.93558 3.04134C6.93558 3.06162 6.9162 3.08191 6.9162 3.08191L5.44336 5.7396L8.19526 7.4032L9.8619 4.38033Z" fill="black"/>
<path d="M9.99805 4.11659L11.6259 7.05831L10.8701 7.50464L13.7771 7.64666L15.1142 4.94839L14.3584 5.41501L13.1763 3.2848C13.1569 3.26451 13.1569 3.24422 13.1375 3.22393C12.7693 2.6153 12.1298 2.25012 11.4321 2.25012H8.02133C8.02133 2.25012 8.02133 2.25012 8.00195 2.25012C8.75776 2.53415 9.51356 3.14278 9.99805 4.11659Z" fill="black"/>
</svg>
