<svg width="20" height="20" viewBox="0 0 20 20" fill="none" xmlns="http://www.w3.org/2000/svg">
<g clip-path="url(#clip0_90_926)">
<path d="M3.51465 1.30499C3.86688 1.3008 4.11571 1.58457 4.11621 1.96417C4.1171 2.51662 4.11629 3.06874 4.11621 3.6214C4.12174 3.61478 4.12831 3.60681 4.13574 3.59991L4.4082 3.35968C5.78116 2.19282 7.374 1.49182 9.1875 1.35187C12.4247 1.10187 15.0595 2.29515 17.0127 4.88605C18.3199 6.62008 18.8347 8.6096 18.6631 10.7708C18.3671 14.4962 15.5143 17.7313 11.8564 18.4974C8.03035 19.2984 4.27796 17.5915 2.37305 14.1712C1.664 12.8966 1.31928 11.5199 1.30273 10.0628C1.30073 9.87679 1.35922 9.71442 1.46387 9.59796C1.56874 9.48138 1.71762 9.41405 1.88965 9.41144C2.0675 9.40889 2.21794 9.47135 2.3252 9.58722C2.43175 9.7024 2.49208 9.86565 2.5 10.0569C2.56672 11.6632 2.98037 13.0428 3.74023 14.1849C4.50006 15.3268 5.60798 16.2346 7.06641 16.8958C10.2145 18.3233 14.0603 17.2212 16.0732 14.4026C17.0879 12.9814 17.559 11.3996 17.4971 9.65656C17.3913 6.66256 15.3205 3.86474 12.4756 2.92511C9.88609 2.07032 7.49743 2.48168 5.32812 4.14288C5.17194 4.26246 5.0221 4.38928 4.87012 4.54523C5.50656 4.54493 6.11048 4.54269 6.71387 4.5462C6.90333 4.54729 7.06622 4.61049 7.18066 4.72101C7.29517 4.8318 7.35808 4.98669 7.35352 5.16339C7.34581 5.46301 7.10759 5.73186 6.79883 5.7337C5.69161 5.7398 4.58293 5.7407 3.47559 5.73273C3.14034 5.72982 2.92385 5.44057 2.92285 5.08527L2.92188 2.76495L2.92285 1.95636C2.92637 1.58502 3.16913 1.3092 3.51465 1.30499Z" fill="#222222" stroke="#222222" stroke-width="0.1125"/>
<path d="M9.69922 5.69794C9.90279 5.62114 10.0934 5.61835 10.2988 5.69598C11.6795 6.21777 13.063 6.73206 14.4453 7.25067C14.6148 7.31413 14.736 7.38896 14.8125 7.50165C14.8888 7.61427 14.915 7.75674 14.915 7.9411V7.99677H14.9141V12.6159C14.9138 12.7955 14.8879 12.9341 14.8125 13.0446C14.737 13.1552 14.6184 13.2291 14.4521 13.2917C13.0636 13.8132 11.6745 14.3309 10.2871 14.8542C10.0873 14.9292 9.90132 14.9234 9.7041 14.8493C8.31721 14.3261 6.92754 13.8078 5.53906 13.2878C5.38423 13.2298 5.26945 13.1555 5.19434 13.0475C5.11923 12.9396 5.08888 12.8056 5.08887 12.6384C5.08793 11.0624 5.08793 9.48679 5.08887 7.91083C5.08911 7.74269 5.11723 7.60905 5.19141 7.50165C5.26571 7.39417 5.38087 7.32037 5.53809 7.26141L9.69922 5.69794ZM10.6602 9.85028C10.6205 9.86487 10.609 9.88138 10.6035 9.8952C10.5957 9.91516 10.5947 9.9415 10.5947 9.987C10.5961 11.1167 10.5989 12.2467 10.5928 13.3766C10.5925 13.4138 10.595 13.4377 10.5986 13.4518C10.6021 13.4653 10.6044 13.4619 10.5986 13.4587C10.5946 13.4565 10.5957 13.4598 10.6123 13.4567C10.6285 13.4538 10.6509 13.4463 10.6826 13.4343C11.6588 13.0638 12.6366 12.6968 13.6172 12.3366L13.6221 12.3347C13.6748 12.3147 13.6979 12.2942 13.71 12.2731C13.7235 12.2496 13.7297 12.216 13.7295 12.1589L13.7266 9.76923V8.70477C12.6872 9.09385 11.6746 9.4749 10.6602 9.85028ZM6.28027 8.70673C6.27756 8.71936 6.27637 8.73951 6.27637 8.7702C6.28012 9.91183 6.27965 11.0534 6.27637 12.195C6.27615 12.2395 6.282 12.2624 6.29102 12.277C6.29934 12.2905 6.31531 12.3063 6.35742 12.322L9.3418 13.4391C9.37122 13.4503 9.39142 13.456 9.4043 13.4577C9.40537 13.4578 9.40636 13.4576 9.40723 13.4577L9.4082 13.4557C9.4109 13.4432 9.41244 13.4229 9.41211 13.3923C9.40648 12.8241 9.40918 12.2546 9.40918 11.6872C9.40918 11.1197 9.40738 10.5511 9.41113 9.98309C9.41135 9.9362 9.40654 9.91007 9.39648 9.89227C9.38757 9.87654 9.36965 9.85994 9.3252 9.84344C8.32916 9.47486 7.33504 9.10082 6.34277 8.72333C6.31376 8.71223 6.29472 8.70656 6.28223 8.70477H6.28125L6.28027 8.70673ZM10.1543 6.91571C10.0477 6.87514 9.96609 6.8671 9.86523 6.90985C9.63361 7.00892 9.39111 7.08943 9.15918 7.17645C8.57076 7.39766 7.98239 7.61818 7.38086 7.84442C8.22868 8.16161 9.07859 8.477 9.92578 8.79852C9.98888 8.82212 10.0371 8.81437 10.1025 8.78973L10.1064 8.78778C10.689 8.56832 11.2725 8.3505 11.8555 8.13153C12.1043 8.038 12.3533 7.94374 12.6211 7.84344C12.6176 7.84211 12.6139 7.84084 12.6104 7.83954C11.7915 7.53252 10.9717 7.22756 10.1543 6.91571Z" fill="#222222" stroke="#222222" stroke-width="0.1125"/>
</g>
<defs>
<clipPath id="clip0_90_926">
<rect width="18" height="18" fill="white" transform="translate(1 1)"/>
</clipPath>
</defs>
</svg>
