<svg width="20" height="20" viewBox="0 0 20 20" fill="none" xmlns="http://www.w3.org/2000/svg">
<path d="M11.0794 16.6389C10.784 16.9053 10.4 17.0521 10.0022 17.0506C9.60449 17.0491 9.22156 16.8995 8.92819 16.6309L8.84022 16.5509C4.64184 12.7524 1.89889 10.2654 2.00286 7.16255C2.02679 6.48464 2.20837 5.82163 2.53319 5.22613C2.85801 4.63062 3.31713 4.11901 3.87414 3.73187C4.82441 3.09875 5.97484 2.83843 7.10511 3.00074C8.23538 3.16305 9.26606 3.73659 9.99978 4.61153C10.7318 3.73415 11.7628 3.15881 12.8938 2.99638C14.0249 2.83396 15.1761 3.09595 16.1254 3.73187C16.6824 4.11901 17.1416 4.63063 17.4664 5.22613C17.7912 5.82163 17.9728 6.48464 17.9967 7.16255C18.1087 10.2654 15.3577 12.7524 11.1593 16.5669L11.0794 16.6389Z" fill="#222222"/>
</svg>
