<svg width="20" height="20" viewBox="0 0 20 20" fill="none" xmlns="http://www.w3.org/2000/svg">
<path fill-rule="evenodd" clip-rule="evenodd" d="M11.1593 16.5713L11.0794 16.6432C10.7766 16.9181 10.3924 17.0561 10.0079 17.0561C9.62068 17.0561 9.23319 16.9161 8.92819 16.6352L8.84022 16.5553C4.64184 12.7567 1.89889 10.2697 2.00286 7.16687C2.05084 5.80739 2.74657 4.50389 3.87414 3.73619C5.66065 2.51811 7.80219 2.8118 9.27148 3.92916C9.53851 4.13223 9.78333 4.3625 9.99978 4.61585C10.2162 4.36258 10.4609 4.13219 10.7278 3.92888C12.1971 2.80976 14.3388 2.51128 16.1254 3.73619C17.253 4.5039 17.9487 5.80739 17.9967 7.16687C18.1082 10.2578 15.3788 12.7376 11.2076 16.5274L11.1593 16.5713ZM9.99979 7.07805L11.2158 5.65477C11.8104 4.95884 12.7018 4.54336 13.6005 4.54336C14.1803 4.54336 14.7255 4.71561 15.221 5.05532L15.2253 5.05824C15.9184 5.53011 16.3678 6.35971 16.3983 7.22328C16.4359 8.26452 15.9928 9.30029 14.9616 10.583C13.8502 11.9655 12.1272 13.5309 10.1321 15.3436L10.0082 15.4555L9.91609 15.3718C7.90776 13.5547 6.17574 11.9877 5.05297 10.5959C4.01398 9.30803 3.56628 8.26699 3.60134 7.22042C3.63172 6.35971 4.08119 5.53011 4.77425 5.05824C5.27223 4.71871 5.81908 4.54686 6.40048 4.54686C7.30011 4.54686 8.19106 4.96104 8.78378 5.65477L9.99979 7.07805Z" fill="#222222"/>
</svg>
