<svg width="20" height="20" viewBox="0 0 20 20" fill="none" xmlns="http://www.w3.org/2000/svg">
<path d="M10.5722 12.6667C10.5722 13.5124 9.89408 14.1905 9.04836 14.1905C8.64422 14.1905 8.25664 14.0299 7.97087 13.7442C7.6851 13.4584 7.52455 13.0708 7.52455 12.6667C7.52455 11.821 8.20265 11.1429 9.04836 11.1429C9.4525 11.1429 9.84009 11.3034 10.1259 11.5892C10.4116 11.8749 10.5722 12.2625 10.5722 12.6667ZM9.87884 16.4762C9.97027 17.0248 10.1607 17.5352 10.4274 18H4.47693C4.0728 18 3.68521 17.8395 3.39944 17.5537C3.11367 17.2679 2.95313 16.8803 2.95312 16.4762V8.85714C2.95312 8.01143 3.63122 7.33333 4.47693 7.33333H5.23884V5.80952C5.23884 3.70667 6.94551 2 9.04836 2C11.1512 2 12.8579 3.70667 12.8579 5.80952V7.33333H13.6198C14.0239 7.33333 14.4115 7.49388 14.6973 7.77965C14.9831 8.06542 15.1436 8.453 15.1436 8.85714V11.2114C14.8922 11.1733 14.6407 11.1429 14.3817 11.1429C14.1226 11.1429 13.8712 11.1733 13.6198 11.2114V8.85714H4.47693V16.4762H9.87884ZM6.76265 7.33333H11.3341V5.80952C11.3341 4.54476 10.3131 3.52381 9.04836 3.52381C7.7836 3.52381 6.76265 4.54476 6.76265 5.80952V7.33333ZM16.1646 13.3067L13.4293 16.0419L12.2179 14.8305L11.3341 15.7143L13.4293 18L17.0484 14.381L16.1646 13.3067Z" fill="#222222"/>
</svg>
