<svg width="20" height="20" viewBox="0 0 20 20" fill="none" xmlns="http://www.w3.org/2000/svg">
<path d="M16.5625 5.22486C16.8486 5.38808 17.0862 5.62441 17.2509 5.90965C17.4157 6.1949 17.5016 6.5188 17.5 6.8482V12.9182C17.5 13.5924 17.1308 14.214 16.535 14.5415L10.91 18.0999C10.6311 18.2529 10.3181 18.3331 10 18.3331C9.68188 18.3331 9.36889 18.2529 9.09 18.0999L3.465 14.5415C3.17376 14.3819 2.93064 14.1471 2.76092 13.8616C2.59121 13.5761 2.50111 13.2503 2.5 12.9182V6.84736C2.5 6.17319 2.86917 5.55236 3.465 5.22486L9.09 1.90819C9.37711 1.74989 9.69964 1.66687 10.0275 1.66687C10.3554 1.66687 10.6779 1.74989 10.965 1.90819L16.59 5.22486H16.5625Z" stroke="#222222" stroke-width="1.5" stroke-linecap="round" stroke-linejoin="round"/>
<path d="M7.5 9.99988C7.5 10.6629 7.76339 11.2988 8.23223 11.7676C8.70107 12.2365 9.33696 12.4999 10 12.4999C10.663 12.4999 11.2989 12.2365 11.7678 11.7676C12.2366 11.2988 12.5 10.6629 12.5 9.99988C12.5 9.33684 12.2366 8.70095 11.7678 8.23211C11.2989 7.76327 10.663 7.49988 10 7.49988C9.33696 7.49988 8.70107 7.76327 8.23223 8.23211C7.76339 8.70095 7.5 9.33684 7.5 9.99988Z" stroke="#222222" stroke-width="1.5" stroke-linecap="round" stroke-linejoin="round"/>
</svg>
