<svg width="20" height="20" viewBox="0 0 20 20" fill="none" xmlns="http://www.w3.org/2000/svg">
<path d="M7.06667 8.84444L12.9333 5.82222M7.06667 11.1556L12.9333 14.1778M2 10C2 10.7072 2.28095 11.3855 2.78105 11.8856C3.28115 12.3857 3.95942 12.6667 4.66667 12.6667C5.37391 12.6667 6.05219 12.3857 6.55229 11.8856C7.05238 11.3855 7.33333 10.7072 7.33333 10C7.33333 9.29276 7.05238 8.61448 6.55229 8.11438C6.05219 7.61428 5.37391 7.33333 4.66667 7.33333C3.95942 7.33333 3.28115 7.61428 2.78105 8.11438C2.28095 8.61448 2 9.29276 2 10ZM12.6667 4.66667C12.6667 5.37391 12.9476 6.05219 13.4477 6.55229C13.9478 7.05238 14.6261 7.33333 15.3333 7.33333C16.0406 7.33333 16.7189 7.05238 17.219 6.55229C17.719 6.05219 18 5.37391 18 4.66667C18 3.95942 17.719 3.28115 17.219 2.78105C16.7189 2.28095 16.0406 2 15.3333 2C14.6261 2 13.9478 2.28095 13.4477 2.78105C12.9476 3.28115 12.6667 3.95942 12.6667 4.66667ZM12.6667 15.3333C12.6667 16.0406 12.9476 16.7189 13.4477 17.219C13.9478 17.719 14.6261 18 15.3333 18C16.0406 18 16.7189 17.719 17.219 17.219C17.719 16.7189 18 16.0406 18 15.3333C18 14.6261 17.719 13.9478 17.219 13.4477C16.7189 12.9476 16.0406 12.6667 15.3333 12.6667C14.6261 12.6667 13.9478 12.9476 13.4477 13.4477C12.9476 13.9478 12.6667 14.6261 12.6667 15.3333Z" stroke="#222222" stroke-width="1.5" stroke-linecap="round" stroke-linejoin="round"/>
</svg>
