<svg width="20" height="20" viewBox="0 0 20 20" fill="none" xmlns="http://www.w3.org/2000/svg">
<g clip-path="url(#clip0_90_937)">
<path d="M9.9987 2.5C10.2111 2.50024 10.4154 2.58157 10.5698 2.72737C10.7243 2.87318 10.8172 3.07246 10.8297 3.2845C10.8421 3.49653 10.7731 3.70532 10.6368 3.86819C10.5005 4.03107 10.3071 4.13575 10.0962 4.16083L9.9987 4.16667H5.83203C5.62792 4.16669 5.43092 4.24163 5.27839 4.37726C5.12586 4.5129 5.02841 4.69979 5.00453 4.9025L4.9987 5V15C4.99872 15.2041 5.07366 15.4011 5.20929 15.5536C5.34493 15.7062 5.53182 15.8036 5.73453 15.8275L5.83203 15.8333H9.58203C9.79443 15.8336 9.99872 15.9149 10.1532 16.0607C10.3076 16.2065 10.4006 16.4058 10.413 16.6178C10.4255 16.8299 10.3565 17.0386 10.2201 17.2015C10.0838 17.3644 9.89044 17.4691 9.67953 17.4942L9.58203 17.5H5.83203C5.19436 17.5 4.58077 17.2564 4.11681 16.8189C3.65286 16.3815 3.37361 15.7832 3.3362 15.1467L3.33203 15V5C3.332 4.36232 3.57564 3.74874 4.0131 3.28478C4.45057 2.82083 5.04879 2.54158 5.68536 2.50417L5.83203 2.5H9.9987ZM14.7545 7.05333L17.1112 9.41083C17.2674 9.56711 17.3552 9.77903 17.3552 10C17.3552 10.221 17.2674 10.4329 17.1112 10.5892L14.7545 12.9467C14.5982 13.1029 14.3861 13.1907 14.1651 13.1906C13.944 13.1905 13.732 13.1026 13.5758 12.9462C13.4195 12.7899 13.3318 12.5778 13.3319 12.3568C13.3319 12.1357 13.4198 11.9238 13.5762 11.7675L14.5104 10.8333H9.9987C9.77768 10.8333 9.56572 10.7455 9.40944 10.5893C9.25316 10.433 9.16536 10.221 9.16536 10C9.16536 9.77899 9.25316 9.56702 9.40944 9.41074C9.56572 9.25446 9.77768 9.16667 9.9987 9.16667H14.5104L13.5762 8.2325C13.4198 8.07624 13.3319 7.86427 13.3319 7.64321C13.3318 7.42215 13.4195 7.21012 13.5758 7.05375C13.732 6.89738 13.944 6.80949 14.1651 6.80941C14.3861 6.80934 14.5982 6.89708 14.7545 7.05333Z" fill="#222222"/>
</g>
<defs>
<clipPath id="clip0_90_937">
<rect width="20" height="20" fill="white"/>
</clipPath>
</defs>
</svg>
