<svg width="20" height="20" viewBox="0 0 20 20" fill="none" xmlns="http://www.w3.org/2000/svg">
<path d="M4.05078 8.28217C4.05078 9.23077 5.57228 10 7.45078 10V8.28217C7.45078 7.43727 7.45078 7.01397 7.11333 6.75642C6.77503 6.49887 6.44013 6.59492 5.77033 6.78787C4.74353 7.08452 4.05078 7.64127 4.05078 8.28217Z" stroke="#222222" stroke-width="1.275" stroke-linecap="round" stroke-linejoin="round"/>
<path d="M13.4 7.02499C13.4 8.66804 10.7361 9.99999 7.45 9.99999C4.1639 9.99999 1.5 8.66804 1.5 7.02499C1.5 5.38194 4.1639 4.04999 7.45 4.04999C10.7361 4.04999 13.4 5.38194 13.4 7.02499Z" stroke="#222222" stroke-width="1.275" stroke-linecap="round" stroke-linejoin="round"/>
<path d="M1.5 7.45001V13.117C1.5 14.681 4.1639 15.95 7.45 15.95H16.8C17.6016 15.95 18.0019 15.95 18.251 15.701C18.5 15.4519 18.5 15.0516 18.5 14.25V11.7C18.5 10.8985 18.5 10.4981 18.251 10.2491C18.0019 10 17.6016 10 16.8 10H7.45M15.1 15.95V14.25M11.7 15.95V14.25M8.3 15.95V14.25M4.9 15.525V13.825" stroke="#222222" stroke-width="1.275" stroke-linecap="round" stroke-linejoin="round"/>
</svg>
