<svg width="20" height="20" viewBox="0 0 20 20" fill="none" xmlns="http://www.w3.org/2000/svg">
<path fill-rule="evenodd" clip-rule="evenodd" d="M5.25668 17.4845C5.36829 17.5134 5.49139 17.5041 5.60965 17.4438C5.60958 17.4438 5.60972 17.4437 5.60965 17.4438C5.60991 17.4436 5.61039 17.4434 5.61065 17.4433L9.99865 15.1873L14.3897 17.4433C14.7757 17.6413 15.2137 17.2943 15.1357 16.8513L14.3057 12.1213L17.8277 8.76526C18.1577 8.45126 17.9867 7.87726 17.5457 7.81526L12.6477 7.11926L10.4637 2.79226C10.2667 2.40226 9.73365 2.40226 9.53665 2.79226L7.35265 7.11926L2.45465 7.81526C2.01365 7.87726 1.84265 8.45126 2.17165 8.76526L5.69465 12.1213L4.86465 16.8513C4.81061 17.1582 5.00425 17.419 5.25668 17.4845ZM6.6758 15.2087L9.9985 13.5008L13.3247 15.2097L12.6894 11.5894L15.3828 9.02298L11.6614 8.49418L10.0002 5.2029L8.33892 8.49418L4.61702 9.02306L7.31092 11.5893L6.6758 15.2087Z" fill="#222222"/>
</svg>
