<svg width="20" height="20" viewBox="0 0 20 20" fill="none" xmlns="http://www.w3.org/2000/svg">
<path d="M10.0007 3.33332V1.84165C10.0007 1.46665 9.55065 1.28332 9.29232 1.54998L6.95898 3.87498C6.79232 4.04165 6.79232 4.29998 6.95898 4.46665L9.28398 6.79165C9.55065 7.04998 10.0007 6.86665 10.0007 6.49165V4.99998C12.759 4.99998 15.0007 7.24165 15.0007 9.99998C15.0007 10.6583 14.8757 11.3 14.634 11.875C14.509 12.175 14.6007 12.5167 14.8257 12.7417C15.2507 13.1667 15.9673 13.0167 16.1923 12.4583C16.5007 11.7 16.6673 10.8667 16.6673 9.99998C16.6673 6.31665 13.684 3.33332 10.0007 3.33332ZM10.0007 15C7.24232 15 5.00065 12.7583 5.00065 9.99998C5.00065 9.34165 5.12565 8.69998 5.36732 8.12498C5.49232 7.82498 5.40065 7.48332 5.17565 7.25832C4.75065 6.83332 4.03398 6.98332 3.80898 7.54165C3.50065 8.29998 3.33398 9.13332 3.33398 9.99998C3.33398 13.6833 6.31732 16.6667 10.0007 16.6667V18.1583C10.0007 18.5333 10.4507 18.7167 10.709 18.45L13.034 16.125C13.2007 15.9583 13.2007 15.7 13.034 15.5333L10.709 13.2083C10.6502 13.1507 10.5758 13.1118 10.4949 13.0965C10.4141 13.0812 10.3306 13.0901 10.2548 13.1222C10.1791 13.1543 10.1145 13.2081 10.0693 13.2768C10.024 13.3455 10.0002 13.4261 10.0007 13.5083V15Z" fill="#222222"/>
</svg>
