<svg width="20" height="20" viewBox="0 0 20 20" fill="none" xmlns="http://www.w3.org/2000/svg">
<path d="M6.93924 13.7004L3.62542 10.3866C3.44686 10.208 3.20467 10.1077 2.95215 10.1077C2.69962 10.1077 2.45744 10.208 2.27888 10.3866C2.10031 10.5651 2 10.8073 2 11.0598C2 11.1849 2.02463 11.3087 2.07248 11.4242C2.12033 11.5397 2.19046 11.6447 2.27888 11.7331L6.27075 15.725C6.6432 16.0974 7.24484 16.0974 7.61729 15.725L17.7211 5.62115C17.8997 5.44259 18 5.2004 18 4.94788C18 4.69535 17.8997 4.45317 17.7211 4.27461C17.5426 4.09605 17.3004 3.99573 17.0479 3.99573C16.7953 3.99573 16.5531 4.09605 16.3746 4.27461L6.93924 13.7004Z" fill="#222222"/>
</svg>
