<svg width="20" height="20" viewBox="0 0 20 20" fill="none" xmlns="http://www.w3.org/2000/svg">
<path d="M17.9727 6.46201C17.9411 5.85449 17.133 5.55 16.7143 5.99925L14.0865 8.62582C13.9597 8.74882 13.7466 8.74882 13.6235 8.62582L11.3484 6.35176C11.2223 6.22951 11.2245 6.01126 11.3484 5.889L13.9558 3.28278C14.403 2.86878 14.1029 2.05126 13.4928 2.02502C9.74185 1.64777 6.97898 5.61006 8.59006 8.991C8.63133 9.07726 8.61483 9.17551 8.54879 9.237L2.64945 14.6866C0.781794 16.5166 3.34953 19.2257 5.22387 17.3865L10.7375 11.4247C10.799 11.3594 10.8973 11.3429 10.9836 11.3834C14.3535 13.0012 18.3703 10.1978 17.9727 6.46201ZM4.25151 16.4438C3.76678 16.9133 3.05617 16.2023 3.52592 15.7185C4.01064 15.249 4.72125 15.96 4.25151 16.4438Z" fill="black"/>
</svg>
