<svg width="20" height="20" viewBox="0 0 20 20" fill="none" xmlns="http://www.w3.org/2000/svg">
<mask id="path-1-outside-1_90_941" maskUnits="userSpaceOnUse" x="1" y="2" width="18" height="15" fill="black">
<rect fill="white" x="1" y="2" width="18" height="15"/>
<path d="M5.653 15.616H9.961C10.089 15.616 10.198 15.571 10.288 15.481C10.378 15.391 10.423 15.282 10.423 15.154V14.5C10.423 14.372 10.378 14.263 10.288 14.173C10.198 14.0837 10.089 14.039 9.961 14.039H5.653C5.525 14.039 5.41633 14.0837 5.327 14.173C5.237 14.263 5.192 14.372 5.192 14.5V15.154C5.192 15.282 5.237 15.391 5.327 15.481C5.41633 15.571 5.525 15.616 5.653 15.616ZM5.557 8.308H10.057C10.1677 8.308 10.269 8.262 10.361 8.17C10.4537 8.07733 10.5 7.976 10.5 7.866C10.5 7.75533 10.4537 7.654 10.361 7.562C10.269 7.46933 10.1677 7.423 10.057 7.423H5.557C5.447 7.423 5.34567 7.46933 5.253 7.562C5.161 7.654 5.115 7.75533 5.115 7.866C5.115 7.976 5.161 8.07733 5.253 8.17C5.34567 8.262 5.447 8.308 5.557 8.308ZM5.557 6.193H10.057C10.1677 6.193 10.269 6.14667 10.361 6.054C10.4537 5.962 10.5 5.86067 10.5 5.75C10.5 5.64 10.4537 5.53867 10.361 5.446C10.269 5.354 10.1677 5.308 10.057 5.308H5.557C5.447 5.308 5.34567 5.354 5.253 5.446C5.161 5.53867 5.115 5.64 5.115 5.75C5.115 5.86067 5.161 5.962 5.253 6.054C5.34567 6.14667 5.447 6.193 5.557 6.193ZM13.615 9V8H15C15.1793 8 15.3267 7.94233 15.442 7.827C15.5573 7.71167 15.615 7.56433 15.615 7.385V6.231C15.615 6.051 15.5573 5.90367 15.442 5.789C15.3267 5.67433 15.1793 5.61667 15 5.616H13.615V4.616H15C15.444 4.616 15.824 4.774 16.14 5.09C16.4567 5.40667 16.615 5.787 16.615 6.231V6.308H18.307C18.449 6.308 18.568 6.356 18.664 6.452C18.7593 6.548 18.807 6.667 18.807 6.809C18.807 6.951 18.7593 7.06967 18.664 7.165C18.568 7.26033 18.449 7.308 18.307 7.308H16.615V7.385C16.615 7.829 16.4567 8.209 16.14 8.525C15.824 8.84167 15.444 9 15 9H13.615ZM9.807 13.039H8.807V9.616H12C12.1793 9.616 12.3267 9.55833 12.442 9.443C12.5573 9.32767 12.615 9.18 12.615 9V4.616C12.615 4.436 12.5573 4.28833 12.442 4.173C12.3267 4.05767 12.1793 4 12 4H5C4.45 4 3.979 4.196 3.587 4.588C3.195 4.98 2.99933 5.45067 3 6V7.616C3 8.166 3.19567 8.63667 3.587 9.028C3.97833 9.41933 4.44933 9.61533 5 9.616H6.807V13.039H5.807V10.616H5C4.17467 10.616 3.468 10.322 2.88 9.734C2.29333 9.14733 2 8.44133 2 7.616V6C2 5.17533 2.29333 4.46933 2.88 3.882C3.46667 3.29467 4.17333 3.00067 5 3H12C12.444 3 12.824 3.15833 13.14 3.475C13.4567 3.791 13.615 4.172 13.615 4.616V9C13.615 9.44467 13.4567 9.825 13.14 10.141C12.824 10.4577 12.444 10.616 12 10.616H9.807V13.039ZM5.403 16.616C5.067 16.616 4.781 16.498 4.545 16.262C4.30967 16.0267 4.192 15.7407 4.192 15.404V14.25C4.192 13.914 4.30967 13.628 4.545 13.392C4.781 13.1567 5.067 13.039 5.403 13.039H10.211C10.5477 13.039 10.8337 13.1567 11.069 13.392C11.305 13.628 11.423 13.914 11.423 14.25V15.404C11.423 15.7407 11.305 16.0267 11.069 16.262C10.8337 16.498 10.5477 16.616 10.211 16.616H5.403ZM9.961 15.616H5.191H10.423H9.961Z"/>
</mask>
<path d="M5.653 15.616H9.961C10.089 15.616 10.198 15.571 10.288 15.481C10.378 15.391 10.423 15.282 10.423 15.154V14.5C10.423 14.372 10.378 14.263 10.288 14.173C10.198 14.0837 10.089 14.039 9.961 14.039H5.653C5.525 14.039 5.41633 14.0837 5.327 14.173C5.237 14.263 5.192 14.372 5.192 14.5V15.154C5.192 15.282 5.237 15.391 5.327 15.481C5.41633 15.571 5.525 15.616 5.653 15.616ZM5.557 8.308H10.057C10.1677 8.308 10.269 8.262 10.361 8.17C10.4537 8.07733 10.5 7.976 10.5 7.866C10.5 7.75533 10.4537 7.654 10.361 7.562C10.269 7.46933 10.1677 7.423 10.057 7.423H5.557C5.447 7.423 5.34567 7.46933 5.253 7.562C5.161 7.654 5.115 7.75533 5.115 7.866C5.115 7.976 5.161 8.07733 5.253 8.17C5.34567 8.262 5.447 8.308 5.557 8.308ZM5.557 6.193H10.057C10.1677 6.193 10.269 6.14667 10.361 6.054C10.4537 5.962 10.5 5.86067 10.5 5.75C10.5 5.64 10.4537 5.53867 10.361 5.446C10.269 5.354 10.1677 5.308 10.057 5.308H5.557C5.447 5.308 5.34567 5.354 5.253 5.446C5.161 5.53867 5.115 5.64 5.115 5.75C5.115 5.86067 5.161 5.962 5.253 6.054C5.34567 6.14667 5.447 6.193 5.557 6.193ZM13.615 9V8H15C15.1793 8 15.3267 7.94233 15.442 7.827C15.5573 7.71167 15.615 7.56433 15.615 7.385V6.231C15.615 6.051 15.5573 5.90367 15.442 5.789C15.3267 5.67433 15.1793 5.61667 15 5.616H13.615V4.616H15C15.444 4.616 15.824 4.774 16.14 5.09C16.4567 5.40667 16.615 5.787 16.615 6.231V6.308H18.307C18.449 6.308 18.568 6.356 18.664 6.452C18.7593 6.548 18.807 6.667 18.807 6.809C18.807 6.951 18.7593 7.06967 18.664 7.165C18.568 7.26033 18.449 7.308 18.307 7.308H16.615V7.385C16.615 7.829 16.4567 8.209 16.14 8.525C15.824 8.84167 15.444 9 15 9H13.615ZM9.807 13.039H8.807V9.616H12C12.1793 9.616 12.3267 9.55833 12.442 9.443C12.5573 9.32767 12.615 9.18 12.615 9V4.616C12.615 4.436 12.5573 4.28833 12.442 4.173C12.3267 4.05767 12.1793 4 12 4H5C4.45 4 3.979 4.196 3.587 4.588C3.195 4.98 2.99933 5.45067 3 6V7.616C3 8.166 3.19567 8.63667 3.587 9.028C3.97833 9.41933 4.44933 9.61533 5 9.616H6.807V13.039H5.807V10.616H5C4.17467 10.616 3.468 10.322 2.88 9.734C2.29333 9.14733 2 8.44133 2 7.616V6C2 5.17533 2.29333 4.46933 2.88 3.882C3.46667 3.29467 4.17333 3.00067 5 3H12C12.444 3 12.824 3.15833 13.14 3.475C13.4567 3.791 13.615 4.172 13.615 4.616V9C13.615 9.44467 13.4567 9.825 13.14 10.141C12.824 10.4577 12.444 10.616 12 10.616H9.807V13.039ZM5.403 16.616C5.067 16.616 4.781 16.498 4.545 16.262C4.30967 16.0267 4.192 15.7407 4.192 15.404V14.25C4.192 13.914 4.30967 13.628 4.545 13.392C4.781 13.1567 5.067 13.039 5.403 13.039H10.211C10.5477 13.039 10.8337 13.1567 11.069 13.392C11.305 13.628 11.423 13.914 11.423 14.25V15.404C11.423 15.7407 11.305 16.0267 11.069 16.262C10.8337 16.498 10.5477 16.616 10.211 16.616H5.403ZM9.961 15.616H5.191H10.423H9.961Z" fill="#222222"/>
<path d="M10.288 14.173L10.3587 14.1023L10.3584 14.102L10.288 14.173ZM5.327 15.481L5.39797 15.4106L5.39771 15.4103L5.327 15.481ZM10.361 7.562L10.29 7.63246L10.2905 7.63297L10.361 7.562ZM5.253 8.17L5.18203 8.24046L5.18255 8.24097L5.253 8.17ZM10.361 6.054L10.2905 5.98303L10.29 5.98355L10.361 6.054ZM5.253 5.446L5.18254 5.37503L5.18203 5.37555L5.253 5.446ZM13.615 8V7.9H13.515V8H13.615ZM15.615 7.385H15.515H15.615ZM15 5.616L15.0004 5.516H15V5.616ZM13.615 5.616H13.515V5.716H13.615V5.616ZM16.615 6.308H16.515V6.408H16.615V6.308ZM18.664 6.452L18.735 6.38154L18.7347 6.38129L18.664 6.452ZM18.664 7.165L18.7345 7.23596L18.7347 7.23571L18.664 7.165ZM16.615 7.308V7.208H16.515V7.308H16.615ZM16.14 8.525L16.0694 8.45421L16.0692 8.45436L16.14 8.525ZM9.807 13.039V13.139H9.907V13.039H9.807ZM8.807 13.039H8.707V13.139H8.807V13.039ZM8.807 9.616V9.516H8.707V9.616H8.807ZM3 6H3.1L3.1 5.99988L3 6ZM5 9.616L4.99988 9.716H5V9.616ZM6.807 9.616H6.907V9.516H6.807V9.616ZM6.807 13.039V13.139H6.907V13.039H6.807ZM5.807 13.039H5.707V13.139H5.807V13.039ZM5.807 10.616H5.907V10.516H5.807V10.616ZM5 3V2.9L4.99992 2.9L5 3ZM13.14 3.475L13.0692 3.54564L13.0694 3.54579L13.14 3.475ZM13.14 10.141L13.0694 10.0702L13.0692 10.0704L13.14 10.141ZM9.807 10.616V10.516H9.707V10.616H9.807ZM4.545 13.392L4.47439 13.3212L4.47419 13.3214L4.545 13.392ZM11.069 16.262L10.9984 16.1912L10.9982 16.1914L11.069 16.262ZM5.653 15.716H9.961V15.516H5.653V15.716ZM9.961 15.716C10.1154 15.716 10.2498 15.6606 10.3587 15.5517L10.2173 15.4103C10.1462 15.4814 10.0626 15.516 9.961 15.516V15.716ZM10.3587 15.5517C10.4676 15.4428 10.523 15.3084 10.523 15.154H10.323C10.323 15.2556 10.2884 15.3392 10.2173 15.4103L10.3587 15.5517ZM10.523 15.154V14.5H10.323V15.154H10.523ZM10.523 14.5C10.523 14.3456 10.4676 14.2112 10.3587 14.1023L10.2173 14.2437C10.2884 14.3148 10.323 14.3984 10.323 14.5H10.523ZM10.3584 14.102C10.2495 13.9939 10.1151 13.939 9.961 13.939V14.139C10.0629 14.139 10.1465 14.1734 10.2176 14.244L10.3584 14.102ZM9.961 13.939H5.653V14.139H9.961V13.939ZM5.653 13.939C5.49887 13.939 5.36465 13.9939 5.25629 14.1023L5.39771 14.2437C5.46801 14.1734 5.55113 14.139 5.653 14.139V13.939ZM5.25629 14.1023C5.14742 14.2112 5.092 14.3456 5.092 14.5H5.292C5.292 14.3984 5.32658 14.3148 5.39771 14.2437L5.25629 14.1023ZM5.092 14.5V15.154H5.292V14.5H5.092ZM5.092 15.154C5.092 15.3084 5.14742 15.4428 5.25629 15.5517L5.39771 15.4103C5.32658 15.3392 5.292 15.2556 5.292 15.154H5.092ZM5.25603 15.5514C5.36433 15.6606 5.49863 15.716 5.653 15.716V15.516C5.55137 15.516 5.46833 15.4814 5.39797 15.4106L5.25603 15.5514ZM5.557 8.408H10.057V8.208H5.557V8.408ZM10.057 8.408C10.1988 8.408 10.3245 8.34792 10.4317 8.24071L10.2903 8.09929C10.2135 8.17608 10.1365 8.208 10.057 8.208V8.408ZM10.4317 8.24071C10.5393 8.13314 10.6 8.00751 10.6 7.866H10.4C10.4 7.94449 10.3681 8.02153 10.2903 8.09929L10.4317 8.24071ZM10.6 7.866C10.6 7.72393 10.5394 7.59817 10.4315 7.49103L10.2905 7.63297C10.368 7.70983 10.4 7.78674 10.4 7.866H10.6ZM10.432 7.49154C10.3248 7.38363 10.1991 7.323 10.057 7.323V7.523C10.1363 7.523 10.2132 7.55503 10.29 7.63245L10.432 7.49154ZM10.057 7.323H5.557V7.523H10.057V7.323ZM5.557 7.323C5.41549 7.323 5.28986 7.38372 5.18229 7.49129L5.32371 7.63271C5.40147 7.55495 5.47851 7.523 5.557 7.523V7.323ZM5.18229 7.49129C5.07508 7.59849 5.015 7.72418 5.015 7.866H5.215C5.215 7.78648 5.24692 7.70951 5.32371 7.63271L5.18229 7.49129ZM5.015 7.866C5.015 8.00726 5.07517 8.13282 5.18203 8.24046L5.32397 8.09955C5.24683 8.02185 5.215 7.94474 5.215 7.866H5.015ZM5.18255 8.24097C5.29018 8.34783 5.41574 8.408 5.557 8.408V8.208C5.47826 8.208 5.40115 8.17617 5.32345 8.09904L5.18255 8.24097ZM5.557 6.293H10.057V6.093H5.557V6.293ZM10.057 6.293C10.1991 6.293 10.3248 6.23237 10.432 6.12445L10.29 5.98355C10.2132 6.06097 10.1363 6.093 10.057 6.093V6.293ZM10.4315 6.12497C10.5394 6.01783 10.6 5.89207 10.6 5.75H10.4C10.4 5.82926 10.368 5.90617 10.2905 5.98303L10.4315 6.12497ZM10.6 5.75C10.6 5.60849 10.5393 5.48286 10.4317 5.37529L10.2903 5.51671C10.3681 5.59447 10.4 5.67151 10.4 5.75H10.6ZM10.4317 5.37529C10.3245 5.26808 10.1988 5.208 10.057 5.208V5.408C10.1365 5.408 10.2135 5.43992 10.2903 5.51671L10.4317 5.37529ZM10.057 5.208H5.557V5.408H10.057V5.208ZM5.557 5.208C5.41574 5.208 5.29018 5.26817 5.18255 5.37503L5.32345 5.51697C5.40115 5.43983 5.47826 5.408 5.557 5.408V5.208ZM5.18203 5.37555C5.07517 5.48318 5.015 5.60874 5.015 5.75H5.215C5.215 5.67126 5.24683 5.59415 5.32397 5.51645L5.18203 5.37555ZM5.015 5.75C5.015 5.89182 5.07508 6.01751 5.18229 6.12471L5.32371 5.98329C5.24692 5.90649 5.215 5.82952 5.215 5.75H5.015ZM5.18229 6.12471C5.28986 6.23228 5.41549 6.293 5.557 6.293V6.093C5.47851 6.093 5.40147 6.06105 5.32371 5.98329L5.18229 6.12471ZM13.715 9V8H13.515V9H13.715ZM13.615 8.1H15V7.9H13.615V8.1ZM15 8.1C15.203 8.1 15.3767 8.03375 15.5127 7.89771L15.3713 7.75629C15.2767 7.85091 15.1557 7.9 15 7.9V8.1ZM15.5127 7.89771C15.6488 7.76167 15.715 7.58796 15.715 7.385H15.515C15.515 7.54071 15.4659 7.66166 15.3713 7.75629L15.5127 7.89771ZM15.715 7.385V6.231H15.515V7.385H15.715ZM15.715 6.231C15.715 6.0275 15.6488 5.85361 15.5125 5.71808L15.3715 5.85992C15.4658 5.95372 15.515 6.0745 15.515 6.231H15.715ZM15.5125 5.71808C15.3765 5.58289 15.203 5.51675 15.0004 5.516L14.9996 5.716C15.1556 5.71658 15.2768 5.76577 15.3715 5.85992L15.5125 5.71808ZM15 5.516H13.615V5.716H15V5.516ZM13.715 5.616V4.616H13.515V5.616H13.715ZM13.615 4.716H15V4.516H13.615V4.716ZM15 4.716C15.4173 4.716 15.7719 4.86333 16.0693 5.16071L16.2107 5.01929C15.8761 4.68467 15.4707 4.516 15 4.516V4.716ZM16.0693 5.16071C16.3674 5.45881 16.515 5.81378 16.515 6.231H16.715C16.715 5.76022 16.5459 5.35453 16.2107 5.01929L16.0693 5.16071ZM16.515 6.231V6.308H16.715V6.231H16.515ZM16.615 6.408H18.307V6.208H16.615V6.408ZM18.307 6.408C18.4238 6.408 18.517 6.4464 18.5933 6.52271L18.7347 6.38129C18.619 6.2656 18.4742 6.208 18.307 6.208V6.408ZM18.593 6.52246C18.6688 6.59872 18.707 6.69195 18.707 6.809H18.907C18.907 6.64205 18.8499 6.49728 18.735 6.38154L18.593 6.52246ZM18.707 6.809C18.707 6.92605 18.6688 7.01879 18.5933 7.09429L18.7347 7.23571C18.8499 7.12054 18.907 6.97595 18.907 6.809H18.707ZM18.5935 7.09404C18.5173 7.16977 18.4241 7.208 18.307 7.208V7.408C18.4739 7.408 18.6187 7.35089 18.7345 7.23596L18.5935 7.09404ZM18.307 7.208H16.615V7.408H18.307V7.208ZM16.515 7.308V7.385H16.715V7.308H16.515ZM16.515 7.385C16.515 7.80222 16.3674 8.15681 16.0694 8.45422L16.2106 8.59579C16.5459 8.26119 16.715 7.85578 16.715 7.385H16.515ZM16.0692 8.45436C15.7718 8.75239 15.4172 8.9 15 8.9V9.1C15.4708 9.1 15.8762 8.93094 16.2108 8.59564L16.0692 8.45436ZM15 8.9H13.615V9.1H15V8.9ZM9.807 12.939H8.807V13.139H9.807V12.939ZM8.907 13.039V9.616H8.707V13.039H8.907ZM8.807 9.716H12V9.516H8.807V9.716ZM12 9.716C12.203 9.716 12.3767 9.64975 12.5127 9.51371L12.3713 9.37229C12.2767 9.46691 12.1557 9.516 12 9.516V9.716ZM12.5127 9.51371C12.6488 9.37759 12.715 9.20351 12.715 9H12.515C12.515 9.15649 12.4658 9.27774 12.3713 9.37229L12.5127 9.51371ZM12.715 9V4.616H12.515V9H12.715ZM12.715 4.616C12.715 4.41249 12.6488 4.23841 12.5127 4.10229L12.3713 4.24371C12.4658 4.33826 12.515 4.45951 12.515 4.616H12.715ZM12.5127 4.10229C12.3767 3.96625 12.203 3.9 12 3.9V4.1C12.1557 4.1 12.2767 4.14909 12.3713 4.24371L12.5127 4.10229ZM12 3.9H5V4.1H12V3.9ZM5 3.9C4.42324 3.9 3.92688 4.1067 3.51629 4.51729L3.65771 4.65871C4.03112 4.2853 4.47676 4.1 5 4.1V3.9ZM3.51629 4.51729C3.1057 4.92788 2.8993 5.42395 2.9 6.00012L3.1 5.99988C3.09937 5.47738 3.2843 5.03212 3.65771 4.65871L3.51629 4.51729ZM2.9 6V7.616H3.1V6H2.9ZM2.9 7.616C2.9 8.19271 3.10633 8.68876 3.51629 9.09871L3.65771 8.95729C3.285 8.58458 3.1 8.13929 3.1 7.616H2.9ZM3.51629 9.09871C3.92624 9.50866 4.42258 9.7153 4.99988 9.716L5.00012 9.516C4.47608 9.51537 4.03043 9.33 3.65771 8.95729L3.51629 9.09871ZM5 9.716H6.807V9.516H5V9.716ZM6.707 9.616V13.039H6.907V9.616H6.707ZM6.807 12.939H5.807V13.139H6.807V12.939ZM5.907 13.039V10.616H5.707V13.039H5.907ZM5.807 10.516H5V10.716H5.807V10.516ZM5 10.516C4.20141 10.516 3.52012 10.2327 2.95071 9.66329L2.80929 9.80471C3.41588 10.4113 4.14792 10.716 5 10.716V10.516ZM2.95071 9.66329C2.38269 9.09526 2.1 8.41465 2.1 7.616H1.9C1.9 8.46801 2.20398 9.1994 2.80929 9.80471L2.95071 9.66329ZM2.1 7.616V6H1.9V7.616H2.1ZM2.1 6C2.1 5.20203 2.38267 4.52139 2.95075 3.95267L2.80925 3.81133C2.20399 4.41727 1.9 5.14863 1.9 6H2.1ZM2.95075 3.95267C3.51877 3.38401 4.20005 3.10065 5.00008 3.1L4.99992 2.9C4.14661 2.90069 3.41456 3.20533 2.80925 3.81133L2.95075 3.95267ZM5 3.1H12V2.9H5V3.1ZM12 3.1C12.4172 3.1 12.7718 3.24761 13.0692 3.54564L13.2108 3.40436C12.8762 3.06906 12.4708 2.9 12 2.9V3.1ZM13.0694 3.54579C13.3673 3.84314 13.515 4.19872 13.515 4.616H13.715C13.715 4.14528 13.546 3.73886 13.2106 3.40421L13.0694 3.54579ZM13.515 4.616V9H13.715V4.616H13.515ZM13.515 9C13.515 9.41793 13.3674 9.77285 13.0694 10.0702L13.2106 10.2118C13.546 9.87715 13.715 9.47141 13.715 9H13.515ZM13.0692 10.0704C12.7718 10.3684 12.4172 10.516 12 10.516V10.716C12.4708 10.716 12.8762 10.5469 13.2108 10.2116L13.0692 10.0704ZM12 10.516H9.807V10.716H12V10.516ZM9.707 10.616V13.039H9.907V10.616H9.707ZM5.403 16.516C5.09332 16.516 4.83282 16.4084 4.61571 16.1913L4.47429 16.3327C4.72918 16.5876 5.04068 16.716 5.403 16.716V16.516ZM4.61571 16.1913C4.39937 15.975 4.292 15.7145 4.292 15.404H4.092C4.092 15.7668 4.21996 16.0784 4.47429 16.3327L4.61571 16.1913ZM4.292 15.404V14.25H4.092V15.404H4.292ZM4.292 14.25C4.292 13.9402 4.39934 13.6797 4.61581 13.4626L4.47419 13.3214C4.21999 13.5763 4.092 13.8878 4.092 14.25H4.292ZM4.61561 13.4628C4.83269 13.2463 5.09323 13.139 5.403 13.139V12.939C5.04077 12.939 4.72931 13.067 4.47439 13.3212L4.61561 13.4628ZM5.403 13.139H10.211V12.939H5.403V13.139ZM10.211 13.139C10.5215 13.139 10.782 13.2464 10.9983 13.4627L11.1397 13.3213C10.8854 13.067 10.5738 12.939 10.211 12.939V13.139ZM10.9983 13.4627C11.2154 13.6798 11.323 13.9403 11.323 14.25H11.523C11.523 13.8877 11.3946 13.5762 11.1397 13.3213L10.9983 13.4627ZM11.323 14.25V15.404H11.523V14.25H11.323ZM11.323 15.404C11.323 15.7144 11.2154 15.9748 10.9984 16.1912L11.1396 16.3328C11.3946 16.0785 11.523 15.7669 11.523 15.404H11.323ZM10.9982 16.1914C10.7818 16.4084 10.5214 16.516 10.211 16.516V16.716C10.5739 16.716 10.8855 16.5876 11.1398 16.3326L10.9982 16.1914ZM10.211 16.516H5.403V16.716H10.211V16.516ZM9.961 15.516H5.191V15.716H9.961V15.516ZM5.191 15.716H10.423V15.516H5.191V15.716ZM10.423 15.516H9.961V15.716H10.423V15.516Z" fill="#222222" mask="url(#path-1-outside-1_90_941)"/>
</svg>
