<svg width="20" height="20" viewBox="0 0 20 20" fill="none" xmlns="http://www.w3.org/2000/svg">
<path d="M1.66602 10H4.16602M15.8327 10H18.3327M9.99935 1.66669V4.16669M9.99935 15.8334V18.3334" stroke="#222222" stroke-width="1.5" stroke-linecap="round" stroke-linejoin="round"/>
<path d="M9.99935 15.8334C13.221 15.8334 15.8327 13.2217 15.8327 10C15.8327 6.77836 13.221 4.16669 9.99935 4.16669C6.77769 4.16669 4.16602 6.77836 4.16602 10C4.16602 13.2217 6.77769 15.8334 9.99935 15.8334Z" stroke="#222222" stroke-width="1.5" stroke-linecap="round" stroke-linejoin="round"/>
<path d="M9.93555 12.5C11.3163 12.5 12.4355 11.3807 12.4355 10C12.4355 8.61929 11.3163 7.5 9.93555 7.5C8.55483 7.5 7.43555 8.61929 7.43555 10C7.43555 11.3807 8.55483 12.5 9.93555 12.5Z" fill="#222222"/>
</svg>
