<svg width="20" height="20" viewBox="0 0 20 20" fill="none" xmlns="http://www.w3.org/2000/svg">
<path d="M16.2919 8.06488C16.2256 7.93327 16.1241 7.82261 15.9987 7.74514C15.8733 7.66767 15.729 7.62642 15.5816 7.62598H11.5908V2.83797C11.5994 2.66296 11.5501 2.48999 11.4505 2.34577C11.351 2.20154 11.2068 2.09408 11.0401 2.03997C10.8798 1.98726 10.707 1.98667 10.5464 2.03828C10.3858 2.08989 10.2457 2.19106 10.1461 2.32725L3.76094 11.1053C3.68093 11.2209 3.6329 11.3555 3.62168 11.4957C3.61047 11.6358 3.63648 11.7764 3.69708 11.9033C3.75289 12.0483 3.84984 12.1739 3.97603 12.2646C4.10222 12.3553 4.25216 12.4072 4.40744 12.414H8.3982V17.202C8.39832 17.3703 8.45165 17.5342 8.55056 17.6704C8.64947 17.8065 8.7889 17.9079 8.94892 17.9601C9.02911 17.9849 9.11241 17.9984 9.19635 18C9.32228 18.0003 9.44651 17.9708 9.55887 17.914C9.67124 17.8571 9.76855 17.7745 9.84285 17.6728L16.2281 8.8948C16.3141 8.77573 16.3655 8.63525 16.3768 8.48882C16.3881 8.34239 16.3587 8.19569 16.2919 8.06488ZM9.9945 14.7441V11.616C9.9945 11.4043 9.91041 11.2014 9.76073 11.0517C9.61104 10.9021 9.40803 10.818 9.19635 10.818H6.00374L9.9945 5.29581V8.42398C9.9945 8.63562 10.0786 8.83859 10.2283 8.98825C10.378 9.1379 10.581 9.22198 10.7927 9.22198H13.9853L9.9945 14.7441Z" fill="#222222"/>
</svg>
