<svg width="20" height="20" viewBox="0 0 20 20" fill="none" xmlns="http://www.w3.org/2000/svg">
<path d="M9.75518 1.91074C9.91141 2.06701 9.99917 2.27893 9.99917 2.4999C9.99917 2.72087 9.91141 2.9328 9.75518 3.08907L8.67768 4.16657H9.99935C13.876 4.16657 17.0827 7.37324 17.0827 11.2499C17.0827 15.1266 13.876 18.3332 9.99935 18.3332C6.12268 18.3332 2.91602 15.1266 2.91602 11.2499C2.91602 11.0289 3.00381 10.8169 3.16009 10.6606C3.31637 10.5044 3.52834 10.4166 3.74935 10.4166C3.97036 10.4166 4.18232 10.5044 4.3386 10.6606C4.49488 10.8169 4.58268 11.0289 4.58268 11.2499C4.58268 14.2066 7.04268 16.6666 9.99935 16.6666C12.956 16.6666 15.416 14.2066 15.416 11.2499C15.416 8.29324 12.956 5.83324 9.99935 5.83324H8.67768L9.75518 6.91074C9.90698 7.06791 9.99098 7.27841 9.98908 7.4969C9.98718 7.7154 9.89954 7.92441 9.74503 8.07892C9.59052 8.23343 9.38151 8.32107 9.16302 8.32296C8.94452 8.32486 8.73402 8.24087 8.57685 8.08907L6.07685 5.58907C5.92062 5.4328 5.83286 5.22087 5.83286 4.9999C5.83286 4.77893 5.92062 4.56701 6.07685 4.41074L8.57685 1.91074C8.73312 1.75451 8.94505 1.66675 9.16602 1.66675C9.38699 1.66675 9.59891 1.75451 9.75518 1.91074Z" fill="#222222"/>
</svg>
