<svg width="20" height="20" viewBox="0 0 20 20" fill="none" xmlns="http://www.w3.org/2000/svg">
<path d="M10 16.5454C6.36364 16.5454 2 12.9091 2 9.99998C2 7.09089 6.36364 3.45453 10 3.45453C13.6364 3.45453 18 7.09089 18 9.99998C18 12.9091 13.6364 16.5454 10 16.5454ZM10 6.36362C9.03558 6.36362 8.11065 6.74674 7.4287 7.42869C6.74675 8.11064 6.36364 9.03556 6.36364 9.99998C6.36364 10.9644 6.74675 11.8893 7.4287 12.5713C8.11065 13.2532 9.03558 13.6363 10 13.6363C10.9644 13.6363 11.8893 13.2532 12.5713 12.5713C13.2532 11.8893 13.6364 10.9644 13.6364 9.99998C13.6364 9.03556 13.2532 8.11064 12.5713 7.42869C11.8893 6.74674 10.9644 6.36362 10 6.36362Z" stroke="#222222" stroke-width="1.6"/>
</svg>
