<svg width="20" height="20" viewBox="0 0 20 20" fill="none" xmlns="http://www.w3.org/2000/svg">
<path fill-rule="evenodd" clip-rule="evenodd" d="M3.96226 3.50943C3.84217 3.50943 3.72699 3.55714 3.64206 3.64206C3.55714 3.72699 3.50943 3.84217 3.50943 3.96226V6.37736C3.50943 6.57752 3.42992 6.76949 3.28838 6.91102C3.14685 7.05256 2.95488 7.13208 2.75472 7.13208C2.55455 7.13208 2.36259 7.05256 2.22105 6.91102C2.07951 6.76949 2 6.57752 2 6.37736V3.96226C2 3.44184 2.20674 2.94273 2.57473 2.57473C2.94273 2.20674 3.44184 2 3.96226 2H6.37736C6.57752 2 6.76949 2.07951 6.91102 2.22105C7.05256 2.36259 7.13208 2.55455 7.13208 2.75472C7.13208 2.95488 7.05256 3.14685 6.91102 3.28838C6.76949 3.42992 6.57752 3.50943 6.37736 3.50943H3.96226ZM13.6226 2C13.4225 2 13.2305 2.07951 13.089 2.22105C12.9474 2.36259 12.8679 2.55455 12.8679 2.75472C12.8679 2.95488 12.9474 3.14685 13.089 3.28838C13.2305 3.42992 13.4225 3.50943 13.6226 3.50943H16.0377C16.1578 3.50943 16.273 3.55714 16.3579 3.64206C16.4429 3.72699 16.4906 3.84217 16.4906 3.96226V6.37736C16.4906 6.57752 16.5701 6.76949 16.7116 6.91102C16.8532 7.05256 17.0451 7.13208 17.2453 7.13208C17.4454 7.13208 17.6374 7.05256 17.7789 6.91102C17.9205 6.76949 18 6.57752 18 6.37736V3.96226C18 3.44184 17.7933 2.94273 17.4253 2.57473C17.0573 2.20674 16.5582 2 16.0377 2H13.6226ZM18 13.6226C18 13.4225 17.9205 13.2305 17.7789 13.089C17.6374 12.9474 17.4454 12.8679 17.2453 12.8679C17.0451 12.8679 16.8532 12.9474 16.7116 13.089C16.5701 13.2305 16.4906 13.4225 16.4906 13.6226V16.0377C16.4906 16.1578 16.4429 16.273 16.3579 16.3579C16.273 16.4429 16.1578 16.4906 16.0377 16.4906H13.6226C13.4225 16.4906 13.2305 16.5701 13.089 16.7116C12.9474 16.8532 12.8679 17.0451 12.8679 17.2453C12.8679 17.4454 12.9474 17.6374 13.089 17.7789C13.2305 17.9205 13.4225 18 13.6226 18H16.0377C16.5582 18 17.0573 17.7933 17.4253 17.4253C17.7933 17.0573 18 16.5582 18 16.0377V13.6226ZM3.50943 13.6226C3.50943 13.4225 3.42992 13.2305 3.28838 13.089C3.14685 12.9474 2.95488 12.8679 2.75472 12.8679C2.55455 12.8679 2.36259 12.9474 2.22105 13.089C2.07951 13.2305 2 13.4225 2 13.6226V16.0377C2 16.5582 2.20674 17.0573 2.57473 17.4253C2.94273 17.7933 3.44184 18 3.96226 18H6.37736C6.57752 18 6.76949 17.9205 6.91102 17.7789C7.05256 17.6374 7.13208 17.4454 7.13208 17.2453C7.13208 17.0451 7.05256 16.8532 6.91102 16.7116C6.76949 16.5701 6.57752 16.4906 6.37736 16.4906H3.96226C3.84217 16.4906 3.72699 16.4429 3.64206 16.3579C3.55714 16.273 3.50943 16.1578 3.50943 16.0377V13.6226ZM9.09434 6.22642C8.71772 6.22642 8.34479 6.3006 7.99683 6.44472C7.64888 6.58885 7.33272 6.8001 7.06641 7.06641C6.8001 7.33272 6.58885 7.64888 6.44472 7.99683C6.3006 8.34479 6.22642 8.71772 6.22642 9.09434C6.22642 9.47096 6.3006 9.84389 6.44472 10.1918C6.58885 10.5398 6.8001 10.856 7.06641 11.1223C7.33272 11.3886 7.64888 11.5998 7.99683 11.744C8.34479 11.8881 8.71772 11.9623 9.09434 11.9623C9.85496 11.9623 10.5844 11.6601 11.1223 11.1223C11.6601 10.5844 11.9623 9.85496 11.9623 9.09434C11.9623 8.33372 11.6601 7.60425 11.1223 7.06641C10.5844 6.52857 9.85496 6.22642 9.09434 6.22642ZM4.71698 9.09434C4.71747 8.41979 4.87384 7.75448 5.17389 7.15034C5.47394 6.5462 5.90956 6.01958 6.44673 5.61159C6.98391 5.20359 7.60811 4.92527 8.2706 4.79833C8.9331 4.67139 9.61597 4.69928 10.2659 4.87982C10.9159 5.06036 11.5153 5.38866 12.0174 5.8391C12.5195 6.28954 12.9107 6.84993 13.1605 7.47653C13.4103 8.10312 13.5119 8.77897 13.4574 9.45131C13.4028 10.1237 13.1937 10.7743 12.8462 11.3525L14.672 13.1771C14.8704 13.3755 14.9819 13.6445 14.9819 13.9251C14.9819 14.2057 14.8704 14.4748 14.672 14.6732C14.4736 14.8716 14.2045 14.9831 13.9239 14.9831C13.6433 14.9831 13.3743 14.8716 13.1758 14.6732L11.3525 12.8462C10.6882 13.2462 9.92963 13.4626 9.15432 13.4732C8.37901 13.4838 7.61479 13.2883 6.93983 12.9067C6.26487 12.525 5.7034 11.9709 5.31284 11.3011C4.92228 10.6313 4.71665 9.86972 4.71698 9.09434Z" fill="#222222"/>
</svg>
