<svg width="20" height="20" viewBox="0 0 20 20" fill="none" xmlns="http://www.w3.org/2000/svg">
<path fill-rule="evenodd" clip-rule="evenodd" d="M10.4247 4.742C10.3803 4.66785 10.3174 4.60647 10.2422 4.56385C10.167 4.52123 10.0821 4.49883 9.99566 4.49883C9.90923 4.49883 9.82428 4.52123 9.74909 4.56385C9.6739 4.60647 9.61105 4.66785 9.56666 4.742L3.57566 14.739C3.53018 14.8149 3.50566 14.9015 3.50459 14.9899C3.50351 15.0784 3.52593 15.1656 3.56955 15.2425C3.61317 15.3195 3.67642 15.3835 3.75286 15.428C3.8293 15.4726 3.91619 15.496 4.00466 15.496H15.9887C16.0772 15.4962 16.1642 15.4729 16.2408 15.4284C16.3174 15.384 16.3808 15.32 16.4245 15.243C16.4683 15.166 16.4908 15.0787 16.4897 14.9902C16.4887 14.9016 16.4642 14.815 16.4187 14.739L10.4247 4.742ZM8.28066 3.972C9.05566 2.676 10.9347 2.676 11.7107 3.971L17.7037 13.967C18.5027 15.3 17.5427 16.995 15.9877 16.995H4.00366C2.44866 16.996 1.48866 15.301 2.28766 13.968L8.28066 3.972ZM10.9957 13.496C10.9957 13.7612 10.8903 14.0156 10.7028 14.2031C10.5152 14.3906 10.2609 14.496 9.99566 14.496C9.73044 14.496 9.47609 14.3906 9.28855 14.2031C9.10101 14.0156 8.99566 13.7612 8.99566 13.496C8.99566 13.2308 9.10101 12.9764 9.28855 12.7889C9.47609 12.6014 9.73044 12.496 9.99566 12.496C10.2609 12.496 10.5152 12.6014 10.7028 12.7889C10.8903 12.9764 10.9957 13.2308 10.9957 13.496ZM10.7457 7.746C10.7457 7.54709 10.6666 7.35633 10.526 7.21567C10.3853 7.07502 10.1946 6.996 9.99566 6.996C9.79674 6.996 9.60598 7.07502 9.46533 7.21567C9.32467 7.35633 9.24566 7.54709 9.24566 7.746V10.746C9.24566 10.9449 9.32467 11.1357 9.46533 11.2763C9.60598 11.417 9.79674 11.496 9.99566 11.496C10.1946 11.496 10.3853 11.417 10.526 11.2763C10.6666 11.1357 10.7457 10.9449 10.7457 10.746V7.746Z" fill="#222222"/>
</svg>
