<svg width="20" height="20" viewBox="0 0 20 20" fill="none" xmlns="http://www.w3.org/2000/svg">
<path d="M15.639 4.32804C14.9055 3.58732 14.0318 3.00001 13.069 2.60033C12.1062 2.20065 11.0735 1.99659 10.031 2.00004C5.66305 2.00004 2.10306 5.56003 2.10306 9.92802C2.10306 11.328 2.47106 12.688 3.15906 13.888L2.03906 18L6.23905 16.896C7.39905 17.528 8.70304 17.864 10.031 17.864C14.399 17.864 17.959 14.304 17.959 9.93602C17.959 7.81603 17.135 5.82403 15.639 4.32804ZM10.031 16.52C8.84704 16.52 7.68705 16.2 6.67105 15.6L6.43105 15.456L3.93506 16.112L4.59906 13.68L4.43906 13.432C3.7811 12.3817 3.4318 11.1674 3.43106 9.92802C3.43106 6.29603 6.39105 3.33604 10.023 3.33604C11.783 3.33604 13.439 4.02404 14.679 5.27203C15.2931 5.88312 15.7798 6.61006 16.1107 7.41069C16.4417 8.21132 16.6104 9.06969 16.607 9.93602C16.623 13.568 13.663 16.52 10.031 16.52ZM13.647 11.592C13.447 11.496 12.471 11.016 12.295 10.944C12.111 10.88 11.983 10.848 11.847 11.04C11.711 11.24 11.335 11.688 11.223 11.816C11.111 11.952 10.991 11.968 10.791 11.864C10.591 11.768 9.95104 11.552 9.19904 10.88C8.60704 10.352 8.21505 9.70402 8.09505 9.50402C7.98305 9.30402 8.07905 9.20002 8.18305 9.09602C8.27105 9.00802 8.38305 8.86402 8.47905 8.75203C8.57505 8.64003 8.61505 8.55203 8.67904 8.42403C8.74304 8.28803 8.71104 8.17603 8.66304 8.08003C8.61504 7.98403 8.21505 7.00803 8.05505 6.60803C7.89505 6.22403 7.72705 6.27203 7.60705 6.26403H7.22305C7.08705 6.26403 6.87905 6.31203 6.69505 6.51203C6.51905 6.71203 6.00705 7.19203 6.00705 8.16803C6.00705 9.14402 6.71905 10.088 6.81505 10.216C6.91105 10.352 8.21505 12.352 10.199 13.208C10.671 13.416 11.039 13.536 11.327 13.624C11.799 13.776 12.231 13.752 12.575 13.704C12.959 13.648 13.751 13.224 13.911 12.76C14.079 12.296 14.079 11.904 14.023 11.816C13.967 11.728 13.847 11.688 13.647 11.592Z" fill="black"/>
</svg>
