<svg width="20" height="20" viewBox="0 0 20 20" fill="none" xmlns="http://www.w3.org/2000/svg">
<path fill-rule="evenodd" clip-rule="evenodd" d="M8.70438 2.29706C7.689 2.29719 6.68819 2.5386 5.78441 3.00139C4.88063 3.46418 4.09976 4.13511 3.50613 4.95888C2.91251 5.78266 2.52314 6.7357 2.37009 7.73948C2.21704 8.74325 2.30471 9.76903 2.62586 10.7323C2.94702 11.6955 3.49246 12.5687 4.21726 13.2798C4.94205 13.9909 5.82545 14.5196 6.79465 14.8223C7.76385 15.125 8.79111 15.1931 9.79179 15.0209C10.7925 14.8488 11.7379 14.4413 12.5502 13.8321C12.5985 13.9737 12.6785 14.1062 12.7919 14.2187L15.9919 17.4187C16.182 17.603 16.437 17.705 16.7018 17.7028C16.9665 17.7007 17.2198 17.5945 17.4069 17.4071C17.594 17.2198 17.7 16.9664 17.7018 16.7016C17.7037 16.4369 17.6013 16.182 17.4169 15.9921L14.2169 12.7921C14.1085 12.6832 13.9764 12.6008 13.831 12.5512C14.5453 11.5991 14.9804 10.4669 15.0874 9.28152C15.1944 8.09609 14.9691 6.90429 14.4369 5.83968C13.9046 4.77508 13.0864 3.87974 12.0739 3.25403C11.0614 2.62831 9.89462 2.29694 8.70438 2.29706ZM3.91271 8.70539C3.91271 8.07614 4.03665 7.45305 4.27745 6.8717C4.51826 6.29035 4.87121 5.76212 5.31616 5.31717C5.7611 4.87222 6.28933 4.51927 6.87069 4.27847C7.45204 4.03767 8.07513 3.91372 8.70438 3.91372C9.33363 3.91372 9.95672 4.03767 10.5381 4.27847C11.1194 4.51927 11.6476 4.87222 12.0926 5.31717C12.5375 5.76212 12.8905 6.29035 13.1313 6.8717C13.3721 7.45305 13.496 8.07614 13.496 8.70539C13.496 9.97622 12.9912 11.195 12.0926 12.0936C11.194 12.9922 9.9752 13.4971 8.70438 13.4971C7.43355 13.4971 6.21477 12.9922 5.31616 12.0936C4.41754 11.195 3.91271 9.97622 3.91271 8.70539Z" fill="#222222"/>
<path d="M8.75 6.75V10.75M6.75 8.75H10.75" stroke="#222222" stroke-width="1.33333" stroke-linecap="round" stroke-linejoin="round"/>
</svg>
