<svg width="40" height="40" viewBox="0 0 40 40" fill="none" xmlns="http://www.w3.org/2000/svg">
<g clip-path="url(#clip0_91_1578)">
<path fill-rule="evenodd" clip-rule="evenodd" d="M4 20C4 27.92 9.76 34.48 17.36 35.84L17.4546 35.7626C17.45 35.7617 17.4453 35.7609 17.4406 35.76V24.48H13.4406V20H17.4406V16.48C17.4406 12.48 20.0006 10.24 23.6806 10.24C24.8006 10.24 26.0806 10.4 27.2006 10.56V14.64H25.1206C23.2006 14.64 22.7206 15.6 22.7206 16.88V20H26.9606L26.2406 24.48H22.7206V35.76C22.6717 35.7689 22.6228 35.7776 22.574 35.786L22.64 35.84C30.24 34.48 36 27.92 36 20C36 11.2 28.8 4 20 4C11.2 4 4 11.2 4 20Z" fill="black"/>
</g>
<defs>
<clipPath id="clip0_91_1578">
<rect width="32" height="32" fill="white" transform="translate(4 4)"/>
</clipPath>
</defs>
</svg>
