<svg width="40" height="40" viewBox="0 0 40 40" fill="none" xmlns="http://www.w3.org/2000/svg">
<circle cx="20" cy="20.5" r="15.25" stroke="#222222" stroke-width="1.5"/>
<path fill-rule="evenodd" clip-rule="evenodd" d="M26.2509 14.835C26.9397 15.0196 27.4811 15.5616 27.6654 16.2513C27.9987 17.5002 28 20.1074 28 20.1074C28 20.1074 28 22.7146 27.6654 23.9635C27.4811 24.6532 26.9397 25.1952 26.2509 25.3798C25.0036 25.7148 20 25.7148 20 25.7148C20 25.7148 14.9964 25.7148 13.7491 25.3798C13.0603 25.1952 12.5189 24.6532 12.3345 23.9635C12 22.7146 12 20.1074 12 20.1074C12 20.1074 12 17.5002 12.3345 16.2513C12.5189 15.5616 13.0603 15.0196 13.7491 14.835C14.9964 14.5 20 14.5 20 14.5C20 14.5 25.0036 14.5 26.2509 14.835ZM22.5552 20.1076L18.3984 22.5104V17.7048L22.5552 20.1076Z" fill="#222222"/>
</svg>
