<svg width="40" height="40" viewBox="0 0 40 40" fill="none" xmlns="http://www.w3.org/2000/svg">
<path fill-rule="evenodd" clip-rule="evenodd" d="M29.8729 11.6866C30.9785 11.9757 31.8474 12.8245 32.1433 13.9045C32.6781 15.86 32.6803 19.9426 32.6803 19.9426C32.6803 19.9426 32.6803 24.0252 32.1433 25.9808C31.8474 27.0608 30.9785 27.9095 29.8729 28.1985C27.8711 28.7231 19.8401 28.7231 19.8401 28.7231C19.8401 28.7231 11.8092 28.7231 9.80732 28.1985C8.70173 27.9095 7.8329 27.0608 7.53694 25.9808C7 24.0252 7 19.9426 7 19.9426C7 19.9426 7 15.86 7.53694 13.9045C7.8329 12.8245 8.70173 11.9757 9.80732 11.6866C11.8092 11.1621 19.8401 11.1621 19.8401 11.1621C19.8401 11.1621 27.8711 11.1621 29.8729 11.6866ZM23.9412 19.943L17.2695 23.7054V16.1804L23.9412 19.943Z" fill="white"/>
</svg>
