<svg width="40" height="41" viewBox="0 0 40 41" fill="none" xmlns="http://www.w3.org/2000/svg">
<circle cx="20" cy="20.4412" r="16" fill="black"/>
<path d="M29.7142 15.4899C29.4775 14.6043 28.7824 13.9083 27.8979 13.6713C26.2965 13.2412 19.8717 13.2412 19.8717 13.2412C19.8717 13.2412 13.447 13.2412 11.8455 13.6713C10.961 13.9083 10.2659 14.6043 10.0292 15.4899C9.59961 17.0935 9.59961 20.4412 9.59961 20.4412C9.59961 20.4412 9.59961 23.7889 10.0292 25.3925C10.2659 26.2781 10.961 26.974 11.8455 27.2111C13.447 27.6412 19.8717 27.6412 19.8717 27.6412C19.8717 27.6412 26.2965 27.6412 27.8979 27.2111C28.7824 26.974 29.4775 26.2781 29.7142 25.3925C30.1438 23.7889 30.1438 20.4412 30.1438 20.4412C30.1438 20.4412 30.1421 17.0935 29.7142 15.4899Z" fill="white"/>
<path d="M17.8145 23.5267L23.1518 20.4415L17.8145 17.3562V23.5267Z" fill="black"/>
</svg>
