<svg width="40" height="41" viewBox="0 0 40 41" fill="none" xmlns="http://www.w3.org/2000/svg">
<path fill-rule="evenodd" clip-rule="evenodd" d="M36 20.6274C36 29.464 28.8366 36.6274 20 36.6274C11.1634 36.6274 4 29.464 4 20.6274C4 11.7909 11.1634 4.62744 20 4.62744C28.8366 4.62744 36 11.7909 36 20.6274ZM29.7142 15.6762C29.4775 14.7906 28.7824 14.0946 27.8979 13.8575C26.2965 13.4274 19.8717 13.4274 19.8717 13.4274C19.8717 13.4274 13.447 13.4274 11.8455 13.8575C10.961 14.0946 10.2659 14.7906 10.0292 15.6762C9.59961 17.2797 9.59961 20.6274 9.59961 20.6274C9.59961 20.6274 9.59961 23.9751 10.0292 25.5787C10.2659 26.4643 10.961 27.1603 11.8455 27.3973C13.447 27.8274 19.8717 27.8274 19.8717 27.8274C19.8717 27.8274 26.2965 27.8274 27.8979 27.3973C28.7824 27.1603 29.4775 26.4643 29.7142 25.5787C30.1438 23.9751 30.1438 20.6274 30.1438 20.6274C30.1438 20.6274 30.1421 17.2797 29.7142 15.6762ZM23.1529 20.6277L17.8156 23.7129V17.5425L23.1529 20.6277Z" fill="white"/>
</svg>
