<svg width="40" height="40" viewBox="0 0 40 40" fill="none" xmlns="http://www.w3.org/2000/svg">
<circle cx="20" cy="20" r="16" fill="black"/>
<g clip-path="url(#clip0_91_1644)">
<path d="M18.6671 18.3159V17.6843C18.4566 17.6317 18.2461 17.6317 18.0355 17.6317C15.3513 17.6317 13.1934 19.7896 13.1934 22.4738C13.1934 24.1053 14.0355 25.579 15.246 26.4211L15.1934 26.3685C14.4039 25.5264 13.9828 24.3686 13.9828 23.158C13.9828 20.4738 16.0881 18.3685 18.6671 18.3159Z" fill="#25F4EE"/>
<path d="M18.768 25.3684C19.9786 25.3684 20.9259 24.4211 20.9786 23.2105V12.6842H22.8733C22.8207 12.4737 22.8207 12.2632 22.8207 12H20.1891V22.5263C20.1365 23.6842 19.1891 24.6316 17.9785 24.6316C17.6101 24.6316 17.2417 24.5263 16.9785 24.3684C17.3996 24.9474 18.0312 25.3684 18.768 25.3684ZM26.5049 16.2632V15.6316C25.768 15.6316 25.0838 15.4211 24.5048 15.0526C25.0312 15.6316 25.7154 16.1053 26.5049 16.2632Z" fill="#25F4EE"/>
<path d="M24.5085 15.0525C23.9295 14.4209 23.6137 13.5788 23.6137 12.6315H22.8769C23.0874 13.6841 23.719 14.5262 24.5085 15.0525ZM18.0348 20.2104C16.8242 20.2104 15.8242 21.2104 15.8242 22.4209C15.8242 23.263 16.3505 23.9998 17.0348 24.3683C16.7716 23.9998 16.6137 23.5788 16.6137 23.1051C16.6137 21.8946 17.6137 20.8946 18.8243 20.8946C19.0348 20.8946 19.2453 20.9472 19.4558 20.9998V18.3156C19.2453 18.263 19.0348 18.263 18.8243 18.263H18.719V20.263C18.4558 20.263 18.2453 20.2104 18.0348 20.2104Z" fill="#FE2C55"/>
<path d="M26.5075 16.2634V18.2634C25.139 18.2634 23.8758 17.8423 22.8758 17.1055V22.4739C22.8758 25.1581 20.7179 27.316 18.0337 27.316C16.981 27.316 16.0336 27.0002 15.2441 26.4739C16.1389 27.4213 17.4021 28.0002 18.7705 28.0002C21.4548 28.0002 23.6127 25.8423 23.6127 23.1581V17.7897C24.6653 18.5265 25.9285 18.9476 27.2443 18.9476V16.316C27.0338 16.316 26.7706 16.316 26.5075 16.2634Z" fill="#FE2C55"/>
<path d="M22.8772 22.4736V17.1052C23.9298 17.8421 25.193 18.2631 26.5088 18.2631V16.2104C25.7193 16.0525 25.0351 15.6315 24.5088 15.0525C23.6667 14.5262 23.0877 13.6315 22.9298 12.6315H20.9824V23.1578C20.9298 24.3157 19.9824 25.2631 18.7719 25.2631C18.035 25.2631 17.4034 24.8946 16.9824 24.3683C16.2981 24.0525 15.8245 23.3157 15.8245 22.4736C15.8245 21.2631 16.8245 20.2631 18.035 20.2631C18.2455 20.2631 18.4561 20.3157 18.6666 20.3683V18.3157C16.035 18.3683 13.9297 20.5263 13.9297 23.1578C13.9297 24.421 14.4034 25.5788 15.2455 26.4736C16.035 26.9999 16.9824 27.3684 18.035 27.3684C20.7193 27.3157 22.8772 25.1052 22.8772 22.4736Z" fill="white"/>
</g>
<defs>
<clipPath id="clip0_91_1644">
<rect width="15.6479" height="16" fill="white" transform="translate(12 12)"/>
</clipPath>
</defs>
</svg>
