<svg width="40" height="40" viewBox="0 0 40 40" fill="none" xmlns="http://www.w3.org/2000/svg">
<path fill-rule="evenodd" clip-rule="evenodd" d="M20 36C28.8366 36 36 28.8366 36 20C36 11.1634 28.8366 4 20 4C11.1634 4 4 11.1634 4 20C4 28.8366 11.1634 36 20 36ZM27.176 11.9943L21.3477 18.7692H21.3474L27.6863 27.9943H23.0243L18.7557 21.7821L13.4115 27.9943H12.0303L18.1425 20.8897L12.0303 11.9943H16.6922L20.7342 17.8768L25.7949 11.9943H27.176ZM18.8367 20.0823L19.456 20.9681V20.9684L23.6741 27.0018H25.7955L20.6265 19.608L20.0072 18.7222L16.0306 13.034H13.9091L18.8367 20.0823Z" fill="white"/>
</svg>
