<svg width="40" height="40" viewBox="0 0 40 40" fill="none" xmlns="http://www.w3.org/2000/svg">
<path d="M19.9998 4.00002C11.1634 4.00002 4 11.1636 4 19.9999C4 26.7783 8.21718 32.573 14.1692 34.9043C14.0292 33.6383 13.9029 31.6915 14.2247 30.3094C14.5154 29.0608 16.1009 22.3564 16.1009 22.3564C16.1009 22.3564 15.6222 21.398 15.6222 19.9809C15.6222 17.7562 16.9117 16.0952 18.5173 16.0952C19.8823 16.0952 20.5418 17.1202 20.5418 18.349C20.5418 19.7219 19.6678 21.7742 19.2166 23.6762C18.8397 25.2689 20.0153 26.5675 21.5859 26.5675C24.4298 26.5675 26.6157 23.569 26.6157 19.2407C26.6157 15.4099 23.8629 12.7314 19.9325 12.7314C15.3799 12.7314 12.7077 16.1461 12.7077 19.6749C12.7077 21.0501 13.2374 22.5246 13.8984 23.3262C14.029 23.4846 14.0483 23.6235 14.0094 23.7851C13.8879 24.2905 13.618 25.3772 13.565 25.5996C13.4952 25.8925 13.333 25.9547 13.0299 25.8136C11.0315 24.8834 9.78224 21.9619 9.78224 19.6152C9.78224 14.5681 13.4492 9.93307 20.354 9.93307C25.9043 9.93307 30.2178 13.888 30.2178 19.1737C30.2178 24.688 26.741 29.1257 21.9152 29.1257C20.2939 29.1257 18.7697 28.2834 18.248 27.2885C18.248 27.2885 17.4457 30.3434 17.2512 31.092C16.8898 32.4818 15.9148 34.2238 15.2625 35.2864C16.7597 35.75 18.3506 35.9999 19.9998 35.9999C28.8366 35.9999 36 28.8367 36 19.9999C36 11.1636 28.8366 4.00002 19.9998 4.00002Z" fill="black"/>
</svg>
