<svg width="40" height="40" viewBox="0 0 40 40" fill="none" xmlns="http://www.w3.org/2000/svg">
<g clip-path="url(#clip0_95_1882)">
<path fill-rule="evenodd" clip-rule="evenodd" d="M20 6C27.7319 6 34 12.2681 34 20C34 27.7319 27.7319 34 20 34C12.2681 34 6 27.7319 6 20C6 12.2681 12.2681 6 20 6ZM24.5356 15.5566C23.7364 15.0358 23.1601 14.202 22.98 13.2305C22.9403 13.0171 22.9201 12.8006 22.9198 12.5835H20.3696L20.3655 22.8033C20.3227 23.9478 19.3807 24.8664 18.2262 24.8664C17.8796 24.8665 17.5382 24.782 17.2317 24.6201C16.5493 24.2611 16.0824 23.546 16.0824 22.7229C16.0824 21.5409 17.0442 20.5791 18.2258 20.5791C18.4464 20.5791 18.6582 20.6156 18.8583 20.6781V18.0748C18.6511 18.0465 18.4405 18.0291 18.2258 18.0291C15.6378 18.029 13.5323 20.1345 13.5323 22.7229C13.5323 24.3109 14.3255 25.7162 15.5362 26.5659C16.2985 27.1014 17.2261 27.4165 18.2262 27.4165C20.8142 27.4165 22.9198 25.311 22.9198 22.7229V17.5405C23.9199 18.2582 25.1454 18.6812 26.4677 18.6812V16.1311C25.7556 16.1311 25.0922 15.9194 24.5356 15.5566Z" fill="white"/>
</g>
<defs>
<clipPath id="clip0_95_1882">
<rect width="28" height="28" fill="white" transform="translate(6 6)"/>
</clipPath>
</defs>
</svg>
