<svg width="40" height="40" viewBox="0 0 40 40" fill="none" xmlns="http://www.w3.org/2000/svg">
<circle cx="20" cy="20" r="15.25" stroke="#222222" stroke-width="1.5"/>
<path d="M24.0578 14.5067C23.4503 13.8129 23.1155 12.9221 23.1156 12H20.3689V23.0222C20.3481 23.6188 20.0965 24.1841 19.6669 24.5987C19.2374 25.0133 18.6636 25.2448 18.0667 25.2444C16.8044 25.2444 15.7556 24.2133 15.7556 22.9333C15.7556 21.4044 17.2311 20.2578 18.7511 20.7289V17.92C15.6844 17.5111 13 19.8933 13 22.9333C13 25.8933 15.4533 28 18.0578 28C20.8489 28 23.1156 25.7333 23.1156 22.9333V17.3422C24.2293 18.1421 25.5665 18.5712 26.9378 18.5689V15.8222C26.9378 15.8222 25.2667 15.9022 24.0578 14.5067Z" fill="#222222"/>
</svg>
