<svg width="40" height="40" viewBox="0 0 40 40" fill="none" xmlns="http://www.w3.org/2000/svg">
<g clip-path="url(#clip0_91_1653)">
<path fill-rule="evenodd" clip-rule="evenodd" d="M20 4C28.8365 4 36 11.1635 36 20C36 28.8365 28.8365 36 20 36C11.1635 36 4 28.8365 4 20C4 11.1635 11.1635 4 20 4ZM25.1836 14.9219C24.2702 14.3266 23.6116 13.3737 23.4058 12.2634C23.3603 12.0196 23.3373 11.7721 23.3369 11.524H20.4224L20.4177 23.2038C20.3688 24.5118 19.2922 25.5616 17.9728 25.5616C17.5767 25.5617 17.1865 25.4651 16.8362 25.2801C16.0563 24.8698 15.5227 24.0526 15.5227 23.1119C15.5227 21.7611 16.6219 20.6619 17.9723 20.6619C18.2245 20.6619 18.4665 20.7036 18.6952 20.7749V17.7998C18.4584 17.7674 18.2177 17.7475 17.9723 17.7475C15.0146 17.7474 12.6083 20.1537 12.6083 23.1119C12.6083 24.9267 13.5148 26.5327 14.8985 27.5039C15.7698 28.1159 16.8298 28.476 17.9728 28.476C20.9306 28.476 23.3369 26.0697 23.3369 23.1119V17.1891C24.4799 18.0094 25.8805 18.4928 27.3917 18.4928V15.5784C26.5778 15.5784 25.8197 15.3365 25.1836 14.9219Z" fill="white"/>
</g>
<defs>
<clipPath id="clip0_91_1653">
<rect width="32" height="32" fill="white" transform="translate(4 4)"/>
</clipPath>
</defs>
</svg>
